<svg width="22" height="26" viewBox="0 0 22 26" fill="none" xmlns="http://www.w3.org/2000/svg">
<path d="M21.0437 6.3375C21.2062 6.09375 21.0437 5.6875 20.7188 5.6875H13V13.8125H9.75C9.75 14.2188 10.1562 14.625 10.5625 14.625H20.7188C21.0437 14.625 21.2062 14.3 21.0437 13.975L18.7688 10.5625C18.6063 10.3187 18.6063 9.9125 18.7688 9.66875L21.0437 6.3375Z" fill="#161D3B"/>
<path d="M3.25 1.625C3.25 0.73125 2.51875 0 1.625 0C0.73125 0 0 0.73125 0 1.625C0 2.19375 0.325 2.7625 0.8125 3.00625V26H2.4375V12.1875H11.375V4.0625H2.4375V3.00625C2.925 2.7625 3.25 2.19375 3.25 1.625Z" fill="#161D3B"/>
</svg>
