<svg width="22" height="22" viewBox="0 0 22 22" fill="none" xmlns="http://www.w3.org/2000/svg">
<path d="M3.47092 13.2175C3.45535 13.1215 3.43978 13.0229 3.4268 12.9242C3.43718 12.9943 3.44497 13.0618 3.45535 13.1319C3.36192 12.4 3.36192 11.6604 3.45535 10.9311C3.44497 11.0012 3.43718 11.0687 3.4268 11.1388C3.52542 10.4043 3.72006 9.68806 4.00812 9.00553C3.98217 9.06782 3.95622 9.1301 3.93027 9.19239C4.09376 8.8083 4.28321 8.43719 4.5012 8.08165C4.60761 7.90778 4.72179 7.73649 4.84117 7.573C4.86972 7.53407 4.89827 7.49514 4.92681 7.45622C4.94498 7.43286 4.96055 7.40431 4.98131 7.38355C4.98131 7.38355 4.85155 7.54705 4.92681 7.45622C4.99429 7.37317 5.06176 7.28753 5.13183 7.20708C5.39394 6.89825 5.68201 6.605 5.98564 6.3377C6.05831 6.27541 6.13097 6.21313 6.20364 6.15085C6.23997 6.1197 6.2789 6.09116 6.31523 6.06001C6.3334 6.04444 6.35416 6.03147 6.37232 6.0159C6.17768 6.17161 6.28149 6.08597 6.3282 6.04963C6.4917 5.92766 6.65779 5.81088 6.83167 5.70188C7.22873 5.44755 7.64655 5.22696 8.07994 5.04271C8.01766 5.06866 7.95538 5.09461 7.89309 5.12056C8.00468 5.07385 8.11887 5.02973 8.23306 4.98561C8.4277 4.91295 8.59119 4.81174 8.6976 4.62748C8.79621 4.46139 8.83773 4.21485 8.77545 4.028C8.65607 3.65689 8.22527 3.33249 7.81783 3.48301C6.34378 4.03578 5.00726 4.93371 3.99515 6.14306C2.98043 7.355 2.25898 8.8083 1.98129 10.3706C1.78925 11.458 1.78925 12.5402 1.97091 13.6301C2.00206 13.8118 2.17593 14.0064 2.32905 14.0947C2.49514 14.1933 2.74168 14.2348 2.92853 14.1725C3.11798 14.1128 3.29964 13.996 3.39307 13.8144C3.49687 13.6223 3.50725 13.4355 3.47092 13.2175Z" fill="#161D3B"/>
<path d="M15.6801 17.9033C15.6386 17.937 15.5944 17.9733 15.5529 18.0071C15.5322 18.0252 15.5088 18.0408 15.488 18.059C15.5867 17.9837 15.61 17.963 15.5633 17.9993C15.4803 18.0616 15.3972 18.1239 15.3142 18.1809C15.1559 18.2925 14.995 18.3989 14.8289 18.4976C14.4837 18.7052 14.1256 18.8868 13.7545 19.0451C13.8168 19.0192 13.879 18.9932 13.9413 18.9673C13.2744 19.245 12.5737 19.437 11.8574 19.5356C11.9275 19.5252 11.9949 19.5175 12.065 19.5071C11.3098 19.6083 10.5468 19.6083 9.79164 19.5071C9.86171 19.5175 9.92919 19.5252 9.99926 19.5356C9.28299 19.437 8.58229 19.245 7.91534 18.9673C7.97762 18.9932 8.0399 19.0192 8.10219 19.0451C7.73108 18.8894 7.37294 18.7052 7.02779 18.4976C6.8617 18.3989 6.7008 18.2925 6.54249 18.1809C6.46464 18.1265 6.38678 18.0668 6.30893 18.0097C6.24405 17.9604 6.26481 17.9759 6.36861 18.0564C6.34785 18.0382 6.3245 18.0226 6.30373 18.0045C6.25962 17.9707 6.21809 17.9344 6.17657 17.9007C6.01308 17.7657 5.84698 17.6723 5.62639 17.6723C5.43435 17.6723 5.20857 17.7579 5.07622 17.9007C4.81411 18.1861 4.74144 18.7259 5.07622 19.001C6.32969 20.0339 7.8271 20.7631 9.4387 21.0123C11.0944 21.2692 12.8046 21.1135 14.3565 20.4647C15.2441 20.0936 16.0434 19.6109 16.7856 19.001C16.931 18.8816 17.014 18.6299 17.014 18.4508C17.014 18.2588 16.9284 18.033 16.7856 17.9007C16.6377 17.7657 16.4431 17.6645 16.2355 17.6723C16.0123 17.6853 15.8462 17.7657 15.6801 17.9033Z" fill="#161D3B"/>
<path d="M13.6126 4.98639C13.7268 5.02791 13.8384 5.07463 13.9526 5.12134C13.8903 5.09539 13.828 5.06943 13.7657 5.04348C14.1498 5.20698 14.5209 5.39643 14.8765 5.61442C15.0504 5.72082 15.2216 5.83501 15.3851 5.95439C15.4241 5.98294 15.463 6.01148 15.5019 6.04003C15.5253 6.0582 15.5538 6.07377 15.5746 6.09453C15.5746 6.09453 15.4111 5.96477 15.5019 6.04003C15.585 6.1075 15.6706 6.17498 15.7511 6.24505C16.0599 6.50716 16.3531 6.79522 16.6204 7.09886C16.6827 7.17152 16.745 7.24419 16.8073 7.31685C16.8384 7.35319 16.867 7.39211 16.8981 7.42845C16.9137 7.44661 16.9267 7.46737 16.9422 7.48554C16.7865 7.2909 16.8722 7.39471 16.9085 7.44142C17.0305 7.60492 17.1473 7.77101 17.2563 7.94488C17.5106 8.34195 17.7312 8.75977 17.9154 9.19316C17.8895 9.13088 17.8635 9.06859 17.8376 9.00631C18.1256 9.68884 18.3203 10.4077 18.4189 11.1395C18.4085 11.0695 18.4007 11.002 18.3903 10.9319C18.4864 11.6638 18.4864 12.4034 18.3903 13.1326C18.4007 13.0626 18.4085 12.9951 18.4189 12.925C18.4059 13.0236 18.3903 13.1197 18.3748 13.2183C18.3384 13.4311 18.341 13.6257 18.4526 13.8178C18.5461 13.9787 18.7329 14.1344 18.9172 14.1759C19.2935 14.2615 19.8047 14.0617 19.8748 13.6309C20.0409 12.6318 20.0487 11.6508 19.9085 10.6491C19.7943 9.84974 19.5556 9.09195 19.2364 8.35233C18.6161 6.90941 17.591 5.68449 16.3453 4.73725C15.6395 4.20005 14.8557 3.79521 14.0279 3.48379C13.8488 3.41631 13.5867 3.46821 13.4284 3.56164C13.2675 3.65507 13.1118 3.84192 13.0702 4.02618C12.969 4.46995 13.2052 4.83327 13.6126 4.98639Z" fill="#161D3B"/>
<circle cx="10.9993" cy="3.71807" r="3.71807" fill="#161D3B"/>
<path d="M13.1601 3.72366C13.1601 3.85083 13.1523 3.97799 13.1368 4.10256C13.1471 4.03249 13.1549 3.96501 13.1653 3.89494C13.129 4.15446 13.0641 4.40619 12.9629 4.65014C12.9888 4.58785 13.0148 4.52557 13.0407 4.46329C12.9681 4.63457 12.8798 4.80066 12.776 4.95637C12.7501 4.9953 12.7241 5.03163 12.6956 5.07056C12.6203 5.17696 12.8331 4.90187 12.7112 5.04979C12.6515 5.11986 12.5892 5.18993 12.5243 5.25481C12.4594 5.31969 12.3893 5.38198 12.3193 5.44166C12.1714 5.56364 12.4464 5.35343 12.34 5.42609C12.3011 5.45204 12.2648 5.48059 12.2259 5.50654C12.0701 5.61035 11.9041 5.69599 11.7328 5.76866C11.7951 5.7427 11.8573 5.71675 11.9196 5.6908C11.6861 5.78682 11.4447 5.8517 11.1956 5.88803C11.2656 5.87765 11.3331 5.86987 11.4032 5.85949C11.1333 5.89582 10.8634 5.89582 10.5935 5.85949C10.6636 5.86987 10.731 5.87765 10.8011 5.88803C10.552 5.8517 10.3106 5.78682 10.0771 5.6908C10.1393 5.71675 10.2016 5.7427 10.2639 5.76866C10.0926 5.69599 9.92653 5.60776 9.77082 5.50654C9.73189 5.48059 9.69556 5.45464 9.65664 5.42609C9.55023 5.35083 9.82532 5.56364 9.6774 5.44166C9.60473 5.38198 9.53726 5.31969 9.47238 5.25481C9.4075 5.18993 9.34521 5.11986 9.28553 5.04979C9.16355 4.90187 9.37636 5.17696 9.3011 5.07056C9.27514 5.03163 9.2466 4.9953 9.22065 4.95637C9.11684 4.80066 9.0286 4.63457 8.95594 4.46329C8.98189 4.52557 9.00784 4.58785 9.03379 4.65014C8.93518 4.40619 8.8677 4.15706 8.83137 3.89494C8.84175 3.96501 8.84954 4.03249 8.85992 4.10256C8.82878 3.84304 8.82878 3.58352 8.86251 3.3266C8.85213 3.39667 8.84435 3.46414 8.83397 3.53421C8.8703 3.27989 8.93777 3.03075 9.03639 2.792C9.01044 2.85428 8.98449 2.91656 8.95853 2.97885C9.0312 2.81016 9.11684 2.64926 9.21805 2.49615C9.244 2.45722 9.26995 2.42089 9.29591 2.38455C9.3556 2.29891 9.23622 2.45981 9.23622 2.45981C9.23881 2.44684 9.26995 2.41829 9.27774 2.40791C9.34002 2.33265 9.4049 2.26258 9.47238 2.19511C9.53726 2.13023 9.60473 2.07054 9.67221 2.01085C9.69037 1.99528 9.70854 1.9823 9.72411 1.96673C9.79158 1.90964 9.57359 2.07573 9.64885 2.02642C9.68778 2.00047 9.72151 1.97452 9.76044 1.94857C9.91875 1.84216 10.0848 1.75393 10.2587 1.68126C10.1964 1.70721 10.1341 1.73317 10.0719 1.75912C10.3106 1.6605 10.5572 1.59303 10.8141 1.55669C10.744 1.56708 10.6765 1.57486 10.6065 1.58524C10.8712 1.5515 11.1359 1.5515 11.4006 1.58524C11.3305 1.57486 11.263 1.56708 11.193 1.55669C11.4473 1.59303 11.6964 1.6605 11.9352 1.75912C11.8729 1.73317 11.8106 1.70721 11.7483 1.68126C11.917 1.75393 12.0779 1.83957 12.231 1.94078C12.27 1.96673 12.3063 1.99268 12.3426 2.01864C12.4283 2.07832 12.2674 1.95895 12.2674 1.95895C12.2804 1.96154 12.3089 1.99268 12.3193 2.00047C12.3945 2.06275 12.4646 2.12763 12.5321 2.19511C12.597 2.25999 12.6567 2.32746 12.7163 2.39493C12.7319 2.4131 12.7449 2.43127 12.7605 2.44684C12.8176 2.51431 12.6515 2.29632 12.7008 2.37158C12.7267 2.41051 12.7527 2.44424 12.7786 2.48317C12.885 2.64148 12.9733 2.80757 13.0459 2.98144C13.02 2.91916 12.994 2.85687 12.9681 2.79459C13.0667 3.03335 13.1342 3.27989 13.1705 3.53681C13.1601 3.46674 13.1523 3.39927 13.1419 3.3292C13.1497 3.45895 13.1575 3.58871 13.1601 3.72366C13.1627 4.1311 13.5157 4.52038 13.9387 4.50221C14.3591 4.48405 14.7198 4.15965 14.7172 3.72366C14.712 2.99701 14.5018 2.2522 14.0866 1.65272C13.6376 1.00392 13.0381 0.536793 12.3063 0.243539C10.9335 -0.306637 9.25698 0.1034 8.26562 1.19078C7.78292 1.72019 7.42998 2.38974 7.32617 3.10342C7.2042 3.95204 7.32617 4.79806 7.74659 5.55066C8.09434 6.1761 8.6523 6.71849 9.29331 7.03769C10.0407 7.40621 10.8374 7.51261 11.6575 7.38545C13.1108 7.15707 14.3617 5.92696 14.6342 4.48664C14.6809 4.23751 14.712 3.98058 14.7146 3.72626C14.7172 3.31882 14.3539 2.92954 13.9361 2.94771C13.5131 2.96328 13.1627 3.28508 13.1601 3.72366Z" fill="#161D3B"/>
<path d="M20.1608 17.5488C20.1167 17.6214 20.0726 17.6941 20.0232 17.7642C20.0025 17.7927 19.9817 17.8213 19.961 17.8524C20.1037 17.65 20.0336 17.7616 19.9947 17.8057C19.8935 17.9277 19.7819 18.0393 19.6651 18.1431C19.6469 18.1612 19.5976 18.2183 19.5717 18.2209C19.6054 18.2183 19.743 18.0938 19.6184 18.182C19.5587 18.2261 19.4964 18.2676 19.4315 18.3066C19.2992 18.387 19.1642 18.4571 19.0215 18.5168C19.0838 18.4908 19.1461 18.4649 19.2084 18.4389C18.967 18.5375 18.7153 18.605 18.4558 18.6414C18.5258 18.631 18.5933 18.6232 18.6634 18.6128C18.4013 18.6465 18.1392 18.6439 17.877 18.6102C17.9471 18.6206 18.0146 18.6284 18.0847 18.6388C17.8277 18.6024 17.5812 18.5324 17.3424 18.4337C17.4047 18.4597 17.467 18.4856 17.5293 18.5116C17.3606 18.4389 17.1971 18.3507 17.0414 18.2495C17.0154 18.2313 16.9895 18.2131 16.9635 18.195C16.8961 18.1457 16.9116 18.1587 17.0077 18.2313C16.9843 18.2002 16.935 18.1742 16.9064 18.1483C16.839 18.0912 16.7767 18.0289 16.7144 17.9666C16.6547 17.9043 16.5976 17.8368 16.5405 17.7694C16.4471 17.6578 16.6521 17.9277 16.5717 17.8083C16.5431 17.7668 16.5146 17.7279 16.4886 17.6863C16.3952 17.541 16.3147 17.3905 16.2473 17.2322C16.2732 17.2945 16.2992 17.3567 16.3251 17.419C16.2213 17.1699 16.1513 16.9104 16.1149 16.6431C16.1253 16.7131 16.1331 16.7806 16.1435 16.8507C16.1123 16.5938 16.1123 16.3342 16.1461 16.0773C16.1357 16.1474 16.1279 16.2149 16.1175 16.2849C16.1538 16.0228 16.2265 15.7685 16.3277 15.522C16.3018 15.5842 16.2758 15.6465 16.2499 15.7088C16.3277 15.5323 16.4186 15.3637 16.5276 15.2028C16.5535 15.1638 16.5821 15.1145 16.6158 15.0808C16.5898 15.1145 16.5639 15.1457 16.5405 15.1794C16.5561 15.1612 16.5717 15.1405 16.5872 15.1223C16.6469 15.0522 16.7092 14.9848 16.7741 14.9199C16.839 14.8576 16.9064 14.7979 16.9765 14.7382C17.0855 14.6448 16.8156 14.8524 16.9324 14.772C16.9713 14.7434 17.0103 14.7175 17.0492 14.6889C17.1971 14.5903 17.3554 14.5072 17.5163 14.4372C17.454 14.4631 17.3917 14.4891 17.3295 14.515C17.5812 14.4086 17.8407 14.3386 18.1106 14.2996C18.0405 14.31 17.9731 14.3178 17.903 14.3282C18.1625 14.2944 18.4246 14.297 18.6841 14.3308C18.6141 14.3204 18.5466 14.3126 18.4765 14.3022C18.7283 14.3386 18.9696 14.406 19.2058 14.5021C19.1435 14.4761 19.0812 14.4502 19.0189 14.4242C19.2136 14.5072 19.4004 14.6085 19.5743 14.7304C19.6262 14.7668 19.7559 14.8861 19.5613 14.7149C19.5976 14.746 19.634 14.7745 19.6703 14.8057C19.7352 14.8628 19.8001 14.9251 19.8598 14.9874C19.9194 15.0496 19.9739 15.1197 20.031 15.1846C19.8572 14.9899 19.9739 15.1119 20.0129 15.1638C20.0362 15.1976 20.0596 15.2287 20.0803 15.2624C20.1764 15.4104 20.2568 15.5687 20.3269 15.7296C20.3009 15.6673 20.275 15.605 20.249 15.5427C20.3476 15.7841 20.4151 16.0358 20.4514 16.2953C20.4411 16.2252 20.4333 16.1578 20.4229 16.0877C20.4566 16.3498 20.454 16.6119 20.4203 16.874C20.4307 16.804 20.4385 16.7365 20.4489 16.6664C20.4125 16.9233 20.3425 17.1699 20.2438 17.4086C20.2698 17.3464 20.2957 17.2841 20.3217 17.2218C20.2724 17.336 20.2205 17.4424 20.1608 17.5488C19.9584 17.9017 20.0648 18.4156 20.4411 18.6128C20.8096 18.8074 21.2923 18.7114 21.5051 18.3325C22.2188 17.0791 22.1695 15.4389 21.2897 14.2763C20.781 13.6067 20.0985 13.1059 19.281 12.8775C18.5829 12.6828 17.7992 12.6958 17.1141 12.932C16.3459 13.1967 15.7153 13.6768 15.2378 14.3308C14.7862 14.9484 14.55 15.7477 14.563 16.5107C14.5916 18.1431 15.7049 19.6042 17.2802 20.0505C18.6556 20.4372 20.2464 19.9727 21.1418 18.8464C21.2741 18.6803 21.3987 18.5142 21.5077 18.3299C21.7127 17.977 21.6011 17.4606 21.2274 17.2659C20.8511 17.0713 20.3788 17.1725 20.1608 17.5488Z" fill="#161D3B"/>
<circle cx="18.2806" cy="16.4603" r="3.71807" fill="#161D3B"/>
<path d="M5.06991 18.1652C5.05693 18.1755 4.93496 18.2742 5.03877 18.1911C5.13998 18.1133 5.02579 18.1989 5.00243 18.2145C4.93755 18.2612 4.87008 18.3027 4.80001 18.3416C4.6962 18.4013 4.58721 18.4558 4.47561 18.5025C4.5379 18.4766 4.60018 18.4506 4.66247 18.4247C4.42371 18.5233 4.17717 18.5934 3.92025 18.6297C3.99032 18.6193 4.05779 18.6115 4.12786 18.6012C3.86575 18.6349 3.60364 18.6375 3.34152 18.6038C3.41159 18.6141 3.47907 18.6219 3.54914 18.6323C3.28962 18.596 3.03789 18.5285 2.79654 18.4299C2.85882 18.4558 2.92111 18.4818 2.98339 18.5077C2.81471 18.4377 2.6538 18.352 2.50069 18.2534C2.46176 18.2275 2.42543 18.2015 2.3865 18.1755C2.23079 18.064 2.50588 18.2768 2.40726 18.1911C2.33979 18.134 2.27491 18.0769 2.21263 18.0172C2.15034 17.955 2.09065 17.8927 2.03356 17.8252C1.99204 17.7759 1.89861 17.6306 2.04394 17.8434C2.01799 17.8044 1.98685 17.7655 1.96089 17.7266C1.8519 17.5657 1.76107 17.397 1.68321 17.2179C1.70916 17.2802 1.73511 17.3425 1.76107 17.4048C1.66245 17.166 1.59238 16.9195 1.55605 16.6626C1.56643 16.7326 1.57421 16.8001 1.58459 16.8702C1.55086 16.6081 1.54826 16.346 1.582 16.0838C1.57162 16.1539 1.56383 16.2214 1.55345 16.2915C1.58978 16.0319 1.65726 15.7802 1.75588 15.5389C1.72992 15.6011 1.70397 15.6634 1.67802 15.7257C1.74549 15.5674 1.82335 15.4169 1.91418 15.2716C1.93754 15.2326 1.96349 15.1937 1.99204 15.1574C2.03096 15.1029 2.14775 14.9835 1.97387 15.1781C2.03096 15.1132 2.08546 15.0458 2.14515 14.9809C2.20484 14.9186 2.26972 14.8563 2.3346 14.7992C2.37093 14.7681 2.40726 14.7395 2.4436 14.7084C2.25415 14.8745 2.36315 14.7707 2.41505 14.7344C2.59412 14.6072 2.78616 14.5034 2.98599 14.4177C2.9237 14.4437 2.86142 14.4696 2.79913 14.4956C3.03529 14.3996 3.27665 14.3321 3.52838 14.2958C3.45831 14.3061 3.39083 14.3139 3.32076 14.3243C3.58028 14.2906 3.84239 14.2906 4.10191 14.3217C4.03184 14.3113 3.96437 14.3036 3.8943 14.2932C4.16419 14.3295 4.42631 14.4022 4.67544 14.5086C4.61316 14.4826 4.55087 14.4567 4.48859 14.4307C4.65209 14.5008 4.8078 14.5864 4.95572 14.6824C4.99465 14.7084 5.03358 14.7369 5.0725 14.7655C5.17891 14.8408 4.92198 14.6409 5.02838 14.7318C5.09845 14.7914 5.16593 14.8485 5.23081 14.9134C5.29569 14.9783 5.35797 15.0458 5.41766 15.1158C5.45659 15.16 5.52406 15.2716 5.38911 15.0743C5.41766 15.1158 5.4488 15.1548 5.47735 15.1963C5.58635 15.3546 5.67718 15.5259 5.75503 15.7023C5.72908 15.6401 5.70313 15.5778 5.67718 15.5155C5.78098 15.7594 5.85105 16.0138 5.88739 16.2785C5.87701 16.2084 5.86922 16.1409 5.85884 16.0709C5.89258 16.3278 5.89258 16.5847 5.86143 16.8442C5.87182 16.7742 5.8796 16.7067 5.88998 16.6366C5.85365 16.9039 5.78358 17.1634 5.67977 17.4126C5.70572 17.3503 5.73168 17.288 5.75763 17.2257C5.66939 17.4307 5.56039 17.6202 5.43323 17.8018C5.37354 17.8875 5.47735 17.7422 5.48773 17.7344C5.46956 17.7499 5.45659 17.7733 5.44102 17.7915C5.40469 17.8356 5.36835 17.8771 5.32942 17.9186C5.24897 18.0043 5.16074 18.0873 5.06991 18.1652C4.75849 18.4299 4.77665 18.9982 5.06991 19.2655C5.40209 19.5692 5.83808 19.5484 6.17026 19.2655C7.32771 18.2768 7.77148 16.5302 7.18497 15.1184C6.86836 14.3581 6.35971 13.717 5.65123 13.2837C5.03877 12.9074 4.28617 12.7101 3.5673 12.7465C1.97647 12.8269 0.577668 13.9117 0.139085 15.448C-0.273547 16.8909 0.253272 18.4844 1.43667 19.4005C2.61488 20.3114 4.24983 20.4385 5.55261 19.7067C5.7732 19.5821 5.97562 19.429 6.17026 19.2655C6.31559 19.1461 6.39864 18.897 6.39864 18.7153C6.39864 18.5233 6.31299 18.2975 6.17026 18.1652C6.02234 18.0302 5.8277 17.929 5.62008 17.9368C5.40209 17.9472 5.236 18.025 5.06991 18.1652Z" fill="#161D3B"/>
<circle cx="3.71807" cy="16.4603" r="3.71807" fill="#161D3B"/>
</svg>
