<svg width="22" height="18" viewBox="0 0 22 18" fill="none" xmlns="http://www.w3.org/2000/svg">
<path d="M0.03125 5.96875L9.11368 16.2357L6.10044 5.96875H0.03125Z" fill="#161D3B"/>
<path d="M14.742 5.08505L13.5378 0H8.20419L7 5.08505H14.742Z" fill="#161D3B"/>
<path d="M7.02344 5.96875L10.377 17.6712L10.5319 17.8463C10.6162 17.9394 10.7403 17.997 10.8644 17.997C10.993 17.997 11.1127 17.9394 11.1969 17.8463L11.3547 17.668L14.7073 5.96875H7.02344Z" fill="#161D3B"/>
<path d="M7.30792 0H3.94131C3.79943 0 3.66643 0.0665133 3.58663 0.181789L0 5.08505H6.07896L7.30792 0Z" fill="#161D3B"/>
<path d="M12.625 16.2325L21.7046 5.96875H15.6373L12.625 16.2325Z" fill="#161D3B"/>
<path d="M21.728 5.08505L18.1457 0.181789C18.0615 0.0665133 17.9285 0 17.7866 0H14.4219L15.6508 5.08505H21.728Z" fill="#161D3B"/>
</svg>
