<svg width="21" height="20" viewBox="0 0 21 20" fill="none" xmlns="http://www.w3.org/2000/svg">
<path d="M10.3714 2.44601V0.356822C10.3692 0.265564 10.3313 0.178801 10.266 0.115054C10.2007 0.0513068 10.113 0.015625 10.0217 0.015625C9.93042 0.015625 9.84275 0.0513068 9.77741 0.115054C9.71207 0.178801 9.67423 0.265564 9.67198 0.356822V2.44601C9.67083 2.49266 9.67902 2.53907 9.69608 2.58251C9.71314 2.62595 9.73872 2.66553 9.7713 2.69894C9.80389 2.73234 9.84284 2.75889 9.88584 2.77701C9.92884 2.79514 9.97504 2.80447 10.0217 2.80447C10.0684 2.80447 10.1146 2.79514 10.1576 2.77701C10.2006 2.75889 10.2395 2.73234 10.2721 2.69894C10.3047 2.66553 10.3303 2.62595 10.3473 2.58251C10.3644 2.53907 10.3726 2.49266 10.3714 2.44601Z" fill="#161D3B"/>
<path d="M7.04301 2.43882V0.349638C7.04289 0.256948 7.00602 0.168086 6.94048 0.102545C6.87494 0.0370029 6.78608 0.000132014 6.69339 1.91839e-05C6.64734 -0.000465715 6.60166 0.00824625 6.55902 0.0256445C6.51639 0.0430428 6.47765 0.0687774 6.44509 0.10134C6.41253 0.133902 6.38679 0.172636 6.36939 0.215273C6.352 0.25791 6.34328 0.30359 6.34377 0.349638V2.43882C6.34328 2.48488 6.352 2.53057 6.36939 2.57322C6.38679 2.61587 6.41252 2.65462 6.44508 2.68719C6.47764 2.71977 6.51637 2.74553 6.55901 2.76295C6.60164 2.78037 6.64733 2.78911 6.69339 2.78865C6.78611 2.78854 6.87501 2.75164 6.94056 2.68605C7.0061 2.62047 7.04295 2.53155 7.04301 2.43882Z" fill="#161D3B"/>
<path d="M17.0117 2.43882V0.349638C17.0122 0.30358 17.0035 0.257895 16.986 0.215257C16.9686 0.172619 16.9429 0.133887 16.9103 0.101327C16.8777 0.0687681 16.8389 0.043037 16.7963 0.0256412C16.7537 0.00824546 16.708 -0.000465264 16.6619 1.9149e-05C16.5692 0.000132076 16.4804 0.0370098 16.4149 0.102558C16.3494 0.168106 16.3126 0.256967 16.3125 0.349638V2.43882C16.3126 2.53151 16.3494 2.6204 16.4149 2.68598C16.4804 2.75156 16.5692 2.78849 16.6619 2.78865C16.708 2.78914 16.7537 2.78042 16.7964 2.76301C16.839 2.7456 16.8778 2.71985 16.9104 2.68727C16.9429 2.65469 16.9687 2.61593 16.9861 2.57327C17.0035 2.53061 17.0122 2.4849 17.0117 2.43882Z" fill="#161D3B"/>
<path d="M13.6839 2.44601V0.356822C13.6817 0.265564 13.6438 0.178801 13.5785 0.115054C13.5132 0.0513068 13.4255 0.015625 13.3342 0.015625C13.2429 0.015625 13.1553 0.0513068 13.0899 0.115054C13.0246 0.178801 12.9867 0.265564 12.9845 0.356822V2.44601C12.9833 2.49266 12.9915 2.53907 13.0086 2.58251C13.0256 2.62595 13.0512 2.66553 13.0838 2.69894C13.1164 2.73234 13.1553 2.75889 13.1983 2.77701C13.2413 2.79514 13.2875 2.80447 13.3342 2.80447C13.3809 2.80447 13.4271 2.79514 13.4701 2.77701C13.5131 2.75889 13.552 2.73234 13.5846 2.69894C13.6172 2.66553 13.6428 2.62595 13.6598 2.58251C13.6769 2.53907 13.6851 2.49266 13.6839 2.44601Z" fill="#161D3B"/>
<path d="M3.73049 2.4388V0.349619C3.73049 0.256894 3.69365 0.167967 3.62809 0.102401C3.56252 0.0368347 3.47359 0 3.38087 0C3.28814 0 3.19922 0.0368347 3.13365 0.102401C3.06809 0.167967 3.03125 0.256894 3.03125 0.349619V2.4388C3.03125 2.53153 3.06809 2.62046 3.13365 2.68602C3.19922 2.75159 3.28814 2.78842 3.38087 2.78842C3.47359 2.78842 3.56252 2.75159 3.62809 2.68602C3.69365 2.62046 3.73049 2.53153 3.73049 2.4388Z" fill="#161D3B"/>
<path d="M1.59396 6.75764H6.12515C6.18169 6.75764 6.23591 6.7801 6.27589 6.82008C6.31587 6.86006 6.33833 6.91428 6.33833 6.97082C6.33833 7.02736 6.31587 7.08158 6.27589 7.12156C6.23591 7.16154 6.18169 7.184 6.12515 7.184H1.59396C1.53742 7.184 1.4832 7.16154 1.44322 7.12156C1.40324 7.08158 1.38078 7.02736 1.38078 6.97082C1.38078 6.91428 1.40324 6.86006 1.44322 6.82008C1.4832 6.7801 1.53742 6.75764 1.59396 6.75764ZM4.49324 8.61381H1.59396C1.53742 8.61381 1.4832 8.59135 1.44322 8.55137C1.40324 8.51139 1.38078 8.45717 1.38078 8.40063C1.38078 8.34409 1.40324 8.28987 1.44322 8.24989C1.4832 8.20991 1.53742 8.18745 1.59396 8.18745H4.49324C4.54978 8.18745 4.604 8.20991 4.64398 8.24989C4.68396 8.28987 4.70642 8.34409 4.70642 8.40063C4.70642 8.45717 4.68396 8.51139 4.64398 8.55137C4.604 8.59135 4.54978 8.61381 4.49324 8.61381ZM0 5.625V18.9276C0.000225833 19.2119 0.113273 19.4845 0.31432 19.6856C0.515368 19.8866 0.787982 19.9996 1.07231 19.9999H18.9625C19.2469 19.9996 19.5195 19.8866 19.7205 19.6856C19.9216 19.4845 20.0346 19.2119 20.0349 18.9276V5.625H0ZM12.5351 16.6252L10.1176 15.3546C10.0872 15.3394 10.0536 15.3314 10.0196 15.3312C9.98485 15.3316 9.95065 15.3396 9.91936 15.3546L7.50614 16.6252L7.96662 13.937C7.97239 13.9027 7.96978 13.8675 7.95901 13.8345C7.94825 13.8015 7.92964 13.7715 7.90479 13.7472L5.94991 11.8414L8.65093 11.4493C8.68523 11.4446 8.7178 11.4314 8.74572 11.411C8.77364 11.3905 8.79601 11.3634 8.81082 11.3321L10.0196 8.88477L11.2283 11.3321C11.2431 11.3634 11.2655 11.3905 11.2934 11.411C11.3213 11.4314 11.3539 11.4446 11.3882 11.4493L14.0892 11.8416L12.1343 13.7475C12.1095 13.7717 12.0909 13.8017 12.0801 13.8347C12.0693 13.8678 12.0667 13.9029 12.0725 13.9372L12.5351 16.6252Z" fill="#161D3B"/>
<path d="M20.0349 2.68147C20.0354 2.54084 20.0082 2.40147 19.9548 2.27139C19.9014 2.1413 19.8228 2.02305 19.7235 1.92343C19.6243 1.82381 19.5063 1.74478 19.3764 1.69088C19.2465 1.63699 19.1072 1.60929 18.9666 1.60938H17.434V2.44079C17.434 2.64659 17.3523 2.84396 17.2068 2.98949C17.0612 3.13501 16.8639 3.21677 16.6581 3.21677C16.4522 3.21677 16.2549 3.13501 16.1093 2.98949C15.9638 2.84396 15.8821 2.64659 15.8821 2.44079V1.60938H14.1148V2.44079C14.1165 2.54379 14.0977 2.64609 14.0594 2.74175C14.0212 2.83741 13.9643 2.92449 13.8921 2.99794C13.8198 3.07138 13.7337 3.12971 13.6387 3.16952C13.5437 3.20934 13.4417 3.22984 13.3387 3.22984C13.2357 3.22984 13.1337 3.20934 13.0387 3.16952C12.9437 3.12971 12.8576 3.07138 12.7853 2.99794C12.7131 2.92449 12.6562 2.83741 12.6179 2.74175C12.5797 2.64609 12.5609 2.54379 12.5626 2.44079V1.60938H10.7932V2.44079C10.7949 2.54379 10.7761 2.64609 10.7379 2.74175C10.6996 2.83741 10.6427 2.92449 10.5705 2.99794C10.4983 3.07138 10.4121 3.12971 10.3171 3.16952C10.2221 3.20934 10.1201 3.22984 10.0171 3.22984C9.91409 3.22984 9.81211 3.20934 9.7171 3.16952C9.62209 3.12971 9.53596 3.07138 9.46373 2.99794C9.39149 2.92449 9.3346 2.83741 9.29636 2.74175C9.25812 2.64609 9.23931 2.54379 9.24102 2.44079V1.60938H7.47416V2.44079C7.47416 2.64659 7.39241 2.84396 7.24688 2.98949C7.10136 3.13501 6.90399 3.21677 6.69818 3.21677C6.49238 3.21677 6.295 3.13501 6.14948 2.98949C6.00395 2.84396 5.9222 2.64659 5.9222 2.44079V1.60938H4.15279V2.44079C4.15279 2.64659 4.07103 2.84396 3.92551 2.98949C3.77998 3.13501 3.58261 3.21677 3.3768 3.21677C3.171 3.21677 2.97363 3.13501 2.8281 2.98949C2.68258 2.84396 2.60082 2.64659 2.60082 2.44079V1.60938H1.07231C0.788054 1.60971 0.515537 1.72277 0.31452 1.92374C0.113503 2.12472 0.000394908 2.39722 0 2.68147V5.20149H20.0349V2.68147Z" fill="#161D3B"/>
</svg>
