<svg width="24" height="24" viewBox="0 0 24 24" fill="none" xmlns="http://www.w3.org/2000/svg">
<rect width="24" height="24" rx="12" fill="#161D3B"/>
<path fill-rule="evenodd" clip-rule="evenodd" d="M12.8376 6.45813L14.0742 8.92859C14.1954 9.17112 14.4293 9.3393 14.7006 9.37821L17.4669 9.7764C18.1504 9.87508 18.4224 10.7034 17.9277 11.1781L15.9273 13.1002C15.7307 13.2893 15.6412 13.561 15.6877 13.8278L16.1598 16.5415C16.2761 17.2128 15.5616 17.725 14.9507 17.4074L12.4782 16.1253C12.2358 15.9995 11.9455 15.9995 11.7024 16.1253L9.22989 17.4074C8.61899 17.725 7.9045 17.2128 8.02147 16.5415L8.49286 13.8278C8.53936 13.561 8.44988 13.2893 8.25329 13.1002L6.25287 11.1781C5.75823 10.7034 6.03021 9.87508 6.71369 9.7764L9.48003 9.37821C9.75131 9.3393 9.98595 9.17112 10.1071 8.92859L11.3431 6.45813C11.6489 5.84729 12.5317 5.84729 12.8376 6.45813Z" fill="#FFCF4F"/>
</svg>
