<svg width="32" height="32" viewBox="0 0 32 32" fill="none" xmlns="http://www.w3.org/2000/svg">
<path d="M6.19766 3.2C6.19766 1.76406 7.36172 0.6 8.79766 0.6H21.5977C21.6946 0.6 21.7877 0.638528 21.8562 0.707106L30.4905 9.34142C30.5591 9.41 30.5977 9.50301 30.5977 9.6V28.8C30.5977 30.2359 29.4336 31.4 27.9977 31.4H8.79766C7.36172 31.4 6.19766 30.2359 6.19766 28.8V3.2Z" fill="white" stroke="#D0D5DD" stroke-width="1.2"/>
<path d="M21.5977 0.398438V6.39844C21.5977 8.16575 23.0303 9.59844 24.7977 9.59844H30.7977" stroke="#D0D5DD" stroke-width="1.2"/>
<rect x="2" y="14.2031" width="20.8" height="13.2" rx="1.6" fill="#161D3B"/>
<path d="M7.32156 17.9865H8.53746V22.0433C8.53746 22.4183 8.45318 22.7441 8.28462 23.0206C8.11796 23.2971 7.88595 23.5102 7.5886 23.6598C7.29125 23.8094 6.94561 23.8842 6.55167 23.8842C6.20129 23.8842 5.88311 23.8227 5.59712 23.6996C5.31303 23.5746 5.08765 23.3852 4.92099 23.1314C4.75432 22.8757 4.67193 22.5547 4.67383 22.1683H5.89826C5.90205 22.3217 5.9333 22.4534 5.99201 22.5632C6.05262 22.6712 6.135 22.7545 6.23917 22.8132C6.34523 22.87 6.47023 22.8984 6.61417 22.8984C6.76568 22.8984 6.89353 22.8662 6.99769 22.8018C7.10375 22.7356 7.18424 22.639 7.23917 22.5121C7.29409 22.3852 7.32156 22.2289 7.32156 22.0433V17.9865ZM9.55451 23.8047V17.9865H11.85C12.2913 17.9865 12.6672 18.0708 12.9778 18.2393C13.2884 18.406 13.5252 18.638 13.688 18.9354C13.8528 19.2308 13.9352 19.5717 13.9352 19.9581C13.9352 20.3445 13.8519 20.6854 13.6852 20.9808C13.5185 21.2763 13.277 21.5064 12.9608 21.6712C12.6464 21.8359 12.2657 21.9183 11.8187 21.9183H10.3556V20.9325H11.6199C11.8566 20.9325 12.0517 20.8918 12.2051 20.8104C12.3604 20.727 12.4759 20.6125 12.5517 20.4666C12.6293 20.3189 12.6681 20.1494 12.6681 19.9581C12.6681 19.7649 12.6293 19.5964 12.5517 19.4524C12.4759 19.3066 12.3604 19.1939 12.2051 19.1143C12.0498 19.0329 11.8528 18.9922 11.6142 18.9922H10.7846V23.8047H9.55451ZM18.5922 19.8672C18.5524 19.7289 18.4965 19.6068 18.4245 19.5007C18.3526 19.3928 18.2645 19.3018 18.1603 19.228C18.0581 19.1522 17.9406 19.0945 17.8081 19.0547C17.6774 19.0149 17.5325 18.995 17.3734 18.995C17.0761 18.995 16.8147 19.0689 16.5893 19.2166C16.3658 19.3643 16.1916 19.5793 16.0666 19.8615C15.9416 20.1418 15.8791 20.4846 15.8791 20.8899C15.8791 21.2952 15.9406 21.6399 16.0637 21.924C16.1868 22.2081 16.3611 22.425 16.5865 22.5746C16.8118 22.7223 17.0779 22.7962 17.3848 22.7962C17.6632 22.7962 17.9009 22.7469 18.0978 22.6484C18.2967 22.5481 18.4482 22.407 18.5524 22.2251C18.6584 22.0433 18.7115 21.8284 18.7115 21.5803L18.9615 21.6172H17.4615V20.6911H19.8961V21.424C19.8961 21.9354 19.7882 22.3748 19.5723 22.7422C19.3564 23.1077 19.059 23.3899 18.6802 23.5888C18.3014 23.7857 17.8677 23.8842 17.3791 23.8842C16.8336 23.8842 16.3545 23.764 15.9416 23.5234C15.5287 23.281 15.2067 22.9373 14.9757 22.4922C14.7465 22.0452 14.6319 21.5149 14.6319 20.9013C14.6319 20.4297 14.7001 20.0092 14.8365 19.6399C14.9747 19.2687 15.1679 18.9543 15.416 18.6967C15.6641 18.4392 15.9529 18.2431 16.2825 18.1087C16.612 17.9742 16.969 17.907 17.3535 17.907C17.6831 17.907 17.9899 17.9553 18.274 18.0518C18.5581 18.1465 18.81 18.281 19.0297 18.4553C19.2512 18.6295 19.4321 18.8369 19.5723 19.0774C19.7124 19.3161 19.8024 19.5793 19.8422 19.8672H18.5922Z" fill="white"/>
</svg>
