<svg width="111" height="109" viewBox="0 0 111 109" fill="none" xmlns="http://www.w3.org/2000/svg">
<circle cx="42.8771" cy="66.3732" r="42.4201" fill="#161D3B"/>
<rect x="14.2852" y="7.82812" width="67.4143" height="84.7" rx="7.27201" fill="#FFD600"/>
<g filter="url(#filter0_d_1_125232)">
<rect x="19.4727" y="0.914062" width="67.4143" height="84.7" rx="7.27201" fill="white"/>
<rect x="19.9727" y="1.41406" width="66.4143" height="83.7" rx="6.77201" stroke="#1A213F"/>
</g>
<circle cx="85.5" cy="82" r="24.697" fill="white" stroke="#002733" stroke-width="0.606061"/>
<circle cx="85.5013" cy="81.9974" r="20.8333" fill="#FFD600"/>
<mask id="mask0_1_125232" style="mask-type:alpha" maskUnits="userSpaceOnUse" x="74" y="70" width="23" height="24">
<rect x="74.1367" y="70.2812" width="22.7273" height="22.7273" fill="#D9D9D9"/>
</mask>
<g mask="url(#mask0_1_125232)">
<mask id="mask1_1_125232" style="mask-type:alpha" maskUnits="userSpaceOnUse" x="74" y="69" width="24" height="25">
<rect x="74.1367" y="69.8047" width="23.2026" height="23.2026" fill="#D9D9D9"/>
</mask>
<g mask="url(#mask1_1_125232)">
<path d="M82.2676 89.9792L75.6523 83.3608L78.4857 80.5125L82.2676 84.2961L93.2324 73.3125L96.1069 76.1335L82.2676 89.9792Z" fill="#0F1738"/>
</g>
</g>
<rect x="27.832" y="13.0156" width="45.3052" height="3.72665" rx="1.86332" fill="#C4C1C1"/>
<rect x="27.832" y="19.9297" width="34.9338" height="3.72665" rx="1.86332" fill="#C4C1C1"/>
<rect x="27.832" y="26.8438" width="43.5767" height="3.72665" rx="1.86332" fill="#C4C1C1"/>
<rect x="27.832" y="33.7578" width="36.6624" height="3.72665" rx="1.86332" fill="#C4C1C1"/>
<defs>
<filter id="filter0_d_1_125232" x="15.4727" y="0.914062" width="75.4141" height="92.7031" filterUnits="userSpaceOnUse" color-interpolation-filters="sRGB">
<feFlood flood-opacity="0" result="BackgroundImageFix"/>
<feColorMatrix in="SourceAlpha" type="matrix" values="0 0 0 0 0 0 0 0 0 0 0 0 0 0 0 0 0 0 127 0" result="hardAlpha"/>
<feOffset dy="4"/>
<feGaussianBlur stdDeviation="2"/>
<feComposite in2="hardAlpha" operator="out"/>
<feColorMatrix type="matrix" values="0 0 0 0 0.223529 0 0 0 0 0.266667 0 0 0 0 0.462745 0 0 0 0.25 0"/>
<feBlend mode="normal" in2="BackgroundImageFix" result="effect1_dropShadow_1_125232"/>
<feBlend mode="normal" in="SourceGraphic" in2="effect1_dropShadow_1_125232" result="shape"/>
</filter>
</defs>
</svg>
