<svg width="20" height="20" viewBox="0 0 20 20" fill="none" xmlns="http://www.w3.org/2000/svg">
<path d="M18.187 7.05732C17.9386 6.8068 17.7986 6.46864 17.7972 6.11581V4.92683C17.7962 4.20401 17.5086 3.5111 16.9974 3.00008C16.4862 2.48906 15.7932 2.20166 15.0704 2.20092H13.8833C13.7084 2.20138 13.5352 2.16725 13.3737 2.10051C13.2121 2.03377 13.0653 1.93573 12.9418 1.81203L11.9277 0.797027C11.416 0.286629 10.7227 0 10 0C9.27726 0 8.58403 0.286629 8.07233 0.797027L7.05825 1.81203C6.93478 1.9359 6.78803 2.03411 6.62644 2.10101C6.46486 2.16792 6.29163 2.20218 6.11674 2.20185H4.92869C4.20587 2.20259 3.51286 2.48999 3.00167 3.00101C2.49047 3.51203 2.20283 4.20494 2.20185 4.92776V6.11581C2.2009 6.46827 2.06119 6.80617 1.81296 7.05639L0.797027 8.07139C0.286629 8.5831 0 9.27633 0 9.99907C0 10.7218 0.286629 11.415 0.797027 11.9267L1.81296 12.9408C2.06142 13.1913 2.20143 13.5295 2.20278 13.8823V15.0713C2.20376 15.7941 2.4914 16.487 3.0026 16.9981C3.51379 17.5091 4.2068 17.7965 4.92962 17.7972H6.11674C6.29163 17.7969 6.46486 17.8312 6.62644 17.8981C6.78803 17.965 6.93478 18.0632 7.05825 18.187L8.07233 19.202C8.58391 19.7127 9.27719 19.9995 10 19.9995C10.7228 19.9995 11.4161 19.7127 11.9277 19.202L12.9418 18.187C13.0652 18.0632 13.212 17.965 13.3736 17.8981C13.5351 17.8312 13.7084 17.7969 13.8833 17.7972H15.0713C15.7941 17.7965 16.4871 17.5091 16.9983 16.9981C17.5095 16.487 17.7972 15.7941 17.7982 15.0713V13.8823C17.7989 13.5297 17.9391 13.1916 18.188 12.9418L19.203 11.9267C19.7134 11.415 20 10.7218 20 9.99907C20 9.27633 19.7134 8.5831 19.203 8.07139L18.187 7.05732Z" fill="#008BFE"/>
<path d="M8.84293 13.1835C8.72894 13.1837 8.61604 13.1613 8.51077 13.1174C8.4055 13.0736 8.30995 13.0091 8.22968 12.9279L5.91553 10.6047C5.76224 10.4396 5.67879 10.2211 5.68275 9.99543C5.68672 9.76973 5.7778 9.55438 5.93679 9.39477C6.09579 9.23515 6.31029 9.14372 6.53512 9.13973C6.75994 9.13575 6.97752 9.21953 7.14203 9.37342L8.84293 11.0798L12.858 7.05023C13.0225 6.89634 13.2401 6.81256 13.4649 6.81654C13.6897 6.82052 13.9042 6.91196 14.0632 7.07157C14.2222 7.23119 14.3133 7.44654 14.3172 7.67224C14.3212 7.89793 14.2378 8.11637 14.0845 8.28152L9.45617 12.9279C9.3759 13.0091 9.28035 13.0736 9.17508 13.1174C9.06981 13.1613 8.95691 13.1837 8.84293 13.1835Z" fill="#F9F9F9"/>
</svg>
