<svg width="12" height="13" viewBox="0 0 12 13" fill="none" xmlns="http://www.w3.org/2000/svg">
<path fill-rule="evenodd" clip-rule="evenodd" d="M6.73617 1.28337L7.95445 3.7172C8.07384 3.95613 8.30431 4.12181 8.57157 4.16015L11.2969 4.55244C11.9702 4.64966 12.2382 5.46573 11.7509 5.93332L9.78012 7.82699C9.58645 8.01321 9.49829 8.28089 9.5441 8.54379L10.0092 11.2172C10.1237 11.8786 9.41985 12.3832 8.818 12.0703L6.38214 10.8072C6.14335 10.6832 5.85735 10.6832 5.61786 10.8072L3.182 12.0703C2.58015 12.3832 1.87626 11.8786 1.9915 11.2172L2.4559 8.54379C2.50171 8.28089 2.41355 8.01321 2.21988 7.82699L0.24912 5.93332C-0.23819 5.46573 0.0297612 4.64966 0.703109 4.55244L3.42843 4.16015C3.69569 4.12181 3.92685 3.95613 4.04625 3.7172L5.26383 1.28337C5.5651 0.681585 6.4349 0.681585 6.73617 1.28337Z" fill="#EFD445"/>
</svg>
