<svg width="16" height="16" viewBox="0 0 16 16" fill="none" xmlns="http://www.w3.org/2000/svg">
<rect width="16" height="16" rx="8" fill="#FFCF4F"/>
<path fill-rule="evenodd" clip-rule="evenodd" d="M8.55837 4.30542L9.38278 5.9524C9.46357 6.11408 9.61953 6.2262 9.80038 6.25214L11.6446 6.5176C12.1003 6.58339 12.2816 7.13562 11.9518 7.45205L10.6182 8.73349C10.4872 8.85951 10.4275 9.04065 10.4585 9.21855L10.7732 11.0277C10.8507 11.4752 10.3744 11.8166 9.96714 11.6049L8.3188 10.7502C8.15721 10.6663 7.96367 10.6663 7.80161 10.7502L6.15326 11.6049C5.74599 11.8166 5.26967 11.4752 5.34765 11.0277L5.66191 9.21855C5.69291 9.04065 5.63325 8.85951 5.50219 8.73349L4.16858 7.45205C3.83882 7.13562 4.02014 6.58339 4.47579 6.5176L6.32002 6.25214C6.50088 6.2262 6.6573 6.11408 6.7381 5.9524L7.56204 4.30542C7.76591 3.89819 8.3545 3.89819 8.55837 4.30542Z" fill="#161D3B"/>
</svg>
