<svg width="1234" height="490" viewBox="0 0 1234 490" fill="none" xmlns="http://www.w3.org/2000/svg">
<g opacity="0.7" clip-path="url(#clip0_2_250704)">
<path d="M424.028 311.991C422.924 312.341 421.738 312.422 420.59 312.628C420.997 311.381 421.163 309.969 421.852 308.914C436.543 286.385 460.774 275.712 481.071 260.352C511.413 237.388 529.531 193.392 516.597 167.408C506.912 147.948 490.554 139.882 466.669 139.924C454.626 139.781 440.599 144.865 426.355 149.005C420.308 150.763 412.2 154.458 408.812 147.271C405.508 140.264 413.127 136.073 418.509 133.151C460.537 110.331 524.927 116.383 538.159 172.061C546.026 205.162 531.308 232.86 511.597 257.456C488.841 285.853 457.685 301.274 424.028 311.991ZM362.861 343.771C357.169 349.493 347.513 357.587 341.244 349.236C332.239 337.238 344.185 327.475 351.464 319.481C382.443 285.445 421.815 262.39 458.447 235.709C472.926 225.164 486.394 212.454 490.669 193.879C494.591 176.844 480.869 171.326 469.399 164.929C465.98 163.023 460.164 162.445 460.768 157.738C460.986 156.03 468.179 154.276 472.213 154.212C494.181 153.868 508.233 167.378 508.233 194.546C506.283 220.7 486.04 241.75 462.268 258.361C426.229 283.542 393.832 312.64 362.861 343.771ZM488.909 719.953C482.452 717.51 475.436 717.08 468.732 716.273C441.638 713.006 414.914 705.486 387.344 707.516C371.099 708.71 354.958 711.355 338.719 712.713C331.516 713.315 327.532 708.262 324.846 701.766C322.091 695.106 319.949 686.1 310.646 687.695C298.89 689.713 295.58 699.717 294.388 710.499C294.215 712.058 293.929 713.606 293.696 715.158C292.379 714.241 290.891 713.507 289.774 712.384C272.309 694.864 273.838 670.647 297.872 660.241C334.273 644.481 354.378 614.865 374.418 583.523C382.513 570.862 393.715 560.234 409.884 568.106C426.58 576.234 423.461 593.06 420.384 606.864C412.144 643.822 422.359 680.552 445.584 690.614C466.53 699.687 489.325 700.986 511.079 706.66C521.469 709.369 531.347 713.245 539.799 719.953H580.708C568.726 713.329 556.819 706.546 544.562 700.507C524.659 690.703 502.794 687.903 481.469 683.011C449.069 675.579 434.315 642.117 440.78 605.286C449.269 556.92 483.052 530.786 517.413 503.939C547.512 480.425 574.348 454.461 573.81 411.591C573.472 384.57 561.891 362.154 543.573 343.362C515.986 315.06 519.501 283.936 533.548 250.794C547.524 217.811 557.854 184.169 545.074 147.685C539.997 133.186 528.458 126.045 517.439 117.783C498.245 103.392 497.711 89.5464 518.721 78.19C544.49 64.2618 556.263 43.4852 561.491 15.0981C568.011 -20.3274 597.112 -31.5789 631.086 -14.9185C654.971 -3.20569 674.307 16.2543 699.295 25.9378C714.676 31.8972 729.911 31.8239 744.998 25.9397V2.83289C700.07 24.7321 668.67 -3.58777 636.844 -30.0109C617.526 -46.0497 596.529 -53.195 571.236 -47.5187C562.708 -45.6062 547.347 -42.8482 547.26 -57.1329C547.172 -71.3224 560.42 -70.3226 570.778 -71.9877H515.98C517.417 -47.7999 528.116 -25.7661 531.953 -2.11871C537.277 30.7092 520.799 52.7667 497.425 71.3872C489.465 77.7287 481.349 84.0108 472.676 89.2376C463.441 94.8049 451.339 101.047 444.888 88.1407C438.233 74.8262 451.434 68.9698 460.584 63.9331C478.237 54.2159 500.284 50.775 506.069 25.8704C511.897 0.791626 502.883 -22.236 498.192 -45.9388C496.487 -54.5532 495.382 -63.2922 494.074 -71.9877H473.089C476.015 -62.9259 478.998 -53.882 481.802 -44.7806C489.222 -20.6917 499.204 3.96735 479.568 26.6485C466.425 41.83 447.149 50.6305 435.494 67.5087C419.525 90.6334 402.915 112.637 375.924 123.614C369.669 126.156 360.768 128.722 361.27 137.14C361.814 146.265 370.751 150.041 377.866 154.018C399.754 166.248 424.616 162.53 447.886 167.372C459.803 169.853 472.188 173.045 476.547 186.494C479.873 196.751 473.542 205.158 465.976 210.387C451.056 220.698 435.541 230.274 419.597 238.853C381.058 259.588 346.872 284.92 327.678 326.471C322.536 337.602 318.418 349.865 325.328 361.83C329.117 368.391 336.147 370.872 343.599 369.858C357.301 367.997 368.35 360.03 379.626 352.702C403.031 337.493 425.844 319.229 454.406 317.487C484.911 315.628 507.551 337.319 531.887 352.091C552.505 364.607 565.036 384.043 561.129 409.607C553.93 456.704 525.17 489.017 487.666 514.159C475.799 522.114 462.095 529.444 447.79 521.726C434.603 514.609 436.462 500.399 439.018 488.499C444.484 463.04 435.261 447.898 413.692 434.025C386.001 416.212 385.467 401.25 408.006 381.129C424.352 366.538 443.358 351.319 465.953 355.367C500.599 361.576 518.616 389.096 519.076 427.329C519.136 432.249 518.068 438.83 524.385 441.008C526.384 441.699 530.28 439.778 531.937 437.834C538.546 430.085 541.153 420.554 541.821 410.463C543.688 382.313 524.406 369.654 504.111 358.682C488.214 350.087 473.8 335.353 453.967 338.691C427.755 343.104 409.824 364.605 386.516 375.445C366.206 384.893 363.29 397.944 377.412 415.705C383.777 423.712 391.658 430.871 399.962 436.799C432.206 459.822 435.99 475.926 414.78 505.379C403.791 520.635 389.539 534.312 382.058 551.155C364.912 589.766 341.194 618.214 300.477 633.249C257.012 649.3 244.574 690.059 270.24 719.953H488.909Z" fill="#1A2240"/>
<path d="M450.323 -71.9846H434.538C444.419 -59.7729 452.096 -46.5297 454.091 -30.1899C456.578 -9.84302 452.254 8.92996 437.747 22.783C411.991 47.3767 395.704 80.6778 366.875 102.151C345.296 118.224 322.073 114.048 300.226 103.713C274.263 91.4304 249.657 93.6934 224.725 105.416C223.171 106.147 221.364 106.319 219.676 106.752C220.129 104.973 220.341 103.082 221.071 101.429C229.748 81.7509 263.798 74.0354 289.814 85.4136C315.877 96.8116 341.961 111.662 369.414 88.5735C388.141 72.8237 399.066 50.7939 413.615 31.6745C424.674 17.1404 440.025 4.89102 440.836 -15.2678C441.914 -42.0533 427.819 -59.4641 406.892 -71.9846H301.83C311.757 -68.4902 321.644 -64.8671 331.727 -61.9408C350.826 -56.3992 369.808 -65.0413 388.883 -63.297C407.518 -61.5904 421.296 -51.4774 430.249 -35.0367C435.746 -24.9374 435.573 -14.462 428.901 -4.48947C426.282 -0.575287 422.869 1.83813 418.419 1.15707C413.099 0.343353 410.921 -4.1846 409.756 -9.00552C401.871 -41.6691 392.665 -48.5511 360.871 -39.5666C340.107 -33.7003 324.715 -44.7478 307.982 -51.6912C271.617 -66.7856 235.688 -43.1481 235.523 -3.34317C235.483 6.25912 234.871 15.8852 233.989 25.4478C233.375 32.112 232.101 39.7681 223.128 38.4792C214.925 37.2992 211.901 29.5699 212.153 22.5909C213.546 -16.0004 220.809 -60.842 265.244 -71.9846H232.235C209.296 -42.4096 199.48 -8.47293 203.08 29.073C204.424 43.1062 212.006 56.2365 228.264 53.8033C245.867 51.1661 243.542 34.0246 245.407 21.1397C248.779 -2.19482 245.517 -28.5665 271.411 -41.6473C288.511 -50.2854 304.834 -44.3519 318.715 -33.5082C330.686 -24.1574 342.201 -20.6728 357.714 -22.3339C391.999 -26.0065 404.287 -8.63925 395.975 28.1266C388.386 61.6989 361.65 90.5771 338.06 90.0603C320.449 89.6743 307.522 77.0467 292.151 70.7805C262.184 58.5609 238.043 71.7883 215.317 90.1831C180.795 118.127 143.826 140.63 98.6045 144.649C94.406 145.021 89.4165 144.387 88.4589 139.652C87.3878 134.354 92.582 132.877 96.4134 131.497C117.5 123.898 139.595 119.142 159.293 107.655C188.791 90.4524 192.087 64.2253 187.114 32.8485C181.248 -4.15884 189.478 -39.3567 207.718 -71.9846H190.364C176.386 -36.4206 178.449 1.27783 176.703 38.507C175.689 60.1824 171.095 81.0005 155.637 97.172C123.67 130.614 75.617 129.208 40.1082 94.8061C35.2784 90.1277 28.9264 80.6798 21.839 86.7263C14.6712 92.844 21.826 100.625 26.1883 106.768C29.1667 110.966 32.1101 115.244 35.555 119.028C53.8455 139.107 70.2188 162.638 102.067 159.494C121.397 157.585 136.488 145.385 153.161 137.135C189.251 119.279 225.663 142.315 225.663 183.317C225.663 234.025 174.7 269.781 123.325 258.829C87.7751 251.248 56.2859 232.659 20.9985 225.126C1.13452 220.885 -22.7816 234.724 -27.7304 254.962C-31.8756 271.912 -20.3003 286.26 0.988831 292.118C31.1869 300.426 59.3375 312.099 79.2248 339.082C100.134 367.453 107.603 368.424 137.158 347.455C161.708 330.036 186.943 322.113 216.547 333.123C243.62 343.19 254.863 335.794 255.121 306.472C255.453 268.837 272.468 244.665 306.172 231.333C335.164 219.865 350.344 191.971 343.066 161.784C339.185 145.682 326.516 139.376 311.727 142.813C298.53 145.878 303.369 157.918 305.222 166.734C310.247 190.669 308.489 212.053 286.93 227.585C273.287 237.413 260.385 248.011 253.913 264.588C248.983 277.22 243.73 289.796 234.375 299.77C213.732 321.782 185.834 318.08 159.923 320.741C104.7 326.409 59.0545 299.766 13.2726 274.208C4.35518 269.231 -6.30136 262.104 0.839258 250.098C7.61022 238.712 19.4128 242.531 28.6888 248.207C59.6089 267.124 89.6418 287.044 126.229 294.33C157.485 300.554 189.137 292.694 203.643 272.514C231.557 233.687 238.8 189.752 237.289 142.976C236.364 114.284 252.547 101.332 279.251 110.459C322.019 125.076 361.02 124.064 393.345 87.6093C410.082 68.7373 423.163 46.4461 443.625 31.0706C461.506 17.6334 469.837 0.477936 466.356 -22.5339C463.71 -40.0298 456.595 -55.829 450.323 -71.9846Z" fill="#1A2240"/>
<path d="M504.79 656.416C541.989 669.508 572.769 694.801 608.037 711.446C614.319 714.412 620.689 717.181 627.058 719.953H653.334C651.981 719.747 650.648 719.492 649.372 719.236C617.641 712.871 592.505 695.282 570.343 671.7C534.801 633.879 542.517 550.89 584.496 520.992C607.816 504.383 630.487 486.766 652.732 468.684C659.288 463.354 665.384 452.641 657.686 446.054C649.704 439.228 646.363 451.254 641.612 456.211C632.954 465.245 625.067 475.507 615.081 482.674C576.52 510.338 541.777 540.519 532.235 591.174C530.551 600.119 526.726 609.416 515.561 606.381C506.915 604.031 506.418 595.05 507.979 587.315C516.522 544.986 544.131 516.494 575.539 490.655C593.453 475.919 615.23 464.61 623.793 440.794C630.854 421.154 620.813 402.04 619.92 382.557C619.181 366.441 622.221 348.624 611.909 334.997C604.224 324.838 590.788 319.112 583.465 308.787C563.801 281.065 570.52 249.809 577.907 220.207C586.041 187.612 593.294 155.824 585.633 121.869C578.476 90.1581 578.906 58.3696 593.212 28.1729C595.701 22.9204 599.582 18.0361 606.068 19.4359C612.773 20.8831 613.643 26.9493 613.614 32.9127C613.498 57.4133 606.289 81.2884 608.76 106.171C611.079 129.537 626.388 146.732 643.84 142.503C674.166 135.156 707.633 151.258 718.437 180.82C729.16 210.155 723.173 242.205 729.69 272.429C732.761 286.674 734.826 301.331 744.999 312.395V265.878C739.36 250.247 738.002 233.638 737.672 217.314C736.638 165.911 713.808 132.747 665.085 117.142C633.898 107.153 623.3 85.7827 625.242 42.7249C625.932 27.4127 630.877 9.35046 610.629 5.08789C591.915 1.14795 586.911 18.8578 581.377 32.4218C573.558 51.5867 561.689 67.4255 547.869 82.5258C533.851 97.84 548.632 108.977 556.4 120.153C582.158 157.202 578.311 197.369 561.431 234.325C541.932 277.013 550.341 308.72 580.617 341.54C611.274 374.774 615.112 426.858 591.924 458.664C573.82 483.499 545.588 497.703 524.477 519.616C499.335 545.714 469.741 569.585 465.138 609.052C461.849 637.253 482.911 648.716 504.79 656.416Z" fill="#1A2240"/>
<path d="M320.48 284.384C307.764 307.843 303.261 333.407 299.421 359.567C294.87 390.575 272.282 405.034 242.312 392.486C202.593 375.855 169.553 380.448 140.026 412.28C136.686 415.881 129.732 421.14 126.842 415.923C121.848 406.907 129.597 399.265 135.125 392.755C163.304 359.569 196.484 354.102 235.929 371.335C251.078 377.953 272.212 387.174 281.47 361.713C286.2 348.707 285.719 333.728 287.593 319.639C288.391 302.784 287.354 285.108 300.684 272.099C306.33 266.587 313.941 261.245 321.216 266.036C328.356 270.738 323.613 278.6 320.48 284.384ZM446.812 191.786C446.417 189.747 442.698 187.422 440.167 186.916C418.916 182.659 396.8 183.411 376.309 174.486C369.017 171.308 365.338 176.753 364.753 183.421C361.915 215.809 347.836 238.946 316.292 250.047C297.869 256.529 279.559 265.967 275.227 287.662C272.199 302.836 273.353 318.924 273.073 334.613C272.714 354.647 262.471 364.184 243.53 360.459C226.774 357.163 210.365 350.469 193.547 349.37C157.389 347.002 135.369 371.986 115.178 397.574C105.613 409.694 107.261 423.34 119.377 433.922C127.379 440.913 135.944 438.367 143.547 432.833C152.623 426.228 160.296 416.685 170.227 412.391C221.845 390.062 271.966 400.751 318.015 427.41C359.025 451.149 367.962 483.462 349.285 515.337C331.997 544.843 302.282 553.347 273.174 563.305C234.262 576.618 200.132 595.199 189.604 640.963C183.924 665.65 171.727 686.42 144.695 690.715C120.26 694.597 104.785 678.079 89.4791 661.797C76.5389 648.031 64.5357 632.519 46.2294 625.675C14.2773 613.73 -9.44451 630.028 -32 649.548V677.974C-25.312 668.02 -19.1543 657.621 -9.08495 650.538C20.7613 629.543 46.2579 634.521 68.7857 664.325C84.0609 684.536 100.469 703.859 120.072 719.953H193.401C182.537 673.359 202.994 637.387 234.157 606.015C254.056 585.979 281.649 578.609 305.757 565.485C337.729 548.08 364.695 525.728 371.833 486.79C377.068 458.236 357.201 444.338 338.343 429.931C324.693 419.503 307.259 412.243 304.252 391.967C303.774 388.744 305.493 385.18 306.196 381.775C307.772 382.545 309.759 382.937 310.843 384.16C313.32 386.956 315.231 390.264 317.589 393.178C332.475 411.575 351.523 425.169 369.5 440.008C394.081 460.294 393.325 484.82 373.692 520.069C347.999 566.198 305.248 589.148 262.593 612.952C231.234 630.452 202.046 679.818 219.285 719.953H243.621C221.688 673.409 246.086 624.405 291.152 608.802C310.985 601.936 332.814 598.499 346.396 579.227C362.212 556.788 370.744 529.723 389.747 509.224C398.745 499.518 408.36 489.146 406.802 474.246C404.743 454.558 387.82 446.593 375.254 435.46C352.008 414.868 323.731 397.817 313.98 366.213C300.837 323.616 323.088 291.089 349.396 261.354C374.26 233.25 409.368 221.169 440.145 202.317C443.904 200.014 447.76 196.688 446.812 191.786Z" fill="#1A2240"/>
<path d="M244.627 531.513C212.774 548.576 188.023 575.876 157.221 594.364C146.229 600.961 134.1 604.209 119.722 604.287C99 603.477 79.0395 595.393 60.7684 582.886C56.8628 580.214 51.4483 576.197 54.6112 570.089C58.7903 562.021 66.5421 562.918 73.1498 565.682C122.326 586.254 160.955 562.518 199.215 535.52C212.108 526.421 225.478 517.256 242.618 518.702C246.249 519.009 249.547 520.699 249.524 523.689C249.503 526.37 247.051 530.216 244.627 531.513ZM332.138 484.805C326.923 479.685 320.14 493.462 314.708 499.386C303.02 512.133 289.485 519.505 272.615 512.382C256.795 505.704 241.434 501.77 224.672 508.369C190.169 521.951 160.615 546.356 122.75 553.189C90.3734 559.031 53.2154 540.88 43.1408 508.99C35.2434 483.993 41.6756 457.316 35.5295 431.98C25.7019 391.474 7.23124 357.833 -32 340.404V359.215C-2.34721 374.044 11.1273 401.544 18.5832 432.113C28.668 473.46 34.4781 515.9 21.3138 557.499C13.2374 583.021 -8.0024 596.274 -32 604.619V620.838C23.1092 578.915 66.5467 592.689 107.368 640.645C128.922 665.967 151.384 666.06 163.483 634.986C181.583 588.497 209.631 554.719 258.094 540.569C281.297 533.796 307.385 533.358 324.963 512.732C331.851 504.649 340.419 492.934 332.138 484.805Z" fill="#1A2240"/>
<path d="M297.146 438.465C259.979 422.3 220.699 428.138 182.077 431.197C174.214 431.819 165.952 439.237 167.496 448.909C168.518 455.312 177.013 454.324 181.999 453.092C209.981 446.179 238.137 441.878 266.841 446.509C275.35 447.881 288.448 446.86 288.419 459.21C288.388 472.067 275.971 471.091 267.065 470.287C240.728 467.913 214.771 464.983 188.706 474.188C134.05 493.489 101.911 479.234 88.3318 421.921C72.2913 354.222 31.6587 318.967 -32 306.413V317.213C-31.5661 317.282 -31.1376 317.369 -30.7239 317.504C22.933 334.929 65.7709 399.533 68.4937 465.9C69.3645 487.122 73.282 508.334 93.3338 520.029C116.275 533.409 137.771 523.3 157.132 510.759C192.999 487.53 227.815 465.51 273.477 484.52C285.853 489.674 301.816 483.709 308.502 468.973C314.258 456.284 308.64 443.464 297.146 438.465Z" fill="#1A2240"/>
<path d="M198.821 157.565C189.041 143.041 168.536 141.255 150.683 154.166C136.122 164.695 123.96 179.27 104.336 180.571C73.5526 182.61 53.8817 163.249 34.4029 143.235C7.92141 116.026 0.185814 114.406 -32 131.178V157.674C-1.47366 142.235 21.2139 162.04 45.5418 176.51C88.7365 202.201 116.578 199.142 158.736 165.962C164.623 161.327 172.628 154.847 178.679 161.877C186.003 170.389 179.748 180.066 173.262 186.57C144.162 215.747 108.802 216.495 71.5279 209.239C46.513 204.369 26.53 187.198 2.13938 181.115C-10.3794 177.993 -21.3396 182.337 -32 188.035V212.375C-20.0939 202.49 -6.81106 194.44 8.80331 199.322C33.7489 207.123 57.4836 219.119 82.5774 226.228C117.364 236.084 152.872 243.645 186.111 219.566C204.783 206.04 211.226 175.988 198.821 157.565Z" fill="#1A2240"/>
<path d="M712.163 423.107C691.188 428.882 675.022 419.408 662.619 402.807C651.584 388.036 649.713 370.381 649.556 352.454C649.48 332.17 655.358 309.97 636.739 294.664C626.145 285.955 610.891 284.078 606.139 267.235C596.485 233.017 614.488 191.66 644.074 183.345C667.24 176.833 688.684 195.919 696.191 228.804C704.018 263.089 700.383 300.009 718.369 331.897C727.036 347.263 738.948 361.171 739.531 379.996C740.166 400.554 733.318 417.284 712.163 423.107ZM744.999 343.095C740.028 337.575 734.771 332.241 730.881 326.019C710.395 293.254 709.791 255.443 706.153 218.57C702.843 185.012 675.302 161.703 643.418 166.528C616.31 170.628 596.289 198.071 595.133 230.976C594.397 251.98 589.986 273.313 603.047 292.209C610.081 302.387 624.974 302.67 631.139 314.017C640.09 330.487 634.525 348.524 635.663 365.826C637.159 388.523 643.257 408.771 662.73 422.115C691.436 441.787 710.626 439.169 744.999 410.681V343.095Z" fill="#1A2240"/>
<path d="M126.597 -71.9864H93.8708C87.5974 -59.9509 80.6244 -48.2084 75.5869 -35.6561C67.0191 -14.3054 73.5162 2.79263 92.3351 15.5033C99.5262 20.3599 108.351 24.6046 108.528 35.1969C108.572 37.8301 105.602 42.1956 103.205 42.9044C92.1226 46.187 83.1024 40.5325 75.7306 33.1615C45.9475 3.38457 41.094 -33.4803 61.4572 -70.5431C61.7117 -71.0044 61.924 -71.4914 62.1202 -71.9864H47.3721C32.58 -39.6514 39.7459 12.682 63.5038 38.6696C75.2287 51.495 89.0923 61.8219 107.314 54.0153C122.933 47.3254 123.781 31.7421 123.135 17.2674C121.798 -12.6403 119.821 -42.4866 126.597 -71.9864Z" fill="#1A2240"/>
<path d="M744.999 52.1077C720.209 65.1866 699.667 54.0183 678.681 39.2684C669.988 33.1586 658.372 14.8826 647.694 32.9844C639.386 47.0631 643.869 65.0025 655.38 78.4774C670.425 96.0882 693.092 100.723 711.889 111.978C724.638 119.615 735.196 129.558 744.999 140.484V52.1077Z" fill="#1A2240"/>
<path d="M167.602 -71.9911H152.342C151.528 -69.5876 150.69 -67.192 150.082 -64.737C141.686 -30.834 148.53 4.12034 143.249 38.2708C139.64 61.6034 122.189 83.7164 101.361 87.4345C82.4764 90.8062 66.4112 82.7621 56.1484 66.8579C28.9437 24.699 15.8882 -21.3109 22.9434 -71.9911H6.84394C6.2948 -69.1362 5.61104 -66.2713 5.81384 -63.4738C9.47933 -12.8846 24.4241 35.2693 50.3889 77.2442C71.4158 111.238 109.597 121.462 140.294 83.3976C160.445 58.4119 162.935 28.7814 163.181 -1.82313C163.37 -25.2666 160.235 -49.0486 167.602 -71.9911Z" fill="#1A2240"/>
<path d="M609.46 675.467C570.748 627.119 573.579 574.655 616.35 530.243C651.896 493.335 698.975 484.91 744.998 473.558V439.485C698.176 454.898 661.679 488.175 621.483 514.972C553.53 560.275 552.287 645.767 618.524 691.684C620.704 693.195 623.175 694.268 625.507 695.547C623.988 693.545 622.514 691.504 620.939 689.55C617.135 684.836 613.246 680.195 609.46 675.467Z" fill="#1A2240"/>
<path d="M-1.97483 440.674C-5.76212 420.145 -13.5775 401.002 -32 389.097V416.93C-16.4595 437.839 -14.5933 462.649 -14.2191 487.749C-13.9607 505.091 -18.9679 520.363 -32 531.9V574.188C-20.4345 569.733 -12.6994 560.685 -7.39634 549.802C9.86469 514.372 4.7804 477.296 -1.97483 440.674Z" fill="#1A2240"/>
<path d="M10.0368 20.5099C2.78739 -10.3441 -14.8207 -38.7531 -12.0713 -71.9908H-23.6616C-26.7566 -48.9869 -16.6543 -28.7449 -9.75842 -7.89511C1.85693 27.2235 -5.67859 57.7251 -32 80.6439V104.562C-3.53272 98.3002 17.9907 54.3634 10.0368 20.5099Z" fill="#1A2240"/>
<path d="M496.777 432.381C494.967 447.228 496.123 467.278 475.847 475.306C462.819 480.464 465.748 467.878 464.748 461.051C462.073 442.809 451.519 430.205 437.508 419.789C432.359 415.96 423.944 413.052 425.397 405.445C427.392 395.003 437.147 390.513 445.989 387.242C477.339 375.646 496.777 392.002 496.777 432.381Z" fill="#1A2240"/>
<path d="M286.776 183.727C287.384 199.895 282.741 212.693 265.699 217.248C255.165 220.065 253.184 212.374 253.349 204.965C253.827 183.294 254.957 161.626 256.379 139.996C256.729 134.68 258.316 128.086 265.076 127.747C274.767 127.262 277.067 136.062 279.656 142.938C284.567 155.972 286.929 169.662 286.776 183.727Z" fill="#1A2240"/>
<path d="M331.875 69.5781C314.108 58.2989 291.785 47.6255 273.918 31.7372C258.011 17.5912 262.863 -16.5554 278.846 -23.2928C294.235 -29.7768 304.072 -17.2502 314.641 -9.32687C326.851 -0.172035 339.446 3.44313 354.821 0.811905C376.352 -2.87458 381.931 4.92609 375.173 29.3693C369.609 49.4926 358.038 64.6008 331.875 69.5781Z" fill="#1A2240"/>
<path d="M670.113 346.949C670.628 322.302 674.523 296.94 655.401 276.548C646.91 267.494 631.823 266.611 626.755 253.803C620.306 237.513 631.809 215.564 650.473 212.482C671.071 209.078 672.812 228.635 676.689 242.011C686.636 276.324 683.258 313.912 700.725 346.476C706.986 358.149 715.989 368.542 718.085 382.137C719.286 389.94 716.974 397.57 708.732 400.172C694.026 404.815 685.051 395.929 677.808 384.592C670.481 373.129 669.43 360.189 670.113 346.949Z" fill="#1A2240"/>
<path d="M1065.97 311.991C1067.07 312.341 1068.26 312.422 1069.41 312.628C1069 311.381 1068.83 309.969 1068.14 308.914C1053.45 286.385 1029.22 275.712 1008.92 260.352C978.583 237.388 960.465 193.392 973.399 167.408C983.084 147.948 999.442 139.882 1023.33 139.924C1035.37 139.781 1049.4 144.865 1063.64 149.005C1069.69 150.763 1077.8 154.458 1081.18 147.271C1084.49 140.264 1076.87 136.073 1071.49 133.151C1029.46 110.331 965.069 116.383 951.837 172.061C943.97 205.162 958.688 232.86 978.399 257.456C1001.15 285.853 1032.31 301.274 1065.97 311.991ZM1127.14 343.771C1132.83 349.493 1142.48 357.587 1148.75 349.236C1157.76 337.238 1145.81 327.475 1138.53 319.481C1107.55 285.445 1068.18 262.39 1031.55 235.709C1017.07 225.164 1003.6 212.454 999.327 193.879C995.405 176.844 1009.13 171.326 1020.6 164.929C1024.02 163.023 1029.83 162.445 1029.23 157.738C1029.01 156.03 1021.82 154.276 1017.78 154.212C995.815 153.868 981.763 167.378 981.763 194.546C983.713 220.7 1003.96 241.75 1027.73 258.361C1063.77 283.542 1096.16 312.64 1127.14 343.771ZM1001.09 719.953C1007.54 717.51 1014.56 717.08 1021.26 716.273C1048.36 713.006 1075.08 705.486 1102.65 707.516C1118.9 708.71 1135.04 711.355 1151.28 712.713C1158.48 713.315 1162.46 708.262 1165.15 701.766C1167.9 695.106 1170.05 686.1 1179.35 687.695C1191.11 689.713 1194.42 699.717 1195.61 710.499C1195.78 712.058 1196.07 713.606 1196.3 715.158C1197.62 714.241 1199.11 713.507 1200.22 712.384C1217.69 694.864 1216.16 670.647 1192.12 660.241C1155.72 644.481 1135.62 614.865 1115.58 583.523C1107.48 570.862 1096.28 560.234 1080.11 568.106C1063.42 576.234 1066.54 593.06 1069.61 606.864C1077.85 643.822 1067.64 680.552 1044.41 690.614C1023.47 699.687 1000.67 700.986 978.917 706.66C968.527 709.369 958.649 713.245 950.197 719.953H909.288C921.27 713.329 933.177 706.546 945.434 700.507C965.337 690.703 987.202 687.903 1008.53 683.011C1040.93 675.579 1055.68 642.117 1049.22 605.286C1040.73 556.92 1006.94 530.786 972.583 503.939C942.484 480.425 915.648 454.461 916.186 411.591C916.524 384.57 928.105 362.154 946.423 343.362C974.011 315.06 970.495 283.936 956.448 250.794C942.472 217.811 932.142 184.169 944.922 147.685C949.999 133.186 961.538 126.045 972.558 117.783C991.751 103.392 992.286 89.5464 971.276 78.19C945.506 64.2618 933.733 43.4852 928.506 15.0981C921.985 -20.3274 892.884 -31.5789 858.91 -14.9185C835.025 -3.20569 815.689 16.2543 790.701 25.9378C775.32 31.8972 760.085 31.8239 744.998 25.9397V2.83289C789.926 24.7321 821.326 -3.58777 853.152 -30.0109C872.47 -46.0497 893.467 -53.195 918.76 -47.5187C927.288 -45.6062 942.649 -42.8482 942.736 -57.1329C942.824 -71.3224 929.576 -70.3226 919.219 -71.9877H974.016C972.579 -47.7999 961.88 -25.7661 958.043 -2.11871C952.719 30.7092 969.197 52.7667 992.571 71.3872C1000.53 77.7287 1008.65 84.0108 1017.32 89.2376C1026.56 94.8049 1038.66 101.047 1045.11 88.1407C1051.76 74.8262 1038.56 68.9698 1029.41 63.9331C1011.76 54.2159 989.712 50.775 983.927 25.8704C978.099 0.791626 987.113 -22.236 991.804 -45.9388C993.509 -54.5532 994.615 -63.2922 995.922 -71.9877H1016.91C1013.98 -62.9259 1011 -53.882 1008.19 -44.7806C1000.77 -20.6917 990.792 3.96735 1010.43 26.6485C1023.57 41.83 1042.85 50.6305 1054.5 67.5087C1070.47 90.6334 1087.08 112.637 1114.07 123.614C1120.33 126.156 1129.23 128.722 1128.73 137.14C1128.18 146.265 1119.25 150.041 1112.13 154.018C1090.24 166.248 1065.38 162.53 1042.11 167.372C1030.19 169.853 1017.81 173.045 1013.45 186.494C1010.12 196.751 1016.45 205.158 1024.02 210.387C1038.94 220.698 1054.46 230.274 1070.4 238.853C1108.94 259.588 1143.12 284.92 1162.32 326.471C1167.46 337.602 1171.58 349.865 1164.67 361.83C1160.88 368.391 1153.85 370.872 1146.4 369.858C1132.69 367.997 1121.65 360.03 1110.37 352.702C1086.96 337.493 1064.15 319.229 1035.59 317.487C1005.08 315.628 982.445 337.319 958.109 352.091C937.492 364.607 924.961 384.043 928.867 409.607C936.066 456.704 964.826 489.017 1002.33 514.159C1014.2 522.114 1027.9 529.444 1042.21 521.726C1055.39 514.609 1053.53 500.399 1050.98 488.499C1045.51 463.04 1054.73 447.898 1076.3 434.025C1103.99 416.212 1104.53 401.25 1081.99 381.129C1065.64 366.538 1046.64 351.319 1024.04 355.367C989.397 361.576 971.38 389.096 970.92 427.329C970.86 432.249 971.928 438.83 965.611 441.008C963.612 441.699 959.716 439.778 958.059 437.834C951.45 430.085 948.844 420.554 948.175 410.463C946.309 382.313 965.59 369.654 985.885 358.682C1001.78 350.087 1016.2 335.353 1036.03 338.691C1062.24 343.104 1080.17 364.605 1103.48 375.445C1123.79 384.893 1126.71 397.944 1112.58 415.705C1106.22 423.712 1098.34 430.871 1090.03 436.799C1057.79 459.822 1054.01 475.926 1075.22 505.379C1086.21 520.635 1100.46 534.312 1107.94 551.155C1125.08 589.766 1148.8 618.214 1189.52 633.249C1232.98 649.3 1245.42 690.059 1219.76 719.953H1001.09Z" fill="#1A2240"/>
<path d="M1039.67 -71.9846H1055.46C1045.58 -59.7729 1037.9 -46.5297 1035.9 -30.1899C1033.42 -9.84302 1037.74 8.92996 1052.25 22.783C1078 47.3767 1094.29 80.6778 1123.12 102.151C1144.7 118.224 1167.92 114.048 1189.77 103.713C1215.73 91.4304 1240.34 93.6934 1265.27 105.416C1266.83 106.147 1268.63 106.319 1270.32 106.752C1269.87 104.973 1269.66 103.082 1268.92 101.429C1260.25 81.7509 1226.2 74.0354 1200.18 85.4136C1174.12 96.8116 1148.04 111.662 1120.58 88.5735C1101.85 72.8237 1090.93 50.7939 1076.38 31.6745C1065.32 17.1404 1049.97 4.89102 1049.16 -15.2678C1048.08 -42.0533 1062.18 -59.4641 1083.1 -71.9846H1188.17C1178.24 -68.4902 1168.35 -64.8671 1158.27 -61.9408C1139.17 -56.3992 1120.19 -65.0413 1101.11 -63.297C1082.48 -61.5904 1068.7 -51.4774 1059.75 -35.0367C1054.25 -24.9374 1054.42 -14.462 1061.1 -4.48947C1063.71 -0.575287 1067.13 1.83813 1071.58 1.15707C1076.9 0.343353 1079.08 -4.1846 1080.24 -9.00552C1088.13 -41.6691 1097.33 -48.5511 1129.13 -39.5666C1149.89 -33.7003 1165.28 -44.7478 1182.01 -51.6912C1218.38 -66.7856 1254.31 -43.1481 1254.47 -3.34317C1254.51 6.25912 1255.13 15.8852 1256.01 25.4478C1256.62 32.112 1257.9 39.7681 1266.87 38.4792C1275.07 37.2992 1278.1 29.5699 1277.84 22.5909C1276.45 -16.0004 1269.19 -60.842 1224.75 -71.9846H1257.76C1280.7 -42.4096 1290.52 -8.47293 1286.92 29.073C1285.57 43.1062 1277.99 56.2365 1261.73 53.8033C1244.13 51.1661 1246.45 34.0246 1244.59 21.1397C1241.22 -2.19482 1244.48 -28.5665 1218.59 -41.6473C1201.49 -50.2854 1185.16 -44.3519 1171.28 -33.5082C1159.31 -24.1574 1147.79 -20.6728 1132.28 -22.3339C1098 -26.0065 1085.71 -8.63925 1094.02 28.1266C1101.61 61.6989 1128.35 90.5771 1151.94 90.0603C1169.55 89.6743 1182.47 77.0467 1197.85 70.7805C1227.81 58.5609 1251.95 71.7883 1274.68 90.1831C1309.2 118.127 1346.17 140.63 1391.39 144.649C1395.59 145.021 1400.58 144.387 1401.54 139.652C1402.61 134.354 1397.41 132.877 1393.58 131.497C1372.5 123.898 1350.4 119.142 1330.7 107.655C1301.21 90.4524 1297.91 64.2253 1302.88 32.8485C1308.75 -4.15884 1300.52 -39.3567 1282.28 -71.9846H1299.63C1313.61 -36.4206 1311.55 1.27783 1313.29 38.507C1314.31 60.1824 1318.9 81.0005 1334.36 97.172C1366.33 130.614 1414.38 129.208 1449.89 94.8061C1454.72 90.1277 1461.07 80.6798 1468.16 86.7263C1475.32 92.844 1468.17 100.625 1463.81 106.768C1460.83 110.966 1457.89 115.244 1454.44 119.028C1436.15 139.107 1419.78 162.638 1387.93 159.494C1368.6 157.585 1353.51 145.385 1336.84 137.135C1300.74 119.279 1264.33 142.315 1264.33 183.317C1264.33 234.025 1315.3 269.781 1366.67 258.829C1402.22 251.248 1433.71 232.659 1469 225.126C1488.86 220.885 1512.78 234.724 1517.73 254.962C1521.87 271.912 1510.3 286.26 1489.01 292.118C1458.81 300.426 1430.66 312.099 1410.77 339.082C1389.86 367.453 1382.39 368.424 1352.84 347.455C1328.29 330.036 1303.05 322.113 1273.45 333.123C1246.38 343.19 1235.13 335.794 1234.87 306.472C1234.54 268.837 1217.53 244.665 1183.82 231.333C1154.83 219.865 1139.65 191.971 1146.93 161.784C1150.81 145.682 1163.48 139.376 1178.27 142.813C1191.47 145.878 1186.63 157.918 1184.77 166.734C1179.75 190.669 1181.51 212.053 1203.07 227.585C1216.71 237.413 1229.61 248.011 1236.08 264.588C1241.01 277.22 1246.27 289.796 1255.62 299.77C1276.26 321.782 1304.16 318.08 1330.07 320.741C1385.3 326.409 1430.94 299.766 1476.72 274.208C1485.64 269.231 1496.3 262.104 1489.16 250.098C1482.39 238.712 1470.58 242.531 1461.31 248.207C1430.39 267.124 1400.35 287.044 1363.77 294.33C1332.51 300.554 1300.86 292.694 1286.35 272.514C1258.44 233.687 1251.2 189.752 1252.71 142.976C1253.63 114.284 1237.45 101.332 1210.75 110.459C1167.98 125.076 1128.98 124.064 1096.65 87.6093C1079.91 68.7373 1066.83 46.4461 1046.37 31.0706C1028.49 17.6334 1020.16 0.477936 1023.64 -22.5339C1026.29 -40.0298 1033.4 -55.829 1039.67 -71.9846Z" fill="#1A2240"/>
<path d="M985.206 656.416C948.007 669.508 917.227 694.801 881.959 711.446C875.677 714.412 869.307 717.181 862.938 719.953H836.662C838.016 719.747 839.348 719.492 840.624 719.236C872.355 712.871 897.491 695.282 919.653 671.7C955.195 633.879 947.479 550.89 905.5 520.992C882.18 504.383 859.509 486.766 837.264 468.684C830.708 463.354 824.612 452.641 832.31 446.054C840.292 439.228 843.633 451.254 848.385 456.211C857.042 465.245 864.929 475.507 874.915 482.674C913.476 510.338 948.219 540.519 957.761 591.174C959.445 600.119 963.27 609.416 974.435 606.381C983.081 604.031 983.578 595.05 982.017 587.315C973.474 544.986 945.865 516.494 914.457 490.655C896.543 475.919 874.766 464.61 866.203 440.794C859.142 421.154 869.183 402.04 870.076 382.557C870.815 366.441 867.775 348.624 878.087 334.997C885.772 324.838 899.208 319.112 906.531 308.787C926.195 281.065 919.476 249.809 912.089 220.207C903.956 187.612 896.702 155.824 904.363 121.869C911.52 90.1581 911.09 58.3696 896.784 28.1729C894.296 22.9204 890.414 18.0361 883.928 19.4359C877.223 20.8831 876.353 26.9493 876.382 32.9127C876.498 57.4133 883.707 81.2884 881.236 106.171C878.917 129.537 863.608 146.732 846.157 142.503C815.83 135.156 782.363 151.258 771.559 180.82C760.836 210.155 766.823 242.205 760.306 272.429C757.235 286.674 755.17 301.331 744.997 312.395V265.878C750.636 250.247 751.994 233.638 752.324 217.314C753.358 165.911 776.188 132.747 824.911 117.142C856.098 107.153 866.697 85.7827 864.754 42.7249C864.064 27.4127 859.119 9.35046 879.367 5.08789C898.081 1.14795 903.085 18.8578 908.619 32.4218C916.438 51.5867 928.307 67.4255 942.128 82.5258C956.145 97.84 941.364 108.977 933.596 120.153C907.839 157.202 911.685 197.369 928.565 234.325C948.064 277.013 939.655 308.72 909.379 341.54C878.723 374.774 874.884 426.858 898.072 458.664C916.176 483.499 944.408 497.703 965.519 519.616C990.661 545.714 1020.25 569.585 1024.86 609.052C1028.15 637.253 1007.08 648.716 985.206 656.416Z" fill="#1A2240"/>
<path d="M1169.52 284.384C1182.23 307.843 1186.73 333.407 1190.58 359.567C1195.13 390.575 1217.71 405.034 1247.68 392.486C1287.4 375.855 1320.44 380.448 1349.97 412.28C1353.31 415.881 1360.26 421.14 1363.15 415.923C1368.15 406.907 1360.4 399.265 1354.87 392.755C1326.69 359.569 1293.51 354.102 1254.07 371.335C1238.92 377.953 1217.78 387.174 1208.53 361.713C1203.8 348.707 1204.28 333.728 1202.4 319.639C1201.6 302.784 1202.64 285.108 1189.31 272.099C1183.67 266.587 1176.05 261.245 1168.78 266.036C1161.64 270.738 1166.38 278.6 1169.52 284.384ZM1043.18 191.786C1043.58 189.747 1047.3 187.422 1049.83 186.916C1071.08 182.659 1093.2 183.411 1113.69 174.486C1120.98 171.308 1124.66 176.753 1125.24 183.421C1128.08 215.809 1142.16 238.946 1173.7 250.047C1192.13 256.529 1210.44 265.967 1214.77 287.662C1217.8 302.836 1216.64 318.924 1216.92 334.613C1217.28 354.647 1227.53 364.184 1246.47 360.459C1263.22 357.163 1279.63 350.469 1296.45 349.37C1332.61 347.002 1354.63 371.986 1374.82 397.574C1384.38 409.694 1382.73 423.34 1370.62 433.922C1362.62 440.913 1354.05 438.367 1346.45 432.833C1337.37 426.228 1329.7 416.685 1319.77 412.391C1268.15 390.062 1218.03 400.751 1171.98 427.41C1130.97 451.149 1122.03 483.462 1140.71 515.337C1158 544.843 1187.71 553.347 1216.82 563.305C1255.73 576.618 1289.86 595.199 1300.39 640.963C1306.07 665.65 1318.27 686.42 1345.3 690.715C1369.74 694.597 1385.21 678.079 1400.52 661.797C1413.46 648.031 1425.46 632.519 1443.77 625.675C1475.72 613.73 1499.44 630.028 1522 649.548V677.974C1515.31 668.02 1509.15 657.621 1499.08 650.538C1469.23 629.543 1443.74 634.521 1421.21 664.325C1405.94 684.536 1389.53 703.859 1369.92 719.953H1296.59C1307.46 673.359 1287 637.387 1255.84 606.015C1235.94 585.979 1208.35 578.609 1184.24 565.485C1152.27 548.08 1125.3 525.728 1118.16 486.79C1112.93 458.236 1132.8 444.338 1151.65 429.931C1165.3 419.503 1182.74 412.243 1185.74 391.967C1186.22 388.744 1184.5 385.18 1183.8 381.775C1182.22 382.545 1180.24 382.937 1179.15 384.16C1176.68 386.956 1174.77 390.264 1172.41 393.178C1157.52 411.575 1138.47 425.169 1120.5 440.008C1095.92 460.294 1096.67 484.82 1116.3 520.069C1142 566.198 1184.75 589.148 1227.4 612.952C1258.76 630.452 1287.95 679.818 1270.71 719.953H1246.38C1268.31 673.409 1243.91 624.405 1198.84 608.802C1179.01 601.936 1157.18 598.499 1143.6 579.227C1127.78 556.788 1119.25 529.723 1100.25 509.224C1091.25 499.518 1081.64 489.146 1083.19 474.246C1085.25 454.558 1102.18 446.593 1114.74 435.46C1137.99 414.868 1166.26 397.817 1176.02 366.213C1189.16 323.616 1166.91 291.089 1140.6 261.354C1115.74 233.25 1080.63 221.169 1049.85 202.317C1046.09 200.014 1042.24 196.688 1043.18 191.786Z" fill="#1A2240"/>
<path d="M1245.37 531.513C1277.22 548.576 1301.97 575.876 1332.77 594.364C1343.77 600.961 1355.9 604.209 1370.27 604.287C1391 603.477 1410.96 595.393 1429.23 582.886C1433.13 580.214 1438.55 576.197 1435.38 570.089C1431.21 562.021 1423.45 562.918 1416.85 565.682C1367.67 586.254 1329.04 562.518 1290.78 535.52C1277.89 526.421 1264.52 517.256 1247.38 518.702C1243.75 519.009 1240.45 520.699 1240.47 523.689C1240.49 526.37 1242.94 530.216 1245.37 531.513ZM1157.86 484.805C1163.07 479.685 1169.86 493.462 1175.29 499.386C1186.98 512.133 1200.51 519.505 1217.38 512.382C1233.2 505.704 1248.56 501.77 1265.32 508.369C1299.83 521.951 1329.38 546.356 1367.25 553.189C1399.62 559.031 1436.78 540.88 1446.86 508.99C1454.75 483.993 1448.32 457.316 1454.47 431.98C1464.29 391.474 1482.76 357.833 1522 340.404V359.215C1492.34 374.044 1478.87 401.544 1471.41 432.113C1461.33 473.46 1455.52 515.9 1468.68 557.499C1476.76 583.021 1498 596.274 1522 604.619V620.838C1466.89 578.915 1423.45 592.689 1382.63 640.645C1361.07 665.967 1338.61 666.06 1326.51 634.986C1308.41 588.497 1280.37 554.719 1231.9 540.569C1208.7 533.796 1182.61 533.358 1165.03 512.732C1158.15 504.649 1149.58 492.934 1157.86 484.805Z" fill="#1A2240"/>
<path d="M1192.85 438.465C1230.02 422.3 1269.3 428.138 1307.92 431.197C1315.78 431.819 1324.04 439.237 1322.5 448.909C1321.48 455.312 1312.98 454.324 1308 453.092C1280.02 446.179 1251.86 441.878 1223.15 446.509C1214.65 447.881 1201.55 446.86 1201.58 459.21C1201.61 472.067 1214.02 471.091 1222.93 470.287C1249.27 467.913 1275.23 464.983 1301.29 474.188C1355.95 493.489 1388.09 479.234 1401.66 421.921C1417.7 354.222 1458.34 318.967 1522 306.413V317.213C1521.56 317.282 1521.13 317.369 1520.72 317.504C1467.06 334.929 1424.23 399.533 1421.5 465.9C1420.63 487.122 1416.71 508.334 1396.66 520.029C1373.72 533.409 1352.23 523.3 1332.86 510.759C1297 487.53 1262.18 465.51 1216.52 484.52C1204.14 489.674 1188.18 483.709 1181.49 468.973C1175.74 456.284 1181.36 443.464 1192.85 438.465Z" fill="#1A2240"/>
<path d="M777.833 423.107C798.808 428.882 814.974 419.408 827.377 402.807C838.412 388.036 840.283 370.381 840.44 352.454C840.516 332.17 834.638 309.97 853.257 294.664C863.851 285.955 879.105 284.078 883.857 267.235C893.511 233.017 875.508 191.66 845.922 183.345C822.756 176.833 801.312 195.919 793.805 228.804C785.978 263.089 789.613 300.009 771.627 331.897C762.96 347.263 751.048 361.171 750.466 379.996C749.83 400.554 756.678 417.284 777.833 423.107ZM744.997 343.095C749.968 337.575 755.225 332.241 759.116 326.019C779.601 293.254 780.205 255.443 783.843 218.57C787.154 185.012 814.694 161.703 846.578 166.528C873.686 170.628 893.707 198.071 894.863 230.976C895.599 251.98 900.011 273.313 886.949 292.209C879.915 302.387 865.022 302.67 858.857 314.017C849.906 330.487 855.471 348.524 854.333 365.826C852.837 388.523 846.74 408.771 827.266 422.115C798.56 441.787 779.37 439.169 744.997 410.681V343.095Z" fill="#1A2240"/>
<path d="M744.997 52.1077C769.787 65.1866 790.329 54.0183 811.316 39.2684C820.008 33.1586 831.624 14.8826 842.302 32.9844C850.61 47.0631 846.127 65.0025 834.616 78.4774C819.571 96.0882 796.904 100.723 778.107 111.978C765.358 119.615 754.801 129.558 744.997 140.484V52.1077Z" fill="#1A2240"/>
<path d="M880.536 675.467C919.248 627.119 916.417 574.655 873.646 530.243C838.1 493.335 791.022 484.91 744.998 473.558V439.485C791.82 454.898 828.317 488.175 868.514 514.972C936.466 560.275 937.709 645.767 871.472 691.684C869.292 693.195 866.822 694.268 864.489 695.547C866.008 693.545 867.482 691.504 869.057 689.55C872.861 684.836 876.75 680.195 880.536 675.467Z" fill="#1A2240"/>
<path d="M993.219 432.381C995.029 447.228 993.873 467.278 1014.15 475.306C1027.18 480.464 1024.25 467.878 1025.25 461.051C1027.92 442.809 1038.48 430.205 1052.49 419.789C1057.64 415.96 1066.05 413.052 1064.6 405.445C1062.6 395.003 1052.85 390.513 1044.01 387.242C1012.66 375.646 993.219 392.002 993.219 432.381Z" fill="#1A2240"/>
<path d="M1203.22 183.727C1202.61 199.895 1207.26 212.693 1224.3 217.248C1234.83 220.065 1236.81 212.374 1236.65 204.965C1236.17 183.294 1235.04 161.626 1233.62 139.996C1233.27 134.68 1231.68 128.086 1224.92 127.747C1215.23 127.262 1212.93 136.062 1210.34 142.938C1205.43 155.972 1203.07 169.662 1203.22 183.727Z" fill="#1A2240"/>
<path d="M1158.12 69.5781C1175.89 58.2989 1198.21 47.6255 1216.08 31.7372C1231.99 17.5912 1227.13 -16.5554 1211.15 -23.2928C1195.76 -29.7768 1185.92 -17.2502 1175.36 -9.32687C1163.14 -0.172035 1150.55 3.44313 1135.17 0.811905C1113.64 -2.87458 1108.07 4.92609 1114.82 29.3693C1120.39 49.4926 1131.96 64.6008 1158.12 69.5781Z" fill="#1A2240"/>
<path d="M819.883 346.949C819.368 322.302 815.473 296.94 834.595 276.548C843.086 267.494 858.173 266.611 863.241 253.803C869.69 237.513 858.187 215.564 839.523 212.482C818.925 209.078 817.184 228.635 813.307 242.011C803.36 276.324 806.738 313.912 789.271 346.476C783.01 358.149 774.007 368.542 771.911 382.137C770.71 389.94 773.022 397.57 781.264 400.172C795.97 404.815 804.945 395.929 812.188 384.592C819.515 373.129 820.566 360.189 819.883 346.949Z" fill="#1A2240"/>
</g>
<defs>
<clipPath id="clip0_2_250704">
<rect width="1440" height="654" fill="white" transform="translate(0 -65)"/>
</clipPath>
</defs>
</svg>
