<svg width="270" height="175" viewBox="0 0 270 175" fill="none" xmlns="http://www.w3.org/2000/svg">
<path d="M193.108 98.4758L193.108 98.4758C189.712 97.7439 187.381 96.4751 185.784 95.0046C184.188 93.5343 183.307 91.8445 182.841 90.2399C182.374 88.6322 182.323 87.1098 182.39 85.9864C182.423 85.4255 182.486 84.9668 182.54 84.6499C182.553 84.5725 182.566 84.5036 182.577 84.4438L185.202 84.232L185.17 83.8333L185.202 84.232C187.199 84.0708 188.569 82.1499 188.068 80.2104L188.068 80.2103L184.849 67.7531C184.943 67.6789 185.069 67.5806 185.224 67.4616C185.595 67.1755 186.131 66.77 186.786 66.2938C188.098 65.3407 189.887 64.1071 191.8 62.9802C193.717 61.8506 195.738 60.8401 197.518 60.3195C199.269 59.8072 200.651 59.808 201.51 60.4492L208.551 81.0188C209.05 82.4763 210.29 83.5551 211.803 83.849C211.803 83.849 211.803 83.849 211.803 83.849L214.442 84.3619C214.4 84.4451 214.352 84.5386 214.298 84.6416C214.05 85.1153 213.68 85.7905 213.193 86.5922C212.218 88.1969 210.778 90.3022 208.914 92.3126C205.176 96.3436 199.809 99.9205 193.108 98.4758Z" fill="white" stroke="#161D3B" stroke-width="0.8"/>
<path d="M214.886 84.1419C214.536 84.865 212.519 88.8673 209.131 92.5205C205.704 96.2145 200.132 100.297 193.045 98.7697C188.648 97.8218 185.515 95.8773 183.731 92.992C181.336 89.116 182.196 84.7586 182.329 84.1618L185.178 83.9311C186.043 83.8615 186.825 83.4169 187.328 82.7117C187.83 82.0065 187.993 81.1223 187.777 80.2849L184.509 67.6384C185.407 66.9253 197.903 57.1274 201.765 60.2663L208.835 80.9204C209.298 82.2721 210.457 83.2806 211.86 83.5531L214.886 84.1419ZM196.118 99.3008C198.226 99.3008 200.305 98.8333 202.33 97.9004C204.741 96.7914 207.079 95.025 209.28 92.6518C213.023 88.6147 215.101 84.1549 215.122 84.1101C215.135 84.0823 215.134 84.0504 215.12 84.0226C215.106 83.9957 215.08 83.9768 215.05 83.9709L211.898 83.3582C210.565 83.0996 209.463 82.1408 209.024 80.8558L201.944 60.1748C201.938 60.1579 201.928 60.143 201.914 60.1311C200.19 58.6978 196.702 59.5114 191.547 62.549C187.73 64.7978 184.368 67.4962 184.334 67.523C184.304 67.5479 184.29 67.5877 184.3 67.6255L187.584 80.3346C187.786 81.1153 187.634 81.9399 187.166 82.5963C186.698 83.2538 185.968 83.6685 185.162 83.7332L182.241 83.9689C182.199 83.9729 182.164 84.0027 182.153 84.0435C182.141 84.0912 180.953 88.8753 183.562 93.0964C185.374 96.0295 188.551 98.0038 193.003 98.9636C194.045 99.1884 195.085 99.3008 196.118 99.3008Z" fill="#161D3B"/>
<path d="M172.019 34.4947C170.81 40.4613 175.458 45.871 179.48 46.8676C179.622 46.9024 179.765 46.9342 179.905 46.9651C179.991 47.2605 180.096 47.5559 180.231 47.8473C181.812 51.3056 186.338 52.9874 190.141 52.6433C191.243 53.8219 192.678 55.462 194.2 57.5358C199.061 64.1599 202.512 61.181 207.562 54.6226C208.235 53.7493 209.204 52.6354 209.707 50.7864C210.706 47.1153 208.978 43.8092 208.758 43.4034C207.11 40.3569 204.989 40.4703 200.327 37.3422C193.239 32.585 193.116 28.9497 187.023 26.8959C185.409 26.3518 183.379 25.6944 180.846 26.1589C177.159 26.8342 172.975 29.7822 172.019 34.4947Z" fill="#161D3B"/>
<path d="M197.026 63.4227C197.026 63.4227 193.596 71.3358 184.612 69.8747C175.628 68.4126 175.4 56.9955 176.202 44.8632C177.1 46.01 179.11 46.8922 180.698 47.5666C187.16 50.3107 192.97 46.7122 193.826 46.2517C192.287 48.1415 192.284 50.7076 193.581 52.4441C194.296 53.403 195.326 54.0952 197.712 54.136C197.712 54.136 199.169 50.3356 202.558 52.5416C205.947 54.7477 204.687 64.0552 197.026 63.4227Z" fill="white"/>
<path d="M193.054 46.9472C187.665 49.7021 183.331 48.9537 180.599 47.7934L180.599 47.7934C179.744 47.4297 178.876 47.0474 178.105 46.6267C177.456 46.2724 176.868 45.8872 176.412 45.4574C176.072 50.817 175.905 56.7859 176.978 61.3095C177.568 63.7991 178.494 65.715 179.764 67.0888C181.032 68.4603 182.652 69.3001 184.65 69.6254C189.193 70.3643 192.248 68.6122 194.013 67.0146C195.92 65.288 196.777 63.3612 196.796 63.3192C196.796 63.3191 196.796 63.3189 196.796 63.3188L196.796 63.3186L196.933 63.3801C196.949 63.3443 196.985 63.3204 197.025 63.3204C197.028 63.3204 197.03 63.3204 197.033 63.3214L193.054 46.9472ZM193.054 46.9472C192.066 48.753 192.158 50.9551 193.379 52.5908L193.379 52.5909C193.714 53.0396 194.134 53.4803 194.808 53.8122C195.48 54.1429 196.393 54.36 197.706 54.3827L197.706 54.3828L197.713 54.3826C197.799 54.3803 197.903 54.3285 197.943 54.2229L197.944 54.2229L197.945 54.219C197.945 54.219 197.945 54.2188 197.945 54.2181C197.954 54.1975 198.111 53.8063 198.426 53.3644C198.752 52.908 199.235 52.4149 199.882 52.2052C200.625 51.9652 201.474 52.1325 202.42 52.7481L202.42 52.7482C203.184 53.2451 203.718 54.1716 203.952 55.3029C204.185 56.4318 204.114 57.7481 203.686 58.999C202.703 61.8712 200.233 63.4314 197.054 63.1727" fill="#161D3B" stroke="#161D3B" stroke-width="0.3"/>
<path d="M197.553 59.9453C197.595 59.9453 197.633 59.9194 197.647 59.8777C197.848 59.2918 198.055 58.6851 198.421 58.1769C198.82 57.6209 199.364 57.2808 199.911 57.243C199.967 57.239 200.008 57.1912 200.004 57.1365C200 57.0818 199.953 57.0411 199.898 57.044C199.29 57.0858 198.694 57.4568 198.259 58.0615C197.877 58.5936 197.664 59.2133 197.459 59.813C197.442 59.8657 197.469 59.9214 197.521 59.9393C197.532 59.9433 197.543 59.9453 197.553 59.9453Z" fill="#161D3B"/>
<path d="M195.381 50.8111C195.381 50.8111 193.917 57.1607 190.749 59.8203C187.58 62.4789 182.944 56.7241 175.723 56.6783C175.723 56.6783 175.524 67.8637 177.134 70.3254C179.166 73.4325 195.284 74.4948 197.173 63.6943C197.173 63.6943 195.457 58.4965 197.859 54.4067L195.381 50.8111Z" fill="#161D3B"/>
<path d="M169.875 84.2155C173.692 83.8646 178.458 83.4908 183.775 83.215C184.076 84.1198 184.477 84.9969 184.983 85.8302L184.983 85.8303C186.61 88.5046 189.149 90.5525 191.966 91.8206C194.782 93.0883 197.94 93.6658 201.033 93.2921C204.061 92.9265 206.96 91.6356 209.073 89.3619C209.901 88.47 210.832 87.4656 211.618 86.3861C212.333 85.4039 212.946 84.3384 213.255 83.2122C218.027 83.4904 221.837 83.8957 226.357 84.6033C235.084 85.9695 242.611 91.2516 247.389 98.7017C247.828 99.3849 248.268 100.07 248.709 100.756C258.902 116.61 269.6 133.251 269.6 152.309C269.6 157.806 266.31 161.841 261.251 164.817C256.184 167.796 249.403 169.673 242.583 170.846C235.77 172.018 228.952 172.481 223.835 172.651C221.277 172.736 219.145 172.747 217.654 172.738C216.909 172.733 216.323 172.723 215.925 172.714C215.725 172.71 215.573 172.705 215.47 172.702L215.354 172.699L215.325 172.698L215.318 172.698L215.316 172.698C215.316 172.698 215.316 172.698 215.301 173.097L215.316 172.698L215.309 172.697H215.301H162.119L128.337 144.021C128.347 143.99 128.359 143.957 128.371 143.921C128.452 143.686 128.573 143.339 128.731 142.89C129.049 141.992 129.518 140.688 130.125 139.062C131.34 135.811 133.108 131.276 135.318 126.145C139.741 115.875 145.926 103.238 152.99 93.7051C157.009 88.2827 163.15 84.8357 169.875 84.2155ZM169.875 84.2155L169.838 83.8172M169.875 84.2155C169.875 84.2155 169.875 84.2155 169.875 84.2155L169.838 83.8172M169.838 83.8172C173.733 83.4592 178.615 83.0772 184.062 82.7997L169.838 83.8172Z" fill="#FFD600" stroke="#161D3B" stroke-width="0.8"/>
<path d="M199.012 172.698H199.009H199.009L175.072 169.624C175.072 169.622 175.072 169.62 175.072 169.618C175.067 169.395 175.063 169.066 175.071 168.648C175.086 167.812 175.145 166.619 175.323 165.198C175.678 162.355 176.505 158.612 178.386 154.994C180.265 151.379 183.194 147.89 187.761 145.534C192.306 143.188 198.507 141.947 206.97 142.859C206.976 142.865 206.982 142.87 206.988 142.876C207.062 142.944 207.172 143.046 207.313 143.184C207.596 143.46 208.005 143.876 208.506 144.431C209.507 145.542 210.873 147.212 212.322 149.438C215.219 153.89 218.45 160.566 219.768 169.455C219.846 169.985 219.657 170.44 219.28 170.85C218.893 171.269 218.327 171.62 217.715 171.903C217.109 172.183 216.486 172.385 216.011 172.516C215.774 172.581 215.576 172.629 215.439 172.66C215.37 172.675 215.316 172.687 215.28 172.694L215.262 172.698H215.226H215.188H215.151H215.113H215.075H215.037H214.999H214.961H214.923H214.885H214.847H214.808H214.77H214.731H214.693H214.654H214.615H214.577H214.538H214.499H214.46H214.421H214.382H214.342H214.303H214.264H214.224H214.185H214.146H214.106H214.066H214.027H213.987H213.947H213.907H213.867H213.827H213.787H213.747H213.707H213.666H213.626H213.586H213.545H213.505H213.464H213.424H213.383H213.343H213.302H213.261H213.22H213.179H213.138H213.097H213.056H213.015H212.974H212.933H212.892H212.851H212.809H212.768H212.727H212.685H212.644H212.602H212.561H212.519H212.477H212.436H212.394H212.352H212.311H212.269H212.227H212.185H212.143H212.101H212.059H212.017H211.975H211.933H211.891H211.849H211.807H211.764H211.722H211.68H211.638H211.595H211.553H211.511H211.468H211.426H211.383H211.341H211.299H211.256H211.214H211.171H211.128H211.086H211.043H211.001H210.958H210.915H210.873H210.83H210.787H210.745H210.702H210.659H210.616H210.574H210.531H210.488H210.445H210.402H210.36H210.317H210.274H210.231H210.188H210.145H210.103H210.06H210.017H209.974H209.931H209.888H209.845H209.803H209.76H209.717H209.674H209.631H209.588H209.545H209.502H209.46H209.417H209.374H209.331H209.288H209.245H209.202H209.16H209.117H209.074H209.031H208.988H208.946H208.903H208.86H208.817H208.775H208.732H208.689H208.647H208.604H208.561H208.519H208.476H208.433H208.391H208.348H208.306H208.263H208.221H208.178H208.136H208.093H208.051H208.009H207.966H207.924H207.882H207.839H207.797H207.755H207.713H207.671H207.628H207.586H207.544H207.502H207.46H207.418H207.376H207.334H207.292H207.251H207.209H207.167H207.125H207.084H207.042H207H206.959H206.917H206.876H206.834H206.793H206.751H206.71H206.669H206.628H206.586H206.545H206.504H206.463H206.422H206.381H206.34H206.299H206.258H206.218H206.177H206.136H206.096H206.055H206.015H205.974H205.934H205.893H205.853H205.813H205.773H205.732H205.692H205.652H205.612H205.573H205.533H205.493H205.453H205.414H205.374H205.334H205.295H205.256H205.216H205.177H205.138H205.099H205.06H205.021H204.982H204.943H204.904H204.865H204.827H204.788H204.75H204.711H204.673H204.635H204.596H204.558H204.52H204.482H204.444H204.407H204.369H204.331H204.294H204.256H204.219H204.181H204.144H204.107H204.07H204.033H203.996H203.959H203.922H203.886H203.849H203.813H203.776H203.74H203.704H203.668H203.632H203.596H203.56H203.524H203.488H203.453H203.417H203.382H203.347H203.311H203.276H203.241H203.206H203.171H203.137H203.102H203.068H203.033H202.999H202.965H202.931H202.897H202.863H202.829H202.795H202.762H202.728H202.695H202.662H202.628H202.595H202.562H202.53H202.497H202.464H202.432H202.399H202.367H202.335H202.303H202.271H202.239H202.207H202.176H202.144H202.113H202.082H202.051H202.02H201.989H201.958H201.928H201.897H201.867H201.836H201.806H201.776H201.746H201.717H201.687H201.657H201.628H201.599H201.57H201.541H201.512H201.483H201.454H201.426H201.398H201.369H201.341H201.313H201.286H201.258H201.23H201.203H201.176H201.149H201.122H201.095H201.068H201.042H201.015H200.989H200.963H200.937H200.911H200.885H200.86H200.834H200.809H200.784H200.759H200.734H200.709H200.685H200.66H200.636H200.612H200.588H200.564H200.54H200.517H200.494H200.47H200.447H200.425H200.402H200.379H200.357H200.335H200.313H200.291H200.269H200.247H200.226H200.205H200.183H200.162H200.142H200.121H200.1H200.08H200.06H200.04H200.02H200.001H199.981H199.962H199.943H199.924H199.905H199.886H199.868H199.85H199.831H199.813H199.796H199.778H199.761H199.743H199.726H199.71H199.693H199.676H199.66H199.644H199.628H199.612H199.596H199.581H199.566H199.55H199.536H199.521H199.506H199.492H199.478H199.464H199.45H199.436H199.423H199.41H199.397H199.384H199.371H199.359H199.347H199.334H199.323H199.311H199.299H199.288H199.277H199.266H199.255H199.245H199.234H199.224H199.214H199.205H199.195H199.186H199.177H199.168H199.159H199.151H199.142H199.134H199.126H199.119H199.111H199.104H199.097H199.09H199.083H199.077H199.071H199.064H199.059H199.053H199.048H199.042H199.038H199.033H199.028H199.024H199.02H199.016H199.012Z" fill="white" stroke="#161D3B" stroke-width="0.8"/>
<path d="M194.028 164.623C193.031 166.397 192.627 168.328 192.88 170.056L192.88 170.056C192.903 170.219 192.792 170.37 192.63 170.396C192.607 170.399 192.588 170.399 192.584 170.399C192.584 170.399 192.583 170.399 192.583 170.399C192.437 170.399 192.308 170.292 192.287 170.142M194.028 164.623L198.833 159.321L199.017 159.242C199.017 159.242 199.017 159.242 199.017 159.241C198.951 159.09 198.774 159.02 198.623 159.086M194.028 164.623C194.86 163.143 196.092 161.742 197.803 160.341L194.028 164.623ZM192.287 170.142C192.013 168.27 192.451 166.207 193.506 164.329C194.381 162.774 195.665 161.318 197.424 159.879C197.768 159.596 198.16 159.289 198.623 159.086M192.287 170.142C192.287 170.142 192.287 170.142 192.287 170.141L192.485 170.114L192.287 170.143C192.287 170.142 192.287 170.142 192.287 170.142ZM198.623 159.086L198.703 159.269L198.623 159.086C198.623 159.086 198.623 159.086 198.623 159.086Z" fill="#161D3B" stroke="#161D3B" stroke-width="0.4"/>
<mask id="path-11-outside-1_2_227296" maskUnits="userSpaceOnUse" x="183.533" y="155.75" width="8" height="15" fill="black">
<rect fill="white" x="183.533" y="155.75" width="8" height="15"/>
<path d="M184.728 169.75C184.777 169.75 184.82 169.713 184.827 169.664C185.122 167.579 185.548 165.139 186.461 162.852C187.41 160.477 188.804 158.537 190.494 157.24C190.538 157.207 190.546 157.144 190.513 157.101C190.479 157.057 190.417 157.049 190.374 157.083C188.655 158.401 187.239 160.37 186.277 162.778C185.355 165.085 184.927 167.539 184.63 169.636C184.622 169.69 184.66 169.741 184.714 169.749C184.718 169.749 184.723 169.75 184.728 169.75Z"/>
</mask>
<path d="M184.728 169.75C184.777 169.75 184.82 169.713 184.827 169.664C185.122 167.579 185.548 165.139 186.461 162.852C187.41 160.477 188.804 158.537 190.494 157.24C190.538 157.207 190.546 157.144 190.513 157.101C190.479 157.057 190.417 157.049 190.374 157.083C188.655 158.401 187.239 160.37 186.277 162.778C185.355 165.085 184.927 167.539 184.63 169.636C184.622 169.69 184.66 169.741 184.714 169.749C184.718 169.749 184.723 169.75 184.728 169.75Z" fill="#161D3B"/>
<path d="M184.827 169.664L185.223 169.721L185.223 169.721L184.827 169.664ZM186.461 162.852L186.09 162.704L186.09 162.704L186.461 162.852ZM190.494 157.24L190.254 156.92L190.251 156.922L190.494 157.24ZM190.513 157.101L190.833 156.861L190.83 156.856L190.513 157.101ZM190.374 157.083L190.617 157.4L190.622 157.396L190.374 157.083ZM186.277 162.778L186.648 162.926L186.648 162.926L186.277 162.778ZM184.63 169.636L185.026 169.693L185.026 169.692L184.63 169.636ZM184.714 169.749L184.657 170.145L184.686 170.149H184.714V169.749ZM184.728 170.15C184.976 170.15 185.188 169.967 185.223 169.721L184.431 169.608C184.452 169.459 184.579 169.35 184.728 169.35V170.15ZM185.223 169.721C185.517 167.641 185.938 165.241 186.832 163.001L186.09 162.704C185.158 165.037 184.727 167.517 184.431 169.608L185.223 169.721ZM186.832 163.001C187.76 160.679 189.115 158.802 190.738 157.557L190.251 156.922C188.493 158.271 187.06 160.276 186.09 162.704L186.832 163.001ZM190.734 157.56C190.96 157.39 190.994 157.075 190.833 156.861L190.193 157.341C190.098 157.213 190.115 157.024 190.254 156.92L190.734 157.56ZM190.83 156.856C190.662 156.639 190.346 156.594 190.126 156.769L190.622 157.396C190.487 157.503 190.296 157.474 190.197 157.345L190.83 156.856ZM190.13 156.765C188.344 158.135 186.889 160.168 185.906 162.629L186.648 162.926C187.589 160.572 188.966 158.666 190.617 157.4L190.13 156.765ZM185.906 162.629C184.965 164.984 184.532 167.477 184.234 169.579L185.026 169.692C185.323 167.601 185.745 165.187 186.648 162.926L185.906 162.629ZM184.234 169.578C184.194 169.851 184.383 170.105 184.657 170.145L184.772 169.353C184.936 169.377 185.05 169.53 185.026 169.693L184.234 169.578ZM184.714 170.149C184.707 170.149 184.7 170.149 184.695 170.149C184.691 170.148 184.687 170.148 184.684 170.148C184.682 170.148 184.68 170.147 184.679 170.147C184.679 170.147 184.678 170.147 184.679 170.147C184.681 170.147 184.687 170.148 184.695 170.149C184.702 170.149 184.714 170.15 184.728 170.15V169.35C184.74 169.35 184.749 169.351 184.755 169.351C184.76 169.351 184.764 169.352 184.763 169.352C184.763 169.352 184.763 169.352 184.762 169.352C184.762 169.352 184.762 169.352 184.762 169.352C184.761 169.352 184.761 169.351 184.76 169.351C184.758 169.351 184.755 169.351 184.751 169.351C184.748 169.35 184.742 169.35 184.737 169.35C184.731 169.349 184.723 169.349 184.714 169.349V170.149Z" fill="#161D3B" mask="url(#path-11-outside-1_2_227296)"/>
<path d="M178.457 169.949C178.452 169.949 178.444 169.95 178.436 169.95C178.284 169.95 178.156 169.835 178.138 169.685C177.567 164.908 178.949 161.112 180.209 158.768C181.572 156.23 183.095 154.798 183.12 154.775L183.122 154.773L183.122 154.773C183.243 154.665 183.429 154.669 183.543 154.789L183.546 154.792L183.546 154.792C183.655 154.913 183.65 155.101 183.528 155.214L183.392 155.068M178.457 169.949L183.392 155.068M178.457 169.949H178.46L178.473 169.947C178.634 169.927 178.754 169.781 178.732 169.613L178.534 169.639M178.457 169.949L180.732 159.059C179.515 161.326 178.181 164.995 178.733 169.615L178.534 169.639M183.392 155.068C183.392 155.069 183.39 155.07 183.388 155.072L183.375 155.084C183.364 155.095 183.347 155.112 183.325 155.134C183.281 155.177 183.217 155.242 183.137 155.327C182.975 155.498 182.746 155.751 182.476 156.082C181.935 156.743 181.229 157.715 180.561 158.958L180.561 158.958C180.56 158.96 180.559 158.963 180.557 158.965C179.325 161.259 177.978 164.969 178.536 169.638M183.392 155.068L178.335 169.662C178.335 169.662 178.335 169.662 178.335 169.662L178.335 169.662L178.336 169.664C178.336 169.663 178.335 169.663 178.335 169.662C178.335 169.662 178.335 169.662 178.335 169.662L178.337 169.661M178.536 169.638C178.535 169.632 178.534 169.626 178.532 169.62C178.532 169.626 178.533 169.632 178.534 169.638C178.534 169.638 178.534 169.638 178.534 169.638C178.534 169.638 178.534 169.639 178.534 169.639M178.536 169.638L178.536 169.638M178.536 169.638L178.536 169.638M178.534 169.639C178.541 169.693 178.502 169.742 178.447 169.749C178.445 169.749 178.443 169.749 178.442 169.75C178.44 169.75 178.438 169.75 178.436 169.75C178.387 169.75 178.344 169.713 178.337 169.664C178.337 169.663 178.337 169.663 178.337 169.662C178.337 169.662 178.337 169.662 178.337 169.661M178.337 169.661C178.336 169.656 178.336 169.65 178.335 169.644C178.335 169.65 178.335 169.656 178.335 169.662L178.337 169.661ZM178.536 169.638L178.536 169.638L178.536 169.638ZM180.38 158.87C179.136 161.186 177.771 164.938 178.335 169.662L183.393 155.068L183.393 155.068L183.392 155.067C183.432 155.029 183.434 154.967 183.398 154.926C183.36 154.887 183.297 154.885 183.256 154.921C183.256 154.921 183.256 154.921 183.256 154.921C183.256 154.922 183.256 154.922 183.256 154.922C183.254 154.923 183.251 154.926 183.246 154.931C183.249 154.928 183.252 154.924 183.255 154.921C183.23 154.945 181.731 156.356 180.384 158.862C180.383 158.865 180.381 158.867 180.38 158.87L180.38 158.87ZM183.383 155.076C183.386 155.073 183.388 155.071 183.39 155.069L183.39 155.07C183.388 155.072 183.385 155.074 183.383 155.076Z" fill="#161D3B" stroke="#161D3B" stroke-width="0.4"/>
<path d="M102.365 174.719H203.61C204.209 174.719 204.809 174.566 205.303 174.225C206.461 173.43 206.863 172.006 206.405 170.784C205.211 168.283 202.743 167.401 199.095 167.401H95.7225L97.0642 171.045C97.8917 173.255 100.004 174.719 102.365 174.719Z" fill="#161D3B"/>
<path d="M101.794 174.719C99.7697 174.719 97.9485 173.486 97.1996 171.607L79.2767 126.664C78.8003 125.472 78.9475 124.121 79.6686 123.059C80.3897 121.996 81.5912 121.36 82.8762 121.36H145.1C148.849 121.36 152.192 123.72 153.444 127.251L170.268 174.719H101.794Z" fill="#161D3B"/>
<path d="M126.89 147.11C127.345 148.618 126.649 150.162 125.338 150.559C124.027 150.955 122.594 150.053 122.139 148.544C121.685 147.036 122.38 145.492 123.691 145.095C125.005 144.699 126.435 145.601 126.89 147.11Z" fill="white"/>
<path d="M100.337 167.945H162.027C162.082 167.945 162.127 167.901 162.127 167.846C162.127 167.791 162.082 167.746 162.027 167.746H100.337C100.282 167.746 100.237 167.791 100.237 167.846C100.237 167.901 100.282 167.945 100.337 167.945Z" fill="white"/>
<path d="M208.671 142.285L208.671 142.286C208.669 142.422 208.778 142.537 208.916 142.54C208.916 142.54 208.916 142.54 208.916 142.54L248.544 143.291L248.544 143.291H248.547H248.547H248.547H248.547H248.547H248.547H248.547H248.547H248.547H248.547H248.547H248.547H248.547H248.547H248.547H248.547H248.547H248.547H248.547H248.547H248.547H248.547H248.547H248.547H248.547H248.547H248.547H248.547H248.547H248.547H248.547H248.547H248.547H248.547H248.547H248.547H248.547H248.547H248.547H248.547H248.547H248.547H248.547H248.547H248.547H248.547H248.547H248.547H248.547H248.547H248.547H248.547H248.547H248.547H248.547H248.547H248.547H248.547H248.547H248.547H248.547H248.547H248.547H248.547H248.547H248.547H248.547H248.547H248.547H248.547H248.547H248.547H248.547H248.547H248.547H248.547H248.547H248.547H248.547H248.547H248.547H248.547H248.547H248.547H248.547H248.547H248.547H248.547H248.547H248.547H248.547H248.547H248.547H248.547H248.547H248.547H248.547H248.547H248.547H248.547H248.547H248.547H248.547H248.547H248.547H248.547H248.547H248.547H248.547H248.547H248.547H248.547H248.547H248.547H248.547H248.547H248.547H248.547H248.547H248.547H248.548H248.548H248.548H248.548H248.548H248.548H248.548H248.548H248.548H248.548H248.548H248.548H248.548H248.548H248.548H248.548H248.548H248.548H248.548H248.548H248.548H248.548H248.548H248.548H248.548H248.548H248.548H248.548H248.548H248.548H248.548H248.548H248.548H248.548H248.548H248.548H248.548H248.548H248.548H248.548H248.548H248.548H248.548H248.548H248.548H248.548H248.548H248.548H248.548H248.548H248.548H248.548H248.548H248.548H248.548H248.548H248.548H248.548H248.548H248.548H248.548H248.548H248.548H248.548H248.548H248.548H248.548H248.548H248.548H248.548H248.548H248.548H248.548H248.548H248.548H248.548H248.548H248.548H248.548H248.548H248.548H248.548H248.548H248.548H248.548H248.548H248.548H248.548H248.548H248.548H248.548H248.548H248.548H248.548H248.548H248.548H248.548H248.548H248.548H248.548H248.548H248.548H248.548H248.548H248.548H248.548H248.548H248.548H248.548H248.548H248.548H248.548H248.548H248.548H248.548H248.548H248.548H248.548H248.548H248.548H248.548H248.548H248.548H248.548H248.548H248.548H248.548H248.548H248.548H248.548H248.548H248.548H248.548H248.548H248.548H248.548H248.548H248.548H248.548H248.548H248.548H248.548H248.548H248.548H248.548H248.548H248.548H248.548H248.548H248.548H248.548H248.548H248.548H248.548H248.548H248.548H248.548H248.548H248.548H248.548H248.548H248.548H248.548H248.548H248.548H248.548H248.548H248.548H248.548H248.548H248.548H248.548H248.548H248.548H248.548H248.548H248.548H248.548H248.548H248.548H248.548H248.548H248.548H248.548H248.548H248.548H248.548H248.548H248.548H248.548H248.548H248.548H248.548H248.548H248.548H248.548H248.548H248.548H248.548H248.548H248.548H248.548H248.548H248.548H248.548H248.548H248.548H248.548H248.548H248.548H248.548H248.548H248.548H248.548H248.548H248.548H248.548H248.548H248.548H248.548H248.548H248.548H248.548H248.548H248.548H248.548H248.548H248.548H248.548H248.548H248.548H248.548H248.548H248.548H248.548H248.548H248.548H248.548H248.548H248.548H248.548H248.548H248.548H248.548H248.548H248.548H248.548H248.548H248.548H248.548H248.548H248.548H248.548H248.548H248.548H248.548H248.548H248.548H248.548H248.548H248.548H248.548H248.548H248.548H248.548H248.548H248.549H248.549H248.549H248.549H248.549H248.549H248.549H248.549H248.549H248.549H248.549H248.549H248.549H248.549H248.549H248.549H248.549H248.549H248.549H248.549H248.549H248.549H248.549H248.549H248.549H248.549H248.549H248.549H248.549H248.549H248.549H248.549H248.549H248.549H248.549H248.549H248.549H248.549H248.549H248.549H248.549H248.549H248.549H248.549H248.549H248.549H248.549H248.549H248.549H248.549H248.549H248.549H248.549H248.549H248.549H248.549H248.549H248.549H248.549H248.549H248.549H248.549H248.549H248.549H248.549H248.549H248.549H248.549H248.549H248.549H248.549H248.549H248.549H248.549H248.549H248.549H248.549H248.549H248.549H248.549H248.549H248.549H248.549H248.549H248.549H248.549H248.549H248.549H248.549H248.549H248.549H248.549H248.549H248.549H248.549H248.549H248.549H248.549H248.549H248.549H248.549H248.549H248.549H248.549H248.549H248.549H248.549H248.549H248.549H248.549H248.549H248.549H248.549H248.549H248.549H248.549H248.549H248.549H248.549H248.549H248.549H248.549H248.549H248.549H248.549H248.549H248.549C248.684 143.291 248.796 143.183 248.798 143.046C248.801 142.909 248.692 142.794 248.554 142.792C248.554 142.792 248.554 142.792 248.554 142.792L208.928 142.041L208.923 142.191L208.925 142.041L208.926 142.041C208.787 142.037 208.674 142.15 208.671 142.285ZM208.821 142.288C208.82 142.343 208.864 142.389 208.919 142.39L208.821 142.288Z" fill="#161D3B" stroke="#161D3B" stroke-width="0.3"/>
<path d="M235.345 140.891L235.389 141.034C235.519 140.995 235.595 140.857 235.555 140.724L235.555 140.724C234.113 135.925 232.123 131.285 229.642 126.932L229.642 126.932C229.396 126.5 229.069 125.986 228.654 125.585C228.238 125.182 227.718 124.88 227.09 124.9L227.09 124.901C226.952 124.905 226.845 125.021 226.849 125.159L226.849 125.159C226.853 125.291 226.965 125.406 227.107 125.399M235.345 140.891L235.39 141.034C235.362 141.042 235.336 141.045 235.316 141.045C235.211 141.045 235.111 140.978 235.078 140.867M235.345 140.891C235.336 140.894 235.326 140.895 235.316 140.895C235.274 140.895 235.234 140.868 235.221 140.824M235.345 140.891C235.398 140.875 235.428 140.82 235.412 140.767C233.973 135.979 231.987 131.349 229.511 127.006C229.023 126.148 228.241 125.013 227.095 125.05L235.221 140.824M235.078 140.867C235.077 140.867 235.077 140.867 235.077 140.867L235.221 140.824M235.078 140.867C235.078 140.867 235.078 140.867 235.078 140.867L235.221 140.824M235.078 140.867C233.646 136.105 231.671 131.499 229.208 127.179M229.208 127.179L229.339 127.104L229.208 127.179ZM229.208 127.179C228.982 126.782 228.696 126.332 228.347 125.982C227.998 125.633 227.6 125.398 227.15 125.398C227.145 125.398 227.139 125.399 227.131 125.399L227.13 125.399C227.123 125.399 227.115 125.399 227.107 125.399M227.107 125.399C227.109 125.399 227.111 125.399 227.113 125.399L227.102 125.249M227.107 125.399C227.105 125.399 227.103 125.399 227.102 125.399V125.249M227.102 125.249C227.048 125.253 227.001 125.209 226.999 125.154L227.102 125.249Z" fill="#161D3B" stroke="#161D3B" stroke-width="0.3"/>
<path d="M217.244 69.2844C215.328 70.2203 214.16 72.1439 214.068 74.1719L218.441 72.4731L217.244 69.2844Z" fill="white"/>
<path d="M214.128 74.3336L214.128 74.3337L214.131 74.3325L218.505 72.6347L218.505 72.6346C218.594 72.5997 218.638 72.5002 218.605 72.4104L218.605 72.4101L217.407 69.2214L217.407 69.2211C217.39 69.1755 217.354 69.1396 217.31 69.1209L217.31 69.1208L217.308 69.1201C217.263 69.1028 217.212 69.1044 217.168 69.1253L217.168 69.1253L217.167 69.1257C215.246 70.0649 213.992 71.9944 213.893 74.1617L213.893 74.1618C213.891 74.221 213.918 74.2768 213.966 74.3113L213.966 74.3113L213.967 74.3121C213.995 74.332 214.03 74.3445 214.068 74.3445C214.091 74.3445 214.113 74.3388 214.128 74.3336ZM217.149 69.5266L218.218 72.3715L214.261 73.9076C214.435 72.042 215.519 70.3956 217.149 69.5266ZM213.968 74.1651C213.967 74.1989 213.982 74.2307 214.01 74.2506L217.2 69.1931C215.304 70.12 214.066 72.0247 213.968 74.1651Z" fill="#161D3B" stroke="#161D3B" stroke-width="0.15"/>
<path d="M218.377 72.4571L214.069 74.1728C215.481 75.4946 217.517 76.0436 219.458 75.5165L219.957 75.3693L218.377 72.4571Z" fill="white"/>
<path d="M213.971 74.1516L213.897 74.1377C213.886 74.1971 213.906 74.2563 213.949 74.2972L213.949 74.2972L213.95 74.2979C215.049 75.3267 216.509 75.8836 217.986 75.8836C218.494 75.8836 219.005 75.8181 219.504 75.682L219.504 75.682L219.506 75.6816L220.006 75.5336C220.057 75.5192 220.098 75.482 220.118 75.4335C220.138 75.3851 220.136 75.3294 220.11 75.2832C220.11 75.2831 220.11 75.283 220.11 75.2829L218.531 72.3713L218.531 72.3713L218.531 72.3708C218.488 72.2935 218.395 72.2613 218.314 72.2922L218.314 72.2922L218.313 72.2926L214.005 74.0081C213.949 74.0296 213.908 74.0791 213.897 74.1379L213.971 74.1516ZM213.971 74.1516C213.977 74.1178 214 74.0899 214.032 74.078L219.485 75.6097C218.992 75.7439 218.488 75.8086 217.986 75.8086C216.527 75.8086 215.086 75.2586 214.001 74.2431C213.976 74.2192 213.965 74.1854 213.971 74.1516ZM218.298 72.6744L219.701 75.2606L219.41 75.3465C217.67 75.8182 215.773 75.3904 214.396 74.2273L218.298 72.6744Z" fill="#161D3B" stroke="#161D3B" stroke-width="0.15"/>
<path d="M241.305 76.5112C241.305 76.5112 235.255 74.2077 232.535 67.9576C228.92 59.6506 220.784 60.8401 218.241 65.3278C215.624 69.9468 217.689 76.5281 226.155 79.7248C234.621 82.9215 241.206 78.1016 241.206 78.1016L246.425 82.6211L245.31 78.394L247.504 74.9129L241.305 76.5112Z" fill="white"/>
<path d="M218.328 65.3787C219.573 63.1816 222.211 61.8001 224.894 61.9413C228.09 62.1084 230.842 64.3174 232.444 67.9994C235.149 74.2158 241.209 76.5829 241.27 76.6058M218.328 65.3787C217.144 67.4663 216.953 69.8892 217.789 72.1987C218.941 75.3824 221.924 78.0231 226.19 79.6334M218.328 65.3787L218.393 65.4156C217.221 67.4837 217.031 69.8837 217.859 72.1732C219.001 75.3298 221.964 77.9579 226.217 79.5632L226.19 79.6334M218.328 65.3787L236.798 79.9494M226.19 79.6334C230.534 81.2735 234.368 80.7493 236.819 80.0213M226.19 79.6334L226.217 79.5632C230.541 81.196 234.358 80.6742 236.798 79.9494M236.819 80.0213C239.479 79.2306 241.131 78.0361 241.147 78.0241M236.819 80.0213L236.798 79.9494M236.819 80.0213L236.798 79.9494C236.798 79.9494 236.798 79.9494 236.798 79.9494M241.147 78.0241C241.185 77.9963 241.236 77.9983 241.271 78.0291M241.147 78.0241L241.102 77.9639C241.168 77.9152 241.259 77.9184 241.32 77.9725L241.32 77.9724L241.271 78.0291M241.147 78.0241L245.163 78.3032M241.271 78.0291L246.147 82.2497L246.113 82.1212M241.271 78.0291L241.321 77.9728L246.113 82.1212M246.113 82.1212L246.213 82.2082L245.214 78.421C245.207 78.3951 245.211 78.3663 245.226 78.3434M246.113 82.1212L245.142 78.4407C245.142 78.4406 245.142 78.4405 245.142 78.4404C245.129 78.3942 245.137 78.3437 245.163 78.3032M245.226 78.3434L247.228 75.1666L247.122 75.1939M245.226 78.3434L245.163 78.3034L245.163 78.3032M245.226 78.3434L245.163 78.3028M247.122 75.1939L247.181 75.1014L241.33 76.6098C241.31 76.6148 241.289 76.6138 241.27 76.6058M247.122 75.1939L245.163 78.3028M247.122 75.1939L241.349 76.6824L241.349 76.6825C241.315 76.691 241.278 76.6897 241.243 76.6756M241.27 76.6058L241.244 76.676C241.243 76.6759 241.243 76.6758 241.243 76.6756M241.27 76.6058L241.242 76.6751C241.242 76.6753 241.242 76.6754 241.243 76.6756M245.163 78.3028L241.243 76.6756M245.163 78.3028L245.163 78.3032M246.517 82.7717L246.517 82.7717L246.519 82.7708C246.582 82.7298 246.614 82.6533 246.594 82.5784L246.594 82.5782L245.498 78.4254L247.651 75.0083C247.651 75.0082 247.651 75.0081 247.651 75.0079C247.69 74.9477 247.687 74.8694 247.645 74.8119C247.603 74.7544 247.53 74.7284 247.461 74.7458L247.461 74.7459L241.317 76.33C240.726 76.0876 235.221 73.6945 232.695 67.89L232.627 67.9199L232.695 67.8899C231.054 64.118 228.218 61.8414 224.909 61.6675C222.082 61.5179 219.406 62.9201 218.089 65.2432C216.866 67.4022 216.668 69.9066 217.531 72.2918C218.713 75.5583 221.759 78.2534 226.094 79.8896C230.512 81.5579 234.412 81.0234 236.905 80.2812C239.209 79.5955 240.772 78.6085 241.194 78.3244L246.311 82.7539C246.344 82.7839 246.385 82.7977 246.425 82.7977C246.457 82.7977 246.489 82.7889 246.517 82.7717Z" fill="#161D3B" stroke="#161D3B" stroke-width="0.15"/>
<path d="M226.516 84.4031C226.612 84.4031 226.69 84.3246 226.69 84.2287V79.921C226.69 79.825 226.612 79.7465 226.516 79.7465C226.419 79.7465 226.341 79.825 226.341 79.921V84.2287C226.341 84.3246 226.419 84.4031 226.516 84.4031Z" fill="#161D3B" stroke="#161D3B" stroke-width="0.15"/>
<path d="M230.488 85.2313C230.585 85.2313 230.663 85.1528 230.663 85.0568V80.8178C230.663 80.7203 230.585 80.6433 230.488 80.6433C230.392 80.6433 230.314 80.7203 230.314 80.8178V85.0568C230.314 85.1528 230.392 85.2313 230.488 85.2313Z" fill="#161D3B" stroke="#161D3B" stroke-width="0.15"/>
<path d="M227.378 69.8423C227.378 69.8423 232.817 66.0637 242.112 58.9175C242.264 58.8001 242.3 59.0497 242.3 59.0497C242.3 59.0497 243.367 64.5261 237.979 67.8302C237.979 67.8302 240.592 66.6416 243.9 65.1656C243.9 65.1656 244.38 69.7488 239.312 71.5609C239.312 71.5609 240.973 71.6107 243.1 71.541C243.1 71.541 239.295 77.2839 230.511 74.9565L227.378 69.8423Z" fill="white"/>
<path d="M240.163 71.403C240.852 71.4096 241.904 71.4084 243.095 71.369L243.098 71.444L243.094 71.369C243.168 71.3655 243.223 71.4048 243.253 71.4576L243.254 71.4583L243.254 71.4583C243.285 71.5154 243.283 71.5852 243.247 71.6396M240.163 71.403L239.216 71.5792C239.223 71.626 239.263 71.6618 239.311 71.6628L239.306 71.7376C239.307 71.7376 239.308 71.7377 239.309 71.7378C239.387 71.7405 240.849 71.78 242.741 71.7284C242.359 72.198 241.46 73.1667 240.007 73.9764L240.007 73.9764C238.17 75.0002 235.037 75.977 230.557 74.7909L230.557 74.7909C230.464 74.7667 230.368 74.8203 230.343 74.9149M240.163 71.403C242.282 70.412 243.239 68.9011 243.671 67.7474L243.671 67.7474C244.193 66.3538 244.08 65.203 244.075 65.1491L244.075 65.1491C244.069 65.0948 244.037 65.0446 243.989 65.0165L243.988 65.0164C243.939 64.988 243.881 64.9871 243.832 65.0071L243.832 65.0071L243.83 65.008C242.092 65.7839 240.536 66.485 239.456 66.9728L240.163 71.403ZM243.247 71.6396C243.203 71.7061 242.246 73.1252 240.186 74.2764C238.904 74.993 237.018 75.6844 234.515 75.6844C233.309 75.6844 231.96 75.5233 230.467 75.1279C230.374 75.1034 230.319 75.0077 230.343 74.9149M243.247 71.6396C243.247 71.6396 243.247 71.6396 243.247 71.6396L243.184 71.5981L243.247 71.6395C243.247 71.6395 243.247 71.6395 243.247 71.6396ZM230.343 74.9149C230.343 74.9148 230.343 74.9147 230.344 74.9146L230.416 74.934L230.343 74.9151C230.343 74.915 230.343 74.9149 230.343 74.9149ZM242.252 58.8015C242.208 58.7836 242.137 58.7756 242.052 58.8413L242.252 58.8015ZM243.951 65.0814C243.923 65.0655 243.89 65.0645 243.861 65.0765L244 65.157C243.997 65.1262 243.979 65.0974 243.951 65.0814Z" fill="#161D3B" stroke="#161D3B" stroke-width="0.15"/>
<path d="M218.862 69.1578C218.862 70.8655 220.247 72.25 221.956 72.25C223.665 72.25 225.051 70.8655 225.051 69.1578C225.051 67.45 223.665 66.0655 221.956 66.0655C220.247 66.0655 218.862 67.45 218.862 69.1578Z" fill="#161D3B"/>
<path d="M219.585 70.069C219.585 70.6737 220.075 71.1641 220.68 71.1641C221.285 71.1641 221.775 70.6737 221.775 70.069C221.775 69.4653 221.285 68.9749 220.68 68.9749C220.075 68.9749 219.585 69.4653 219.585 70.069Z" fill="white"/>
<path d="M90.3788 50.1883C104.225 50.1883 115.446 39.0211 115.446 25.2488C115.446 11.4782 104.225 0.310955 90.3788 0.310955C76.5328 0.310955 65.3117 11.4782 65.3117 25.2488C65.3117 39.0211 76.5328 50.1883 90.3788 50.1883Z" fill="#F3F3F3" stroke="#232529" stroke-width="0.623338"/>
<mask id="mask0_2_227296" style="mask-type:luminance" maskUnits="userSpaceOnUse" x="65" y="1" width="50" height="49">
<path d="M114.243 25.122C114.243 38.444 103.389 49.2422 90.0012 49.2422C76.6129 49.2422 65.7578 38.444 65.7578 25.122C65.7578 11.8019 76.6129 1.0037 90.0012 1.0037C103.389 1.0037 114.243 11.8019 114.243 25.122Z" fill="white"/>
</mask>
<g mask="url(#mask0_2_227296)">
<path d="M66.6237 59.1289H114.894L111.963 43.7226C110.929 40.1794 108.043 37.4643 104.428 36.6363L96.6272 34.8495C96.5419 34.8286 96.4813 34.7529 96.4813 34.6638V33.3851H85.037V34.6638C85.037 34.7529 84.9744 34.8286 84.8892 34.8495L77.0904 36.6363C73.4714 37.4643 70.5838 40.1832 69.5511 43.7321L66.6237 59.1289ZM115.122 59.5078H66.3945C66.3376 59.5078 66.2846 59.4832 66.2486 59.4396C66.2126 59.396 66.1974 59.3392 66.2088 59.2823L69.1836 43.643C70.2579 39.9464 73.2535 37.127 77.0051 36.2668L84.658 34.5122V33.1956C84.658 33.0914 84.7414 33.0061 84.8475 33.0061H96.6708C96.775 33.0061 96.8602 33.0914 96.8602 33.1956V34.5122L104.513 36.2668C108.265 37.1251 111.258 39.9464 112.329 43.626C112.331 43.6317 112.333 43.6373 112.333 43.643L115.309 59.2823C115.319 59.3392 115.304 59.396 115.27 59.4396C115.232 59.4832 115.179 59.5078 115.122 59.5078Z" fill="#232529"/>
<path d="M84.833 33.8319C84.833 36.8179 87.4744 39.2588 90.7579 39.2588C94.0414 39.2588 96.6827 36.8179 96.6827 33.8319V23.6212H84.833V33.8319Z" fill="white" stroke="#232529" stroke-width="0.271495"/>
<path d="M100.565 17.4141C100.141 17.3099 99.7088 17.3496 99.3071 17.5031C98.9679 12.1106 95.2713 8.45567 90.7599 8.45567C86.2466 8.45567 82.5518 12.1106 82.2107 17.5031C81.8109 17.3496 81.3789 17.3099 80.9526 17.4141C79.6869 17.7286 78.9612 19.1856 79.3307 20.6711C79.7021 22.1585 81.0303 23.1078 82.296 22.7952C82.5006 22.744 82.6901 22.6606 82.8625 22.5564C84.168 26.5373 87.2129 29.5859 90.7599 29.5859C94.3069 29.5859 97.3498 26.5373 98.6553 22.5564C98.8296 22.6606 99.0172 22.744 99.2218 22.7952C100.488 23.1078 101.816 22.1585 102.187 20.6711C102.559 19.1856 101.833 17.7286 100.565 17.4141Z" fill="white"/>
<path d="M82.8621 22.365C82.8849 22.365 82.9076 22.3688 82.9284 22.3764C82.9815 22.3972 83.0251 22.4408 83.0421 22.4957C84.395 26.6206 87.4967 29.3945 90.7595 29.3945C94.0222 29.3945 97.122 26.6206 98.4749 22.4957C98.4938 22.4408 98.5355 22.3972 98.5905 22.3764C98.6435 22.3574 98.7041 22.3631 98.7534 22.3915C98.9201 22.4938 99.0926 22.5658 99.2669 22.6094C100.43 22.8955 101.658 22.0069 102.003 20.6237C102.189 19.8829 102.088 19.1155 101.73 18.5186C101.446 18.0468 101.016 17.719 100.519 17.5959C100.15 17.5049 99.7538 17.5334 99.3749 17.6774C99.318 17.6982 99.2555 17.6925 99.2044 17.6603C99.1532 17.6262 99.121 17.5712 99.1172 17.5125C98.7932 12.3739 95.2784 8.64317 90.7595 8.64317C86.2386 8.64317 82.7238 12.3739 82.3998 17.5125C82.396 17.5712 82.3638 17.6262 82.3126 17.6603C82.2634 17.6925 82.1989 17.6982 82.144 17.6774C81.765 17.5334 81.3671 17.5049 80.9977 17.5959C80.5031 17.719 80.0731 18.0468 79.7888 18.5186C79.4288 19.1155 79.3303 19.8829 79.5141 20.6237C79.8608 22.0069 81.0886 22.8955 82.2501 22.6094C82.4244 22.5658 82.5969 22.4938 82.7636 22.3915C82.7939 22.3744 82.828 22.365 82.8621 22.365ZM90.7595 29.7734C87.3887 29.7734 84.196 26.9919 82.7541 22.8273C82.6196 22.8936 82.4813 22.9429 82.3411 22.977C80.9768 23.3161 79.5425 22.3005 79.1465 20.7165C78.9381 19.8771 79.0537 19.0056 79.4629 18.3235C79.8002 17.7645 80.3137 17.3761 80.9067 17.2283C81.2743 17.1373 81.6608 17.1449 82.0398 17.2453C82.4699 12.0272 86.1059 8.26422 90.7595 8.26422C95.413 8.26422 99.0471 12.0272 99.4791 17.2453C99.8562 17.1449 100.243 17.1373 100.61 17.2283C101.205 17.3761 101.717 17.7645 102.054 18.3235C102.465 19.0056 102.581 19.8771 102.37 20.7165C101.974 22.3005 100.54 23.3142 99.1759 22.977C99.0357 22.9429 98.8974 22.8936 98.7629 22.8273C97.3229 26.9919 94.1283 29.7734 90.7595 29.7734Z" fill="#232529"/>
<path d="M90.7584 29.7734C87.3308 29.7734 84.0851 26.8953 82.6811 22.6132C82.6489 22.5147 82.7038 22.4066 82.8024 22.3744C82.9009 22.3422 83.0089 22.3953 83.0411 22.4957C84.394 26.6206 87.4957 29.3945 90.7584 29.3945C94.0212 29.3945 97.121 26.6206 98.4739 22.4957C98.5061 22.3953 98.6141 22.3422 98.7126 22.3744C98.813 22.4066 98.8661 22.5147 98.8339 22.6132C97.4299 26.8953 94.1842 29.7734 90.7584 29.7734Z" fill="#232529"/>
<path d="M93.6536 4.31876C86.3266 3.09475 77.8097 4.61433 81.4116 16.0984L82.3476 18.8534L83.8426 19.8633C83.8426 19.8633 83.422 12.2919 85.8056 11.8978C88.0603 11.5245 88.2043 13.0138 90.91 12.9437C93.6157 13.0138 93.7597 11.5245 96.0145 11.8978C98.3981 12.2919 97.9775 19.8633 97.9775 19.8633L99.4743 18.8534L100.408 16.0984C102.79 7.17414 98.9741 3.65749 93.6536 4.31876Z" fill="white"/>
<path d="M83.8423 20.0547C83.8063 20.0547 83.7683 20.0433 83.7361 20.0225L82.2412 19.0126C82.2071 18.9898 82.1806 18.9557 82.1673 18.9159L81.2313 16.161C79.8746 11.8352 80.121 8.57441 81.957 6.46176C84.784 3.21416 90.489 3.60444 93.659 4.12929C96.2188 3.81666 98.3598 4.48742 99.6938 6.01838C101.498 8.08745 101.808 11.5908 100.592 16.1496L99.654 18.9159C99.6407 18.9557 99.6142 18.9898 99.5801 19.0126L98.0832 20.0225C98.0245 20.0623 97.9468 20.0642 97.8843 20.0301C97.8217 19.9941 97.7838 19.9259 97.7895 19.8539C97.9032 17.7961 97.8009 12.3866 95.9838 12.0854C94.9 11.9073 94.3354 12.1782 93.6855 12.4927C93.028 12.8111 92.2815 13.1711 90.9059 13.1351C89.5341 13.1711 88.7913 12.8111 88.1358 12.4927C87.484 12.1782 86.9212 11.9073 85.8374 12.0854C84.0184 12.3866 83.918 17.7961 84.0317 19.8539C84.0355 19.9259 83.9995 19.9941 83.937 20.0301C83.9067 20.0452 83.8745 20.0547 83.8423 20.0547Z" fill="#232529"/>
</g>
<path d="M36.9313 132.232C57.1882 132.232 73.6067 115.894 73.6067 95.7425C73.6067 75.5935 57.1882 59.2553 36.9313 59.2553C16.6745 59.2553 0.25596 75.5935 0.25596 95.7425C0.25596 115.894 16.6745 132.232 36.9313 132.232Z" fill="#F3F3F3" stroke="#232529" stroke-width="0.51192"/>
<mask id="mask1_2_227296" style="mask-type:luminance" maskUnits="userSpaceOnUse" x="2" y="61" width="70" height="69">
<path d="M71.5047 95.3857C71.5047 114.198 56.1779 129.446 37.2757 129.446C18.3709 129.446 3.04413 114.198 3.04413 95.3857C3.04413 76.5758 18.3709 61.3279 37.2757 61.3279C56.1779 61.3279 71.5047 76.5758 71.5047 95.3857Z" fill="white" stroke="white" stroke-width="0.525023"/>
</mask>
<g mask="url(#mask1_2_227296)">
<path d="M58.5086 132.184H16.0427C15.9716 132.184 15.9031 132.155 15.853 132.102C15.803 132.049 15.7766 131.978 15.7819 131.907L17.8943 89.8993C18.558 76.6746 27.0733 66.3156 37.277 66.3156C47.4806 66.3156 55.9959 76.6746 56.6597 89.8993L58.772 131.907C58.7773 131.978 58.751 132.049 58.7009 132.102C58.6509 132.155 58.5824 132.184 58.5086 132.184Z" fill="#232529"/>
<path d="M56.4585 111.807L37.2763 107.412L18.0941 111.807C18.0941 111.807 18.0941 111.807 18.0941 111.807C12.9746 112.981 8.89613 116.821 7.43301 121.839L3.29698 143.592H71.2557L67.117 121.839C65.6566 116.821 61.5781 112.981 56.4586 111.807C56.4586 111.807 56.4586 111.807 56.4585 111.807Z" fill="#F3F3F3" stroke="#232529" stroke-width="0.262084"/>
<path d="M29.1232 110.838C29.1232 115.335 32.7729 118.982 37.2757 118.982C41.7785 118.982 45.4282 115.335 45.4282 110.838V95.5763H29.1232V110.838Z" fill="white" stroke="#232529" stroke-width="0.262084"/>
<path d="M51.1522 84.7485C50.5491 84.601 49.938 84.6563 49.3718 84.8723C48.8898 77.2472 43.6615 72.0743 37.277 72.0743C30.8924 72.0743 25.6642 77.2472 25.1822 84.8723C24.6159 84.6563 24.0049 84.601 23.4017 84.7485C21.6107 85.1936 20.5834 87.2559 21.1076 89.3578C21.6344 91.4596 23.5123 92.8055 25.3034 92.3604C25.5931 92.2893 25.8591 92.1734 26.1041 92.0232C27.9504 97.6571 32.2568 101.969 37.277 101.969C42.2945 101.969 46.6009 97.6571 48.4472 92.0232C48.6948 92.1734 48.9608 92.2893 49.2479 92.3604C51.0416 92.8055 52.9196 91.4596 53.4437 89.3578C53.9705 87.2559 52.9433 85.1936 51.1522 84.7485Z" fill="white"/>
<path d="M26.1028 91.766C26.1344 91.766 26.1661 91.7713 26.195 91.7818C26.2714 91.8108 26.3294 91.8713 26.3531 91.9477C28.2679 97.787 32.6585 101.712 37.2757 101.712C41.8929 101.712 46.2836 97.787 48.1958 91.9477C48.2221 91.8713 48.2801 91.8108 48.3565 91.7818C48.4302 91.7555 48.5145 91.7634 48.583 91.8055C48.82 91.9477 49.065 92.0504 49.3099 92.111C50.9587 92.5219 52.6997 91.2576 53.187 89.3007C53.4504 88.2498 53.3081 87.1646 52.7998 86.3191C52.3968 85.6501 51.7884 85.1839 51.0878 85.0101C50.561 84.881 50 84.9205 49.4627 85.126C49.3863 85.155 49.2968 85.147 49.2257 85.0996C49.1572 85.0549 49.1124 84.9811 49.1071 84.8969C48.6488 77.6221 43.6708 72.3438 37.2757 72.3438C30.878 72.3438 25.9027 77.6221 25.4444 84.8969C25.4391 84.9785 25.3943 85.0549 25.3232 85.0996C25.2547 85.147 25.1652 85.155 25.0888 85.126C24.5489 84.9205 23.9878 84.881 23.4637 85.0101C22.7631 85.1839 22.1546 85.6501 21.7516 86.3191C21.2433 87.1646 21.1011 88.2498 21.3619 89.3007C21.8518 91.2576 23.5927 92.5193 25.2389 92.111C25.4865 92.0504 25.7315 91.9477 25.9685 91.8055C26.008 91.7792 26.0554 91.766 26.1028 91.766ZM37.2757 102.238C32.5084 102.238 27.9913 98.3006 25.9554 92.4113C25.7604 92.5035 25.5655 92.5746 25.3654 92.622C23.4347 93.1014 21.4119 91.6659 20.8509 89.4271C20.5559 88.2445 20.7192 87.0118 21.2986 86.0478C21.7754 85.2577 22.4997 84.7072 23.3373 84.4991C23.8588 84.3701 24.4066 84.3806 24.9439 84.5255C25.5497 77.1401 30.691 71.817 37.2757 71.817C43.8578 71.817 48.9991 77.1401 49.6076 84.5255C50.1422 84.3806 50.6927 84.3701 51.2142 84.4991C52.0518 84.7072 52.7761 85.2577 53.2528 86.0478C53.8323 87.0118 53.9956 88.2445 53.6979 89.4271C53.1396 91.6659 51.1167 93.1014 49.1835 92.622C48.9859 92.5746 48.7884 92.5035 48.5961 92.4113C46.5602 98.3006 42.0404 102.238 37.2757 102.238Z" fill="#232529"/>
<path d="M24.9786 86.793C31.026 85.6604 37.3341 80.3005 41.1164 75.4699C41.8565 79.7579 45.673 84.7675 49.6712 86.5296C49.6712 86.5296 51.5755 69.4594 37.2762 70.0099C22.9768 70.5604 24.9786 86.793 24.9786 86.793Z" fill="#232529"/>
</g>
<path d="M119.283 94.4649C127.116 94.4649 133.465 88.1153 133.465 80.2826C133.465 72.4509 127.116 66.1013 119.283 66.1013C111.451 66.1013 105.102 72.4509 105.102 80.2826C105.102 88.1153 111.451 94.4649 119.283 94.4649Z" fill="#F3F3F3" stroke="#232529" stroke-width="0.56245"/>
<circle cx="130.935" cy="90.1326" r="2.81225" fill="#232529"/>
<path d="M124.354 84.5968L126.455 86.6965C126.553 86.7979 126.607 86.9338 126.606 87.0748C126.605 87.2158 126.548 87.3507 126.448 87.4504C126.349 87.5501 126.214 87.6067 126.073 87.6079C125.932 87.6092 125.796 87.555 125.695 87.457L123.594 85.3562C122.221 86.5324 120.446 87.1311 118.641 87.0268C116.836 86.9225 115.142 86.1232 113.914 84.7967C112.686 83.4701 112.019 81.7195 112.054 79.912C112.089 78.1046 112.822 76.3809 114.101 75.1026C115.379 73.8243 117.103 73.0908 118.91 73.056C120.717 73.0212 122.468 73.6878 123.795 74.916C125.121 76.1441 125.921 77.8383 126.025 79.6431C126.129 81.4478 125.53 83.2229 124.354 84.5957V84.5968ZM119.045 85.9629C120.614 85.9629 122.119 85.3396 123.228 84.2301C124.338 83.1205 124.961 81.6157 124.961 80.0467C124.961 78.4776 124.338 76.9728 123.228 75.8633C122.119 74.7538 120.614 74.1304 119.045 74.1304C117.476 74.1304 115.971 74.7538 114.861 75.8633C113.752 76.9728 113.128 78.4776 113.128 80.0467C113.128 81.6157 113.752 83.1205 114.861 84.2301C115.971 85.3396 117.476 85.9629 119.045 85.9629Z" fill="#232529"/>
</svg>
