<svg width="16" height="18" viewBox="0 0 16 18" fill="none" xmlns="http://www.w3.org/2000/svg">
<path d="M7.99933 17.1699C7.03138 16.3162 5.94165 15.6541 4.73012 15.1835C3.51858 14.7129 2.24721 14.4562 0.916016 14.4135V5.93594C2.2547 5.97333 3.53381 6.25218 4.75335 6.77248C5.97289 7.29279 7.05488 7.98937 7.99933 8.86221C8.94377 7.98937 10.0258 7.29279 11.2453 6.77248C12.4648 6.25218 13.744 5.97333 15.0826 5.93594V14.4135C13.7429 14.4562 12.4694 14.7129 11.2621 15.1835C10.0549 15.6541 8.96727 16.3162 7.99933 17.1699ZM7.99933 6.32053C7.16813 6.32053 6.4582 6.02619 5.86954 5.43753C5.28087 4.84885 4.98654 4.13892 4.98654 3.30773C4.98654 2.47654 5.28087 1.76661 5.86954 1.17794C6.4582 0.589261 7.16813 0.294922 7.99933 0.294922C8.83052 0.294922 9.54045 0.589261 10.1291 1.17794C10.7178 1.76661 11.0121 2.47654 11.0121 3.30773C11.0121 4.13892 10.7178 4.84885 10.1291 5.43753C9.54045 6.02619 8.83052 6.32053 7.99933 6.32053Z" fill="#232529"/>
</svg>
