<svg width="18" height="18" viewBox="0 0 18 18" fill="none" xmlns="http://www.w3.org/2000/svg">
<path d="M8.99945 0.456055C5.60945 0.456055 2.86133 3.20418 2.86133 6.59418C2.86133 9.98418 5.60945 12.7323 8.99945 12.7323C12.3895 12.7323 15.1376 9.98418 15.1376 6.59418C15.1376 3.20418 12.3895 0.456055 8.99945 0.456055ZM11.6963 6.16668L10.7601 7.07918C10.672 7.16543 10.6313 7.28918 10.6526 7.41043L10.8738 8.69855C10.9263 9.00418 10.6057 9.2373 10.3307 9.09293L9.17383 8.4848C9.06508 8.4273 8.93445 8.4273 8.8257 8.4848L7.66883 9.09293C7.39445 9.2373 7.07383 9.00418 7.1257 8.69855L7.34695 7.41043C7.36758 7.28918 7.32758 7.16543 7.23945 7.07918L6.3032 6.16668C6.08133 5.95043 6.20383 5.57293 6.5107 5.52855L7.80445 5.34043C7.92633 5.32293 8.03195 5.24605 8.08633 5.13605L8.66508 3.96418C8.80258 3.68605 9.19883 3.68605 9.33633 3.96418L9.91508 5.13605C9.96945 5.24668 10.0751 5.32293 10.197 5.34043L11.4907 5.52855C11.7957 5.57355 11.9182 5.95043 11.6963 6.16668Z" fill="#232529"/>
<path d="M15.0137 10.6621C13.9987 12.1577 12.44 13.2509 10.625 13.6677L13.4625 17.5434L14.475 14.4246L17.75 14.3996L15.0137 10.6621Z" fill="#232529"/>
<path d="M2.98625 10.6621L0.25 14.3996L3.525 14.4246L4.5375 17.5434L7.375 13.6677C5.56 13.2509 4.00062 12.1577 2.98625 10.6621Z" fill="#232529"/>
</svg>
