<svg width="16" height="16" viewBox="0 0 16 16" fill="none" xmlns="http://www.w3.org/2000/svg">
<path fill-rule="evenodd" clip-rule="evenodd" d="M1 3.72222C1 1.68039 1.02186 1 3.72222 1C6.42258 1 6.44444 1.68039 6.44444 3.72222C6.44444 5.76405 6.45306 6.44444 3.72222 6.44444C0.991388 6.44444 1 5.76405 1 3.72222Z" fill="#232529" stroke="#232529" stroke-width="1.5" stroke-linecap="round" stroke-linejoin="round"/>
<path fill-rule="evenodd" clip-rule="evenodd" d="M9.55469 3.72222C9.55469 1.68039 9.57655 1 12.2769 1C14.9773 1 14.9991 1.68039 14.9991 3.72222C14.9991 5.76405 15.0077 6.44444 12.2769 6.44444C9.54608 6.44444 9.55469 5.76405 9.55469 3.72222Z" fill="#232529" stroke="#232529" stroke-width="1.5" stroke-linecap="round" stroke-linejoin="round"/>
<path fill-rule="evenodd" clip-rule="evenodd" d="M1 12.2769C1 10.2351 1.02186 9.55469 3.72222 9.55469C6.42258 9.55469 6.44444 10.2351 6.44444 12.2769C6.44444 14.3187 6.45306 14.9991 3.72222 14.9991C0.991388 14.9991 1 14.3187 1 12.2769Z" fill="#232529" stroke="#232529" stroke-width="1.5" stroke-linecap="round" stroke-linejoin="round"/>
<path fill-rule="evenodd" clip-rule="evenodd" d="M9.55469 12.2769C9.55469 10.2351 9.57655 9.55469 12.2769 9.55469C14.9773 9.55469 14.9991 10.2351 14.9991 12.2769C14.9991 14.3187 15.0077 14.9991 12.2769 14.9991C9.54608 14.9991 9.55469 14.3187 9.55469 12.2769Z" fill="#232529" stroke="#232529" stroke-width="1.5" stroke-linecap="round" stroke-linejoin="round"/>
</svg>
