<svg width="18" height="18" viewBox="0 0 18 18" fill="none" xmlns="http://www.w3.org/2000/svg">
<path d="M9.08839 0.818359L16.91 5.46244C17.0442 5.56046 17.1523 5.68114 17.2344 5.82449C17.3171 5.96845 17.3584 6.12466 17.3584 6.29312V15.698C17.3584 16.1207 17.2169 16.4735 16.9339 16.7565C16.6503 17.0402 16.2971 17.182 15.8744 17.182H2.30237C1.87968 17.182 1.52683 17.0405 1.24381 16.7575C0.960175 16.4738 0.818359 16.1207 0.818359 15.698V6.29312C0.818359 6.12466 0.85971 5.96845 0.94241 5.82449C1.0245 5.68114 1.13262 5.56046 1.26678 5.46244L9.08839 0.818359Z" fill="#FFD600"/>
<path d="M9.08839 0.818359L16.91 5.46244C17.0442 5.56046 17.1523 5.68114 17.2344 5.82449C17.3171 5.96845 17.3584 6.12466 17.3584 6.29312V15.698C17.3584 16.1207 17.2169 16.4735 16.9339 16.7565C16.6503 17.0402 16.2971 17.182 15.8744 17.182H2.30237C1.87968 17.182 1.52683 17.0405 1.24381 16.7575C0.960175 16.4738 0.818359 16.1207 0.818359 15.698V6.29312C0.818359 6.12466 0.85971 5.96845 0.94241 5.82449C1.0245 5.68114 1.13262 5.56046 1.26678 5.46244L9.08839 0.818359ZM9.08839 10.4281L16.2558 6.15529L9.08839 1.88244L1.92103 6.15529L9.08839 10.4281Z" fill="#161D3B"/>
</svg>
