<svg width="20" height="20" viewBox="0 0 20 20" fill="none" xmlns="http://www.w3.org/2000/svg">
<mask id="mask0_2216_9091" style="mask-type:alpha" maskUnits="userSpaceOnUse" x="0" y="0" width="20" height="20">
<rect width="20" height="20" fill="#D9D9D9"/>
</mask>
<g mask="url(#mask0_2216_9091)">
<path d="M0 16V13.55C0 13.0542 0.127604 12.5984 0.382812 12.1828C0.638021 11.7672 0.977083 11.45 1.4 11.2312C2.30417 10.7792 3.22292 10.4401 4.15625 10.2141C5.08958 9.98802 6.0375 9.875 7 9.875C7.9625 9.875 8.91042 9.98802 9.84375 10.2141C10.7771 10.4401 11.6958 10.7792 12.6 11.2312C13.0229 11.45 13.362 11.7672 13.6172 12.1828C13.8724 12.5984 14 13.0542 14 13.55V16H0ZM15.75 16V13.375C15.75 12.7333 15.5714 12.1172 15.2141 11.5266C14.8568 10.9359 14.35 10.4292 13.6938 10.0063C14.4375 10.0938 15.1375 10.2432 15.7938 10.4547C16.45 10.6661 17.0625 10.925 17.6313 11.2312C18.1562 11.5229 18.5573 11.8474 18.8344 12.2047C19.1115 12.562 19.25 12.9521 19.25 13.375V16H15.75ZM7 9C6.0375 9 5.21354 8.65729 4.52813 7.97188C3.84271 7.28646 3.5 6.4625 3.5 5.5C3.5 4.5375 3.84271 3.71354 4.52813 3.02813C5.21354 2.34271 6.0375 2 7 2C7.9625 2 8.78646 2.34271 9.47188 3.02813C10.1573 3.71354 10.5 4.5375 10.5 5.5C10.5 6.4625 10.1573 7.28646 9.47188 7.97188C8.78646 8.65729 7.9625 9 7 9ZM15.75 5.5C15.75 6.4625 15.4073 7.28646 14.7219 7.97188C14.0365 8.65729 13.2125 9 12.25 9C12.0896 9 11.8854 8.98177 11.6375 8.94531C11.3896 8.90885 11.1854 8.86875 11.025 8.825C11.4188 8.35833 11.7214 7.84063 11.9328 7.27187C12.1443 6.70312 12.25 6.1125 12.25 5.5C12.25 4.8875 12.1443 4.29688 11.9328 3.72812C11.7214 3.15937 11.4188 2.64167 11.025 2.175C11.2292 2.10208 11.4333 2.05469 11.6375 2.03281C11.8417 2.01094 12.0458 2 12.25 2C13.2125 2 14.0365 2.34271 14.7219 3.02813C15.4073 3.71354 15.75 4.5375 15.75 5.5Z" fill="#232529"/>
</g>
</svg>
