<svg width="108" height="16" viewBox="0 0 108 16" fill="none" xmlns="http://www.w3.org/2000/svg">
<path d="M106.32 8.77149H98.9554V12.6698H107.349V15.3955H95.8594V0.234375H106.978V2.91894H98.9554V6.13836H106.32V8.77149Z" fill="black"/>
<path d="M87.4646 15.3955H80.5938V0.234375H87.9583C89.8166 0.261803 91.1332 0.800087 91.9081 1.84923C92.3744 2.4938 92.6075 3.26522 92.6075 4.1635C92.6075 5.08922 92.3744 5.83321 91.9081 6.3955C91.6475 6.71092 91.2635 6.99892 90.7561 7.25949C91.5309 7.54064 92.1138 7.98635 92.5046 8.59663C92.9024 9.20692 93.1012 9.94748 93.1012 10.8183C93.1012 11.7166 92.8749 12.5223 92.4224 13.2355C92.1344 13.7086 91.7744 14.1063 91.3424 14.4286C90.8555 14.7989 90.2795 15.0526 89.6143 15.1898C88.9561 15.3269 88.2395 15.3955 87.4646 15.3955ZM87.3926 8.72006H83.6178V12.7623H87.3412C88.0063 12.7623 88.5241 12.6732 88.8943 12.4949C89.5663 12.1658 89.9023 11.5349 89.9023 10.6023C89.9023 9.81377 89.5766 9.27206 88.9252 8.9772C88.5618 8.81263 88.0509 8.72692 87.3926 8.72006ZM88.9663 5.82978C89.3778 5.58293 89.5835 5.14064 89.5835 4.50293C89.5835 3.79665 89.3092 3.33036 88.7606 3.10408C88.2875 2.94637 87.6841 2.86751 86.9503 2.86751H83.6178V6.21036H87.3412C88.0063 6.21036 88.5481 6.0835 88.9663 5.82978Z" fill="black"/>
<path d="M74.4297 0.234375H77.5771V15.3955H74.4297V0.234375Z" fill="black"/>
<path d="M65.8942 9.45034H62.6234V15.3955H59.5273V0.234375H66.9639C68.0268 0.254946 68.8428 0.385232 69.412 0.625231C69.988 0.86523 70.4748 1.21837 70.8725 1.68466C71.2017 2.06865 71.4623 2.4938 71.6543 2.96008C71.8463 3.42636 71.9423 3.95779 71.9423 4.55436C71.9423 5.27436 71.7605 5.98407 71.3971 6.6835C71.0337 7.37607 70.4337 7.86635 69.5971 8.15435C70.2965 8.43549 70.7902 8.83663 71.0782 9.35777C71.3731 9.87206 71.5205 10.6606 71.5205 11.7235V12.7418C71.5205 13.4343 71.548 13.904 71.6028 14.1509C71.6851 14.5418 71.8771 14.8298 72.1788 15.0149V15.3955H68.692C68.596 15.0595 68.5274 14.7886 68.4862 14.5829C68.404 14.1578 68.3594 13.7223 68.3525 13.2766L68.332 11.8675C68.3182 10.9006 68.14 10.2561 67.7971 9.93377C67.4611 9.61149 66.8268 9.45034 65.8942 9.45034ZM67.8177 6.69378C68.4485 6.40578 68.764 5.83664 68.764 4.98636C68.764 4.06751 68.4588 3.45036 67.8485 3.13494C67.5057 2.95665 66.9914 2.86751 66.3057 2.86751H62.6234V6.94064H66.2131C66.9262 6.94064 67.4611 6.85835 67.8177 6.69378Z" fill="black"/>
<path d="M57.5937 0.234375V2.91894H53.0577V15.3955H49.8691V2.91894H45.3125V0.234375H57.5937Z" fill="black"/>
<path d="M38.8515 0.234375V2.91894H34.3155V15.3955H31.1269V2.91894H26.5703V0.234375H38.8515Z" fill="black"/>
<path d="M16.5234 0.234375H19.6914V12.6698H27.2V15.3955H16.5234V0.234375Z" fill="black"/>
<path d="M10.1768 12.2789H4.59163L3.54248 15.3955H0.230469L5.64077 0.234375H9.22021L14.5894 15.3955H11.1539L10.1768 12.2789ZM9.29222 9.66634L7.39964 3.70065L5.44534 9.66634H9.29222Z" fill="black"/>
</svg>
