<svg width="19" height="14" viewBox="0 0 19 14" fill="none" xmlns="http://www.w3.org/2000/svg">
<path d="M1 6.58317C0.585786 6.58317 0.25 6.91896 0.25 7.33317C0.25 7.74738 0.585786 8.08317 1 8.08317V6.58317ZM18 8.08317C18.4142 8.08317 18.75 7.74738 18.75 7.33317C18.75 6.91896 18.4142 6.58317 18 6.58317V8.08317ZM1 12.2503C0.585786 12.2503 0.25 12.5861 0.25 13.0003C0.25 13.4145 0.585786 13.7503 1 13.7503V12.2503ZM18 13.7503C18.4142 13.7503 18.75 13.4145 18.75 13.0003C18.75 12.5861 18.4142 12.2503 18 12.2503V13.7503ZM1 0.916992C0.585786 0.916992 0.25 1.25278 0.25 1.66699C0.25 2.08121 0.585786 2.41699 1 2.41699V0.916992ZM18 2.41699C18.4142 2.41699 18.75 2.08121 18.75 1.66699C18.75 1.25278 18.4142 0.916992 18 0.916992V2.41699ZM1 8.08317H18V6.58317H1V8.08317ZM1 13.7503H18V12.2503H1V13.7503ZM1 2.41699H18V0.916992H1V2.41699Z" fill="#07060B"/>
</svg>
