<svg width="19" height="18" viewBox="0 0 19 18" fill="none" xmlns="http://www.w3.org/2000/svg">
<path d="M9.5 0C4.52946 0 0.5 4.02944 0.5 9C0.5 13.9705 4.52946 18 9.5 18C14.4705 18 18.5 13.9705 18.5 9C18.5 4.02944 14.4705 0 9.5 0ZM9.5 12.8788C7.3578 12.8788 5.62124 11.1422 5.62124 9C5.62124 6.8578 7.3578 5.12124 9.5 5.12124C11.6422 5.12124 13.3788 6.8578 13.3788 9C13.3788 11.1422 11.6422 12.8788 9.5 12.8788Z" fill="#161D3B"/>
<path d="M9.49714 10.9474C10.5742 10.9474 11.4474 10.0742 11.4474 8.99714C11.4474 7.92004 10.5742 7.04688 9.49714 7.04688C8.42004 7.04688 7.54688 7.92004 7.54688 8.99714C7.54688 10.0742 8.42004 10.9474 9.49714 10.9474Z" fill="#161D3B"/>
</svg>
