<svg width="15" height="19" viewBox="0 0 15 19" fill="none" xmlns="http://www.w3.org/2000/svg">
<path fill-rule="evenodd" clip-rule="evenodd" d="M4.48601 17.5964L4.78031 15.6643L4.12472 15.6485H0.994141L3.16978 1.3903C3.17656 1.34712 3.19847 1.30704 3.23047 1.27853C3.26263 1.25002 3.30361 1.23438 3.34649 1.23438H8.62513C10.3777 1.23438 11.587 1.61122 12.2184 2.35514C12.5144 2.70413 12.7029 3.06892 12.7942 3.47021C12.8899 3.89138 12.8915 4.39449 12.7981 5.00824L12.7914 5.05288V5.44618L13.0874 5.61954C13.3366 5.75623 13.5347 5.91264 13.6867 6.0917C13.9399 6.39018 14.1036 6.76947 14.1728 7.21898C14.2444 7.68137 14.2208 8.23173 14.1036 8.85476C13.9686 9.57131 13.7502 10.1955 13.4553 10.7061C13.1842 11.1766 12.8386 11.567 12.4283 11.8694C12.0366 12.1568 11.5713 12.3749 11.0451 12.5146C10.5352 12.6518 9.95381 12.721 9.31619 12.721H8.9054C8.61173 12.721 8.32641 12.8303 8.10242 13.0263C7.87779 13.2264 7.7293 13.4998 7.68375 13.7988L7.65269 13.9728L7.13266 17.3784L7.10918 17.5034C7.10287 17.543 7.09215 17.5627 7.07639 17.576C7.06236 17.5883 7.04218 17.5964 7.02248 17.5964H4.48601Z" fill="#28356A"/>
<path fill-rule="evenodd" clip-rule="evenodd" d="M13.3668 5.10156C13.3512 5.20567 13.3331 5.31206 13.3129 5.42139C12.6168 9.11558 10.2351 10.3918 7.19343 10.3918H5.64469C5.27268 10.3918 4.95915 10.6709 4.90129 11.0502L3.88378 17.7212C3.8461 17.9703 4.03179 18.1946 4.27486 18.1946H7.02177C7.34696 18.1946 7.62329 17.9504 7.67452 17.6189L7.70148 17.4747L8.21867 14.0824L8.25193 13.8963C8.30253 13.5636 8.57949 13.3192 8.90469 13.3192H9.31548C11.9768 13.3192 14.0602 12.2025 14.6692 8.97073C14.9234 7.62073 14.7918 6.49344 14.1187 5.70064C13.915 5.46163 13.6624 5.26319 13.3668 5.10156Z" fill="#298FC2"/>
<path fill-rule="evenodd" clip-rule="evenodd" d="M12.6378 4.80121C12.5314 4.76911 12.4217 4.74011 12.3091 4.71388C12.1959 4.6883 12.0801 4.66565 11.9608 4.64578C11.5432 4.57604 11.0856 4.54297 10.5955 4.54297H6.45811C6.35613 4.54297 6.25934 4.56676 6.1728 4.60977C5.98191 4.70459 5.8402 4.8913 5.80583 5.11989L4.92561 10.8819L4.90039 11.0499C4.95824 10.6706 5.27177 10.3915 5.64379 10.3915H7.19252C10.2342 10.3915 12.6159 9.11468 13.312 5.42114C13.3328 5.31182 13.3503 5.20543 13.3659 5.10132C13.1898 5.0047 12.9991 4.9221 12.7937 4.85171C12.7429 4.83428 12.6906 4.8175 12.6378 4.80121Z" fill="#22284F"/>
<path fill-rule="evenodd" clip-rule="evenodd" d="M5.80686 5.11881C5.84122 4.89023 5.98293 4.70352 6.17383 4.60934C6.261 4.56617 6.35715 4.54238 6.45914 4.54238H10.5965C11.0866 4.54238 11.5442 4.57562 11.9618 4.64535C12.0811 4.66507 12.197 4.68787 12.3101 4.71345C12.4227 4.73952 12.5324 4.76869 12.6388 4.80062C12.6916 4.81691 12.7439 4.83386 12.7952 4.85064C13.0006 4.92102 13.1915 5.00428 13.3675 5.10024C13.5747 3.73508 13.3658 2.80559 12.6517 1.96391C11.8644 1.03719 10.4435 0.640625 8.62517 0.640625H3.34637C2.97499 0.640625 2.65815 0.919718 2.60077 1.29966L0.402111 15.7045C0.358762 15.9894 0.571409 16.2465 0.849472 16.2465H4.10837L5.80686 5.11881Z" fill="#28356A"/>
</svg>
