<svg width="24" height="24" viewBox="0 0 24 24" fill="none" xmlns="http://www.w3.org/2000/svg">
<path d="M12 24C18.6274 24 24 18.6274 24 12C24 5.37258 18.6274 0 12 0C5.37258 0 0 5.37258 0 12C0 18.6274 5.37258 24 12 24Z" fill="#FEDA2C"/>
<path d="M11.9995 21.2511C17.1085 21.2511 21.2501 17.1095 21.2501 12.0005C21.2501 6.8916 17.1085 2.75 11.9995 2.75C6.89063 2.75 2.74902 6.8916 2.74902 12.0005C2.74902 17.1095 6.89063 21.2511 11.9995 21.2511Z" fill="#FCAA17"/>
<path d="M12.0004 4.89062L14.1042 9.15336L18.8082 9.83694L15.4044 13.155L16.208 17.8401L12.0004 15.6281L7.7928 17.8401L8.59638 13.155L5.19238 9.83694L9.89659 9.15336L12.0004 4.89062Z" fill="#FEDA2C"/>
</svg>
