<svg width="20" height="17" viewBox="0 0 20 17" fill="none" xmlns="http://www.w3.org/2000/svg">
<path fill-rule="evenodd" clip-rule="evenodd" d="M1.63406 16.5606L1.63796 16.5621C1.69648 16.5802 14.6753 16.5908 14.6753 16.5908C15.4042 16.5908 16.0727 16.1194 16.4075 15.3691C17.009 14.0215 18.2315 11.284 19.1015 9.33607C19.4149 8.63474 19.3895 7.79464 19.0358 7.1197C18.6821 6.44476 18.0501 6.033 17.3692 6.033H15.6058V5.27888C15.6058 4.67859 15.4003 4.1032 15.0342 3.67938C14.6688 3.25481 14.1727 3.0165 13.6551 3.0165H10.4039C10.199 3.0165 10.0066 2.90489 9.88367 2.71485L8.71323 0.90495C8.34455 0.335586 7.76648 0 7.15266 0H1.95072C1.43313 0 0.936998 0.238304 0.571562 0.662876C0.205476 1.08669 0 1.66209 0 2.26238V14.3284C0 14.9287 0.205476 15.5041 0.571562 15.9279C0.86157 16.265 1.23416 16.4844 1.63406 16.5606Z" fill="#FFD600"/>
<path fill-rule="evenodd" clip-rule="evenodd" d="M1.63406 16.5606L1.63796 16.5621C1.69648 16.5802 14.6753 16.5908 14.6753 16.5908C15.4042 16.5908 16.0727 16.1194 16.4075 15.3691C17.009 14.0215 18.2315 11.284 19.1015 9.33607C19.4149 8.63474 19.3895 7.79464 19.0358 7.1197C18.6821 6.44476 18.0501 6.033 17.3692 6.033H15.6058V5.27888C15.6058 4.67859 15.4003 4.1032 15.0342 3.67938C14.6688 3.25481 14.1727 3.0165 13.6551 3.0165H10.4039C10.199 3.0165 10.0066 2.90489 9.88367 2.71485L8.71323 0.90495C8.34455 0.335586 7.76648 0 7.15266 0H1.95072C1.43313 0 0.936998 0.238304 0.571562 0.662876C0.205476 1.08669 0 1.66209 0 2.26238V14.3284C0 14.9287 0.205476 15.5041 0.571562 15.9279C0.86157 16.265 1.23416 16.4844 1.63406 16.5606ZM14.3053 6.033V5.27888C14.3053 5.07903 14.237 4.88673 14.1148 4.74571C13.9932 4.60394 13.8274 4.52475 13.6551 4.52475H10.4039C9.79004 4.52475 9.21197 4.18917 8.84328 3.6198L7.67285 1.8099C7.54995 1.61986 7.35748 1.50825 7.15266 1.50825H1.95072C1.77841 1.50825 1.6126 1.58743 1.491 1.72921C1.36876 1.87023 1.30048 2.06253 1.30048 2.26238V11.1965L3.76685 7.01714C4.13098 6.40102 4.73311 6.033 5.37685 6.033H14.3053Z" fill="#161D3B"/>
</svg>
