<svg width="144" height="138" viewBox="0 0 144 138" fill="none" xmlns="http://www.w3.org/2000/svg">
<path d="M81.81 43.8823C81.7853 43.8771 81.7619 43.8761 81.7395 43.8768C81.6251 43.6761 81.5112 43.4763 81.3971 43.2776C83.9478 43.5541 86.4234 44.2196 88.9105 44.8328C89.4262 44.9599 89.9435 45.0803 90.4612 45.1998C90.2647 45.4571 90.0675 45.7138 89.8665 45.967C88.526 45.4603 87.1411 45.1559 85.7426 44.8517C84.4213 44.5643 83.1341 44.1583 81.81 43.8823Z" fill="#FFD600"/>
<path d="M89.0439 46.9866C88.8418 47.2354 88.6395 47.4843 88.4385 47.7339C87.5277 47.5632 86.6441 47.2795 85.7207 47.1431C84.929 47.0262 84.1076 46.7134 83.3035 46.7708C83.1437 46.4524 82.9805 46.1359 82.8137 45.8216C83.7865 46.0649 84.7997 46.2098 85.7756 46.4278C86.8547 46.6688 87.9442 46.8694 89.0439 46.9866Z" fill="#FFD600"/>
<path d="M70.1607 32.2179C70.9589 33.1086 72.0702 33.674 73.0189 34.3909C74.1083 35.2146 75.2664 36.1633 76.1943 37.1737C76.3537 37.3473 76.6184 37.0958 76.4591 36.9215C75.6858 36.076 74.726 35.2638 73.8118 34.5665C72.6881 33.7089 71.3213 33.0595 70.3076 32.078C70.2138 31.987 70.073 32.1201 70.1607 32.2179ZM77.0992 36.396C75.5143 34.7468 73.4821 33.5091 71.5585 32.3034C71.4487 32.2344 71.3486 32.4 71.4534 32.4732C73.299 33.7607 75.2438 35.0435 76.8393 36.6434C77.0023 36.8069 77.2602 36.5634 77.0992 36.396ZM77.7044 36.0732C76.8284 35.2862 75.9716 34.5163 75.0118 33.8298C74.4385 33.4196 73.5484 32.5958 72.815 32.5719C72.7687 32.5704 72.7412 32.6403 72.7873 32.6628C74.5159 33.5039 76.0203 35.059 77.4274 36.3368C77.6088 36.5018 77.8881 36.2382 77.7044 36.0732ZM78.4 35.4317C77.9492 34.8624 77.2189 34.44 76.6275 34.0319C75.9023 33.5318 75.1518 33.0821 74.3808 32.6568C74.2514 32.5854 74.1328 32.7738 74.2596 32.8527C75.0054 33.3145 75.7545 33.7817 76.4561 34.3094C77.0196 34.7336 77.6837 35.1401 78.1474 35.6722C78.2968 35.8436 78.5374 35.6055 78.4 35.4317ZM78.8773 35.2039C78.3874 34.5422 77.5606 34.0585 76.9166 33.557C76.7147 33.3997 76.1457 32.7878 75.8519 32.8058C75.8316 32.807 75.8235 32.8269 75.8352 32.8429C76.586 33.8674 77.8527 34.4487 78.6394 35.4304C78.7735 35.5976 79.0003 35.3703 78.8773 35.2039ZM79.4168 34.6884C78.7404 34.1403 78.1222 33.5223 77.4273 32.9922C77.3252 32.9145 77.1864 33.085 77.2854 33.167C77.6768 33.4909 78.036 33.8493 78.4194 34.1819C78.7062 34.4307 78.943 34.7331 79.2513 34.9561C79.4192 35.0774 79.5702 34.8125 79.4168 34.6884ZM67.9593 30.4488C69.9712 29.0069 72.2271 28.0275 74.4824 27.0368C76.8907 25.9789 79.2051 24.6966 81.5139 23.4391C86.2098 20.8812 90.88 18.2842 95.6416 15.8486C97.3948 14.9517 99.1532 14.0657 100.913 13.1818C101.73 13.4335 102.565 13.641 103.391 13.7355C103.585 13.7577 103.64 13.4382 103.449 13.3978C102.835 13.2682 102.25 13.0387 101.666 12.8038C101.862 12.7054 102.058 12.6065 102.254 12.5082C102.714 12.627 103.172 12.7479 103.607 12.9015C103.829 12.9796 103.922 12.6446 103.713 12.5582C103.429 12.4419 103.141 12.3249 102.849 12.2095C105.242 11.0107 107.635 9.81439 110.023 8.60489C112.315 7.44361 114.573 6.2171 116.799 4.93192C118.831 3.75829 120.893 2.28353 123.168 1.61789C120.387 2.89776 116.981 5.80183 114.325 8.05223C111.109 10.7772 107.846 13.4545 104.558 16.0944C104.183 16.0754 103.758 16.1871 103.402 16.256C103.262 16.2832 103.299 16.4875 103.439 16.4728C103.649 16.4511 103.86 16.4335 104.071 16.4176C104.1 16.4155 104.129 16.4146 104.158 16.4132C103.981 16.5554 103.803 16.6972 103.625 16.8391C103.196 16.8988 102.765 16.9359 102.328 16.9052C102.172 16.8942 102.147 17.1355 102.304 17.1478C102.616 17.1719 102.925 17.1701 103.233 17.1525C103.08 17.2747 102.927 17.3974 102.774 17.5194C102.075 17.6038 101.375 17.6893 100.678 17.7907C100.565 17.8073 100.597 17.9734 100.708 17.9642C101.256 17.9187 101.81 17.8994 102.36 17.8499C102.206 17.9723 102.052 18.0963 101.898 18.2188C101.815 18.285 101.731 18.3511 101.648 18.4173C100.62 18.5099 99.5895 18.5475 98.5608 18.6333C98.4444 18.643 98.4781 18.816 98.5912 18.8102C99.4782 18.7642 100.377 18.7977 101.264 18.722C100.999 18.9326 100.734 19.1431 100.468 19.3539C99.3996 19.3442 98.3119 19.4878 97.2481 19.543C97.1436 19.5483 97.1502 19.7299 97.2545 19.7273C98.1885 19.7049 99.1459 19.7195 100.086 19.6577C99.8828 19.8191 99.6798 19.9803 99.4767 20.1416C98.1914 20.2409 96.9055 20.2897 95.6181 20.3504C95.4763 20.3571 95.5155 20.5734 95.6551 20.5673C96.8028 20.5183 97.9542 20.518 99.1008 20.4401C98.8656 20.6271 98.6301 20.8138 98.3949 21.0006C96.9178 21.0897 95.4503 21.2443 93.968 21.1699C93.8115 21.1621 93.7865 21.403 93.9437 21.4125C95.2881 21.4934 96.6335 21.4223 97.9761 21.333C97.6833 21.5655 97.3903 21.798 97.0973 22.0303C95.4486 22.059 93.775 21.9656 92.1387 22.1376C92.0241 22.1498 92.0576 22.3175 92.1685 22.3111C93.6691 22.2248 95.1703 22.3793 96.6735 22.3656C96.3837 22.5952 96.0936 22.8248 95.8035 23.0543C95.7916 23.049 95.7798 23.0439 95.7654 23.0427C94.8452 22.9599 93.8971 23.0354 92.9706 23.0117C92.0945 22.9892 91.2417 22.9966 90.3796 23.1738C90.2687 23.1965 90.2972 23.3664 90.4093 23.3473C92.0702 23.0647 93.774 23.372 95.4546 23.3299C95.2053 23.5267 94.9558 23.7229 94.7064 23.9195C92.7568 24.0473 90.7177 23.9186 88.7892 24.232C88.7438 24.2395 88.7461 24.3084 88.7919 24.3126C90.5677 24.4668 92.4573 24.4423 94.2523 24.2772C93.88 24.5702 93.5068 24.8625 93.134 25.1546C91.1482 25.2011 89.1687 25.3865 87.1793 25.4118C87.094 25.4129 87.0769 25.5378 87.1657 25.5465C88.9729 25.7255 90.8801 25.683 92.7018 25.4932C92.3543 25.7648 92.0062 26.0355 91.6583 26.3061C89.7719 26.4015 87.8808 26.4082 86.0002 26.5968C85.9474 26.6021 85.95 26.6918 86.0035 26.6906C87.7465 26.6525 89.4876 26.6911 91.2299 26.639C90.9412 26.8631 90.6521 27.0865 90.3629 27.3098C89.4833 27.3436 88.6027 27.3083 87.7225 27.3739C86.724 27.4484 85.7312 27.5574 84.7285 27.4951C84.6545 27.4904 84.6433 27.6009 84.7171 27.6097C85.738 27.7297 86.746 27.7031 87.7693 27.6476C88.4965 27.608 89.2245 27.6366 89.9511 27.627C89.5471 27.938 89.1427 28.2481 88.7376 28.5576C87.0767 28.6364 85.4058 28.7318 83.7515 28.7736C83.652 28.776 83.6308 28.9214 83.7359 28.9318C84.8311 29.041 85.969 28.8736 87.0692 28.8482C87.5028 28.8383 87.9363 28.8389 88.3698 28.8377C84.4037 31.8582 80.3756 34.7951 76.2149 37.5612C76.1689 37.5917 76.1324 37.627 76.1001 37.6641C73.5276 35.0631 69.9669 33.5019 67.8062 30.5257C67.8565 30.5088 67.9074 30.486 67.9593 30.4488Z" fill="#FFD600"/>
<path d="M92.4824 43.8449C90.8863 43.4408 89.2694 43.1216 87.6766 42.7047C86.5809 42.418 85.5074 42.0272 84.3943 41.8152C86.5577 40.1332 88.1309 37.7915 89.9885 35.8133C90.0952 35.6998 89.9441 35.5462 89.8239 35.6405C87.5138 37.4538 85.9991 40.1871 83.5107 41.8263C83.2332 42.009 83.4832 42.4676 83.7592 42.2807C83.8055 42.2494 83.8496 42.2157 83.8953 42.1838C83.936 42.2458 84.0009 42.2938 84.0919 42.3065C85.5312 42.5062 86.9266 43.0317 88.3482 43.3346C89.7051 43.6239 91.0734 43.8581 92.4429 44.0781C92.5774 44.0997 92.6117 43.8777 92.4824 43.8449ZM115.017 12.4473C117.464 10.381 119.352 7.78601 121.602 5.52064C121.856 5.26585 121.471 4.85904 121.217 5.11621C118.979 7.3837 117.177 10.0991 114.827 12.2487C114.696 12.3688 114.882 12.5606 115.017 12.4473ZM82.3858 42.4007C83.8683 41.2964 85.1766 39.8992 86.407 38.5496C88.1547 36.6326 89.9389 34.7476 91.7819 32.9214C95.3065 29.4292 99.1111 26.3044 102.819 23.0183C106.613 19.6557 110.206 16.0833 113.719 12.4299C116.909 9.11155 120.233 5.86065 123.304 2.42675C121.887 6.01464 120.175 9.48175 118.917 13.1309C117.485 17.2857 116.02 21.4305 114.708 25.6257C113.469 29.5876 112.187 33.5856 111.226 37.6254C110.762 39.5781 110.469 41.5291 110.216 43.5171C109.988 45.3027 109.964 47.1319 109.405 48.8554C107.617 48.0573 105.677 47.6687 103.767 47.2517C101.28 46.7088 98.8048 46.1025 96.3239 45.5303C93.6921 44.9234 91.0484 44.368 88.4302 43.7038C86.4301 43.1961 84.4269 42.6955 82.3858 42.4007Z" fill="#FFD600"/>
<path d="M88.2744 47.9416C88.0787 48.1861 87.8827 48.4305 87.6905 48.6781C87.683 48.6877 87.6768 48.6977 87.6696 48.7073C86.4168 48.5602 85.1278 48.2797 83.8946 47.9999C83.7896 47.7707 83.6824 47.5424 83.5725 47.315C84.3777 47.3465 85.254 47.5642 86.0398 47.652C86.7855 47.7354 87.5273 47.8748 88.2744 47.9416Z" fill="#FFD600"/>
<path d="M89.715 46.1552C89.5358 46.3791 89.3568 46.6033 89.1762 46.826C86.943 46.4644 84.6945 45.7798 82.5106 45.1962C82.4976 45.1928 82.4853 45.1916 82.4728 45.19C82.3421 44.9503 82.2104 44.7122 82.0776 44.4754C83.3859 44.7718 84.6716 45.1587 85.995 45.3886C87.2436 45.6054 88.4946 45.8108 89.715 46.1552Z" fill="#FFD600"/>
<path d="M76.7128 38.4712C81.1075 35.8625 85.2057 32.6741 89.2233 29.5276C93.3572 26.2899 97.4669 23.0146 101.549 19.7116C105.753 16.3095 109.907 12.8421 113.983 9.28761C115.497 7.96747 117.313 6.82489 118.789 5.4642C119.956 4.38881 120.965 3.39225 122.293 2.49856C119.092 5.43386 116.161 8.71685 113.109 11.7902C109.636 15.2886 106.131 18.7693 102.427 22.0249C98.707 25.2936 94.8705 28.3893 91.3335 31.8649C89.4858 33.6806 87.6818 35.5403 85.9286 37.4474C84.4309 39.0767 82.8348 40.8569 80.9442 42.0306C80.8367 42.0974 80.7664 42.1833 80.7237 42.277C80.3573 42.464 80.4096 43.1466 80.9145 43.2193C81.5472 44.6979 82.1401 46.1862 82.7179 47.68C82.0935 46.8619 81.4664 46.0498 80.8737 45.2306C79.3148 43.0763 77.8222 40.9059 76.5276 38.5829C76.5352 38.5677 76.5408 38.5517 76.5469 38.5356C76.6009 38.5239 76.656 38.505 76.7128 38.4712Z" fill="#FFD600"/>
<path d="M87.4285 49.0444C87.2473 49.3122 87.0821 49.588 86.9209 49.8654C86.1091 49.711 85.2999 49.5408 84.488 49.3871C84.3848 49.1275 84.2779 48.8688 84.1664 48.6113C84.7012 48.6965 85.2428 48.7479 85.7764 48.839C86.3247 48.9326 86.8732 49.0305 87.4285 49.0444Z" fill="#FFD600"/>
<path d="M85.5874 51.7916C85.4311 51.5264 85.2687 51.2639 85.1017 51.0034C85.4283 51.0909 85.7685 51.1512 86.1049 51.1782C85.9498 51.3934 85.7769 51.5974 85.5874 51.7916Z" fill="#FFD600"/>
<path d="M86.7113 50.226C86.5927 50.4297 86.473 50.6322 86.3457 50.8299C85.8366 50.7464 85.3644 50.5609 84.8686 50.4135C84.8189 50.2698 84.7666 50.1267 84.714 49.9833C85.0139 50.0314 85.3245 50.0438 85.6184 50.084C85.9831 50.1341 86.3464 50.1869 86.7113 50.226Z" fill="#FFD600"/>
<path d="M86.9208 49.8668C87.082 49.5894 87.2472 49.3136 87.4284 49.0458C86.8732 49.0319 86.3246 48.934 85.7764 48.8404C85.2428 48.7493 84.7011 48.6979 84.1664 48.6127C84.2779 48.8702 84.3848 49.1289 84.4879 49.3886C85.2998 49.5422 86.1091 49.7124 86.9208 49.8668ZM84.8695 50.4123C85.3653 50.5597 85.8375 50.7452 86.3466 50.8287C86.4739 50.6309 86.5936 50.4284 86.7122 50.2247C86.3473 50.1857 85.984 50.1329 85.6193 50.0828C85.3254 50.0426 85.0148 50.0302 84.7149 49.9821C84.7675 50.1255 84.8198 50.2686 84.8695 50.4123ZM85.5885 51.7942C85.7778 51.6002 85.9505 51.3964 86.1054 51.1814C85.7694 51.1544 85.4295 51.0942 85.1032 51.0068C85.27 51.267 85.4324 51.5292 85.5885 51.7942ZM87.6905 48.6802C87.8826 48.4327 88.0787 48.1882 88.2744 47.9437C87.5272 47.877 86.7855 47.7375 86.0398 47.6541C85.254 47.5664 84.3777 47.3486 83.5725 47.3171C83.6824 47.5446 83.7896 47.7729 83.8946 48.002C85.1278 48.2818 86.4168 48.5623 87.6696 48.7094C87.6768 48.6999 87.683 48.6899 87.6905 48.6802ZM89.0444 46.9889C87.9447 46.8717 86.8552 46.6711 85.7761 46.4301C84.8002 46.2121 83.787 46.0672 82.8142 45.8239C82.981 46.1382 83.1442 46.4547 83.304 46.7731C84.1081 46.7157 84.9295 47.0285 85.7212 47.1454C86.6446 47.2818 87.5283 47.5655 88.439 47.7362C88.64 47.4866 88.8423 47.2377 89.0444 46.9889ZM89.7153 46.1549C88.4949 45.8105 87.244 45.6051 85.9953 45.3882C84.6719 45.1583 83.3862 44.7715 82.078 44.475C82.2107 44.7119 82.3425 44.95 82.4731 45.1897C82.4856 45.1913 82.4979 45.1924 82.511 45.1958C84.6948 45.7795 86.9434 46.4641 89.1765 46.8257C89.3571 46.603 89.5361 46.3788 89.7153 46.1549ZM90.4618 45.1985C89.9441 45.0791 89.4268 44.9586 88.9111 44.8315C86.424 44.2183 83.9484 43.5528 81.3978 43.2764C81.5118 43.475 81.6258 43.6748 81.7401 43.8755C81.7625 43.8748 81.7859 43.8758 81.8106 43.881C83.1347 44.157 84.4219 44.5631 85.7432 44.8504C87.1417 45.1546 88.5266 45.459 89.8671 45.9657C90.0681 45.7125 90.2653 45.4558 90.4618 45.1985ZM96.3237 45.532C98.8046 46.1041 101.28 46.7104 103.767 47.2534C105.677 47.6703 107.617 48.059 109.405 48.857C109.964 47.1336 109.988 45.3043 110.215 43.5188C110.469 41.5308 110.761 39.5797 111.226 37.6271C112.186 33.5872 113.469 29.5892 114.708 25.6273C116.02 21.4321 117.484 17.2874 118.917 13.1326C120.175 9.4834 121.886 6.01629 123.304 2.4284C120.233 5.86231 116.909 9.1132 113.719 12.4315C110.206 16.085 106.613 19.6574 102.819 23.0199C99.1109 26.306 95.3063 29.4308 91.7818 32.9231C89.9388 34.7492 88.1545 36.6343 86.4069 38.5513C85.1764 39.9009 83.8681 41.2981 82.3857 42.4024C84.4267 42.6971 86.4299 43.1978 88.4301 43.7054C91.0482 44.3697 93.692 44.9251 96.3237 45.532ZM116.8 4.93472C114.574 6.2199 112.316 7.44641 110.024 8.60769C107.636 9.81719 105.242 11.0135 102.85 12.2123C103.142 12.3277 103.43 12.4447 103.713 12.561C103.923 12.6474 103.83 12.9824 103.608 12.9043C103.173 12.7507 102.715 12.6298 102.255 12.511C102.059 12.6093 101.863 12.7082 101.667 12.8066C102.25 13.0415 102.836 13.271 103.449 13.4007C103.641 13.441 103.586 13.7605 103.392 13.7383C102.566 13.6438 101.731 13.4363 100.914 13.1846C99.1541 14.0685 97.3957 14.9545 95.6425 15.8514C90.8809 18.287 86.2107 20.884 81.5148 23.4419C79.2059 24.6994 76.8916 25.9817 74.4833 27.0396C72.228 28.0303 69.9721 29.0097 67.9602 30.4516C67.9083 30.4888 67.8574 30.5116 67.8071 30.5285C69.9678 33.5047 73.5284 35.0659 76.101 37.6669C76.1333 37.6298 76.1698 37.5945 76.2158 37.564C80.3764 34.7979 84.4046 31.861 88.3707 28.8405C87.9372 28.8417 87.5037 28.8411 87.07 28.851C85.9699 28.8764 84.832 29.0438 83.7367 28.9346C83.6317 28.9242 83.6529 28.7788 83.7524 28.7764C85.4066 28.7346 87.0775 28.6392 88.7385 28.5604C89.1435 28.2509 89.548 27.9408 89.9519 27.6298C89.2254 27.6394 88.4974 27.6108 87.7702 27.6504C86.7469 27.7059 85.7388 27.7325 84.718 27.6125C84.6442 27.6037 84.6553 27.4932 84.7294 27.4979C85.7321 27.5602 86.7248 27.4512 87.7234 27.3767C88.6036 27.3111 89.4842 27.3464 90.3638 27.3126C90.653 27.0893 90.942 26.8659 91.2307 26.6418C89.4884 26.6939 87.7474 26.6553 86.0044 26.6934C85.9509 26.6946 85.9483 26.6049 86.0011 26.5996C87.8816 26.411 89.7728 26.4043 91.6592 26.3089C92.0071 26.0383 92.3552 25.7676 92.7027 25.496C90.881 25.6858 88.9738 25.7283 87.1666 25.5493C87.0778 25.5406 87.0949 25.4157 87.1802 25.4146C89.1696 25.3893 91.1491 25.2039 93.1349 25.1574C93.5077 24.8653 93.8808 24.573 94.2531 24.28C92.4581 24.4451 90.5686 24.4696 88.7927 24.3154C88.747 24.3112 88.7446 24.2423 88.7901 24.2348C90.7185 23.9214 92.7576 24.0501 94.7073 23.9223C94.9567 23.7257 95.2061 23.5295 95.4555 23.3327C93.7749 23.3748 92.071 23.0675 90.4101 23.3501C90.2981 23.3692 90.2696 23.1993 90.3805 23.1766C91.2425 22.9994 92.0954 22.992 92.9715 23.0145C93.898 23.0382 94.8461 22.9627 95.7663 23.0455C95.7807 23.0467 95.7925 23.0518 95.8044 23.0571C96.0944 22.8276 96.3845 22.598 96.6744 22.3684C95.1711 22.3821 93.6699 22.2276 92.1693 22.3139C92.0585 22.3203 92.025 22.1526 92.1396 22.1404C93.7758 21.9684 95.4494 22.0618 97.0982 22.0331C97.3912 21.8008 97.6842 21.5683 97.977 21.3358C96.6344 21.4251 95.289 21.4962 93.9445 21.4153C93.7873 21.4058 93.8124 21.1649 93.9689 21.1727C95.4512 21.2471 96.9187 21.0925 98.3958 21.0034C98.631 20.8166 98.8665 20.6299 99.1016 20.4429C97.9551 20.5208 96.8037 20.5211 95.656 20.5701C95.5164 20.5762 95.4772 20.3599 95.619 20.3532C96.9063 20.2925 98.1922 20.2437 99.4776 20.1444C99.6807 19.9831 99.8836 19.8219 100.087 19.6605C99.1468 19.7223 98.1893 19.7077 97.2554 19.7301C97.1511 19.7327 97.1445 19.5511 97.249 19.5458C98.3127 19.4906 99.4005 19.347 100.469 19.3567C100.734 19.1459 101 18.9354 101.265 18.7248C100.378 18.8005 99.4791 18.767 98.592 18.813C98.479 18.8188 98.4453 18.6458 98.5617 18.6362C99.5904 18.5503 100.621 18.5127 101.649 18.4201C101.732 18.3539 101.816 18.2878 101.899 18.2216C102.053 18.0991 102.207 17.9751 102.361 17.8527C101.811 17.9023 101.257 17.9215 100.709 17.967C100.598 17.9762 100.565 17.8101 100.679 17.7935C101.376 17.6921 102.075 17.6066 102.775 17.5222C102.928 17.4002 103.081 17.2775 103.234 17.1553C102.926 17.1729 102.617 17.1747 102.305 17.1506C102.148 17.1383 102.173 16.897 102.329 16.908C102.766 16.9387 103.197 16.9016 103.626 16.8419C103.804 16.7 103.982 16.5582 104.159 16.416C104.13 16.4174 104.101 16.4183 104.072 16.4204C103.861 16.4363 103.65 16.4539 103.44 16.4757C103.3 16.4903 103.262 16.286 103.403 16.2588C103.759 16.1899 104.184 16.0782 104.559 16.0972C107.847 13.4573 111.11 10.78 114.326 8.05503C116.982 5.80463 120.388 2.90057 123.169 1.62069C120.894 2.28633 118.832 3.76109 116.8 4.93472ZM80.8741 45.2321C81.4668 46.0513 82.0939 46.8634 82.7183 47.6815C82.1405 46.1877 81.5476 44.6994 80.915 43.2208C80.41 43.148 80.3577 42.4655 80.7242 42.2784C80.7668 42.1848 80.8371 42.0989 80.9446 42.0321C82.8352 40.8584 84.4313 39.0782 85.9291 37.4489C87.6822 35.5418 89.4862 33.682 91.3339 31.8664C94.8709 28.3908 98.7074 25.2951 102.427 22.0263C106.131 18.7708 109.636 15.29 113.11 11.7916C116.161 8.71832 119.092 5.43533 122.293 2.50003C120.965 3.39373 119.956 4.39028 118.79 5.46568C117.314 6.82637 115.498 7.96895 113.984 9.28908C109.907 12.8436 105.754 16.311 101.549 19.7131C97.4673 23.0161 93.3577 26.2914 89.2237 29.529C85.2061 32.6756 81.108 35.8639 76.7132 38.4726C76.6564 38.5065 76.6013 38.5254 76.5473 38.5371C76.5412 38.5532 76.5356 38.5691 76.528 38.5844C77.8226 40.9074 79.3152 43.0778 80.8741 45.2321ZM85.0543 52.7775C84.8731 52.8267 84.6759 52.7747 84.5928 52.5611C84.4678 52.2406 84.3444 51.9202 84.221 51.5996C82.9219 49.7326 81.6783 47.8175 80.3758 45.9546C78.8038 43.7061 77.2849 41.3754 76.137 38.8762C76.0172 38.8893 75.8912 38.8495 75.7827 38.7286C72.9642 35.5898 68.7776 33.8941 66.6957 30.0761C66.4995 29.7162 66.9867 29.3866 67.2317 29.6598C67.2729 29.5834 67.3313 29.5126 67.4139 29.4536C69.429 28.018 71.6881 27.041 73.947 26.06C76.3599 25.0119 78.6753 23.7301 80.9892 22.4819C85.8211 19.8754 90.6233 17.2281 95.5256 14.7537C96.8707 14.0747 98.2196 13.4025 99.5698 12.7336C99.4865 12.7039 99.4025 12.6743 99.32 12.6446C98.9593 12.5139 99.1278 12.0223 99.4906 12.0877C99.7985 12.143 100.099 12.228 100.396 12.326C100.541 12.2547 100.685 12.1837 100.829 12.1124C100.468 11.9948 100.116 11.8602 99.7843 11.6895C99.5248 11.5558 99.7255 11.1755 99.9866 11.2429C100.517 11.3799 101.053 11.5509 101.587 11.7388C104.376 10.3664 107.171 9.00559 109.965 7.64338C112.272 6.51883 114.533 5.30102 116.797 4.0944C118.893 2.97768 121.124 1.44342 123.55 1.24948C123.606 1.24501 123.643 1.27464 123.66 1.31512C123.746 1.28945 123.829 1.31471 123.89 1.36779C124.028 1.3727 124.162 1.49079 124.122 1.67361C123.252 5.59381 121.126 9.17468 119.862 12.9715C118.472 17.1433 117.048 21.304 115.734 25.5007C114.491 29.4755 113.27 33.4912 112.266 37.5341C111.743 39.6419 111.45 41.7621 111.185 43.9134C110.961 45.7232 110.94 47.5571 110.35 49.3009C110.345 49.3137 110.339 49.3239 110.334 49.3361C110.55 49.56 110.247 49.9732 109.922 49.8096C107.929 48.8059 105.693 48.4643 103.522 48.055C101.156 47.609 98.806 47.0231 96.4531 46.5091C94.6424 46.1134 92.8269 45.7366 91.0189 45.3271C90.3493 46.7145 89.3443 47.9041 88.4427 49.1453C87.5946 50.3127 87.1637 51.713 86.0422 52.6784C85.9926 52.7212 85.9408 52.7493 85.8885 52.7687C85.7261 53.0202 85.2926 53.094 85.0543 52.7775Z" fill="black"/>
<path d="M45.4103 108.543C43.3609 111.559 43.4969 116.222 46.6934 118.488C48.7092 119.917 51.6072 118.637 53.1547 117.108C54.6712 115.61 54.4858 113.404 53.6266 111.634C52.3339 108.972 49.7177 107.34 46.9107 106.699C46.3627 107.274 45.8564 107.886 45.4103 108.543ZM83.7518 81.9805C83.4397 80.3814 82.5948 78.8829 81.6289 77.5923C79.9828 75.3935 76.8237 72.6294 73.8636 73.9018C72.4398 74.5137 71.522 76.0954 71.07 77.5008C70.4258 79.5038 71.4913 81.4784 72.9981 82.7514C75.979 85.2695 80.2647 85.177 83.8633 83.9752C83.9095 83.3027 83.8788 82.6307 83.7518 81.9805ZM16.0195 122.232C21.1926 115.756 28.2854 110.085 35.998 106.98C39.2559 105.669 42.9295 104.824 46.4425 105.409C47.0111 104.863 47.6079 104.355 48.2066 103.893C51.0029 101.735 54.2966 100.159 57.6808 99.1747C59.5506 98.6308 61.5097 98.3937 63.419 98.026C65.9181 97.5448 68.4071 96.9849 70.8385 96.2284C75.4211 94.8026 80.3892 92.5034 82.6939 88.0316C83.1397 87.1666 83.4897 86.2048 83.6921 85.2159C79.59 86.4856 74.8313 86.1471 71.6378 83.0588C68.7292 80.2459 69.4367 75.3123 72.8119 73.1663C75.4343 71.4989 78.5528 72.9781 80.6399 74.8097C82.9295 76.8189 84.9297 79.8486 85.083 82.969C85.0919 83.1506 85.0941 83.3313 85.0933 83.5113C85.3394 83.4072 85.5811 83.2985 85.817 83.1854C89.5809 81.3796 92.7819 77.8641 94.3978 74.0403C96.0518 70.1271 95.8249 65.767 94.3148 61.8533C94.1628 61.4592 94.7546 61.1856 94.9166 61.5819C96.6741 65.875 96.8593 70.5533 95.0547 74.8632C93.2334 79.212 89.4362 82.9039 85.0991 84.7085C85.0705 84.7203 85.0415 84.7311 85.0127 84.743C84.5303 88.5505 81.9479 91.8463 78.8164 93.9694C74.749 96.727 69.7963 98.0003 65.0453 98.9885C61.262 99.7757 57.5869 100.251 54.0416 101.871C51.8768 102.859 49.7173 104.126 47.9047 105.739C51.3225 106.739 54.3515 109.257 55.3197 112.772C56.4584 116.907 52.4951 120.29 48.6044 120.324C44.6558 120.358 42.501 115.485 42.7795 112.092C42.9551 109.955 44.0268 108.061 45.4372 106.454C45.3069 106.441 45.1765 106.428 45.0462 106.419C41.4299 106.154 37.806 107.376 34.5769 108.889C27.8584 112.036 21.6355 117.133 17.0188 122.929C16.5313 123.542 15.5301 122.844 16.0195 122.232Z" fill="url(#paint0_linear_2_227442)"/>
<path d="M114.828 12.252C117.178 10.1025 118.979 7.38705 121.218 5.11955C121.471 4.86239 121.856 5.26919 121.603 5.52398C119.352 7.78935 117.464 10.3843 115.017 12.4507C114.883 12.564 114.696 12.3722 114.828 12.252Z" fill="black"/>
<defs>
<linearGradient id="paint0_linear_2_227442" x1="98.6671" y1="58.3882" x2="13.7784" y2="121.803" gradientUnits="userSpaceOnUse">
<stop/>
<stop offset="1" stop-color="#F9F9F9"/>
</linearGradient>
</defs>
</svg>
