<svg width="344" height="218" viewBox="0 0 344 218" fill="none" xmlns="http://www.w3.org/2000/svg">
<path d="M218.889 391.785L172.275 390.854C172.275 390.854 166.591 306.974 167.65 279.009C168.8 248.633 181.849 158.25 181.849 158.25H221.217C221.217 158.25 211.154 248.985 210.94 279.374C210.742 307.547 218.889 391.785 218.889 391.785Z" fill="white"/>
<path d="M189.582 158.25L213.23 240.066C216.029 201.347 221.215 158.25 221.215 158.25H189.582Z" fill="#232529"/>
<path d="M213.742 162.703L211.241 189.683L208.926 216.679C207.443 234.683 206.036 252.689 204.965 270.732C204.702 275.241 204.543 279.772 204.607 284.305C204.704 288.829 204.885 293.345 205.114 297.858C205.578 306.883 206.161 315.898 206.854 324.904C207.537 333.911 208.264 342.914 209.04 351.913L211.555 378.892L209.54 351.873C208.867 342.867 208.228 333.86 207.641 324.849C207.072 315.838 206.461 306.828 206.046 297.812C205.833 293.304 205.668 288.796 205.586 284.29C205.537 279.791 205.714 275.293 205.987 270.786C206.971 252.762 208.394 234.752 209.708 216.739L213.742 162.703Z" fill="#232529"/>
<path d="M185.876 158.211C185.876 158.211 185.876 158.221 185.886 158.251C186.058 159.061 188.811 171.832 191.665 182.803C193.739 190.818 195.875 197.862 197.099 198.591C198.486 199.411 205.246 202.406 207.513 203.347C207.513 203.347 222.717 279.244 230.743 302.779C238.149 324.497 268.798 382.545 268.798 382.545L313.264 360.078C313.264 360.078 278.538 301.166 274.887 290.594C269.228 274.208 248.02 194.197 248.02 194.197C248.02 194.197 248.182 169.148 239.746 158.211H185.876Z" fill="white"/>
<path d="M236.611 187.234C235.394 186.922 234.091 186.823 232.85 186.626C231.847 186.467 230.848 186.29 229.856 186.072C227.989 185.66 226.099 185.037 224.572 183.848C222.852 182.509 221.977 180.477 221.146 178.525C220.652 177.366 220.143 176.214 219.626 175.065C219.376 174.508 219.123 173.952 218.865 173.398C218.563 172.75 218.148 172.075 217.926 171.397C217.894 171.299 217.735 171.351 217.775 171.443C217.971 171.895 218.054 172.409 218.198 172.883C218.367 173.442 218.526 174.003 218.699 174.561C219.008 175.556 219.309 176.555 219.637 177.544C220.227 179.32 220.751 181.183 221.755 182.781C223.591 185.704 226.873 186.881 230.155 187.296C231.095 187.415 232.044 187.482 232.991 187.536C234.162 187.603 235.408 187.708 236.576 187.563C236.753 187.539 236.804 187.284 236.611 187.234Z" fill="#232529"/>
<path d="M193.501 196.802C198.326 198.463 202.984 200.821 207.437 203.292C207.612 203.389 207.496 203.66 207.307 203.579C202.612 201.563 197.825 199.634 193.248 197.362C192.888 197.184 193.131 196.674 193.501 196.802Z" fill="#232529"/>
<path d="M192.088 164.647C192.101 164.485 192.385 164.449 192.384 164.624C192.346 170.197 192.701 175.101 193.171 180.309C193.389 182.727 195.334 196.091 199.528 195.117C200.23 194.954 200.589 194.263 200.699 193.204C200.831 191.932 200.353 190.371 200.142 189.105C199.677 186.308 199.303 183.501 199.063 180.675C198.614 175.4 198.592 170.125 199.234 164.866C199.255 164.693 199.504 164.706 199.504 164.881C199.498 172.183 199.689 179.472 200.781 186.705C201.306 190.181 203.056 195.414 199.421 195.949C195.718 196.494 193.323 187.728 192.871 185.33C191.609 178.641 191.559 171.417 192.088 164.647Z" fill="#232529"/>
<path d="M199.415 195.48C199.794 196.377 200.099 197.311 200.358 198.25C200.559 198.979 200.833 199.767 200.75 200.527C200.734 200.675 200.539 200.689 200.46 200.589C199.968 199.965 199.76 199.112 199.485 198.373C199.166 197.517 198.829 196.666 198.534 195.8C198.339 195.227 199.182 194.927 199.415 195.48Z" fill="#232529"/>
<path d="M301.26 352.703C294.931 340.787 288.406 328.981 281.857 317.185C278.629 311.371 275.26 305.622 272.178 299.728C269.134 293.905 267.069 287.788 265.142 281.525C261.227 268.799 257.517 256.008 254.017 243.161C250.517 230.314 247.247 217.405 244.156 204.454C243.383 201.215 242.537 197.978 241.913 194.706C241.265 191.307 241.46 188.131 241.928 184.725C242.356 181.611 242.477 178.548 242 175.432C241.528 172.352 240.758 169.322 239.827 166.35C239.336 164.784 238.804 163.232 238.267 161.682C238.207 161.509 237.939 161.589 237.993 161.766C239.909 168.038 241.87 174.38 241.458 181.023C241.26 184.218 240.415 187.352 240.47 190.566C240.525 193.763 241.366 196.899 242.084 199.995C245.106 213.028 248.368 226.003 251.826 238.927C255.284 251.85 258.952 264.716 262.833 277.518C264.72 283.743 266.484 290.068 269.162 296.01C271.845 301.964 275.242 307.589 278.438 313.273C285.044 325.023 291.705 336.743 298.514 348.376C299.377 349.85 300.248 351.32 301.117 352.79C301.172 352.885 301.311 352.798 301.26 352.703Z" fill="#232529"/>
<path d="M205.68 100.11C194.754 123.479 176.959 151.904 167.256 152.419C165.575 152.508 158.807 151.714 156.041 145.416C151.377 134.796 146.949 113.596 146.298 103.507C146.01 99.0333 176.052 94.4463 176.977 99.1493C178.274 105.734 178.979 112.814 179.687 112.734C180.868 112.599 185.813 105.175 197.426 92.8453C211.857 77.5243 209.741 91.4233 205.68 100.11Z" fill="white"/>
<path d="M141.897 91.4678C142.676 97.7588 149.302 110.003 152.036 112.342C154.77 114.68 175.96 104.108 176.678 100.486C177.396 96.8638 173.132 75.8848 168.499 71.3708C163.866 66.8568 141.09 84.9498 141.897 91.4678Z" fill="white"/>
<path d="M176.581 96.7787C176.581 96.7787 178.58 88.7787 182.592 82.7227C185.966 77.6307 191.551 70.4507 188.881 68.5337C183.399 64.5987 169.476 82.5097 169.476 82.5097C169.476 82.5097 164.602 91.3977 169.688 95.7777C172.879 98.5247 176.581 96.7787 176.581 96.7787Z" fill="white"/>
<path d="M163.404 92.4232L156.116 89.0982L165.744 67.9922L174.967 72.1992L163.404 92.4232Z" fill="#FFC727"/>
<path d="M174.965 72.2002L170.557 79.9162L163.401 92.4262L156.112 89.1012L165.742 67.9922L174.965 72.2002Z" fill="#FFC727"/>
<path opacity="0.1" d="M174.965 72.2002L170.557 79.9162L162.069 76.0432L165.742 67.9922L174.965 72.2002Z" fill="black"/>
<path d="M174.399 75.6953L162.924 70.4609L166.9 61.7441L178.375 66.9785L174.399 75.6953Z" fill="#FFD600"/>
<path d="M187.518 67.3132L178.198 64.1372L184.633 50.0312L193.141 54.9882L187.518 67.3132Z" fill="#FFD600"/>
<path d="M181.322 45.1452L171.825 65.9622L156.051 60.9302L115.439 57.8592L138.245 7.86719L167.182 36.5302L181.322 45.1452Z" fill="#FFD600"/>
<path d="M134.106 36.1775C127.777 50.0515 119.031 59.6485 114.572 57.6145C110.113 55.5805 111.628 42.6845 117.957 28.8105C124.286 14.9365 133.032 5.33947 137.491 7.37347C141.95 9.40747 140.435 22.3035 134.106 36.1775Z" fill="#FFD600"/>
<path opacity="0.2" d="M132.422 34.8887C126.804 47.2047 119.289 55.8387 115.638 54.1737C111.987 52.5077 113.582 41.1737 119.2 28.8577C124.819 16.5417 132.333 7.90771 135.984 9.57271C139.636 11.2387 138.041 22.5727 132.422 34.8887Z" fill="black"/>
<path d="M131.343 34.394C130.595 36.034 129.812 37.607 129.008 39.098C127.83 39.408 126.545 39.324 125.353 38.78C122.601 37.525 121.386 34.272 122.644 31.515L123.72 29.157C124.978 26.4 128.231 25.185 130.983 26.44C132.154 26.974 133.051 27.879 133.594 28.948C132.94 30.722 132.185 32.548 131.343 34.394Z" fill="#FFD600"/>
<path d="M179.367 70.795L161.344 64.654L173.788 37.375L190.24 46.961L179.367 70.795Z" fill="#FFC727"/>
<path opacity="0.2" d="M179.367 70.795L161.344 64.654L173.788 37.375L190.24 46.961L179.367 70.795Z" fill="#FFD600"/>
<path d="M139.024 12.3594C139.618 14.3504 139.557 16.4694 139.405 18.5254C139.205 20.5874 138.848 22.6384 138.324 24.6424C138.093 25.6534 137.769 26.6384 137.482 27.6344C137.14 28.6114 136.827 29.6004 136.462 30.5694C136.081 31.5314 135.735 32.5094 135.324 33.4594C134.91 34.4084 134.519 35.3664 134.086 36.3074C132.338 40.0554 130.372 43.7234 127.963 47.1024C126.748 48.7804 125.443 50.4034 123.949 51.8464C122.44 53.2504 120.784 54.5994 118.812 55.2644C120.729 54.4764 122.316 53.1004 123.744 51.6404C125.179 50.1724 126.432 48.5344 127.59 46.8404C129.897 43.4414 131.852 39.8064 133.549 36.0594C135.275 32.3274 136.804 28.4924 137.886 24.5274C138.459 22.5534 138.862 20.5334 139.119 18.4964C139.363 16.4644 139.486 14.3764 139.024 12.3594Z" fill="#232529"/>
<path d="M174.232 79.7411C172.86 82.8071 170.033 79.4351 170.033 79.4351C170.033 79.4351 172.934 85.2691 170.298 87.8831C167.75 90.3951 164.477 86.2021 164.239 85.9051C164.39 86.2151 166.916 91.6461 163.996 94.0001C160.959 96.4441 158.397 91.6701 158.232 91.3611C158.282 91.6981 158.875 96.1701 156.25 97.4541C151.738 99.6581 149.909 88.2651 146.517 86.0221C146.517 86.0221 142.061 91.3361 141.899 91.4631C141.899 91.4631 139.937 80.6591 143.217 76.2531C144.946 73.9311 147.452 75.0841 147.452 75.0841C147.452 75.0841 146.434 71.6701 148.675 69.7441C149.828 68.7591 152.43 69.7261 152.43 69.7261C152.43 69.7261 151.729 66.9591 153.829 65.3701C155.5 64.0971 157.851 65.2651 157.851 65.2651C157.851 65.2651 158.411 62.2961 160.541 61.5501C164.833 60.0361 177.164 73.1731 174.232 79.7411Z" fill="white"/>
<path d="M158.248 65.3906C158.204 65.3506 158.251 65.2796 158.303 65.3136C163.412 68.6446 168.006 73.8696 170.203 79.5986C170.275 79.7866 170.001 79.9856 169.882 79.7936C166.489 74.3216 163.041 69.7366 158.248 65.3906Z" fill="#232529"/>
<path d="M152.393 69.6344C152.341 69.5874 152.418 69.5004 152.481 69.5424C157.727 73.0034 162.739 79.0304 164.494 85.9324C164.554 86.1694 164.371 86.4424 164.281 86.1744C162.766 81.6734 156.727 73.5254 152.393 69.6344Z" fill="#232529"/>
<path d="M158.188 91.8799C156.249 85.3269 152.405 80.0559 147.678 75.2089C147.617 75.1459 147.712 75.065 147.778 75.104C150.736 76.845 153.427 80.2489 155.297 83.0739C157.088 85.7799 158.16 88.582 158.418 91.812C158.427 91.937 158.229 92.0199 158.188 91.8799Z" fill="#232529"/>
<path d="M170.142 79.4609C170.228 79.6869 169.803 79.5639 169.883 79.7929C170.216 80.7529 171.723 86.7049 169.855 87.8479C168.356 88.7599 166.089 87.3789 165.427 86.5069L163.762 84.3139L164.564 86.9539C164.914 88.1059 165.122 89.3709 165.077 90.5679C165.036 91.7619 164.678 92.9399 163.834 93.6199C162.966 94.3469 161.857 94.4689 160.944 93.8279C160.016 93.2319 159.255 92.1749 158.726 91.1329L157.251 88.2219L157.691 91.4409C157.81 92.3129 157.828 93.2609 157.717 94.1429C157.601 95.0239 157.337 95.8949 156.803 96.4879C156.281 97.0719 155.434 97.3759 154.72 97.1499C153.965 96.9229 153.294 96.2439 152.723 95.5389C151.573 94.0849 150.72 92.3649 149.79 90.7019C149.33 89.8649 148.87 89.0229 148.369 88.2039C147.859 87.4019 147.328 86.5499 146.517 86.0199C147.264 86.6269 147.686 87.5079 148.139 88.3339C148.572 89.1799 148.964 90.0479 149.359 90.9179C150.148 92.6579 150.962 94.3999 152.097 96.0159C152.686 96.7949 153.354 97.6189 154.431 98.0239C155.546 98.4329 156.797 97.9879 157.542 97.1659C158.305 96.3309 158.602 95.2769 158.755 94.2869C158.894 93.2759 158.894 92.2979 158.771 91.2769L157.736 91.5849C158.35 92.8209 159.105 93.9569 160.324 94.7939C160.926 95.2029 161.721 95.4559 162.508 95.3699C163.299 95.2879 163.979 94.9399 164.547 94.4639C165.722 93.4699 166.098 91.9339 166.122 90.6009C166.144 89.2289 165.909 87.9289 165.495 86.6349L164.632 87.0809C165.512 88.1609 167.876 89.9819 170.38 88.8589C173.422 86.9069 170.719 80.5829 170.142 79.4609Z" fill="#232529"/>
<path d="M170.032 79.4323C170.614 79.8773 171.221 80.2573 171.815 80.4663C172.408 80.6803 172.985 80.5933 173.381 80.2563C173.787 79.9263 174.031 79.2983 174.21 78.6543C174.371 77.9973 174.507 77.2983 174.619 76.5703C174.871 77.2663 174.987 78.0113 174.935 78.7693C174.879 79.5143 174.68 80.3533 173.984 80.9773C173.617 81.2593 173.188 81.4323 172.736 81.4553C172.284 81.4643 171.858 81.3373 171.511 81.1313C170.806 80.7293 170.334 80.1043 170.032 79.4323Z" fill="#232529"/>
<path d="M141.435 111.632L177.05 98.0309C177.05 98.0309 179.484 112.195 179.904 112.268C180.324 112.341 190.728 97.2099 201.945 87.9069C213.163 78.6039 211.62 90.1749 208.234 99.8949C203.877 112.401 185.763 151.763 177.491 154.509C169.219 157.255 156.514 151.506 154.652 148.024C152.086 143.226 141.435 111.632 141.435 111.632Z" fill="#FFD600"/>
<path opacity="0.1" d="M200.834 88.845V116.955H201.114C201.734 115.585 202.344 114.255 202.914 112.955V87.125C202.604 87.365 202.284 87.625 201.944 87.905C201.574 88.215 201.204 88.525 200.834 88.845Z" fill="black"/>
<path d="M146.052 115.939C147.231 115.316 158.355 111.262 160.79 110.433C163.227 109.604 165.665 108.779 168.104 107.956C170.624 107.107 173.151 106.119 175.732 105.472C175.847 105.443 175.908 105.595 175.797 105.646C173.384 106.761 170.798 107.574 168.304 108.492C165.843 109.398 163.382 110.304 160.917 111.199C158.453 112.094 147.363 115.863 146.09 116.109C145.984 116.131 145.972 115.982 146.052 115.939Z" fill="#232529"/>
<path opacity="0.1" d="M162.29 153.088C166.985 154.95 172.921 156.025 177.493 154.505C185.766 151.764 203.875 112.403 208.239 99.8898C210.369 93.7778 211.765 86.9318 209.718 85.0078L162.29 153.088Z" fill="black"/>
<path d="M179.891 112.438C180.135 114.36 180.262 116.29 180.36 118.221C180.464 120.153 180.49 122.087 180.484 124.021C180.456 125.955 180.411 127.892 180.252 129.822C180.099 131.752 179.897 133.681 179.521 135.583C179.531 134.613 179.593 133.652 179.591 132.686C179.63 131.723 179.638 130.759 179.65 129.795L179.701 124.014L179.76 118.23L179.802 115.336C179.84 114.372 179.845 113.405 179.891 112.438Z" fill="#232529"/>
<path d="M248.249 179.135C248.069 179.311 177.615 174.792 177.01 174.003C176.621 173.492 195.467 97.5226 201.893 88.1876C204.847 83.8966 216.03 82.9266 220.652 87.2736C232.225 98.1556 240.278 133.346 241.971 143.897C244.784 161.281 248.894 178.498 248.249 179.135Z" fill="#FFD600"/>
<path d="M226.77 92.5097C247.843 110.124 275.939 148.738 272.235 157.471C268.11 167.198 238.747 142.489 238.696 140.886C238.658 139.674 226.858 115.712 217.982 98.3117C209.115 80.9287 221.559 88.1537 226.77 92.5097Z" fill="white"/>
<path d="M238.521 140.932C237.448 138.352 221.493 106.792 216.836 96.775C212.179 86.758 215.261 83.222 226.626 91.714C237.991 100.206 263.943 129.731 270.791 146.068C277.387 161.805 269.036 162.609 257.296 156.192C247.684 150.938 238.521 140.932 238.521 140.932Z" fill="#FFD600"/>
<path d="M225.584 114.946C225.182 114.162 224.661 113.48 224.112 112.822C223.548 112.177 222.955 111.556 222.242 111.039C222.643 111.824 223.164 112.506 223.714 113.163C224.279 113.807 224.872 114.428 225.584 114.946Z" fill="#232529"/>
<path d="M236.633 136.327C235.575 133.881 234.44 131.474 233.293 129.074C232.148 126.672 230.939 124.303 229.766 121.915C228.536 119.556 227.336 117.183 226.077 114.839C224.818 112.495 223.547 110.157 222.198 107.859C223.255 110.305 224.391 112.712 225.537 115.113C226.684 117.514 227.89 119.885 229.065 122.271C230.297 124.628 231.495 127.004 232.756 129.347C234.015 131.69 235.286 134.028 236.633 136.327Z" fill="#232529"/>
<path d="M207.308 95.6179C210.843 96.8069 218.394 91.4749 221.258 87.2269C221.453 86.9349 221.282 83.6569 221.263 79.6649C221.261 77.2419 221.316 74.5439 221.543 72.0859L205.779 74.4029C205.779 74.4029 206.817 79.6959 206.394 83.9789C206.355 84.3369 206.288 84.6669 206.195 84.9779C206.186 85.0239 206.167 85.0789 206.157 85.1429C205.667 87.0309 203.893 94.4659 207.308 95.6179Z" fill="white"/>
<path d="M206.197 84.9772C206.19 85.0202 206.171 85.0712 206.161 85.1362C206.635 85.2552 207.161 85.3282 207.734 85.3762C216.675 86.0012 219.787 75.2762 220.479 72.2422L216.541 72.8202L205.78 74.4032C205.78 74.4032 206.821 79.6972 206.39 83.9792C206.354 84.3342 206.291 84.6632 206.197 84.9772Z" fill="#232529"/>
<path d="M206.341 84.2734L207.956 93.8814L221.376 85.1084L223.701 89.3744C223.701 89.3744 209.081 104.779 209.189 103.962L207.215 95.5534L200.802 99.6994L204.138 86.4964L206.341 84.2734Z" fill="white"/>
<path d="M202.082 93.0758C202.706 90.9148 203.274 88.7198 203.997 86.5898C204.023 86.5138 204.152 86.5058 204.151 86.6018C204.127 88.8158 201.697 97.0688 201.267 99.0808C201.276 99.0748 201.287 99.0688 201.295 99.0628C201.564 98.8818 207.185 95.4678 207.215 95.5488C207.74 96.9298 209.198 103.059 209.27 103.603C211.585 101.154 220.335 92.3258 222.928 90.0988C223.002 90.0348 223.107 90.1238 223.043 90.2038C220.892 92.8538 209.261 104.775 209.137 104.707C209.032 104.757 207.206 97.2018 207.092 95.8258C206.094 96.6198 200.306 100.593 200.361 100.263C200.734 98.0398 201.458 95.2408 202.082 93.0758Z" fill="#232529"/>
<path d="M224.978 54.2747C226.161 60.0147 221.711 75.8647 217.406 79.0897C211.165 83.7657 201.696 83.3857 197.912 76.0547C194.244 68.9487 200.41 48.3947 205.148 45.5417C212.128 41.3377 223.23 45.7947 224.978 54.2747Z" fill="white"/>
<path d="M197.234 50.0247C203.461 55.4007 213.469 49.4377 213.469 49.4377C215.054 54.9547 220.392 54.9097 220.392 54.9097C220.392 54.9097 220.445 66.4737 223.454 66.7877C228.044 67.2707 231.198 51.8617 230.093 48.6417C228.989 45.4207 225.186 44.2037 225.186 44.2037C225.186 44.2037 225.165 41.7997 222.573 39.3167C219.709 36.5697 208.541 38.5917 208.541 38.5917C208.541 38.5917 208.023 36.4967 206.19 34.5457C205.025 33.3157 203.293 33.3437 202.067 34.4647C202.509 35.2747 202.797 36.2687 202.853 37.4027C203.021 40.8047 200.291 40.4967 200.654 37.4687C200.816 36.1217 201.36 35.1097 202.067 34.4647C200.941 32.3337 198.814 31.4437 197.359 32.3557C194.721 34.0127 192.054 45.5577 197.234 50.0247Z" fill="#232529"/>
<path d="M221.44 51.3696C221.512 51.1776 221.775 51.2746 221.716 51.4736C221.059 53.7156 220.383 55.9806 220.268 58.3436C220.155 60.6656 220.731 66.5936 224.116 66.2826C224.268 66.2686 224.311 66.4866 224.162 66.5386C221.865 67.3426 220.671 64.3756 220.173 62.3526C219.271 58.6866 220.156 54.8136 221.44 51.3696Z" fill="#232529"/>
<path d="M197.553 32.2246C197.574 32.2056 197.601 32.2376 197.582 32.2576C193.59 36.3116 192.04 42.5386 194.709 47.7846C198.068 54.3846 206.689 51.3356 211.861 49.2586C212.114 49.1576 212.306 49.5316 212.052 49.6406C207.006 51.8146 198.275 54.6676 194.674 48.6096C191.461 43.2056 193.113 36.3226 197.553 32.2246Z" fill="#232529"/>
<path d="M224.217 44.0883C228.669 45.0713 231.653 47.5603 231.564 52.3813C231.475 57.1803 229.022 61.9983 225.378 65.0683C225.2 65.2183 224.983 64.9623 225.142 64.7993C227.76 62.1333 229.829 59.1103 230.683 55.4173C231.314 52.6883 231.329 49.5643 229.627 47.1923C228.402 45.4843 226.051 44.8453 224.159 44.2523C224.05 44.2193 224.11 44.0653 224.217 44.0883Z" fill="#232529"/>
<path d="M207.086 39.4085C213.089 36.5895 224.585 34.5695 225.142 44.1365C225.147 44.2145 225.013 44.2235 225.004 44.1455C223.91 34.5035 213.248 37.5885 207.173 39.6615C207.027 39.7115 206.949 39.4725 207.086 39.4085Z" fill="#232529"/>
<path d="M219.604 66.2348C219.604 66.2348 223.833 61.4438 226.047 63.0098C228.261 64.5758 224.669 71.8078 221.78 72.5248C218.891 73.2418 218.175 70.5808 218.175 70.5808L219.604 66.2348Z" fill="white"/>
<path d="M224.965 65.0553C225.01 65.0563 225.012 65.1203 224.971 65.1313C222.938 65.6983 221.71 67.3843 220.782 69.1713C221.442 68.5173 222.274 68.2133 223.159 69.0103C223.205 69.0523 223.148 69.1263 223.094 69.1083C222.317 68.8473 221.727 68.9203 221.117 69.4973C220.685 69.9053 220.36 70.4473 220.028 70.9373C219.917 71.1013 219.614 70.9723 219.703 70.7793C219.709 70.7653 219.717 70.7503 219.724 70.7363C219.957 68.2523 222.276 65.0033 224.965 65.0553Z" fill="#263238"/>
<path d="M192.501 118.061C192.511 118.073 192.518 118.083 192.526 118.092C192.758 118.359 193.02 118.596 193.291 118.824C193.621 119.102 193.979 119.339 194.358 119.545C194.732 119.748 195.121 119.915 195.525 120.044C195.915 120.169 196.313 120.259 196.719 120.312C197.041 120.354 197.364 120.372 197.689 120.37C197.72 120.37 197.752 120.371 197.784 120.371L197.838 120.363C197.852 120.35 197.866 120.338 197.885 120.322C197.86 120.31 197.84 120.299 197.819 120.289C197.056 119.92 196.375 119.437 195.779 118.834C195.444 118.495 195.141 118.13 194.869 117.738C194.853 117.714 194.837 117.707 194.808 117.712C194.053 117.827 193.297 117.941 192.541 118.056L192.501 118.061Z" fill="white"/>
<path d="M194.261 114.324C194.274 114.389 194.284 114.454 194.3 114.518C194.337 114.67 194.372 114.823 194.416 114.973C194.478 115.181 194.542 115.388 194.617 115.592C194.781 116.041 194.988 116.47 195.233 116.881C195.249 116.908 195.264 116.918 195.297 116.913C196.128 116.785 196.96 116.66 197.791 116.534L197.836 116.527L197.429 113.844L194.261 114.324Z" fill="white"/>
<path d="M198.127 113.773C198.26 114.642 198.391 115.511 198.523 116.38L198.529 116.419L198.571 116.413C199.381 116.29 200.191 116.167 201.001 116.045C201.03 116.041 201.042 116.029 201.05 116C201.169 115.52 201.242 115.033 201.26 114.539C201.269 114.286 201.267 114.032 201.26 113.779C201.256 113.614 201.235 113.448 201.222 113.283C201.222 113.279 201.22 113.274 201.218 113.266C201.206 113.267 201.194 113.268 201.182 113.27C200.175 113.423 199.168 113.575 198.161 113.727C198.128 113.732 198.122 113.742 198.127 113.773Z" fill="white"/>
<path d="M190.877 114.816C190.889 114.878 190.9 114.938 190.913 114.996C190.966 115.228 191.029 115.457 191.104 115.682C191.281 116.207 191.521 116.701 191.817 117.168C191.864 117.243 191.915 117.317 191.963 117.391C191.974 117.408 191.985 117.413 192.005 117.41C192.8 117.289 193.595 117.168 194.39 117.048C194.398 117.047 194.405 117.045 194.416 117.042C194.374 116.963 194.334 116.887 194.294 116.81C194.091 116.418 193.921 116.012 193.781 115.594C193.679 115.29 193.593 114.982 193.527 114.669C193.511 114.595 193.495 114.521 193.48 114.447C193.476 114.427 193.469 114.418 193.449 114.423C193.441 114.425 193.433 114.425 193.425 114.427L190.877 114.816Z" fill="white"/>
<path d="M199.536 120.075C199.565 120.076 199.585 120.081 199.603 120.076C199.848 120.006 200.087 119.919 200.321 119.82C200.76 119.635 201.175 119.405 201.565 119.132C202.012 118.819 202.415 118.457 202.774 118.047C203.029 117.757 203.26 117.449 203.459 117.117C203.609 116.868 203.74 116.609 203.857 116.343C203.859 116.337 203.861 116.331 203.865 116.32L203.827 116.326C203.122 116.433 202.418 116.54 201.713 116.646C201.685 116.65 201.673 116.662 201.665 116.688C201.511 117.167 201.319 117.629 201.08 118.072C200.862 118.477 200.606 118.857 200.322 119.218C200.087 119.517 199.832 119.797 199.552 120.056C199.549 120.058 199.547 120.062 199.536 120.075Z" fill="white"/>
<path d="M195.702 117.581C196.075 118.053 196.495 118.471 196.964 118.838C197.381 119.165 197.824 119.448 198.312 119.671L197.944 117.242L195.702 117.581Z" fill="white"/>
<path d="M198.641 117.137L199.002 119.521C199.817 118.756 200.405 117.854 200.791 116.812L198.641 117.137Z" fill="white"/>
<path d="M271.596 158.576C265.192 162.625 251.551 159.647 222.132 153.578C218.061 152.738 218.542 121.916 222.936 122.589C228.47 123.437 249.761 127.928 251.276 128.453C264.059 132.88 275.941 155.829 271.596 158.576Z" fill="white"/>
<path d="M186.423 117.371C184.735 120.245 187.049 122.806 187.049 122.806C187.049 122.806 184.655 123.969 183.787 126.374C182.792 129.128 186.675 131.895 186.675 131.895C186.675 131.895 184.496 133.574 183.834 136.207C183.147 138.939 186.667 142.29 186.667 142.29C186.667 142.29 185.497 144.969 186.557 147.654C188.37 152.245 195.784 153.615 200.487 154.533C205.191 155.451 219.393 153.65 222.134 153.581L228.287 123.442C228.287 123.442 208.365 113.323 202.681 113.029C197.892 112.78 188.318 114.146 186.423 117.371Z" fill="white"/>
<path d="M187.355 122.364C192.509 121.406 197.666 122.024 202.848 122.349C202.963 122.356 202.95 122.537 202.835 122.528C197.685 122.145 192.525 122.79 187.37 122.613C187.228 122.607 187.216 122.389 187.355 122.364Z" fill="#263238"/>
<path d="M186.85 131.517C188.022 131.336 189.251 131.541 190.42 131.673C191.679 131.815 192.934 131.98 194.187 132.163C196.696 132.531 199.197 132.955 201.683 133.453C201.793 133.475 201.787 133.649 201.67 133.632C199.169 133.27 196.662 132.946 194.148 132.69C192.89 132.562 191.63 132.445 190.371 132.335C189.199 132.233 187.954 132.224 186.825 131.863C186.66 131.81 186.673 131.545 186.85 131.517Z" fill="#263238"/>
<path d="M186.771 142.303C187.784 142.104 188.974 142.447 189.978 142.615C191.118 142.806 192.258 142.99 193.4 143.169C195.683 143.526 197.966 143.883 200.26 144.16C200.374 144.174 200.362 144.353 200.247 144.339C197.915 144.069 195.579 143.83 193.249 143.54C192.105 143.397 190.962 143.25 189.819 143.094C188.848 142.962 187.619 142.907 186.748 142.417C186.7 142.389 186.721 142.312 186.771 142.303Z" fill="#263238"/>
<path d="M226.522 122L239.195 159.129C239.195 159.129 265.599 163.695 271.737 159.004C275.777 155.917 264.504 131.898 250.008 128.079L226.522 122Z" fill="#FFD600"/>
<path d="M264.541 139.274C263.647 137.807 259.853 132.952 254.37 129.633C249.053 126.414 230.184 122.617 226.565 121.947C226.49 121.933 226.44 122.045 226.515 122.067C229.427 122.927 249.466 127.554 254.078 130.259C258.251 132.707 263.548 138.122 264.447 139.351C264.491 139.411 264.579 139.337 264.541 139.274Z" fill="#232529"/>
<path d="M247.568 157.424C246.386 153.335 244.988 149.313 243.577 145.295C242.166 141.274 240.763 137.249 239.251 133.264C238.397 131.012 237.556 128.754 236.624 126.532C236.6 126.474 236.496 126.5 236.515 126.563C237.693 130.646 239.077 134.678 240.458 138.699C241.842 142.729 243.27 146.749 244.734 150.752C245.561 153.014 246.43 155.261 247.361 157.484C247.408 157.593 247.603 157.544 247.568 157.424Z" fill="#232529"/>
<path d="M244.818 159.96C242.968 159.479 241.092 159.22 239.24 158.924L239.396 159.063C239.098 158.339 238.802 157.614 238.437 156.914C238.576 157.692 238.785 158.446 238.992 159.201L239.021 159.308L239.149 159.341C240.08 159.581 241.022 159.718 241.966 159.828C242.911 159.927 243.861 159.985 244.818 159.96Z" fill="#263238"/>
<path d="M238.499 157L238.999 159C245.499 160.834 260.999 163.5 270.999 159.5C283.499 154.5 247.499 111 242.499 107C237.499 103 228.999 92.5002 223.499 89.5002L221.499 85.0002C221.165 81.6669 220.699 74.5002 221.499 72.5002C222.832 72.0002 225.698 70.2002 226.498 67.0002C227.498 63.0002 225.498 61.0002 220.998 64.5002M238.499 157L226.498 122C219.998 119.167 206.298 113.4 203.498 113C199.998 112.5 188.998 114.5 186.998 117C184.998 119.5 185.998 121.5 186.998 122.5C184.998 124 182.098 128 186.498 132C184.498 133.667 181.698 138.1 186.498 142.5C185.331 144.667 184.598 149.6 190.998 152C198.998 155 207.498 155 221.998 153.5L238.499 157Z" stroke="#232529" stroke-width="0.7"/>
<path d="M180 112C179.6 111.6 177.833 102.5 177 98L141.5 111.5C145 122.833 152.5 146 154.5 148C157 150.5 164.5 156.5 177 154.5C180.2 153.7 182.333 150.833 183 149.5L185 141L177 174C198.167 175.667 242.1 179 248.5 179L245 160.5" stroke="#232529" stroke-width="0.7"/>
<path d="M200.5 52C198.5 56.3333 195 66.8 197 74C198.5 78.5 202.5 82.5 209 82.5M207.5 83.5C201.833 88 187.6 100.8 180 112" stroke="#232529" stroke-width="0.7"/>
<path d="M247 179C247.333 182.667 248 190.9 248 194.5C256.167 224.667 272.9 286.1 274.5 290.5" stroke="#232529" stroke-width="0.7"/>
<path d="M179.5 174.5C176 198.333 168.9 250.8 168.5 270" stroke="#232529" stroke-width="0.7"/>
<path d="M146.998 109.499C146.832 107.665 146.498 103.899 146.498 103.499C146.498 102.999 139.998 94.4986 141.498 81.4986C142.263 74.8712 144.717 73.7016 147.204 74.6776M152.998 80.4986C152.018 78.5379 149.596 75.6159 147.204 74.6776M147.204 74.6776C146.802 73.6187 146.498 71.2009 148.498 70.0009C150.998 68.5009 154.498 70.0009 158.498 75.5009" stroke="#232529" stroke-width="0.7"/>
<path d="M152.498 69.5037C152.331 68.5037 152.498 66.2037 154.498 65.0037C156.998 63.5037 160.998 67.5037 163.998 71.0037" stroke="#232529" stroke-width="0.7"/>
<path d="M158 65.5011C158 64.6678 158.5 62.7011 160.5 61.5011C163 60.0011 173.5 69.0011 174.5 77.0011C176.667 74.8341 181.7 70.1 184.5 68.5C188 66.5 192 69.5 188 74.5C184 79.5 176.5 91.5 177 98" stroke="#232529" stroke-width="0.7"/>
<path d="M170 67.5L179 71L181.75 65M163 61.5L173.5 37.5L190 47L181.75 65M188 52L193 55L187.5 67.5L181.75 65" stroke="#232529" stroke-width="0.7"/>
<path d="M159.5 62.5L156 61L115.5 58C114 57.5 111.2 54.9 112 48.5C113 40.5 120 13 136.5 7C137.167 7.16667 138.9 7.9 140.5 9.5C142.1 11.1 158.833 28.1667 167 36.5L172.5 40" stroke="#FFD600" stroke-width="0.7"/>
<path d="M121.092 2.85938C121.959 4.00338 122.765 5.18337 123.563 6.37037C124.367 7.55337 125.127 8.76237 125.887 9.97237C126.634 11.1904 127.38 12.4084 128.083 13.6534L129.136 15.5224C129.467 16.1574 129.817 16.7814 130.131 17.4274C129.692 16.8594 129.289 16.2684 128.866 15.6904L127.659 13.9174C126.856 12.7344 126.095 11.5254 125.336 10.3154C124.59 9.09737 123.844 7.87837 123.141 6.63337C122.432 5.39037 121.732 4.14437 121.092 2.85938Z" fill="white"/>
<path d="M118.324 45.3436C116.707 45.3456 115.097 45.2766 113.487 45.1966C111.876 45.1246 110.27 45.0006 108.664 44.8776C107.059 44.7386 105.454 44.5986 103.853 44.4086L101.452 44.1216C100.653 44.0026 99.8532 43.9056 99.0562 43.7666C99.8652 43.7596 100.67 43.7936 101.478 43.8056L103.894 43.9126C105.505 43.9856 107.111 44.1086 108.717 44.2326C110.322 44.3726 111.927 44.5116 113.528 44.7026C115.128 44.8846 116.729 45.0786 118.324 45.3436Z" fill="white"/>
<path d="M91 32.4531C93.336 32.8661 95.656 33.3481 97.973 33.8401C100.292 34.3251 102.599 34.8601 104.907 35.3951C107.211 35.9451 109.514 36.4961 111.806 37.0961L115.244 37.9981C116.384 38.3221 117.53 38.6241 118.666 38.9671C117.497 38.7671 116.337 38.5261 115.171 38.3071L111.692 37.5811C109.373 37.0951 107.066 36.5611 104.758 36.0251C102.455 35.4741 100.151 34.9231 97.859 34.3231C95.566 33.7301 93.275 33.1261 91 32.4531Z" fill="white"/>
<path d="M108.17 0C109.804 1.766 111.383 3.577 112.953 5.395C114.529 7.208 116.066 9.054 117.603 10.9C119.128 12.756 120.652 14.612 122.137 16.501L124.363 19.335C125.087 20.295 125.828 21.241 126.537 22.213C125.715 21.334 124.925 20.429 124.119 19.537L121.754 16.818C120.178 15.004 118.641 13.159 117.105 11.312C115.581 9.456 114.056 7.599 112.571 5.71C111.08 3.827 109.598 1.936 108.17 0Z" fill="white"/>
<path d="M121.875 30.3702C119.307 29.3142 116.769 28.1932 114.235 27.0632C111.701 25.9342 109.191 24.7522 106.669 23.5992C104.168 22.3992 101.656 21.2242 99.166 20.0002L95.437 18.1522C94.204 17.5152 92.962 16.8972 91.737 16.2422C93.024 16.7642 94.293 17.3242 95.572 17.8642L99.378 19.5482C101.911 20.6792 104.422 21.8582 106.944 23.0132C109.444 24.2152 111.957 25.3882 114.446 26.6132C116.936 27.8372 119.421 29.0712 121.875 30.3702Z" fill="white"/>
<path d="M45.488 135.798L40.8439 139.055L42.1638 144.908L38.5848 140.092L33.1004 141.486L37.5684 137.945L36.4063 132.37L39.8778 136.885L45.488 135.798Z" fill="#FFD600"/>
<path d="M55.2285 67.8886L52.6466 69.7124L53.3907 72.9877L51.379 70.2945L48.313 71.0641L50.8074 69.0829L50.1691 65.9718L52.1001 68.4893L55.2285 67.8886Z" fill="#FFD600"/>
<path d="M67.1875 156.779L64.6056 158.603L65.344 161.866L63.338 159.185L60.272 159.955L62.7664 157.974L62.1281 154.862L64.0591 157.38L67.1875 156.779Z" fill="#FFD600"/>
<path d="M39.248 105.034C39.0589 105.15 38.919 105.332 38.8547 105.545C38.7905 105.758 38.8062 105.987 38.899 106.189C38.9918 106.391 39.1552 106.552 39.3585 106.642C39.5619 106.732 39.7911 106.745 40.003 106.678C40.1922 106.561 40.3321 106.379 40.3964 106.166C40.4606 105.953 40.4449 105.724 40.3521 105.522C40.2593 105.32 40.0959 105.159 39.8925 105.069C39.6892 104.979 39.46 104.966 39.248 105.034Z" fill="#FFD600"/>
<path d="M8.07734 101.196C7.92422 101.266 7.80531 101.394 7.74675 101.552C7.6882 101.71 7.6948 101.885 7.76511 102.038C7.83543 102.191 7.96369 102.31 8.12168 102.369C8.27967 102.427 8.45445 102.421 8.60757 102.351C8.76069 102.28 8.87961 102.152 8.93816 101.994C8.99671 101.836 8.99009 101.661 8.91978 101.508C8.84947 101.355 8.72122 101.236 8.56323 101.177C8.40524 101.119 8.23046 101.126 8.07734 101.196Z" fill="#FFD600"/>
<path d="M62.9142 56.2373C62.7836 56.3222 62.6879 56.4513 62.6446 56.6009C62.6012 56.7506 62.6131 56.9108 62.6781 57.0524C62.7432 57.1939 62.8569 57.3074 62.9987 57.3721C63.1404 57.4367 63.3007 57.4482 63.4502 57.4045C63.5808 57.3196 63.6765 57.1905 63.7199 57.0409C63.7632 56.8912 63.7513 56.731 63.6863 56.5894C63.6213 56.4478 63.5075 56.3344 63.3658 56.2697C63.224 56.2051 63.0638 56.1936 62.9142 56.2373Z" fill="#FFD600"/>
<path d="M84.9902 139.983C82.7906 130.865 88.3992 121.69 97.5173 119.491C106.635 117.291 115.81 122.9 118.01 132.018C120.209 141.136 114.601 150.311 105.483 152.51C96.3645 154.71 87.1897 149.101 84.9902 139.983Z" fill="white" stroke="black" stroke-width="0.816327"/>
<path d="M90.8364 148.707C90.9118 148.771 90.9872 148.836 91.0665 148.9C91.1909 148.903 91.3494 148.903 91.5377 148.9C91.5527 148.903 91.568 148.903 91.5829 148.9C92.009 148.896 92.5859 148.877 93.2685 148.847C93.4985 148.835 93.7397 148.824 93.9924 148.813C94.4789 147.693 95.1386 145.8 95.3158 143.458C95.3158 143.458 95.7986 146.788 95.7947 148.715C96.202 148.692 96.6243 148.67 97.058 148.643C97.2429 147.934 97.3976 147.12 97.4653 146.226C97.4653 146.226 97.6276 147.365 97.7482 148.598C97.8049 148.594 97.8612 148.59 97.9217 148.586C97.9783 148.583 98.035 148.579 98.0913 148.575C98.1326 148.575 98.1743 148.571 98.2157 148.567H98.2383C98.3742 148.56 98.5097 148.552 98.6494 148.545C98.7022 148.541 98.7589 148.537 98.8152 148.533C100.795 148.409 102.891 148.27 104.773 148.141C105.637 148.081 106.459 148.021 107.201 147.972C106.93 146.309 107.062 144.902 107.216 144.065C107.224 144.039 107.228 144.016 107.231 143.993C107.235 143.982 107.235 143.975 107.235 143.967H107.239C107.356 143.398 107.477 143.13 107.465 143.281C107.442 143.624 107.439 143.952 107.454 144.261C107.454 144.291 107.454 144.318 107.457 144.348V144.352C107.457 144.37 107.457 144.386 107.461 144.405C107.548 146.022 108.053 147.18 108.483 147.881C108.909 147.851 109.294 147.825 109.626 147.798C109.667 147.798 109.709 147.794 109.746 147.791C109.78 147.791 109.814 147.787 109.844 147.787C110.165 147.764 110.429 147.745 110.629 147.73C110.817 147.719 110.945 147.708 111.006 147.704C111.511 147.677 109.46 146.158 109.501 144.574C109.55 142.99 110.542 141.395 109.701 139.102C109.437 138.371 109.151 137.805 108.875 137.307C108.34 136.357 107.82 135.659 107.461 134.517C107.427 134.419 107.397 134.313 107.367 134.204V134.193C107.363 134.185 107.363 134.178 107.359 134.17C107.325 134.05 107.31 133.887 107.299 133.691C107.246 132.621 107.45 130.516 107.088 128.537C107.031 128.205 106.956 127.88 106.861 127.564C106.839 127.488 106.816 127.417 106.79 127.341C106.775 127.296 106.76 127.247 106.741 127.202C106.718 127.138 106.696 127.077 106.673 127.017C106.632 126.911 106.586 126.806 106.537 126.7C106.039 125.592 105.217 124.675 103.879 124.234C103.053 123.959 102.303 123.88 101.631 123.914C101.631 123.917 101.627 123.917 101.624 123.917C99.3083 124.053 97.9849 125.644 97.9849 125.644C95.1796 126.647 95.647 130.72 95.8204 132.967C95.843 133.239 95.8319 133.488 95.794 133.725C95.6394 134.694 95.0284 135.415 94.3309 136.214C94.3309 136.218 94.3271 136.218 94.3271 136.218C93.4596 137.213 92.4566 138.326 92.0232 140.189C91.3077 143.266 93.5625 145.163 90.8364 148.707Z" fill="#232529"/>
<path d="M90.6212 148.348C90.9986 147.707 91.3301 147.033 91.5081 146.333C91.7069 145.637 91.5748 144.939 91.4031 144.22C91.2321 143.505 91.0333 142.775 90.9312 142.013C90.8377 141.254 90.829 140.451 91.0472 139.686C91.2523 138.92 91.6561 138.214 92.1677 137.634C92.673 137.044 93.2614 136.562 93.8286 136.087C94.3899 135.606 94.9501 135.131 95.3598 134.533C95.7797 133.944 96.0184 133.23 96.0744 132.484C96.1383 133.228 95.975 134.008 95.5903 134.677C95.2111 135.351 94.6651 135.903 94.1233 136.416C93.5818 136.932 93.0355 137.425 92.5851 137.982C92.1378 138.538 91.7882 139.16 91.6168 139.838C91.4431 140.514 91.4177 141.229 91.5018 141.945C91.5762 142.663 91.7434 143.381 91.8744 144.123C91.9366 144.495 91.9943 144.874 91.9995 145.267C92.0068 145.66 91.9258 146.062 91.7972 146.422C91.5244 147.143 91.1126 147.784 90.6212 148.348Z" fill="#232529"/>
<path d="M106.536 126.703C106.925 127.54 107.097 128.46 107.27 129.361C107.426 130.269 107.538 131.182 107.639 132.092L107.799 133.45C107.853 133.904 107.93 134.328 108.064 134.743C108.325 135.575 108.831 136.289 109.398 137.012C109.673 137.38 109.953 137.762 110.187 138.181C110.42 138.598 110.613 139.042 110.748 139.502C110.87 139.968 110.959 140.426 111.01 140.897C111.063 141.367 111.06 141.851 110.997 142.322C110.937 142.795 110.825 143.245 110.734 143.685C110.642 144.124 110.59 144.572 110.584 145.015C110.557 145.894 111.06 146.747 111.795 147.287C110.987 146.857 110.371 145.997 110.299 145.026C110.265 144.554 110.292 144.085 110.353 143.622C110.412 143.159 110.507 142.714 110.537 142.275C110.607 141.403 110.455 140.505 110.208 139.664C110.071 139.25 109.9 138.849 109.68 138.47C109.464 138.09 109.198 137.734 108.921 137.372C108.648 137.007 108.364 136.633 108.117 136.223C107.872 135.814 107.661 135.373 107.524 134.91C107.39 134.447 107.319 133.965 107.279 133.508C107.232 133.047 107.203 132.589 107.175 132.132C107.113 131.218 107.065 130.306 106.98 129.398C106.905 128.49 106.796 127.584 106.536 126.703Z" fill="#232529"/>
<path d="M102.74 142.035C102.803 142.257 102.879 142.499 102.966 142.755C102.985 142.812 103.003 142.868 103.022 142.924C103.573 144.569 104.184 146.379 104.765 148.132C105.209 149.475 105.639 150.783 106.013 151.956C107.709 151.477 109.297 150.73 110.726 149.772C110.768 149.742 110.813 149.712 110.855 149.682C110.881 149.667 110.907 149.648 110.934 149.625C111.137 149.486 111.341 149.342 111.537 149.192C111.235 148.698 110.93 148.207 110.621 147.721C109.097 145.338 107.468 143.106 105.93 141.375C105.523 140.918 104.938 140.357 104.365 139.938C104.335 139.915 104.301 139.889 104.267 139.863C103.8 139.535 103.347 139.301 103.004 139.297C102.958 139.297 102.921 139.297 102.883 139.305C102.37 139.391 102.181 140.115 102.74 142.035Z" fill="#F7A9A0"/>
<path d="M107.223 143.98C107.223 143.984 107.227 143.984 107.227 143.988C107.306 144.104 107.382 144.222 107.453 144.342V144.346C107.578 144.531 107.695 144.712 107.812 144.897C108.193 145.488 108.57 146.081 108.939 146.676C109.169 147.046 109.399 147.419 109.622 147.793C109.882 148.226 110.138 148.66 110.387 149.097C110.511 149.32 110.628 149.546 110.73 149.776C110.771 149.746 110.817 149.715 110.858 149.686C110.885 149.671 110.911 149.652 110.938 149.629C110.805 149.342 110.651 149.067 110.485 148.799C110.274 148.456 110.059 148.117 109.84 147.781C109.486 147.219 109.12 146.665 108.747 146.11C108.6 145.782 108.445 145.458 108.279 145.134C108.272 145.119 108.241 145.134 108.253 145.153C108.373 145.409 108.494 145.662 108.615 145.918C108.234 145.36 107.849 144.802 107.45 144.255C107.385 144.157 107.314 144.063 107.246 143.969C107.242 143.965 107.238 143.961 107.234 143.961H107.231C107.223 143.965 107.216 143.972 107.223 143.98Z" fill="#232529"/>
<path d="M91.4459 149.215C91.921 149.577 92.4152 149.913 92.9278 150.226C94.2627 151.033 95.7182 151.655 97.2644 152.062C97.4566 150.991 97.6867 149.796 97.9168 148.601C98.29 146.681 98.6671 144.773 98.9274 143.427C99.0066 143.005 99.0668 142.628 99.1047 142.292C99.4553 139.377 98.3015 139.589 96.8272 140.969C96.5746 141.203 96.3108 141.474 96.0428 141.772C95.7412 142.107 95.4395 142.469 95.1378 142.854C93.7463 144.626 92.5511 146.723 91.5784 148.914C91.5325 149.011 91.4873 149.113 91.4459 149.215Z" fill="#F7A9A0"/>
<path fill-rule="evenodd" clip-rule="evenodd" d="M97.5125 152.116C97.5121 152.118 97.5117 152.121 97.5112 152.123C97.466 152.115 97.4205 152.104 97.3792 152.093C97.3722 152.091 97.3653 152.089 97.3585 152.087C97.3251 152.077 97.2939 152.069 97.2624 152.062C95.7162 151.655 94.2607 151.033 92.9258 150.226C92.4132 149.913 91.919 149.577 91.4439 149.215C91.4401 149.212 91.4366 149.21 91.4333 149.207C91.4233 149.2 91.415 149.194 91.4064 149.185L91.5308 148.914C92.7374 146.27 94.0685 144.05 95.1129 142.662C95.6582 141.934 96.1705 141.335 96.6382 140.876C96.643 140.87 96.6478 140.863 96.6526 140.857C96.6564 140.853 96.6564 140.849 96.6564 140.849L96.6603 140.845C96.6616 140.844 96.6629 140.842 96.6644 140.84C96.6671 140.836 96.6704 140.832 96.6752 140.827C96.6867 140.812 96.7016 140.793 96.728 140.763C96.751 140.733 96.7809 140.699 96.8149 140.661C96.8535 140.618 96.9008 140.568 96.9532 140.515C97.1124 140.344 97.2931 140.175 97.5013 140.02C97.6108 139.933 97.7276 139.847 97.8596 139.76C98.1724 139.56 98.5154 139.375 98.8814 139.228C99.4093 139.009 99.9824 138.858 100.567 138.817C101.35 138.76 102.152 138.896 102.883 139.32L102.883 139.32C102.921 139.313 102.958 139.312 103.004 139.312C103.347 139.316 103.8 139.55 104.267 139.878C104.301 139.905 104.335 139.931 104.365 139.954C104.938 140.372 105.523 140.934 105.93 141.39C107.468 143.121 109.097 145.353 110.621 147.736C110.93 148.223 111.235 148.713 111.537 149.207C111.341 149.358 111.137 149.502 110.934 149.641C110.908 149.663 110.882 149.682 110.856 149.697L110.857 149.699C110.839 149.712 110.82 149.726 110.801 149.739C110.777 149.756 110.752 149.773 110.729 149.79C109.3 150.748 107.712 151.494 106.015 151.973C104.579 152.38 103.059 152.599 101.49 152.599C100.163 152.599 98.8734 152.444 97.6365 152.146C97.5953 152.139 97.5537 152.128 97.5125 152.116Z" fill="#FFD600"/>
<path d="M97.3817 152.092C97.4231 152.103 97.4686 152.115 97.5138 152.122C97.5552 152.134 97.5969 152.145 97.6382 152.152C97.8683 151.006 98.0796 149.999 98.1282 149.916C98.2415 149.713 98.4866 149.256 98.5884 149.045C98.6676 148.88 98.7392 148.714 98.8108 148.548C98.9276 148.28 99.0409 148.009 99.1577 147.741C99.1726 147.707 99.1163 147.677 99.101 147.714C98.9616 148.001 98.8032 148.284 98.6447 148.559C98.5693 148.687 98.4939 148.812 98.4184 148.936C98.3017 149.132 98.1807 149.328 98.0601 149.52C98.0601 149.513 98.1317 149.113 98.2336 148.581C98.392 147.714 98.6183 146.489 98.6975 146.002C98.7052 145.961 98.7125 145.919 98.7201 145.878C98.7201 145.874 98.7201 145.874 98.7201 145.87C98.7201 145.866 98.7201 145.866 98.7201 145.863C98.7201 145.832 98.6826 145.825 98.6711 145.855C98.6106 146.044 98.3771 147.163 98.0865 148.589C97.8683 149.675 97.6156 150.934 97.3817 152.092Z" fill="#232529"/>
<path d="M104.719 140.301C104.719 140.301 104.472 142.738 102.452 143.117C100.432 143.497 96.6576 140.844 96.6576 140.844C96.6576 140.844 98.1736 138.804 100.912 138.797C103.547 138.791 104.719 140.301 104.719 140.301Z" fill="white"/>
<path d="M98.9179 139.617C99.026 139.983 100.934 142.29 102.625 142.114C103.176 142.055 102.991 139.036 102.991 139.036L103.029 138.81L103.549 135.645L99.7443 133.5L99.1963 133.219C99.1963 133.219 99.1111 134.094 99.0159 135.185C99.0114 135.235 99.0065 135.286 99.0023 135.34C98.9954 135.402 98.9881 135.46 98.9839 135.517C98.9676 135.68 98.9516 135.846 98.9394 136.012C98.9293 136.138 98.9189 136.261 98.9134 136.394C98.9043 136.527 98.8981 136.657 98.889 136.79C98.8272 138.105 98.8744 139.462 98.9179 139.617Z" fill="white"/>
<path d="M99.0155 135.184C100.053 137.62 102.097 138.52 103.029 138.81L103.549 135.645L99.7443 133.5L99.1963 133.219C99.1963 133.219 99.1108 134.094 99.0155 135.184Z" fill="#232529"/>
<path d="M107.748 131.25C108.124 136.865 104.803 137.725 103.592 137.804C102.492 137.876 98.74 137.983 97.7861 132.436C96.8321 126.89 99.3243 124.94 101.83 124.642C104.335 124.343 107.372 125.634 107.748 131.25Z" fill="white"/>
<path d="M98.1006 132.408C98.7084 132.323 100.165 130.515 99.9773 127.562C99.9773 127.562 99.962 130.226 99.7941 130.629C99.6259 131.033 100.608 129.613 100.49 127.228C100.49 127.228 101.884 128.074 103.032 128.299C104.18 128.524 104.867 128.458 104.94 128.37C105.014 128.283 103.32 127.894 102.831 127.415C102.831 127.415 105.931 128.565 107.316 128.56C107.476 128.559 107.405 125.267 105.164 124.047C102.923 122.827 99.6704 124.599 98.8335 125.547C98.8335 125.547 97.7805 125.784 96.749 127.452C95.7175 129.119 97.4461 132.5 98.1006 132.408Z" fill="#232529"/>
<path d="M98.8991 132.689C98.8991 132.689 97.7057 130.908 96.9001 131.33C96.0945 131.753 96.9675 134.317 97.8964 134.684C98.8251 135.05 99.1816 134.198 99.1816 134.198L98.8991 132.689Z" fill="white"/>
<path d="M97.1697 132.063C97.1548 132.061 97.1513 132.082 97.1642 132.088C97.8151 132.366 98.1484 132.981 98.3778 133.617C98.1873 133.37 97.9246 133.232 97.5948 133.458C97.5774 133.469 97.5934 133.497 97.6118 133.493C97.8818 133.441 98.0747 133.491 98.252 133.71C98.3774 133.865 98.4615 134.059 98.5502 134.237C98.5797 134.297 98.6864 134.267 98.6652 134.199C98.6638 134.194 98.6617 134.189 98.6603 134.184C98.693 133.348 98.066 132.164 97.1697 132.063Z" fill="#232529"/>
<path d="M300.417 88.409L294.704 89.2025L293.164 95.1183L292.174 89.0861L286.544 87.7704L292.258 86.653L293.811 81.0618L294.844 86.772L300.417 88.409Z" fill="#FFD600"/>
<path d="M340.96 141.339L337.771 141.77L336.914 145.083L336.351 141.705L333.215 140.983L336.4 140.355L337.276 137.225L337.847 140.421L340.96 141.339Z" fill="#FFD600"/>
<path d="M321.539 116.301L318.336 116.731L317.479 120.044L316.916 116.666L313.78 115.944L316.964 115.315L317.84 112.186L318.412 115.382L321.539 116.301Z" fill="#FFD600"/>
<path d="M297.398 173.901C297.156 173.89 296.919 173.976 296.74 174.139C296.56 174.303 296.453 174.531 296.442 174.773C296.431 175.015 296.517 175.252 296.68 175.431C296.844 175.611 297.072 175.718 297.314 175.729C297.556 175.74 297.793 175.654 297.972 175.491C298.152 175.327 298.259 175.099 298.27 174.857C298.281 174.615 298.195 174.378 298.032 174.199C297.868 174.02 297.64 173.913 297.398 173.901Z" fill="#FFD600"/>
<path d="M289.684 135.434C289.241 135.453 288.822 135.637 288.508 135.949C288.195 136.262 288.009 136.681 287.989 137.123C287.969 137.566 288.115 138 288.398 138.34C288.682 138.68 289.083 138.902 289.521 138.962C289.964 138.943 290.383 138.759 290.697 138.446C291.01 138.133 291.196 137.714 291.216 137.272C291.236 136.83 291.09 136.396 290.807 136.055C290.523 135.715 290.123 135.493 289.684 135.434Z" fill="#FFD600"/>
<path d="M245.497 48.4949C255.989 48.4949 264.495 39.9894 264.495 29.4974C264.495 19.0054 255.989 10.5 245.497 10.5C235.005 10.5 226.5 19.0054 226.5 29.4974C226.5 39.9894 235.005 48.4949 245.497 48.4949Z" fill="white" stroke="#232529"/>
<path d="M250.482 18.7526C252.811 21.1098 253.452 24.961 253.452 24.961C253.452 24.961 255.672 28.8557 255.024 30.948C254.377 33.0404 252.563 33.5198 252.563 33.5198L252.796 32.3582C252.796 32.3582 252.029 33.8467 249.501 34.4285C246.972 35.0106 243.642 34.2031 241.915 33.31C240.187 32.4168 239.383 31.0438 239.383 31.0438L240.02 32.7402C240.02 32.7402 237.572 32.6332 236.14 30.0165C234.708 27.3997 238.917 23.6901 239.278 22.8873C239.639 22.0844 240.14 16.2103 246.313 17.2776C246.313 17.2776 248.879 17.1295 250.482 18.7526Z" fill="#232529"/>
<path d="M253.458 33.3803C254.16 33.056 254.745 32.3513 255.106 31.6823C255.489 30.9734 255.653 30.169 255.516 29.37C255.353 28.4171 254.858 27.5744 254.378 26.7518C253.881 25.9016 253.321 25.0852 252.84 24.2274C252.813 24.18 252.884 24.1416 252.917 24.1793C253.474 24.8099 253.956 25.5254 254.435 26.2162C254.891 26.8739 255.338 27.5534 255.631 28.3023C255.896 28.9818 256.046 29.7439 255.896 30.4692C255.773 31.0672 255.495 31.6164 255.11 32.088C254.65 32.6508 254.067 33.0099 253.49 33.4322C253.454 33.4586 253.418 33.3993 253.458 33.3803Z" fill="#232529"/>
<path d="M235.64 27.3336C236.4 25.1764 238.357 23.8206 239.557 21.9438C240.206 20.9281 240.712 19.801 241.554 18.9214C241.577 18.8978 241.618 18.9366 241.596 18.9614C240.905 19.7537 240.5 20.7105 239.997 21.6215C239.486 22.5473 238.818 23.3524 238.137 24.1557C236.899 25.6155 235.417 27.3402 235.68 29.3992C235.802 30.3502 236.353 31.4059 237.324 31.7107C237.361 31.7223 237.338 31.7836 237.302 31.7677C236.518 31.433 235.931 30.8466 235.618 30.048C235.274 29.1692 235.33 28.2144 235.64 27.3336Z" fill="#232529"/>
<path d="M235.544 27.9141C235.499 27.0973 235.669 26.2697 236.106 25.5712C236.539 24.8773 237.213 24.3797 237.888 23.9388C238.665 23.4303 239.484 22.9494 239.983 22.1384C240.004 22.1047 240.052 22.1412 240.032 22.1745C239.242 23.5122 237.754 24.1269 236.742 25.2497C235.585 26.533 235.568 28.4179 236.343 29.9037C236.82 30.8182 237.553 31.5737 238.389 32.1679C238.403 32.1783 238.387 32.2001 238.372 32.1904C236.92 31.2173 235.646 29.7334 235.544 27.9141Z" fill="#232529"/>
<path d="M243.96 37.3832C243.888 37.6314 243.804 37.8967 243.707 38.1825C242.735 41.0858 241.595 44.4736 240.661 47.3432C238.826 46.8506 237.105 46.0808 235.548 45.0833C235.506 45.0538 235.464 45.0286 235.421 44.9991C235.388 44.982 235.358 44.9611 235.329 44.9401C235.114 44.8013 234.904 44.6539 234.693 44.5023C236.528 41.5567 238.531 38.767 240.412 36.6502C241.258 35.6992 242.785 34.3526 243.665 34.3359C243.711 34.3359 243.757 34.3359 243.799 34.3445C244.372 34.4375 244.582 35.2454 243.96 37.3832Z" fill="#C95F50"/>
<path d="M243.96 37.3832C243.888 37.6314 243.804 37.8967 243.707 38.1825C242.735 41.0858 241.595 44.4736 240.661 47.3432C238.826 46.8506 237.105 46.0808 235.548 45.0833C235.506 45.0538 235.464 45.0286 235.421 44.9991C235.388 44.982 235.358 44.9611 235.329 44.9401C235.114 44.8013 234.904 44.6539 234.693 44.5023C236.528 41.5567 238.531 38.767 240.412 36.6502C241.258 35.6992 242.785 34.3526 243.665 34.3359C243.711 34.3359 243.757 34.3359 243.799 34.3445C244.372 34.4375 244.582 35.2454 243.96 37.3832Z" fill="#FFC727"/>
<path d="M254.657 45.5562C253.176 46.4021 251.564 47.0501 249.86 47.4624C249.805 47.4752 249.75 47.4876 249.696 47.5004C249.654 47.5132 249.612 47.5214 249.57 47.5299C249.511 47.5427 249.452 47.5551 249.393 47.5679C248.135 47.8371 246.834 47.9802 245.496 47.9802C243.822 47.9802 242.201 47.7572 240.661 47.3406C238.826 46.8481 237.105 46.0782 235.548 45.0807C235.506 45.0512 235.464 45.026 235.422 44.9966C236.074 43.8897 237.135 42.2359 238.325 40.5527C240.051 38.1036 242.041 35.5915 243.43 34.5816C243.505 34.5269 243.585 34.4723 243.665 34.4257C243.711 34.392 243.754 34.3668 243.8 34.3416C243.93 34.2659 244.061 34.1984 244.191 34.1438H244.195C245.525 33.5461 246.998 33.7187 248.252 34.2322C248.466 34.3206 248.677 34.4172 248.879 34.5266H248.883C249.679 34.9516 250.331 35.4985 250.731 36.0414C250.731 36.0457 250.735 36.05 250.735 36.05C250.974 36.3738 251.202 36.7147 251.425 37.0727C252.726 39.1852 253.761 41.9416 254.657 45.5562Z" fill="#FFC727"/>
<path d="M238.977 39.5363C238.758 39.873 238.539 40.2096 238.325 40.5505C237.899 41.211 237.479 41.8719 237.066 42.5366C236.545 43.374 236.031 44.2198 235.547 45.0781C235.505 45.0486 235.463 45.0234 235.421 44.994C235.387 44.9769 235.358 44.956 235.328 44.935C235.332 44.9222 235.341 44.9098 235.349 44.897C235.972 43.8871 236.616 42.89 237.28 41.9091C237.445 41.543 237.613 41.1812 237.798 40.8236C237.811 40.8026 237.841 40.8193 237.832 40.8402C237.697 41.1265 237.559 41.4084 237.424 41.6946C237.92 40.9624 238.425 40.2387 238.947 39.5232C238.96 39.5069 238.985 39.5197 238.977 39.5363Z" fill="#232529"/>
<path d="M256.19 44.5931C255.698 44.9422 255.185 45.2707 254.659 45.5693C253.178 46.4152 251.566 47.0632 249.862 47.4755C249.319 44.5466 248.62 41.075 248.204 38.9121C247.194 33.6647 249.205 34.6114 251.427 37.0858C251.755 37.4562 252.087 37.856 252.42 38.2768C253.88 40.1322 255.143 42.308 256.19 44.5931Z" fill="#C95F50"/>
<path d="M256.224 44.5725C256.212 44.581 256.199 44.5892 256.191 44.5977C255.698 44.9468 255.185 45.2753 254.659 45.5739C253.178 46.4198 251.566 47.0678 249.862 47.4801C249.807 47.4929 249.753 47.5053 249.698 47.5181C249.656 47.5309 249.614 47.5391 249.572 47.5476C249.206 45.717 248.793 43.6049 248.44 41.6649C248.221 40.4362 248.027 39.2789 247.889 38.3028C247.342 34.4438 248.612 33.9768 250.733 36.0599C250.733 36.0642 250.738 36.0684 250.738 36.0684C251.259 36.5819 251.836 37.2552 252.45 38.0673C253.552 39.5314 254.941 41.8332 256.224 44.5725Z" fill="#FFC727"/>
<path d="M249.698 47.5254C249.657 47.5382 249.614 47.5463 249.572 47.5548C249.513 47.5676 249.454 47.58 249.396 47.5928C249.236 46.8354 249.105 46.2758 249.071 46.2125C248.945 45.9853 248.667 45.476 248.558 45.2406C248.331 44.7609 248.133 44.2726 247.927 43.7889C247.91 43.7509 247.969 43.7215 247.986 43.7595C248.213 44.2264 248.478 44.6767 248.743 45.1188C248.878 45.3376 249.012 45.5563 249.143 45.7712C249.143 45.7165 248.499 42.3163 248.411 41.7105C248.407 41.6853 248.424 41.6683 248.44 41.6725C248.453 41.6725 248.461 41.6811 248.465 41.6935C248.571 42.0173 249.151 44.8365 249.698 47.5254Z" fill="#232529"/>
<path d="M248.211 34.6957C248.091 35.1029 245.969 37.6688 244.088 37.4726C243.476 37.4074 243.681 34.0488 243.681 34.0488L243.639 33.7975L243.061 30.2775L247.293 27.8911L247.902 27.5781C247.902 27.5781 247.997 28.5516 248.103 29.7647C248.108 29.821 248.113 29.8772 248.118 29.9377C248.126 30.006 248.134 30.0707 248.138 30.1351C248.156 30.3162 248.174 30.5012 248.188 30.6859C248.199 30.8262 248.21 30.9628 248.217 31.1105C248.227 31.2587 248.234 31.403 248.244 31.5511C248.312 33.014 248.26 34.5227 248.211 34.6957Z" fill="white"/>
<path d="M248.103 29.7651C246.949 32.4745 244.675 33.4759 243.639 33.7975L243.061 30.2775L247.293 27.8911L247.902 27.5781C247.902 27.5781 247.997 28.552 248.103 29.7651Z" fill="#232529"/>
<path d="M238.392 25.3484C237.974 31.5948 241.668 32.5505 243.016 32.6393C244.238 32.72 248.412 32.8382 249.474 26.6686C250.535 20.4989 247.763 18.3297 244.976 17.9977C242.188 17.6653 238.81 19.1015 238.392 25.3484Z" fill="white"/>
<path d="M244.629 23.5035C244.483 23.4833 244.351 23.4406 244.208 23.4057C244.047 23.3666 243.915 23.3518 243.798 23.2242C243.735 23.156 243.742 23.0194 243.803 22.9524C243.945 22.7957 244.154 22.7949 244.35 22.8341C244.563 22.8767 244.716 22.964 244.854 23.1311C244.987 23.2933 244.823 23.5298 244.629 23.5035Z" fill="#232529"/>
<path d="M249.207 27.998C247.841 27.2487 247.871 25.7264 247.871 25.7264C246.17 24.8747 245.309 23.4281 245.219 23.2811C245.254 23.4184 245.503 24.4097 245.646 24.9104C241.654 23.9459 240.595 20.7005 240.595 20.7005C239.204 21.9881 238.891 22.8386 238.676 23.2602C238.676 23.2602 238.8 20.7032 240.177 19.051C241.862 17.0277 243.965 17.5233 243.965 17.5233C243.965 17.5233 247.16 16.7046 249.434 19.5497C251.88 22.6187 249.207 27.998 249.207 27.998Z" fill="#232529"/>
<path d="M242.618 24.0772C243.238 24.4801 243.939 24.7656 244.642 24.9576C244.648 24.9591 244.65 24.9502 244.644 24.9483C243.526 24.5635 242.542 23.9015 241.791 22.9629C241.473 22.5662 241.206 22.1333 240.994 21.6664C240.774 21.1785 240.565 20.5994 240.553 20.0534C240.552 20.0119 240.489 20.0142 240.49 20.0561C240.502 20.6336 240.519 21.1657 240.712 21.7125C240.895 22.2315 241.174 22.7194 241.527 23.1328C241.843 23.502 242.213 23.8146 242.618 24.0772Z" fill="#232529"/>
<path d="M248.234 26.9659C248.234 26.9659 249.562 24.9852 250.458 25.4548C251.354 25.9245 250.383 28.7767 249.349 29.1847C248.316 29.5927 247.92 28.6436 247.92 28.6436L248.234 26.9659Z" fill="white"/>
<path d="M250.161 26.2657C250.177 26.2638 250.181 26.2875 250.167 26.2937C249.443 26.6035 249.072 27.2877 248.817 27.9947C249.028 27.7205 249.321 27.5665 249.688 27.8179C249.707 27.831 249.689 27.8613 249.669 27.8574C249.369 27.7992 249.154 27.8555 248.957 28.0986C248.817 28.2708 248.724 28.4873 248.625 28.6851C248.592 28.751 248.474 28.7184 248.497 28.6428C248.499 28.6374 248.501 28.6315 248.503 28.6257C248.466 27.6953 249.163 26.379 250.161 26.2657Z" fill="#232529"/>
<path d="M234.5 45C236.167 41.8333 240.3 35.3 243.5 34.5M256.5 44.5C254.833 41.8333 250.9 36 248.5 34" stroke="#232529" stroke-width="0.5"/>
</svg>
