<svg width="242" height="118" viewBox="0 0 242 118" fill="none" xmlns="http://www.w3.org/2000/svg">
<path d="M36.8199 0.934741C42.6869 11.007 56.2046 33.602 72.0284 55.9761C84.4276 73.5046 95.793 87.4677 105.806 97.4727C110.403 102.065 114.709 105.819 118.712 108.725C119.731 109.466 120.731 110.151 121.711 110.781C122.735 111.441 123.741 112.04 124.723 112.578C125.752 113.144 126.754 113.64 127.732 114.072C128.762 114.525 129.764 114.904 130.739 115.209C131.773 115.535 132.776 115.775 133.746 115.932C134.656 116.08 135.537 116.156 136.391 116.156C136.511 116.155 136.628 116.155 136.748 116.153L142.793 116.016C142.674 116.017 142.555 116.019 142.437 116.019C141.588 116.018 140.715 115.946 139.812 115.798L139.811 115.798C138.838 115.642 137.834 115.402 136.801 115.077C135.826 114.773 134.823 114.394 133.794 113.941C132.816 113.511 131.812 113.014 130.786 112.45C129.803 111.913 128.798 111.314 127.771 110.654C126.787 110.022 125.782 109.333 124.759 108.589C123.776 107.876 122.775 107.111 121.756 106.295C118.625 103.789 115.321 100.802 111.853 97.3365C101.837 87.3315 90.4719 73.3684 78.0754 55.8385C62.3069 33.546 48.8312 11.0325 42.929 0.906838L36.8199 0.934741Z" fill="#E1B15C"/>
<path d="M24.5383 0.992066C30.3365 10.956 43.934 33.717 59.8739 56.2514C72.2717 73.7812 83.6371 87.743 93.6518 97.7494C100.651 104.744 106.979 109.792 112.582 112.863C113.605 113.424 114.603 113.918 115.576 114.347C116.606 114.799 117.608 115.18 118.584 115.486C119.618 115.811 120.621 116.052 121.592 116.207C122.5 116.356 123.381 116.431 124.235 116.432C124.355 116.432 124.473 116.43 124.592 116.428C125.583 116.406 126.608 116.286 127.668 116.071C126.698 115.914 125.696 115.674 124.661 115.348C123.687 115.043 122.684 114.663 121.655 114.209C120.677 113.779 119.672 113.281 118.644 112.717C117.667 112.182 116.668 111.586 115.648 110.929C110.818 107.825 105.502 103.38 99.7296 97.6117C89.7136 87.6053 78.3482 73.6435 65.949 56.1137C50.0685 33.6595 36.5116 10.9828 30.6783 0.964022L24.5383 0.992066Z" fill="#E1B15C"/>
<path d="M12.2557 1.0524C17.981 10.8987 31.661 33.8269 47.7169 56.5296C60.1161 74.0595 71.4815 88.0226 81.4962 98.0277C91.1284 107.651 99.489 113.592 106.441 115.768L106.442 115.768C107.472 116.089 108.468 116.329 109.434 116.485C110.345 116.634 111.226 116.709 112.08 116.709C112.198 116.71 112.317 116.709 112.436 116.706L118.335 116.572C118.276 116.572 118.217 116.573 118.156 116.572C117.304 116.571 116.422 116.498 115.515 116.349L115.514 116.349C114.543 116.193 113.538 115.95 112.502 115.627C111.532 115.321 110.535 114.945 109.51 114.495C103.197 111.718 95.8554 106.167 87.5727 97.8913C77.5567 87.885 66.1913 73.9232 53.7934 56.3933C37.7982 33.7747 24.1588 10.9308 18.397 1.02435L12.2557 1.0524Z" fill="#E1B15C"/>
<path d="M0.00549775 1.10252C5.65242 10.8232 19.4164 33.9265 35.5937 56.7977C47.9916 74.3276 59.357 88.2893 69.373 98.2957C81.7702 110.684 92.0615 116.969 99.9579 116.977C100.074 116.978 100.195 116.976 100.313 116.973C101.297 116.951 102.317 116.832 103.374 116.62C95.8711 115.41 86.4852 109.215 75.42 98.1582C65.404 88.1518 54.0386 74.19 41.6394 56.6615C25.5227 33.8745 11.7994 10.8581 6.11465 1.07462L0.00549775 1.10252Z" fill="#E1B15C"/>
<path d="M139.807 115.797C140.71 115.945 141.583 116.017 142.432 116.019C142.55 116.018 142.669 116.016 142.788 116.016C150.634 115.836 160.73 109.578 172.809 97.3992C182.713 87.4131 193.923 73.4756 206.127 55.9714C222.245 32.8549 235.888 9.49766 241.297 0L235.312 0.0273337C229.946 9.45374 216.259 32.9024 200.08 56.1076C187.877 73.6118 176.666 87.5493 166.763 97.5354C156.203 108.184 147.156 114.308 139.807 115.797Z" fill="#FFDA9A"/>
<path d="M133.788 113.948C134.817 114.401 135.821 114.78 136.795 115.084C143.547 112.718 151.549 106.892 160.685 97.6808C170.59 87.6947 181.801 73.7572 194.005 56.2517C210.245 32.9576 223.974 9.41766 229.297 0.0625L223.283 0.0899684C218.007 9.3685 204.233 33.0025 187.927 56.3894C175.723 73.8935 164.513 87.8324 154.609 97.8185C146.821 105.67 139.856 111.062 133.788 113.948Z" fill="#FFDA9A"/>
<path d="M127.772 110.661C128.799 111.321 129.803 111.92 130.787 112.457C136.101 109.359 142.032 104.515 148.537 97.9546C158.441 87.9698 169.652 74.0296 181.855 56.5268C198.226 33.0472 212.044 9.31774 217.273 0.117188L211.258 0.144662C206.078 9.2659 192.215 33.0907 175.78 56.6645C163.576 74.1673 152.365 88.1062 142.46 98.0923C137.177 103.417 132.275 107.613 127.772 110.661Z" fill="#FFDA9A"/>
<path d="M121.753 106.294C122.772 107.109 123.773 107.874 124.756 108.587C128.395 105.82 132.273 102.363 136.38 98.2205C146.285 88.2358 157.495 74.2969 169.699 56.7914C186.201 33.1235 200.11 9.20196 205.242 0.164062L199.256 0.191402C194.176 9.14594 180.221 33.1656 163.652 56.929C151.449 74.4331 140.238 88.372 130.333 98.3581C127.352 101.365 124.491 104.01 121.753 106.294Z" fill="#FFDA9A"/>
</svg>
