<svg width="18" height="18" viewBox="0 0 18 18" fill="none" xmlns="http://www.w3.org/2000/svg">
<circle cx="9" cy="9" r="9" fill="#FFD600"/>
<path d="M6.15758 13.6093C6.38976 13.6093 6.5845 13.5308 6.7418 13.3737C6.89908 13.2166 6.97772 13.022 6.97772 12.7898C6.97772 12.5576 6.89918 12.3629 6.74211 12.2056C6.58503 12.0483 6.3904 11.9697 6.1582 11.9697C5.92601 11.9697 5.73127 12.0482 5.57398 12.2053C5.4167 12.3623 5.33806 12.557 5.33806 12.7892C5.33806 13.0214 5.41659 13.2161 5.57367 13.3734C5.73074 13.5307 5.92538 13.6093 6.15758 13.6093ZM8.99969 13.6093C9.23188 13.6093 9.42662 13.5308 9.58391 13.3737C9.74119 13.2166 9.81983 13.022 9.81983 12.7898C9.81983 12.5576 9.74129 12.3629 9.58422 12.2056C9.42715 12.0483 9.23251 11.9697 9.00031 11.9697C8.76812 11.9697 8.57338 12.0482 8.41609 12.2053C8.25881 12.3623 8.18017 12.557 8.18017 12.7892C8.18017 13.0214 8.25871 13.2161 8.41578 13.3734C8.57285 13.5307 8.76749 13.6093 8.99969 13.6093ZM11.8418 13.6093C12.074 13.6093 12.2687 13.5308 12.426 13.3737C12.5833 13.2166 12.6619 13.022 12.6619 12.7898C12.6619 12.5576 12.5834 12.3629 12.4263 12.2056C12.2693 12.0483 12.0746 11.9697 11.8424 11.9697C11.6102 11.9697 11.4155 12.0482 11.2582 12.2053C11.1009 12.3623 11.0223 12.557 11.0223 12.7892C11.0223 13.0214 11.1008 13.2161 11.2579 13.3734C11.415 13.5307 11.6096 13.6093 11.8418 13.6093ZM8.00526 10.5577L13.0063 5.5421L12.0079 4.52917L7.98764 8.55549L5.97753 6.54233L4.97917 7.53158L8.00526 10.5577ZM9.00159 18C7.7568 18 6.58677 17.7638 5.49148 17.2914C4.39618 16.8189 3.44342 16.1778 2.63322 15.368C1.82299 14.5581 1.18157 13.6058 0.708942 12.511C0.236314 11.4162 0 10.2464 0 9.00159C0 7.7568 0.236211 6.58677 0.708634 5.49148C1.18106 4.39618 1.82219 3.44343 2.63203 2.63322C3.44189 1.823 4.39423 1.18157 5.48904 0.708942C6.58384 0.236315 7.75363 0 8.99841 0C10.2432 0 11.4132 0.236212 12.5085 0.708634C13.6038 1.18106 14.5566 1.82219 15.3668 2.63203C16.177 3.44189 16.8184 4.39423 17.2911 5.48904C17.7637 6.58384 18 7.75363 18 8.99841C18 10.2432 17.7638 11.4132 17.2914 12.5085C16.8189 13.6038 16.1778 14.5566 15.368 15.3668C14.5581 16.177 13.6058 16.8184 12.511 17.2911C11.4162 17.7637 10.2464 18 9.00159 18Z" fill="#1C1B1F"/>
</svg>
