<svg width="17" height="16" viewBox="0 0 17 16" fill="none" xmlns="http://www.w3.org/2000/svg">
<rect x="0.5" width="16" height="16" rx="8" fill="#FFCF4F"/>
<path fill-rule="evenodd" clip-rule="evenodd" d="M9.05837 4.30542L9.88278 5.9524C9.96357 6.11408 10.1195 6.2262 10.3004 6.25214L12.1446 6.5176C12.6003 6.58339 12.7816 7.13562 12.4518 7.45205L11.1182 8.73349C10.9872 8.85951 10.9275 9.04065 10.9585 9.21855L11.2732 11.0277C11.3507 11.4752 10.8744 11.8166 10.4671 11.6049L8.8188 10.7502C8.65721 10.6663 8.46367 10.6663 8.30161 10.7502L6.65326 11.6049C6.24599 11.8166 5.76967 11.4752 5.84765 11.0277L6.16191 9.21855C6.19291 9.04065 6.13325 8.85951 6.00219 8.73349L4.66858 7.45205C4.33882 7.13562 4.52014 6.58339 4.97579 6.5176L6.82002 6.25214C7.00088 6.2262 7.1573 6.11408 7.2381 5.9524L8.06204 4.30542C8.26591 3.89819 8.8545 3.89819 9.05837 4.30542Z" fill="#161D3B"/>
</svg>
