<svg width="19" height="19" viewBox="0 0 19 19" fill="none" xmlns="http://www.w3.org/2000/svg">
<path d="M9.04499 0.909195C6.64611 0.909195 4.34548 1.86215 2.64922 3.55841C0.952952 5.25468 0 7.55531 0 9.95419C0 12.3531 0.952952 14.6537 2.64922 16.35C4.34548 18.0462 6.64611 18.9992 9.04499 18.9992C9.19816 18.9992 9.35092 18.9951 9.50327 18.9868C10.7052 18.9247 11.8828 18.6244 12.9677 18.1032C14.0526 17.582 15.023 16.8505 15.8227 15.951C16.9802 14.647 17.7359 13.036 17.9987 11.3122C18.2615 9.58844 18.0202 7.82546 17.3039 6.23571C16.5876 4.64596 15.4268 3.29729 13.9614 2.35221C12.4961 1.40714 10.7887 0.906008 9.04499 0.909195ZM3.17178 15.8536C3.17178 15.8509 3.17178 15.8509 3.17479 15.8479C3.22873 15.9126 3.28588 15.9746 3.34604 16.0336C3.28574 15.9736 3.22876 15.9136 3.17178 15.8536ZM14.9303 15.8536C14.876 15.9139 14.8187 15.9742 14.7587 16.0309C14.819 15.9706 14.8762 15.9103 14.9303 15.85V15.8536Z" fill="#FFD600"/>
<path d="M9.04499 0.909195C6.64611 0.909195 4.34548 1.86215 2.64922 3.55841C0.952952 5.25468 0 7.55531 0 9.95419C0 12.3531 0.952952 14.6537 2.64922 16.35C4.34548 18.0462 6.64611 18.9992 9.04499 18.9992C9.19816 18.9992 9.35092 18.9951 9.50327 18.9868C10.7052 18.9247 11.8828 18.6244 12.9677 18.1032C14.0526 17.582 15.023 16.8505 15.8227 15.951C16.9802 14.647 17.7359 13.036 17.9987 11.3122C18.2615 9.58844 18.0202 7.82546 17.3039 6.23571C16.5876 4.64596 15.4268 3.29729 13.9614 2.35221C12.4961 1.40714 10.7887 0.906008 9.04499 0.909195ZM3.17178 15.8536C3.17178 15.8509 3.17178 15.8509 3.17479 15.8479C3.22873 15.9126 3.28588 15.9746 3.34604 16.0336C3.28574 15.9736 3.22876 15.9136 3.17178 15.8536ZM14.9303 15.8536C14.876 15.9139 14.8187 15.9742 14.7587 16.0309C14.819 15.9706 14.8762 15.9103 14.9303 15.85V15.8536ZM15.6961 15.1641C15.6032 15.2847 15.5046 15.3987 15.4042 15.5132C15.3849 15.4641 15.3687 15.4137 15.3475 15.3652C14.8236 14.1286 13.9473 13.0736 12.8277 12.3319C11.7081 11.5901 10.3949 11.1944 9.05192 11.1941C7.70893 11.1938 6.39557 11.589 5.27568 12.3302C4.15579 13.0715 3.27893 14.1261 2.7545 15.3625C2.7334 15.4104 2.71742 15.4614 2.69812 15.5105C2.59772 15.396 2.49883 15.2811 2.40597 15.1611C1.23416 13.6789 0.59867 11.8436 0.603 9.95419C0.601943 8.60743 0.92288 7.27994 1.53905 6.08241C2.15522 4.88488 3.04876 3.85201 4.14517 3.06994C5.24158 2.28786 6.50907 1.77925 7.84196 1.5865C9.17485 1.39376 10.5345 1.52247 11.8076 1.96191C13.0806 2.40135 14.2301 3.13877 15.1603 4.11269C16.0905 5.08662 16.7743 6.26881 17.1548 7.56069C17.5354 8.85257 17.6015 10.2167 17.3477 11.5393C17.094 12.862 16.5277 14.1048 15.6961 15.1641Z" fill="#161D3B"/>
<path d="M9.05252 3.90332C8.40583 3.90302 7.77356 4.0945 7.23569 4.45354C6.69781 4.81258 6.27848 5.32305 6.03072 5.92041C5.78297 6.51776 5.71791 7.17518 5.84379 7.80951C5.96966 8.44384 6.2808 9.0266 6.73788 9.48409C7.19495 9.94159 7.77742 10.2533 8.41164 10.3797C9.04585 10.5062 9.70332 10.4417 10.3009 10.1945C10.8985 9.94733 11.4094 9.52847 11.7689 8.99092C12.1284 8.45338 12.3205 7.82129 12.3208 7.17459C12.3197 6.30786 11.9751 5.4769 11.3625 4.86375C10.7499 4.2506 9.91925 3.90523 9.05252 3.90332Z" fill="#161D3B"/>
</svg>
