<svg width="18" height="18" viewBox="0 0 18 18" fill="none" xmlns="http://www.w3.org/2000/svg">
<circle cx="9.5" cy="9.5" r="5.5" fill="#FFD600"/>
<path d="M9 1C11.1217 1 13.1566 1.84285 14.6569 3.34315C16.1571 4.84344 17 6.87827 17 9C17 11.1217 16.1571 13.1566 14.6569 14.6569C13.1566 16.1571 11.1217 17 9 17C6.87827 17 4.84344 16.1571 3.34315 14.6569C1.84285 13.1566 1 11.1217 1 9C1 6.87827 1.84285 4.84344 3.34315 3.34315C4.84344 1.84285 6.87827 1 9 1ZM8.00343 10.5783L6.22629 8.8C6.16258 8.73629 6.08694 8.68575 6.0037 8.65127C5.92046 8.61679 5.83124 8.59905 5.74114 8.59905C5.65104 8.59905 5.56183 8.61679 5.47859 8.65127C5.39534 8.68575 5.31971 8.73629 5.256 8.8C5.12733 8.92867 5.05505 9.10318 5.05505 9.28514C5.05505 9.46711 5.12733 9.64162 5.256 9.77029L7.51886 12.0331C7.58239 12.0972 7.65796 12.148 7.74123 12.1827C7.82449 12.2174 7.9138 12.2352 8.004 12.2352C8.0942 12.2352 8.18351 12.2174 8.26677 12.1827C8.35004 12.148 8.42561 12.0972 8.48914 12.0331L13.1749 7.34629C13.2394 7.28284 13.2908 7.20724 13.326 7.12385C13.3612 7.04045 13.3795 6.95091 13.3799 6.8604C13.3804 6.76988 13.3629 6.68017 13.3284 6.59646C13.294 6.51274 13.2434 6.43666 13.1794 6.37262C13.1154 6.30858 13.0394 6.25783 12.9557 6.22331C12.872 6.18879 12.7824 6.17118 12.6918 6.1715C12.6013 6.17181 12.5118 6.19004 12.4283 6.22514C12.3449 6.26024 12.2692 6.31151 12.2057 6.376L8.00343 10.5783Z" fill="#161D3B"/>
</svg>
