<svg width="14" height="14" viewBox="0 0 14 14" fill="none" xmlns="http://www.w3.org/2000/svg">
<path d="M13.9418 13.9419V8.85665C13.9418 6.35739 13.4037 4.44824 10.4879 4.44824C9.08211 4.44824 8.14489 5.2119 7.76306 5.94085H7.72834V4.67387H4.96875V13.9419H7.84984V9.34261C7.84984 8.1277 8.07546 6.96485 9.56807 6.96485C11.0433 6.96485 11.0607 8.33597 11.0607 9.41204V13.9246H13.9418V13.9419Z" fill="#FFD600"/>
<path d="M0.283203 4.67383H3.16429V13.9419H0.283203V4.67383Z" fill="#FFD600"/>
<path d="M1.72281 0.0576172C0.802946 0.0576172 0.0566406 0.803922 0.0566406 1.72379C0.0566406 2.64365 0.802946 3.40731 1.72281 3.40731C2.64267 3.40731 3.38898 2.64365 3.38898 1.72379C3.38898 0.803922 2.64267 0.0576172 1.72281 0.0576172Z" fill="#FFD600"/>
</svg>
