<svg width="24" height="24" viewBox="0 0 24 24" fill="none" xmlns="http://www.w3.org/2000/svg">
<rect width="24" height="24" rx="5" fill="#B14747"/>
<path d="M18.3799 15.0593C17.7253 15.0099 17.0805 14.8868 16.4573 14.6935C15.2666 14.3242 14.0059 14.0517 12.8057 14.3887C12.4722 14.4823 12.1403 14.5811 11.8099 14.685C10.7103 15.0307 9.83147 15.8257 9.17498 16.7731C8.18164 18.2067 7.3914 18.8218 6.60116 18.8218C6.12698 18.8061 5.67916 18.6011 5.35806 18.2518C4.51064 17.2435 5.79164 16.0086 7.15132 15.1131C8.00236 14.5525 8.77043 13.8517 9.22763 12.941C9.52737 12.3439 9.8159 11.7413 10.093 11.1334C10.6034 10.0136 10.5739 8.74565 10.4017 7.5272C10.314 6.90684 10.2868 6.27846 10.3209 5.65099C10.3469 5.17381 10.4482 4.66424 10.8265 4.37214C10.965 4.26518 11.1233 4.18302 11.2947 4.13152C11.6998 4.00973 12.1385 4.07158 12.4942 4.30027C12.8504 4.52895 13.0883 4.90195 13.1459 5.32151C13.2405 6.0136 13.2452 6.71278 13.1617 7.4018C13.0313 8.47755 12.9175 9.6259 13.5362 10.5156C13.653 10.6835 13.7786 10.8452 13.9125 10.9998C14.6618 11.8649 15.8733 12.0184 17.0175 11.9938C17.9968 11.9727 19.0114 12.0804 19.5087 12.5506C19.776 12.8392 19.9188 13.2218 19.9058 13.6146C19.8932 14.0079 19.7256 14.3801 19.4396 14.6508C19.1541 14.9211 18.7732 15.0681 18.3799 15.0593Z" fill="white"/>
<path d="M6.07813 17.9972C6.07813 17.9972 6.07813 17.9972 6.07813 17.9972C6.07815 17.9972 6.79433 17.7087 7.97003 15.8594C7.97005 15.8594 7.97008 15.8594 7.97012 15.8594C7.97022 15.8594 7.97026 15.8595 7.97018 15.8596C7.20828 16.444 6.5659 17.1698 6.07813 17.9972C6.07813 17.9972 6.07813 17.9972 6.07813 17.9972Z" fill="#B14747"/>
<path d="M11.4483 6.69089C11.3895 6.31594 11.0931 6.42396 11.0631 6.80232C11.0071 7.51136 11.545 7.5162 11.4643 6.80954C11.4596 6.76875 11.4543 6.72913 11.4483 6.69089Z" fill="#B14747"/>
<path d="M11.1683 11.2423C11.1683 11.2423 11.1683 11.2423 11.1683 11.2423C10.8964 12.0217 10.5837 12.7861 10.2317 13.5323C10.0604 13.8954 10.4437 14.3065 10.8189 14.1638C11.0925 14.0597 11.3683 13.9618 11.6462 13.87C12.2169 13.6815 12.3873 12.8884 11.9956 12.4326C11.6807 12.0662 11.4032 11.6675 11.1683 11.2423C11.1683 11.2423 11.1683 11.2423 11.1683 11.2423Z" fill="#B14747"/>
<path d="M17.7687 14.0959C17.3174 13.7188 17.3846 14.7575 17.7922 14.3335C17.8301 14.2941 17.8266 14.3213 17.8454 14.27C17.8636 14.2203 17.8432 14.1582 17.7687 14.0959Z" fill="#B14747"/>
</svg>
