<svg width="20" height="20" viewBox="0 0 20 20" fill="none" xmlns="http://www.w3.org/2000/svg">
<path d="M15.5 10C15.5 13.0376 13.0376 15.5 10 15.5C6.96243 15.5 4.5 13.0376 4.5 10C4.5 6.96243 6.96243 4.5 10 4.5C13.0376 4.5 15.5 6.96243 15.5 10Z" fill="#FFD600" stroke="#161D3B"/>
<path d="M10 0C7.95672 0.00203001 5.96288 0.628573 4.28571 1.79566V1.42857C4.28571 1.23913 4.21046 1.05745 4.0765 0.923495C3.94255 0.78954 3.76087 0.714286 3.57143 0.714286C3.38199 0.714286 3.20031 0.78954 3.06635 0.923495C2.9324 1.05745 2.85714 1.23913 2.85714 1.42857V3.57143C2.85709 3.66524 2.87553 3.75815 2.9114 3.84484C2.94728 3.93152 2.99989 4.01028 3.06623 4.07662C3.13257 4.14296 3.21133 4.19557 3.29802 4.23145C3.3847 4.26733 3.47761 4.28577 3.57143 4.28571H5.71428C5.90372 4.28571 6.08541 4.21046 6.21936 4.0765C6.35331 3.94255 6.42857 3.76087 6.42857 3.57143C6.42857 3.38199 6.35331 3.20031 6.21936 3.06635C6.08541 2.9324 5.90372 2.85714 5.71428 2.85714H5.27091C6.86282 1.8046 8.76058 1.3137 10.6632 1.46228C12.5658 1.61087 14.3644 2.39043 15.7736 3.67734C17.1828 4.96425 18.122 6.68483 18.4422 8.56618C18.7625 10.4475 18.4454 12.3819 17.5413 14.0626C16.6373 15.7433 15.1979 17.074 13.4516 17.8437C11.7053 18.6134 9.752 18.778 7.9015 18.3114C6.05101 17.8449 4.40926 16.7738 3.23666 15.2681C2.06405 13.7625 1.42771 11.9084 1.42857 10C1.42857 9.81056 1.35332 9.62888 1.21936 9.49492C1.08541 9.36097 0.903726 9.28571 0.714286 9.28571C0.524845 9.28571 0.343164 9.36097 0.209209 9.49492C0.0752548 9.62888 0 9.81056 0 10C0 11.9778 0.58649 13.9112 1.6853 15.5557C2.78412 17.2002 4.3459 18.4819 6.17316 19.2388C8.00043 19.9957 10.0111 20.1937 11.9509 19.8078C13.8907 19.422 15.6725 18.4696 17.0711 17.0711C18.4696 15.6725 19.422 13.8907 19.8078 11.9509C20.1937 10.0111 19.9957 8.00043 19.2388 6.17316C18.4819 4.3459 17.2002 2.78412 15.5557 1.6853C13.9112 0.58649 11.9778 0 10 0Z" fill="#161D3B"/>
<path d="M12.171 11.2752L10.4691 10.1406V7.16619C10.4691 6.9895 10.3989 6.82006 10.274 6.69512C10.149 6.57019 9.97959 6.5 9.80291 6.5C9.62622 6.5 9.45677 6.57019 9.33184 6.69512C9.20691 6.82006 9.13672 6.9895 9.13672 7.16619V10.4971C9.13674 10.6068 9.16383 10.7148 9.21558 10.8114C9.26733 10.9081 9.34214 10.9905 9.43338 11.0514L11.4319 12.3838C11.579 12.4797 11.7579 12.5138 11.9299 12.4785C12.1019 12.4432 12.253 12.3415 12.3504 12.1954C12.4477 12.0494 12.4835 11.8708 12.4499 11.6984C12.4164 11.5261 12.3161 11.374 12.171 11.2752Z" fill="#161D3B"/>
</svg>
