<svg width="37" height="44" viewBox="0 0 37 44" fill="none" xmlns="http://www.w3.org/2000/svg">
<circle cx="17.1486" cy="26.5568" r="17.1486" fill="#161D3B"/>
<rect width="24.6584" height="32.6475" rx="2.33223" transform="matrix(0.991034 0.133611 -0.133679 0.991025 8.875 1.51758)" fill="#FFD600"/>
<rect x="12.2367" y="0.360382" width="24.2697" height="32.2589" rx="2.13788" transform="rotate(8.76894 12.2367 0.360382)" fill="white" stroke="#1A213F" stroke-width="0.388705"/>
<rect x="7.42091" y="0.219743" width="24.2698" height="32.2587" rx="2.13788" fill="white" stroke="#1A213F" stroke-width="0.388705"/>
<rect x="15.2461" y="22.5625" width="9.12409" height="1.07342" rx="0.388705" fill="#C3C1C1"/>
<rect x="10.9844" y="25.5117" width="17.9941" height="1.07532" rx="0.194352" fill="#C4C1C1"/>
<path d="M19.6751 4.30078L21.4615 5.60352L23.6726 5.59931L24.3519 7.703L26.1432 8.99892L25.456 11.1L26.1432 13.201L24.3519 14.497L23.6726 16.6006L21.4615 16.5964L19.6751 17.8992L17.8888 16.5964L15.6776 16.6006L14.9983 14.497L13.207 13.201L13.8943 11.1L13.207 8.99892L14.9983 7.703L15.6776 5.59931L17.8888 5.60352L19.6751 4.30078Z" fill="#FFD600"/>
<path d="M17.5 11.5L19.1624 13.0447L22 10" stroke="#161D3B" stroke-linecap="round" stroke-linejoin="round"/>
</svg>
