<svg width="35" height="44" viewBox="0 0 35 44" fill="none" xmlns="http://www.w3.org/2000/svg">
<circle cx="16.8585" cy="26.7628" r="16.8585" fill="#161D3B"/>
<path d="M4.625 6.49609C4.625 4.83924 5.96815 3.49609 7.625 3.49609H27.4166C29.0734 3.49609 30.4166 4.83924 30.4166 6.49609V34.1573C30.4166 35.8142 29.0734 37.1573 27.4166 37.1573H9.125C6.63972 37.1573 4.625 35.1426 4.625 32.6573V6.49609Z" fill="#FFD600"/>
<rect x="7.89817" y="1.09348" width="26.1046" height="32.9742" rx="2.54654" fill="white" stroke="#1A213F" stroke-width="0.686963"/>
<g clip-path="url(#clip0_2233_15337)">
<mask id="mask0_2233_15337" style="mask-type:luminance" maskUnits="userSpaceOnUse" x="9" y="6" width="25" height="25">
<path d="M9 6.00196H33.334V30.3359H9V6.00196Z" fill="white"/>
</mask>
<g mask="url(#mask0_2233_15337)">
<path d="M26.9788 22.0382L29.6351 27.1184L29.618 27.1275L25.7455 26.079L24.3962 29.8574L21.4414 24.2064" fill="#FFD600"/>
<path d="M26.9788 22.0382L29.6351 27.1184L29.618 27.1275L25.7455 26.079L24.3962 29.8574L21.4414 24.2064" stroke="#161D3B" stroke-width="0.950546" stroke-miterlimit="10" stroke-linejoin="round"/>
<path d="M15.3516 22.0382L12.6953 27.1184L12.7124 27.1275L16.5849 26.079L17.9342 29.8574L20.889 24.2064" fill="#FFD600"/>
<path d="M15.3516 22.0382L12.6953 27.1184L12.7124 27.1275L16.5849 26.079L17.9342 29.8574L20.889 24.2064" stroke="#161D3B" stroke-width="0.950546" stroke-miterlimit="10" stroke-linejoin="round"/>
<path d="M23.304 6.73386C27.1686 7.69082 30.0335 11.1821 30.0335 15.3426C30.0335 20.2405 26.0631 24.2109 21.1652 24.2109C16.2674 24.2109 12.2969 20.2405 12.2969 15.3426C12.2969 11.1821 15.1618 7.69087 19.0264 6.73386" stroke="#161D3B" stroke-width="0.950546" stroke-miterlimit="10" stroke-linecap="round" stroke-linejoin="round"/>
<path d="M21.638 6.4759C21.638 6.73839 21.4253 6.95117 21.1628 6.95117C20.9003 6.95117 20.6875 6.73839 20.6875 6.4759C20.6875 6.21341 20.9003 6.00063 21.1628 6.00063C21.4253 6.00063 21.638 6.21341 21.638 6.4759Z" fill="#161D3B"/>
<path d="M21.1639 21.8359C17.5842 21.8359 14.6719 18.9237 14.6719 15.3439C14.6719 11.7643 17.5842 8.852 21.1639 8.852C24.7435 8.852 27.6559 11.7643 27.6559 15.3439C27.6559 18.9237 24.7435 21.8359 21.1639 21.8359Z" fill="#FFD600" stroke="#161D3B" stroke-width="0.950546" stroke-miterlimit="10" stroke-linejoin="round"/>
<path d="M21.4604 13.1124L22.0152 14.2307C22.0453 14.2909 22.1013 14.3296 22.1658 14.3382L23.4002 14.5189C23.5078 14.5361 23.5852 14.635 23.568 14.7425C23.5637 14.7856 23.5422 14.8243 23.5078 14.8544L22.6174 15.7318C22.5701 15.7792 22.5486 15.8437 22.5615 15.9082L22.7723 17.1384C22.7895 17.2459 22.7206 17.3491 22.6088 17.3663C22.5658 17.3749 22.5228 17.3663 22.4841 17.3448L21.3786 16.7641C21.3227 16.734 21.2496 16.734 21.1937 16.7641L20.0883 17.3448C19.9936 17.3964 19.8732 17.3577 19.8216 17.2631C19.8001 17.2244 19.7958 17.1814 19.8001 17.1384L20.0108 15.9082C20.0237 15.8437 20.0022 15.7792 19.9549 15.7318L19.0603 14.8587C18.9828 14.7813 18.9785 14.6565 19.056 14.5791C19.0861 14.549 19.1248 14.5275 19.1721 14.5189L20.4109 14.3382C20.4754 14.3296 20.5313 14.2866 20.5614 14.2307L21.1163 13.1124C21.1636 13.0134 21.284 12.9747 21.3829 13.022C21.4131 13.0435 21.4432 13.0737 21.4604 13.1124Z" fill="#161D3B"/>
</g>
</g>
<defs>
<clipPath id="clip0_2233_15337">
<rect width="24.334" height="24.334" fill="white" transform="translate(9 6)"/>
</clipPath>
</defs>
</svg>
