<svg width="42" height="44" viewBox="0 0 42 44" fill="none" xmlns="http://www.w3.org/2000/svg">
<circle cx="16.8585" cy="26.7628" r="16.8585" fill="#161D3B"/>
<path d="M4.625 6.49609C4.625 4.83924 5.96815 3.49609 7.625 3.49609H27.4166C29.0734 3.49609 30.4166 4.83924 30.4166 6.49609V34.1573C30.4166 35.8142 29.0734 37.1573 27.4166 37.1573H9.125C6.63972 37.1573 4.625 35.1426 4.625 32.6573V6.49609Z" fill="#FFD600"/>
<rect x="7.89817" y="1.09348" width="26.1046" height="32.9742" rx="2.54654" fill="white" stroke="#1A213F" stroke-width="0.686963"/>
<path fill-rule="evenodd" clip-rule="evenodd" d="M39.0962 19.9038C41.6346 22.4422 41.6346 26.5578 39.0962 29.0962C36.5578 31.6346 32.4422 31.6346 29.9038 29.0962C27.3654 26.5578 27.3654 22.4422 29.9038 19.9038C32.4422 17.3654 36.5578 17.3654 39.0962 19.9038Z" fill="#FFD600"/>
<path d="M39.0962 19.9038C41.6346 22.4422 41.6346 26.5578 39.0962 29.0962C36.5578 31.6346 32.4422 31.6346 29.9038 29.0962C27.3654 26.5578 27.3654 22.4422 29.9038 19.9038C32.4422 17.3654 36.5578 17.3654 39.0962 19.9038" stroke="#161D3B" stroke-width="0.69" stroke-linecap="round" stroke-linejoin="round"/>
<path d="M38.4093 28.8555L38.6621 29.4903L36.3106 30.421L33 30.5L31 29.5L30.5 29L30.5898 28.8555C30.7184 28.5334 30.9163 28.2445 31.1705 28.0091L31.2167 27.9657C31.6176 27.5952 32.1433 27.3887 32.6893 27.3887H36.3106C36.8566 27.3887 37.3823 27.5952 37.7825 27.9664L37.8287 28.0091C38.0829 28.2445 38.2815 28.5334 38.4093 28.8555Z" fill="#161D3B" stroke="#161D3B" stroke-width="0.69" stroke-linecap="round" stroke-linejoin="round"/>
<path fill-rule="evenodd" clip-rule="evenodd" d="M36.1017 21.6629C36.9855 22.5467 36.9855 23.9796 36.1017 24.8634C35.2179 25.7472 33.7849 25.7472 32.9011 24.8634C32.0173 23.9796 32.0173 22.5467 32.9011 21.6629C33.7849 20.779 35.2179 20.779 36.1017 21.6629Z" fill="#161D3B"/>
<path d="M36.1017 21.6629C36.9855 22.5467 36.9855 23.9796 36.1017 24.8634C35.2179 25.7472 33.7849 25.7472 32.9011 24.8634C32.0173 23.9796 32.0173 22.5467 32.9011 21.6629C33.7849 20.779 35.2179 20.779 36.1017 21.6629" stroke="#161D3B" stroke-width="0.61776" stroke-linecap="round" stroke-linejoin="round"/>
<rect x="10.8789" y="5.55664" width="18.0051" height="1.48103" rx="0.740517" fill="#C4C1C1"/>
<rect x="10.8789" y="8.30664" width="13.8833" height="1.48103" rx="0.740517" fill="#C4C1C1"/>
<rect x="10.8789" y="11.0547" width="17.3181" height="1.48103" rx="0.740517" fill="#C4C1C1"/>
<rect x="10.8789" y="13.8027" width="14.5702" height="1.48103" rx="0.740517" fill="#C4C1C1"/>
</svg>
