<svg width="48" height="49" viewBox="0 0 48 49" fill="none" xmlns="http://www.w3.org/2000/svg">
<circle cx="20.8585" cy="30.7628" r="16.8585" fill="#161D3B"/>
<path d="M35.6118 14H12.3882C11.0713 14 10 15.1274 10 16.5131V34.3463C10 35.732 11.0713 36.8594 12.3882 36.8594H19.8637C20.7305 36.8594 21.5515 37.2484 22.1004 37.9192L24.3782 40.703C24.6872 41.099 25.3128 41.099 25.6218 40.703L27.8996 37.9192C28.4485 37.2484 29.2695 36.8594 30.1363 36.8594H35.6118C36.9287 36.8594 38 35.732 38 34.3463V16.5131C38 15.1274 36.9287 14 35.6118 14Z" fill="#FFD600"/>
<path d="M26.1717 36.5017L26.1717 36.5016L26.1667 36.4955L24.0013 33.8381C23.3872 33.0846 22.4667 32.6473 21.4947 32.6473H15.3029C14.2404 32.6473 13.3435 31.7275 13.3435 30.5574V13.4334C13.3435 12.2632 14.2404 11.3435 15.3029 11.3435H37.6971C38.7596 11.3435 39.6565 12.2632 39.6565 13.4334V30.5574C39.6565 31.7275 38.7596 32.6473 37.6971 32.6473H31.5053C30.5333 32.6473 29.6128 33.0846 28.9987 33.8381L26.8333 36.4955L26.8332 36.4954L26.8284 36.5017C26.6679 36.7081 26.3321 36.7081 26.1717 36.5017Z" fill="white" stroke="#1A213F" stroke-width="0.686963"/>
<rect x="15.8789" y="16.5566" width="18.0051" height="1.48103" rx="0.740517" fill="#C4C1C1"/>
<rect x="15.8789" y="19.3066" width="13.8833" height="1.48103" rx="0.740517" fill="#C4C1C1"/>
<rect x="15.8789" y="22.0547" width="17.3181" height="1.48103" rx="0.740517" fill="#C4C1C1"/>
<rect x="15.8789" y="24.8027" width="14.5702" height="1.48103" rx="0.740517" fill="#C4C1C1"/>
<path d="M33.4693 7.47636L33.3684 8.75701C33.353 8.95217 33.4401 9.14174 33.5988 9.25696C33.7576 9.37244 33.9652 9.3959 34.1453 9.32151L35.332 8.82945L36.5187 9.32151C36.7 9.39657 36.9068 9.3718 37.0651 9.25696C37.2239 9.14174 37.311 8.95217 37.2956 8.75701L37.1946 7.47636L38.0289 6.49932C38.1561 6.35033 38.1971 6.14612 38.1366 5.9596C38.0758 5.77345 37.9231 5.63192 37.7324 5.58613L36.483 5.28622L35.812 4.19059C35.7099 4.02358 35.5279 3.92188 35.332 3.92188C35.1361 3.92188 34.9544 4.02358 34.852 4.19063L34.1809 5.28626L32.9315 5.58617C32.7412 5.63196 32.5881 5.77345 32.5277 5.95963C32.4669 6.14616 32.5078 6.35037 32.635 6.49936L33.4693 7.47636Z" fill="#FFD600" stroke="#161D3B" stroke-width="0.69"/>
<path d="M23.9897 6.46252L23.8345 8.43063C23.8109 8.73055 23.9447 9.02188 24.1886 9.19895C24.432 9.37544 24.7498 9.4135 25.0284 9.29815L26.8522 8.54201L28.6759 9.29821C28.9526 9.41258 29.2721 9.37642 29.5157 9.199C29.7597 9.02194 29.8935 8.73061 29.8698 8.43069L29.7147 6.46258L30.9968 4.96108C31.1924 4.7321 31.2552 4.41828 31.1618 4.13163C31.0689 3.84555 30.8336 3.62805 30.5412 3.55768L28.6211 3.09679L27.5899 1.41302C27.4324 1.1563 27.1532 1 26.8522 1C26.5511 1 26.2719 1.1563 26.1145 1.41302L25.0832 3.09679L23.1631 3.55768C22.8707 3.62805 22.6354 3.84549 22.5425 4.13163C22.4491 4.41828 22.512 4.7321 22.7075 4.96108L23.9897 6.46252Z" fill="#FFD600" stroke="#161D3B" stroke-width="0.69"/>
<path d="M16.4693 7.47617L16.3683 8.75676C16.3529 8.95191 16.44 9.14147 16.5987 9.25668C16.7571 9.37152 16.9639 9.39629 17.1452 9.32123L18.3318 8.82919L19.5185 9.32123C19.6985 9.39565 19.9064 9.37212 20.0649 9.25668C20.2236 9.14147 20.3107 8.95191 20.2953 8.75676L20.1944 7.47617L21.0286 6.49919C21.1558 6.3502 21.1968 6.14601 21.136 5.95949C21.0755 5.77335 20.9224 5.63183 20.7322 5.58604L19.4828 5.28615L18.8118 4.19062C18.7094 4.02358 18.5277 3.92188 18.3318 3.92188C18.1359 3.92188 17.9543 4.02358 17.8518 4.19062L17.1808 5.28619L15.9315 5.58608C15.7412 5.63187 15.5881 5.77335 15.5277 5.95953C15.4669 6.14605 15.5078 6.35024 15.635 6.49923L16.4693 7.47617Z" fill="#FFD600" stroke="#161D3B" stroke-width="0.69"/>
</svg>
