<svg width="13" height="12" viewBox="0 0 13 12" fill="none" xmlns="http://www.w3.org/2000/svg">
<path d="M2.55097 7.46197C2.36855 6.27564 2.18603 5.08931 2.00341 3.90298C1.9945 3.84469 2.00315 3.78506 2.02825 3.73169C2.05335 3.67833 2.09377 3.63365 2.14435 3.60333C2.19494 3.57302 2.2534 3.55845 2.3123 3.56148C2.37119 3.56451 2.42785 3.58501 2.47506 3.62035L4.18105 4.89969C4.22537 4.93295 4.27602 4.95682 4.32989 4.96984C4.38376 4.98285 4.43972 4.98474 4.49434 4.97539C4.54896 4.96604 4.60111 4.94564 4.64758 4.91545C4.69405 4.88525 4.73387 4.84589 4.76461 4.79978L6.18497 2.66835C6.21959 2.61655 6.26645 2.57409 6.3214 2.54473C6.37635 2.51536 6.4377 2.5 6.5 2.5C6.5623 2.5 6.62365 2.51536 6.6786 2.54473C6.73355 2.57409 6.78041 2.61655 6.81503 2.66835L8.23539 4.79858C8.26613 4.84469 8.30595 4.88405 8.35242 4.91425C8.39889 4.94444 8.45103 4.96484 8.50566 4.97419C8.56028 4.98354 8.61624 4.98165 8.67011 4.96864C8.72398 4.95562 8.77463 4.93175 8.81895 4.89849L10.5249 3.61915C10.5721 3.58381 10.6288 3.56331 10.6877 3.56028C10.7466 3.55725 10.8051 3.57182 10.8556 3.60213C10.9062 3.63245 10.9466 3.67713 10.9717 3.73049C10.9969 3.78386 11.0055 3.84349 10.9966 3.90178C10.814 5.08811 10.6315 6.27444 10.449 7.46077L2.55097 7.46197Z" fill="white"/>
<path d="M2.55078 8.11719H10.4494V9.02179C10.4494 9.07588 10.4388 9.12945 10.4181 9.17943C10.3974 9.22941 10.367 9.27482 10.3288 9.31308C10.2905 9.35133 10.2451 9.38167 10.1951 9.40237C10.1452 9.42308 10.0916 9.43373 10.0375 9.43373H2.96273C2.85347 9.43373 2.74869 9.39033 2.67144 9.31308C2.59418 9.23582 2.55078 9.13104 2.55078 9.02179V8.11719Z" fill="#1F1F1F"/>
</svg>
