<svg width="24" height="24" viewBox="0 0 24 24" fill="none" xmlns="http://www.w3.org/2000/svg">
<path d="M12 24C18.6274 24 24 18.6274 24 12C24 5.37258 18.6274 0 12 0C5.37258 0 0 5.37258 0 12C0 18.6274 5.37258 24 12 24Z" fill="#FEDA2C"/>
<path d="M12.0005 21.2501C17.1095 21.2501 21.2511 17.1085 21.2511 11.9995C21.2511 6.89063 17.1095 2.74902 12.0005 2.74902C6.8916 2.74902 2.75 6.89063 2.75 11.9995C2.75 17.1085 6.8916 21.2501 12.0005 21.2501Z" fill="#FCAA17"/>
<path d="M11.9994 4.8916L14.1032 9.15434L18.8072 9.83792L15.4034 13.156L16.207 17.8411L11.9994 15.6291L7.79183 17.8411L8.59541 13.156L5.19141 9.83792L9.89562 9.15434L11.9994 4.8916Z" fill="#FEDA2C"/>
</svg>
