<svg width="10" height="8" viewBox="0 0 10 8" fill="none" xmlns="http://www.w3.org/2000/svg">
<path fill-rule="evenodd" clip-rule="evenodd" d="M5.49978 0.30542L6.32418 1.9524C6.40498 2.11408 6.56094 2.2262 6.74179 2.25214L8.58602 2.5176C9.04167 2.58339 9.22299 3.13562 8.89323 3.45205L7.55962 4.73349C7.42856 4.85951 7.3689 5.04065 7.3999 5.21855L7.71463 7.02768C7.79214 7.47521 7.31582 7.81665 6.90855 7.60493L5.2602 6.75017C5.09861 6.66631 4.90508 6.66631 4.74301 6.75017L3.09467 7.60493C2.6874 7.81665 2.21107 7.47521 2.28905 7.02768L2.60331 5.21855C2.63432 5.04065 2.57466 4.85951 2.4436 4.73349L1.10999 3.45205C0.780223 3.13562 0.961546 2.58339 1.4172 2.5176L3.26143 2.25214C3.44228 2.2262 3.59871 2.11408 3.6795 1.9524L4.50344 0.30542C4.70731 -0.101807 5.29591 -0.101807 5.49978 0.30542Z" fill="#161D3B"/>
</svg>
