<svg width="241" height="181" viewBox="0 0 241 181" fill="none" xmlns="http://www.w3.org/2000/svg">
<path d="M160.406 168.141L166.159 227.051L170.266 226.879L168.226 164.948L160.406 168.141Z" fill="white"/>
<path d="M160.81 168.384L166.5 226.656L169.874 226.514L167.865 165.504L160.81 168.384ZM166.158 227.43C165.965 227.43 165.801 227.282 165.783 227.086L160.029 168.178C160.012 168.009 160.108 167.853 160.262 167.79L168.082 164.597C168.196 164.551 168.327 164.563 168.431 164.629C168.535 164.697 168.6 164.811 168.603 164.935L170.643 226.865C170.649 227.072 170.488 227.248 170.28 227.256L166.175 227.428C166.169 227.428 166.164 227.43 166.158 227.43Z" fill="#161D3B"/>
<path d="M237.577 166.019L231.963 227.195L227.719 226.877L229.758 162.713L237.577 166.019Z" fill="white"/>
<path d="M228.109 226.525L231.62 226.788L237.176 166.261L230.12 163.275L228.109 226.525ZM231.964 227.574C231.953 227.574 231.945 227.574 231.935 227.573L227.69 227.254C227.488 227.239 227.333 227.067 227.34 226.863L229.38 162.7C229.385 162.574 229.449 162.46 229.555 162.392C229.659 162.324 229.791 162.314 229.907 162.363L237.725 165.67C237.877 165.735 237.97 165.89 237.955 166.053L232.341 227.229C232.323 227.426 232.158 227.574 231.964 227.574Z" fill="#161D3B"/>
<path d="M192.359 150.187L190.707 214.427L187.264 214.445L184.354 147.134L192.359 150.187Z" fill="white"/>
<path d="M184.756 147.693L187.626 214.064L190.337 214.049L191.972 150.445L184.756 147.693ZM187.263 214.824C187.061 214.824 186.894 214.664 186.884 214.462L183.975 147.148C183.968 147.021 184.028 146.9 184.132 146.825C184.235 146.75 184.37 146.733 184.487 146.778L192.493 149.833C192.644 149.891 192.741 150.035 192.738 150.197L191.086 214.436C191.081 214.64 190.914 214.804 190.708 214.806L187.265 214.824H187.263Z" fill="#161D3B"/>
<path d="M208.999 100.019V114.967C208.999 129.584 197.469 141.434 183.248 141.434C169.025 141.434 157.496 153.285 157.496 167.904C157.496 169.205 158.549 170.262 159.849 170.262H228.016C249.336 170.262 266.62 152.497 266.62 130.581V98.6886C266.62 89.9721 259.746 82.9056 251.265 82.9056H225.647C216.452 82.9056 208.999 90.5675 208.999 100.019Z" fill="white"/>
<path d="M225.647 83.2845C216.677 83.2845 209.377 90.7916 209.377 100.018V114.965C209.377 129.769 197.655 141.813 183.248 141.813C169.256 141.813 157.874 153.517 157.874 167.904C157.874 168.994 158.76 169.882 159.849 169.882H228.017C249.094 169.882 266.243 152.251 266.243 130.581V98.6882C266.243 90.1945 259.525 83.2845 251.266 83.2845H225.647ZM228.017 170.641H159.849C158.344 170.641 157.117 169.412 157.117 167.904C157.117 153.099 168.84 141.055 183.246 141.055C197.238 141.055 208.62 129.351 208.62 114.965V100.018C208.62 90.3731 216.258 82.5275 225.647 82.5275H251.266C259.942 82.5275 267 89.7777 267 98.6882V130.581C267 152.67 249.512 170.641 228.017 170.641Z" fill="#161D3B"/>
<path d="M204.13 100.722C204.13 100.722 200.415 134.499 175.465 136.709L204.13 137.117C204.13 137.117 214.746 115.584 215.176 107.2C215.608 98.8147 204.13 100.722 204.13 100.722Z" fill="white"/>
<path d="M179.643 136.39L203.896 136.734C205.002 134.465 214.399 114.946 214.799 107.18C214.896 105.284 214.355 103.795 213.191 102.756C210.611 100.451 205.689 100.902 204.471 101.056C204.262 102.63 203.105 110.275 199.499 118.045C194.879 128 188.067 134.267 179.643 136.39ZM204.131 137.496C204.129 137.496 204.128 137.496 204.126 137.496L175.46 137.088C175.258 137.084 175.095 136.925 175.086 136.724C175.079 136.521 175.231 136.35 175.431 136.333C188.134 135.206 195.153 125.602 198.803 117.744C202.782 109.177 203.745 100.764 203.755 100.679C203.774 100.51 203.901 100.374 204.07 100.347C204.33 100.304 210.483 99.3212 213.697 102.191C215.04 103.39 215.665 105.081 215.556 107.219C215.125 115.586 204.907 136.402 204.471 137.285C204.407 137.414 204.276 137.496 204.131 137.496Z" fill="#161D3B"/>
<mask id="path-11-inside-1_2005_23873" fill="white">
<path fill-rule="evenodd" clip-rule="evenodd" d="M237.948 78.8849C234.069 78.1233 230.617 78.1804 215.189 78.7397C214.114 78.7784 212.989 79.1447 211.898 79.7393L211.899 79.7205C203.698 81.67 200.853 104.511 200.853 104.511L208.264 108.761C208.003 115.249 206.382 122.372 201.93 128.772C200.369 131.017 198.244 133.482 195.328 135.843C196.966 137.17 199.511 138.897 202.93 139.912C206.561 140.992 209.038 140.634 211.548 140.273C212.962 140.069 214.387 139.863 216.036 139.912C222.368 140.101 226.602 143.885 230.319 147.208C233.706 150.235 236.664 152.88 240.391 152.072C242.478 151.619 245.244 149.99 247.837 144.522C249.307 139.99 250.615 134.668 251.343 128.651C252.253 121.136 252.058 114.201 251.3 108.073L256.65 108.695C256.65 108.695 255.847 95.1273 254.676 89.8845C252.213 78.8561 237.935 78.7404 237.935 78.7404L237.948 78.8849Z"/>
</mask>
<path fill-rule="evenodd" clip-rule="evenodd" d="M237.948 78.8849C234.069 78.1233 230.617 78.1804 215.189 78.7397C214.114 78.7784 212.989 79.1447 211.898 79.7393L211.899 79.7205C203.698 81.67 200.853 104.511 200.853 104.511L208.264 108.761C208.003 115.249 206.382 122.372 201.93 128.772C200.369 131.017 198.244 133.482 195.328 135.843C196.966 137.17 199.511 138.897 202.93 139.912C206.561 140.992 209.038 140.634 211.548 140.273C212.962 140.069 214.387 139.863 216.036 139.912C222.368 140.101 226.602 143.885 230.319 147.208C233.706 150.235 236.664 152.88 240.391 152.072C242.478 151.619 245.244 149.99 247.837 144.522C249.307 139.99 250.615 134.668 251.343 128.651C252.253 121.136 252.058 114.201 251.3 108.073L256.65 108.695C256.65 108.695 255.847 95.1273 254.676 89.8845C252.213 78.8561 237.935 78.7404 237.935 78.7404L237.948 78.8849Z" fill="#FFD600"/>
<path d="M215.189 78.7397L215.213 79.4005L215.213 79.4005L215.189 78.7397ZM237.948 78.8849L237.821 79.5337L238.685 79.7034L238.607 78.8264L237.948 78.8849ZM211.898 79.7393L211.238 79.6979L211.163 80.8925L212.214 80.3199L211.898 79.7393ZM211.899 79.7205L212.559 79.7619L212.615 78.8708L211.746 79.0773L211.899 79.7205ZM200.853 104.511L200.197 104.429L200.143 104.866L200.525 105.085L200.853 104.511ZM208.264 108.761L208.925 108.788L208.941 108.387L208.593 108.188L208.264 108.761ZM201.93 128.772L201.387 128.394L201.387 128.394L201.93 128.772ZM195.328 135.843L194.912 135.329L194.278 135.843L194.912 136.357L195.328 135.843ZM202.93 139.912L203.119 139.278L203.119 139.278L202.93 139.912ZM211.548 140.273L211.453 139.618H211.453L211.548 140.273ZM216.036 139.912L216.056 139.251H216.056L216.036 139.912ZM230.319 147.208L229.878 147.701L230.319 147.208ZM240.391 152.072L240.531 152.718L240.531 152.718L240.391 152.072ZM247.837 144.522L248.434 144.805L248.452 144.767L248.466 144.726L247.837 144.522ZM251.343 128.651L250.686 128.571L250.686 128.571L251.343 128.651ZM251.3 108.073L251.376 107.417L250.54 107.319L250.644 108.154L251.3 108.073ZM256.65 108.695L256.573 109.352L257.356 109.443L257.31 108.656L256.65 108.695ZM254.676 89.8845L255.322 89.7404L255.322 89.7403L254.676 89.8845ZM237.935 78.7404L237.941 78.0792L237.212 78.0733L237.277 78.7989L237.935 78.7404ZM215.213 79.4005C230.679 78.8398 234.036 78.7905 237.821 79.5337L238.076 78.2361C234.103 77.456 230.555 77.521 215.165 78.079L215.213 79.4005ZM212.214 80.3199C213.243 79.7593 214.268 79.4345 215.213 79.4005L215.165 78.079C213.961 78.1223 212.735 78.5302 211.581 79.1587L212.214 80.3199ZM211.239 79.6792L211.238 79.6979L212.558 79.7807L212.559 79.7619L211.239 79.6792ZM200.853 104.511C201.51 104.593 201.51 104.593 201.51 104.593C201.51 104.593 201.51 104.592 201.51 104.592C201.51 104.592 201.51 104.591 201.51 104.589C201.51 104.587 201.511 104.583 201.511 104.578C201.513 104.568 201.515 104.552 201.518 104.531C201.523 104.489 201.531 104.426 201.543 104.343C201.565 104.178 201.599 103.935 201.646 103.623C201.739 103.001 201.881 102.108 202.077 101.03C202.469 98.8721 203.076 95.9799 203.935 93.0319C204.797 90.0778 205.903 87.0992 207.283 84.7516C208.677 82.3803 210.271 80.787 212.052 80.3638L211.746 79.0773C209.426 79.6288 207.589 81.6217 206.143 84.0814C204.683 86.5648 203.541 89.6619 202.666 92.6617C201.789 95.6677 201.173 98.6076 200.775 100.793C200.577 101.887 200.432 102.794 200.338 103.428C200.29 103.745 200.255 103.994 200.232 104.165C200.221 104.25 200.212 104.316 200.206 104.36C200.203 104.382 200.201 104.399 200.2 104.411C200.199 104.417 200.198 104.421 200.198 104.424C200.198 104.426 200.198 104.427 200.198 104.428C200.197 104.428 200.197 104.429 200.197 104.429C200.197 104.429 200.197 104.429 200.853 104.511ZM208.593 108.188L201.182 103.937L200.525 105.085L207.935 109.335L208.593 108.188ZM202.473 129.149C207.015 122.619 208.66 115.363 208.925 108.788L207.603 108.735C207.346 115.134 205.748 122.125 201.387 128.394L202.473 129.149ZM195.744 136.357C198.714 133.952 200.88 131.44 202.473 129.149L201.387 128.394C199.857 130.594 197.774 133.012 194.912 135.329L195.744 136.357ZM203.119 139.278C199.809 138.295 197.341 136.623 195.744 135.329L194.912 136.357C196.592 137.717 199.213 139.498 202.742 140.546L203.119 139.278ZM211.453 139.618C208.962 139.977 206.606 140.315 203.119 139.278L202.742 140.546C206.517 141.668 209.113 141.292 211.642 140.927L211.453 139.618ZM216.056 139.251C214.342 139.2 212.864 139.415 211.453 139.618L211.642 140.927C213.06 140.722 214.432 140.526 216.016 140.573L216.056 139.251ZM230.76 146.715C227.062 143.409 222.66 139.448 216.056 139.251L216.016 140.573C222.076 140.754 226.142 144.361 229.878 147.701L230.76 146.715ZM240.251 151.426C238.595 151.785 237.092 151.389 235.558 150.505C234 149.608 232.467 148.241 230.76 146.715L229.878 147.701C231.557 149.202 233.197 150.671 234.897 151.651C236.62 152.644 238.46 153.167 240.531 152.718L240.251 151.426ZM247.239 144.239C244.707 149.579 242.082 151.029 240.251 151.426L240.531 152.718C242.874 152.21 245.781 150.4 248.434 144.805L247.239 144.239ZM250.686 128.571C249.964 134.54 248.666 139.821 247.208 144.318L248.466 144.726C249.947 140.159 251.265 134.795 251.999 128.73L250.686 128.571ZM250.644 108.154C251.396 114.235 251.589 121.116 250.686 128.571L251.999 128.73C252.916 121.156 252.72 114.166 251.956 107.992L250.644 108.154ZM251.224 108.73L256.573 109.352L256.726 108.039L251.376 107.417L251.224 108.73ZM256.65 108.695C257.31 108.656 257.31 108.656 257.31 108.656C257.31 108.656 257.31 108.656 257.31 108.656C257.31 108.655 257.309 108.655 257.309 108.654C257.309 108.652 257.309 108.65 257.309 108.646C257.309 108.64 257.308 108.63 257.307 108.617C257.306 108.591 257.303 108.552 257.3 108.501C257.294 108.4 257.285 108.251 257.273 108.06C257.248 107.678 257.212 107.126 257.165 106.448C257.072 105.092 256.934 103.228 256.761 101.2C256.414 97.1599 255.918 92.4125 255.322 89.7404L254.031 90.0285C254.605 92.5993 255.095 97.2574 255.443 101.313C255.616 103.332 255.753 105.188 255.846 106.539C255.893 107.215 255.929 107.764 255.953 108.144C255.965 108.334 255.974 108.482 255.98 108.582C255.983 108.632 255.986 108.671 255.987 108.696C255.988 108.709 255.989 108.719 255.989 108.725C255.989 108.728 255.989 108.731 255.989 108.732C255.989 108.733 255.989 108.734 255.99 108.734C255.99 108.734 255.99 108.734 255.99 108.734C255.99 108.735 255.99 108.735 256.65 108.695ZM255.322 89.7403C254.02 83.9151 249.592 81.0015 245.608 79.5553C243.612 78.8308 241.701 78.4628 240.292 78.2754C239.586 78.1815 239.004 78.1325 238.595 78.107C238.391 78.0942 238.23 78.0873 238.119 78.0836C238.063 78.0817 238.02 78.0806 237.99 78.08C237.975 78.0797 237.963 78.0795 237.955 78.0794C237.951 78.0793 237.948 78.0793 237.945 78.0793C237.944 78.0793 237.943 78.0793 237.942 78.0792C237.942 78.0792 237.942 78.0792 237.942 78.0792C237.941 78.0792 237.941 78.0792 237.935 78.7404C237.93 79.4016 237.93 79.4016 237.93 79.4016C237.93 79.4016 237.93 79.4015 237.93 79.4016C237.93 79.4016 237.93 79.4016 237.931 79.4016C237.932 79.4016 237.934 79.4016 237.936 79.4016C237.942 79.4017 237.951 79.4019 237.963 79.4021C237.987 79.4026 238.025 79.4035 238.074 79.4052C238.173 79.4085 238.322 79.4149 238.513 79.4268C238.894 79.4507 239.446 79.4969 240.118 79.5862C241.463 79.7651 243.275 80.1153 245.157 80.7983C248.927 82.167 252.869 84.8255 254.031 90.0286L255.322 89.7403ZM237.277 78.7989L237.29 78.9435L238.607 78.8264L238.594 78.6819L237.277 78.7989Z" fill="#161D3B" mask="url(#path-11-inside-1_2005_23873)"/>
<path d="M225.642 76.8675L225.159 70.0051C224.831 69.9813 224.605 69.9677 224.538 69.9677C222.624 69.9456 222.004 69.3247 221.84 67.7528C221.736 66.7696 221.701 65.3083 222.179 63.4796C222.23 63.2857 222.22 63.0782 222.14 62.8927L221.813 62.1255C221.745 61.8738 221.832 61.6033 222.034 61.4383L222.208 61.2954C222.832 60.7833 223.351 60.1539 223.766 59.4548C224.149 58.8117 224.798 57.6073 225.244 57.393C226.501 56.7925 231.6 54.1234 234.449 58.7879C236.671 62.4249 233.04 67.433 231.72 69.0729C231.402 69.471 233.876 77.2468 233.876 77.2468L237.072 78.0191C237.072 78.0191 234.605 82.4063 227.112 80.5912C221.776 79.3001 222.623 77.3132 222.623 77.3132L225.642 76.8675Z" fill="white"/>
<path d="M222.955 77.6444C222.958 77.7566 222.989 77.9148 223.089 78.102C223.348 78.5851 224.227 79.502 227.203 80.2216C232.924 81.6063 235.593 79.257 236.435 78.2534L233.788 77.6121C233.66 77.5814 233.556 77.4845 233.516 77.3586C230.981 69.3888 231.284 69.0146 231.428 68.8343C232.917 66.9817 236.163 62.3138 234.128 58.983C231.551 54.7625 227.033 56.9485 225.548 57.6664L225.411 57.7327C225.131 57.8671 224.549 58.8674 224.268 59.3488L224.093 59.6465C223.637 60.412 223.084 61.0652 222.45 61.5858L222.276 61.7287C222.196 61.795 222.157 61.9039 222.176 62.0042L222.491 62.7408C222.601 62.9994 222.622 63.2954 222.548 63.5744C222.181 64.9727 222.074 66.3268 222.218 67.7098C222.353 68.9907 222.72 69.564 224.544 69.5862C224.614 69.5862 224.848 69.6014 225.187 69.6236C225.376 69.6372 225.525 69.7869 225.539 69.9757L226.022 76.838C226.036 77.0354 225.896 77.2106 225.699 77.2395L222.955 77.6444ZM230.569 81.4141C229.532 81.4141 228.354 81.2797 227.024 80.9582C224.493 80.3458 222.936 79.4867 222.394 78.4082C222.053 77.7277 222.252 77.2174 222.276 77.1613C222.329 77.0405 222.44 76.9554 222.571 76.935L225.241 76.5403L224.806 70.3585C224.668 70.3499 224.574 70.3449 224.535 70.3432C222.489 70.3193 221.657 69.627 221.465 67.7898C221.31 66.3132 221.426 64.8706 221.815 63.3821C221.846 63.2648 221.837 63.1423 221.793 63.0385L221.467 62.2713C221.46 62.256 221.455 62.239 221.449 62.222C221.342 61.8273 221.478 61.4037 221.795 61.1435L221.97 61.0006C222.537 60.5345 223.032 59.9493 223.443 59.2586L223.613 58.9677C224.17 58.0134 224.631 57.2666 225.083 57.0489L225.217 56.9842C229.611 54.8595 232.827 55.3988 234.774 58.5884C237.035 62.2883 233.684 67.2216 232.071 69.2425C232.07 69.8975 233.111 73.5702 234.174 76.9265L237.164 77.6495C237.278 77.6767 237.374 77.7566 237.421 77.8655C237.469 77.9744 237.462 78.1003 237.404 78.2023C237.316 78.3605 235.53 81.4141 230.569 81.4141Z" fill="#161D3B"/>
<path d="M232.879 52.8557C231.496 52.558 229.909 52.7707 229.238 52.5223C228.157 52.1242 228.126 50.828 226.631 50.464C224.819 50.0234 224.064 50.7974 223.354 51.8759C223.237 52.0562 223.133 52.2569 223.048 52.4849C221.91 55.5418 223.347 57.0337 223.987 57.5185C223.987 57.5185 228.061 59.6262 228.76 60.2284C229.412 60.7915 230.166 62.1252 229.691 64.0423C229.63 64.289 229.739 64.5459 229.948 64.6734C230.193 64.8197 230.509 64.75 230.678 64.5067C231.207 63.7361 232.365 62.2493 233.188 62.6015C234.223 63.0438 233.901 66.15 231.618 66.5072C230.917 66.6178 230.348 67.3357 230.416 68.0706C230.462 68.5503 230.912 69.1321 231.584 69.2852C231.994 69.3804 232.397 69.2137 232.758 68.9841C234.248 68.0315 238.45 63.9947 238.972 60.3747C239.6 56.013 234.716 53.2521 232.879 52.8557Z" fill="#161D3B"/>
<path d="M224.644 70.3125C224.441 70.3125 224.273 70.1526 224.266 69.9485C224.257 69.7392 224.421 69.5623 224.63 69.5538C224.644 69.5538 226.105 69.4858 227.1 68.6386C227.26 68.5042 227.5 68.5229 227.634 68.6828C227.77 68.8427 227.75 69.0809 227.592 69.217C226.391 70.236 224.729 70.3091 224.657 70.3125C224.652 70.3125 224.649 70.3125 224.644 70.3125Z" fill="#161D3B"/>
<path d="M213.73 136.973C213.73 136.973 171.485 131.789 158.922 143.253C146.361 154.717 178.752 204.016 178.752 204.016L188.996 196.007L179.279 161.163L218.332 149.471L213.73 136.973Z" fill="white"/>
<path d="M192.902 136.203C180.392 136.203 165.669 137.608 159.179 143.532C147.54 154.154 176.001 199.05 178.846 203.462L188.564 195.865L178.915 161.264C178.859 161.065 178.973 160.859 179.171 160.8L217.837 149.224L213.455 137.323C211.938 137.149 203.163 136.203 192.902 136.203ZM178.752 204.395C178.732 204.395 178.711 204.393 178.691 204.389C178.587 204.372 178.493 204.313 178.436 204.224C177.105 202.2 146.012 154.523 158.667 142.972C171.214 131.523 212.045 136.384 213.776 136.596C213.918 136.613 214.037 136.709 214.086 136.841L218.688 149.339C218.723 149.438 218.717 149.547 218.671 149.64C218.623 149.734 218.54 149.804 218.439 149.833L179.744 161.419L189.362 195.904C189.403 196.052 189.35 196.21 189.229 196.306L178.987 204.315C178.919 204.367 178.837 204.395 178.752 204.395Z" fill="#161D3B"/>
<path d="M236.979 159.664C230.844 161.717 219.863 164.371 204.517 164.152C200.157 164.089 196.13 166.628 194.15 170.723C189.605 180.122 179.766 197.043 163.739 208.012L156.086 203.664L175.622 157.301C177.404 153.069 180.74 149.779 184.866 148.185L223.583 133.217C223.583 133.217 235.588 129.678 241.474 140.977C242.525 142.995 244.476 139.388 244.942 141.016C246.536 146.598 242.25 157.9 236.979 159.664Z" fill="white"/>
<path d="M156.565 203.502L163.72 207.566C179.628 196.597 189.394 179.686 193.808 170.559C195.834 166.373 200.038 163.712 204.522 163.774C219.568 163.991 230.413 161.463 236.86 159.306C241.947 157.604 246.085 146.405 244.578 141.121C244.539 140.985 244.502 140.953 244.502 140.951C244.396 140.939 244.03 141.196 243.809 141.346C243.272 141.707 242.661 142.115 242.028 141.953C241.666 141.861 241.366 141.593 241.139 141.154C235.469 130.272 224.168 133.441 223.69 133.582L185.001 148.538C180.995 150.088 177.704 153.335 175.97 157.45L156.565 203.502ZM163.739 208.391C163.674 208.391 163.61 208.375 163.552 208.341L155.899 203.993C155.732 203.9 155.662 203.694 155.737 203.517L175.273 157.156C177.084 152.852 180.533 149.453 184.729 147.832L223.447 132.864C223.598 132.818 235.85 129.362 241.81 140.803C241.935 141.043 242.071 141.183 242.215 141.22C242.522 141.298 242.981 140.989 243.387 140.717C243.872 140.392 244.33 140.084 244.774 140.247C245.027 140.341 245.206 140.563 245.306 140.914C246.927 146.589 242.605 158.182 237.1 160.024C230.597 162.2 219.664 164.75 204.512 164.531C204.459 164.531 204.406 164.529 204.355 164.529C200.164 164.529 196.394 166.955 194.49 170.889C190.025 180.121 180.121 197.26 163.953 208.324C163.889 208.369 163.814 208.391 163.739 208.391Z" fill="#161D3B"/>
<path d="M244.634 106.065C240.516 121.073 228.278 130.648 210.533 135.689L213.24 140.746C237.899 139.879 250.831 129.161 256.001 108.593L244.634 106.065Z" fill="white"/>
<path d="M211.089 135.923L213.462 140.359C236.851 139.473 250.232 129.462 255.538 108.878L244.902 106.512C240.872 120.694 229.5 130.587 211.089 135.923ZM213.239 141.125C213.1 141.125 212.972 141.048 212.906 140.924L210.199 135.867C210.145 135.766 210.14 135.646 210.184 135.54C210.23 135.435 210.32 135.355 210.429 135.324C228.985 130.052 240.369 120.174 244.268 105.964C244.322 105.769 244.52 105.65 244.717 105.694L256.084 108.224C256.182 108.246 256.269 108.307 256.324 108.394C256.376 108.482 256.393 108.586 256.368 108.686C251.018 129.971 237.319 140.278 213.253 141.125C213.249 141.125 213.244 141.125 213.239 141.125Z" fill="#161D3B"/>
<path d="M214.745 135.275C214.495 134.783 214.073 134.394 213.554 134.208C213.183 134.076 212.817 133.899 212.469 133.713L207.639 131.151C206.734 130.707 205.441 131.74 204.502 132.05C201.67 132.98 195.803 135.173 196.286 137.231C196.806 139.453 201.849 138.402 203.64 137.954C204.048 137.852 207.753 139.193 208.924 139.283C210.543 139.405 210.916 138.994 211.708 138.577C212.069 138.388 212.47 138.303 212.906 138.3C213.573 138.294 214.207 138.015 214.626 137.495L214.634 137.481C215.095 136.908 215.175 136.115 214.84 135.46L214.745 135.275Z" fill="white"/>
<path d="M203.696 137.571C203.995 137.571 204.553 137.724 205.98 138.147C207.108 138.483 208.386 138.862 208.952 138.906C210.197 139 210.606 138.767 211.169 138.445C211.283 138.379 211.402 138.311 211.531 138.243C211.931 138.034 212.392 137.925 212.904 137.921C213.475 137.918 213.994 137.676 214.329 137.258C214.705 136.788 214.77 136.155 214.503 135.633L214.408 135.448C214.193 135.029 213.845 134.716 213.426 134.567C213.086 134.444 212.725 134.279 212.29 134.049L207.462 131.488C207.008 131.265 206.254 131.642 205.591 131.978C205.249 132.148 204.929 132.309 204.621 132.41C199.422 134.118 196.369 135.933 196.655 137.146C196.721 137.43 196.888 137.649 197.165 137.819C198.162 138.425 200.547 138.338 203.548 137.588C203.59 137.578 203.638 137.571 203.696 137.571ZM209.454 139.684C209.282 139.684 209.098 139.677 208.896 139.661C208.248 139.612 206.986 139.236 205.764 138.874C204.937 138.629 203.905 138.316 203.696 138.328C201.826 138.799 198.39 139.452 196.772 138.466C196.318 138.188 196.03 137.804 195.916 137.319C195.404 135.135 200.239 133.053 204.385 131.69C204.638 131.607 204.936 131.457 205.25 131.3C206.072 130.887 207.003 130.419 207.806 130.812L212.645 133.379C213.047 133.592 213.377 133.743 213.681 133.852C214.283 134.068 214.78 134.512 215.081 135.102L215.177 135.29C215.58 136.076 215.483 137.03 214.93 137.721C214.443 138.33 213.708 138.675 212.909 138.68C212.514 138.682 212.179 138.758 211.883 138.913C211.762 138.978 211.652 139.041 211.545 139.102C211.024 139.4 210.529 139.684 209.454 139.684Z" fill="#161D3B"/>
<path d="M191.862 139.266L181.666 109.219C181.055 108.278 179.99 107.706 178.845 107.706H151.67C150.436 107.706 149.642 108.904 150.045 109.962C150.205 110.382 150.377 110.797 150.518 111.226L159.733 139.32H159.736C159.765 140.963 161.102 142.285 162.749 142.285H212.9C214.565 142.285 215.916 140.933 215.916 139.266H191.862Z" fill="#161D3B"/>
<path d="M160.081 139.158C160.103 139.206 160.117 139.258 160.117 139.313C160.142 140.743 161.325 141.907 162.752 141.907H212.903C214.228 141.907 215.328 140.922 215.514 139.645H191.865C191.703 139.645 191.559 139.541 191.506 139.388L181.326 109.387C180.779 108.57 179.855 108.085 178.848 108.085H151.672C151.213 108.085 150.805 108.295 150.551 108.662C150.313 109.009 150.257 109.445 150.402 109.826L150.538 110.179C150.655 110.479 150.778 110.79 150.881 111.107L160.081 139.158ZM212.903 142.664H162.752C160.938 142.664 159.431 141.204 159.361 139.398L150.16 111.343C150.063 111.045 149.946 110.746 149.832 110.455L149.694 110.096C149.459 109.48 149.548 108.784 149.927 108.232C150.325 107.657 150.96 107.327 151.672 107.327H178.848C180.129 107.327 181.302 107.958 181.986 109.012C182.003 109.038 182.017 109.067 182.027 109.097L192.137 138.886H215.919C216.128 138.886 216.298 139.056 216.298 139.265C216.298 141.14 214.774 142.664 212.903 142.664Z" fill="#161D3B"/>
<path d="M171.665 123.106C172.048 124.379 171.462 125.682 170.357 126.015C169.251 126.349 168.045 125.588 167.662 124.316C167.279 123.043 167.865 121.74 168.97 121.407C170.074 121.074 171.282 121.834 171.665 123.106Z" fill="white"/>
<path d="M137.459 148.816H133.631C133.422 148.816 133.252 148.646 133.252 148.437C133.252 148.228 133.422 148.058 133.631 148.058H137.459C137.668 148.058 137.836 148.228 137.836 148.437C137.836 148.646 137.668 148.816 137.459 148.816Z" fill="white"/>
<path d="M116.1 177.305L110.348 236.215L106.242 236.043L108.282 174.114L116.1 177.305Z" fill="white"/>
<path d="M106.631 235.68L110.004 235.821L115.694 177.549L108.641 174.669L106.631 235.68ZM110.346 236.594C110.341 236.594 110.335 236.594 110.33 236.594L106.224 236.42C106.017 236.412 105.855 236.238 105.862 236.031L107.901 174.1C107.905 173.977 107.97 173.863 108.074 173.795C108.178 173.727 108.308 173.715 108.423 173.763L116.241 176.954C116.398 177.017 116.491 177.175 116.476 177.342L110.723 236.252C110.704 236.446 110.54 236.594 110.346 236.594Z" fill="#161D3B"/>
<path d="M38.9297 175.182L44.5441 236.359L48.7882 236.04L46.7486 171.875L38.9297 175.182Z" fill="white"/>
<path d="M39.3321 175.425L44.8872 235.954L48.3982 235.69L46.3875 172.441L39.3321 175.425ZM44.5436 236.738C44.3497 236.738 44.1847 236.59 44.1668 236.395L38.5524 175.219C38.5371 175.054 38.63 174.899 38.7819 174.834L46.6008 171.527C46.7161 171.478 46.8478 171.49 46.9527 171.558C47.0579 171.624 47.1234 171.74 47.1271 171.864L49.1669 236.029C49.1734 236.231 49.0191 236.403 48.8167 236.418L44.5724 236.738C44.5627 236.738 44.553 236.738 44.5436 236.738Z" fill="#161D3B"/>
<path d="M19.3848 160.788L21.0362 225.027L24.3509 224.309L27.3901 157.733L19.3848 160.788Z" fill="white"/>
<path d="M19.7703 161.046L21.4032 224.559L23.9857 223.999L26.9855 158.294L19.7703 161.046ZM21.0361 225.406C20.9521 225.406 20.8696 225.377 20.8022 225.325C20.7134 225.255 20.6603 225.149 20.6574 225.037L19.006 160.798C19.0017 160.636 19.0994 160.491 19.2496 160.434L27.2552 157.378C27.3738 157.334 27.5087 157.351 27.6121 157.426C27.7156 157.501 27.7744 157.623 27.7687 157.751L24.7293 224.326C24.7214 224.498 24.5991 224.642 24.431 224.678L21.1166 225.398C21.0899 225.403 21.063 225.406 21.0361 225.406Z" fill="#161D3B"/>
<path d="M84.1465 159.353L85.7981 223.591L89.2417 223.609L92.152 156.298L84.1465 159.353Z" fill="white"/>
<path d="M67.5068 109.181V124.129C67.5068 138.747 79.0363 150.599 93.2584 150.599C107.481 150.599 119.01 162.449 119.01 177.066C119.01 178.369 117.957 179.426 116.655 179.426H48.4897C27.1689 179.426 9.88477 161.659 9.88477 139.745V107.851C9.88477 99.1361 16.7592 92.0697 25.2393 92.0697H50.8584C60.0531 92.0697 67.5068 99.7315 67.5068 109.181Z" fill="#F4F4F4"/>
<path d="M25.2392 92.4503C16.9816 92.4503 10.2635 99.3602 10.2635 107.852V139.747C10.2635 161.417 27.4117 179.048 48.4897 179.048H116.655C117.744 179.048 118.63 178.16 118.63 177.068C118.63 162.681 107.249 150.977 93.2585 150.977C78.85 150.977 67.128 138.933 67.128 124.13V109.183C67.128 99.9556 59.8294 92.4503 50.8583 92.4503H25.2392ZM116.655 179.805H48.4897C26.9938 179.805 9.50586 161.834 9.50586 139.747V107.852C9.50586 98.9418 16.5638 91.6916 25.2392 91.6916H50.8583C60.2472 91.6916 67.8857 99.5388 67.8857 109.183V124.13C67.8857 138.517 79.2678 150.22 93.2585 150.22C107.667 150.22 119.389 162.264 119.389 177.068C119.389 178.576 118.163 179.805 116.655 179.805Z" fill="#161D3B"/>
<path d="M3.28319 81.2925C2.23802 80.8604 1.31822 80.1068 0.739155 79.0742C-0.117702 77.5449 -0.576497 75.097 1.34969 71.5995C5.69997 63.6995 12.9651 67.4351 15.7449 66.5199C21.9734 64.4684 20.5001 61.1019 23.03 57.8306C24.9227 55.3827 31.4601 50.7641 41.3897 59.3667C41.3897 59.3667 45.8492 65.4533 50.9029 63.1364C57.1117 60.2921 69.5888 66.7292 65.6461 76.298C64.509 79.0572 62.4612 81.1785 59.9667 82.3302C59.5144 82.5377 59.0193 82.7402 58.4813 82.9256C56.9247 83.4614 55.7227 84.8478 55.3328 86.6391C54.0633 92.4655 49.2579 103.715 31.424 92.3957C30.0791 91.5418 28.4824 91.4329 27.0921 92.0793C25.3832 92.8737 23.5284 95.9494 15.2844 94.6514C9.98919 93.8162 8.30677 87.653 6.90862 84.8495C5.79523 82.616 4.19618 81.6701 3.28319 81.2925Z" fill="#161D3B"/>
<path d="M94.9899 124.304C87.9766 126.496 74.5403 120.41 72.2492 110.205C70.4323 102.111 67.5931 98.0042 66.4945 96.6501C65.9695 95.7536 65.2789 94.9115 64.3655 94.1086C57.8329 88.3673 46.5192 90.2266 41.6227 91.0312C36.0689 91.943 31.4679 92.7001 28.3383 96.2231C27.5071 97.1587 26.918 98.1385 26.5133 99.1813L26.5128 99.1779C20.5347 110.434 25.3802 122.056 28.3682 127.425C28.8612 148.953 21.7432 145.569 23.6694 155.128C26.3834 168.592 48.0683 163.559 55.9566 161.839C58.7239 161.237 73.2148 165.539 76.7569 154.359C78.8239 147.835 74.8955 144.822 71.4271 133.723C89.195 144.766 102.393 125.935 102.393 125.935L103.762 119.333C103.762 119.333 100.177 122.681 94.9899 124.304Z" fill="#FFD600"/>
<path d="M23.297 155.2L23.297 155.2L23.297 155.2Z" stroke="#161D3B" stroke-width="0.826477"/>
<path d="M63.985 122.541C63.985 122.541 76.7791 117.879 80.7737 109.351L89.0093 101.677C89.0093 101.677 88.8928 105.387 86.4475 106.935C86.4475 106.935 88.5465 111.163 85.4491 114.08C85.4491 114.08 83.1258 115.927 81.7411 115.961C81.7411 115.961 77.6853 129.283 66.7353 133.25C66.7353 133.25 63.6602 128.575 63.985 122.541Z" fill="white"/>
<path d="M64.3522 122.806C64.1632 127.743 66.2945 131.754 66.8966 132.783C77.3287 128.796 81.3394 115.978 81.3791 115.848C81.4265 115.692 81.5689 115.583 81.7321 115.579C82.7638 115.554 84.5951 114.273 85.2136 113.781C88.0414 111.116 86.1885 107.263 86.1082 107.101C86.0225 106.928 86.0813 106.717 86.245 106.613C87.7389 105.667 88.3003 103.809 88.5093 102.658L81.0855 109.576C77.2932 117.565 66.1758 122.107 64.3522 122.806ZM66.7358 133.625C66.6111 133.625 66.4908 133.564 66.4192 133.455C66.2908 133.259 63.2793 128.607 63.6069 122.518C63.6149 122.367 63.7129 122.236 63.8553 122.183C63.9819 122.137 76.5499 117.473 80.4309 109.188C80.4515 109.144 80.4802 109.105 80.5158 109.071L88.7514 101.397C88.863 101.293 89.0272 101.266 89.1662 101.329C89.3053 101.392 89.3931 101.533 89.3883 101.686C89.3834 101.841 89.2458 105.351 86.9183 107.069C87.3407 108.132 88.4787 111.745 85.709 114.353C85.5934 114.447 83.514 116.088 82.0236 116.313C81.3966 118.158 77.0424 129.917 66.8648 133.603C66.8226 133.618 66.7789 133.625 66.7358 133.625Z" fill="#161D3B"/>
<path d="M52.452 137.48C41.7914 137.48 35.6723 132.198 35.5903 132.125C35.4338 131.988 35.4195 131.748 35.5582 131.591C35.697 131.435 35.9362 131.421 36.0928 131.559C36.2007 131.654 47.0903 141.019 65.2139 134.294C65.4092 134.223 65.6281 134.321 65.7007 134.519C65.7737 134.714 65.6737 134.932 65.4774 135.005C60.6074 136.812 56.242 137.48 52.452 137.48Z" fill="#161D3B"/>
<path d="M58.9973 123.055C49.7097 123.055 44.302 117.766 41.3398 113.103C37.8568 107.619 36.9293 101.791 36.9205 101.733C36.8887 101.525 37.0304 101.333 37.2372 101.301C37.4468 101.268 37.6375 101.411 37.6693 101.617C37.6782 101.675 38.5869 107.365 41.9919 112.715C46.5283 119.843 53.1152 123.022 61.5682 122.163C61.7746 122.141 61.9622 122.293 61.9836 122.502C62.0046 122.709 61.853 122.895 61.6449 122.917C60.7294 123.01 59.8467 123.055 58.9973 123.055Z" fill="#161D3B"/>
<path d="M66.1998 116.34C66.1814 116.34 66.163 116.34 66.1445 116.336C65.9373 116.306 65.7941 116.114 65.8243 115.906C67.4954 104.486 62.2692 98.0238 62.2161 97.9592C62.0827 97.7993 62.1048 97.5594 62.2656 97.4267C62.4265 97.2923 62.665 97.3145 62.7987 97.4761C63.0241 97.7466 68.2969 104.241 66.574 116.017C66.5465 116.205 66.3845 116.34 66.1998 116.34Z" fill="#161D3B"/>
<path d="M63.8392 84.2436C63.484 81.8655 64.0532 75.5526 63.9491 75.7057C62.9305 77.201 59.5764 75.4318 56.5559 75.3127C53.5353 75.1937 54.5519 79.7306 54.5519 79.7306C54.5519 79.7306 53.6675 76.6532 51.782 78.5789C50.688 79.6982 51.8943 81.1408 53.0177 82.0849C52.7091 82.437 47.2675 88.3008 43.9355 91.7881L51.3273 97.3984L55.0279 93.9418L54.2736 92.7391C53.7357 91.8817 53.6876 90.8066 54.1467 89.9033L55.9562 86.8362C56.372 87.3397 56.8964 87.9147 57.3804 88.2515C58.3442 88.9251 59.5429 88.8197 60.3931 88.0082C61.5592 86.8957 62.3745 85.6454 62.7444 84.4308L63.8392 84.2436Z" fill="white"/>
<path d="M44.5025 91.7395L51.3022 96.9008L54.5408 93.8762L53.9529 92.9388C53.3475 91.9743 53.2925 90.7444 53.8094 89.7288L55.6299 86.6413C55.6927 86.5358 55.8032 86.4661 55.9262 86.4559C56.0494 86.4457 56.1693 86.4984 56.2481 86.592C56.7734 87.2265 57.2272 87.6807 57.5976 87.9392C58.4109 88.5057 59.4054 88.4258 60.1316 87.7317C61.2484 86.6651 62.0265 85.4845 62.382 84.3175C62.4238 84.1815 62.5394 84.0794 62.6807 84.0556L63.4195 83.9297C63.2397 82.1282 63.4217 78.8705 63.5231 77.0639C63.534 76.8683 63.5449 76.6761 63.5541 76.5009C62.6469 76.8887 61.2965 76.5791 59.7896 76.2321C58.7185 75.9854 57.6108 75.732 56.541 75.6894C55.9839 75.6673 55.5664 75.8238 55.2781 76.1709C54.5442 77.0503 54.772 78.9777 54.9217 79.6446C54.9664 79.8453 54.8445 80.0443 54.6461 80.0954C54.4495 80.1464 54.2453 80.0307 54.188 79.8334C54.0888 79.4914 53.6765 78.4827 53.1035 78.3398C52.8064 78.2649 52.4524 78.4333 52.0528 78.8416C51.8229 79.0764 51.718 79.3299 51.7319 79.6173C51.761 80.2161 52.3044 80.9884 53.2618 81.7931C53.3398 81.8577 53.388 81.953 53.3956 82.055C53.4035 82.1554 53.3698 82.2558 53.3024 82.3323C53.0173 82.6572 47.9201 88.1553 44.5025 91.7395ZM51.3276 97.7734C51.2471 97.7734 51.1663 97.7479 51.0984 97.6969L43.7065 92.0866C43.6205 92.0219 43.5665 91.9233 43.5579 91.8161C43.5492 91.7072 43.5871 91.6018 43.6616 91.5235C46.7061 88.3373 51.3245 83.3683 52.4777 82.1129C51.761 81.4579 51.0197 80.5666 50.9751 79.6548C50.9506 79.1529 51.1311 78.7004 51.5111 78.3126C52.1133 77.6968 52.7111 77.4586 53.2898 77.6049C53.5688 77.6746 53.8078 77.8294 54.0101 78.0217C54.023 77.217 54.1766 76.3086 54.6961 75.686C55.1389 75.1536 55.7672 74.9001 56.571 74.9324C57.7114 74.9767 58.9057 75.2523 59.9594 75.4938C61.6636 75.8851 63.1363 76.2236 63.6364 75.4904C63.7325 75.3492 63.9144 75.288 64.075 75.3424C64.3727 75.4428 64.3726 75.4428 64.2796 77.1065C64.1724 79.0168 63.9736 82.5739 64.2141 84.1849C64.2444 84.389 64.1062 84.5812 63.903 84.6152L63.0339 84.7632C62.614 85.9795 61.7954 87.1907 60.6548 88.2795C59.6716 89.2185 58.2687 89.3307 57.1636 88.5601C56.8268 88.3237 56.4412 87.963 56.0135 87.4833L54.4731 90.0946C54.0882 90.8516 54.1302 91.7957 54.5948 92.5357L55.3489 93.7384C55.4453 93.8915 55.4193 94.0922 55.2866 94.2164L51.5861 97.6714C51.5135 97.7394 51.4208 97.7734 51.3276 97.7734Z" fill="#161D3B"/>
<path d="M55.9533 87.2148C55.8353 87.2148 55.7189 87.1604 55.6449 87.0566L55.067 86.2503C54.9451 86.0802 54.9844 85.8437 55.1543 85.7212C55.3242 85.6005 55.5609 85.6396 55.683 85.8097L56.2609 86.616C56.3828 86.7862 56.3437 87.0226 56.1736 87.1434C56.1068 87.1927 56.0297 87.2148 55.9533 87.2148Z" fill="#161D3B"/>
<path d="M101.308 146.65L101.533 146.408L101.308 146.65C101.012 146.376 100.545 146.108 99.901 145.854C99.2614 145.602 98.4689 145.371 97.5419 145.162C95.688 144.744 93.3235 144.417 90.6257 144.164C85.2316 143.66 78.5397 143.457 72.0093 143.411C65.4805 143.365 59.12 143.477 54.3912 143.6C52.027 143.661 50.0709 143.725 48.7061 143.774C48.0237 143.799 47.4891 143.819 47.1252 143.834C46.9903 143.839 46.8789 143.844 46.7921 143.847L39.3977 164.992L39.4323 164.993L40.8019 165.041C41.984 165.083 43.6779 165.143 45.7248 165.215C49.8187 165.359 55.3245 165.55 60.9724 165.742C72.2736 166.125 84.1301 166.508 86.3983 166.508C86.8112 166.508 87.229 166.763 87.6252 167.115C88.0346 167.479 88.481 168.001 88.956 168.646C89.9074 169.94 91.0068 171.777 92.1901 173.967C94.5584 178.35 97.2852 184.188 99.8666 190.018C102.449 195.85 104.888 201.681 106.682 206.054C107.579 208.241 108.314 210.063 108.826 211.338C109.081 211.976 109.281 212.477 109.417 212.819C109.455 212.914 109.487 212.996 109.515 213.066L121.116 209.814C121.096 209.722 121.071 209.611 121.041 209.48C120.947 209.063 120.808 208.45 120.628 207.667C120.269 206.101 119.747 203.856 119.098 201.14C117.8 195.709 115.993 188.398 113.957 180.873C111.92 173.348 109.655 165.616 107.442 159.341C106.336 156.203 105.244 153.436 104.202 151.244C103.155 149.04 102.176 147.457 101.308 146.65Z" fill="#FFD600" stroke="#161D3B" stroke-width="0.661182"/>
<path d="M75.657 167.235C76.0696 167.216 76.3777 167.195 76.5739 167.173C76.6656 167.104 76.8026 167.046 76.97 167.102C76.9909 167.109 77.026 167.122 77.0627 167.145C77.0862 167.159 77.1858 167.223 77.2186 167.357C77.2606 167.529 77.1618 167.649 77.1135 167.692C77.0671 167.734 77.0191 167.754 76.9986 167.762C76.9795 167.77 76.9584 167.777 76.9362 167.783C76.9307 167.795 76.9249 167.809 76.9189 167.824C76.844 168.008 76.7601 168.31 76.6707 168.732C76.4933 169.571 76.3078 170.815 76.1205 172.371C75.7461 175.48 75.3681 179.798 75.0304 184.516C74.3664 193.792 73.8599 204.595 73.8428 210.767L85.092 211.2C85.1249 211.113 85.1671 211.002 85.2181 210.867C85.3553 210.505 85.5563 209.974 85.8114 209.295C86.3216 207.938 87.0483 205.993 87.914 203.641C89.6455 198.938 91.9327 192.61 94.1564 186.111C96.3805 179.611 98.5393 172.945 100.015 167.563C100.753 164.871 101.318 162.508 101.636 160.65C101.795 159.72 101.891 158.925 101.916 158.281C101.942 157.629 101.894 157.168 101.791 156.887L102.101 156.773L101.791 156.887C100.929 154.548 98.5993 152.611 95.354 151.006C92.1197 149.407 88.0383 148.168 83.7728 147.191C77.319 145.713 70.495 144.845 65.6087 144.224C64.0328 144.023 62.6584 143.848 61.563 143.687C60.982 143.601 58.1565 143.423 54.5789 143.22C51.0144 143.018 46.7322 142.794 43.2621 142.616C39.5033 142.425 36.1451 144.936 35.2604 148.594C34.5482 151.539 33.8883 155.009 33.8012 158.001C33.7577 159.498 33.8581 160.858 34.1576 161.966C34.4575 163.076 34.9472 163.9 35.6555 164.377C36.2483 164.776 37.3472 165.144 38.8654 165.469C40.3702 165.792 42.2439 166.064 44.3513 166.292C48.5653 166.748 53.6894 167.025 58.6162 167.179C63.5419 167.333 68.2645 167.364 71.6735 167.329C73.3785 167.312 74.7521 167.278 75.657 167.235Z" fill="#FFD600" stroke="#161D3B" stroke-width="0.661182"/>
<path d="M78.2106 142.271H216.348C219.881 142.271 222.628 144.596 222.229 147.25L209.128 234.165H199.668L207.87 152.593C208.014 151.156 206.509 149.929 204.602 149.929H93.3271C90.4726 149.929 88.2215 151.763 88.4377 153.915L96.557 234.676H87.0974L73.7732 146.027C73.4724 144.025 75.5446 142.271 78.2106 142.271Z" fill="white"/>
<path d="M87.0579 234.403H95.7724L87.6949 154.059C87.6 153.115 87.9317 152.169 88.6289 151.399C89.6155 150.308 91.2351 149.657 92.9611 149.657H204.236C205.423 149.657 206.541 150.107 207.223 150.863C207.715 151.404 207.948 152.07 207.88 152.737L199.721 233.893H208.436L221.489 147.301C221.63 146.368 221.342 145.456 220.662 144.664C219.634 143.47 217.884 142.757 215.982 142.757H77.8449C76.4364 142.757 75.143 143.282 74.3852 144.162C73.8891 144.739 73.6804 145.4 73.7819 146.076L87.0579 234.403ZM96.1912 235.16H86.7316C86.5441 235.16 86.3847 235.024 86.357 234.839L73.0328 146.19C72.8994 145.302 73.1758 144.405 73.811 143.669C74.7108 142.622 76.2188 142 77.8449 142H215.982C218.102 142 220.066 142.81 221.235 144.169C222.053 145.12 222.409 146.273 222.237 147.413L209.137 234.328C209.108 234.514 208.95 234.65 208.762 234.65H199.303C199.195 234.65 199.093 234.606 199.022 234.526C198.949 234.446 198.915 234.34 198.925 234.233L207.126 152.661C207.184 152.082 206.905 151.64 206.662 151.371C206.121 150.772 205.212 150.415 204.236 150.415H92.9611C91.4456 150.415 90.0362 150.973 89.1907 151.907C88.6311 152.526 88.3745 153.244 88.4489 153.983L96.5682 234.743C96.5791 234.851 96.544 234.956 96.4722 235.036C96.4004 235.116 96.2984 235.16 96.1912 235.16Z" fill="#161D3B"/>
<path d="M124.984 143.137H74.8377C73.4678 143.137 72.3574 142.026 72.3574 140.656V140.178H127.464V140.656C127.464 142.026 126.355 143.137 124.984 143.137Z" fill="#161D3B"/>
<path d="M72.7342 140.556V140.656C72.7342 141.815 73.677 142.757 74.8356 142.757H124.982C126.14 142.757 127.084 141.815 127.084 140.656V140.556H72.7342ZM124.982 143.516H74.8356C73.2592 143.516 71.9766 142.233 71.9766 140.656V140.178C71.9766 139.969 72.1462 139.799 72.3554 139.799H127.462C127.671 139.799 127.841 139.969 127.841 140.178V140.656C127.841 142.233 126.559 143.516 124.982 143.516Z" fill="#161D3B"/>
<path d="M127.464 140.23H95.9316L105.95 110.74C106.55 109.818 107.594 109.258 108.717 109.258H135.373C136.582 109.258 137.361 110.432 136.967 111.468C136.809 111.88 136.64 112.286 136.502 112.705L127.464 140.23Z" fill="#161D3B"/>
<path d="M96.4604 139.851H127.19L136.142 112.587C136.244 112.277 136.363 111.973 136.479 111.678L136.611 111.331C136.754 110.96 136.7 110.537 136.467 110.2C136.22 109.841 135.822 109.635 135.373 109.635H108.717C107.732 109.635 106.829 110.11 106.293 110.908L96.4604 139.851ZM127.464 140.609H95.9315C95.8096 140.609 95.6948 140.55 95.6237 140.451C95.5525 140.351 95.5335 140.223 95.5729 140.108L105.592 110.617C105.602 110.588 105.615 110.559 105.633 110.534C106.306 109.498 107.459 108.878 108.717 108.878H135.373C136.074 108.878 136.7 109.203 137.091 109.77C137.465 110.312 137.55 110.998 137.321 111.602L137.183 111.954C137.072 112.238 136.958 112.532 136.863 112.823L127.823 140.349C127.774 140.504 127.628 140.609 127.464 140.609Z" fill="#161D3B"/>
<path d="M115.764 124.346C115.388 125.592 115.963 126.868 117.046 127.197C118.13 127.523 119.314 126.778 119.69 125.531C120.066 124.284 119.491 123.008 118.407 122.68C117.322 122.354 116.14 123.099 115.764 124.346Z" fill="white"/>
<path d="M159.194 70.0632C167.117 70.0632 173.54 63.6403 173.54 55.7173C173.54 47.7952 167.117 41.3724 159.194 41.3724C151.271 41.3724 144.849 47.7952 144.849 55.7173C144.849 63.6403 151.271 70.0632 159.194 70.0632Z" fill="#F4F4F4" stroke="#161D3B" stroke-width="0.568939"/>
<path fill-rule="evenodd" clip-rule="evenodd" d="M155.055 50.7064V51.8045L153.745 51.9112C153.295 51.9475 152.87 52.1335 152.538 52.4397C152.206 52.7459 151.987 53.1545 151.914 53.6002C151.883 53.7997 151.852 53.9992 151.826 54.1995C151.82 54.2479 151.829 54.2971 151.853 54.3399C151.876 54.3827 151.913 54.4169 151.957 54.4377L152.016 54.4655C156.215 56.4529 161.242 56.4529 165.44 54.4655L165.499 54.4377C165.543 54.4168 165.579 54.3825 165.603 54.3397C165.626 54.2969 165.635 54.2478 165.629 54.1995C165.603 53.9993 165.574 53.7995 165.542 53.6002C165.469 53.1545 165.25 52.7459 164.918 52.4397C164.586 52.1335 164.161 51.9475 163.711 51.9112L162.401 51.8053V50.7072C162.401 50.383 162.285 50.0696 162.074 49.824C161.862 49.5783 161.57 49.4167 161.249 49.3686L160.306 49.2271C159.26 49.0701 158.196 49.0701 157.15 49.2271L156.207 49.3686C155.887 49.4167 155.594 49.5782 155.383 49.8237C155.171 50.0692 155.055 50.3824 155.055 50.7064ZM160.133 50.3739C159.202 50.2342 158.254 50.2342 157.323 50.3739L156.379 50.5154C156.334 50.5222 156.292 50.5453 156.262 50.5803C156.231 50.6154 156.215 50.6601 156.215 50.7064V51.7233C157.889 51.6274 159.567 51.6274 161.241 51.7233V50.7064C161.241 50.6601 161.225 50.6154 161.194 50.5803C161.164 50.5453 161.122 50.5222 161.077 50.5154L160.133 50.3739Z" fill="#161D3B"/>
<mask id="path-60-inside-2_2005_23873" fill="white">
<path d="M165.778 55.821C165.777 55.796 165.769 55.7717 165.756 55.7503C165.743 55.7289 165.725 55.7109 165.704 55.698C165.682 55.6851 165.658 55.6775 165.633 55.6761C165.608 55.6746 165.583 55.6792 165.56 55.6895C161.252 57.5973 156.202 57.5973 151.894 55.6895C151.871 55.6792 151.846 55.6746 151.821 55.6761C151.796 55.6775 151.772 55.6851 151.751 55.698C151.729 55.7109 151.711 55.7289 151.698 55.7503C151.685 55.7717 151.678 55.796 151.676 55.821C151.597 57.3015 151.677 58.7862 151.913 60.2498C151.986 60.6954 152.205 61.104 152.537 61.4102C152.869 61.7164 153.294 61.9025 153.744 61.9387L155.192 62.0562C157.545 62.2457 159.909 62.2457 162.263 62.0562L163.71 61.9394C164.161 61.9032 164.586 61.717 164.917 61.4107C165.249 61.1044 165.469 60.6956 165.541 60.2498C165.777 58.7843 165.858 57.2996 165.778 55.8217V55.821Z"/>
</mask>
<path d="M165.778 55.821H166.432V55.8009L166.431 55.7809L165.778 55.821ZM165.56 55.6895L165.825 56.2878L165.83 56.2857L165.56 55.6895ZM151.894 55.6895L151.625 56.2857L151.629 56.2877L151.894 55.6895ZM151.676 55.821L151.023 55.7809L151.023 55.7861L151.676 55.821ZM151.913 60.2498L151.268 60.3543L151.268 60.3544L151.913 60.2498ZM153.744 61.9387L153.797 61.2866L153.796 61.2865L153.744 61.9387ZM155.192 62.0562L155.139 62.7083L155.139 62.7084L155.192 62.0562ZM162.263 62.0562L162.315 62.7084L162.315 62.7084L162.263 62.0562ZM163.71 61.9394L163.658 61.2873L163.658 61.2873L163.71 61.9394ZM165.541 60.2498L166.187 60.3542L166.187 60.3541L165.541 60.2498ZM165.778 55.8217H165.124V55.8394L165.125 55.857L165.778 55.8217ZM166.431 55.7809C166.423 55.6501 166.384 55.5233 166.316 55.4112L165.197 56.0894C165.155 56.0202 165.13 55.9418 165.125 55.861L166.431 55.7809ZM166.316 55.4112C166.248 55.2992 166.154 55.2053 166.041 55.1377L165.366 56.2583C165.297 56.2165 165.239 56.1586 165.197 56.0894L166.316 55.4112ZM166.041 55.1377C165.929 55.07 165.802 55.0307 165.672 55.0229L165.594 56.3292C165.514 56.3244 165.435 56.3001 165.366 56.2583L166.041 55.1377ZM165.672 55.0229C165.541 55.0152 165.41 55.0394 165.291 55.0933L165.83 56.2857C165.756 56.319 165.675 56.3339 165.594 56.3292L165.672 55.0229ZM165.295 55.0913C161.156 56.9243 156.298 56.9243 152.159 55.0913L151.629 56.2877C156.106 58.2702 161.348 58.2702 165.825 56.2877L165.295 55.0913ZM152.164 55.0933C152.044 55.0394 151.913 55.0152 151.783 55.0229L151.86 56.3292C151.779 56.3339 151.698 56.319 151.625 56.2857L152.164 55.0933ZM151.783 55.0229C151.652 55.0307 151.525 55.07 151.413 55.1377L152.088 56.2583C152.019 56.3001 151.941 56.3244 151.86 56.3292L151.783 55.0229ZM151.413 55.1377C151.301 55.2053 151.206 55.2992 151.139 55.4112L152.258 56.0894C152.216 56.1586 152.158 56.2165 152.088 56.2583L151.413 55.1377ZM151.139 55.4112C151.071 55.5233 151.031 55.6501 151.023 55.7809L152.329 55.861C152.324 55.9418 152.3 56.0202 152.258 56.0894L151.139 55.4112ZM151.023 55.7861C150.941 57.3132 151.023 58.8446 151.268 60.3543L152.559 60.1452C152.33 58.7277 152.253 57.2898 152.329 55.8558L151.023 55.7861ZM151.268 60.3544C151.363 60.9446 151.654 61.4856 152.093 61.8911L152.981 60.9294C152.757 60.7224 152.608 60.4463 152.559 60.1451L151.268 60.3544ZM152.093 61.8911C152.533 62.2965 153.095 62.5429 153.691 62.5908L153.796 61.2865C153.492 61.262 153.205 61.1363 152.981 60.9294L152.093 61.8911ZM153.691 62.5908L155.139 62.7083L155.244 61.4041L153.797 61.2866L153.691 62.5908ZM155.139 62.7084C157.527 62.9006 159.926 62.9006 162.315 62.7084L162.21 61.4041C159.891 61.5907 157.562 61.5907 155.244 61.4041L155.139 62.7084ZM162.315 62.7084L163.763 62.5916L163.658 61.2873L162.21 61.4041L162.315 62.7084ZM163.763 62.5916C164.359 62.5436 164.922 62.297 165.361 61.8914L164.474 60.9299C164.249 61.137 163.962 61.2628 163.658 61.2873L163.763 62.5916ZM165.361 61.8914C165.801 61.4858 166.091 60.9445 166.187 60.3542L164.895 60.1453C164.846 60.4466 164.698 60.7229 164.474 60.9299L165.361 61.8914ZM166.187 60.3541C166.431 58.843 166.514 57.3115 166.432 55.7865L165.125 55.857C165.202 57.2876 165.124 58.7256 164.895 60.1455L166.187 60.3541ZM166.432 55.8217V55.821H165.124V55.8217H166.432Z" fill="#161D3B" mask="url(#path-60-inside-2_2005_23873)"/>
<circle cx="170.798" cy="65.4267" r="2.8447" fill="#161D3B"/>
<path d="M112.831 43.9497C124.956 43.9497 134.782 34.1707 134.782 22.1105C134.782 10.0518 124.956 0.272728 112.831 0.272728C100.707 0.272728 90.8803 10.0518 90.8803 22.1105C90.8803 34.1707 100.707 43.9497 112.831 43.9497Z" fill="#F4F4F4" stroke="#161D3B" stroke-width="0.545849"/>
<path d="M105.755 11.3828L104.654 12.4985L106.292 14.1602L107.392 13.0445L105.755 11.3828ZM120.122 11.3828L118.484 13.0445L119.584 14.1602L121.221 12.4993L120.122 11.3828ZM101.992 18.9961V20.5832H104.338V18.9961H101.992ZM121.539 18.9961V20.5832H123.884V18.9961H121.539Z" fill="#161D3B"/>
<path d="M110.282 28.7967H116.199V29.9977H110.282V28.7967ZM111.466 31.1987H115.016V32.3996H111.466V31.1987ZM113.241 15.5859C111.672 15.5859 110.167 16.2186 109.057 17.3447C107.948 18.4709 107.324 19.9982 107.324 21.5908C107.284 22.4635 107.449 23.3334 107.805 24.1289C108.161 24.9244 108.698 25.6228 109.371 26.1666C109.963 26.725 110.282 27.0433 110.282 27.5957H111.466C111.466 26.4908 110.809 25.8723 110.17 25.2778C109.617 24.848 109.176 24.2872 108.887 23.6444C108.597 23.0016 108.467 22.2965 108.508 21.5908C108.508 20.3168 109.006 19.0949 109.894 18.194C110.781 17.293 111.985 16.7869 113.241 16.7869C114.496 16.7869 115.7 17.293 116.588 18.194C117.475 19.0949 117.974 20.3168 117.974 21.5908C118.014 22.297 117.883 23.0025 117.592 23.6453C117.301 24.2881 116.86 24.8487 116.305 25.2778C115.672 25.8783 115.016 26.4788 115.016 27.5957H116.199C116.199 27.0433 116.513 26.725 117.11 26.1606C117.783 25.6177 118.32 24.9204 118.676 24.1259C119.032 23.3315 119.197 22.4626 119.157 21.5908C119.157 20.8023 119.004 20.0214 118.707 19.2929C118.409 18.5643 117.974 17.9023 117.424 17.3447C116.875 16.7871 116.223 16.3448 115.505 16.043C114.787 15.7413 114.018 15.5859 113.241 15.5859Z" fill="#161D3B"/>
</svg>
