<svg width="189" height="157" viewBox="0 0 189 157" fill="none" xmlns="http://www.w3.org/2000/svg">
<path d="M126.849 80.5645L126.849 80.5645C123.074 79.7509 120.482 78.3404 118.708 76.7056C116.933 75.0712 115.954 73.1927 115.436 71.4089C114.916 69.6217 114.859 67.9292 114.934 66.6804C114.971 66.0569 115.041 65.5469 115.101 65.1947C115.116 65.1086 115.13 65.032 115.143 64.9656L118.061 64.7301L118.025 64.2868L118.061 64.7301C120.281 64.5509 121.803 62.4155 121.246 60.2594L121.246 60.2593L117.668 46.411C117.773 46.3285 117.913 46.2192 118.084 46.087C118.497 45.7689 119.093 45.3181 119.822 44.7887C121.28 43.7292 123.269 42.3579 125.395 41.1051C127.526 39.8494 129.773 38.7261 131.752 38.1473C133.699 37.5778 135.235 37.5787 136.189 38.2915L144.017 61.1581C144.571 62.7783 145.95 63.9776 147.632 64.3043C147.632 64.3043 147.632 64.3043 147.632 64.3043L150.565 64.8745C150.519 64.967 150.465 65.0709 150.405 65.1855C150.13 65.7121 149.719 66.4626 149.177 67.3539C148.093 69.1377 146.492 71.4781 144.42 73.7131C140.265 78.1941 134.298 82.1705 126.849 80.5645Z" fill="white" stroke="#161D3B" stroke-width="0.889336"/>
<path d="M151.06 64.6308C150.671 65.4346 148.428 69.8839 144.662 73.945C140.853 78.0515 134.659 82.5903 126.78 80.892C121.891 79.8383 118.408 77.6767 116.426 74.4691C113.764 70.1603 114.719 65.3163 114.867 64.6529L118.035 64.3964C118.996 64.319 119.866 63.8248 120.424 63.0408C120.983 62.2569 121.164 61.274 120.924 60.343L117.291 46.2843C118.289 45.4915 132.181 34.5995 136.473 38.089L144.334 61.0495C144.848 62.5521 146.136 63.6733 147.696 63.9762L151.06 64.6308ZM130.196 81.4824C132.539 81.4824 134.851 80.9628 137.102 79.9256C139.782 78.6928 142.381 76.7291 144.828 74.091C148.989 69.603 151.299 64.6452 151.322 64.5954C151.336 64.5645 151.335 64.5291 151.32 64.4981C151.304 64.4683 151.276 64.4473 151.242 64.4406L147.739 63.7595C146.256 63.4721 145.032 62.4062 144.543 60.9776L136.672 37.9873C136.665 37.9685 136.654 37.9519 136.639 37.9386C134.723 36.3454 130.845 37.2498 125.114 40.6265C120.871 43.1265 117.134 46.1262 117.096 46.156C117.063 46.1837 117.047 46.2279 117.058 46.2699L120.709 60.3983C120.934 61.2662 120.765 62.1828 120.244 62.9126C119.724 63.6434 118.913 64.1045 118.017 64.1764L114.77 64.4384C114.722 64.4428 114.683 64.476 114.671 64.5213C114.658 64.5744 113.338 69.8927 116.238 74.5852C118.253 77.8459 121.784 80.0406 126.733 81.1076C127.892 81.3575 129.047 81.4824 130.196 81.4824Z" fill="#161D3B"/>
<path d="M103.405 9.44115C102.06 16.0741 107.228 22.0879 111.699 23.1958C111.857 23.2345 112.016 23.2698 112.172 23.3041C112.267 23.6325 112.384 23.9609 112.533 24.2849C114.291 28.1293 119.323 29.999 123.55 29.6164C124.775 30.9267 126.371 32.7499 128.063 35.0553C133.467 42.4191 137.303 39.1076 142.917 31.8167C143.665 30.846 144.743 29.6076 145.302 27.5521C146.412 23.4711 144.491 19.7958 144.247 19.3447C142.415 15.958 140.057 16.084 134.874 12.6067C126.995 7.31824 126.857 3.277 120.084 0.993778C118.291 0.388973 116.034 -0.341873 113.218 0.174477C109.119 0.925232 104.467 4.20245 103.405 9.44115Z" fill="#161D3B"/>
<path d="M131.204 41.5981C131.204 41.5981 127.391 50.3948 117.403 48.7706C107.417 47.1452 107.164 34.4532 108.055 20.9661C109.053 22.241 111.288 23.2217 113.052 23.9714C120.236 27.0219 126.695 23.0216 127.646 22.5097C125.936 24.6104 125.932 27.4631 127.374 29.3936C128.169 30.4595 129.315 31.229 131.966 31.2744C131.966 31.2744 133.586 27.0496 137.354 29.502C141.122 31.9544 139.72 42.3013 131.204 41.5981Z" fill="white"/>
<path d="M126.79 23.2841C120.799 26.3466 115.981 25.5146 112.943 24.2248L112.943 24.2247C111.993 23.8205 111.028 23.3954 110.171 22.9277C109.449 22.5339 108.796 22.1056 108.289 21.6279C107.911 27.586 107.726 34.2215 108.918 39.2502C109.575 42.0177 110.603 44.1477 112.015 45.6748C113.425 47.1995 115.226 48.1331 117.447 48.4947C122.498 49.3162 125.893 47.3684 127.855 45.5924C129.976 43.6729 130.929 41.5308 130.95 41.4843L126.79 23.2841ZM126.79 23.2841C125.691 25.2915 125.794 27.7395 127.15 29.5578L127.15 29.5579C127.523 30.0568 127.99 30.5467 128.74 30.9156C129.487 31.2833 130.502 31.5247 131.961 31.5498L131.961 31.55L131.969 31.5498C132.064 31.5472 132.18 31.4897 132.225 31.3722L132.225 31.3722L132.227 31.3679C132.227 31.3679 132.227 31.3676 132.227 31.3669C132.236 31.344 132.411 30.909 132.762 30.4179C133.124 29.9105 133.661 29.3623 134.38 29.1292M126.79 23.2841L134.38 29.1292M134.38 29.1292C135.206 28.8624 136.15 29.0484 137.202 29.7328L137.202 29.7328C138.051 30.2852 138.645 31.3152 138.904 32.5728C139.163 33.8278 139.085 35.291 138.609 36.6817C137.516 39.8746 134.77 41.609 131.236 41.3214M134.38 29.1292L131.236 41.3214M131.236 41.3214C131.22 41.3189 131.209 41.3189 131.204 41.3189L131.204 41.3189C131.093 41.3189 130.994 41.3851 130.95 41.4837L130.95 41.4836L131.236 41.3214ZM108.379 39.3781C109.055 42.2308 110.125 44.457 111.617 46.0664C113.112 47.6782 115.022 48.6615 117.358 49.0417C118.209 49.1802 119.017 49.2429 119.781 49.2429C123.737 49.244 126.514 47.5568 128.234 45.9977L128.234 45.9976C130.095 44.3103 131.092 42.4593 131.373 41.8865C135.071 42.1213 137.972 40.2532 139.134 36.8616L139.134 36.8615C139.644 35.3699 139.725 33.7947 139.438 32.4332C139.151 31.0741 138.492 29.91 137.505 29.2675L137.505 29.2675C136.342 28.5106 135.228 28.2706 134.207 28.6029C133.427 28.8556 132.849 29.3921 132.449 29.9019C132.109 30.3358 131.892 30.7584 131.785 30.9912C130.495 30.951 129.617 30.7282 128.982 30.4147C128.333 30.0937 127.928 29.6716 127.596 29.2269C126.173 27.3197 126.275 24.6301 127.861 22.6828L127.861 22.6825C127.944 22.5803 127.945 22.4329 127.859 22.3303C127.859 22.3302 127.859 22.3301 127.859 22.33L127.731 22.4371L108.379 39.3781Z" fill="#161D3B" stroke="#161D3B" stroke-width="0.333501"/>
<path d="M131.791 37.7324C131.837 37.7324 131.88 37.7037 131.896 37.6572C132.119 37.006 132.349 36.3315 132.756 35.7665C133.2 35.1484 133.804 34.7703 134.412 34.7283C134.474 34.7239 134.52 34.6708 134.515 34.61C134.511 34.5492 134.459 34.5038 134.398 34.5072C133.723 34.5536 133.059 34.966 132.576 35.6383C132.151 36.2298 131.915 36.9186 131.687 37.5854C131.667 37.644 131.698 37.7059 131.756 37.7258C131.768 37.7302 131.78 37.7324 131.791 37.7324Z" fill="#161D3B"/>
<path d="M129.376 27.5769C129.376 27.5769 127.748 34.6355 124.226 37.5921C120.704 40.5476 115.55 34.1501 107.523 34.0993C107.523 34.0993 107.302 46.5337 109.091 49.2703C111.35 52.7244 129.268 53.9053 131.368 41.8987C131.368 41.8987 129.461 36.1205 132.131 31.5739L129.376 27.5769Z" fill="#161D3B"/>
<path d="M101.022 64.713C105.265 64.3229 110.564 63.9073 116.474 63.6008C116.809 64.6065 117.255 65.5816 117.818 66.5079L117.818 66.5081C119.626 69.481 122.449 71.7576 125.58 73.1673C128.71 74.5766 132.221 75.2186 135.66 74.8032C139.026 74.3968 142.249 72.9617 144.597 70.4341C145.518 69.4426 146.552 68.326 147.426 67.1259C148.222 66.034 148.902 64.8496 149.246 63.5976C154.551 63.9069 158.786 64.3574 163.811 65.1441C173.514 66.6628 181.881 72.5348 187.193 80.8168C187.68 81.5764 188.169 82.3374 188.659 83.1001C199.99 100.725 211.883 119.224 211.883 140.41C211.883 146.521 208.226 151.007 202.602 154.315C196.97 157.627 189.431 159.714 181.849 161.018C174.276 162.32 166.697 162.835 161.008 163.024C158.164 163.118 155.795 163.131 154.137 163.121C153.308 163.115 152.657 163.104 152.214 163.094C151.993 163.089 151.823 163.085 151.709 163.081L151.58 163.077L151.548 163.076L151.54 163.076L151.538 163.076C151.538 163.076 151.537 163.076 151.521 163.52L151.537 163.076L151.529 163.076H151.521H92.3995L54.8456 131.196C54.8573 131.162 54.87 131.125 54.8838 131.085C54.9737 130.824 55.1077 130.438 55.284 129.939C55.6367 128.941 56.1582 127.491 56.8335 125.684C58.184 122.07 60.1489 117.029 62.6059 111.324C67.5228 99.9079 74.3986 85.8602 82.2521 75.2623C86.7197 69.2344 93.5459 65.4025 101.022 64.713ZM101.022 64.713L100.981 64.2702M101.022 64.713C101.022 64.713 101.022 64.713 101.022 64.713L100.981 64.2702M100.981 64.2702C105.311 63.8722 110.739 63.4476 116.793 63.1391L100.981 64.2702Z" fill="#FFD600" stroke="#161D3B" stroke-width="0.889336"/>
<path d="M133.413 163.077H133.41H133.41L106.8 159.66C106.8 159.658 106.8 159.655 106.8 159.653C106.794 159.405 106.79 159.04 106.798 158.575C106.815 157.645 106.881 156.319 107.078 154.74C107.473 151.579 108.392 147.419 110.484 143.396C112.573 139.378 115.829 135.499 120.906 132.88C125.959 130.272 132.852 128.893 142.26 129.906C142.266 129.912 142.273 129.918 142.28 129.925C142.362 130 142.484 130.114 142.641 130.268C142.956 130.574 143.411 131.036 143.967 131.654C145.08 132.889 146.598 134.745 148.209 137.22C151.43 142.169 155.022 149.591 156.487 159.472C156.574 160.062 156.364 160.567 155.944 161.023C155.515 161.488 154.885 161.879 154.205 162.193C153.531 162.505 152.838 162.729 152.31 162.875C152.047 162.947 151.827 163 151.674 163.035C151.597 163.052 151.538 163.065 151.498 163.073L151.478 163.077H151.438H151.396H151.354H151.312H151.27H151.228H151.186H151.143H151.101H151.059H151.016H150.973H150.931H150.888H150.845H150.802H150.759H150.716H150.673H150.629H150.586H150.543H150.499H150.456H150.412H150.368H150.324H150.281H150.237H150.193H150.149H150.104H150.06H150.016H149.972H149.927H149.883H149.838H149.794H149.749H149.704H149.659H149.614H149.57H149.525H149.48H149.434H149.389H149.344H149.299H149.253H149.208H149.163H149.117H149.072H149.026H148.98H148.935H148.889H148.843H148.797H148.751H148.705H148.659H148.613H148.567H148.521H148.475H148.429H148.382H148.336H148.29H148.243H148.197H148.15H148.104H148.057H148.011H147.964H147.917H147.871H147.824H147.777H147.73H147.684H147.637H147.59H147.543H147.496H147.449H147.402H147.355H147.308H147.261H147.213H147.166H147.119H147.072H147.025H146.977H146.93H146.883H146.835H146.788H146.741H146.693H146.646H146.598H146.551H146.503H146.456H146.408H146.361H146.313H146.266H146.218H146.171H146.123H146.076H146.028H145.98H145.933H145.885H145.838H145.79H145.742H145.695H145.647H145.599H145.552H145.504H145.456H145.409H145.361H145.313H145.266H145.218H145.17H145.123H145.075H145.027H144.98H144.932H144.884H144.837H144.789H144.742H144.694H144.646H144.599H144.551H144.504H144.456H144.409H144.361H144.314H144.266H144.219H144.171H144.124H144.076H144.029H143.981H143.934H143.887H143.839H143.792H143.745H143.698H143.65H143.603H143.556H143.509H143.462H143.414H143.367H143.32H143.273H143.226H143.179H143.132H143.085H143.039H142.992H142.945H142.898H142.851H142.805H142.758H142.711H142.665H142.618H142.572H142.525H142.479H142.432H142.386H142.34H142.293H142.247H142.201H142.155H142.109H142.063H142.017H141.971H141.925H141.879H141.833H141.788H141.742H141.696H141.651H141.605H141.56H141.514H141.469H141.423H141.378H141.333H141.288H141.243H141.198H141.153H141.108H141.063H141.018H140.973H140.929H140.884H140.84H140.795H140.751H140.706H140.662H140.618H140.574H140.53H140.486H140.442H140.398H140.354H140.31H140.267H140.223H140.18H140.136H140.093H140.05H140.006H139.963H139.92H139.877H139.834H139.792H139.749H139.706H139.664H139.621H139.579H139.537H139.494H139.452H139.41H139.368H139.326H139.285H139.243H139.201H139.16H139.118H139.077H139.036H138.995H138.954H138.913H138.872H138.831H138.79H138.75H138.709H138.669H138.629H138.589H138.549H138.509H138.469H138.429H138.389H138.35H138.31H138.271H138.232H138.193H138.154H138.115H138.076H138.037H137.999H137.96H137.922H137.883H137.845H137.807H137.769H137.732H137.694H137.656H137.619H137.582H137.544H137.507H137.47H137.433H137.397H137.36H137.324H137.287H137.251H137.215H137.179H137.143H137.107H137.072H137.036H137.001H136.965H136.93H136.895H136.861H136.826H136.791H136.757H136.722H136.688H136.654H136.62H136.587H136.553H136.519H136.486H136.453H136.42H136.387H136.354H136.321H136.289H136.256H136.224H136.192H136.16H136.128H136.097H136.065H136.034H136.003H135.972H135.941H135.91H135.879H135.849H135.819H135.788H135.758H135.729H135.699H135.669H135.64H135.611H135.582H135.553H135.524H135.495H135.467H135.439H135.411H135.383H135.355H135.327H135.3H135.273H135.245H135.218H135.192H135.165H135.139H135.112H135.086H135.06H135.035H135.009H134.983H134.958H134.933H134.908H134.884H134.859H134.835H134.81H134.786H134.763H134.739H134.715H134.692H134.669H134.646H134.623H134.601H134.578H134.556H134.534H134.512H134.491H134.469H134.448H134.427H134.406H134.385H134.365H134.344H134.324H134.304H134.284H134.265H134.245H134.226H134.207H134.189H134.17H134.152H134.133H134.115H134.098H134.08H134.063H134.046H134.029H134.012H133.995H133.979H133.963H133.947H133.931H133.915H133.9H133.885H133.87H133.855H133.841H133.827H133.813H133.799H133.785H133.772H133.758H133.745H133.733H133.72H133.708H133.696H133.684H133.672H133.66H133.649H133.638H133.627H133.617H133.606H133.596H133.586H133.577H133.567H133.558H133.549H133.54H133.532H133.523H133.515H133.507H133.5H133.492H133.485H133.478H133.472H133.465H133.459H133.453H133.447H133.442H133.436H133.431H133.426H133.422H133.418H133.413Z" fill="white" stroke="#161D3B" stroke-width="0.889336"/>
<path d="M125.938 160.235C125.961 160.402 126.105 160.521 126.267 160.521C126.267 160.521 126.268 160.521 126.268 160.521C126.272 160.521 126.294 160.521 126.319 160.517C126.499 160.489 126.623 160.32 126.597 160.14L126.597 160.14C126.316 158.218 126.764 156.072 127.873 154.1C128.798 152.455 130.168 150.897 132.07 149.34C132.441 149.037 132.82 148.742 133.248 148.556L133.248 148.556L133.252 148.554C133.415 148.479 133.493 148.286 133.419 148.117C133.346 147.949 133.15 147.871 132.981 147.945C132.466 148.171 132.031 148.511 131.648 148.826C129.693 150.426 128.265 152.044 127.293 153.774C126.12 155.861 125.633 158.154 125.938 160.235ZM125.938 160.235C125.938 160.235 125.938 160.235 125.938 160.235L126.158 160.204L125.938 160.236C125.938 160.236 125.938 160.235 125.938 160.235Z" fill="#161D3B" stroke="#161D3B" stroke-width="0.444668"/>
<path d="M117.206 159.64C117.179 159.822 117.305 159.991 117.488 160.018L117.504 160.02H117.511L117.514 160.02C117.519 160.021 117.527 160.021 117.535 160.021C117.7 160.021 117.841 159.899 117.865 159.735L117.865 159.735C118.193 157.42 118.663 154.729 119.668 152.213M117.206 159.64C117.206 159.64 117.206 159.64 117.206 159.64L117.425 159.672C117.754 157.35 118.23 154.616 119.255 152.049L119.255 152.048C119.255 152.048 119.255 152.048 119.255 152.047M117.206 159.64C117.206 159.64 117.206 159.64 117.206 159.64L117.425 159.672C117.425 159.672 117.425 159.672 117.425 159.673L117.426 159.673C117.417 159.733 117.459 159.789 117.52 159.798C117.522 159.798 117.524 159.798 117.527 159.798C117.529 159.799 117.532 159.799 117.535 159.799C117.589 159.799 117.637 159.758 117.645 159.704C117.645 159.704 117.645 159.704 117.645 159.704C117.645 159.703 117.645 159.703 117.645 159.703C117.646 159.698 117.646 159.693 117.647 159.688C117.647 159.693 117.647 159.698 117.646 159.703C117.976 157.376 118.449 154.67 119.463 152.132M117.206 159.64C117.537 157.306 118.015 154.557 119.05 151.966M119.255 152.047C120.322 149.378 121.894 147.186 123.81 145.715L123.81 145.715L123.673 145.543C123.674 145.542 123.674 145.542 123.675 145.541M119.255 152.047L119.05 151.966C119.05 151.966 119.05 151.966 119.05 151.966M119.255 152.047L119.05 151.966M123.675 145.541C123.675 145.541 123.675 145.541 123.676 145.54L123.81 145.715L123.811 145.714L123.811 145.714C123.811 145.714 123.81 145.715 123.81 145.715L123.811 145.717M123.675 145.541C121.727 147.035 120.131 149.259 119.05 151.966M123.675 145.541C123.821 145.427 124.03 145.457 124.142 145.601L124.144 145.603L124.144 145.603C124.251 145.747 124.229 145.956 124.079 146.069M123.811 145.717L123.81 145.715C123.81 145.715 123.81 145.715 123.81 145.715C123.803 145.72 123.798 145.725 123.793 145.731C123.799 145.726 123.805 145.722 123.811 145.717C123.811 145.717 123.811 145.717 123.811 145.717ZM123.811 145.717C123.812 145.716 123.812 145.716 123.813 145.716C123.86 145.68 123.929 145.689 123.966 145.737C124.002 145.785 123.994 145.853 123.948 145.89C123.947 145.89 123.946 145.891 123.945 145.892C123.945 145.892 123.945 145.892 123.945 145.892M123.945 145.892C123.939 145.896 123.934 145.9 123.928 145.905C123.934 145.901 123.94 145.898 123.946 145.893L123.945 145.892ZM123.945 145.892L123.946 145.893C123.946 145.893 123.946 145.893 123.946 145.893C123.947 145.893 123.948 145.892 123.949 145.891L123.946 145.893L123.946 145.893C123.946 145.893 123.946 145.893 123.946 145.893L124.08 146.068C124.08 146.068 124.08 146.068 124.079 146.069M124.079 146.069C124.079 146.069 124.079 146.069 124.078 146.069L123.946 145.893C122.073 147.33 120.521 149.483 119.463 152.13L119.463 152.131C119.463 152.131 119.463 152.131 119.463 152.132M124.079 146.069C122.239 147.482 120.711 149.603 119.668 152.213M119.463 152.132L119.668 152.213M119.463 152.132L119.668 152.213C119.668 152.213 119.668 152.213 119.668 152.213M117.426 159.672C117.426 159.672 117.426 159.672 117.426 159.672L117.425 159.672C117.425 159.672 117.425 159.672 117.425 159.672L117.426 159.672ZM117.426 159.672C117.426 159.667 117.427 159.662 117.428 159.657C117.427 159.662 117.425 159.667 117.425 159.672L117.426 159.672Z" fill="#161D3B" stroke="#161D3B" stroke-width="0.444668"/>
<path d="M110.562 160.02C110.557 160.021 110.549 160.021 110.539 160.021C110.37 160.021 110.228 159.894 110.208 159.727M110.562 160.02L116.049 143.477M110.562 160.02H110.566L110.58 160.018C110.759 159.995 110.892 159.833 110.869 159.647L110.648 159.675M110.562 160.02L110.648 159.675M110.208 159.727C110.208 159.727 110.208 159.726 110.208 159.726L110.427 159.701C109.8 154.45 111.318 150.279 112.7 147.704L112.7 147.704C112.702 147.701 112.703 147.698 112.705 147.695C114.202 144.909 115.869 143.34 115.897 143.314C115.893 143.318 115.889 143.321 115.886 143.325C115.892 143.32 115.896 143.316 115.897 143.315C115.897 143.315 115.898 143.315 115.898 143.314C115.898 143.314 115.898 143.314 115.898 143.314C115.943 143.273 116.013 143.276 116.055 143.32C116.096 143.365 116.094 143.434 116.049 143.476L116.05 143.477C116.05 143.477 116.049 143.477 116.049 143.477M110.208 159.727C109.574 154.416 111.11 150.196 112.51 147.591C114.026 144.77 115.719 143.177 115.746 143.152L115.749 143.149L115.749 143.149C115.882 143.029 116.09 143.034 116.216 143.167L116.22 143.171L116.22 143.171C116.341 143.305 116.336 143.513 116.2 143.64M110.208 159.727C110.208 159.727 110.208 159.727 110.208 159.727L110.427 159.701M116.049 143.477L116.048 143.477L116.049 143.477ZM116.049 143.477L116.2 143.639L116.2 143.639C116.2 143.639 116.2 143.64 116.2 143.64M116.049 143.477L110.427 159.681C110.426 159.687 110.427 159.694 110.427 159.701M116.2 143.64C116.198 143.641 116.192 143.647 116.181 143.658C116.168 143.67 116.15 143.688 116.126 143.712C116.078 143.76 116.008 143.831 115.919 143.924C115.742 144.112 115.491 144.39 115.195 144.753C114.601 145.48 113.826 146.547 113.092 147.914C111.739 150.434 110.255 154.513 110.869 159.649L110.648 159.675M116.2 143.64L110.648 159.675M110.427 159.701C110.427 159.701 110.427 159.701 110.427 159.701L110.427 159.701L110.428 159.703C110.427 159.702 110.427 159.702 110.427 159.701C110.427 159.701 110.427 159.701 110.427 159.701M110.427 159.701L110.427 159.701M110.427 159.701L110.427 159.701M110.427 159.701L110.429 159.7L110.427 159.701M110.427 159.701C110.427 159.701 110.427 159.701 110.427 159.701M110.646 159.654C110.032 154.471 111.53 150.353 112.896 147.809C112.897 147.806 112.899 147.803 112.9 147.801C112.9 147.801 112.9 147.801 112.9 147.801C114.322 145.155 115.897 143.621 116.038 143.486C116.041 143.484 116.044 143.482 116.047 143.479L116.046 143.479L110.646 159.654ZM110.65 159.674L110.65 159.674L110.65 159.674Z" fill="#161D3B" stroke="#161D3B" stroke-width="0.444668"/>
<path d="M25.3386 165.322C23.0886 165.322 21.0641 163.952 20.2315 161.863L0.307205 111.901C-0.222412 110.576 -0.0587692 109.074 0.742844 107.893C1.54446 106.711 2.88012 106.005 4.30865 106.005H73.4809C77.6482 106.005 81.3644 108.629 82.7565 112.554L101.459 165.322H25.3386Z" fill="#161D3B"/>
<path d="M53.2377 134.63C53.7434 136.307 52.97 138.023 51.5125 138.465C50.0549 138.904 48.4624 137.902 47.9567 136.225C47.451 134.548 48.2244 132.832 49.682 132.39C51.1418 131.951 52.732 132.953 53.2377 134.63Z" fill="white"/>
<mask id="path-15-outside-1_2005_23834" maskUnits="userSpaceOnUse" x="143.592" y="128.221" width="46" height="3" fill="black">
<rect fill="white" x="143.592" y="128.221" width="46" height="3"/>
<path d="M188.481 130.221C188.541 130.221 188.591 130.173 188.592 130.112C188.593 130.052 188.544 130.001 188.483 130L144.43 129.165C144.37 129.163 144.318 129.212 144.317 129.273C144.316 129.334 144.364 129.385 144.426 129.386L188.479 130.221C188.48 130.221 188.481 130.221 188.481 130.221Z"/>
</mask>
<path d="M188.481 130.221C188.541 130.221 188.591 130.173 188.592 130.112C188.593 130.052 188.544 130.001 188.483 130L144.43 129.165C144.37 129.163 144.318 129.212 144.317 129.273C144.316 129.334 144.364 129.385 144.426 129.386L188.479 130.221C188.48 130.221 188.481 130.221 188.481 130.221Z" fill="#161D3B"/>
<path d="M188.483 130L188.477 130.333L188.477 130.333L188.483 130ZM144.43 129.165L144.417 129.498L144.423 129.498L144.43 129.165ZM144.317 129.273L143.984 129.266L143.984 129.267L144.317 129.273ZM144.426 129.386L144.432 129.052L144.432 129.052L144.426 129.386ZM188.479 130.221L188.473 130.554H188.479V130.221ZM188.481 130.554C188.722 130.554 188.92 130.363 188.925 130.119L188.258 130.106C188.261 129.984 188.361 129.887 188.481 129.887V130.554ZM188.925 130.119C188.93 129.875 188.736 129.671 188.489 129.666L188.477 130.333C188.353 130.331 188.256 130.228 188.258 130.106L188.925 130.119ZM188.49 129.666L144.436 128.831L144.423 129.498L188.477 130.333L188.49 129.666ZM144.442 128.832C144.191 128.822 143.988 129.025 143.984 129.266L144.65 129.28C144.648 129.4 144.549 129.503 144.417 129.498L144.442 128.832ZM143.984 129.267C143.979 129.511 144.173 129.715 144.42 129.719L144.432 129.052C144.556 129.055 144.653 129.157 144.65 129.279L143.984 129.267ZM144.419 129.719L188.473 130.554L188.485 129.887L144.432 129.052L144.419 129.719ZM188.479 130.554C188.479 130.554 188.479 130.554 188.479 130.554C188.479 130.554 188.479 130.554 188.479 130.554C188.479 130.554 188.479 130.554 188.479 130.554C188.479 130.554 188.479 130.554 188.479 130.554C188.479 130.554 188.479 130.554 188.479 130.554C188.479 130.554 188.479 130.554 188.479 130.554C188.479 130.554 188.479 130.554 188.479 130.554C188.479 130.554 188.479 130.554 188.479 130.554C188.479 130.554 188.479 130.554 188.479 130.554C188.479 130.554 188.479 130.554 188.479 130.554C188.479 130.554 188.479 130.554 188.479 130.554C188.479 130.554 188.479 130.554 188.479 130.554C188.479 130.554 188.479 130.554 188.479 130.554C188.479 130.554 188.479 130.554 188.479 130.554C188.479 130.554 188.479 130.554 188.479 130.554C188.479 130.554 188.479 130.554 188.479 130.554C188.479 130.554 188.479 130.554 188.479 130.554C188.479 130.554 188.479 130.554 188.479 130.554C188.479 130.554 188.479 130.554 188.479 130.554C188.479 130.554 188.479 130.554 188.479 130.554C188.479 130.554 188.479 130.554 188.479 130.554C188.479 130.554 188.479 130.554 188.479 130.554C188.479 130.554 188.479 130.554 188.479 130.554C188.479 130.554 188.479 130.554 188.479 130.554C188.479 130.554 188.479 130.554 188.479 130.554C188.479 130.554 188.479 130.554 188.479 130.554C188.479 130.554 188.479 130.554 188.479 130.554C188.479 130.554 188.479 130.554 188.479 130.554C188.479 130.554 188.479 130.554 188.479 130.554C188.479 130.554 188.479 130.554 188.479 130.554C188.479 130.554 188.479 130.554 188.479 130.554C188.479 130.554 188.479 130.554 188.479 130.554C188.479 130.554 188.479 130.554 188.479 130.554C188.479 130.554 188.479 130.554 188.479 130.554C188.479 130.554 188.479 130.554 188.479 130.554C188.479 130.554 188.479 130.554 188.479 130.554C188.479 130.554 188.479 130.554 188.479 130.554C188.479 130.554 188.479 130.554 188.479 130.554C188.479 130.554 188.479 130.554 188.479 130.554C188.479 130.554 188.479 130.554 188.479 130.554C188.479 130.554 188.479 130.554 188.479 130.554C188.479 130.554 188.479 130.554 188.479 130.554C188.479 130.554 188.479 130.554 188.479 130.554C188.479 130.554 188.479 130.554 188.479 130.554C188.479 130.554 188.479 130.554 188.479 130.554C188.479 130.554 188.479 130.554 188.479 130.554C188.479 130.554 188.479 130.554 188.479 130.554C188.479 130.554 188.479 130.554 188.479 130.554C188.479 130.554 188.479 130.554 188.479 130.554C188.479 130.554 188.479 130.554 188.479 130.554C188.479 130.554 188.479 130.554 188.479 130.554C188.479 130.554 188.479 130.554 188.479 130.554C188.479 130.554 188.479 130.554 188.479 130.554C188.479 130.554 188.479 130.554 188.479 130.554C188.479 130.554 188.479 130.554 188.479 130.554C188.479 130.554 188.479 130.554 188.479 130.554C188.479 130.554 188.479 130.554 188.479 130.554C188.479 130.554 188.479 130.554 188.479 130.554C188.479 130.554 188.479 130.554 188.479 130.554C188.479 130.554 188.479 130.554 188.479 130.554C188.479 130.554 188.479 130.554 188.479 130.554C188.479 130.554 188.479 130.554 188.479 130.554C188.479 130.554 188.479 130.554 188.479 130.554C188.479 130.554 188.479 130.554 188.479 130.554C188.479 130.554 188.479 130.554 188.479 130.554C188.479 130.554 188.479 130.554 188.479 130.554C188.479 130.554 188.479 130.554 188.479 130.554C188.479 130.554 188.479 130.554 188.479 130.554C188.479 130.554 188.479 130.554 188.479 130.554C188.479 130.554 188.479 130.554 188.479 130.554C188.479 130.554 188.479 130.554 188.479 130.554C188.479 130.554 188.479 130.554 188.479 130.554C188.479 130.554 188.479 130.554 188.479 130.554C188.479 130.554 188.479 130.554 188.479 130.554C188.479 130.554 188.479 130.554 188.479 130.554C188.479 130.554 188.479 130.554 188.479 130.554C188.479 130.554 188.479 130.554 188.479 130.554C188.479 130.554 188.479 130.554 188.479 130.554C188.479 130.554 188.479 130.554 188.479 130.554C188.479 130.554 188.479 130.554 188.479 130.554C188.479 130.554 188.479 130.554 188.479 130.554C188.479 130.554 188.479 130.554 188.479 130.554C188.479 130.554 188.479 130.554 188.479 130.554C188.479 130.554 188.479 130.554 188.479 130.554C188.479 130.554 188.479 130.554 188.479 130.554C188.479 130.554 188.479 130.554 188.479 130.554C188.479 130.554 188.479 130.554 188.479 130.554C188.479 130.554 188.479 130.554 188.479 130.554C188.479 130.554 188.479 130.554 188.479 130.554C188.479 130.554 188.479 130.554 188.479 130.554C188.479 130.554 188.479 130.554 188.479 130.554C188.479 130.554 188.479 130.554 188.479 130.554C188.479 130.554 188.479 130.554 188.479 130.554C188.479 130.554 188.479 130.554 188.479 130.554C188.479 130.554 188.479 130.554 188.479 130.554C188.479 130.554 188.479 130.554 188.479 130.554C188.479 130.554 188.479 130.554 188.479 130.554C188.479 130.554 188.479 130.554 188.479 130.554C188.479 130.554 188.48 130.554 188.48 130.554C188.48 130.554 188.48 130.554 188.48 130.554C188.48 130.554 188.48 130.554 188.48 130.554C188.48 130.554 188.48 130.554 188.48 130.554C188.48 130.554 188.48 130.554 188.48 130.554C188.48 130.554 188.48 130.554 188.48 130.554C188.48 130.554 188.48 130.554 188.48 130.554C188.48 130.554 188.48 130.554 188.48 130.554C188.48 130.554 188.48 130.554 188.48 130.554C188.48 130.554 188.48 130.554 188.48 130.554C188.48 130.554 188.48 130.554 188.48 130.554C188.48 130.554 188.48 130.554 188.48 130.554C188.48 130.554 188.48 130.554 188.48 130.554C188.48 130.554 188.48 130.554 188.48 130.554C188.48 130.554 188.48 130.554 188.48 130.554C188.48 130.554 188.48 130.554 188.48 130.554C188.48 130.554 188.48 130.554 188.48 130.554C188.48 130.554 188.48 130.554 188.48 130.554C188.48 130.554 188.48 130.554 188.48 130.554C188.48 130.554 188.48 130.554 188.48 130.554C188.48 130.554 188.48 130.554 188.48 130.554C188.48 130.554 188.48 130.554 188.48 130.554C188.48 130.554 188.48 130.554 188.48 130.554C188.48 130.554 188.48 130.554 188.48 130.554C188.48 130.554 188.48 130.554 188.48 130.554C188.48 130.554 188.48 130.554 188.48 130.554C188.48 130.554 188.48 130.554 188.48 130.554C188.48 130.554 188.48 130.554 188.48 130.554C188.48 130.554 188.48 130.554 188.48 130.554C188.48 130.554 188.48 130.554 188.48 130.554C188.48 130.554 188.48 130.554 188.48 130.554C188.48 130.554 188.48 130.554 188.48 130.554C188.48 130.554 188.48 130.554 188.48 130.554C188.48 130.554 188.48 130.554 188.48 130.554C188.48 130.554 188.48 130.554 188.48 130.554C188.48 130.554 188.48 130.554 188.48 130.554C188.48 130.554 188.48 130.554 188.48 130.554C188.48 130.554 188.48 130.554 188.48 130.554C188.48 130.554 188.48 130.554 188.48 130.554C188.48 130.554 188.48 130.554 188.48 130.554C188.48 130.554 188.48 130.554 188.48 130.554C188.48 130.554 188.48 130.554 188.48 130.554C188.48 130.554 188.48 130.554 188.48 130.554C188.48 130.554 188.48 130.554 188.48 130.554C188.48 130.554 188.48 130.554 188.48 130.554C188.48 130.554 188.48 130.554 188.48 130.554C188.48 130.554 188.48 130.554 188.48 130.554C188.48 130.554 188.48 130.554 188.48 130.554C188.48 130.554 188.48 130.554 188.48 130.554C188.48 130.554 188.48 130.554 188.48 130.554C188.48 130.554 188.48 130.554 188.48 130.554C188.48 130.554 188.48 130.554 188.48 130.554C188.48 130.554 188.48 130.554 188.48 130.554C188.48 130.554 188.48 130.554 188.48 130.554C188.48 130.554 188.48 130.554 188.48 130.554C188.48 130.554 188.48 130.554 188.48 130.554C188.48 130.554 188.48 130.554 188.48 130.554C188.48 130.554 188.48 130.554 188.48 130.554C188.48 130.554 188.48 130.554 188.48 130.554C188.48 130.554 188.48 130.554 188.48 130.554C188.48 130.554 188.48 130.554 188.48 130.554C188.48 130.554 188.48 130.554 188.48 130.554C188.48 130.554 188.48 130.554 188.48 130.554C188.48 130.554 188.48 130.554 188.48 130.554C188.48 130.554 188.48 130.554 188.48 130.554C188.48 130.554 188.48 130.554 188.48 130.554C188.48 130.554 188.48 130.554 188.48 130.554C188.48 130.554 188.48 130.554 188.48 130.554C188.48 130.554 188.48 130.554 188.48 130.554C188.48 130.554 188.48 130.554 188.48 130.554C188.48 130.554 188.48 130.554 188.48 130.554C188.48 130.554 188.48 130.554 188.48 130.554C188.48 130.554 188.48 130.554 188.48 130.554C188.48 130.554 188.48 130.554 188.48 130.554C188.48 130.554 188.48 130.554 188.48 130.554C188.48 130.554 188.48 130.554 188.48 130.554C188.48 130.554 188.48 130.554 188.48 130.554C188.48 130.554 188.48 130.554 188.48 130.554C188.48 130.554 188.48 130.554 188.48 130.554C188.48 130.554 188.48 130.554 188.48 130.554C188.48 130.554 188.48 130.554 188.48 130.554C188.48 130.554 188.48 130.554 188.48 130.554C188.48 130.554 188.48 130.554 188.48 130.554C188.48 130.554 188.48 130.554 188.48 130.554C188.48 130.554 188.48 130.554 188.48 130.554C188.48 130.554 188.48 130.554 188.48 130.554C188.48 130.554 188.48 130.554 188.48 130.554C188.48 130.554 188.48 130.554 188.48 130.554C188.48 130.554 188.48 130.554 188.48 130.554C188.48 130.554 188.48 130.554 188.48 130.554C188.48 130.554 188.48 130.554 188.48 130.554C188.48 130.554 188.48 130.554 188.48 130.554C188.48 130.554 188.48 130.554 188.48 130.554C188.48 130.554 188.48 130.554 188.48 130.554C188.48 130.554 188.48 130.554 188.48 130.554C188.48 130.554 188.48 130.554 188.48 130.554C188.48 130.554 188.48 130.554 188.48 130.554C188.48 130.554 188.48 130.554 188.48 130.554C188.48 130.554 188.48 130.554 188.48 130.554C188.48 130.554 188.48 130.554 188.48 130.554C188.48 130.554 188.48 130.554 188.48 130.554C188.48 130.554 188.48 130.554 188.48 130.554C188.48 130.554 188.48 130.554 188.48 130.554C188.48 130.554 188.48 130.554 188.48 130.554C188.48 130.554 188.48 130.554 188.48 130.554C188.48 130.554 188.48 130.554 188.48 130.554C188.48 130.554 188.48 130.554 188.48 130.554C188.48 130.554 188.48 130.554 188.48 130.554C188.48 130.554 188.48 130.554 188.48 130.554C188.48 130.554 188.48 130.554 188.48 130.554C188.48 130.554 188.48 130.554 188.48 130.554C188.48 130.554 188.48 130.554 188.48 130.554C188.48 130.554 188.48 130.554 188.48 130.554C188.48 130.554 188.48 130.554 188.48 130.554C188.48 130.554 188.48 130.554 188.48 130.554C188.48 130.554 188.48 130.554 188.48 130.554C188.48 130.554 188.48 130.554 188.48 130.554C188.48 130.554 188.48 130.554 188.48 130.554C188.48 130.554 188.48 130.554 188.48 130.554C188.48 130.554 188.48 130.554 188.48 130.554C188.48 130.554 188.48 130.554 188.48 130.554C188.48 130.554 188.48 130.554 188.48 130.554C188.48 130.554 188.48 130.554 188.48 130.554C188.48 130.554 188.48 130.554 188.48 130.554C188.48 130.554 188.48 130.554 188.48 130.554C188.48 130.554 188.48 130.554 188.48 130.554C188.48 130.554 188.48 130.554 188.48 130.554C188.48 130.554 188.48 130.554 188.48 130.554C188.48 130.554 188.48 130.554 188.48 130.554C188.48 130.554 188.48 130.554 188.48 130.554C188.48 130.554 188.48 130.554 188.48 130.554C188.48 130.554 188.48 130.554 188.48 130.554C188.48 130.554 188.48 130.554 188.48 130.554C188.48 130.554 188.48 130.554 188.48 130.554C188.48 130.554 188.48 130.554 188.48 130.554C188.48 130.554 188.48 130.554 188.48 130.554C188.48 130.554 188.48 130.554 188.48 130.554C188.48 130.554 188.48 130.554 188.48 130.554C188.48 130.554 188.48 130.554 188.48 130.554C188.48 130.554 188.48 130.554 188.48 130.554C188.48 130.554 188.48 130.554 188.48 130.554C188.48 130.554 188.48 130.554 188.48 130.554C188.48 130.554 188.48 130.554 188.48 130.554C188.48 130.554 188.48 130.554 188.48 130.554C188.48 130.554 188.48 130.554 188.48 130.554C188.48 130.554 188.48 130.554 188.48 130.554C188.48 130.554 188.48 130.554 188.48 130.554C188.48 130.554 188.48 130.554 188.48 130.554C188.48 130.554 188.48 130.554 188.48 130.554C188.48 130.554 188.48 130.554 188.48 130.554C188.48 130.554 188.48 130.554 188.48 130.554C188.48 130.554 188.48 130.554 188.48 130.554C188.48 130.554 188.48 130.554 188.48 130.554C188.48 130.554 188.48 130.554 188.48 130.554C188.48 130.554 188.48 130.554 188.48 130.554C188.48 130.554 188.48 130.554 188.48 130.554C188.48 130.554 188.48 130.554 188.48 130.554C188.48 130.554 188.48 130.554 188.48 130.554C188.48 130.554 188.48 130.554 188.48 130.554C188.48 130.554 188.48 130.554 188.48 130.554C188.48 130.554 188.48 130.554 188.48 130.554C188.48 130.554 188.48 130.554 188.48 130.554C188.48 130.554 188.48 130.554 188.48 130.554C188.48 130.554 188.48 130.554 188.48 130.554C188.48 130.554 188.48 130.554 188.48 130.554C188.48 130.554 188.48 130.554 188.48 130.554C188.48 130.554 188.48 130.554 188.48 130.554C188.48 130.554 188.48 130.554 188.48 130.554C188.48 130.554 188.48 130.554 188.48 130.554C188.48 130.554 188.48 130.554 188.48 130.554C188.48 130.554 188.48 130.554 188.48 130.554C188.48 130.554 188.48 130.554 188.48 130.554C188.48 130.554 188.48 130.554 188.48 130.554C188.48 130.554 188.48 130.554 188.48 130.554C188.48 130.554 188.48 130.554 188.48 130.554C188.48 130.554 188.48 130.554 188.48 130.554C188.48 130.554 188.48 130.554 188.48 130.554C188.48 130.554 188.48 130.554 188.48 130.554C188.48 130.554 188.48 130.554 188.48 130.554C188.48 130.554 188.48 130.554 188.48 130.554C188.48 130.554 188.48 130.554 188.48 130.554C188.48 130.554 188.48 130.554 188.48 130.554C188.48 130.554 188.48 130.554 188.48 130.554C188.48 130.554 188.48 130.554 188.48 130.554C188.48 130.554 188.48 130.554 188.48 130.554C188.48 130.554 188.48 130.554 188.48 130.554C188.48 130.554 188.48 130.554 188.48 130.554C188.48 130.554 188.48 130.554 188.48 130.554C188.48 130.554 188.48 130.554 188.48 130.554C188.48 130.554 188.48 130.554 188.48 130.554C188.48 130.554 188.48 130.554 188.48 130.554C188.48 130.554 188.48 130.554 188.48 130.554C188.48 130.554 188.48 130.554 188.48 130.554C188.48 130.554 188.48 130.554 188.48 130.554C188.48 130.554 188.48 130.554 188.48 130.554C188.48 130.554 188.48 130.554 188.48 130.554C188.48 130.554 188.48 130.554 188.48 130.554C188.48 130.554 188.48 130.554 188.48 130.554C188.48 130.554 188.48 130.554 188.48 130.554C188.48 130.554 188.48 130.554 188.48 130.554C188.48 130.554 188.48 130.554 188.48 130.554C188.48 130.554 188.48 130.554 188.48 130.554C188.48 130.554 188.48 130.554 188.48 130.554C188.48 130.554 188.48 130.554 188.48 130.554C188.48 130.554 188.48 130.554 188.48 130.554C188.48 130.554 188.48 130.554 188.48 130.554C188.48 130.554 188.48 130.554 188.48 130.554C188.48 130.554 188.48 130.554 188.48 130.554C188.48 130.554 188.48 130.554 188.48 130.554C188.48 130.554 188.48 130.554 188.48 130.554C188.48 130.554 188.48 130.554 188.48 130.554C188.48 130.554 188.48 130.554 188.48 130.554C188.48 130.554 188.48 130.554 188.48 130.554C188.48 130.554 188.48 130.554 188.48 130.554C188.48 130.554 188.48 130.554 188.48 130.554C188.48 130.554 188.48 130.554 188.48 130.554C188.48 130.554 188.48 130.554 188.48 130.554C188.48 130.554 188.48 130.554 188.48 130.554C188.48 130.554 188.48 130.554 188.48 130.554C188.48 130.554 188.48 130.554 188.48 130.554C188.48 130.554 188.48 130.554 188.48 130.554C188.48 130.554 188.48 130.554 188.48 130.554C188.48 130.554 188.48 130.554 188.48 130.554C188.48 130.554 188.48 130.554 188.48 130.554C188.48 130.554 188.48 130.554 188.48 130.554C188.48 130.554 188.48 130.554 188.48 130.554C188.48 130.554 188.48 130.554 188.48 130.554C188.48 130.554 188.48 130.554 188.48 130.554C188.48 130.554 188.48 130.554 188.48 130.554C188.48 130.554 188.48 130.554 188.48 130.554C188.48 130.554 188.48 130.554 188.48 130.554C188.48 130.554 188.48 130.554 188.48 130.554C188.48 130.554 188.48 130.554 188.48 130.554C188.48 130.554 188.48 130.554 188.48 130.554C188.48 130.554 188.48 130.554 188.48 130.554C188.48 130.554 188.48 130.554 188.48 130.554C188.48 130.554 188.48 130.554 188.48 130.554C188.48 130.554 188.48 130.554 188.48 130.554C188.48 130.554 188.48 130.554 188.48 130.554C188.48 130.554 188.48 130.554 188.481 130.554C188.481 130.554 188.481 130.554 188.481 130.554C188.481 130.554 188.481 130.554 188.481 130.554C188.481 130.554 188.481 130.554 188.481 130.554C188.481 130.554 188.481 130.554 188.481 130.554C188.481 130.554 188.481 130.554 188.481 130.554C188.481 130.554 188.481 130.554 188.481 130.554C188.481 130.554 188.481 130.554 188.481 130.554C188.481 130.554 188.481 130.554 188.481 130.554C188.481 130.554 188.481 130.554 188.481 130.554C188.481 130.554 188.481 130.554 188.481 130.554C188.481 130.554 188.481 130.554 188.481 130.554C188.481 130.554 188.481 130.554 188.481 130.554C188.481 130.554 188.481 130.554 188.481 130.554C188.481 130.554 188.481 130.554 188.481 130.554C188.481 130.554 188.481 130.554 188.481 130.554C188.481 130.554 188.481 130.554 188.481 130.554C188.481 130.554 188.481 130.554 188.481 130.554C188.481 130.554 188.481 130.554 188.481 130.554C188.481 130.554 188.481 130.554 188.481 130.554C188.481 130.554 188.481 130.554 188.481 130.554C188.481 130.554 188.481 130.554 188.481 130.554C188.481 130.554 188.481 130.554 188.481 130.554C188.481 130.554 188.481 130.554 188.481 130.554C188.481 130.554 188.481 130.554 188.481 130.554C188.481 130.554 188.481 130.554 188.481 130.554C188.481 130.554 188.481 130.554 188.481 130.554C188.481 130.554 188.481 130.554 188.481 130.554C188.481 130.554 188.481 130.554 188.481 130.554C188.481 130.554 188.481 130.554 188.481 130.554C188.481 130.554 188.481 130.554 188.481 130.554C188.481 130.554 188.481 130.554 188.481 130.554C188.481 130.554 188.481 130.554 188.481 130.554C188.481 130.554 188.481 130.554 188.481 130.554C188.481 130.554 188.481 130.554 188.481 130.554C188.481 130.554 188.481 130.554 188.481 130.554C188.481 130.554 188.481 130.554 188.481 130.554C188.481 130.554 188.481 130.554 188.481 130.554C188.481 130.554 188.481 130.554 188.481 130.554C188.481 130.554 188.481 130.554 188.481 130.554C188.481 130.554 188.481 130.554 188.481 130.554C188.481 130.554 188.481 130.554 188.481 130.554C188.481 130.554 188.481 130.554 188.481 130.554C188.481 130.554 188.481 130.554 188.481 130.554C188.481 130.554 188.481 130.554 188.481 130.554C188.481 130.554 188.481 130.554 188.481 130.554C188.481 130.554 188.481 130.554 188.481 130.554C188.481 130.554 188.481 130.554 188.481 130.554C188.481 130.554 188.481 130.554 188.481 130.554C188.481 130.554 188.481 130.554 188.481 130.554C188.481 130.554 188.481 130.554 188.481 130.554C188.481 130.554 188.481 130.554 188.481 130.554C188.481 130.554 188.481 130.554 188.481 130.554C188.481 130.554 188.481 130.554 188.481 130.554C188.481 130.554 188.481 130.554 188.481 130.554C188.481 130.554 188.481 130.554 188.481 130.554C188.481 130.554 188.481 130.554 188.481 130.554C188.481 130.554 188.481 130.554 188.481 130.554C188.481 130.554 188.481 130.554 188.481 130.554C188.481 130.554 188.481 130.554 188.481 130.554C188.481 130.554 188.481 130.554 188.481 130.554C188.481 130.554 188.481 130.554 188.481 130.554C188.481 130.554 188.481 130.554 188.481 130.554C188.481 130.554 188.481 130.554 188.481 130.554C188.481 130.554 188.481 130.554 188.481 130.554C188.481 130.554 188.481 130.554 188.481 130.554C188.481 130.554 188.481 130.554 188.481 130.554C188.481 130.554 188.481 130.554 188.481 130.554C188.481 130.554 188.481 130.554 188.481 130.554C188.481 130.554 188.481 130.554 188.481 130.554C188.481 130.554 188.481 130.554 188.481 130.554C188.481 130.554 188.481 130.554 188.481 130.554C188.481 130.554 188.481 130.554 188.481 130.554C188.481 130.554 188.481 130.554 188.481 130.554C188.481 130.554 188.481 130.554 188.481 130.554C188.481 130.554 188.481 130.554 188.481 130.554C188.481 130.554 188.481 130.554 188.481 130.554C188.481 130.554 188.481 130.554 188.481 130.554C188.481 130.554 188.481 130.554 188.481 130.554C188.481 130.554 188.481 130.554 188.481 130.554C188.481 130.554 188.481 130.554 188.481 130.554C188.481 130.554 188.481 130.554 188.481 130.554C188.481 130.554 188.481 130.554 188.481 130.554C188.481 130.554 188.481 130.554 188.481 130.554C188.481 130.554 188.481 130.554 188.481 130.554C188.481 130.554 188.481 130.554 188.481 130.554C188.481 130.554 188.481 130.554 188.481 130.554C188.481 130.554 188.481 130.554 188.481 130.554C188.481 130.554 188.481 130.554 188.481 130.554C188.481 130.554 188.481 130.554 188.481 130.554C188.481 130.554 188.481 130.554 188.481 130.554C188.481 130.554 188.481 130.554 188.481 130.554C188.481 130.554 188.481 130.554 188.481 130.554C188.481 130.554 188.481 130.554 188.481 130.554C188.481 130.554 188.481 130.554 188.481 130.554C188.481 130.554 188.481 130.554 188.481 130.554C188.481 130.554 188.481 130.554 188.481 130.554C188.481 130.554 188.481 130.554 188.481 130.554C188.481 130.554 188.481 130.554 188.481 130.554C188.481 130.554 188.481 130.554 188.481 130.554C188.481 130.554 188.481 130.554 188.481 130.554C188.481 130.554 188.481 130.554 188.481 130.554C188.481 130.554 188.481 130.554 188.481 130.554C188.481 130.554 188.481 130.554 188.481 130.554C188.481 130.554 188.481 130.554 188.481 130.554C188.481 130.554 188.481 130.554 188.481 130.554C188.481 130.554 188.481 130.554 188.481 130.554C188.481 130.554 188.481 130.554 188.481 130.554C188.481 130.554 188.481 130.554 188.481 130.554C188.481 130.554 188.481 130.554 188.481 130.554C188.481 130.554 188.481 130.554 188.481 130.554C188.481 130.554 188.481 130.554 188.481 130.554C188.481 130.554 188.481 130.554 188.481 130.554C188.481 130.554 188.481 130.554 188.481 130.554C188.481 130.554 188.481 130.554 188.481 130.554C188.481 130.554 188.481 130.554 188.481 130.554C188.481 130.554 188.481 130.554 188.481 130.554C188.481 130.554 188.481 130.554 188.481 130.554C188.481 130.554 188.481 130.554 188.481 130.554C188.481 130.554 188.481 130.554 188.481 130.554C188.481 130.554 188.481 130.554 188.481 130.554C188.481 130.554 188.481 130.554 188.481 130.554C188.481 130.554 188.481 130.554 188.481 130.554C188.481 130.554 188.481 130.554 188.481 130.554C188.481 130.554 188.481 130.554 188.481 130.554C188.481 130.554 188.481 130.554 188.481 130.554C188.481 130.554 188.481 130.554 188.481 130.554C188.481 130.554 188.481 130.554 188.481 130.554C188.481 130.554 188.481 130.554 188.481 130.554C188.481 130.554 188.481 130.554 188.481 130.554C188.481 130.554 188.481 130.554 188.481 130.554C188.481 130.554 188.481 130.554 188.481 130.554C188.481 130.554 188.481 130.554 188.481 130.554C188.481 130.554 188.481 130.554 188.481 130.554C188.481 130.554 188.481 130.554 188.481 130.554C188.481 130.554 188.481 130.554 188.481 130.554C188.481 130.554 188.481 130.554 188.481 130.554C188.481 130.554 188.481 130.554 188.481 130.554C188.481 130.554 188.481 130.554 188.481 130.554C188.481 130.554 188.481 130.554 188.481 130.554C188.481 130.554 188.481 130.554 188.481 130.554C188.481 130.554 188.481 130.554 188.481 130.554C188.481 130.554 188.481 130.554 188.481 130.554C188.481 130.554 188.481 130.554 188.481 130.554C188.481 130.554 188.481 130.554 188.481 130.554C188.481 130.554 188.481 130.554 188.481 130.554C188.481 130.554 188.481 130.554 188.481 130.554C188.481 130.554 188.481 130.554 188.481 130.554C188.481 130.554 188.481 130.554 188.481 130.554C188.481 130.554 188.481 130.554 188.481 130.554C188.481 130.554 188.481 130.554 188.481 130.554C188.481 130.554 188.481 130.554 188.481 130.554C188.481 130.554 188.481 130.554 188.481 130.554C188.481 130.554 188.481 130.554 188.481 130.554C188.481 130.554 188.481 130.554 188.481 130.554C188.481 130.554 188.481 130.554 188.481 130.554C188.481 130.554 188.481 130.554 188.481 130.554C188.481 130.554 188.481 130.554 188.481 130.554C188.481 130.554 188.481 130.554 188.481 130.554C188.481 130.554 188.481 130.554 188.481 130.554C188.481 130.554 188.481 130.554 188.481 130.554C188.481 130.554 188.481 130.554 188.481 130.554C188.481 130.554 188.481 130.554 188.481 130.554C188.481 130.554 188.481 130.554 188.481 130.554C188.481 130.554 188.481 130.554 188.481 130.554C188.481 130.554 188.481 130.554 188.481 130.554C188.481 130.554 188.481 130.554 188.481 130.554C188.481 130.554 188.481 130.554 188.481 130.554C188.481 130.554 188.481 130.554 188.481 130.554C188.481 130.554 188.481 130.554 188.481 130.554C188.481 130.554 188.481 130.554 188.481 130.554C188.481 130.554 188.481 130.554 188.481 130.554C188.481 130.554 188.481 130.554 188.481 130.554C188.481 130.554 188.481 130.554 188.481 130.554C188.481 130.554 188.481 130.554 188.481 130.554V129.887C188.481 129.887 188.481 129.887 188.481 129.887C188.481 129.887 188.481 129.887 188.481 129.887C188.481 129.887 188.481 129.887 188.481 129.887C188.481 129.887 188.481 129.887 188.481 129.887C188.481 129.887 188.481 129.887 188.481 129.887C188.481 129.887 188.481 129.887 188.481 129.887C188.481 129.887 188.481 129.887 188.481 129.887C188.481 129.887 188.481 129.887 188.481 129.887C188.481 129.887 188.481 129.887 188.481 129.887C188.481 129.887 188.481 129.887 188.481 129.887C188.481 129.887 188.481 129.887 188.481 129.887C188.481 129.887 188.481 129.887 188.481 129.887C188.481 129.887 188.481 129.887 188.481 129.887C188.481 129.887 188.481 129.887 188.481 129.887C188.481 129.887 188.481 129.887 188.481 129.887C188.481 129.887 188.481 129.887 188.481 129.887C188.481 129.887 188.481 129.887 188.481 129.887C188.481 129.887 188.481 129.887 188.481 129.887C188.481 129.887 188.481 129.887 188.481 129.887C188.481 129.887 188.481 129.887 188.481 129.887C188.481 129.887 188.481 129.887 188.481 129.887C188.481 129.887 188.481 129.887 188.481 129.887C188.481 129.887 188.481 129.887 188.481 129.887C188.481 129.887 188.481 129.887 188.481 129.887C188.481 129.887 188.481 129.887 188.481 129.887C188.481 129.887 188.481 129.887 188.481 129.887C188.481 129.887 188.481 129.887 188.481 129.887C188.481 129.887 188.481 129.887 188.481 129.887C188.481 129.887 188.481 129.887 188.481 129.887C188.481 129.887 188.481 129.887 188.481 129.887C188.481 129.887 188.481 129.887 188.481 129.887C188.481 129.887 188.481 129.887 188.481 129.887C188.481 129.887 188.481 129.887 188.481 129.887C188.481 129.887 188.481 129.887 188.481 129.887C188.481 129.887 188.481 129.887 188.481 129.887C188.481 129.887 188.481 129.887 188.481 129.887C188.481 129.887 188.481 129.887 188.481 129.887C188.481 129.887 188.481 129.887 188.481 129.887C188.481 129.887 188.481 129.887 188.481 129.887C188.481 129.887 188.481 129.887 188.481 129.887C188.481 129.887 188.481 129.887 188.481 129.887C188.481 129.887 188.481 129.887 188.481 129.887C188.481 129.887 188.481 129.887 188.481 129.887C188.481 129.887 188.481 129.887 188.481 129.887C188.481 129.887 188.481 129.887 188.481 129.887C188.481 129.887 188.481 129.887 188.481 129.887C188.481 129.887 188.481 129.887 188.481 129.887C188.481 129.887 188.481 129.887 188.481 129.887C188.481 129.887 188.481 129.887 188.481 129.887C188.481 129.887 188.481 129.887 188.481 129.887C188.481 129.887 188.481 129.887 188.481 129.887C188.481 129.887 188.481 129.887 188.481 129.887C188.481 129.887 188.481 129.887 188.481 129.887C188.481 129.887 188.481 129.887 188.481 129.887C188.481 129.887 188.481 129.887 188.481 129.887C188.481 129.887 188.481 129.887 188.481 129.887C188.481 129.887 188.481 129.887 188.481 129.887C188.481 129.887 188.481 129.887 188.481 129.887C188.481 129.887 188.481 129.887 188.481 129.887C188.481 129.887 188.481 129.887 188.481 129.887C188.481 129.887 188.481 129.887 188.481 129.887C188.481 129.887 188.481 129.887 188.481 129.887C188.481 129.887 188.481 129.887 188.481 129.887C188.481 129.887 188.481 129.887 188.481 129.887C188.481 129.887 188.481 129.887 188.481 129.887C188.481 129.887 188.481 129.887 188.481 129.887C188.481 129.887 188.481 129.887 188.481 129.887C188.481 129.887 188.481 129.887 188.481 129.887C188.481 129.887 188.481 129.887 188.481 129.887C188.481 129.887 188.481 129.887 188.481 129.887C188.481 129.887 188.481 129.887 188.481 129.887C188.481 129.887 188.481 129.887 188.481 129.887C188.481 129.887 188.481 129.887 188.481 129.887C188.481 129.887 188.481 129.887 188.481 129.887C188.481 129.887 188.481 129.887 188.481 129.887C188.481 129.887 188.481 129.887 188.481 129.887C188.481 129.887 188.481 129.887 188.481 129.887C188.481 129.887 188.481 129.887 188.481 129.887C188.481 129.887 188.481 129.887 188.481 129.887C188.481 129.887 188.481 129.887 188.481 129.887C188.481 129.887 188.481 129.887 188.481 129.887C188.481 129.887 188.481 129.887 188.481 129.887C188.481 129.887 188.481 129.887 188.481 129.887C188.481 129.887 188.481 129.887 188.481 129.887C188.481 129.887 188.481 129.887 188.481 129.887C188.481 129.887 188.481 129.887 188.481 129.887C188.481 129.887 188.481 129.887 188.481 129.887C188.481 129.887 188.481 129.887 188.481 129.887C188.481 129.887 188.481 129.887 188.481 129.887C188.481 129.887 188.481 129.887 188.481 129.887C188.481 129.887 188.481 129.887 188.481 129.887C188.481 129.887 188.481 129.887 188.481 129.887C188.481 129.887 188.481 129.887 188.481 129.887C188.481 129.887 188.481 129.887 188.481 129.887C188.481 129.887 188.481 129.887 188.481 129.887C188.481 129.887 188.481 129.887 188.481 129.887C188.481 129.887 188.481 129.887 188.481 129.887C188.481 129.887 188.481 129.887 188.481 129.887C188.481 129.887 188.481 129.887 188.481 129.887C188.481 129.887 188.481 129.887 188.481 129.887C188.481 129.887 188.481 129.887 188.481 129.887C188.481 129.887 188.481 129.887 188.481 129.887C188.481 129.887 188.481 129.887 188.481 129.887C188.481 129.887 188.481 129.887 188.481 129.887C188.481 129.887 188.481 129.887 188.481 129.887C188.481 129.887 188.481 129.887 188.481 129.887C188.481 129.887 188.481 129.887 188.481 129.887C188.481 129.887 188.481 129.887 188.481 129.887C188.481 129.887 188.481 129.887 188.481 129.887C188.481 129.887 188.481 129.887 188.481 129.887C188.481 129.887 188.481 129.887 188.481 129.887C188.481 129.887 188.481 129.887 188.481 129.887C188.481 129.887 188.481 129.887 188.481 129.887C188.481 129.887 188.481 129.887 188.481 129.887C188.481 129.887 188.481 129.887 188.481 129.887C188.481 129.887 188.481 129.887 188.481 129.887C188.481 129.887 188.481 129.887 188.481 129.887C188.481 129.887 188.481 129.887 188.481 129.887C188.481 129.887 188.481 129.887 188.481 129.887C188.481 129.887 188.481 129.887 188.481 129.887C188.481 129.887 188.481 129.887 188.481 129.887C188.481 129.887 188.481 129.887 188.481 129.887C188.481 129.887 188.481 129.887 188.481 129.887C188.481 129.887 188.481 129.887 188.481 129.887C188.481 129.887 188.481 129.887 188.481 129.887C188.481 129.887 188.481 129.887 188.481 129.887C188.481 129.887 188.481 129.887 188.481 129.887C188.481 129.887 188.481 129.887 188.481 129.887C188.481 129.887 188.481 129.887 188.481 129.887C188.481 129.887 188.481 129.887 188.481 129.887C188.481 129.887 188.481 129.887 188.481 129.887C188.481 129.887 188.481 129.887 188.481 129.887C188.481 129.887 188.481 129.887 188.481 129.887C188.481 129.887 188.481 129.887 188.481 129.887C188.481 129.887 188.481 129.887 188.481 129.887C188.481 129.887 188.481 129.887 188.481 129.887C188.481 129.887 188.481 129.887 188.481 129.887C188.481 129.887 188.481 129.887 188.481 129.887C188.481 129.887 188.481 129.887 188.481 129.887C188.481 129.887 188.481 129.887 188.481 129.887C188.481 129.887 188.481 129.887 188.481 129.887C188.481 129.887 188.481 129.887 188.481 129.887C188.481 129.887 188.481 129.887 188.481 129.887C188.481 129.887 188.481 129.887 188.481 129.887C188.481 129.887 188.481 129.887 188.481 129.887C188.481 129.887 188.481 129.887 188.481 129.887C188.481 129.887 188.481 129.887 188.481 129.887C188.481 129.887 188.481 129.887 188.481 129.887C188.481 129.887 188.481 129.887 188.481 129.887C188.481 129.887 188.481 129.887 188.481 129.887C188.481 129.887 188.481 129.887 188.481 129.887C188.481 129.887 188.481 129.887 188.481 129.887C188.481 129.887 188.481 129.887 188.481 129.887C188.481 129.887 188.481 129.887 188.481 129.887C188.481 129.887 188.481 129.887 188.481 129.887C188.481 129.887 188.481 129.887 188.481 129.887C188.481 129.887 188.481 129.887 188.481 129.887C188.481 129.887 188.481 129.887 188.481 129.887C188.481 129.887 188.481 129.887 188.481 129.887C188.481 129.887 188.481 129.887 188.481 129.887C188.481 129.887 188.481 129.887 188.481 129.887C188.481 129.887 188.481 129.887 188.481 129.887C188.481 129.887 188.481 129.887 188.481 129.887C188.481 129.887 188.481 129.887 188.481 129.887C188.481 129.887 188.481 129.887 188.481 129.887C188.481 129.887 188.481 129.887 188.481 129.887C188.481 129.887 188.481 129.887 188.481 129.887C188.481 129.887 188.481 129.887 188.481 129.887C188.481 129.887 188.481 129.887 188.481 129.887C188.481 129.887 188.481 129.887 188.481 129.887C188.481 129.887 188.481 129.887 188.481 129.887C188.481 129.887 188.481 129.887 188.481 129.887C188.481 129.887 188.481 129.887 188.481 129.887C188.481 129.887 188.481 129.887 188.481 129.887C188.48 129.887 188.48 129.887 188.48 129.887C188.48 129.887 188.48 129.887 188.48 129.887C188.48 129.887 188.48 129.887 188.48 129.887C188.48 129.887 188.48 129.887 188.48 129.887C188.48 129.887 188.48 129.887 188.48 129.887C188.48 129.887 188.48 129.887 188.48 129.887C188.48 129.887 188.48 129.887 188.48 129.887C188.48 129.887 188.48 129.887 188.48 129.887C188.48 129.887 188.48 129.887 188.48 129.887C188.48 129.887 188.48 129.887 188.48 129.887C188.48 129.887 188.48 129.887 188.48 129.887C188.48 129.887 188.48 129.887 188.48 129.887C188.48 129.887 188.48 129.887 188.48 129.887C188.48 129.887 188.48 129.887 188.48 129.887C188.48 129.887 188.48 129.887 188.48 129.887C188.48 129.887 188.48 129.887 188.48 129.887C188.48 129.887 188.48 129.887 188.48 129.887C188.48 129.887 188.48 129.887 188.48 129.887C188.48 129.887 188.48 129.887 188.48 129.887C188.48 129.887 188.48 129.887 188.48 129.887C188.48 129.887 188.48 129.887 188.48 129.887C188.48 129.887 188.48 129.887 188.48 129.887C188.48 129.887 188.48 129.887 188.48 129.887C188.48 129.887 188.48 129.887 188.48 129.887C188.48 129.887 188.48 129.887 188.48 129.887C188.48 129.887 188.48 129.887 188.48 129.887C188.48 129.887 188.48 129.887 188.48 129.887C188.48 129.887 188.48 129.887 188.48 129.887C188.48 129.887 188.48 129.887 188.48 129.887C188.48 129.887 188.48 129.887 188.48 129.887C188.48 129.887 188.48 129.887 188.48 129.887C188.48 129.887 188.48 129.887 188.48 129.887C188.48 129.887 188.48 129.887 188.48 129.887C188.48 129.887 188.48 129.887 188.48 129.887C188.48 129.887 188.48 129.887 188.48 129.887C188.48 129.887 188.48 129.887 188.48 129.887C188.48 129.887 188.48 129.887 188.48 129.887C188.48 129.887 188.48 129.887 188.48 129.887C188.48 129.887 188.48 129.887 188.48 129.887C188.48 129.887 188.48 129.887 188.48 129.887C188.48 129.887 188.48 129.887 188.48 129.887C188.48 129.887 188.48 129.887 188.48 129.887C188.48 129.887 188.48 129.887 188.48 129.887C188.48 129.887 188.48 129.887 188.48 129.887C188.48 129.887 188.48 129.887 188.48 129.887C188.48 129.887 188.48 129.887 188.48 129.887C188.48 129.887 188.48 129.887 188.48 129.887C188.48 129.887 188.48 129.887 188.48 129.887C188.48 129.887 188.48 129.887 188.48 129.887C188.48 129.887 188.48 129.887 188.48 129.887C188.48 129.887 188.48 129.887 188.48 129.887C188.48 129.887 188.48 129.887 188.48 129.887C188.48 129.887 188.48 129.887 188.48 129.887C188.48 129.887 188.48 129.887 188.48 129.887C188.48 129.887 188.48 129.887 188.48 129.887C188.48 129.887 188.48 129.887 188.48 129.887C188.48 129.887 188.48 129.887 188.48 129.887C188.48 129.887 188.48 129.887 188.48 129.887C188.48 129.887 188.48 129.887 188.48 129.887C188.48 129.887 188.48 129.887 188.48 129.887C188.48 129.887 188.48 129.887 188.48 129.887C188.48 129.887 188.48 129.887 188.48 129.887C188.48 129.887 188.48 129.887 188.48 129.887C188.48 129.887 188.48 129.887 188.48 129.887C188.48 129.887 188.48 129.887 188.48 129.887C188.48 129.887 188.48 129.887 188.48 129.887C188.48 129.887 188.48 129.887 188.48 129.887C188.48 129.887 188.48 129.887 188.48 129.887C188.48 129.887 188.48 129.887 188.48 129.887C188.48 129.887 188.48 129.887 188.48 129.887C188.48 129.887 188.48 129.887 188.48 129.887C188.48 129.887 188.48 129.887 188.48 129.887C188.48 129.887 188.48 129.887 188.48 129.887C188.48 129.887 188.48 129.887 188.48 129.887C188.48 129.887 188.48 129.887 188.48 129.887C188.48 129.887 188.48 129.887 188.48 129.887C188.48 129.887 188.48 129.887 188.48 129.887C188.48 129.887 188.48 129.887 188.48 129.887C188.48 129.887 188.48 129.887 188.48 129.887C188.48 129.887 188.48 129.887 188.48 129.887C188.48 129.887 188.48 129.887 188.48 129.887C188.48 129.887 188.48 129.887 188.48 129.887C188.48 129.887 188.48 129.887 188.48 129.887C188.48 129.887 188.48 129.887 188.48 129.887C188.48 129.887 188.48 129.887 188.48 129.887C188.48 129.887 188.48 129.887 188.48 129.887C188.48 129.887 188.48 129.887 188.48 129.887C188.48 129.887 188.48 129.887 188.48 129.887C188.48 129.887 188.48 129.887 188.48 129.887C188.48 129.887 188.48 129.887 188.48 129.887C188.48 129.887 188.48 129.887 188.48 129.887C188.48 129.887 188.48 129.887 188.48 129.887C188.48 129.887 188.48 129.887 188.48 129.887C188.48 129.887 188.48 129.887 188.48 129.887C188.48 129.887 188.48 129.887 188.48 129.887C188.48 129.887 188.48 129.887 188.48 129.887C188.48 129.887 188.48 129.887 188.48 129.887C188.48 129.887 188.48 129.887 188.48 129.887C188.48 129.887 188.48 129.887 188.48 129.887C188.48 129.887 188.48 129.887 188.48 129.887C188.48 129.887 188.48 129.887 188.48 129.887C188.48 129.887 188.48 129.887 188.48 129.887C188.48 129.887 188.48 129.887 188.48 129.887C188.48 129.887 188.48 129.887 188.48 129.887C188.48 129.887 188.48 129.887 188.48 129.887C188.48 129.887 188.48 129.887 188.48 129.887C188.48 129.887 188.48 129.887 188.48 129.887C188.48 129.887 188.48 129.887 188.48 129.887C188.48 129.887 188.48 129.887 188.48 129.887C188.48 129.887 188.48 129.887 188.48 129.887C188.48 129.887 188.48 129.887 188.48 129.887C188.48 129.887 188.48 129.887 188.48 129.887C188.48 129.887 188.48 129.887 188.48 129.887C188.48 129.887 188.48 129.887 188.48 129.887C188.48 129.887 188.48 129.887 188.48 129.887C188.48 129.887 188.48 129.887 188.48 129.887C188.48 129.887 188.48 129.887 188.48 129.887C188.48 129.887 188.48 129.887 188.48 129.887C188.48 129.887 188.48 129.887 188.48 129.887C188.48 129.887 188.48 129.887 188.48 129.887C188.48 129.887 188.48 129.887 188.48 129.887C188.48 129.887 188.48 129.887 188.48 129.887C188.48 129.887 188.48 129.887 188.48 129.887C188.48 129.887 188.48 129.887 188.48 129.887C188.48 129.887 188.48 129.887 188.48 129.887C188.48 129.887 188.48 129.887 188.48 129.887C188.48 129.887 188.48 129.887 188.48 129.887C188.48 129.887 188.48 129.887 188.48 129.887C188.48 129.887 188.48 129.887 188.48 129.887C188.48 129.887 188.48 129.887 188.48 129.887C188.48 129.887 188.48 129.887 188.48 129.887C188.48 129.887 188.48 129.887 188.48 129.887C188.48 129.887 188.48 129.887 188.48 129.887C188.48 129.887 188.48 129.887 188.48 129.887C188.48 129.887 188.48 129.887 188.48 129.887C188.48 129.887 188.48 129.887 188.48 129.887C188.48 129.887 188.48 129.887 188.48 129.887C188.48 129.887 188.48 129.887 188.48 129.887C188.48 129.887 188.48 129.887 188.48 129.887C188.48 129.887 188.48 129.887 188.48 129.887C188.48 129.887 188.48 129.887 188.48 129.887C188.48 129.887 188.48 129.887 188.48 129.887C188.48 129.887 188.48 129.887 188.48 129.887C188.48 129.887 188.48 129.887 188.48 129.887C188.48 129.887 188.48 129.887 188.48 129.887C188.48 129.887 188.48 129.887 188.48 129.887C188.48 129.887 188.48 129.887 188.48 129.887C188.48 129.887 188.48 129.887 188.48 129.887C188.48 129.887 188.48 129.887 188.48 129.887C188.48 129.887 188.48 129.887 188.48 129.887C188.48 129.887 188.48 129.887 188.48 129.887C188.48 129.887 188.48 129.887 188.48 129.887C188.48 129.887 188.48 129.887 188.48 129.887C188.48 129.887 188.48 129.887 188.48 129.887C188.48 129.887 188.48 129.887 188.48 129.887C188.48 129.887 188.48 129.887 188.48 129.887C188.48 129.887 188.48 129.887 188.48 129.887C188.48 129.887 188.48 129.887 188.48 129.887C188.48 129.887 188.48 129.887 188.48 129.887C188.48 129.887 188.48 129.887 188.48 129.887C188.48 129.887 188.48 129.887 188.48 129.887C188.48 129.887 188.48 129.887 188.48 129.887C188.48 129.887 188.48 129.887 188.48 129.887C188.48 129.887 188.48 129.887 188.48 129.887C188.48 129.887 188.48 129.887 188.48 129.887C188.48 129.887 188.48 129.887 188.48 129.887C188.48 129.887 188.48 129.887 188.48 129.887C188.48 129.887 188.48 129.887 188.48 129.887C188.48 129.887 188.48 129.887 188.48 129.887C188.48 129.887 188.48 129.887 188.48 129.887C188.48 129.887 188.48 129.887 188.48 129.887C188.48 129.887 188.48 129.887 188.48 129.887C188.48 129.887 188.48 129.887 188.48 129.887C188.48 129.887 188.48 129.887 188.48 129.887C188.48 129.887 188.48 129.887 188.48 129.887C188.48 129.887 188.48 129.887 188.48 129.887C188.48 129.887 188.48 129.887 188.48 129.887C188.48 129.887 188.48 129.887 188.48 129.887C188.48 129.887 188.48 129.887 188.48 129.887C188.48 129.887 188.48 129.887 188.48 129.887C188.48 129.887 188.48 129.887 188.48 129.887C188.48 129.887 188.48 129.887 188.48 129.887C188.48 129.887 188.48 129.887 188.48 129.887C188.48 129.887 188.48 129.887 188.48 129.887C188.48 129.887 188.48 129.887 188.48 129.887C188.48 129.887 188.48 129.887 188.48 129.887C188.48 129.887 188.48 129.887 188.48 129.887C188.48 129.887 188.48 129.887 188.48 129.887C188.48 129.887 188.48 129.887 188.48 129.887C188.48 129.887 188.48 129.887 188.48 129.887C188.48 129.887 188.48 129.887 188.48 129.887C188.48 129.887 188.48 129.887 188.48 129.887C188.48 129.887 188.48 129.887 188.48 129.887C188.48 129.887 188.48 129.887 188.48 129.887C188.48 129.887 188.48 129.887 188.48 129.887C188.48 129.887 188.48 129.887 188.48 129.887C188.48 129.887 188.48 129.887 188.48 129.887C188.48 129.887 188.48 129.887 188.48 129.887C188.48 129.887 188.48 129.887 188.48 129.887C188.48 129.887 188.48 129.887 188.48 129.887C188.48 129.887 188.48 129.887 188.48 129.887C188.48 129.887 188.48 129.887 188.48 129.887C188.48 129.887 188.48 129.887 188.48 129.887C188.48 129.887 188.48 129.887 188.48 129.887C188.48 129.887 188.48 129.887 188.48 129.887C188.48 129.887 188.48 129.887 188.48 129.887C188.48 129.887 188.48 129.887 188.48 129.887C188.48 129.887 188.48 129.887 188.48 129.887C188.48 129.887 188.48 129.887 188.48 129.887C188.48 129.887 188.48 129.887 188.48 129.887C188.48 129.887 188.48 129.887 188.48 129.887C188.48 129.887 188.48 129.887 188.48 129.887C188.48 129.887 188.48 129.887 188.48 129.887C188.48 129.887 188.48 129.887 188.48 129.887C188.48 129.887 188.48 129.887 188.48 129.887C188.48 129.887 188.48 129.887 188.48 129.887C188.48 129.887 188.48 129.887 188.48 129.887C188.48 129.887 188.48 129.887 188.48 129.887C188.48 129.887 188.48 129.887 188.48 129.887C188.48 129.887 188.48 129.887 188.48 129.887C188.48 129.887 188.48 129.887 188.48 129.887C188.48 129.887 188.48 129.887 188.48 129.887C188.48 129.887 188.48 129.887 188.48 129.887C188.48 129.887 188.48 129.887 188.48 129.887C188.48 129.887 188.48 129.887 188.48 129.887C188.48 129.887 188.48 129.887 188.48 129.887C188.48 129.887 188.48 129.887 188.48 129.887C188.48 129.887 188.48 129.887 188.48 129.887C188.48 129.887 188.48 129.887 188.48 129.887C188.48 129.887 188.48 129.887 188.48 129.887C188.48 129.887 188.48 129.887 188.48 129.887C188.48 129.887 188.48 129.887 188.48 129.887C188.48 129.887 188.48 129.887 188.48 129.887C188.48 129.887 188.48 129.887 188.48 129.887C188.48 129.887 188.48 129.887 188.48 129.887C188.48 129.887 188.48 129.887 188.48 129.887C188.48 129.887 188.48 129.887 188.48 129.887C188.48 129.887 188.48 129.887 188.48 129.887C188.48 129.887 188.48 129.887 188.48 129.887C188.48 129.887 188.479 129.887 188.479 129.887C188.479 129.887 188.479 129.887 188.479 129.887C188.479 129.887 188.479 129.887 188.479 129.887C188.479 129.887 188.479 129.887 188.479 129.887C188.479 129.887 188.479 129.887 188.479 129.887C188.479 129.887 188.479 129.887 188.479 129.887C188.479 129.887 188.479 129.887 188.479 129.887C188.479 129.887 188.479 129.887 188.479 129.887C188.479 129.887 188.479 129.887 188.479 129.887C188.479 129.887 188.479 129.887 188.479 129.887C188.479 129.887 188.479 129.887 188.479 129.887C188.479 129.887 188.479 129.887 188.479 129.887C188.479 129.887 188.479 129.887 188.479 129.887C188.479 129.887 188.479 129.887 188.479 129.887C188.479 129.887 188.479 129.887 188.479 129.887C188.479 129.887 188.479 129.887 188.479 129.887C188.479 129.887 188.479 129.887 188.479 129.887C188.479 129.887 188.479 129.887 188.479 129.887C188.479 129.887 188.479 129.887 188.479 129.887C188.479 129.887 188.479 129.887 188.479 129.887C188.479 129.887 188.479 129.887 188.479 129.887C188.479 129.887 188.479 129.887 188.479 129.887C188.479 129.887 188.479 129.887 188.479 129.887C188.479 129.887 188.479 129.887 188.479 129.887C188.479 129.887 188.479 129.887 188.479 129.887C188.479 129.887 188.479 129.887 188.479 129.887C188.479 129.887 188.479 129.887 188.479 129.887C188.479 129.887 188.479 129.887 188.479 129.887C188.479 129.887 188.479 129.887 188.479 129.887C188.479 129.887 188.479 129.887 188.479 129.887C188.479 129.887 188.479 129.887 188.479 129.887C188.479 129.887 188.479 129.887 188.479 129.887C188.479 129.887 188.479 129.887 188.479 129.887C188.479 129.887 188.479 129.887 188.479 129.887C188.479 129.887 188.479 129.887 188.479 129.887C188.479 129.887 188.479 129.887 188.479 129.887C188.479 129.887 188.479 129.887 188.479 129.887C188.479 129.887 188.479 129.887 188.479 129.887C188.479 129.887 188.479 129.887 188.479 129.887C188.479 129.887 188.479 129.887 188.479 129.887C188.479 129.887 188.479 129.887 188.479 129.887C188.479 129.887 188.479 129.887 188.479 129.887C188.479 129.887 188.479 129.887 188.479 129.887C188.479 129.887 188.479 129.887 188.479 129.887C188.479 129.887 188.479 129.887 188.479 129.887C188.479 129.887 188.479 129.887 188.479 129.887C188.479 129.887 188.479 129.887 188.479 129.887C188.479 129.887 188.479 129.887 188.479 129.887C188.479 129.887 188.479 129.887 188.479 129.887C188.479 129.887 188.479 129.887 188.479 129.887C188.479 129.887 188.479 129.887 188.479 129.887C188.479 129.887 188.479 129.887 188.479 129.887C188.479 129.887 188.479 129.887 188.479 129.887C188.479 129.887 188.479 129.887 188.479 129.887C188.479 129.887 188.479 129.887 188.479 129.887C188.479 129.887 188.479 129.887 188.479 129.887C188.479 129.887 188.479 129.887 188.479 129.887C188.479 129.887 188.479 129.887 188.479 129.887C188.479 129.887 188.479 129.887 188.479 129.887C188.479 129.887 188.479 129.887 188.479 129.887C188.479 129.887 188.479 129.887 188.479 129.887C188.479 129.887 188.479 129.887 188.479 129.887C188.479 129.887 188.479 129.887 188.479 129.887C188.479 129.887 188.479 129.887 188.479 129.887C188.479 129.887 188.479 129.887 188.479 129.887C188.479 129.887 188.479 129.887 188.479 129.887C188.479 129.887 188.479 129.887 188.479 129.887C188.479 129.887 188.479 129.887 188.479 129.887C188.479 129.887 188.479 129.887 188.479 129.887C188.479 129.887 188.479 129.887 188.479 129.887C188.479 129.887 188.479 129.887 188.479 129.887C188.479 129.887 188.479 129.887 188.479 129.887C188.479 129.887 188.479 129.887 188.479 129.887C188.479 129.887 188.479 129.887 188.479 129.887C188.479 129.887 188.479 129.887 188.479 129.887C188.479 129.887 188.479 129.887 188.479 129.887C188.479 129.887 188.479 129.887 188.479 129.887C188.479 129.887 188.479 129.887 188.479 129.887C188.479 129.887 188.479 129.887 188.479 129.887C188.479 129.887 188.479 129.887 188.479 129.887C188.479 129.887 188.479 129.887 188.479 129.887C188.479 129.887 188.479 129.887 188.479 129.887C188.479 129.887 188.479 129.887 188.479 129.887C188.479 129.887 188.479 129.887 188.479 129.887C188.479 129.887 188.479 129.887 188.479 129.887C188.479 129.887 188.479 129.887 188.479 129.887C188.479 129.887 188.479 129.887 188.479 129.887C188.479 129.887 188.479 129.887 188.479 129.887C188.479 129.887 188.479 129.887 188.479 129.887C188.479 129.887 188.479 129.887 188.479 129.887C188.479 129.887 188.479 129.887 188.479 129.887C188.479 129.887 188.479 129.887 188.479 129.887C188.479 129.887 188.479 129.887 188.479 129.887C188.479 129.887 188.479 129.887 188.479 129.887C188.479 129.887 188.479 129.887 188.479 129.887C188.479 129.887 188.479 129.887 188.479 129.887C188.479 129.887 188.479 129.887 188.479 129.887C188.479 129.887 188.479 129.887 188.479 129.887C188.479 129.887 188.479 129.887 188.479 129.887V130.554Z" fill="#161D3B" mask="url(#path-15-outside-1_2005_23834)"/>
<path d="M174.038 127.531L174.038 127.531C174.082 127.679 173.998 127.832 173.852 127.876L173.804 127.716M174.038 127.531L164.633 110.107C165.907 110.065 166.775 111.328 167.319 112.281C170.071 117.11 172.278 122.256 173.878 127.579C173.896 127.638 173.863 127.699 173.804 127.716M174.038 127.531C172.434 122.196 170.222 117.038 167.464 112.198L167.464 112.198C167.19 111.718 166.828 111.148 166.366 110.701C165.903 110.254 165.326 109.918 164.627 109.941L164.627 109.941C164.474 109.946 164.354 110.074 164.359 110.228L164.359 110.228C164.364 110.375 164.488 110.503 164.645 110.495M174.038 127.531L164.64 110.328M173.804 127.716L173.854 127.875C173.823 127.885 173.794 127.887 173.772 127.887C173.655 127.887 173.543 127.813 173.507 127.69M173.804 127.716C173.793 127.72 173.783 127.721 173.772 127.721C173.725 127.721 173.681 127.691 173.666 127.642M173.507 127.69C173.506 127.69 173.506 127.69 173.506 127.69L173.666 127.642M173.507 127.69C173.507 127.69 173.507 127.69 173.507 127.69L173.666 127.642M173.507 127.69C171.915 122.396 169.72 117.276 166.982 112.473M173.666 127.642C172.071 122.336 169.871 117.205 167.127 112.39M166.982 112.473C166.982 112.473 166.982 112.473 166.982 112.473L167.127 112.39M166.982 112.473L167.127 112.39M166.982 112.473C166.73 112.032 166.412 111.532 166.024 111.143C165.636 110.755 165.195 110.494 164.694 110.494C164.69 110.494 164.686 110.494 164.681 110.494C164.679 110.494 164.676 110.494 164.672 110.495L164.671 110.495C164.664 110.495 164.655 110.495 164.645 110.495M167.127 112.39C166.62 111.502 165.819 110.327 164.694 110.327C164.685 110.327 164.676 110.328 164.667 110.328C164.658 110.328 164.649 110.328 164.64 110.328M164.64 110.328L164.652 110.495C164.65 110.495 164.648 110.495 164.645 110.495M164.64 110.328V110.495C164.642 110.495 164.644 110.495 164.645 110.495" fill="#161D3B" stroke="#161D3B" stroke-width="0.333501"/>
<path d="M153.68 48.1155C151.55 49.156 150.252 51.2944 150.15 53.5488L155.012 51.6603L153.68 48.1155Z" fill="white"/>
<path d="M150.217 53.7255L150.217 53.7256L150.22 53.7243L155.083 51.8369L155.083 51.8368C155.182 51.798 155.231 51.6874 155.194 51.5875L155.194 51.5872L153.863 48.0424L153.863 48.0421C153.843 47.9914 153.804 47.9515 153.754 47.9307L153.754 47.9307L153.752 47.9298C153.702 47.9106 153.645 47.9124 153.597 47.9357L153.597 47.9356L153.596 47.936C151.46 48.9802 150.066 51.1251 149.956 53.5344L149.956 53.5345C149.953 53.6004 149.984 53.6623 150.037 53.7007L150.037 53.7007L150.038 53.7017C150.07 53.7238 150.109 53.7377 150.15 53.7377C150.177 53.7377 150.2 53.7313 150.217 53.7255ZM153.576 48.3817L154.763 51.5443L150.365 53.2519C150.558 51.178 151.763 49.3478 153.576 48.3817ZM150.04 53.5382C150.038 53.5758 150.055 53.6112 150.086 53.6333L153.633 48.0109C151.525 49.0414 150.148 51.1588 150.04 53.5382Z" fill="#161D3B" stroke="#161D3B" stroke-width="0.166751"/>
<path d="M154.941 51.6421L150.151 53.5494C151.722 55.0188 153.984 55.6292 156.143 55.0432L156.697 54.8795L154.941 51.6421Z" fill="white"/>
<path d="M150.043 53.5271L149.962 53.5117C149.949 53.5777 149.971 53.6435 150.019 53.689L150.019 53.689L150.02 53.6897C151.242 54.8334 152.864 55.4525 154.507 55.4525C155.072 55.4525 155.64 55.3797 156.194 55.2284L156.195 55.2285L156.196 55.228L156.752 55.0634C156.809 55.0474 156.855 55.0061 156.877 54.9522C156.899 54.8983 156.897 54.8364 156.868 54.7851C156.868 54.785 156.868 54.7849 156.868 54.7848L155.113 51.548L155.113 51.548L155.112 51.5474C155.065 51.4615 154.962 51.4257 154.871 51.4601L154.871 51.4601L154.87 51.4605L150.081 53.3676C150.018 53.3915 149.974 53.4465 149.961 53.5119L150.043 53.5271ZM150.043 53.5271C150.05 53.4895 150.076 53.4585 150.111 53.4453L156.173 55.148C155.625 55.2973 155.065 55.3691 154.507 55.3691C152.885 55.3691 151.283 54.7577 150.077 53.6288C150.049 53.6023 150.036 53.5647 150.043 53.5271ZM154.854 51.885L156.413 54.76L156.09 54.8555C154.155 55.3798 152.047 54.9043 150.516 53.6113L154.854 51.885Z" fill="#161D3B" stroke="#161D3B" stroke-width="0.166751"/>
<path d="M180.43 56.1473C180.43 56.1473 173.704 53.5865 170.68 46.6384C166.661 37.4038 157.617 38.7262 154.79 43.715C151.88 48.8498 154.176 56.1661 163.588 59.7197C172.999 63.2734 180.319 57.9153 180.319 57.9153L186.121 62.9395L184.882 58.2403L187.32 54.3705L180.43 56.1473Z" fill="white"/>
<path d="M154.887 43.7719C156.271 41.3295 159.204 39.7937 162.186 39.9507C165.739 40.1365 168.798 42.5922 170.579 46.6854C173.587 53.5959 180.323 56.2274 180.391 56.2528M154.887 43.7719C153.571 46.0927 153.358 48.7862 154.287 51.3536C155.568 54.8928 158.885 57.8284 163.627 59.6185M154.887 43.7719L154.959 43.813C156.326 41.4002 159.229 39.8785 162.182 40.034L162.182 40.034C165.694 40.2176 168.73 42.6456 170.503 46.7187C173.512 53.6324 180.232 56.2813 180.36 56.3304M154.887 43.7719L154.959 43.813C153.656 46.1121 153.445 48.7801 154.366 51.3252C155.635 54.8343 158.929 57.7559 163.657 59.5405L163.627 59.6185M163.627 59.6185C168.456 61.4418 172.718 60.8591 175.443 60.0497M163.627 59.6185L163.657 59.5405C168.464 61.3556 172.706 60.7756 175.419 59.9698M175.443 60.0497C178.399 59.1707 180.236 57.8428 180.254 57.8295M175.443 60.0497L175.419 59.9698C175.419 59.9698 175.419 59.9698 175.419 59.9698M175.443 60.0497L175.419 59.9698M180.254 57.8295C180.296 57.7986 180.353 57.8008 180.392 57.835M180.254 57.8295L180.205 57.7626M180.254 57.8295L180.205 57.7622L180.205 57.7625L180.205 57.7626M180.392 57.835L185.812 62.527L185.774 62.3841M180.392 57.835L180.447 57.772L180.447 57.7722L184.719 58.1393M180.392 57.835L180.447 57.7725L185.774 62.3841M185.774 62.3841L185.886 62.4808L184.775 58.2707M185.774 62.3841L184.695 58.2926L184.775 58.2707M184.775 58.2707C184.768 58.2419 184.772 58.2099 184.789 58.1844M184.775 58.2707L184.695 58.2919L184.695 58.2923C184.681 58.2409 184.69 58.1848 184.718 58.1397L184.718 58.14L184.789 58.1844M184.789 58.1844L187.014 54.6529L186.897 54.6832M184.789 58.1844L184.719 58.1393M186.897 54.6832L186.961 54.5804L180.458 56.2572C180.436 56.2628 180.412 56.2617 180.391 56.2528M186.897 54.6832L184.719 58.1393M186.897 54.6832L180.479 56.338L180.478 56.3381C180.441 56.3475 180.399 56.3461 180.36 56.3304M180.391 56.2528L180.362 56.3309C180.361 56.3308 180.361 56.3306 180.36 56.3304M180.391 56.2528L180.359 56.3299C180.36 56.3301 180.36 56.3302 180.36 56.3304M184.719 58.1393L180.205 57.7626M175.419 59.9698C176.891 59.5322 178.084 58.9828 178.911 58.5414C179.325 58.3207 179.647 58.1271 179.866 57.988C179.976 57.9184 180.06 57.8626 180.117 57.8237C180.145 57.8043 180.167 57.7892 180.182 57.7788L180.199 57.7667L180.203 57.7635L180.205 57.7626M186.224 63.1072L186.224 63.1072L186.226 63.1062C186.296 63.0607 186.331 62.9757 186.31 62.8924L186.31 62.8921L185.091 58.2756L187.485 54.4769C187.485 54.4768 187.485 54.4767 187.485 54.4766C187.528 54.4096 187.524 54.3225 187.478 54.2586C187.431 54.1947 187.35 54.1658 187.273 54.1851L187.273 54.1852L180.443 55.9463C179.787 55.6767 173.667 53.0164 170.859 46.5637C169.034 42.3705 165.882 39.8397 162.202 39.6463C159.06 39.48 156.085 41.0388 154.622 43.6214C153.262 46.0214 153.042 48.8055 154.001 51.4571C155.315 55.0883 158.701 58.0844 163.52 59.9033C168.432 61.7579 172.767 61.1637 175.538 60.3386C178.1 59.5763 179.837 58.4792 180.306 58.1634L185.994 63.0875C186.031 63.1209 186.077 63.1361 186.122 63.1361C186.157 63.1361 186.193 63.1264 186.224 63.1072Z" fill="#161D3B" stroke="#161D3B" stroke-width="0.166751"/>
<path d="M163.987 64.9213C164.094 64.9213 164.181 64.834 164.181 64.7273V59.9386C164.181 59.8319 164.094 59.7447 163.987 59.7447C163.88 59.7447 163.793 59.8319 163.793 59.9386V64.7273C163.793 64.834 163.88 64.9213 163.987 64.9213Z" fill="#161D3B" stroke="#161D3B" stroke-width="0.166751"/>
<path d="M168.405 65.8431C168.512 65.8431 168.599 65.7559 168.599 65.6492V60.9368C168.599 60.8285 168.512 60.7429 168.405 60.7429C168.298 60.7429 168.211 60.8285 168.211 60.9368V65.6492C168.211 65.7559 168.298 65.8431 168.405 65.8431Z" fill="#161D3B" stroke="#161D3B" stroke-width="0.166751"/>
<path d="M164.946 48.7345C164.946 48.7345 170.993 44.5341 181.325 36.5898C181.495 36.4593 181.534 36.7368 181.534 36.7368C181.534 36.7368 182.72 42.8247 176.73 46.4978C176.73 46.4978 179.635 45.1765 183.313 43.5356C183.313 43.5356 183.846 48.6306 178.213 50.6451C178.213 50.6451 180.059 50.7004 182.423 50.623C182.423 50.623 178.194 57.0072 168.428 54.4199L164.946 48.7345Z" fill="white"/>
<path d="M179.159 50.4704C179.924 50.4777 181.094 50.4764 182.419 50.4326L182.421 50.5159L182.417 50.4326C182.5 50.4287 182.561 50.4724 182.594 50.5311L182.594 50.5319L182.594 50.5319C182.63 50.5953 182.627 50.6729 182.587 50.7334M179.159 50.4704L178.106 50.6663C178.114 50.7182 178.158 50.7581 178.211 50.7592L178.206 50.8424C178.207 50.8424 178.208 50.8425 178.21 50.8425C178.296 50.8456 179.922 50.8895 182.025 50.8321C181.6 51.3542 180.601 52.431 178.985 53.3311L178.985 53.3311C176.943 54.4693 173.46 55.5552 168.48 54.2366L168.48 54.2366C168.377 54.2097 168.27 54.2693 168.243 54.3744M179.159 50.4704C181.514 49.3688 182.579 47.6891 183.059 46.4066L183.059 46.4066C183.638 44.8573 183.514 43.578 183.507 43.5181L183.507 43.5181C183.501 43.4577 183.466 43.4019 183.411 43.3707L183.411 43.3706C183.356 43.339 183.292 43.338 183.238 43.3603L183.238 43.3603L183.236 43.3612C181.303 44.2238 179.574 45.0032 178.373 45.5455C180.385 43.8054 181.225 41.7928 181.569 40.2859C182.02 38.309 181.745 36.8029 181.726 36.7057C181.723 36.6835 181.713 36.626 181.685 36.5648C181.657 36.5019 181.605 36.4221 181.513 36.3844L181.512 36.3843C181.438 36.3543 181.328 36.3473 181.208 36.4398C170.998 44.2903 164.896 48.5364 164.837 48.5777L164.836 48.5781C164.749 48.6398 164.727 48.7597 164.788 48.8481L164.788 48.8489C164.85 48.9364 164.97 48.9573 165.058 48.8975L165.058 48.8971C165.119 48.8546 171.19 44.6291 181.352 36.8179C181.396 37.0861 181.586 38.4772 181.189 40.209L181.27 40.2276L181.189 40.209C180.783 41.9767 179.665 44.4751 176.631 46.3361L176.63 46.3364C176.544 46.3903 176.513 46.5011 176.561 46.5921C176.609 46.6834 176.72 46.7202 176.813 46.6776L176.813 46.6774L176.814 46.6771L176.816 46.6761L176.823 46.6727L176.85 46.6605L176.951 46.6148L177.328 46.4436C177.654 46.2959 178.124 46.0836 178.703 45.8219C179.838 45.3097 181.396 44.6085 183.133 43.8322C183.138 44.2798 183.089 45.2225 182.692 46.2795C182.186 47.6268 180.988 49.4506 178.149 50.4661C178.149 50.4661 178.149 50.4661 178.149 50.4662L178.177 50.5447L179.159 50.4704ZM182.587 50.7334C182.538 50.8073 181.474 52.3849 179.184 53.6647C177.759 54.4613 175.662 55.2299 172.88 55.2299C171.539 55.2299 170.04 55.0508 168.381 54.6112C168.277 54.584 168.215 54.4776 168.243 54.3744M182.587 50.7334C182.587 50.7334 182.587 50.7334 182.587 50.7334L182.517 50.6873L182.587 50.7333C182.587 50.7333 182.587 50.7333 182.587 50.7334ZM168.243 54.3744C168.243 54.3743 168.243 54.3742 168.243 54.3742L168.323 54.3957M168.243 54.3744C168.243 54.3745 168.243 54.3746 168.243 54.3747L168.323 54.3957M168.323 54.3957C168.339 54.336 168.399 54.3017 168.459 54.3172L168.323 54.3957Z" fill="#161D3B" stroke="#161D3B" stroke-width="0.166751"/>
<path d="M155.479 47.9746C155.479 49.873 157.019 51.4121 158.919 51.4121C160.819 51.4121 162.359 49.873 162.359 47.9746C162.359 46.0761 160.819 44.537 158.919 44.537C157.019 44.537 155.479 46.0761 155.479 47.9746Z" fill="#161D3B"/>
<path d="M156.283 48.9877C156.283 49.66 156.829 50.2051 157.501 50.2051C158.174 50.2051 158.719 49.66 158.719 48.9877C158.719 48.3166 158.174 47.7715 157.501 47.7715C156.829 47.7715 156.283 48.3166 156.283 48.9877Z" fill="white"/>
</svg>
