<svg width="47" height="37" viewBox="0 0 47 37" fill="none" xmlns="http://www.w3.org/2000/svg">
<path d="M43.1745 1.0477C38.6538 2.59353 32.3249 4.13937 23.5096 4.13937C14.6943 4.13937 7.91329 2.3727 3.84469 1.0477C2.48848 0.385201 0.90625 1.48937 0.90625 3.0352V33.9519C0.90625 35.4977 2.48848 36.6019 3.84469 36.1602C8.59139 34.6144 14.6943 32.8477 23.5096 32.8477C32.3249 32.8477 38.6538 34.6144 43.1745 36.1602C44.7567 36.6019 46.1129 35.4977 46.1129 33.9519V3.0352C46.1129 1.48937 44.5307 0.385201 43.1745 1.0477ZM23.5096 25.1185C18.3108 25.1185 13.3381 25.3394 8.81742 26.0019L17.1807 16.2852L21.7013 21.5852L28.0303 14.0769L38.2018 26.0019C33.6811 25.3394 28.7084 25.1185 23.5096 25.1185Z" fill="black"/>
</svg>
