<svg width="24" height="24" viewBox="0 0 24 24" fill="none" xmlns="http://www.w3.org/2000/svg">
<path fill-rule="evenodd" clip-rule="evenodd" d="M17.4976 21.0036H6.49302C5.96232 21.0036 5.45332 20.793 5.07806 20.4177C4.7028 20.0425 4.49219 19.5335 4.49219 19.0028V4.99693C4.49219 4.46623 4.7028 3.95722 5.07806 3.58196C5.45332 3.2067 5.96232 2.99609 6.49302 2.99609H17.4976C18.0283 2.99609 18.5373 3.2067 18.9126 3.58196C19.2878 3.95722 19.4984 4.46623 19.4984 4.99693V19.0028C19.4984 19.5335 19.2878 20.0425 18.9126 20.4177C18.5373 20.793 18.0283 21.0036 17.4976 21.0036Z" fill="#FFD600" stroke="#161D3B" stroke-width="1.5" stroke-linecap="round" stroke-linejoin="round"/>
<path d="M12.0383 5.87125C12.0052 5.87113 11.9734 5.8843 11.9501 5.90781C11.9267 5.93132 11.9138 5.9632 11.9142 5.9963C11.9142 6.04697 11.9448 6.09263 11.9917 6.11193C12.0385 6.13123 12.0924 6.12034 12.1281 6.08437C12.1637 6.0484 12.1742 5.99445 12.1545 5.94775C12.1348 5.90106 12.0889 5.87085 12.0383 5.87125" stroke="#161D3B" stroke-width="1.5" stroke-linecap="round" stroke-linejoin="round"/>
<path d="M7.99219 9.99826H15.9955" stroke="#161D3B" stroke-width="1.5" stroke-linecap="round" stroke-linejoin="round"/>
<path d="M12.9943 16.0002H7.99219" stroke="#161D3B" stroke-width="1.5" stroke-linecap="round" stroke-linejoin="round"/>
<path d="M7.99219 13.0002H15.9955" stroke="#161D3B" stroke-width="1.5" stroke-linecap="round" stroke-linejoin="round"/>
</svg>
