<svg width="24" height="24" viewBox="0 0 24 24" fill="none" xmlns="http://www.w3.org/2000/svg">
<path d="M22.6667 0H1.33333C0.596954 0 0 0.596954 0 1.33333V22.6667C0 23.403 0.596954 24 1.33333 24H22.6667C23.403 24 24 23.403 24 22.6667V1.33333C24 0.596954 23.403 0 22.6667 0Z" fill="#0A66C2"/>
<path fill-rule="evenodd" clip-rule="evenodd" d="M4.37682 8.28301H7.58448V18.6037H4.37682V8.28301ZM5.98115 3.15268C7.00682 3.15268 7.84015 3.98601 7.84015 5.01168C7.84015 6.03834 7.00682 6.87201 5.98115 6.87201C5.73397 6.87669 5.48834 6.83205 5.25862 6.74069C5.02889 6.64934 4.81969 6.5131 4.64323 6.33995C4.46677 6.1668 4.3266 5.96021 4.23091 5.73226C4.13522 5.50431 4.08594 5.25957 4.08594 5.01234C4.08594 4.76512 4.13522 4.52038 4.23091 4.29243C4.3266 4.06447 4.46677 3.85788 4.64323 3.68473C4.81969 3.51158 5.02889 3.37535 5.25862 3.28399C5.48834 3.19264 5.73397 3.148 5.98115 3.15268ZM9.59648 8.28268H12.6731V9.69301H12.7158C13.1441 8.88168 14.1905 8.02634 15.7508 8.02634C18.9988 8.02634 19.5988 10.164 19.5988 12.943V18.6037H16.3931V13.5847C16.3931 12.388 16.3711 10.8483 14.7265 10.8483C13.0575 10.8483 12.8011 12.152 12.8011 13.4983V18.6037H9.59615V8.28301L9.59648 8.28268Z" fill="white"/>
</svg>
