<svg width="17" height="17" viewBox="0 0 17 17" fill="none" xmlns="http://www.w3.org/2000/svg">
<rect width="17" height="17" rx="2" fill="#B14747"/>
<path d="M13.0181 10.6706C12.0963 10.6011 11.202 10.325 10.4012 9.86281C9.30327 10.1038 8.2237 10.4223 7.17065 10.8158C6.12867 12.6009 5.40176 13.3357 4.67485 13.3357C4.33897 13.3246 4.02176 13.1794 3.79431 12.9319C2.98654 11.9708 4.90905 10.719 6.02344 10.1535C6.63759 9.01447 7.19335 7.84435 7.68738 6.6482C7.33203 5.63869 7.21872 4.55967 7.35637 3.49824C7.47725 3.22403 7.71226 3.01634 7.99946 2.93007C8.28638 2.8438 8.5971 2.88761 8.84911 3.0496C9.10142 3.21159 9.2699 3.4758 9.31074 3.77299C9.43135 4.65539 9.34562 5.55406 9.06059 6.39776C9.36347 7.31561 9.98141 8.09687 10.8051 8.60287C11.6129 8.49795 13.2282 8.33623 13.8177 8.89358C14.007 9.09802 14.1082 9.369 14.099 9.64729C14.09 9.92583 13.9713 10.1895 13.7688 10.3813C13.5665 10.5727 13.2967 10.6768 13.0181 10.6706Z" fill="white"/>
<path d="M4.29688 12.7526C4.29688 12.7526 4.80419 12.5483 5.637 11.2383H5.63725C5.09749 11.6523 4.64242 12.1665 4.29688 12.7526H4.29688Z" fill="#B14747"/>
<path d="M7.89693 4.36328C7.77346 4.9611 7.79957 5.57995 7.97273 6.16538C8.18468 5.77926 8.21511 4.36328 7.89693 4.36328Z" fill="#B14747"/>
<path d="M7.90374 7.96875C7.61447 8.79801 7.26004 9.60326 6.84375 10.3768C7.62155 10.0236 8.43004 9.7422 9.25911 9.53635C8.70313 9.11397 8.24143 8.58007 7.90374 7.96882V7.96875Z" fill="#B14747"/>
<path d="M10.9688 9.80695C12.3923 10.4126 12.6042 10.1553 12.6042 10.1553C12.7632 10.0491 12.5135 9.70097 10.9688 9.80695Z" fill="#B14747"/>
</svg>
