<svg width="42" height="42" viewBox="0 0 42 42" fill="none" xmlns="http://www.w3.org/2000/svg">
<path d="M22.5928 34.2677C22.5928 34.2677 28.3861 23.4458 30.2565 19.5545L28.282 17.7716L26.2891 15.9729L25.514 15.273L22.9682 12.9748L21.5474 11.6914C17.6272 13.7324 6.76425 19.9753 6.76425 19.9753C8.234 27.3267 6.29621 32.9108 5.07405 35.5012C4.12841 37.5071 5.07374 37.6478 6.59016 36.8712C9.20158 35.5336 14.8723 33.3194 22.5928 34.2677Z" fill="#161D3B" stroke="#161D3B" stroke-width="2" stroke-miterlimit="10" stroke-linecap="round" stroke-linejoin="round"/>
<path d="M40.9135 11.2278L29.586 1L20.4062 10.4055L31.7346 20.6324L40.9135 11.2278Z" fill="#161D3B" stroke="#161D3B" stroke-width="2" stroke-miterlimit="10" stroke-linecap="round" stroke-linejoin="round"/>
<path d="M16.5722 27.9691C18.4328 27.9691 19.9412 26.5183 19.9412 24.7287C19.9412 22.9391 18.4328 21.4883 16.5722 21.4883C14.7115 21.4883 13.2031 22.9391 13.2031 24.7287C13.2031 26.5183 14.7115 27.9691 16.5722 27.9691Z" fill="#FFD600"/>
<path d="M3.62434 40.9987C5.02627 40.9987 6.16275 39.8622 6.16275 38.4603C6.16275 37.0584 5.02627 35.9219 3.62434 35.9219C2.22242 35.9219 1.08594 37.0584 1.08594 38.4603C1.08594 39.8622 2.22242 40.9987 3.62434 40.9987Z" fill="#FFD600" stroke="#161D3B" stroke-miterlimit="10" stroke-linecap="round" stroke-linejoin="round"/>
</svg>
