<svg width="42" height="40" viewBox="0 0 42 40" fill="none" xmlns="http://www.w3.org/2000/svg">
<path d="M33.5893 2.06393L33.5891 2.06404L13.7494 20.6636L13.7492 20.6637C12.7958 21.5578 12.2561 22.7758 12.235 24.0829L33.5893 2.06393ZM33.5893 2.06393C34.3445 1.3561 35.3061 0.999329 36.2687 0.999329M33.5893 2.06393L36.2687 0.999329M13.6383 27.551L13.6385 27.5512C14.5528 28.4655 15.7913 28.9953 17.1143 28.9549C18.4184 28.9314 19.6338 28.3922 20.5261 27.4399C20.5262 27.4399 20.5263 27.4398 20.5263 27.4397L39.126 7.60056L39.1261 7.60044C40.5779 6.05141 40.5398 3.65356 39.0383 2.15185L13.6383 27.551ZM13.6383 27.551C12.714 26.6262 12.2137 25.3913 12.235 24.0833L13.6383 27.551ZM36.2687 0.999329C37.2719 0.999329 38.2736 1.38673 39.0381 2.15162L36.2687 0.999329Z" fill="#161D3B" stroke="#161D3B" stroke-width="2"/>
<path d="M10.2051 22.5166L10.2019 22.5172C7.95852 22.9242 6.72953 24.921 6.3425 25.5498C6.33411 25.5634 6.32611 25.5764 6.3185 25.5887L10.2051 22.5166ZM10.2051 22.5166C10.4673 22.4699 10.7352 22.4463 11.0063 22.4463C12.4568 22.4463 13.9448 23.1075 15.2192 24.196L15.2194 24.1961M10.2051 22.5166L15.2194 24.1961M5.1473 30.3917L5.1473 30.3917C5.12802 31.5177 5.10361 32.3769 4.61726 33.3831L4.61719 33.3832C4.20247 34.2416 3.51912 35.0342 2.54483 35.7262L5.1473 30.3917ZM5.1473 30.3917L5.14793 30.3552M5.1473 30.3917L5.14793 30.3552M1.86123 37.602L1.86138 37.6026C2.04506 38.3081 2.64605 38.828 3.37168 38.9073L1.86123 37.602ZM1.86123 37.602C1.67783 36.8958 1.94924 36.1491 2.54472 35.7262L1.86123 37.602ZM15.2194 24.1961C17.075 25.7816 18.2814 28.0681 18.2324 30.2461L15.2194 24.1961ZM5.14793 30.3552C5.17086 29.0158 5.19846 27.403 6.31842 25.5889L5.14793 30.3552ZM14.4723 36.052C12.4788 37.4043 10.0335 38.294 8.07518 38.6959L18.2324 30.2463C18.1758 32.7791 16.4418 34.716 14.4723 36.052ZM8.07511 38.6959C6.54306 39.0104 4.96044 39.0811 3.37228 38.9073L8.07511 38.6959Z" fill="#FFD600" stroke="#161D3B" stroke-width="2" stroke-miterlimit="10" stroke-linecap="round" stroke-linejoin="round"/>
</svg>
