<svg width="39" height="39" viewBox="0 0 39 39" fill="none" xmlns="http://www.w3.org/2000/svg">
<path d="M34.8713 34.4004V23.5707V4.26562H4.26562V34.4004H24.0416H34.8713Z" fill="#161D3B"/>
<path d="M7.3 7.5H1.7C1.58979 7.5 1.5 7.41021 1.5 7.3V1.7C1.5 1.58979 1.58979 1.5 1.7 1.5H7.3C7.41021 1.5 7.5 1.58979 7.5 1.7V7.3C7.5 7.41021 7.41021 7.5 7.3 7.5Z" fill="#FFD600" stroke="#161D3B" stroke-width="2"/>
<path d="M7.3 37.0664H1.7C1.58979 37.0664 1.5 36.9766 1.5 36.8664V31.2664C1.5 31.1562 1.58979 31.0664 1.7 31.0664H7.3C7.41021 31.0664 7.5 31.1562 7.5 31.2664V36.8664C7.5 36.9766 7.41021 37.0664 7.3 37.0664Z" fill="#FFD600" stroke="#161D3B" stroke-width="2"/>
<path d="M36.8625 7.5H31.2625C31.1523 7.5 31.0625 7.41021 31.0625 7.3V1.7C31.0625 1.58979 31.1523 1.5 31.2625 1.5H36.8625C36.9727 1.5 37.0625 1.58979 37.0625 1.7V7.3C37.0625 7.41021 36.9727 7.5 36.8625 7.5Z" fill="#FFD600" stroke="#161D3B" stroke-width="2"/>
<path d="M36.8625 37.0664H31.2625C31.1523 37.0664 31.0625 36.9766 31.0625 36.8664V31.2664C31.0625 31.1562 31.1523 31.0664 31.2625 31.0664H36.8625C36.9727 31.0664 37.0625 31.1562 37.0625 31.2664V36.8664C37.0625 36.9766 36.9727 37.0664 36.8625 37.0664Z" fill="#FFD600" stroke="#161D3B" stroke-width="2"/>
</svg>
