<svg width="44" height="44" viewBox="0 0 44 44" fill="none" xmlns="http://www.w3.org/2000/svg">
<path fill-rule="evenodd" clip-rule="evenodd" d="M4.86243 10.2399C4.86243 7.26983 7.26895 4.86331 10.2391 4.86093H12.686C14.1057 4.86093 15.4659 4.29735 16.4742 3.29859L18.1839 1.58644C20.2789 -0.520461 23.6842 -0.529973 25.7911 1.56504L25.7935 1.56741L25.8149 1.58644L27.527 3.29859C28.5353 4.29972 29.8955 4.86093 31.3152 4.86093H33.7598C36.7299 4.86093 39.1388 7.26745 39.1388 10.2399V12.6821C39.1388 14.1018 39.7 15.4644 40.7011 16.4727L42.4133 18.1848C44.5202 20.2798 44.5321 23.6851 42.437 25.792L42.4347 25.7944L42.4133 25.8158L40.7011 27.5279C39.7 28.5338 39.1388 29.894 39.1388 31.3137V33.7606C39.1388 36.7307 36.7322 39.1373 33.7621 39.1373H33.7598H31.3104C29.8908 39.1373 28.5282 39.7009 27.5223 40.702L25.8101 42.4118C23.7175 44.5187 20.3146 44.5306 18.2077 42.4403C18.2053 42.4379 18.2029 42.4355 18.2006 42.4332L18.1792 42.4118L16.4694 40.702C15.4635 39.7009 14.1009 39.1397 12.6813 39.1373H10.2391C7.26895 39.1373 4.86243 36.7307 4.86243 33.7606V31.3089C4.86243 29.8893 4.29884 28.5291 3.29771 27.5232L1.58793 25.811C-0.518964 23.7184 -0.530854 20.3155 1.56178 18.2086C1.56178 18.2062 1.56415 18.2038 1.56653 18.2015L1.58793 18.18L3.29771 16.4679C4.29884 15.4596 4.86243 14.0994 4.86243 12.6774V10.2399Z" fill="#161D3B"/>
<path d="M16 21.9994L20.0011 25.9989L28 18" stroke="#FFD600" stroke-width="3" stroke-linecap="round" stroke-linejoin="round"/>
</svg>
