<svg width="130" height="36" viewBox="0 0 130 36" fill="none" xmlns="http://www.w3.org/2000/svg">
<path d="M19.4171 6.96001C22.866 6.96001 25.1924 8.42001 26.5189 9.64001L31.7024 4.68001C28.5189 1.78 24.3761 0 19.4171 0C12.2336 0 6.02974 4.04 3.00943 9.92001L8.94802 14.44C10.4378 10.1 14.5601 6.96001 19.4171 6.96001Z" fill="#EA4335"/>
<path d="M37.0506 18.4C37.0506 16.92 36.9281 15.84 36.6628 14.72H19.4185V21.4H29.5406C29.3365 23.06 28.2345 25.56 25.7856 27.24L31.5814 31.64C35.0507 28.5 37.0506 23.88 37.0506 18.4Z" fill="#4285F4"/>
<path d="M8.96891 21.5599C8.58117 20.4399 8.35668 19.2399 8.35668 17.9999C8.35668 16.7599 8.58069 15.56 8.94802 14.44L3.00943 9.92001C1.76457 12.36 1.05078 15.0999 1.05078 17.9999C1.05078 20.8999 1.76505 23.6399 3.00991 26.0799L8.96891 21.5599Z" fill="#FBBC05"/>
<path d="M19.4182 36C24.3772 36 28.5406 34.4 31.5814 31.64L25.7856 27.24C24.2347 28.3 22.1528 29.04 19.4182 29.04C14.5612 29.04 10.4383 25.8999 8.96891 21.5599L3.03095 26.08C6.05127 31.96 12.2348 36 19.4182 36Z" fill="#34A853"/>
<path d="M80.6095 22.576C80.6095 26.6506 77.4617 29.6531 73.5985 29.6531C69.7354 29.6531 66.5875 26.6506 66.5875 22.576C66.5875 18.4726 69.7354 15.4988 73.5985 15.4988C77.4617 15.4988 80.6095 18.4726 80.6095 22.576ZM77.5404 22.576C77.5404 20.0297 75.716 18.2876 73.5985 18.2876C71.481 18.2876 69.6566 20.0297 69.6566 22.576C69.6566 25.0967 71.481 26.8644 73.5985 26.8644C75.716 26.8644 77.5404 25.0935 77.5404 22.576Z" fill="#191E2C"/>
<path d="M95.7343 22.576C95.7343 26.6506 92.5865 29.6531 88.7233 29.6531C84.8602 29.6531 81.7123 26.6506 81.7123 22.576C81.7123 18.4758 84.8602 15.4988 88.7233 15.4988C92.5865 15.4988 95.7343 18.4726 95.7343 22.576ZM92.6653 22.576C92.6653 20.0297 90.8408 18.2876 88.7233 18.2876C86.6059 18.2876 84.7814 20.0297 84.7814 22.576C84.7814 25.0967 86.6059 26.8644 88.7233 26.8644C90.8408 26.8644 92.6653 25.0935 92.6653 22.576Z" fill="#191E2C"/>
<path d="M110.229 15.9264V28.632C110.229 33.8585 107.185 35.9931 103.587 35.9931C100.199 35.9931 98.1606 33.699 97.3917 31.8228L100.064 30.6965C100.54 31.8483 101.705 33.2076 103.583 33.2076C105.887 33.2076 107.314 31.7686 107.314 29.0596V28.0417H107.207C106.52 28.9001 105.197 29.6499 103.527 29.6499C100.032 29.6499 96.8309 26.5676 96.8309 22.6015C96.8309 18.6066 100.032 15.4988 103.527 15.4988C105.194 15.4988 106.517 16.2487 107.207 17.0815H107.314V15.9296H110.229V15.9264ZM107.532 22.6015C107.532 20.1095 105.89 18.2876 103.801 18.2876C101.683 18.2876 99.9094 20.1095 99.9094 22.6015C99.9094 25.068 101.683 26.8644 103.801 26.8644C105.89 26.8644 107.532 25.068 107.532 22.6015Z" fill="#191E2C"/>
<path d="M115.034 8.47914V29.2191H112.041V8.47914H115.034Z" fill="#191E2C"/>
<path d="M126.699 24.9052L129.081 26.5134C128.313 27.6652 126.46 29.6499 123.258 29.6499C119.288 29.6499 116.323 26.5421 116.323 22.5728C116.323 18.3641 119.313 15.4956 122.915 15.4956C126.542 15.4956 128.316 18.4184 128.896 19.9978L129.214 20.8019L119.871 24.7202C120.586 26.1401 121.699 26.8644 123.258 26.8644C124.821 26.8644 125.905 26.0858 126.699 24.9052ZM119.367 22.359L125.612 19.733C125.269 18.8491 124.235 18.2333 123.019 18.2333C121.459 18.2333 119.288 19.6277 119.367 22.359Z" fill="#191E2C"/>
<path d="M55.2565 20.7349V17.7324H65.2483C65.346 18.2557 65.3964 18.8747 65.3964 19.5447C65.3964 21.7974 64.7883 24.583 62.8284 26.5676C60.922 28.5778 58.4863 29.6499 55.2596 29.6499C49.279 29.6499 44.25 24.717 44.25 18.6609C44.25 12.6048 49.279 7.67188 55.2596 7.67188C58.5682 7.67188 60.9251 8.98647 62.696 10.6999L60.6037 12.8186C59.3339 11.6125 57.6134 10.6744 55.2565 10.6744C50.8892 10.6744 47.4735 14.2385 47.4735 18.6609C47.4735 23.0833 50.8892 26.6474 55.2565 26.6474C58.0892 26.6474 59.7026 25.4955 60.7361 24.4489C61.5743 23.6002 62.1257 22.3877 62.3431 20.7317L55.2565 20.7349Z" fill="#191E2C"/>
</svg>
