<svg width="83" height="40" viewBox="0 0 83 40" fill="none" xmlns="http://www.w3.org/2000/svg">
<path fill-rule="evenodd" clip-rule="evenodd" d="M15.9188 24.4937C15.31 24.4937 14.8333 24.9196 14.8333 25.5411C14.8333 26.163 15.3124 26.5865 15.9188 26.5865C16.5247 26.5865 17.0043 26.1601 17.0043 25.5411C17.0043 24.9196 16.5272 24.4937 15.9188 24.4937ZM15.9188 26.287C15.4847 26.287 15.1627 25.9699 15.1627 25.5411C15.1627 25.1127 15.4822 24.7932 15.9188 24.7932C16.35 24.7932 16.6745 25.1176 16.6745 25.5411C16.6745 25.9621 16.3472 26.287 15.9188 26.287ZM26.481 20.8301H21.1968L21.7974 11.6456L18.3659 20.8301H13.459L21.2447 0.0703125H26.4658L25.8632 9.38091L29.3598 0.0703125H34.2671L26.481 20.8301ZM27.1184 20.8301L34.9037 0.0703125H39.8107L32.0254 20.8301H27.1184Z" fill="#232529"/>
<path fill-rule="evenodd" clip-rule="evenodd" d="M12.8936 13.6635C6.03665 21.716 -0.431596 32.4304 5.28177 37.3643C10.818 42.1456 17.7379 39.3147 22.4562 37.4273C27.1745 35.5399 79.3259 12.8927 79.3259 12.8927C79.8292 12.6411 79.7351 12.3264 79.1058 12.4836C78.8521 12.547 22.3306 27.8647 22.3306 27.8647C15.1582 29.8781 6.98014 25.49 12.8936 13.6635Z" fill="#232529"/>
<path fill-rule="evenodd" clip-rule="evenodd" d="M16.1058 25.6078C16.258 25.6005 16.3771 25.5219 16.3771 25.3112C16.3771 25.0395 16.1995 24.9712 15.9029 24.9712H15.4766V26.0976H15.7609V25.6181H15.8088L16.0678 26.0976H16.3947L16.1058 25.6078ZM15.9234 25.4254H15.7613V25.1639H15.898C15.9819 25.1639 16.078 25.1737 16.078 25.283C16.078 25.4 16.0224 25.4254 15.9234 25.4254ZM65.2471 0C64.6383 0 64.1616 0.426333 64.1616 1.04742C64.1616 1.66892 64.6412 2.09239 65.2471 2.09239C65.8531 2.09239 66.3326 1.66605 66.3326 1.04742C66.333 0.426333 65.8563 0 65.2471 0ZM65.2471 1.79371C64.813 1.79371 64.491 1.47662 64.491 1.04783C64.491 0.619452 64.8106 0.299906 65.2471 0.299906C65.6784 0.299906 66.0032 0.624362 66.0032 1.04783C66.0032 1.46885 65.6759 1.79371 65.2471 1.79371Z" fill="#232529"/>
<path fill-rule="evenodd" clip-rule="evenodd" d="M65.4311 1.12796C65.5833 1.1206 65.7028 1.04204 65.7028 0.83133C65.7028 0.559655 65.5248 0.491327 65.2286 0.491327H64.8023V1.61731H65.0862V1.13819H65.1345L65.3931 1.61731H65.7204L65.4311 1.12796ZM65.2482 0.945483H65.0862V0.684036H65.2233C65.3067 0.684036 65.4033 0.694265 65.4033 0.803508C65.4033 0.920116 65.3473 0.945483 65.2482 0.945483ZM62.0127 3.53049L63.3314 0.0703125H48.359L43.218 6.29838L45.5915 0.0703125H40.6215L32.8984 20.8301H37.8054L41.1027 12.1488L41.3286 20.8301L56.3848 20.7974L57.8181 16.8041H52.0937L53.9745 11.7716H58.6924L60.1441 7.90266H55.4262L57.0436 3.53049H62.0127ZM46.1966 19.446L45.882 8.62603L53.3011 0.48028L46.1966 19.446Z" fill="#232529"/>
</svg>
