<svg width="112" height="40" viewBox="0 0 112 40" fill="none" xmlns="http://www.w3.org/2000/svg">
<path fill-rule="evenodd" clip-rule="evenodd" d="M11.0339 25.5173C11.0339 23.1993 12.8179 21.3333 15.0339 21.3333C17.2499 21.3333 19.0339 23.1993 19.0339 25.5173V35.816C19.0339 38.1339 17.2499 40 15.0339 40C12.8179 40 11.0339 38.1339 11.0339 35.816V25.5173Z" fill="#E01E5A"/>
<path fill-rule="evenodd" clip-rule="evenodd" d="M25.8845 29.3333C23.5667 29.3333 21.7005 27.5493 21.7005 25.3333C21.7005 23.1173 23.5665 21.3333 25.8845 21.3333H36.1835C38.5013 21.3333 40.3675 23.1173 40.3675 25.3333C40.3675 27.5493 38.5015 29.3333 36.1835 29.3333H25.8845Z" fill="#ECB22D"/>
<path fill-rule="evenodd" clip-rule="evenodd" d="M21.7005 4.184C21.7005 1.866 23.4845 0 25.7005 0C27.9165 0 29.7005 1.866 29.7005 4.184V14.4827C29.7005 16.8007 27.9165 18.6667 25.7005 18.6667C23.4845 18.6667 21.7005 16.8007 21.7005 14.4827V4.184Z" fill="#2FB67C"/>
<path fill-rule="evenodd" clip-rule="evenodd" d="M4.55119 18.6667C2.23319 18.6667 0.367188 16.8827 0.367188 14.6667C0.367188 12.4507 2.23319 10.6667 4.55119 10.6667H14.8499C17.1679 10.6667 19.0339 12.4507 19.0339 14.6667C19.0339 16.8827 17.1679 18.6667 14.8499 18.6667H4.55119Z" fill="#36C5F1"/>
<path fill-rule="evenodd" clip-rule="evenodd" d="M21.7005 36C21.7005 38.216 23.4845 40 25.7005 40C27.9165 40 29.7005 38.216 29.7005 36C29.7005 33.784 27.9165 32 25.7005 32H21.7005V36Z" fill="#ECB22D"/>
<path fill-rule="evenodd" clip-rule="evenodd" d="M36.3672 18.6667H32.3672V14.6667C32.3672 12.4507 34.1512 10.6667 36.3672 10.6667C38.5832 10.6667 40.3672 12.4507 40.3672 14.6667C40.3672 16.8827 38.5832 18.6667 36.3672 18.6667Z" fill="#2FB67C"/>
<path fill-rule="evenodd" clip-rule="evenodd" d="M4.36719 21.3333H8.36719V25.3333C8.36719 27.5493 6.58319 29.3333 4.36719 29.3333C2.15119 29.3333 0.367188 27.5493 0.367188 25.3333C0.367188 23.1173 2.15119 21.3333 4.36719 21.3333Z" fill="#E01E5A"/>
<path fill-rule="evenodd" clip-rule="evenodd" d="M19.0339 4V8H15.0339C12.8179 8 11.0339 6.216 11.0339 4C11.0339 1.784 12.8179 0 15.0339 0C17.2499 0 19.0339 1.784 19.0339 4Z" fill="#36C5F1"/>
<path fill-rule="evenodd" clip-rule="evenodd" d="M48.5584 20.2112C48.5584 17.362 50.6709 15.3732 54.5142 15.3732C56.8558 15.3732 58.7749 16.1087 59.8146 16.8292C60.0904 17.0044 60.1978 17.3492 60.0692 17.646L59.2228 19.3858C59.0663 19.6698 58.668 19.6334 58.4644 19.5308C57.7237 19.1618 56.5109 18.539 55.4101 18.4238C55.1364 18.395 54.8501 18.3801 54.5601 18.3863C53.5776 18.4076 52.7581 18.7429 52.4679 19.4795C52.4094 19.6259 52.3779 19.772 52.3749 19.9172C52.3495 20.8878 53.7214 21.2379 55.3849 21.5172C58.4799 22.0386 60.8189 22.9304 60.8189 26.0597C60.8189 28.7175 58.6555 31.1202 54.4559 31.0465C51.6789 30.9915 49.7091 30.0709 48.6529 29.1741C48.6173 29.1441 48.2151 28.7413 48.4301 28.2586C48.6771 27.6356 49.0919 26.9204 49.4191 26.545C49.6011 26.301 50.0808 26.2624 50.3291 26.415C51.1996 26.9466 52.6198 27.7983 54.2819 27.8534L54.6674 27.8558C56.1526 27.8208 57.0511 27.2681 57.0319 26.335C57.0155 25.5132 55.8383 25.034 53.9776 24.6864C50.987 24.1324 48.5818 23.1644 48.5818 20.2089M75.7445 24.2649C73.6358 24.2924 71.7027 24.8589 71.6467 26.4787C71.6467 27.7631 72.7067 28.3947 74.1967 28.3122C75.6245 28.1772 76.7139 27.5682 77.1937 26.7612C77.3719 26.461 77.3974 25.3417 77.3871 24.8627C77.3846 24.7625 77.1798 24.5677 77.0894 24.5312C76.6414 24.3462 76.3092 24.2886 75.7442 24.2662M68.7282 17.7412C69.7145 16.8744 71.6552 15.5249 74.786 15.5962C78.8965 15.68 81.0688 17.5749 81.271 22.0962C81.3537 23.9649 81.2164 29.1777 81.181 30.476C81.1974 30.5647 81.1686 30.6557 81.104 30.7195C81.0718 30.7511 81.0326 30.7745 80.9896 30.7879C80.9466 30.8012 80.901 30.8041 80.8566 30.7962L77.8964 30.8025C77.5338 30.785 77.4917 30.6087 77.4866 30.4225L77.465 29.6495C77.4612 29.4945 77.3124 29.4995 77.274 29.5245C76.3094 30.5252 74.729 31.0255 73.049 31.0255C70.496 31.0255 67.951 29.5497 67.9585 26.6267C67.9662 23.6337 70.1257 22.1567 72.4979 21.8089C74.0175 21.5863 75.7303 21.7839 77.0259 22.2905C77.1086 22.3229 77.2779 22.2755 77.2804 22.1603C77.2854 21.779 77.2676 21.0523 77.1914 20.707C77.0004 19.829 76.256 19.1223 74.6907 18.931C74.3687 18.8915 74.0435 18.883 73.7197 18.906C72.475 19.0022 70.9784 19.9565 70.3574 20.313C70.211 20.3967 69.9834 20.3355 69.9094 20.2417C69.548 19.7817 68.6369 18.438 68.5668 18.223C68.4967 18.008 68.5961 17.829 68.7234 17.7164L68.7282 17.7412ZM82.6022 23.2992C82.5768 19.1242 85.5368 15.6022 90.3435 15.5697C93.3418 15.5511 95.5205 16.8867 95.9049 17.5171C95.9812 17.6647 95.9429 17.7885 95.8882 17.9374C95.4996 18.6821 95.0474 19.3918 94.5367 20.0587C94.3421 20.3037 94.1295 20.0937 93.8852 19.9335C93.2042 19.487 91.9088 18.9415 90.635 18.9415C88.324 18.9415 86.6008 20.4999 86.6212 23.3655C86.6389 26.1171 88.2756 27.6267 90.6425 27.6805C91.8733 27.7105 93.0669 27.0152 93.6968 26.4461C93.8978 26.2736 94.1066 26.3585 94.337 26.5361C94.7887 26.9901 95.4365 27.6906 95.7966 28.1619C96.0321 28.4297 95.8566 28.6924 95.7713 28.7975C94.7963 30.0105 92.913 31.0299 90.4211 31.0437C85.2035 31.0811 82.6151 27.4741 82.5908 23.2842M107.496 30.8587C107.74 30.8411 110.354 30.4857 111.157 30.3057C111.356 30.2607 111.427 30.0969 111.317 29.9331L108.457 25.7181L105.74 22.2949C105.646 22.1697 105.651 22.0447 105.753 21.9447L110.724 17.0467C111.172 16.5714 110.902 16.3652 110.523 16.2537C109.787 16.0387 108.599 15.7697 107.923 15.6283C107.638 15.5695 107.294 15.5908 107.032 15.8409L101.293 21.4381C101.102 21.6256 100.992 21.5841 100.991 21.3154L100.868 9.30224C100.863 9.11454 100.634 8.97324 100.505 8.96724L97.5081 8.96094C97.3185 8.99444 97.1688 9.13794 97.1301 9.32364C96.9775 11.5836 97.1938 28.1744 97.2854 30.4959C97.2877 30.6582 97.4159 30.7919 97.5807 30.8036C98.2387 30.841 99.8662 30.8386 100.627 30.8248C101.001 30.8248 101.047 30.566 101.047 30.566L101.103 26.1132C101.103 26.1132 101.141 25.9157 101.205 25.8632L102.531 24.4972C102.608 24.4247 102.727 24.4298 102.804 24.5322C103.179 25.03 104.251 26.6485 105.243 28.0942L107.067 30.6842C107.204 30.8768 107.365 30.8844 107.487 30.8806L107.496 30.8587Z" fill="#191E2C"/>
<path fill-rule="evenodd" clip-rule="evenodd" d="M63.0577 30.8582L65.804 30.8632C65.9061 30.8695 66.0064 30.835 66.083 30.7673C66.1206 30.7342 66.1511 30.6938 66.1727 30.6486C66.1943 30.6034 66.2065 30.5543 66.2087 30.5042C66.3741 27.2499 66.3027 11.756 66.1984 9.31082C66.1896 9.09812 66.0967 9.01932 65.9504 9.00062C65.2886 8.91302 63.4026 8.93432 62.7981 9.08822C62.6866 9.11122 62.6066 9.20762 62.6061 9.31952C62.4584 15.6255 62.5577 30.1641 62.5896 30.4393C62.6215 30.7145 62.7676 30.8483 63.0566 30.8583L63.0577 30.8582Z" fill="#191E2C"/>
</svg>
