<svg width="36" height="24" viewBox="0 0 36 24" fill="none" xmlns="http://www.w3.org/2000/svg">
<path d="M29.3764 8.04286L28.6674 8.04286L28.9054 7.375L30.9406 1.66438L30.9407 1.66406C31.0708 1.29969 30.943 0.891477 30.6262 0.663936L30.6262 0.663955L30.6224 0.661179C30.4772 0.554818 30.3023 0.500001 30.117 0.500001C29.9255 0.500001 29.7356 0.562242 29.5754 0.686799C29.575 0.687097 29.5746 0.687396 29.5742 0.687696L20.0366 8.22678C20.0363 8.22705 20.0359 8.22732 20.0356 8.22759C19.824 8.39735 19.7031 8.64907 19.7031 8.91429L19.7031 22.6286C19.7031 23.1074 20.0943 23.5 20.5746 23.5L34.2888 23.5C34.7691 23.5 35.1603 23.1074 35.1603 22.6286L35.1603 8.91429C35.1603 8.43549 34.7691 8.04286 34.2888 8.04286L29.3764 8.04286Z" fill="#FFD600" stroke="#161D3B"/>
<path d="M10.1733 8.04286L9.46426 8.04286L9.70227 7.375L11.7375 1.66438L11.7376 1.66406C11.8677 1.29969 11.7399 0.891477 11.4231 0.663936L11.423 0.663955L11.4193 0.661179C11.2741 0.554818 11.0992 0.500001 10.9138 0.500001C10.7223 0.500001 10.5324 0.562242 10.3723 0.686799C10.3719 0.687097 10.3715 0.687396 10.3711 0.687696L0.833488 8.22678C0.833151 8.22705 0.832814 8.22732 0.832478 8.22759C0.620902 8.39734 0.499999 8.64906 0.499999 8.91429L0.5 22.6286C0.5 23.1074 0.891193 23.5 1.37143 23.5L15.0857 23.5C15.5659 23.5 15.9571 23.1074 15.9571 22.6286L15.9571 8.91429C15.9571 8.43549 15.5659 8.04286 15.0857 8.04286L10.1733 8.04286Z" fill="#FFD600" stroke="#161D3B"/>
</svg>
