<svg width="16" height="17" viewBox="0 0 16 17" fill="none" xmlns="http://www.w3.org/2000/svg">
<rect y="0.03125" width="16" height="16" rx="8" fill="#EDA211"/>
<path fill-rule="evenodd" clip-rule="evenodd" d="M8.55837 4.33667L9.38278 5.98365C9.46357 6.14533 9.61953 6.25745 9.80038 6.28339L11.6446 6.54885C12.1003 6.61464 12.2816 7.16687 11.9518 7.4833L10.6182 8.76474C10.4872 8.89076 10.4275 9.0719 10.4585 9.2498L10.7732 11.0589C10.8507 11.5065 10.3744 11.8479 9.96714 11.6362L8.3188 10.7814C8.15721 10.6976 7.96367 10.6976 7.80161 10.7814L6.15326 11.6362C5.74599 11.8479 5.26967 11.5065 5.34765 11.0589L5.66191 9.2498C5.69291 9.0719 5.63325 8.89076 5.50219 8.76474L4.16858 7.4833C3.83882 7.16687 4.02014 6.61464 4.47579 6.54885L6.32002 6.28339C6.50088 6.25745 6.6573 6.14533 6.7381 5.98365L7.56204 4.33667C7.76591 3.92944 8.3545 3.92944 8.55837 4.33667Z" fill="#F9FAFB"/>
</svg>
