<svg width="101" height="55" viewBox="0 0 101 55" fill="none" xmlns="http://www.w3.org/2000/svg">
<path d="M2.17969 12.4258C31.2893 6.62641 72.6121 19.0228 89.262 46.4688" stroke="#232529" stroke-linecap="round" stroke-dasharray="4 4"/>
<path d="M93.0257 50.3453C93.036 50.2962 93.0899 50.101 93.1263 49.9284C93.3839 48.8868 93.4151 46.5998 93.1958 45.5609C93.1655 45.4011 93.0668 45.0119 92.9614 44.8393C92.8536 44.6785 92.7137 44.5501 92.5405 44.4542C92.3133 44.3423 92.0502 44.3068 91.8016 44.3574C91.6318 44.3965 91.1734 44.5879 91.1662 44.5927C90.6698 44.8096 89.921 45.2481 89.1262 45.7814C88.3689 46.2895 87.7085 46.7965 87.3032 47.1636C87.3011 47.176 86.852 47.5935 86.7386 47.7967C86.5319 48.1686 86.5472 48.6137 86.7727 48.9497L86.7922 48.9788C86.9468 49.1925 87.451 49.5217 87.4582 49.5168C88.3074 50.0691 90.3584 50.9068 91.4522 51.0626C91.4522 51.0626 91.7435 51.1177 91.9034 51.1194C92.1394 51.131 92.3732 51.0584 92.568 50.9276C92.7855 50.7817 92.944 50.5802 93.0257 50.3453Z" fill="#232529"/>
</svg>
