<svg width="102" height="20" viewBox="0 0 102 20" fill="none" xmlns="http://www.w3.org/2000/svg">
<path d="M1 6C26 22 69 25.5 94.5 6" stroke="#232529" stroke-linecap="round" stroke-dasharray="4 4"/>
<path d="M99.4206 3.75627C99.4123 3.80572 99.3914 4.00717 99.3625 4.1811C99.2232 5.245 98.4195 7.38636 97.837 8.27421C97.7506 8.41191 97.517 8.73851 97.356 8.8609C97.197 8.97136 97.02 9.04004 96.8238 9.06628C96.5714 9.08781 96.3134 9.02507 96.1003 8.88742C95.9564 8.78914 95.5991 8.44403 95.5942 8.43691C95.2108 8.05418 94.6731 7.37312 94.127 6.58704C93.6067 5.83807 93.1763 5.12543 92.9325 4.63596C92.9349 4.62368 92.6687 4.07135 92.6371 3.84079C92.5799 3.41916 92.7563 3.01019 93.0887 2.7793L93.1174 2.75934C93.3392 2.6166 93.9286 2.49359 93.9335 2.5007C94.9256 2.2955 97.1408 2.26209 98.2163 2.51529C98.2163 2.51529 98.5076 2.56997 98.6571 2.62665C98.8811 2.70172 99.0725 2.85452 99.2063 3.04722C99.3558 3.2623 99.43 3.50771 99.4206 3.75627Z" fill="#232529"/>
</svg>
