<svg width="144" height="140" viewBox="0 0 144 140" fill="none" xmlns="http://www.w3.org/2000/svg">
<path d="M81.5209 43.2846C81.4962 43.2794 81.4728 43.2784 81.4504 43.2791C81.3361 43.0785 81.2221 42.8786 81.1081 42.68C83.6587 42.9564 86.1343 43.6219 88.6215 44.2352C89.1371 44.3622 89.6544 44.4827 90.1721 44.6021C89.9757 44.8594 89.7784 45.1161 89.5774 45.3693C88.237 44.8626 86.852 44.5582 85.4535 44.254C84.1322 43.9667 82.8451 43.5606 81.5209 43.2846Z" fill="#FFD600"/>
<path d="M88.7549 46.389C88.5527 46.6378 88.3504 46.8866 88.1494 47.1363C87.2387 46.9656 86.3551 46.6818 85.4317 46.5454C84.6399 46.4285 83.8185 46.1157 83.0145 46.1731C82.8547 45.8547 82.6914 45.5382 82.5247 45.2239C83.4975 45.4672 84.5106 45.6121 85.4866 45.8301C86.5657 46.0711 87.6552 46.2717 88.7549 46.389Z" fill="#FFD600"/>
<path d="M69.8716 31.6203C70.6699 32.511 71.7812 33.0764 72.7298 33.7933C73.8192 34.6169 74.9773 35.5657 75.9052 36.5761C76.0647 36.7496 76.3293 36.4981 76.17 36.3239C75.3967 35.4783 74.4369 34.6662 73.5228 33.9688C72.3991 33.1112 71.0322 32.4618 70.0186 31.4803C69.9248 31.3893 69.7839 31.5225 69.8716 31.6203ZM76.8101 35.7983C75.2252 34.1492 73.1931 32.9114 71.2694 31.7057C71.1596 31.6368 71.0596 31.8023 71.1644 31.8756C73.01 33.1631 74.9547 34.4458 76.5502 36.0458C76.7133 36.2093 76.9712 35.9658 76.8101 35.7983ZM77.4153 35.4755C76.5393 34.6885 75.6826 33.9186 74.7228 33.2321C74.1494 32.8219 73.2593 31.9981 72.526 31.9742C72.4797 31.9727 72.4521 32.0426 72.4982 32.0651C74.2269 32.9062 75.7313 34.4613 77.1383 35.7392C77.3197 35.9041 77.5991 35.6406 77.4153 35.4755ZM78.1109 34.8341C77.6602 34.2648 76.9298 33.8423 76.3384 33.4343C75.6132 32.9342 74.8627 32.4844 74.0917 32.0591C73.9623 31.9877 73.8437 32.1762 73.9706 32.255C74.7164 32.7169 75.4654 33.1841 76.167 33.7118C76.7306 34.136 77.3947 34.5424 77.8583 35.0745C78.0077 35.246 78.2483 35.0078 78.1109 34.8341ZM78.5882 34.6062C78.0983 33.9446 77.2715 33.4608 76.6275 32.9593C76.4257 32.8021 75.8566 32.1901 75.5629 32.2082C75.5425 32.2094 75.5345 32.2292 75.5461 32.2453C76.297 33.2697 77.5637 33.8511 78.3503 34.8327C78.4844 35 78.7113 34.7727 78.5882 34.6062ZM79.1277 34.0907C78.4514 33.5427 77.8331 32.9246 77.1383 32.3945C77.0362 32.3169 76.8973 32.4874 76.9964 32.5694C77.3877 32.8932 77.7469 33.2516 78.1303 33.5842C78.4171 33.833 78.654 34.1354 78.9622 34.3584C79.1302 34.4797 79.2811 34.2149 79.1277 34.0907ZM67.6703 29.8511C69.6821 28.4093 71.938 27.4298 74.1934 26.4392C76.6017 25.3812 78.916 24.0989 81.2248 22.8414C85.9207 20.2835 90.591 17.6865 95.3526 15.2509C97.1057 14.354 98.8642 13.468 100.624 12.5841C101.441 12.8358 102.276 13.0433 103.102 13.1378C103.296 13.1601 103.351 12.8405 103.159 12.8002C102.546 12.6705 101.96 12.441 101.377 12.2062C101.573 12.1077 101.769 12.0089 101.965 11.9106C102.425 12.0293 102.883 12.1503 103.318 12.3038C103.54 12.3819 103.633 12.0469 103.423 11.9606C103.14 11.8442 102.852 11.7273 102.56 11.6118C104.952 10.413 107.346 9.21674 109.734 8.00723C112.026 6.84595 114.284 5.61944 116.51 4.33426C118.542 3.16063 120.604 1.68587 122.879 1.02023C120.098 2.30011 116.692 5.20417 114.036 7.45457C110.82 10.1795 107.557 12.8569 104.269 15.4968C103.894 15.4778 103.469 15.5895 103.113 15.6583C102.973 15.6855 103.01 15.8899 103.15 15.8752C103.36 15.8534 103.571 15.8358 103.782 15.82C103.811 15.8179 103.84 15.817 103.869 15.8155C103.692 15.9578 103.514 16.0995 103.336 16.2415C102.907 16.3012 102.476 16.3382 102.039 16.3076C101.883 16.2965 101.858 16.5378 102.015 16.5501C102.327 16.5742 102.636 16.5724 102.944 16.5549C102.791 16.6771 102.638 16.7997 102.485 16.9218C101.786 17.0061 101.086 17.0916 100.389 17.193C100.276 17.2096 100.308 17.3757 100.419 17.3665C100.967 17.3211 101.521 17.3018 102.071 17.2522C101.917 17.3747 101.763 17.4986 101.609 17.6211C101.526 17.6873 101.442 17.7535 101.359 17.8197C100.331 17.9123 99.3005 17.9498 98.2717 18.0357C98.1554 18.0453 98.189 18.2183 98.3021 18.2126C99.1891 18.1665 100.088 18.2 100.975 18.1244C100.71 18.3349 100.444 18.5454 100.179 18.7562C99.1105 18.7466 98.0228 18.8901 96.9591 18.9453C96.8546 18.9506 96.8611 19.1322 96.9654 19.1297C97.8994 19.1072 98.8568 19.1219 99.7966 19.06C99.5937 19.2214 99.3907 19.3827 99.1876 19.5439C97.9023 19.6432 96.6164 19.6921 95.3291 19.7528C95.1872 19.7595 95.2265 19.9757 95.3661 19.9697C96.5138 19.9207 97.6652 19.9203 98.8117 19.8424C98.5766 20.0294 98.341 20.2161 98.1059 20.403C96.6287 20.492 95.1613 20.6467 93.679 20.5723C93.5224 20.5644 93.4974 20.8054 93.6546 20.8148C94.999 20.8958 96.3445 20.8247 97.687 20.7353C97.3942 20.9678 97.1013 21.2004 96.8083 21.4326C95.1595 21.4614 93.4859 21.3679 91.8496 21.54C91.7351 21.5521 91.7685 21.7198 91.8794 21.7135C93.38 21.6271 94.8812 21.7817 96.3845 21.7679C96.0946 21.9976 95.8045 22.2271 95.5144 22.4566C95.5026 22.4514 95.4907 22.4463 95.4764 22.4451C94.5561 22.3622 93.6081 22.4377 92.6815 22.4141C91.8055 22.3916 90.9526 22.399 90.0906 22.5761C89.9796 22.5988 90.0081 22.7688 90.1202 22.7496C91.7811 22.467 93.4849 22.7743 95.1655 22.7323C94.9162 22.9291 94.6667 23.1252 94.4174 23.3219C92.4677 23.4496 90.4286 23.321 88.5001 23.6343C88.4547 23.6418 88.4571 23.7108 88.5028 23.7149C90.2787 23.8692 92.1682 23.8447 93.9632 23.6795C93.5909 23.9726 93.2178 24.2648 92.8449 24.5569C90.8592 24.6035 88.8796 24.7888 86.8902 24.8141C86.805 24.8152 86.7878 24.9401 86.8767 24.9488C88.6838 25.1278 90.5911 25.0853 92.4127 24.8955C92.0652 25.1671 91.7172 25.4378 91.3693 25.7084C89.4829 25.8038 87.5917 25.8106 85.7112 25.9992C85.6584 26.0044 85.6609 26.0941 85.7145 26.0929C87.4574 26.0548 89.1985 26.0934 90.9408 26.0414C90.6521 26.2655 90.3631 26.4889 90.0739 26.7121C89.1943 26.746 88.3137 26.7107 87.4334 26.7762C86.4349 26.8507 85.4421 26.9598 84.4394 26.8975C84.3654 26.8928 84.3542 27.0033 84.428 27.012C85.4489 27.132 86.4569 27.1054 87.4802 27.0499C88.2075 27.0103 88.9355 27.039 89.662 27.0293C89.2581 27.3403 88.8536 27.6505 88.4485 27.9599C86.7876 28.0387 85.1167 28.1341 83.4624 28.1759C83.3629 28.1784 83.3417 28.3237 83.4468 28.3341C84.542 28.4434 85.6799 28.276 86.7801 28.2506C87.2138 28.2407 87.6473 28.2412 88.0807 28.24C84.1147 31.2605 80.0865 34.1975 75.9259 36.9635C75.8798 36.994 75.8433 37.0294 75.8111 37.0665C73.2385 34.4654 69.6778 32.9042 67.5171 29.928C67.5674 29.9111 67.6183 29.8884 67.6703 29.8511Z" fill="#FFD600"/>
<path d="M92.1933 43.2472C90.5972 42.8431 88.9803 42.5239 87.3876 42.1071C86.2918 41.8204 85.2184 41.4296 84.1052 41.2176C86.2686 39.5356 87.8418 37.1939 89.6994 35.2157C89.8061 35.1021 89.655 34.9485 89.5348 35.0429C87.2247 36.8561 85.7101 39.5895 83.2216 41.2286C82.9441 41.4114 83.1941 41.8699 83.4701 41.683C83.5165 41.6518 83.5605 41.618 83.6062 41.5861C83.647 41.6482 83.7119 41.6962 83.8028 41.7088C85.2421 41.9085 86.6376 42.434 88.0592 42.737C89.416 43.0262 90.7844 43.2604 92.1538 43.4805C92.2883 43.5021 92.3226 43.2801 92.1933 43.2472ZM114.727 11.8497C117.175 9.78333 119.063 7.18835 121.313 4.92298C121.567 4.66819 121.182 4.26139 120.928 4.51855C118.69 6.78605 116.888 9.50149 114.538 11.651C114.407 11.7712 114.593 11.963 114.727 11.8497ZM82.0968 41.8031C83.5792 40.6988 84.8875 39.3016 86.118 37.9519C87.8656 36.035 89.6499 34.1499 91.4929 32.3238C95.0174 28.8315 98.822 25.7067 102.53 22.4206C106.324 19.0581 109.917 15.4857 113.43 11.8322C116.62 8.51389 119.944 5.263 123.015 1.82909C121.598 5.41698 119.886 8.88409 118.628 12.5333C117.196 16.6881 115.731 20.8328 114.419 25.028C113.18 28.9899 111.898 32.9879 110.937 37.0278C110.473 38.9804 110.18 40.9314 109.927 42.9194C109.699 44.705 109.675 46.5343 109.116 48.2577C107.328 47.4597 105.388 47.071 103.478 46.6541C100.991 46.1111 98.5157 45.5048 96.0348 44.9327C93.4031 44.3258 90.7593 43.7704 88.1412 43.1061C86.141 42.5985 84.1378 42.0978 82.0968 41.8031Z" fill="#FFD600"/>
<path d="M87.9854 47.3439C87.7896 47.5884 87.5936 47.8328 87.4014 48.0804C87.3939 48.0901 87.3878 48.1001 87.3806 48.1096C86.1277 47.9625 84.8388 47.682 83.6055 47.4022C83.5006 47.1731 83.3934 46.9447 83.2835 46.7173C84.0886 46.7488 84.9649 46.9666 85.7508 47.0543C86.4965 47.1377 87.2382 47.2772 87.9854 47.3439Z" fill="#FFD600"/>
<path d="M89.424 45.5575C89.2448 45.7815 89.0658 46.0057 88.8851 46.2283C86.652 45.8667 84.4034 45.1822 82.2196 44.5985C82.2065 44.5951 82.1943 44.5939 82.1818 44.5923C82.0511 44.3526 81.9194 44.1146 81.7866 43.8777C83.0949 44.1741 84.3806 44.561 85.704 44.7909C86.9526 45.0078 88.2036 45.2131 89.424 45.5575Z" fill="#FFD600"/>
<path d="M76.4199 37.8735C80.8146 35.2648 84.9127 32.0764 88.9303 28.9299C93.0643 25.6923 97.1739 22.417 101.256 19.1139C105.461 15.7119 109.614 12.2444 113.69 8.68995C115.204 7.36982 117.02 6.22724 118.496 4.86654C119.663 3.79115 120.672 2.7946 122 1.9009C118.799 4.8362 115.868 8.11919 112.816 11.1925C109.343 14.6909 105.838 18.1717 102.134 21.4272C98.414 24.696 94.5775 27.7917 91.0405 31.2673C89.1928 33.0829 87.3888 34.9426 85.6357 36.8498C84.1379 38.4791 82.5419 40.2593 80.6512 41.4329C80.5438 41.4997 80.4735 41.5856 80.4308 41.6793C80.0644 41.8664 80.1166 42.5489 80.6216 42.6216C81.2542 44.1003 81.8471 45.5886 82.4249 47.0824C81.8005 46.2643 81.1735 45.4522 80.5807 44.633C79.0219 42.4786 77.5292 40.3083 76.2346 37.9853C76.2422 37.97 76.2478 37.954 76.2539 37.938C76.3079 37.9262 76.363 37.9073 76.4199 37.8735Z" fill="#FFD600"/>
<path d="M87.1336 48.4468C86.9523 48.7145 86.7871 48.9904 86.6259 49.2677C85.8142 49.1134 85.005 48.9431 84.1931 48.7895C84.0899 48.5298 83.983 48.2712 83.8715 48.0137C84.4062 48.0988 84.9479 48.1502 85.4815 48.2414C86.0298 48.3349 86.5783 48.4329 87.1336 48.4468Z" fill="#FFD600"/>
<path d="M85.3003 51.1939C85.144 50.9288 84.9815 50.6662 84.8146 50.4058C85.1412 50.4933 85.4814 50.5535 85.8178 50.5806C85.6627 50.7958 85.4898 50.9998 85.3003 51.1939Z" fill="#FFD600"/>
<path d="M86.4222 49.6283C86.3036 49.832 86.1839 50.0345 86.0566 50.2323C85.5476 50.1488 85.0753 49.9632 84.5796 49.8158C84.5299 49.6722 84.4776 49.529 84.4249 49.3857C84.7248 49.4337 85.0354 49.4461 85.3293 49.4864C85.6941 49.5365 86.0573 49.5893 86.4222 49.6283Z" fill="#FFD600"/>
<path d="M86.6337 49.2691C86.7949 48.9918 86.9601 48.7159 87.1413 48.4482C86.5861 48.4343 86.0375 48.3363 85.4893 48.2428C84.9556 48.1516 84.414 48.1002 83.8793 48.0151C83.9908 48.2726 84.0977 48.5313 84.2008 48.7909C85.0127 48.9445 85.822 49.1148 86.6337 49.2691ZM84.5824 49.8146C85.0782 49.962 85.5504 50.1475 86.0595 50.231C86.1868 50.0333 86.3065 49.8308 86.4251 49.6271C86.0602 49.5881 85.6969 49.5352 85.3322 49.4851C85.0383 49.4449 84.7277 49.4325 84.4278 49.3845C84.4804 49.5278 84.5327 49.6709 84.5824 49.8146ZM85.3014 51.1965C85.4907 51.0025 85.6634 50.7987 85.8183 50.5838C85.4823 50.5567 85.1424 50.4966 84.8161 50.4091C84.9829 50.6693 85.1452 50.9316 85.3014 51.1965ZM87.4034 48.0826C87.5955 47.835 87.7916 47.5906 87.9873 47.3461C87.2401 47.2793 86.4984 47.1399 85.7527 47.0565C84.9669 46.9687 84.0906 46.751 83.2854 46.7195C83.3953 46.9469 83.5025 47.1752 83.6075 47.4044C84.8407 47.6842 86.1297 47.9647 87.3825 48.1118C87.3897 48.1022 87.3959 48.0922 87.4034 48.0826ZM88.7573 46.3913C87.6576 46.274 86.5681 46.0734 85.489 45.8324C84.5131 45.6144 83.4999 45.4695 82.5271 45.2262C82.6939 45.5405 82.8571 45.857 83.0169 46.1754C83.821 46.118 84.6424 46.4308 85.4341 46.5477C86.3575 46.6841 87.2411 46.9679 88.1519 47.1386C88.3529 46.8889 88.5552 46.6401 88.7573 46.3913ZM89.4282 45.5572C88.2078 45.2128 86.9569 45.0075 85.7082 44.7906C84.3848 44.5607 83.0991 44.1738 81.7909 43.8774C81.9236 44.1142 82.0554 44.3523 82.186 44.592C82.1985 44.5936 82.2108 44.5948 82.2239 44.5982C84.4077 45.1819 86.6562 45.8664 88.8894 46.228C89.07 46.0054 89.249 45.7811 89.4282 45.5572ZM90.1747 44.6008C89.657 44.4814 89.1397 44.3609 88.624 44.2339C86.1369 43.6207 83.6613 42.9551 81.1107 42.6787C81.2247 42.8774 81.3387 43.0772 81.453 43.2779C81.4754 43.2772 81.4988 43.2781 81.5235 43.2833C82.8476 43.5594 84.1348 43.9654 85.4561 44.2528C86.8546 44.5569 88.2395 44.8614 89.58 45.368C89.781 45.1149 89.9782 44.8582 90.1747 44.6008ZM96.0366 44.9343C98.5175 45.5065 100.993 46.1128 103.48 46.6557C105.39 47.0727 107.33 47.4613 109.117 48.2594C109.676 46.5359 109.701 44.7067 109.928 42.9211C110.182 40.9331 110.474 38.982 110.939 37.0294C111.899 32.9896 113.181 28.9915 114.421 25.0297C115.732 20.8345 117.197 16.6897 118.63 12.5349C119.888 8.88574 121.599 5.41863 123.017 1.83074C119.946 5.26465 116.622 8.51554 113.432 11.8339C109.919 15.4873 106.326 19.0597 102.532 22.4223C98.8238 25.7084 95.0192 28.8332 91.4947 32.3254C89.6516 34.1516 87.8674 36.0366 86.1198 37.9536C84.8893 39.3032 83.581 40.7004 82.0986 41.8047C84.1396 42.0995 86.1428 42.6001 88.143 43.1078C90.7611 43.772 93.4049 44.3274 96.0366 44.9343ZM116.513 4.33706C114.287 5.62224 112.029 6.84875 109.737 8.01003C107.349 9.21954 104.955 10.4158 102.563 11.6146C102.854 11.7301 103.143 11.847 103.426 11.9634C103.636 12.0497 103.543 12.3847 103.321 12.3066C102.885 12.1531 102.428 12.0321 101.968 11.9134C101.772 12.0117 101.576 12.1105 101.379 12.209C101.963 12.4438 102.549 12.6733 103.162 12.803C103.353 12.8433 103.299 13.1629 103.105 13.1406C102.279 13.0461 101.444 12.8386 100.627 12.587C98.867 13.4709 97.1086 14.3568 95.3554 15.2537C90.5938 17.6893 85.9235 20.2863 81.2277 22.8442C78.9188 24.1017 76.6045 25.384 74.1962 26.442C71.9408 27.4326 69.685 28.4121 67.6731 29.8539C67.6212 29.8912 67.5703 29.9139 67.52 29.9308C69.6806 32.907 73.2413 34.4682 75.8139 37.0693C75.8462 37.0322 75.8827 36.9968 75.9287 36.9663C80.0893 34.2003 84.1175 31.2633 88.0836 28.2428C87.6501 28.244 87.2166 28.2435 86.7829 28.2534C85.6828 28.2788 84.5448 28.4462 83.4496 28.3369C83.3446 28.3265 83.3657 28.1812 83.4653 28.1787C85.1195 28.1369 86.7904 28.0415 88.4513 27.9627C88.8564 27.6533 89.2609 27.3431 89.6648 27.0321C88.9383 27.0418 88.2103 27.0131 87.4831 27.0527C86.4597 27.1082 85.4517 27.1348 84.4309 27.0148C84.3571 27.0061 84.3682 26.8956 84.4423 26.9003C85.445 26.9626 86.4377 26.8535 87.4363 26.779C88.3165 26.7135 89.1971 26.7488 90.0767 26.7149C90.3659 26.4917 90.6549 26.2683 90.9436 26.0442C89.2013 26.0962 87.4602 26.0576 85.7173 26.0957C85.6638 26.0969 85.6612 26.0072 85.714 26.002C87.5945 25.8134 89.4857 25.8066 91.3721 25.7112C91.72 25.4406 92.068 25.1699 92.4156 24.8983C90.5939 25.0881 88.6867 25.1306 86.8795 24.9516C86.7907 24.9429 86.8078 24.818 86.8931 24.8169C88.8825 24.7916 90.862 24.6063 92.8478 24.5597C93.2206 24.2676 93.5937 23.9754 93.966 23.6823C92.171 23.8475 90.2815 23.872 88.5056 23.7177C88.4599 23.7136 88.4575 23.6446 88.503 23.6371C90.4314 23.3238 92.4705 23.4524 94.4202 23.3247C94.6696 23.128 94.919 22.9319 95.1684 22.7351C93.4878 22.7771 91.7839 22.4698 90.123 22.7524C90.011 22.7716 89.9824 22.6016 90.0934 22.5789C90.9554 22.4018 91.8083 22.3944 92.6844 22.4169C93.6109 22.4405 94.559 22.365 95.4792 22.4479C95.4935 22.4491 95.5054 22.4542 95.5173 22.4594C95.8073 22.2299 96.0974 22.0004 96.3873 21.7707C94.884 21.7845 93.3828 21.6299 91.8822 21.7163C91.7714 21.7226 91.7379 21.5549 91.8524 21.5428C93.4887 21.3707 95.1623 21.4642 96.8111 21.4354C97.1041 21.2032 97.3971 20.9706 97.6899 20.7381C96.3473 20.8275 95.0019 20.8986 93.6574 20.8176C93.5002 20.8082 93.5252 20.5672 93.6818 20.5751C95.1641 20.6495 96.6316 20.4948 98.1087 20.4058C98.3439 20.2189 98.5794 20.0322 98.8145 19.8452C97.668 19.9231 96.5166 19.9235 95.3689 19.9725C95.2293 19.9785 95.1901 19.7623 95.3319 19.7556C96.6192 19.6949 97.9051 19.646 99.1905 19.5467C99.3936 19.3855 99.5965 19.2242 99.7995 19.0628C98.8597 19.1247 97.9022 19.11 96.9683 19.1325C96.8639 19.135 96.8574 18.9534 96.9619 18.9481C98.0256 18.8929 99.1134 18.7494 100.182 18.759C100.447 18.5482 100.713 18.3377 100.978 18.1272C100.091 18.2028 99.192 18.1693 98.3049 18.2154C98.1919 18.2211 98.1582 18.0481 98.2746 18.0385C99.3033 17.9526 100.334 17.9151 101.362 17.8225C101.445 17.7563 101.528 17.6901 101.612 17.6239C101.766 17.5015 101.92 17.3775 102.074 17.255C101.524 17.3046 100.97 17.3239 100.422 17.3693C100.311 17.3785 100.278 17.2124 100.392 17.1958C101.089 17.0944 101.788 17.0089 102.488 16.9246C102.641 16.8025 102.794 16.6799 102.947 16.5577C102.639 16.5753 102.33 16.577 102.018 16.5529C101.861 16.5406 101.886 16.2993 102.042 16.3104C102.479 16.341 102.91 16.304 103.339 16.2443C103.517 16.1023 103.695 15.9606 103.872 15.8183C103.843 15.8198 103.814 15.8207 103.785 15.8228C103.574 15.8386 103.363 15.8562 103.153 15.878C103.013 15.8927 102.975 15.6883 103.116 15.6611C103.471 15.5923 103.897 15.4806 104.271 15.4996C107.56 12.8597 110.823 10.1823 114.039 7.45737C116.695 5.20698 120.101 2.30291 122.882 1.02304C120.607 1.68868 118.545 3.16343 116.513 4.33706ZM80.587 44.6344C81.1797 45.4537 81.8068 46.2657 82.4312 47.0838C81.8534 45.59 81.2605 44.1018 80.6278 42.6231C80.1229 42.5504 80.0706 41.8679 80.437 41.6808C80.4797 41.5871 80.55 41.5012 80.6575 41.4344C82.5481 40.2607 84.1442 38.4805 85.6419 36.8512C87.3951 34.9441 89.1991 33.0844 91.0468 31.2687C94.5838 27.7932 98.4203 24.6974 102.14 21.4287C105.844 18.1731 109.349 14.6924 112.823 11.194C115.874 8.12067 118.805 4.83767 122.006 1.90238C120.678 2.79607 119.669 3.79263 118.503 4.86802C117.027 6.22871 115.21 7.37129 113.696 8.69142C109.62 12.2459 105.467 15.7133 101.262 19.1154C97.1802 22.4185 93.0705 25.6937 88.9366 28.9314C84.919 32.0779 80.8208 35.2663 76.4261 37.875C76.3693 37.9088 76.3142 37.9277 76.2602 37.9395C76.2541 37.9555 76.2485 37.9715 76.2409 37.9867C77.5355 40.3097 79.0281 42.4801 80.587 44.6344ZM84.7672 52.1798C84.586 52.229 84.3887 52.177 84.3057 51.9635C84.1807 51.6429 84.0573 51.3225 83.9338 51.002C82.6348 49.135 81.3911 47.2199 80.0887 45.357C78.5167 43.1085 76.9978 40.7778 75.8499 38.2786C75.7301 38.2917 75.6041 38.2519 75.4956 38.1309C72.6771 34.9922 68.4905 33.2964 66.4086 29.4785C66.2124 29.1185 66.6996 28.7889 66.9446 29.0622C66.9858 28.9858 67.0442 28.915 67.1268 28.856C69.1419 27.4203 71.401 26.4434 73.6599 25.4623C76.0728 24.4143 78.3882 23.1324 80.7021 21.8842C85.534 19.2778 90.3361 16.6305 95.2385 14.156C96.5836 13.4771 97.9325 12.8048 99.2827 12.136C99.1994 12.1063 99.1154 12.0767 99.0329 12.0469C98.6722 11.9162 98.8407 11.4246 99.2035 11.4901C99.5114 11.5453 99.8119 11.6304 100.109 11.7283C100.254 11.657 100.398 11.586 100.542 11.5147C100.181 11.3971 99.829 11.2626 99.4972 11.0918C99.2377 10.9581 99.4384 10.5778 99.6995 10.6452C100.23 10.7823 100.766 10.9533 101.3 11.1411C104.089 9.76875 106.884 8.40793 109.678 7.04572C111.985 5.92117 114.245 4.70336 116.51 3.49674C118.606 2.38002 120.837 0.845764 123.263 0.651826C123.319 0.647355 123.355 0.676987 123.373 0.717465C123.459 0.691797 123.542 0.717058 123.603 0.770135C123.741 0.775042 123.875 0.893131 123.835 1.07596C122.965 4.99616 120.839 8.57702 119.575 12.3738C118.185 16.5456 116.761 20.7063 115.447 24.9031C114.203 28.8779 112.983 32.8935 111.979 36.9364C111.456 39.0442 111.163 41.1644 110.898 43.3157C110.674 45.1256 110.653 46.9594 110.063 48.7032C110.058 48.716 110.052 48.7263 110.047 48.7384C110.263 48.9623 109.96 49.3755 109.635 49.2119C107.642 48.2083 105.406 47.8667 103.235 47.4573C100.868 47.0113 98.5189 46.4255 96.166 45.9114C94.3553 45.5158 92.5398 45.139 90.7318 44.7294C90.0621 46.1169 89.0572 47.3065 88.1556 48.5477C87.3075 49.7151 86.8766 51.1154 85.7551 52.0807C85.7055 52.1236 85.6537 52.1517 85.6014 52.1711C85.439 52.4226 85.0055 52.4963 84.7672 52.1798Z" fill="#232529"/>
<path d="M45.1193 107.941C43.0699 110.958 43.2059 115.621 46.4024 117.887C48.4182 119.316 51.3162 118.035 52.8637 116.507C54.3802 115.009 54.1948 112.802 53.3356 111.032C52.0428 108.371 49.4267 106.738 46.6197 106.097C46.0716 106.672 45.5653 107.285 45.1193 107.941ZM83.4608 81.3789C83.1487 79.7799 82.3038 78.2813 81.3378 76.9908C79.6918 74.792 76.5326 72.0279 73.5725 73.3003C72.1488 73.9121 71.231 75.4939 70.779 76.8992C70.1348 78.9022 71.2003 80.8768 72.7071 82.1498C75.6879 84.6679 79.9737 84.5754 83.5723 83.3736C83.6185 82.7012 83.5878 82.0291 83.4608 81.3789ZM15.7285 121.63C20.9016 115.155 27.9944 109.483 35.707 106.378C38.9649 105.067 42.6385 104.223 46.1515 104.807C46.7201 104.261 47.3168 103.754 47.9156 103.292C50.7119 101.133 54.0056 99.5576 57.3898 98.5732C59.2596 98.0293 61.2187 97.7922 63.128 97.4245C65.6271 96.9432 68.1161 96.3833 70.5475 95.6268C75.1301 94.201 80.0982 91.9018 82.4029 87.43C82.8487 86.5651 83.1987 85.6033 83.4011 84.6143C79.299 85.884 74.5403 85.5455 71.3468 82.4572C68.4382 79.6444 69.1456 74.7107 72.5209 72.5647C75.1433 70.8973 78.2618 72.3766 80.3489 74.2082C82.6385 76.2174 84.6387 79.247 84.792 82.3674C84.8009 82.5491 84.8031 82.7297 84.8023 82.9097C85.0484 82.8056 85.29 82.6969 85.5259 82.5838C89.2899 80.7781 92.4909 77.2625 94.1068 73.4388C95.7608 69.5255 95.5338 65.1654 94.0238 61.2517C93.8718 60.8576 94.4636 60.584 94.6256 60.9803C96.3831 65.2735 96.5683 69.9517 94.7636 74.2616C92.9424 78.6104 89.1452 82.3024 84.8081 84.1069C84.7795 84.1187 84.7505 84.1296 84.7217 84.1414C84.2393 87.9489 81.6569 91.2448 78.5254 93.3678C74.458 96.1254 69.5053 97.3988 64.7543 98.3869C60.971 99.1741 57.2959 99.6498 53.7506 101.269C51.5858 102.258 49.4263 103.524 47.6137 105.138C51.0315 106.137 54.0605 108.655 55.0286 112.171C56.1674 116.306 52.2041 119.689 48.3134 119.723C44.3647 119.757 42.21 114.884 42.4885 111.491C42.6641 109.354 43.7358 107.46 45.1461 105.853C45.0159 105.839 44.8855 105.827 44.7552 105.817C41.1389 105.553 37.515 106.775 34.2859 108.287C27.5674 111.434 21.3445 116.531 16.7278 122.328C16.2403 122.94 15.2391 122.243 15.7285 121.63Z" fill="url(#paint0_linear_2_196929)"/>
<path d="M114.541 11.6543C116.891 9.50484 118.692 6.78939 120.93 4.52189C121.184 4.26473 121.569 4.67153 121.316 4.92633C119.065 7.1917 117.177 9.78668 114.73 11.853C114.595 11.9663 114.409 11.7745 114.541 11.6543Z" fill="#232529"/>
<defs>
<linearGradient id="paint0_linear_2_196929" x1="98.3761" y1="57.7866" x2="51.998" y2="112.996" gradientUnits="userSpaceOnUse">
<stop/>
<stop offset="1" stop-color="#F9F9F9"/>
</linearGradient>
</defs>
</svg>
