<svg width="100" height="58" viewBox="0 0 100 58" fill="none" xmlns="http://www.w3.org/2000/svg">
<path d="M5.59375 52.4336C22.0846 27.7546 60.0765 7.31286 91.2545 14.9571" stroke="#232529" stroke-linecap="round" stroke-dasharray="4 4"/>
<path d="M96.6612 15.0421C96.6338 15.0001 96.5339 14.824 96.4376 14.6762C95.8836 13.7573 94.289 12.1176 93.3995 11.5377C93.2651 11.4462 92.9202 11.2406 92.7237 11.193C92.5337 11.1555 92.344 11.1636 92.1538 11.2182C91.9139 11.2996 91.7027 11.4605 91.5626 11.672C91.4702 11.8198 91.2812 12.2791 91.2795 12.2876C91.0817 12.7919 90.862 13.6314 90.6768 14.5705C90.5003 15.4652 90.3916 16.2906 90.3644 16.8368C90.3716 16.847 90.3491 17.4597 90.4126 17.6836C90.5292 18.0928 90.8547 18.3968 91.2517 18.4752L91.2861 18.4819C91.5464 18.5238 92.1358 18.4003 92.1374 18.3917C93.1286 18.1821 95.1714 17.3248 96.0552 16.6618C96.0552 16.6618 96.3002 16.4949 96.4145 16.383C96.5896 16.2245 96.7037 16.0078 96.7491 15.7776C96.7998 15.5207 96.7695 15.2661 96.6612 15.0421Z" fill="#232529"/>
</svg>
