<svg width="20" height="20" viewBox="0 0 20 20" fill="none" xmlns="http://www.w3.org/2000/svg">
<circle cx="10" cy="10" r="8" fill="#FFD600"/>
<path d="M10.0003 1.04297C8.22854 1.04297 6.49654 1.56837 5.02335 2.55272C3.55016 3.53707 2.40194 4.93618 1.72391 6.5731C1.04587 8.21002 0.868469 10.0112 1.21413 11.749C1.55979 13.4867 2.41299 15.083 3.66583 16.3358C4.91868 17.5886 6.5149 18.4418 8.25265 18.7875C9.99039 19.1332 11.7916 18.9558 13.4285 18.2777C15.0655 17.5997 16.4646 16.4515 17.4489 14.9783C18.4333 13.5051 18.9587 11.7731 18.9587 10.0013C18.956 7.62622 18.0113 5.34917 16.3319 3.66973C14.6525 1.99029 12.3754 1.04562 10.0003 1.04297ZM2.292 10.0013C2.29352 9.13826 2.44116 8.28171 2.72866 7.46797C3.24533 11.2263 6.542 11.5438 6.68366 12.143C6.7618 12.8178 6.78131 13.4981 6.742 14.1763C6.80033 15.3346 8.40033 15.3513 9.017 16.268C9.23373 16.7021 9.31806 17.1904 9.2595 17.6721C7.35334 17.486 5.58449 16.5978 4.29678 15.1801C3.00907 13.7624 2.29451 11.9165 2.292 10.0013ZM12.092 17.418C12.6595 15.6405 14.3637 15.038 14.537 14.0105C14.6762 13.1863 13.5928 12.7605 12.6203 12.6446C11.6478 12.5288 11.797 11.5238 11.1112 10.8113C10.4253 10.0988 9.97866 10.138 9.01533 10.2588C8.052 10.3796 7.22783 10.3005 6.95866 9.70797C6.6895 9.11547 7.03283 8.83214 6.3245 8.09797C6.22887 8.00634 6.16017 7.89026 6.12586 7.76234C6.09155 7.63442 6.09293 7.49954 6.12986 7.37235C6.16679 7.24516 6.23785 7.13052 6.33533 7.04087C6.43282 6.95121 6.553 6.88998 6.68283 6.8638C7.18283 6.74297 8.072 7.6138 8.59283 7.5113C10.1612 7.18797 8.28116 4.1163 10.6378 3.34464C11.0704 3.19687 11.4272 2.88417 11.6303 2.47464C12.9522 2.76324 14.1745 3.39566 15.1737 4.30797C15.4645 4.97601 15.5684 5.71046 15.4745 6.43297C15.1603 7.40547 14.3687 8.10547 15.232 9.6963C16.1328 11.358 16.6887 11.5838 17.0937 11.1263C17.2521 10.9524 17.4502 10.8194 17.6712 10.7388C17.5206 12.284 16.9077 13.7479 15.9124 14.9395C14.9171 16.131 13.5857 16.9948 12.092 17.418Z" fill="#161D3B"/>
</svg>
