<svg width="20" height="20" viewBox="0 0 20 20" fill="none" xmlns="http://www.w3.org/2000/svg">
<g clip-path="url(#clip0_1_105797)">
<circle cx="10" cy="10" r="10" fill="#161D3B"/>
<path d="M21.2003 1.1593C18.7189 2.01455 15.2451 2.8698 10.4066 2.8698C5.568 2.8698 1.84603 1.89237 -0.387148 1.1593C-1.13154 0.792761 -2 1.40366 -2 2.25891V19.364C-2 20.2192 -1.13154 20.8301 -0.387148 20.5858C2.21823 19.7305 5.568 18.7531 10.4066 18.7531C15.2451 18.7531 18.7189 19.7305 21.2003 20.5858C22.0687 20.8301 22.8131 20.2192 22.8131 19.364V2.25891C22.8131 1.40366 21.9446 0.792761 21.2003 1.1593Z" fill="#FFD600"/>
<path d="M21.375 1.10881C18.875 1.96641 15.375 2.824 10.5 2.824C5.625 2.824 1.875 1.84389 -0.375 1.10881C-1.125 0.741274 -2 1.35384 -2 2.21143V19.3633C-2 20.2209 -1.125 20.8334 -0.375 20.5884C2.25 19.7308 5.625 18.7507 10.5 18.7507C15.375 18.7507 20.9171 21.298 20.9171 21.298C20.9171 21.298 23 20.2209 23 19.3633V2.21143C23 1.35384 22.125 0.741274 21.375 1.10881ZM10.5 14.4628C7.625 14.4628 4.875 14.5853 2.375 14.9528L7 9.56222L9.5 12.5025L13 8.33709L18.625 14.9528C16.125 14.5853 13.375 14.4628 10.5 14.4628Z" fill="#161D3B"/>
<circle cx="8" cy="6" r="2" fill="#FFD600"/>
</g>
<defs>
<clipPath id="clip0_1_105797">
<rect width="20" height="20" rx="10" fill="white"/>
</clipPath>
</defs>
</svg>
