<svg width="19" height="19" viewBox="0 0 19 19" fill="none" xmlns="http://www.w3.org/2000/svg">
<path d="M9.04499 0.910171C6.64611 0.910171 4.34548 1.86312 2.64922 3.55939C0.952952 5.25565 0 7.55628 0 9.95516C0 12.354 0.952952 14.6547 2.64922 16.3509C4.34548 18.0472 6.64611 19.0002 9.04499 19.0002C9.19816 19.0002 9.35092 18.996 9.50327 18.9878C10.7052 18.9257 11.8828 18.6253 12.9677 18.1042C14.0526 17.583 15.023 16.8515 15.8227 15.952C16.9802 14.6479 17.7359 13.0369 17.9987 11.3132C18.2615 9.58942 18.0202 7.82643 17.3039 6.23668C16.5876 4.64693 15.4268 3.29826 13.9614 2.35319C12.4961 1.40812 10.7887 0.906984 9.04499 0.910171ZM3.17178 15.8546C3.17178 15.8519 3.17178 15.8519 3.17479 15.8489C3.22873 15.9136 3.28588 15.9756 3.34604 16.0346C3.28574 15.9746 3.22876 15.9146 3.17178 15.8546ZM14.9303 15.8546C14.876 15.9149 14.8187 15.9752 14.7587 16.0319C14.819 15.9716 14.8762 15.9113 14.9303 15.851V15.8546Z" fill="#FFD600"/>
<path d="M9.04499 0.910171C6.64611 0.910171 4.34548 1.86312 2.64922 3.55939C0.952952 5.25565 0 7.55628 0 9.95516C0 12.354 0.952952 14.6547 2.64922 16.3509C4.34548 18.0472 6.64611 19.0002 9.04499 19.0002C9.19816 19.0002 9.35092 18.996 9.50327 18.9878C10.7052 18.9257 11.8828 18.6253 12.9677 18.1042C14.0526 17.583 15.023 16.8515 15.8227 15.952C16.9802 14.6479 17.7359 13.0369 17.9987 11.3132C18.2615 9.58942 18.0202 7.82643 17.3039 6.23668C16.5876 4.64693 15.4268 3.29826 13.9614 2.35319C12.4961 1.40812 10.7887 0.906984 9.04499 0.910171ZM3.17178 15.8546C3.17178 15.8519 3.17178 15.8519 3.17479 15.8489C3.22873 15.9136 3.28588 15.9756 3.34604 16.0346C3.28574 15.9746 3.22876 15.9146 3.17178 15.8546ZM14.9303 15.8546C14.876 15.9149 14.8187 15.9752 14.7587 16.0319C14.819 15.9716 14.8762 15.9113 14.9303 15.851V15.8546ZM15.6961 15.1651C15.6032 15.2857 15.5046 15.3996 15.4042 15.5142C15.3849 15.4651 15.3687 15.4147 15.3475 15.3662C14.8236 14.1296 13.9473 13.0746 12.8277 12.3329C11.7081 11.5911 10.3949 11.1954 9.05192 11.1951C7.70893 11.1948 6.39557 11.59 5.27568 12.3312C4.15579 13.0725 3.27893 14.1271 2.7545 15.3635C2.7334 15.4114 2.71742 15.4624 2.69812 15.5115C2.59772 15.3969 2.49883 15.2821 2.40597 15.1621C1.23416 13.6799 0.59867 11.8446 0.603 9.95516C0.601943 8.60841 0.92288 7.28092 1.53905 6.08339C2.15522 4.88585 3.04876 3.85299 4.14517 3.07091C5.24158 2.28884 6.50907 1.78022 7.84196 1.58748C9.17485 1.39474 10.5345 1.52345 11.8076 1.96289C13.0806 2.40232 14.2301 3.13975 15.1603 4.11367C16.0905 5.08759 16.7743 6.26978 17.1548 7.56167C17.5354 8.85355 17.6015 10.2177 17.3477 11.5403C17.094 12.8629 16.5277 14.1057 15.6961 15.1651Z" fill="#161D3B"/>
<path d="M9.05252 3.90625C8.40583 3.90595 7.77356 4.09743 7.23569 4.45647C6.69781 4.81551 6.27848 5.32598 6.03072 5.92334C5.78297 6.52069 5.71791 7.17811 5.84379 7.81244C5.96966 8.44677 6.2808 9.02953 6.73788 9.48702C7.19495 9.94452 7.77742 10.2562 8.41164 10.3827C9.04585 10.5091 9.70332 10.4447 10.3009 10.1975C10.8985 9.95026 11.4094 9.5314 11.7689 8.99385C12.1284 8.45631 12.3205 7.82422 12.3208 7.17752C12.3197 6.31079 11.9751 5.47983 11.3625 4.86668C10.7499 4.25353 9.91925 3.90816 9.05252 3.90625Z" fill="#161D3B"/>
</svg>
