<svg width="20" height="20" viewBox="0 0 20 20" fill="none" xmlns="http://www.w3.org/2000/svg">
<circle cx="10.0644" cy="10.0625" r="9.42184" fill="#FFD600"/>
<path fill-rule="evenodd" clip-rule="evenodd" d="M10 0C11.9778 0 13.9112 0.58649 15.5557 1.6853C17.2002 2.78412 18.4819 4.3459 19.2388 6.17316C19.9957 8.00043 20.1937 10.0111 19.8078 11.9509C19.422 13.8907 18.4696 15.6725 17.0711 17.0711C15.6725 18.4696 13.8907 19.422 11.9509 19.8078C10.0111 20.1937 8.00043 19.9957 6.17316 19.2388C4.3459 18.4819 2.78412 17.2002 1.6853 15.5557C0.58649 13.9112 0 11.9778 0 10C0 7.34783 1.05357 4.80429 2.92893 2.92893C4.80429 1.05357 7.34783 0 10 0ZM2 10L2.0257 9.3576C2.02907 9.31401 2.02383 9.27019 2.01026 9.22863C1.9967 9.18707 1.97509 9.14859 1.94665 9.11538C1.91822 9.08217 1.88352 9.05489 1.84454 9.0351C1.80557 9.0153 1.76307 9.00337 1.71949 9C1.6759 8.99662 1.63207 9.00187 1.59051 9.01543C1.54895 9.02899 1.51047 9.05061 1.47727 9.07904C1.44406 9.10748 1.41678 9.14217 1.39698 9.18115C1.37718 9.22013 1.36526 9.26262 1.36188 9.30621L1.33405 10C1.33036 10.046 1.33623 10.0922 1.35129 10.1358C1.36635 10.1794 1.39027 10.2194 1.42155 10.2533C1.45283 10.2872 1.49079 10.3142 1.53304 10.3327C1.57528 10.3512 1.6209 10.3608 1.66702 10.3608C1.71314 10.3608 1.75876 10.3512 1.80101 10.3327C1.84326 10.3142 1.88122 10.2872 1.9125 10.2533C1.94378 10.2194 1.9677 10.1794 1.98276 10.1358C1.99782 10.0922 2.00369 10.046 2 10ZM2.25482 7.99143C2.60883 6.61443 3.32532 5.35743 4.32976 4.35118C4.38445 4.28705 4.41289 4.20462 4.40936 4.12042C4.40583 4.03621 4.3706 3.95645 4.31073 3.89713C4.25087 3.83781 4.17079 3.8033 4.08656 3.80054C4.00232 3.79778 3.92016 3.82695 3.85653 3.88223C2.77071 4.97329 1.99535 6.33406 1.61028 7.82441C1.58941 7.90916 1.60276 7.99873 1.64745 8.0737C1.69214 8.14868 1.76456 8.20304 1.84904 8.225C1.93351 8.24697 2.02324 8.23477 2.09879 8.19105C2.17434 8.14734 2.22962 8.07562 2.25268 7.99143H2.25482ZM14.2827 10.7002C14.4059 10.6295 14.5083 10.5275 14.5795 10.4046C14.6507 10.2816 14.6882 10.1421 14.6882 10C14.6882 9.85792 14.6507 9.71836 14.5795 9.59541C14.5083 9.47247 14.4059 9.37049 14.2827 9.29978L8.46681 5.94432C8.34398 5.87316 8.20455 5.83564 8.0626 5.83555C7.92064 5.83546 7.78117 5.87281 7.65825 5.94382C7.53533 6.01484 7.43331 6.11701 7.36248 6.24003C7.29165 6.36306 7.25452 6.50258 7.25482 6.64454V13.3555C7.25452 13.4974 7.29165 13.6369 7.36248 13.76C7.43331 13.883 7.53533 13.9852 7.65825 14.0562C7.78117 14.1272 7.92064 14.1645 8.0626 14.1644C8.20455 14.1644 8.34398 14.1268 8.46681 14.0557L14.2827 10.7002Z" fill="#161D3B"/>
</svg>
