<svg width="44" height="44" viewBox="0 0 44 44" fill="none" xmlns="http://www.w3.org/2000/svg">
<circle cx="22" cy="22" r="22" fill="#FFD600"/>
<path d="M19.7489 30.7536C21.5289 30.0536 21.1389 28.1236 20.2389 26.9036C19.3489 25.6536 18.1189 24.7936 16.8789 23.9636C15.9941 23.406 15.2041 22.7105 14.5389 21.9036C14.2589 21.5736 13.6889 20.9636 14.2689 20.8436C14.8589 20.7236 15.8789 21.3036 16.3989 21.5236C17.3089 21.9036 18.2089 22.3436 19.0489 22.8636L20.0589 21.1636C18.4989 20.1336 16.4989 19.2236 14.6389 18.9536C13.5789 18.7936 12.4589 19.0136 12.0989 20.1636C11.7789 21.1536 12.2889 22.1536 12.8689 22.9336C14.2389 24.7636 16.3689 25.6436 17.9589 27.2236C18.2989 27.5536 18.7089 27.9436 18.9089 28.4036C19.1189 28.8436 19.0689 28.8736 18.5989 28.8736C17.3589 28.8736 15.8089 27.9036 14.7989 27.2636L13.7889 28.9636C15.3189 29.9036 17.8789 31.3736 19.7489 30.7536ZM30.8389 15.1536C31.0589 14.9336 31.0589 14.5736 30.8389 14.3636L29.5389 13.0636C29.4341 12.9627 29.2943 12.9062 29.1489 12.9062C29.0034 12.9062 28.8636 12.9627 28.7589 13.0636L27.7389 14.0836L29.8189 16.1636M20.9989 20.8236V22.9036H23.0789L29.2289 16.7536L27.1489 14.6736L20.9989 20.8236Z" fill="#232529"/>
</svg>
