<svg width="106" height="106" viewBox="0 0 106 106" fill="none" xmlns="http://www.w3.org/2000/svg">
<circle cx="52" cy="52" r="52" fill="#F2F2F2"/>
<mask id="mask0_2679_23066" style="mask-type:alpha" maskUnits="userSpaceOnUse" x="0" y="0" width="104" height="104">
<circle cx="52" cy="52" r="52" fill="#954444"/>
</mask>
<g mask="url(#mask0_2679_23066)">
<path d="M52.2782 17C48.9154 16.9985 45.6276 17.9941 42.8306 19.8611C40.0337 21.7281 37.8532 24.3826 36.5648 27.4889C35.2765 30.5951 34.9382 34.0136 35.5928 37.3122C36.2473 40.6107 37.8653 43.641 40.242 46.02C42.6188 48.399 45.6477 50.0197 48.9456 50.6773C52.2435 51.3349 55.6624 50.9998 58.7698 49.7143C61.8773 48.4288 64.5337 46.2508 66.4033 43.4555C68.2729 40.6603 69.2716 37.3734 69.2731 34.0106C69.2673 29.5036 67.4755 25.1826 64.29 21.9942C61.1045 18.8058 56.7852 17.01 52.2782 17Z" fill="#D9D9D7"/>
<circle cx="52" cy="88.7031" r="35" fill="#D9D9D7"/>
</g>
<circle cx="88" cy="88" r="16.75" fill="#232529" stroke="white" stroke-width="1.5"/>
<path fill-rule="evenodd" clip-rule="evenodd" d="M94.6693 85.5052C94.6693 85.1262 94.5188 84.7628 94.2507 84.4947C93.9831 84.2271 93.6197 84.0766 93.2407 84.0766H91.6036C91.385 84.0766 91.1945 83.9276 91.1412 83.7157L91.0259 83.2538C90.8669 82.6181 90.2955 82.1719 89.6397 82.1719H86.3655C85.7097 82.1719 85.1383 82.6181 84.9793 83.2538L84.864 83.7157C84.8107 83.9276 84.6202 84.0766 84.4017 84.0766H82.7645C82.3855 84.0766 82.0221 84.2271 81.7545 84.4947C81.4864 84.7628 81.3359 85.1262 81.3359 85.5052C81.3359 87.1543 81.3359 90.5219 81.3359 92.1709C81.3359 92.55 81.4864 92.9133 81.7545 93.1809C82.0221 93.449 82.3855 93.5995 82.7645 93.5995H93.2407C93.6197 93.5995 93.9831 93.449 94.2507 93.1809C94.5188 92.9133 94.6693 92.55 94.6693 92.1709V85.5052ZM88.0026 85.0281C86.1631 85.0281 84.6693 86.5219 84.6693 88.3614C84.6693 90.2009 86.1631 91.6947 88.0026 91.6947C89.8421 91.6947 91.3359 90.2009 91.3359 88.3614C91.3359 86.5219 89.8421 85.0281 88.0026 85.0281ZM88.0026 85.9804C89.3169 85.9804 90.3836 87.0471 90.3836 88.3614C90.3836 89.6757 89.3169 90.7424 88.0026 90.7424C86.6883 90.7424 85.6217 89.6757 85.6217 88.3614C85.6217 87.0471 86.6883 85.9804 88.0026 85.9804Z" fill="white"/>
</svg>
