<svg width="24" height="24" viewBox="0 0 24 24" fill="none" xmlns="http://www.w3.org/2000/svg">
<path d="M21 10V16C21 18.7614 18.7614 21 16 21H8C5.23858 21 3 18.7614 3 16V8C3 5.23858 5.23858 3 8 3H14" stroke="#232529" stroke-width="1.5" stroke-linecap="round" stroke-linejoin="round"/>
<path d="M21 5H17" stroke="#232529" stroke-width="1.5" stroke-linecap="round" stroke-linejoin="round"/>
<path d="M19 7V3" stroke="#232529" stroke-width="1.5" stroke-linecap="round" stroke-linejoin="round"/>
<path d="M10.75 13.25H8.5C7.67157 13.25 7 12.5784 7 11.75V8.5C7 7.67157 7.67157 7 8.5 7H11.75C12.5784 7 13.25 7.67157 13.25 8.5V10.75" stroke="#232529" stroke-width="1.5" stroke-linecap="round" stroke-linejoin="round"/>
<rect x="10.75" y="10.75" width="6.25" height="6.25" rx="1.5" stroke="#232529" stroke-width="1.5" stroke-linecap="round" stroke-linejoin="round"/>
</svg>
