<svg width="115" height="122" viewBox="0 0 115 122" fill="none" xmlns="http://www.w3.org/2000/svg">
<circle cx="46.3771" cy="72.842" r="42.4201" fill="#161D3B"/>
<rect x="16.7861" y="14.2969" width="67.4143" height="84.7" rx="10.27" fill="#FFD600"/>
<g filter="url(#filter0_d_1_114051)">
<rect x="22.9717" y="7.38281" width="67.4143" height="84.7" rx="7.27201" fill="white"/>
<rect x="23.4717" y="7.88281" width="66.4143" height="83.7" rx="6.77201" stroke="#1A213F"/>
</g>
<circle cx="88.999" cy="88.4688" r="25.5" fill="white" stroke="#1A213F"/>
<path d="M109.833 88.4661C109.833 99.9721 100.505 109.299 88.9993 109.299C77.4934 109.299 68.166 99.9721 68.166 88.4661C68.166 76.9602 77.4934 67.6328 88.9993 67.6328C100.505 67.6328 109.833 76.9602 109.833 88.4661Z" fill="#FFD600"/>
<g clip-path="url(#clip0_1_114051)">
<path d="M96.0212 97.7473C95.1749 97.9741 94.2322 97.7207 93.6239 97.0229L91.9152 95.1973L91.5998 96.6024C91.5918 96.6384 91.5811 96.6739 91.568 96.7084C91.3019 97.4098 90.6609 97.8054 90.1449 97.9437C90.1408 97.9448 90.1366 97.9459 90.1324 97.947C89.5547 98.0977 88.9142 98.0041 88.3751 97.6902C87.8153 97.3641 87.4145 96.8395 87.2466 96.2129L84.6286 86.4421C84.3898 85.5509 84.6811 84.6296 85.3888 84.0377C86.0897 83.4513 87.0367 83.3243 87.866 83.7034L93.8289 86.0734C94.2299 86.2327 94.4257 86.687 94.2664 87.0879C94.107 87.4889 93.6528 87.6847 93.2519 87.5254L87.2688 85.1475C87.254 85.1416 87.2394 85.1352 87.2249 85.1284C86.8063 84.9316 86.4811 85.1611 86.3913 85.2362C86.3015 85.3112 86.0181 85.5908 86.1379 86.0377L88.756 95.8085C88.8863 96.2948 89.3781 96.529 89.738 96.4351C89.7391 96.4348 89.7404 96.4345 89.7415 96.4342C89.8883 96.3948 90.0335 96.2907 90.0918 96.1867L90.7141 93.414C90.7775 93.1316 90.9919 92.9073 91.2712 92.8313C91.2722 92.831 91.2732 92.8307 91.2742 92.8305C91.5527 92.7559 91.8497 92.8406 92.0468 93.0512L94.7751 95.9661C94.7828 95.9743 94.7903 95.9827 94.7976 95.9913C95.0799 96.3201 95.5803 96.362 95.9131 96.0844C96.0788 95.9462 96.1797 95.7518 96.1972 95.5368C96.2141 95.3284 96.1507 95.1263 96.0182 94.9656L93.3103 92.194C93.1164 91.9955 93.0423 91.7091 93.1157 91.4415C93.189 91.1739 93.3989 90.9653 93.6669 90.8935L96.2541 90.2002C96.686 90.0605 96.7684 89.6689 96.7834 89.5513C96.7988 89.4308 96.8178 89.018 96.4166 88.7704C96.0494 88.5437 95.9355 88.0624 96.1621 87.6952C96.3887 87.328 96.8701 87.2142 97.2373 87.4408C98.0324 87.9316 98.4524 88.8161 98.3333 89.7491C98.2149 90.677 97.5901 91.4234 96.7028 91.6971C96.6936 91.6999 96.6842 91.7026 96.6748 91.7051L95.361 92.0572L97.1551 93.8934C97.1661 93.9047 97.1768 93.9163 97.1871 93.9282C97.6048 94.411 97.8064 95.0273 97.7545 95.6636C97.7027 96.3 97.4042 96.8756 96.9138 97.2844C96.6453 97.5082 96.34 97.6619 96.0212 97.7473ZM84.689 83.2546C85.0008 82.9563 85.0116 82.4617 84.7133 82.15L83.7585 81.1522C83.4601 80.8404 82.9657 80.8296 82.6539 81.1279C82.3421 81.4262 82.3313 81.9207 82.6296 82.2325L83.5844 83.2303C83.7888 83.4438 84.0851 83.5162 84.3518 83.4447C84.4744 83.4119 84.5908 83.3486 84.689 83.2546ZM83.553 85.3983C83.6178 84.9716 83.3244 84.5733 82.8978 84.5086L81.5489 84.3039C81.1223 84.2391 80.724 84.5325 80.6592 84.9591C80.5945 85.3857 80.8879 85.784 81.3144 85.8487L82.6634 86.0535C82.7734 86.0702 82.8815 86.063 82.9825 86.036C83.2732 85.958 83.505 85.7148 83.553 85.3983ZM87.6023 81.6971L87.6837 80.3407C87.7096 79.91 87.3814 79.5398 86.9507 79.514C86.5201 79.4881 86.1498 79.8164 86.124 80.2471L86.0426 81.6034C86.0167 82.0341 86.3449 82.4043 86.7756 82.4301C86.8619 82.4353 86.9457 82.4263 87.0248 82.4051C87.3407 82.3204 87.5816 82.0415 87.6023 81.6971ZM90.1125 83.0767L90.9291 82.0491C91.1975 81.7113 91.1412 81.2198 90.8034 80.9514C90.4656 80.6829 89.9741 80.7392 89.7057 81.077L88.8892 82.1046C88.6207 82.4424 88.677 82.9339 89.0148 83.2023C89.2164 83.3625 89.4727 83.4071 89.7036 83.3452C89.8597 83.3034 90.0043 83.2129 90.1125 83.0767ZM83.0064 89.5303L84.017 88.7742C84.3625 88.5157 84.433 88.0261 84.1746 87.6806C83.9161 87.3351 83.4264 87.2646 83.081 87.5231L82.0704 88.2792C81.7249 88.5376 81.6544 89.0273 81.9128 89.3727C82.1099 89.6362 82.4414 89.7398 82.7409 89.6595C82.8342 89.6345 82.9243 89.5917 83.0064 89.5303Z" fill="#161D3B"/>
</g>
<rect x="31.3311" y="19.4844" width="45.3052" height="3.72665" rx="1.86332" fill="#C4C1C1"/>
<rect x="31.3311" y="26.3984" width="34.9338" height="3.72665" rx="1.86332" fill="#C4C1C1"/>
<rect x="31.3311" y="33.3125" width="43.5767" height="3.72665" rx="1.86332" fill="#C4C1C1"/>
<rect x="31.3311" y="40.2266" width="36.6624" height="3.72665" rx="1.86332" fill="#C4C1C1"/>
<defs>
<filter id="filter0_d_1_114051" x="18.9717" y="7.38281" width="75.4141" height="92.7031" filterUnits="userSpaceOnUse" color-interpolation-filters="sRGB">
<feFlood flood-opacity="0" result="BackgroundImageFix"/>
<feColorMatrix in="SourceAlpha" type="matrix" values="0 0 0 0 0 0 0 0 0 0 0 0 0 0 0 0 0 0 127 0" result="hardAlpha"/>
<feOffset dy="4"/>
<feGaussianBlur stdDeviation="2"/>
<feComposite in2="hardAlpha" operator="out"/>
<feColorMatrix type="matrix" values="0 0 0 0 0.223529 0 0 0 0 0.266667 0 0 0 0 0.462745 0 0 0 0.25 0"/>
<feBlend mode="normal" in2="BackgroundImageFix" result="effect1_dropShadow_1_114051"/>
<feBlend mode="normal" in="SourceGraphic" in2="effect1_dropShadow_1_114051" result="shape"/>
</filter>
<clipPath id="clip0_1_114051">
<rect width="20" height="20" fill="white" transform="translate(77.752 81.9375) rotate(-15)"/>
</clipPath>
</defs>
</svg>
