<svg width="282" height="458" viewBox="0 0 282 458" fill="none" xmlns="http://www.w3.org/2000/svg">
<g filter="url(#filter0_d_2334_15337)">
<rect x="89" y="16" width="141" height="48" rx="12" fill="#30354B"/>
</g>
<path d="M113.702 35.5455V45H112.179L107.724 38.56H107.645V45H105.933V35.5455H107.465L111.915 41.9901H111.999V35.5455H113.702ZM118.634 45.1385C117.923 45.1385 117.309 44.9908 116.792 44.6953C116.278 44.3968 115.882 43.9751 115.605 43.4304C115.328 42.8826 115.19 42.2378 115.19 41.4961C115.19 40.7667 115.328 40.1265 115.605 39.5756C115.885 39.0217 116.276 38.5908 116.778 38.283C117.279 37.9722 117.869 37.8168 118.546 37.8168C118.983 37.8168 119.395 37.8875 119.783 38.0291C120.174 38.1676 120.519 38.383 120.817 38.6754C121.119 38.9678 121.356 39.3402 121.528 39.7926C121.7 40.242 121.787 40.7775 121.787 41.3991V41.9116H115.975V40.7852H120.185C120.182 40.4651 120.112 40.1804 119.977 39.9311C119.842 39.6787 119.652 39.4802 119.409 39.3356C119.169 39.1909 118.889 39.1186 118.569 39.1186C118.227 39.1186 117.927 39.2017 117.669 39.3679C117.41 39.531 117.209 39.7464 117.064 40.0142C116.922 40.2789 116.85 40.5697 116.847 40.8867V41.87C116.847 42.2824 116.922 42.6364 117.073 42.9318C117.224 43.2242 117.435 43.4489 117.706 43.6058C117.977 43.7597 118.294 43.8366 118.657 43.8366C118.9 43.8366 119.12 43.8028 119.317 43.7351C119.514 43.6643 119.685 43.5612 119.829 43.4258C119.974 43.2904 120.083 43.1226 120.157 42.9226L121.717 43.098C121.619 43.5104 121.431 43.8705 121.154 44.1783C120.88 44.483 120.529 44.7199 120.102 44.8892C119.674 45.0554 119.185 45.1385 118.634 45.1385ZM124.626 45L122.622 37.9091H124.326L125.572 42.8949H125.637L126.911 37.9091H128.596L129.87 42.8672H129.939L131.167 37.9091H132.875L130.867 45H129.127L127.797 40.2081H127.7L126.371 45H124.626ZM139.898 45.1246C139.341 45.1246 138.843 44.9815 138.403 44.6953C137.962 44.4091 137.615 43.9936 137.359 43.4489C137.104 42.9041 136.976 42.2424 136.976 41.4638C136.976 40.6759 137.105 40.0111 137.364 39.4695C137.625 38.9247 137.978 38.5138 138.421 38.2369C138.864 37.9568 139.358 37.8168 139.903 37.8168C140.318 37.8168 140.66 37.8875 140.928 38.0291C141.195 38.1676 141.408 38.3353 141.565 38.5323C141.722 38.7262 141.843 38.9093 141.93 39.0817H141.999V35.5455H143.675V45H142.031V43.8828H141.93C141.843 44.0552 141.719 44.2383 141.556 44.4322C141.392 44.623 141.177 44.7861 140.909 44.9215C140.642 45.0569 140.305 45.1246 139.898 45.1246ZM140.365 43.7536C140.718 43.7536 141.02 43.6581 141.269 43.4673C141.519 43.2734 141.708 43.0041 141.837 42.6594C141.966 42.3147 142.031 41.9131 142.031 41.4545C142.031 40.996 141.966 40.5974 141.837 40.2589C141.711 39.9203 141.523 39.6572 141.274 39.4695C141.028 39.2817 140.725 39.1879 140.365 39.1879C139.992 39.1879 139.681 39.2848 139.432 39.4787C139.183 39.6726 138.995 39.9403 138.869 40.282C138.743 40.6236 138.68 41.0144 138.68 41.4545C138.68 41.8977 138.743 42.2932 138.869 42.641C138.998 42.9857 139.187 43.258 139.437 43.4581C139.689 43.6551 139.998 43.7536 140.365 43.7536ZM148.595 45.1385C147.884 45.1385 147.27 44.9908 146.753 44.6953C146.239 44.3968 145.843 43.9751 145.566 43.4304C145.289 42.8826 145.151 42.2378 145.151 41.4961C145.151 40.7667 145.289 40.1265 145.566 39.5756C145.846 39.0217 146.237 38.5908 146.739 38.283C147.24 37.9722 147.83 37.8168 148.507 37.8168C148.944 37.8168 149.356 37.8875 149.744 38.0291C150.135 38.1676 150.48 38.383 150.778 38.6754C151.08 38.9678 151.317 39.3402 151.489 39.7926C151.661 40.242 151.748 40.7775 151.748 41.3991V41.9116H145.935V40.7852H150.146C150.143 40.4651 150.073 40.1804 149.938 39.9311C149.803 39.6787 149.613 39.4802 149.37 39.3356C149.13 39.1909 148.85 39.1186 148.53 39.1186C148.188 39.1186 147.888 39.2017 147.63 39.3679C147.371 39.531 147.17 39.7464 147.025 40.0142C146.883 40.2789 146.811 40.5697 146.808 40.8867V41.87C146.808 42.2824 146.883 42.6364 147.034 42.9318C147.185 43.2242 147.396 43.4489 147.667 43.6058C147.937 43.7597 148.254 43.8366 148.618 43.8366C148.861 43.8366 149.081 43.8028 149.278 43.7351C149.475 43.6643 149.646 43.5612 149.79 43.4258C149.935 43.2904 150.044 43.1226 150.118 42.9226L151.678 43.098C151.58 43.5104 151.392 43.8705 151.115 44.1783C150.841 44.483 150.49 44.7199 150.063 44.8892C149.635 45.0554 149.145 45.1385 148.595 45.1385ZM154.833 35.5455V45H153.161V35.5455H154.833ZM156.551 45V37.9091H158.222V45H156.551ZM157.391 36.9027C157.127 36.9027 156.899 36.815 156.708 36.6396C156.517 36.4611 156.422 36.2472 156.422 35.9979C156.422 35.7455 156.517 35.5316 156.708 35.3562C156.899 35.1777 157.127 35.0884 157.391 35.0884C157.659 35.0884 157.887 35.1777 158.074 35.3562C158.265 35.5316 158.361 35.7455 158.361 35.9979C158.361 36.2472 158.265 36.4611 158.074 36.6396C157.887 36.815 157.659 36.9027 157.391 36.9027ZM166.275 37.9091L163.749 45H161.903L159.377 37.9091H161.159L162.789 43.1765H162.863L164.497 37.9091H166.275ZM170.329 45.1385C169.618 45.1385 169.004 44.9908 168.487 44.6953C167.973 44.3968 167.578 43.9751 167.301 43.4304C167.024 42.8826 166.885 42.2378 166.885 41.4961C166.885 40.7667 167.024 40.1265 167.301 39.5756C167.581 39.0217 167.971 38.5908 168.473 38.283C168.975 37.9722 169.564 37.8168 170.241 37.8168C170.678 37.8168 171.091 37.8875 171.478 38.0291C171.869 38.1676 172.214 38.383 172.513 38.6754C172.814 38.9678 173.051 39.3402 173.223 39.7926C173.396 40.242 173.482 40.7775 173.482 41.3991V41.9116H167.67V40.7852H171.88C171.877 40.4651 171.808 40.1804 171.672 39.9311C171.537 39.6787 171.348 39.4802 171.104 39.3356C170.864 39.1909 170.584 39.1186 170.264 39.1186C169.923 39.1186 169.623 39.2017 169.364 39.3679C169.106 39.531 168.904 39.7464 168.759 40.0142C168.618 40.2789 168.545 40.5697 168.542 40.8867V41.87C168.542 42.2824 168.618 42.6364 168.769 42.9318C168.919 43.2242 169.13 43.4489 169.401 43.6058C169.672 43.7597 169.989 43.8366 170.352 43.8366C170.595 43.8366 170.815 43.8028 171.012 43.7351C171.209 43.6643 171.38 43.5612 171.525 43.4258C171.669 43.2904 171.778 43.1226 171.852 42.9226L173.413 43.098C173.314 43.5104 173.127 43.8705 172.85 44.1783C172.576 44.483 172.225 44.7199 171.797 44.8892C171.369 45.0554 170.88 45.1385 170.329 45.1385ZM174.896 45V37.9091H176.516V39.0909H176.59C176.719 38.6816 176.941 38.3661 177.255 38.1445C177.572 37.9199 177.933 37.8075 178.34 37.8075C178.432 37.8075 178.535 37.8121 178.649 37.8214C178.766 37.8275 178.863 37.8383 178.94 37.8537V39.391C178.869 39.3664 178.757 39.3448 178.603 39.3263C178.452 39.3048 178.306 39.294 178.164 39.294C177.86 39.294 177.586 39.3602 177.343 39.4925C177.102 39.6218 176.913 39.8018 176.775 40.0327C176.636 40.2635 176.567 40.5297 176.567 40.8313V45H174.896ZM181.305 47.6591C181.077 47.6591 180.866 47.6406 180.672 47.6037C180.481 47.5698 180.329 47.5298 180.215 47.4837L180.603 46.1818C180.846 46.2526 181.063 46.2865 181.254 46.2834C181.445 46.2803 181.612 46.2203 181.757 46.1033C181.905 45.9895 182.029 45.7987 182.131 45.5309L182.274 45.1477L179.703 37.9091H181.475L183.11 43.2642H183.184L184.822 37.9091H186.6L183.761 45.8587C183.628 46.2341 183.453 46.5558 183.234 46.8235C183.016 47.0943 182.748 47.3005 182.431 47.4421C182.117 47.5868 181.742 47.6591 181.305 47.6591Z" fill="white"/>
<circle cx="210" cy="18" r="16" fill="#FFD600"/>
<path fill-rule="evenodd" clip-rule="evenodd" d="M215.617 16.1533C215.788 16.1513 215.974 16.1492 216.143 16.1492C216.324 16.1492 216.469 16.2959 216.469 16.4792V22.3766C216.469 24.1957 215.01 25.67 213.209 25.67H207.428C205.54 25.67 204 24.1223 204 22.2152V14.3081C204 12.489 205.467 11 207.275 11H211.153C211.342 11 211.488 11.154 211.488 11.3374V13.6993C211.488 15.0416 212.584 16.1418 213.913 16.1492C214.224 16.1492 214.497 16.1515 214.737 16.1535C214.923 16.1551 215.089 16.1565 215.235 16.1565C215.338 16.1565 215.472 16.155 215.617 16.1533ZM215.819 15.0838C215.222 15.086 214.518 15.0838 214.012 15.0786C213.208 15.0786 212.547 14.4104 212.547 13.5991V11.6656C212.547 11.3495 212.927 11.1925 213.144 11.4207C213.537 11.8335 214.077 12.4011 214.615 12.966C215.151 13.5292 215.685 14.0897 216.068 14.4918C216.28 14.7141 216.124 15.083 215.819 15.0838Z" fill="#161D3B"/>
<g filter="url(#filter1_d_2334_15337)">
<rect x="119" y="382" width="141" height="48" rx="12" fill="#30354B"/>
</g>
<path d="M144.025 404.735H142.299C142.249 404.452 142.159 404.201 142.026 403.983C141.894 403.761 141.729 403.574 141.532 403.42C141.335 403.266 141.111 403.15 140.858 403.074C140.609 402.993 140.34 402.953 140.05 402.953C139.536 402.953 139.081 403.083 138.684 403.341C138.287 403.597 137.976 403.972 137.751 404.468C137.527 404.96 137.414 405.562 137.414 406.273C137.414 406.996 137.527 407.605 137.751 408.101C137.979 408.593 138.29 408.966 138.684 409.218C139.081 409.467 139.535 409.592 140.046 409.592C140.329 409.592 140.594 409.555 140.84 409.481C141.089 409.404 141.312 409.292 141.509 409.144C141.709 408.996 141.877 408.815 142.012 408.599C142.151 408.384 142.246 408.138 142.299 407.861L144.025 407.87C143.961 408.319 143.821 408.741 143.605 409.135C143.393 409.529 143.114 409.877 142.77 410.178C142.425 410.477 142.022 410.711 141.56 410.88C141.098 411.046 140.586 411.129 140.023 411.129C139.192 411.129 138.45 410.937 137.798 410.552C137.145 410.167 136.631 409.612 136.256 408.886C135.88 408.159 135.692 407.288 135.692 406.273C135.692 405.254 135.882 404.383 136.26 403.66C136.639 402.933 137.154 402.378 137.807 401.993C138.459 401.609 139.198 401.416 140.023 401.416C140.549 401.416 141.038 401.49 141.491 401.638C141.943 401.786 142.346 402.002 142.7 402.289C143.054 402.572 143.345 402.92 143.573 403.332C143.804 403.741 143.954 404.209 144.025 404.735ZM148.613 411.138C147.92 411.138 147.32 410.986 146.812 410.681C146.305 410.377 145.911 409.951 145.631 409.403C145.354 408.855 145.215 408.215 145.215 407.482C145.215 406.75 145.354 406.108 145.631 405.557C145.911 405.006 146.305 404.578 146.812 404.274C147.32 403.969 147.92 403.817 148.613 403.817C149.305 403.817 149.905 403.969 150.413 404.274C150.921 404.578 151.313 405.006 151.59 405.557C151.871 406.108 152.011 406.75 152.011 407.482C152.011 408.215 151.871 408.855 151.59 409.403C151.313 409.951 150.921 410.377 150.413 410.681C149.905 410.986 149.305 411.138 148.613 411.138ZM148.622 409.8C148.998 409.8 149.311 409.697 149.564 409.49C149.816 409.281 150.004 409.001 150.127 408.65C150.253 408.299 150.316 407.908 150.316 407.478C150.316 407.044 150.253 406.651 150.127 406.3C150.004 405.946 149.816 405.665 149.564 405.456C149.311 405.246 148.998 405.142 148.622 405.142C148.237 405.142 147.917 405.246 147.662 405.456C147.409 405.665 147.22 405.946 147.094 406.3C146.971 406.651 146.909 407.044 146.909 407.478C146.909 407.908 146.971 408.299 147.094 408.65C147.22 409.001 147.409 409.281 147.662 409.49C147.917 409.697 148.237 409.8 148.622 409.8ZM153.429 411V403.909H155.026V405.114H155.109C155.257 404.708 155.502 404.391 155.843 404.163C156.185 403.932 156.593 403.817 157.067 403.817C157.547 403.817 157.952 403.934 158.281 404.168C158.613 404.398 158.847 404.714 158.983 405.114H159.056C159.213 404.72 159.478 404.406 159.85 404.172C160.226 403.935 160.671 403.817 161.185 403.817C161.837 403.817 162.37 404.023 162.782 404.435C163.194 404.848 163.401 405.449 163.401 406.24V411H161.725V406.499C161.725 406.059 161.608 405.737 161.374 405.534C161.14 405.328 160.854 405.225 160.515 405.225C160.112 405.225 159.797 405.351 159.569 405.603C159.344 405.853 159.232 406.177 159.232 406.577V411H157.593V406.43C157.593 406.063 157.482 405.771 157.261 405.553C157.042 405.334 156.756 405.225 156.402 405.225C156.162 405.225 155.943 405.286 155.746 405.409C155.549 405.529 155.393 405.7 155.276 405.922C155.159 406.14 155.1 406.396 155.1 406.688V411H153.429ZM165.096 411V403.909H166.693V405.114H166.776C166.924 404.708 167.169 404.391 167.51 404.163C167.852 403.932 168.26 403.817 168.734 403.817C169.214 403.817 169.619 403.934 169.948 404.168C170.28 404.398 170.514 404.714 170.65 405.114H170.723C170.88 404.72 171.145 404.406 171.517 404.172C171.893 403.935 172.338 403.817 172.852 403.817C173.504 403.817 174.037 404.023 174.449 404.435C174.861 404.848 175.068 405.449 175.068 406.24V411H173.392V406.499C173.392 406.059 173.275 405.737 173.041 405.534C172.807 405.328 172.521 405.225 172.182 405.225C171.779 405.225 171.464 405.351 171.236 405.603C171.011 405.853 170.899 406.177 170.899 406.577V411H169.26V406.43C169.26 406.063 169.149 405.771 168.928 405.553C168.709 405.334 168.423 405.225 168.069 405.225C167.829 405.225 167.61 405.286 167.413 405.409C167.216 405.529 167.06 405.7 166.943 405.922C166.826 406.14 166.767 406.396 166.767 406.688V411H165.096ZM181.282 408.018V403.909H182.954V411H181.333V409.74H181.259C181.099 410.137 180.836 410.461 180.47 410.714C180.107 410.966 179.659 411.092 179.127 411.092C178.662 411.092 178.251 410.989 177.894 410.783C177.54 410.574 177.263 410.271 177.063 409.874C176.863 409.473 176.763 408.99 176.763 408.424V403.909H178.434V408.165C178.434 408.615 178.557 408.972 178.803 409.237C179.05 409.501 179.373 409.634 179.773 409.634C180.019 409.634 180.258 409.574 180.488 409.453C180.719 409.333 180.909 409.155 181.056 408.918C181.207 408.678 181.282 408.378 181.282 408.018ZM186.343 406.845V411H184.672V403.909H186.269V405.114H186.353C186.516 404.717 186.776 404.402 187.133 404.168C187.493 403.934 187.938 403.817 188.467 403.817C188.956 403.817 189.382 403.921 189.746 404.131C190.112 404.34 190.395 404.643 190.595 405.04C190.798 405.437 190.898 405.919 190.895 406.485V411H189.224V406.744C189.224 406.27 189.101 405.899 188.855 405.631C188.612 405.363 188.275 405.229 187.844 405.229C187.551 405.229 187.291 405.294 187.063 405.423C186.839 405.549 186.662 405.733 186.533 405.973C186.406 406.213 186.343 406.504 186.343 406.845ZM192.594 411V403.909H194.265V411H192.594ZM193.434 402.903C193.17 402.903 192.942 402.815 192.751 402.64C192.56 402.461 192.465 402.247 192.465 401.998C192.465 401.746 192.56 401.532 192.751 401.356C192.942 401.178 193.17 401.088 193.434 401.088C193.702 401.088 193.93 401.178 194.117 401.356C194.308 401.532 194.404 401.746 194.404 401.998C194.404 402.247 194.308 402.461 194.117 402.64C193.93 402.815 193.702 402.903 193.434 402.903ZM199.525 403.909V405.202H195.448V403.909H199.525ZM196.455 402.21H198.126V408.867C198.126 409.092 198.16 409.264 198.227 409.384C198.298 409.501 198.39 409.581 198.504 409.624C198.618 409.667 198.744 409.689 198.883 409.689C198.987 409.689 199.083 409.681 199.169 409.666C199.258 409.65 199.326 409.637 199.372 409.624L199.654 410.931C199.565 410.962 199.437 410.995 199.271 411.032C199.107 411.069 198.907 411.091 198.67 411.097C198.252 411.109 197.875 411.046 197.539 410.908C197.204 410.766 196.938 410.548 196.741 410.252C196.547 409.957 196.451 409.587 196.455 409.144V402.21ZM201.961 413.659C201.733 413.659 201.522 413.641 201.328 413.604C201.138 413.57 200.985 413.53 200.871 413.484L201.259 412.182C201.502 412.253 201.719 412.286 201.91 412.283C202.101 412.28 202.269 412.22 202.413 412.103C202.561 411.989 202.686 411.799 202.787 411.531L202.93 411.148L200.359 403.909H202.132L203.766 409.264H203.84L205.479 403.909H207.256L204.417 411.859C204.284 412.234 204.109 412.556 203.891 412.824C203.672 413.094 203.404 413.301 203.087 413.442C202.773 413.587 202.398 413.659 201.961 413.659Z" fill="white"/>
<circle cx="240" cy="384" r="16" fill="#FFD600"/>
<mask id="mask0_2334_15337" style="mask-type:alpha" maskUnits="userSpaceOnUse" x="230" y="374" width="20" height="20">
<rect x="230" y="374" width="20" height="20" fill="#D9D9D9"/>
</mask>
<g mask="url(#mask0_2334_15337)">
<path d="M239.997 392.172C239.029 391.318 237.94 390.656 236.728 390.185C235.517 389.715 234.245 389.458 232.914 389.415V380.938C234.253 380.975 235.532 381.254 236.751 381.774C237.971 382.295 239.053 382.991 239.997 383.864C240.942 382.991 242.024 382.295 243.243 381.774C244.463 381.254 245.742 380.975 247.081 380.938V389.415C245.741 389.458 244.467 389.715 243.26 390.185C242.053 390.656 240.965 391.318 239.997 392.172ZM239.997 381.322C239.166 381.322 238.456 381.028 237.868 380.439C237.279 379.851 236.985 379.141 236.985 378.31C236.985 377.478 237.279 376.769 237.868 376.18C238.456 375.591 239.166 375.297 239.997 375.297C240.829 375.297 241.538 375.591 242.127 376.18C242.716 376.769 243.01 377.478 243.01 378.31C243.01 379.141 242.716 379.851 242.127 380.439C241.538 381.028 240.829 381.322 239.997 381.322Z" fill="#161D3B"/>
</g>
<g filter="url(#filter2_d_2334_15337)">
<path d="M22 189C22 182.373 27.3726 177 34 177H167C173.627 177 179 182.373 179 189V287C179 293.627 173.627 299 167 299H34C27.3726 299 22 293.627 22 287V189Z" fill="#30354B"/>
</g>
<circle cx="54" cy="209" r="16" fill="#FFD600"/>
<path fill-rule="evenodd" clip-rule="evenodd" d="M48.2349 208.733C47.5571 206.499 48.3492 203.946 50.5708 203.191C51.7394 202.793 53.0293 203.028 54.0008 203.799C54.9199 203.049 56.2572 202.796 57.4245 203.191C59.6461 203.946 60.4433 206.499 59.7661 208.733C58.7112 212.273 54.0008 215 54.0008 215C54.0008 215 49.3252 212.314 48.2349 208.733Z" fill="#161D3B"/>
<path d="M38.7173 247V239.727H43.3764V240.832H40.0348V242.806H43.0568V243.911H40.0348V247H38.7173ZM44.4418 247V241.545H45.6882V242.455H45.745C45.8445 242.14 46.0149 241.897 46.2564 241.727C46.5002 241.554 46.7784 241.467 47.0909 241.467C47.1619 241.467 47.2412 241.471 47.3288 241.478C47.4188 241.483 47.4934 241.491 47.5526 241.503V242.685C47.4981 242.666 47.4117 242.65 47.2933 242.636C47.1773 242.619 47.0649 242.611 46.956 242.611C46.7216 242.611 46.5109 242.662 46.3239 242.763C46.1392 242.863 45.9936 243.001 45.8871 243.179C45.7805 243.357 45.7273 243.561 45.7273 243.793V247H44.4418ZM50.5968 247.107C50.0499 247.107 49.5776 246.993 49.1799 246.766C48.7845 246.536 48.4803 246.212 48.2672 245.793C48.0542 245.371 47.9476 244.875 47.9476 244.305C47.9476 243.744 48.0542 243.251 48.2672 242.827C48.4827 242.401 48.7833 242.07 49.1692 241.833C49.5551 241.594 50.0085 241.474 50.5293 241.474C50.8655 241.474 51.1827 241.529 51.481 241.638C51.7817 241.744 52.0468 241.91 52.2765 242.135C52.5085 242.36 52.6908 242.646 52.8233 242.994C52.9559 243.34 53.0222 243.752 53.0222 244.23V244.624H48.5513V243.758H51.79C51.7876 243.512 51.7343 243.293 51.6301 243.101C51.526 242.907 51.3804 242.754 51.1934 242.643C51.0087 242.531 50.7933 242.476 50.5471 242.476C50.2843 242.476 50.0534 242.54 49.8546 242.668C49.6557 242.793 49.5007 242.959 49.3894 243.165C49.2805 243.368 49.2248 243.592 49.2225 243.836V244.592C49.2225 244.91 49.2805 245.182 49.3965 245.409C49.5125 245.634 49.6747 245.807 49.883 245.928C50.0913 246.046 50.3352 246.105 50.6145 246.105C50.8016 246.105 50.9708 246.079 51.1223 246.027C51.2739 245.973 51.4052 245.893 51.5165 245.789C51.6278 245.685 51.7118 245.556 51.7686 245.402L52.9689 245.537C52.8932 245.854 52.7488 246.131 52.5357 246.368C52.325 246.602 52.0551 246.785 51.726 246.915C51.397 247.043 51.0205 247.107 50.5968 247.107ZM56.5245 247.107C55.9776 247.107 55.5053 246.993 55.1076 246.766C54.7122 246.536 54.408 246.212 54.195 245.793C53.9819 245.371 53.8754 244.875 53.8754 244.305C53.8754 243.744 53.9819 243.251 54.195 242.827C54.4104 242.401 54.7111 242.07 55.0969 241.833C55.4828 241.594 55.9362 241.474 56.457 241.474C56.7932 241.474 57.1104 241.529 57.4087 241.638C57.7094 241.744 57.9746 241.91 58.2042 242.135C58.4362 242.36 58.6185 242.646 58.7511 242.994C58.8836 243.34 58.9499 243.752 58.9499 244.23V244.624H54.479V243.758H57.7177C57.7153 243.512 57.6621 243.293 57.5579 243.101C57.4537 242.907 57.3081 242.754 57.1211 242.643C56.9364 242.531 56.721 242.476 56.4748 242.476C56.212 242.476 55.9812 242.54 55.7823 242.668C55.5835 242.793 55.4284 242.959 55.3171 243.165C55.2082 243.368 55.1526 243.592 55.1502 243.836V244.592C55.1502 244.91 55.2082 245.182 55.3242 245.409C55.4402 245.634 55.6024 245.807 55.8107 245.928C56.0191 246.046 56.2629 246.105 56.5423 246.105C56.7293 246.105 56.8986 246.079 57.0501 246.027C57.2016 245.973 57.333 245.893 57.4442 245.789C57.5555 245.685 57.6396 245.556 57.6964 245.402L58.8967 245.537C58.8209 245.854 58.6765 246.131 58.4634 246.368C58.2527 246.602 57.9828 246.785 57.6538 246.915C57.3247 247.043 56.9483 247.107 56.5245 247.107ZM61.323 239.727V247H60.0375V239.727H61.323ZM64.2145 247.11C63.8688 247.11 63.5575 247.049 63.2805 246.925C63.0059 246.8 62.7881 246.615 62.6271 246.371C62.4685 246.128 62.3892 245.827 62.3892 245.469C62.3892 245.162 62.446 244.907 62.5597 244.706C62.6733 244.505 62.8284 244.344 63.0249 244.223C63.2214 244.102 63.4427 244.011 63.6889 243.95C63.9375 243.886 64.1944 243.839 64.4595 243.811C64.7791 243.778 65.0384 243.748 65.2372 243.722C65.4361 243.694 65.5805 243.651 65.6705 243.594C65.7628 243.535 65.8089 243.444 65.8089 243.321V243.3C65.8089 243.032 65.7296 242.825 65.571 242.678C65.4124 242.531 65.1839 242.458 64.8857 242.458C64.5708 242.458 64.321 242.527 64.1364 242.664C63.9541 242.801 63.831 242.964 63.767 243.151L62.5668 242.98C62.6615 242.649 62.8177 242.372 63.0355 242.149C63.2533 241.924 63.5196 241.756 63.8345 241.645C64.1494 241.531 64.4974 241.474 64.8786 241.474C65.1413 241.474 65.4029 241.505 65.6634 241.567C65.9238 241.628 66.1617 241.73 66.3771 241.872C66.5926 242.012 66.7654 242.202 66.8956 242.444C67.0282 242.685 67.0945 242.987 67.0945 243.349V247H65.8587V246.251H65.8161C65.7379 246.402 65.6278 246.544 65.4858 246.677C65.3461 246.807 65.1697 246.912 64.9567 246.993C64.746 247.071 64.4986 247.11 64.2145 247.11ZM64.5483 246.165C64.8063 246.165 65.0301 246.115 65.2195 246.013C65.4089 245.909 65.5545 245.771 65.6562 245.601C65.7604 245.43 65.8125 245.245 65.8125 245.043V244.401C65.7723 244.434 65.7036 244.464 65.6065 244.493C65.5118 244.521 65.4053 244.546 65.2869 244.567C65.1686 244.589 65.0514 244.608 64.9354 244.624C64.8194 244.641 64.7188 244.655 64.6335 244.667C64.4418 244.693 64.2701 244.736 64.1186 244.795C63.9671 244.854 63.8475 244.937 63.7599 245.043C63.6723 245.147 63.6286 245.282 63.6286 245.448C63.6286 245.685 63.715 245.864 63.8878 245.984C64.0606 246.105 64.2808 246.165 64.5483 246.165ZM69.6726 243.804V247H68.3871V241.545H69.6158V242.472H69.6797C69.8052 242.167 70.0052 241.924 70.2798 241.744C70.5568 241.564 70.8989 241.474 71.3061 241.474C71.6825 241.474 72.0104 241.555 72.2898 241.716C72.5715 241.877 72.7893 242.11 72.9432 242.415C73.0994 242.721 73.1764 243.091 73.174 243.527V247H71.8885V243.726C71.8885 243.361 71.7938 243.076 71.6044 242.87C71.4174 242.664 71.1581 242.561 70.8267 242.561C70.6018 242.561 70.4018 242.611 70.2266 242.71C70.0537 242.807 69.9176 242.948 69.8182 243.133C69.7211 243.317 69.6726 243.541 69.6726 243.804ZM76.8601 247.107C76.3156 247.107 75.848 246.987 75.4574 246.748C75.0691 246.509 74.7696 246.179 74.5589 245.757C74.3506 245.333 74.2464 244.846 74.2464 244.294C74.2464 243.74 74.353 243.251 74.5661 242.827C74.7791 242.401 75.0798 242.07 75.468 241.833C75.8587 241.594 76.3203 241.474 76.853 241.474C77.2957 241.474 77.6875 241.556 78.0284 241.719C78.3717 241.88 78.6451 242.109 78.8487 242.405C79.0523 242.698 79.1683 243.042 79.1967 243.435H77.968C77.9183 243.172 77.8 242.953 77.6129 242.778C77.4283 242.6 77.1809 242.511 76.8707 242.511C76.608 242.511 76.3771 242.582 76.1783 242.724C75.9794 242.864 75.8243 243.065 75.7131 243.328C75.6042 243.591 75.5497 243.906 75.5497 244.273C75.5497 244.644 75.6042 244.964 75.7131 245.232C75.822 245.497 75.9747 245.701 76.1712 245.846C76.37 245.988 76.6032 246.059 76.8707 246.059C77.0601 246.059 77.2294 246.023 77.3786 245.952C77.5301 245.879 77.6567 245.774 77.7585 245.636C77.8603 245.499 77.9302 245.332 77.968 245.136H79.1967C79.166 245.522 79.0523 245.864 78.8558 246.162C78.6593 246.458 78.3918 246.69 78.0533 246.858C77.7147 247.024 77.317 247.107 76.8601 247.107ZM82.6671 247.107C82.1202 247.107 81.6479 246.993 81.2502 246.766C80.8548 246.536 80.5506 246.212 80.3375 245.793C80.1245 245.371 80.0179 244.875 80.0179 244.305C80.0179 243.744 80.1245 243.251 80.3375 242.827C80.553 242.401 80.8536 242.07 81.2395 241.833C81.6254 241.594 82.0788 241.474 82.5996 241.474C82.9358 241.474 83.253 241.529 83.5513 241.638C83.852 241.744 84.1171 241.91 84.3468 242.135C84.5788 242.36 84.7611 242.646 84.8936 242.994C85.0262 243.34 85.0925 243.752 85.0925 244.23V244.624H80.6216V243.758H83.8603C83.8579 243.512 83.8046 243.293 83.7005 243.101C83.5963 242.907 83.4507 242.754 83.2637 242.643C83.079 242.531 82.8636 242.476 82.6174 242.476C82.3546 242.476 82.1238 242.54 81.9249 242.668C81.726 242.793 81.571 242.959 81.4597 243.165C81.3508 243.368 81.2952 243.592 81.2928 243.836V244.592C81.2928 244.91 81.3508 245.182 81.4668 245.409C81.5828 245.634 81.745 245.807 81.9533 245.928C82.1616 246.046 82.4055 246.105 82.6848 246.105C82.8719 246.105 83.0411 246.079 83.1926 246.027C83.3442 245.973 83.4756 245.893 83.5868 245.789C83.6981 245.685 83.7821 245.556 83.839 245.402L85.0392 245.537C84.9635 245.854 84.8191 246.131 84.606 246.368C84.3953 246.602 84.1254 246.785 83.7963 246.915C83.4673 247.043 83.0908 247.107 82.6671 247.107ZM86.18 247V241.545H87.4265V242.455H87.4833C87.5827 242.14 87.7532 241.897 87.9947 241.727C88.2385 241.554 88.5167 241.467 88.8292 241.467C88.9002 241.467 88.9795 241.471 89.0671 241.478C89.1571 241.483 89.2317 241.491 89.2908 241.503V242.685C89.2364 242.666 89.15 242.65 89.0316 242.636C88.9156 242.619 88.8031 242.611 88.6942 242.611C88.4599 242.611 88.2492 242.662 88.0621 242.763C87.8775 242.863 87.7319 243.001 87.6254 243.179C87.5188 243.357 87.4656 243.561 87.4656 243.793V247H86.18ZM94.456 242.987L93.2841 243.115C93.2509 242.997 93.1929 242.885 93.1101 242.781C93.0296 242.677 92.9207 242.593 92.7834 242.529C92.6461 242.465 92.478 242.433 92.2791 242.433C92.0116 242.433 91.7867 242.491 91.6044 242.607C91.4245 242.723 91.3357 242.874 91.3381 243.058C91.3357 243.217 91.3937 243.346 91.5121 243.445C91.6328 243.545 91.8317 243.626 92.1087 243.69L93.0391 243.889C93.5552 244 93.9387 244.177 94.1896 244.418C94.4429 244.66 94.5708 244.976 94.5732 245.366C94.5708 245.71 94.4702 246.013 94.2713 246.276C94.0748 246.536 93.8014 246.74 93.451 246.886C93.1006 247.033 92.6982 247.107 92.2436 247.107C91.576 247.107 91.0386 246.967 90.6314 246.688C90.2242 246.406 89.9815 246.014 89.9034 245.512L91.157 245.391C91.2138 245.638 91.3345 245.823 91.5192 245.949C91.7038 246.074 91.9441 246.137 92.2401 246.137C92.5455 246.137 92.7905 246.074 92.9751 245.949C93.1622 245.823 93.2557 245.668 93.2557 245.484C93.2557 245.327 93.1953 245.198 93.0746 245.097C92.9562 244.995 92.7715 244.917 92.5206 244.862L91.5902 244.667C91.067 244.558 90.6799 244.375 90.429 244.116C90.178 243.856 90.0537 243.527 90.0561 243.129C90.0537 242.793 90.1449 242.502 90.3295 242.256C90.5166 242.007 90.7758 241.815 91.1072 241.68C91.4411 241.543 91.8258 241.474 92.2614 241.474C92.9006 241.474 93.4036 241.611 93.7706 241.883C94.1399 242.155 94.3684 242.523 94.456 242.987Z" fill="white"/>
<path d="M47.011 258.818V277H43.7173V262.023H43.6108L39.3583 264.74V261.721L43.8771 258.818H47.011ZM58.348 277.346C56.8861 277.346 55.6314 276.976 54.5838 276.237C53.5421 275.491 52.7402 274.417 52.1779 273.014C51.6216 271.605 51.3434 269.91 51.3434 267.927C51.3493 265.944 51.6304 264.257 52.1868 262.866C52.7491 261.47 53.551 260.404 54.5927 259.67C55.6403 258.937 56.892 258.57 58.348 258.57C59.804 258.57 61.0558 258.937 62.1033 259.67C63.1509 260.404 63.9529 261.47 64.5092 262.866C65.0715 264.263 65.3526 265.95 65.3526 267.927C65.3526 269.915 65.0715 271.614 64.5092 273.023C63.9529 274.425 63.1509 275.497 62.1033 276.237C61.0617 276.976 59.8099 277.346 58.348 277.346ZM58.348 274.567C59.4844 274.567 60.381 274.008 61.038 272.89C61.7009 271.765 62.0323 270.111 62.0323 267.927C62.0323 266.483 61.8814 265.269 61.5795 264.287C61.2777 263.304 60.8516 262.565 60.3011 262.067C59.7507 261.564 59.0997 261.313 58.348 261.313C57.2176 261.313 56.3239 261.875 55.6669 263C55.0099 264.118 54.6785 265.761 54.6726 267.927C54.6667 269.377 54.8117 270.596 55.1076 271.585C55.4094 272.573 55.8356 273.319 56.386 273.822C56.9364 274.319 57.5904 274.567 58.348 274.567ZM68.4798 277V258.818H71.7735V267.172H71.9955L79.0889 258.818H83.1105L76.0793 266.977L83.1727 277H79.2132L73.7888 269.205L71.7735 271.585V277H68.4798ZM88.9832 274.088V261.801H91.7709V274.088H88.9832ZM84.2336 269.338V266.551H96.5205V269.338H84.2336Z" fill="white"/>
<defs>
<filter id="filter0_d_2334_15337" x="67" y="0" width="185" height="92" filterUnits="userSpaceOnUse" color-interpolation-filters="sRGB">
<feFlood flood-opacity="0" result="BackgroundImageFix"/>
<feColorMatrix in="SourceAlpha" type="matrix" values="0 0 0 0 0 0 0 0 0 0 0 0 0 0 0 0 0 0 127 0" result="hardAlpha"/>
<feOffset dy="6"/>
<feGaussianBlur stdDeviation="11"/>
<feComposite in2="hardAlpha" operator="out"/>
<feColorMatrix type="matrix" values="0 0 0 0 0 0 0 0 0 0 0 0 0 0 0 0 0 0 0.12 0"/>
<feBlend mode="normal" in2="BackgroundImageFix" result="effect1_dropShadow_2334_15337"/>
<feBlend mode="normal" in="SourceGraphic" in2="effect1_dropShadow_2334_15337" result="shape"/>
</filter>
<filter id="filter1_d_2334_15337" x="97" y="366" width="185" height="92" filterUnits="userSpaceOnUse" color-interpolation-filters="sRGB">
<feFlood flood-opacity="0" result="BackgroundImageFix"/>
<feColorMatrix in="SourceAlpha" type="matrix" values="0 0 0 0 0 0 0 0 0 0 0 0 0 0 0 0 0 0 127 0" result="hardAlpha"/>
<feOffset dy="6"/>
<feGaussianBlur stdDeviation="11"/>
<feComposite in2="hardAlpha" operator="out"/>
<feColorMatrix type="matrix" values="0 0 0 0 0 0 0 0 0 0 0 0 0 0 0 0 0 0 0.12 0"/>
<feBlend mode="normal" in2="BackgroundImageFix" result="effect1_dropShadow_2334_15337"/>
<feBlend mode="normal" in="SourceGraphic" in2="effect1_dropShadow_2334_15337" result="shape"/>
</filter>
<filter id="filter2_d_2334_15337" x="0" y="161" width="201" height="166" filterUnits="userSpaceOnUse" color-interpolation-filters="sRGB">
<feFlood flood-opacity="0" result="BackgroundImageFix"/>
<feColorMatrix in="SourceAlpha" type="matrix" values="0 0 0 0 0 0 0 0 0 0 0 0 0 0 0 0 0 0 127 0" result="hardAlpha"/>
<feOffset dy="6"/>
<feGaussianBlur stdDeviation="11"/>
<feComposite in2="hardAlpha" operator="out"/>
<feColorMatrix type="matrix" values="0 0 0 0 0 0 0 0 0 0 0 0 0 0 0 0 0 0 0.12 0"/>
<feBlend mode="normal" in2="BackgroundImageFix" result="effect1_dropShadow_2334_15337"/>
<feBlend mode="normal" in="SourceGraphic" in2="effect1_dropShadow_2334_15337" result="shape"/>
</filter>
</defs>
</svg>
