<svg width="277" height="432" viewBox="0 0 277 432" fill="none" xmlns="http://www.w3.org/2000/svg">
<g filter="url(#filter0_d_2_210549)">
<rect x="22" y="221" width="166" height="48" rx="12" fill="#30354B"/>
</g>
<path d="M47.0252 243.735H45.2987C45.2494 243.452 45.1586 243.201 45.0263 242.983C44.8939 242.761 44.7293 242.574 44.5323 242.42C44.3353 242.266 44.1107 242.15 43.8583 242.074C43.609 241.993 43.3397 241.953 43.0504 241.953C42.5365 241.953 42.081 242.083 41.6839 242.341C41.2869 242.597 40.9761 242.972 40.7514 243.468C40.5268 243.96 40.4144 244.562 40.4144 245.273C40.4144 245.996 40.5268 246.605 40.7514 247.101C40.9792 247.593 41.29 247.966 41.6839 248.218C42.081 248.467 42.5349 248.592 43.0458 248.592C43.329 248.592 43.5936 248.555 43.8398 248.481C44.0891 248.404 44.3123 248.292 44.5092 248.144C44.7093 247.996 44.877 247.815 45.0124 247.599C45.1509 247.384 45.2463 247.138 45.2987 246.861L47.0252 246.87C46.9606 247.319 46.8205 247.741 46.6051 248.135C46.3928 248.529 46.1142 248.877 45.7695 249.178C45.4248 249.477 45.0217 249.711 44.56 249.88C44.0984 250.046 43.5859 250.129 43.0227 250.129C42.1918 250.129 41.45 249.937 40.7976 249.552C40.1451 249.167 39.6312 248.612 39.2557 247.886C38.8802 247.159 38.6925 246.288 38.6925 245.273C38.6925 244.254 38.8817 243.383 39.2603 242.66C39.6388 241.933 40.1544 241.378 40.8068 240.993C41.4593 240.609 42.1979 240.416 43.0227 240.416C43.549 240.416 44.0384 240.49 44.4908 240.638C44.9432 240.786 45.3464 241.002 45.7003 241.289C46.0542 241.572 46.3451 241.92 46.5728 242.332C46.8036 242.741 46.9544 243.209 47.0252 243.735ZM51.6128 250.138C50.9204 250.138 50.3202 249.986 49.8124 249.681C49.3046 249.377 48.9107 248.951 48.6306 248.403C48.3536 247.855 48.2151 247.215 48.2151 246.482C48.2151 245.75 48.3536 245.108 48.6306 244.557C48.9107 244.006 49.3046 243.578 49.8124 243.274C50.3202 242.969 50.9204 242.817 51.6128 242.817C52.3053 242.817 52.9055 242.969 53.4133 243.274C53.9211 243.578 54.3135 244.006 54.5905 244.557C54.8705 245.108 55.0106 245.75 55.0106 246.482C55.0106 247.215 54.8705 247.855 54.5905 248.403C54.3135 248.951 53.9211 249.377 53.4133 249.681C52.9055 249.986 52.3053 250.138 51.6128 250.138ZM51.6221 248.8C51.9975 248.8 52.3115 248.697 52.5638 248.49C52.8162 248.281 53.0039 248.001 53.127 247.65C53.2532 247.299 53.3163 246.908 53.3163 246.478C53.3163 246.044 53.2532 245.651 53.127 245.3C53.0039 244.946 52.8162 244.665 52.5638 244.456C52.3115 244.246 51.9975 244.142 51.6221 244.142C51.2374 244.142 50.9173 244.246 50.6618 244.456C50.4095 244.665 50.2202 244.946 50.094 245.3C49.9709 245.651 49.9094 246.044 49.9094 246.478C49.9094 246.908 49.9709 247.299 50.094 247.65C50.2202 248.001 50.4095 248.281 50.6618 248.49C50.9173 248.697 51.2374 248.8 51.6221 248.8ZM58.1001 245.845V250H56.429V242.909H58.0263V244.114H58.1094C58.2725 243.717 58.5326 243.402 58.8896 243.168C59.2496 242.934 59.6944 242.817 60.2237 242.817C60.7131 242.817 61.1393 242.921 61.5025 243.131C61.8687 243.34 62.1519 243.643 62.3519 244.04C62.555 244.437 62.6551 244.919 62.652 245.485V250H60.9808V245.744C60.9808 245.27 60.8577 244.899 60.6115 244.631C60.3684 244.363 60.0314 244.229 59.6005 244.229C59.3081 244.229 59.0481 244.294 58.8203 244.423C58.5956 244.549 58.4187 244.733 58.2894 244.973C58.1632 245.213 58.1001 245.504 58.1001 245.845ZM67.8917 242.909V244.202H63.8153V242.909H67.8917ZM64.8217 241.21H66.4929V247.867C66.4929 248.092 66.5268 248.264 66.5945 248.384C66.6652 248.501 66.7576 248.581 66.8714 248.624C66.9853 248.667 67.1115 248.689 67.25 248.689C67.3546 248.689 67.45 248.681 67.5362 248.666C67.6255 248.65 67.6932 248.637 67.7393 248.624L68.021 249.931C67.9317 249.962 67.804 249.995 67.6378 250.032C67.4747 250.069 67.2746 250.091 67.0376 250.097C66.6191 250.109 66.2421 250.046 65.9066 249.908C65.5711 249.766 65.3049 249.548 65.108 249.252C64.9141 248.957 64.8187 248.587 64.8217 248.144V241.21ZM72.3524 250.138C71.6414 250.138 71.0274 249.991 70.5104 249.695C69.9964 249.397 69.6009 248.975 69.324 248.43C69.047 247.883 68.9085 247.238 68.9085 246.496C68.9085 245.767 69.047 245.127 69.324 244.576C69.604 244.022 69.9949 243.591 70.4965 243.283C70.9982 242.972 71.5876 242.817 72.2646 242.817C72.7017 242.817 73.1141 242.888 73.5019 243.029C73.8927 243.168 74.2374 243.383 74.536 243.675C74.8376 243.968 75.0745 244.34 75.2469 244.793C75.4192 245.242 75.5054 245.777 75.5054 246.399V246.912H69.6933V245.785H73.9035C73.9004 245.465 73.8312 245.18 73.6958 244.931C73.5603 244.679 73.3711 244.48 73.1279 244.336C72.8879 244.191 72.6078 244.119 72.2877 244.119C71.9461 244.119 71.646 244.202 71.3875 244.368C71.129 244.531 70.9274 244.746 70.7828 245.014C70.6412 245.279 70.5689 245.57 70.5658 245.887V246.87C70.5658 247.282 70.6412 247.636 70.792 247.932C70.9428 248.224 71.1536 248.449 71.4244 248.606C71.6953 248.76 72.0123 248.837 72.3754 248.837C72.6186 248.837 72.8386 248.803 73.0356 248.735C73.2326 248.664 73.4034 248.561 73.548 248.426C73.6927 248.29 73.8019 248.123 73.8758 247.923L75.4362 248.098C75.3377 248.51 75.1499 248.871 74.873 249.178C74.599 249.483 74.2482 249.72 73.8204 249.889C73.3926 250.055 72.9033 250.138 72.3524 250.138ZM82.5236 244.783L81.0002 244.95C80.9571 244.796 80.8817 244.651 80.774 244.516C80.6693 244.38 80.5278 244.271 80.3493 244.188C80.1708 244.105 79.9522 244.063 79.6937 244.063C79.3459 244.063 79.0536 244.139 78.8166 244.289C78.5827 244.44 78.4673 244.636 78.4703 244.876C78.4673 245.082 78.5427 245.25 78.6966 245.379C78.8535 245.508 79.112 245.614 79.4721 245.697L80.6816 245.956C81.3526 246.101 81.8511 246.33 82.1774 246.644C82.5067 246.958 82.6729 247.369 82.676 247.876C82.6729 248.323 82.5421 248.717 82.2836 249.058C82.0281 249.397 81.6726 249.661 81.2172 249.852C80.7617 250.043 80.2385 250.138 79.6475 250.138C78.7797 250.138 78.081 249.957 77.5517 249.594C77.0223 249.228 76.7069 248.718 76.6053 248.066L78.2349 247.909C78.3088 248.229 78.4657 248.47 78.7058 248.634C78.9458 248.797 79.2582 248.878 79.6429 248.878C80.04 248.878 80.3585 248.797 80.5985 248.634C80.8417 248.47 80.9632 248.269 80.9632 248.029C80.9632 247.826 80.8848 247.658 80.7278 247.526C80.5739 247.393 80.3339 247.292 80.0076 247.221L78.7981 246.967C78.118 246.825 77.6148 246.587 77.2885 246.251C76.9623 245.913 76.8007 245.485 76.8038 244.968C76.8007 244.531 76.9192 244.152 77.1593 243.832C77.4024 243.509 77.7394 243.26 78.1703 243.085C78.6042 242.906 79.1043 242.817 79.6706 242.817C80.5016 242.817 81.1556 242.994 81.6326 243.348C82.1127 243.702 82.4097 244.18 82.5236 244.783ZM87.5948 242.909V244.202H83.5185V242.909H87.5948ZM84.5249 241.21H86.196V247.867C86.196 248.092 86.2299 248.264 86.2976 248.384C86.3684 248.501 86.4607 248.581 86.5746 248.624C86.6884 248.667 86.8146 248.689 86.9531 248.689C87.0578 248.689 87.1532 248.681 87.2393 248.666C87.3286 248.65 87.3963 248.637 87.4425 248.624L87.7241 249.931C87.6348 249.962 87.5071 249.995 87.3409 250.032C87.1778 250.069 86.9777 250.091 86.7408 250.097C86.3222 250.109 85.9452 250.046 85.6097 249.908C85.2743 249.766 85.008 249.548 84.8111 249.252C84.6172 248.957 84.5218 248.587 84.5249 248.144V241.21ZM94.4953 244.783L92.9719 244.95C92.9288 244.796 92.8534 244.651 92.7456 244.516C92.641 244.38 92.4994 244.271 92.3209 244.188C92.1424 244.105 91.9239 244.063 91.6654 244.063C91.3176 244.063 91.0252 244.139 90.7883 244.289C90.5544 244.44 90.439 244.636 90.442 244.876C90.439 245.082 90.5144 245.25 90.6682 245.379C90.8252 245.508 91.0837 245.614 91.4438 245.697L92.6533 245.956C93.3242 246.101 93.8228 246.33 94.1491 246.644C94.4784 246.958 94.6446 247.369 94.6476 247.876C94.6446 248.323 94.5138 248.717 94.2552 249.058C93.9998 249.397 93.6443 249.661 93.1888 249.852C92.7333 250.043 92.2101 250.138 91.6192 250.138C90.7513 250.138 90.0527 249.957 89.5233 249.594C88.994 249.228 88.6785 248.718 88.577 248.066L90.2066 247.909C90.2805 248.229 90.4374 248.47 90.6775 248.634C90.9175 248.797 91.2299 248.878 91.6146 248.878C92.0116 248.878 92.3302 248.797 92.5702 248.634C92.8134 248.47 92.9349 248.269 92.9349 248.029C92.9349 247.826 92.8564 247.658 92.6995 247.526C92.5456 247.393 92.3055 247.292 91.9793 247.221L90.7698 246.967C90.0896 246.825 89.5864 246.587 89.2602 246.251C88.934 245.913 88.7724 245.485 88.7755 244.968C88.7724 244.531 88.8909 244.152 89.1309 243.832C89.3741 243.509 89.7111 243.26 90.142 243.085C90.5759 242.906 91.076 242.817 91.6423 242.817C92.4733 242.817 93.1273 242.994 93.6043 243.348C94.0844 243.702 94.3814 244.18 94.4953 244.783ZM102.076 250.138C101.429 250.138 100.874 250.022 100.409 249.788C99.9443 249.554 99.5857 249.238 99.3334 248.841C99.0841 248.441 98.9594 247.99 98.9594 247.489C98.9594 247.11 99.0364 246.775 99.1903 246.482C99.3472 246.19 99.5626 245.919 99.8366 245.67C100.114 245.42 100.434 245.173 100.797 244.926L102.473 243.786C102.719 243.626 102.905 243.457 103.031 243.278C103.16 243.1 103.225 242.891 103.225 242.651C103.225 242.447 103.139 242.255 102.967 242.074C102.797 241.892 102.563 241.801 102.265 241.801C102.065 241.801 101.888 241.849 101.734 241.944C101.583 242.037 101.465 242.158 101.378 242.309C101.295 242.46 101.254 242.62 101.254 242.789C101.254 242.995 101.311 243.205 101.425 243.417C101.542 243.629 101.692 243.849 101.877 244.077C102.065 244.305 102.265 244.546 102.477 244.802L106.914 250H105.104L101.42 245.781C101.146 245.46 100.881 245.145 100.626 244.834C100.374 244.523 100.166 244.2 100.003 243.865C99.8427 243.526 99.7627 243.16 99.7627 242.766C99.7627 242.32 99.8658 241.921 100.072 241.57C100.278 241.216 100.566 240.938 100.935 240.735C101.308 240.532 101.743 240.43 102.242 240.43C102.74 240.43 103.168 240.529 103.525 240.725C103.882 240.922 104.158 241.184 104.351 241.51C104.545 241.837 104.642 242.192 104.642 242.577C104.642 243.023 104.532 243.423 104.31 243.777C104.088 244.128 103.781 244.446 103.387 244.733L101.475 246.131C101.161 246.359 100.937 246.59 100.801 246.824C100.666 247.055 100.598 247.252 100.598 247.415C100.598 247.664 100.661 247.89 100.788 248.093C100.914 248.297 101.091 248.46 101.318 248.583C101.549 248.703 101.819 248.763 102.126 248.763C102.465 248.763 102.799 248.687 103.128 248.537C103.457 248.383 103.757 248.164 104.028 247.881C104.299 247.598 104.515 247.259 104.675 246.865C104.835 246.468 104.915 246.028 104.915 245.545H106.35C106.35 246.142 106.284 246.662 106.152 247.105C106.02 247.546 105.849 247.918 105.639 248.223C105.43 248.524 105.209 248.766 104.975 248.947C104.901 249 104.83 249.052 104.762 249.104C104.695 249.157 104.624 249.209 104.55 249.261C104.218 249.563 103.828 249.785 103.382 249.926C102.939 250.068 102.503 250.138 102.076 250.138ZM114.234 250.138C113.523 250.138 112.909 249.991 112.392 249.695C111.878 249.397 111.483 248.975 111.206 248.43C110.929 247.883 110.79 247.238 110.79 246.496C110.79 245.767 110.929 245.127 111.206 244.576C111.486 244.022 111.877 243.591 112.378 243.283C112.88 242.972 113.469 242.817 114.146 242.817C114.584 242.817 114.996 242.888 115.384 243.029C115.775 243.168 116.119 243.383 116.418 243.675C116.719 243.968 116.956 244.34 117.129 244.793C117.301 245.242 117.387 245.777 117.387 246.399V246.912H111.575V245.785H115.785C115.782 245.465 115.713 245.18 115.578 244.931C115.442 244.679 115.253 244.48 115.01 244.336C114.77 244.191 114.49 244.119 114.17 244.119C113.828 244.119 113.528 244.202 113.269 244.368C113.011 244.531 112.809 244.746 112.665 245.014C112.523 245.279 112.451 245.57 112.448 245.887V246.87C112.448 247.282 112.523 247.636 112.674 247.932C112.825 248.224 113.035 248.449 113.306 248.606C113.577 248.76 113.894 248.837 114.257 248.837C114.5 248.837 114.72 248.803 114.917 248.735C115.114 248.664 115.285 248.561 115.43 248.426C115.575 248.29 115.684 248.123 115.758 247.923L117.318 248.098C117.22 248.51 117.032 248.871 116.755 249.178C116.481 249.483 116.13 249.72 115.702 249.889C115.274 250.055 114.785 250.138 114.234 250.138ZM124.932 242.909L122.407 250H120.56L118.035 242.909H119.817L121.446 248.176H121.52L123.154 242.909H124.932ZM128.986 250.138C128.275 250.138 127.661 249.991 127.144 249.695C126.63 249.397 126.235 248.975 125.958 248.43C125.681 247.883 125.542 247.238 125.542 246.496C125.542 245.767 125.681 245.127 125.958 244.576C126.238 244.022 126.629 243.591 127.13 243.283C127.632 242.972 128.221 242.817 128.898 242.817C129.335 242.817 129.748 242.888 130.136 243.029C130.527 243.168 130.871 243.383 131.17 243.675C131.471 243.968 131.708 244.34 131.881 244.793C132.053 245.242 132.139 245.777 132.139 246.399V246.912H126.327V245.785H130.537C130.534 245.465 130.465 245.18 130.33 244.931C130.194 244.679 130.005 244.48 129.762 244.336C129.522 244.191 129.242 244.119 128.922 244.119C128.58 244.119 128.28 244.202 128.021 244.368C127.763 244.531 127.561 244.746 127.417 245.014C127.275 245.279 127.203 245.57 127.2 245.887V246.87C127.2 247.282 127.275 247.636 127.426 247.932C127.577 248.224 127.787 248.449 128.058 248.606C128.329 248.76 128.646 248.837 129.009 248.837C129.252 248.837 129.472 248.803 129.669 248.735C129.866 248.664 130.037 248.561 130.182 248.426C130.326 248.29 130.436 248.123 130.51 247.923L132.07 248.098C131.971 248.51 131.784 248.871 131.507 249.178C131.233 249.483 130.882 249.72 130.454 249.889C130.026 250.055 129.537 250.138 128.986 250.138ZM135.224 245.845V250H133.553V242.909H135.15V244.114H135.233C135.397 243.717 135.657 243.402 136.014 243.168C136.374 242.934 136.818 242.817 137.348 242.817C137.837 242.817 138.263 242.921 138.627 243.131C138.993 243.34 139.276 243.643 139.476 244.04C139.679 244.437 139.779 244.919 139.776 245.485V250H138.105V245.744C138.105 245.27 137.982 244.899 137.736 244.631C137.492 244.363 137.155 244.229 136.725 244.229C136.432 244.229 136.172 244.294 135.944 244.423C135.72 244.549 135.543 244.733 135.413 244.973C135.287 245.213 135.224 245.504 135.224 245.845ZM145.016 242.909V244.202H140.939V242.909H145.016ZM141.946 241.21H143.617V247.867C143.617 248.092 143.651 248.264 143.718 248.384C143.789 248.501 143.882 248.581 143.995 248.624C144.109 248.667 144.236 248.689 144.374 248.689C144.479 248.689 144.574 248.681 144.66 248.666C144.749 248.65 144.817 248.637 144.863 248.624L145.145 249.931C145.056 249.962 144.928 249.995 144.762 250.032C144.599 250.069 144.399 250.091 144.162 250.097C143.743 250.109 143.366 250.046 143.031 249.908C142.695 249.766 142.429 249.548 142.232 249.252C142.038 248.957 141.943 248.587 141.946 248.144V241.21ZM151.916 244.783L150.393 244.95C150.35 244.796 150.274 244.651 150.167 244.516C150.062 244.38 149.92 244.271 149.742 244.188C149.563 244.105 149.345 244.063 149.086 244.063C148.739 244.063 148.446 244.139 148.209 244.289C147.975 244.44 147.86 244.636 147.863 244.876C147.86 245.082 147.935 245.25 148.089 245.379C148.246 245.508 148.505 245.614 148.865 245.697L150.074 245.956C150.745 246.101 151.244 246.33 151.57 246.644C151.899 246.958 152.065 247.369 152.069 247.876C152.065 248.323 151.935 248.717 151.676 249.058C151.421 249.397 151.065 249.661 150.61 249.852C150.154 250.043 149.631 250.138 149.04 250.138C148.172 250.138 147.474 249.957 146.944 249.594C146.415 249.228 146.099 248.718 145.998 248.066L147.627 247.909C147.701 248.229 147.858 248.47 148.098 248.634C148.338 248.797 148.651 248.878 149.036 248.878C149.433 248.878 149.751 248.797 149.991 248.634C150.234 248.47 150.356 248.269 150.356 248.029C150.356 247.826 150.277 247.658 150.12 247.526C149.967 247.393 149.726 247.292 149.4 247.221L148.191 246.967C147.511 246.825 147.007 246.587 146.681 246.251C146.355 245.913 146.193 245.485 146.196 244.968C146.193 244.531 146.312 244.152 146.552 243.832C146.795 243.509 147.132 243.26 147.563 243.085C147.997 242.906 148.497 242.817 149.063 242.817C149.894 242.817 150.548 242.994 151.025 243.348C151.505 243.702 151.802 244.18 151.916 244.783Z" fill="white"/>
<circle cx="159" cy="216" r="16" fill="#FFD600"/>
<path d="M159.255 210.709V209.247C159.254 209.183 159.227 209.122 159.182 209.077C159.136 209.033 159.074 209.008 159.011 209.008C158.947 209.008 158.885 209.033 158.839 209.077C158.794 209.122 158.767 209.183 158.766 209.247V210.709C158.765 210.742 158.771 210.774 158.783 210.805C158.795 210.835 158.812 210.863 158.835 210.886C158.858 210.91 158.885 210.928 158.915 210.941C158.946 210.953 158.978 210.96 159.011 210.96C159.043 210.96 159.076 210.953 159.106 210.941C159.136 210.928 159.163 210.91 159.186 210.886C159.209 210.863 159.227 210.835 159.238 210.805C159.25 210.774 159.256 210.742 159.255 210.709Z" fill="#161D3B"/>
<path d="M156.927 210.707V209.245C156.927 209.18 156.901 209.118 156.855 209.072C156.809 209.026 156.747 209 156.682 209C156.65 209 156.618 209.006 156.588 209.018C156.558 209.03 156.531 209.048 156.508 209.071C156.486 209.094 156.468 209.121 156.455 209.151C156.443 209.181 156.437 209.213 156.438 209.245V210.707C156.437 210.739 156.443 210.771 156.455 210.801C156.468 210.831 156.486 210.858 156.508 210.881C156.531 210.904 156.558 210.922 156.588 210.934C156.618 210.946 156.65 210.952 156.682 210.952C156.747 210.952 156.809 210.926 156.855 210.88C156.901 210.834 156.927 210.772 156.927 210.707Z" fill="#161D3B"/>
<path d="M163.911 210.707V209.245C163.912 209.213 163.906 209.181 163.893 209.151C163.881 209.121 163.863 209.094 163.84 209.071C163.818 209.048 163.79 209.03 163.761 209.018C163.731 209.006 163.699 209 163.666 209C163.602 209 163.539 209.026 163.494 209.072C163.448 209.118 163.422 209.18 163.422 209.245V210.707C163.422 210.772 163.448 210.834 163.494 210.88C163.539 210.926 163.602 210.952 163.666 210.952C163.699 210.952 163.731 210.946 163.761 210.934C163.79 210.922 163.818 210.904 163.84 210.881C163.863 210.858 163.881 210.831 163.893 210.801C163.906 210.771 163.912 210.739 163.911 210.707Z" fill="#161D3B"/>
<path d="M161.583 210.709V209.247C161.582 209.183 161.555 209.122 161.51 209.077C161.464 209.033 161.403 209.008 161.339 209.008C161.275 209.008 161.213 209.033 161.168 209.077C161.122 209.122 161.095 209.183 161.094 209.247V210.709C161.093 210.742 161.099 210.774 161.111 210.805C161.123 210.835 161.141 210.863 161.163 210.886C161.186 210.91 161.213 210.928 161.244 210.941C161.274 210.953 161.306 210.96 161.339 210.96C161.371 210.96 161.404 210.953 161.434 210.941C161.464 210.928 161.491 210.91 161.514 210.886C161.537 210.863 161.555 210.835 161.567 210.805C161.579 210.774 161.584 210.742 161.583 210.709Z" fill="#161D3B"/>
<path d="M154.614 210.707V209.245C154.614 209.18 154.589 209.118 154.543 209.072C154.497 209.026 154.435 209 154.37 209C154.305 209 154.243 209.026 154.197 209.072C154.151 209.118 154.125 209.18 154.125 209.245V210.707C154.125 210.772 154.151 210.834 154.197 210.88C154.243 210.926 154.305 210.952 154.37 210.952C154.435 210.952 154.497 210.926 154.543 210.88C154.589 210.834 154.614 210.772 154.614 210.707Z" fill="#161D3B"/>
<path d="M153.116 213.73H156.288C156.327 213.73 156.365 213.746 156.393 213.774C156.421 213.802 156.437 213.84 156.437 213.88C156.437 213.919 156.421 213.957 156.393 213.985C156.365 214.013 156.327 214.029 156.288 214.029H153.116C153.076 214.029 153.038 214.013 153.01 213.985C152.982 213.957 152.967 213.919 152.967 213.88C152.967 213.84 152.982 213.802 153.01 213.774C153.038 213.746 153.076 213.73 153.116 213.73ZM155.145 215.03H153.116C153.076 215.03 153.038 215.014 153.01 214.986C152.982 214.958 152.967 214.92 152.967 214.88C152.967 214.841 152.982 214.803 153.01 214.775C153.038 214.747 153.076 214.731 153.116 214.731H155.145C155.185 214.731 155.223 214.747 155.251 214.775C155.279 214.803 155.294 214.841 155.294 214.88C155.294 214.92 155.279 214.958 155.251 214.986C155.223 215.014 155.185 215.03 155.145 215.03ZM152 212.938V222.249C152 222.448 152.079 222.639 152.22 222.78C152.361 222.921 152.552 223 152.751 223H165.274C165.473 223 165.664 222.921 165.804 222.78C165.945 222.639 166.024 222.448 166.024 222.249V212.938H152ZM160.775 220.638L159.082 219.748C159.061 219.738 159.038 219.732 159.014 219.732C158.989 219.732 158.965 219.738 158.944 219.748L157.254 220.638L157.577 218.756C157.581 218.732 157.579 218.707 157.571 218.684C157.564 218.661 157.551 218.64 157.533 218.623L156.165 217.289L158.056 217.015C158.08 217.011 158.102 217.002 158.122 216.988C158.142 216.973 158.157 216.954 158.168 216.932L159.014 215.219L159.86 216.932C159.87 216.954 159.886 216.973 159.905 216.988C159.925 217.002 159.948 217.011 159.972 217.015L161.862 217.289L160.494 218.623C160.477 218.64 160.464 218.661 160.456 218.684C160.449 218.707 160.447 218.732 160.451 218.756L160.775 220.638Z" fill="#161D3B"/>
<path d="M166.024 210.883C166.025 210.785 166.006 210.687 165.968 210.596C165.931 210.505 165.876 210.422 165.806 210.353C165.737 210.283 165.654 210.228 165.563 210.19C165.473 210.152 165.375 210.133 165.277 210.133H164.204V210.715C164.204 210.859 164.147 210.997 164.045 211.099C163.943 211.201 163.805 211.258 163.661 211.258C163.517 211.258 163.378 211.201 163.277 211.099C163.175 210.997 163.117 210.859 163.117 210.715V210.133H161.88V210.715C161.882 210.787 161.868 210.859 161.842 210.925C161.815 210.992 161.775 211.053 161.724 211.105C161.674 211.156 161.614 211.197 161.547 211.225C161.481 211.253 161.409 211.267 161.337 211.267C161.265 211.267 161.194 211.253 161.127 211.225C161.061 211.197 161 211.156 160.95 211.105C160.899 211.053 160.859 210.992 160.833 210.925C160.806 210.859 160.793 210.787 160.794 210.715V210.133H159.555V210.715C159.556 210.787 159.543 210.859 159.516 210.925C159.49 210.992 159.45 211.053 159.399 211.105C159.349 211.156 159.288 211.197 159.222 211.225C159.155 211.253 159.084 211.267 159.012 211.267C158.94 211.267 158.868 211.253 158.802 211.225C158.735 211.197 158.675 211.156 158.625 211.105C158.574 211.053 158.534 210.992 158.507 210.925C158.481 210.859 158.468 210.787 158.469 210.715V210.133H157.232V210.715C157.232 210.859 157.175 210.997 157.073 211.099C156.971 211.201 156.833 211.258 156.689 211.258C156.545 211.258 156.407 211.201 156.305 211.099C156.203 210.997 156.146 210.859 156.146 210.715V210.133H154.907V210.715C154.907 210.859 154.85 210.997 154.748 211.099C154.646 211.201 154.508 211.258 154.364 211.258C154.22 211.258 154.082 211.201 153.98 211.099C153.878 210.997 153.821 210.859 153.821 210.715V210.133H152.751C152.552 210.133 152.361 210.212 152.22 210.353C152.079 210.494 152 210.684 152 210.883V212.647H166.024V210.883Z" fill="#161D3B"/>
<g filter="url(#filter1_d_2_210549)">
<rect x="83" y="356" width="166" height="48" rx="12" fill="#30354B"/>
</g>
<path d="M99.9325 385V375.545H106.082V376.981H101.645V379.548H105.763V380.984H101.645V383.564H106.119V385H99.9325ZM109.122 377.909L110.553 380.527L112.007 377.909H113.775L111.638 381.455L113.812 385H112.053L110.553 382.447L109.066 385H107.294L109.454 381.455L107.349 377.909H109.122ZM115.068 387.659V377.909H116.711V379.082H116.808C116.894 378.909 117.016 378.726 117.173 378.532C117.33 378.335 117.542 378.168 117.81 378.029C118.078 377.888 118.419 377.817 118.835 377.817C119.383 377.817 119.876 377.957 120.317 378.237C120.76 378.514 121.111 378.925 121.369 379.469C121.631 380.011 121.762 380.676 121.762 381.464C121.762 382.242 121.634 382.904 121.378 383.449C121.123 383.994 120.775 384.409 120.335 384.695C119.895 384.982 119.396 385.125 118.839 385.125C118.433 385.125 118.096 385.057 117.828 384.922C117.561 384.786 117.345 384.623 117.182 384.432C117.022 384.238 116.897 384.055 116.808 383.883H116.739V387.659H115.068ZM116.706 381.455C116.706 381.913 116.771 382.315 116.9 382.659C117.033 383.004 117.222 383.273 117.468 383.467C117.718 383.658 118.019 383.754 118.373 383.754C118.742 383.754 119.052 383.655 119.301 383.458C119.55 383.258 119.738 382.986 119.864 382.641C119.993 382.293 120.058 381.898 120.058 381.455C120.058 381.014 119.995 380.624 119.869 380.282C119.743 379.94 119.555 379.673 119.306 379.479C119.056 379.285 118.745 379.188 118.373 379.188C118.016 379.188 117.713 379.282 117.464 379.469C117.214 379.657 117.025 379.92 116.896 380.259C116.77 380.597 116.706 380.996 116.706 381.455ZM124.864 375.545V385H123.193V375.545H124.864ZM129.675 385.138C128.983 385.138 128.383 384.986 127.875 384.681C127.367 384.377 126.973 383.951 126.693 383.403C126.416 382.855 126.278 382.215 126.278 381.482C126.278 380.75 126.416 380.108 126.693 379.557C126.973 379.006 127.367 378.578 127.875 378.274C128.383 377.969 128.983 377.817 129.675 377.817C130.368 377.817 130.968 377.969 131.476 378.274C131.984 378.578 132.376 379.006 132.653 379.557C132.933 380.108 133.073 380.75 133.073 381.482C133.073 382.215 132.933 382.855 132.653 383.403C132.376 383.951 131.984 384.377 131.476 384.681C130.968 384.986 130.368 385.138 129.675 385.138ZM129.685 383.8C130.06 383.8 130.374 383.697 130.626 383.49C130.879 383.281 131.066 383.001 131.19 382.65C131.316 382.299 131.379 381.908 131.379 381.478C131.379 381.044 131.316 380.651 131.19 380.3C131.066 379.946 130.879 379.665 130.626 379.456C130.374 379.246 130.06 379.142 129.685 379.142C129.3 379.142 128.98 379.246 128.724 379.456C128.472 379.665 128.283 379.946 128.157 380.3C128.033 380.651 127.972 381.044 127.972 381.478C127.972 381.908 128.033 382.299 128.157 382.65C128.283 383.001 128.472 383.281 128.724 383.49C128.98 383.697 129.3 383.8 129.685 383.8ZM134.491 385V377.909H136.112V379.091H136.186C136.315 378.682 136.537 378.366 136.85 378.145C137.167 377.92 137.529 377.808 137.935 377.808C138.028 377.808 138.131 377.812 138.245 377.821C138.362 377.828 138.459 377.838 138.536 377.854V379.391C138.465 379.366 138.352 379.345 138.199 379.326C138.048 379.305 137.902 379.294 137.76 379.294C137.455 379.294 137.181 379.36 136.938 379.493C136.698 379.622 136.509 379.802 136.37 380.033C136.232 380.263 136.163 380.53 136.163 380.831V385H134.491ZM142.493 385.138C141.782 385.138 141.168 384.991 140.651 384.695C140.137 384.397 139.742 383.975 139.465 383.43C139.188 382.883 139.049 382.238 139.049 381.496C139.049 380.767 139.188 380.127 139.465 379.576C139.745 379.022 140.136 378.591 140.637 378.283C141.139 377.972 141.728 377.817 142.405 377.817C142.842 377.817 143.255 377.888 143.642 378.029C144.033 378.168 144.378 378.383 144.677 378.675C144.978 378.968 145.215 379.34 145.388 379.793C145.56 380.242 145.646 380.777 145.646 381.399V381.912H139.834V380.785H144.044C144.041 380.465 143.972 380.18 143.836 379.931C143.701 379.679 143.512 379.48 143.269 379.336C143.028 379.191 142.748 379.119 142.428 379.119C142.087 379.119 141.787 379.202 141.528 379.368C141.27 379.531 141.068 379.746 140.923 380.014C140.782 380.279 140.709 380.57 140.706 380.887V381.87C140.706 382.282 140.782 382.636 140.933 382.932C141.083 383.224 141.294 383.449 141.565 383.606C141.836 383.76 142.153 383.837 142.516 383.837C142.759 383.837 142.979 383.803 143.176 383.735C143.373 383.664 143.544 383.561 143.689 383.426C143.833 383.29 143.943 383.123 144.016 382.923L145.577 383.098C145.478 383.51 145.291 383.871 145.014 384.178C144.74 384.483 144.389 384.72 143.961 384.889C143.533 385.055 143.044 385.138 142.493 385.138ZM150.284 387.659V377.909H151.928V379.082H152.025C152.111 378.909 152.233 378.726 152.39 378.532C152.547 378.335 152.759 378.168 153.027 378.029C153.294 377.888 153.636 377.817 154.051 377.817C154.599 377.817 155.093 377.957 155.533 378.237C155.977 378.514 156.327 378.925 156.586 379.469C156.848 380.011 156.978 380.676 156.978 381.464C156.978 382.242 156.851 382.904 156.595 383.449C156.34 383.994 155.992 384.409 155.552 384.695C155.112 384.982 154.613 385.125 154.056 385.125C153.65 385.125 153.313 385.057 153.045 384.922C152.777 384.786 152.562 384.623 152.399 384.432C152.239 384.238 152.114 384.055 152.025 383.883H151.956V387.659H150.284ZM151.923 381.455C151.923 381.913 151.988 382.315 152.117 382.659C152.25 383.004 152.439 383.273 152.685 383.467C152.934 383.658 153.236 383.754 153.59 383.754C153.959 383.754 154.268 383.655 154.518 383.458C154.767 383.258 154.955 382.986 155.081 382.641C155.21 382.293 155.275 381.898 155.275 381.455C155.275 381.014 155.212 380.624 155.086 380.282C154.959 379.94 154.772 379.673 154.522 379.479C154.273 379.285 153.962 379.188 153.59 379.188C153.233 379.188 152.93 379.282 152.68 379.469C152.431 379.657 152.242 379.92 152.113 380.259C151.986 380.597 151.923 380.996 151.923 381.455ZM158.409 385V377.909H160.03V379.091H160.104C160.233 378.682 160.455 378.366 160.768 378.145C161.085 377.92 161.447 377.808 161.853 377.808C161.946 377.808 162.049 377.812 162.163 377.821C162.28 377.828 162.377 377.838 162.453 377.854V379.391C162.383 379.366 162.27 379.345 162.116 379.326C161.966 379.305 161.819 379.294 161.678 379.294C161.373 379.294 161.099 379.36 160.856 379.493C160.616 379.622 160.427 379.802 160.288 380.033C160.15 380.263 160.081 380.53 160.081 380.831V385H158.409ZM166.365 385.138C165.672 385.138 165.072 384.986 164.564 384.681C164.057 384.377 163.663 383.951 163.383 383.403C163.106 382.855 162.967 382.215 162.967 381.482C162.967 380.75 163.106 380.108 163.383 379.557C163.663 379.006 164.057 378.578 164.564 378.274C165.072 377.969 165.672 377.817 166.365 377.817C167.057 377.817 167.657 377.969 168.165 378.274C168.673 378.578 169.065 379.006 169.342 379.557C169.622 380.108 169.763 380.75 169.763 381.482C169.763 382.215 169.622 382.855 169.342 383.403C169.065 383.951 168.673 384.377 168.165 384.681C167.657 384.986 167.057 385.138 166.365 385.138ZM166.374 383.8C166.749 383.8 167.063 383.697 167.316 383.49C167.568 383.281 167.756 383.001 167.879 382.65C168.005 382.299 168.068 381.908 168.068 381.478C168.068 381.044 168.005 380.651 167.879 380.3C167.756 379.946 167.568 379.665 167.316 379.456C167.063 379.246 166.749 379.142 166.374 379.142C165.989 379.142 165.669 379.246 165.414 379.456C165.161 379.665 164.972 379.946 164.846 380.3C164.723 380.651 164.661 381.044 164.661 381.478C164.661 381.908 164.723 382.299 164.846 382.65C164.972 383.001 165.161 383.281 165.414 383.49C165.669 383.697 165.989 383.8 166.374 383.8ZM171.181 377.909H172.852V385.406C172.852 385.917 172.755 386.339 172.561 386.671C172.367 387.004 172.087 387.251 171.721 387.414C171.355 387.578 170.91 387.659 170.387 387.659C170.325 387.659 170.268 387.658 170.216 387.654C170.164 387.654 170.107 387.653 170.045 387.65V386.288C170.091 386.291 170.133 386.293 170.17 386.293C170.207 386.296 170.245 386.297 170.285 386.297C170.605 386.297 170.835 386.219 170.973 386.062C171.112 385.908 171.181 385.682 171.181 385.383V377.909ZM172.012 376.903C171.744 376.903 171.515 376.815 171.324 376.64C171.136 376.461 171.042 376.247 171.042 375.998C171.042 375.746 171.136 375.532 171.324 375.356C171.515 375.178 171.744 375.088 172.012 375.088C172.277 375.088 172.503 375.178 172.691 375.356C172.881 375.532 172.977 375.746 172.977 375.998C172.977 376.247 172.881 376.461 172.691 376.64C172.503 376.815 172.277 376.903 172.012 376.903ZM177.71 385.138C176.999 385.138 176.385 384.991 175.868 384.695C175.354 384.397 174.958 383.975 174.681 383.43C174.404 382.883 174.266 382.238 174.266 381.496C174.266 380.767 174.404 380.127 174.681 379.576C174.961 379.022 175.352 378.591 175.854 378.283C176.356 377.972 176.945 377.817 177.622 377.817C178.059 377.817 178.472 377.888 178.859 378.029C179.25 378.168 179.595 378.383 179.893 378.675C180.195 378.968 180.432 379.34 180.604 379.793C180.777 380.242 180.863 380.777 180.863 381.399V381.912H175.051V380.785H179.261C179.258 380.465 179.189 380.18 179.053 379.931C178.918 379.679 178.728 379.48 178.485 379.336C178.245 379.191 177.965 379.119 177.645 379.119C177.304 379.119 177.003 379.202 176.745 379.368C176.486 379.531 176.285 379.746 176.14 380.014C175.999 380.279 175.926 380.57 175.923 380.887V381.87C175.923 382.282 175.999 382.636 176.149 382.932C176.3 383.224 176.511 383.449 176.782 383.606C177.053 383.76 177.37 383.837 177.733 383.837C177.976 383.837 178.196 383.803 178.393 383.735C178.59 383.664 178.761 383.561 178.905 383.426C179.05 383.29 179.159 383.123 179.233 382.923L180.794 383.098C180.695 383.51 180.507 383.871 180.23 384.178C179.956 384.483 179.606 384.72 179.178 384.889C178.75 385.055 178.261 385.138 177.71 385.138ZM185.37 385.138C184.662 385.138 184.054 384.983 183.546 384.672C183.041 384.361 182.652 383.932 182.378 383.384C182.107 382.833 181.972 382.199 181.972 381.482C181.972 380.762 182.11 380.127 182.387 379.576C182.664 379.022 183.055 378.591 183.56 378.283C184.068 377.972 184.668 377.817 185.36 377.817C185.936 377.817 186.445 377.923 186.888 378.135C187.335 378.345 187.69 378.642 187.955 379.026C188.22 379.408 188.37 379.854 188.407 380.365H186.81C186.745 380.023 186.592 379.739 186.348 379.511C186.108 379.28 185.787 379.165 185.384 379.165C185.042 379.165 184.742 379.257 184.483 379.442C184.225 379.623 184.023 379.885 183.879 380.227C183.737 380.568 183.666 380.978 183.666 381.455C183.666 381.938 183.737 382.353 183.879 382.701C184.02 383.046 184.219 383.312 184.474 383.5C184.733 383.684 185.036 383.777 185.384 383.777C185.63 383.777 185.85 383.73 186.044 383.638C186.241 383.543 186.405 383.406 186.538 383.227C186.67 383.049 186.761 382.832 186.81 382.576H188.407C188.367 383.078 188.22 383.523 187.964 383.911C187.709 384.295 187.361 384.597 186.921 384.815C186.481 385.031 185.964 385.138 185.37 385.138ZM193.32 377.909V379.202H189.244V377.909H193.32ZM190.25 376.21H191.922V382.867C191.922 383.092 191.955 383.264 192.023 383.384C192.094 383.501 192.186 383.581 192.3 383.624C192.414 383.667 192.54 383.689 192.679 383.689C192.783 383.689 192.879 383.681 192.965 383.666C193.054 383.65 193.122 383.637 193.168 383.624L193.45 384.931C193.36 384.962 193.233 384.995 193.066 385.032C192.903 385.069 192.703 385.091 192.466 385.097C192.048 385.109 191.671 385.046 191.335 384.908C191 384.766 190.734 384.548 190.537 384.252C190.343 383.957 190.247 383.587 190.25 383.144V376.21ZM200.221 379.783L198.697 379.95C198.654 379.796 198.579 379.651 198.471 379.516C198.367 379.38 198.225 379.271 198.047 379.188C197.868 379.105 197.65 379.063 197.391 379.063C197.043 379.063 196.751 379.139 196.514 379.289C196.28 379.44 196.165 379.636 196.168 379.876C196.165 380.082 196.24 380.25 196.394 380.379C196.551 380.508 196.809 380.614 197.169 380.697L198.379 380.956C199.05 381.101 199.548 381.33 199.875 381.644C200.204 381.958 200.37 382.369 200.373 382.876C200.37 383.323 200.239 383.717 199.981 384.058C199.725 384.397 199.37 384.661 198.914 384.852C198.459 385.043 197.936 385.138 197.345 385.138C196.477 385.138 195.778 384.957 195.249 384.594C194.72 384.228 194.404 383.718 194.303 383.066L195.932 382.909C196.006 383.229 196.163 383.47 196.403 383.634C196.643 383.797 196.955 383.878 197.34 383.878C197.737 383.878 198.056 383.797 198.296 383.634C198.539 383.47 198.661 383.269 198.661 383.029C198.661 382.826 198.582 382.658 198.425 382.526C198.271 382.393 198.031 382.292 197.705 382.221L196.495 381.967C195.815 381.825 195.312 381.587 194.986 381.251C194.66 380.913 194.498 380.485 194.501 379.968C194.498 379.531 194.616 379.152 194.857 378.832C195.1 378.509 195.437 378.26 195.868 378.085C196.301 377.906 196.802 377.817 197.368 377.817C198.199 377.817 198.853 377.994 199.33 378.348C199.81 378.702 200.107 379.18 200.221 379.783Z" fill="white"/>
<circle cx="220" cy="351" r="16" fill="#FFD600"/>
<mask id="mask0_2_210549" style="mask-type:alpha" maskUnits="userSpaceOnUse" x="210" y="341" width="20" height="20">
<rect x="210" y="341" width="20" height="20" fill="#D9D9D9"/>
</mask>
<g mask="url(#mask0_2_210549)">
<path d="M214.248 357.185C213.899 357.185 213.604 357.065 213.363 356.823C213.121 356.581 213 356.286 213 355.937V348.979H214.036V355.937C214.036 355.99 214.058 356.039 214.102 356.083C214.146 356.128 214.195 356.15 214.248 356.15H225.256V357.185H214.248ZM216.665 354.769C216.316 354.769 216.021 354.648 215.779 354.406C215.537 354.165 215.417 353.869 215.417 353.521V346.483H218.975V345.248C218.975 344.899 219.096 344.604 219.338 344.363C219.579 344.121 219.875 344 220.223 344H222.693C223.042 344 223.337 344.121 223.579 344.363C223.821 344.604 223.941 344.899 223.941 345.248V346.483H227.5V353.521C227.5 353.869 227.379 354.165 227.137 354.406C226.896 354.648 226.601 354.769 226.252 354.769H216.665ZM220.011 346.483H222.906V345.248C222.906 345.195 222.884 345.146 222.839 345.102C222.795 345.058 222.746 345.036 222.693 345.036H220.223C220.17 345.036 220.122 345.058 220.077 345.102C220.033 345.146 220.011 345.195 220.011 345.248V346.483Z" fill="#161D3B"/>
</g>
<g filter="url(#filter2_d_2_210549)">
<path d="M98 28C98 21.3726 103.373 16 110 16H243C249.627 16 255 21.3726 255 28V126C255 132.627 249.627 138 243 138H110C103.373 138 98 132.627 98 126V28Z" fill="#30354B"/>
</g>
<circle cx="130" cy="48" r="16" fill="#161D3B"/>
<path d="M125 48.3329L128.334 51.6657L135 45" stroke="#FFD600" stroke-width="2" stroke-linecap="round" stroke-linejoin="round"/>
<path d="M114.717 86V78.7273H117.445C118.003 78.7273 118.472 78.8314 118.851 79.0398C119.232 79.2481 119.52 79.5346 119.714 79.8991C119.91 80.2614 120.009 80.6733 120.009 81.1349C120.009 81.6013 119.91 82.0156 119.714 82.3778C119.517 82.7401 119.227 83.0253 118.844 83.2337C118.46 83.4396 117.988 83.5426 117.427 83.5426H115.619V82.4595H117.249C117.576 82.4595 117.844 82.4027 118.052 82.2891C118.26 82.1754 118.414 82.0192 118.513 81.8203C118.615 81.6214 118.666 81.393 118.666 81.1349C118.666 80.8769 118.615 80.6496 118.513 80.4531C118.414 80.2566 118.259 80.1039 118.048 79.995C117.84 79.8838 117.571 79.8281 117.242 79.8281H116.035V86H114.717ZM121.096 86V80.5455H122.343V81.4545H122.399C122.499 81.1397 122.669 80.897 122.911 80.7266C123.155 80.5537 123.433 80.4673 123.745 80.4673C123.816 80.4673 123.896 80.4709 123.983 80.478C124.073 80.4827 124.148 80.491 124.207 80.5028V81.6854C124.152 81.6664 124.066 81.6499 123.948 81.6357C123.832 81.6191 123.719 81.6108 123.61 81.6108C123.376 81.6108 123.165 81.6617 122.978 81.7635C122.794 81.8629 122.648 82.0014 122.541 82.179C122.435 82.3565 122.382 82.5613 122.382 82.7933V86H121.096ZM127.216 86.1065C126.683 86.1065 126.221 85.9893 125.831 85.755C125.44 85.5206 125.137 85.1927 124.922 84.7713C124.708 84.3499 124.602 83.8575 124.602 83.294C124.602 82.7306 124.708 82.237 124.922 81.8132C125.137 81.3894 125.44 81.0604 125.831 80.826C126.221 80.5916 126.683 80.4744 127.216 80.4744C127.748 80.4744 128.21 80.5916 128.6 80.826C128.991 81.0604 129.293 81.3894 129.506 81.8132C129.721 82.237 129.829 82.7306 129.829 83.294C129.829 83.8575 129.721 84.3499 129.506 84.7713C129.293 85.1927 128.991 85.5206 128.6 85.755C128.21 85.9893 127.748 86.1065 127.216 86.1065ZM127.223 85.0767C127.511 85.0767 127.753 84.9974 127.947 84.8388C128.141 84.6778 128.286 84.4624 128.38 84.1925C128.477 83.9226 128.526 83.6219 128.526 83.2905C128.526 82.9567 128.477 82.6548 128.38 82.3849C128.286 82.1127 128.141 81.8961 127.947 81.7351C127.753 81.5741 127.511 81.4936 127.223 81.4936C126.927 81.4936 126.681 81.5741 126.484 81.7351C126.29 81.8961 126.144 82.1127 126.047 82.3849C125.953 82.6548 125.905 82.9567 125.905 83.2905C125.905 83.6219 125.953 83.9226 126.047 84.1925C126.144 84.4624 126.29 84.6778 126.484 84.8388C126.681 84.9974 126.927 85.0767 127.223 85.0767ZM130.92 80.5455H132.206V86.3125C132.206 86.7055 132.131 87.0298 131.982 87.2855C131.833 87.5412 131.617 87.7318 131.336 87.8572C131.054 87.9827 130.712 88.0455 130.309 88.0455C130.262 88.0455 130.218 88.0443 130.178 88.0419C130.138 88.0419 130.094 88.0407 130.047 88.0384V86.9908C130.082 86.9931 130.114 86.9943 130.143 86.9943C130.171 86.9967 130.201 86.9979 130.231 86.9979C130.478 86.9979 130.654 86.9375 130.76 86.8168C130.867 86.6984 130.92 86.5244 130.92 86.2947V80.5455ZM131.559 79.7713C131.354 79.7713 131.177 79.7038 131.03 79.5689C130.886 79.4316 130.814 79.267 130.814 79.0753C130.814 78.8812 130.886 78.7166 131.03 78.5817C131.177 78.4444 131.354 78.3757 131.559 78.3757C131.763 78.3757 131.937 78.4444 132.081 78.5817C132.228 78.7166 132.302 78.8812 132.302 79.0753C132.302 79.267 132.228 79.4316 132.081 79.5689C131.937 79.7038 131.763 79.7713 131.559 79.7713ZM135.942 86.1065C135.396 86.1065 134.923 85.9929 134.526 85.7656C134.13 85.536 133.826 85.2116 133.613 84.7926C133.4 84.3712 133.293 83.8752 133.293 83.3047C133.293 82.7436 133.4 82.2512 133.613 81.8274C133.828 81.4013 134.129 81.0698 134.515 80.8331C134.901 80.594 135.354 80.4744 135.875 80.4744C136.211 80.4744 136.528 80.5289 136.827 80.6378C137.127 80.7443 137.393 80.91 137.622 81.1349C137.854 81.3598 138.036 81.6463 138.169 81.9943C138.302 82.34 138.368 82.7519 138.368 83.2301V83.6243H133.897V82.7578H137.136C137.133 82.5116 137.08 82.2926 136.976 82.1009C136.872 81.9067 136.726 81.754 136.539 81.6428C136.354 81.5315 136.139 81.4759 135.893 81.4759C135.63 81.4759 135.399 81.5398 135.2 81.6676C135.001 81.7931 134.846 81.9588 134.735 82.1648C134.626 82.3684 134.571 82.5921 134.568 82.8359V83.5923C134.568 83.9096 134.626 84.1818 134.742 84.4091C134.858 84.634 135.02 84.8068 135.229 84.9276C135.437 85.0459 135.681 85.1051 135.96 85.1051C136.147 85.1051 136.317 85.0791 136.468 85.027C136.62 84.9725 136.751 84.8932 136.862 84.7891C136.973 84.6849 137.058 84.5559 137.114 84.402L138.315 84.5369C138.239 84.8542 138.094 85.1312 137.881 85.3679C137.671 85.6023 137.401 85.7846 137.072 85.9148C136.743 86.0426 136.366 86.1065 135.942 86.1065ZM141.835 86.1065C141.29 86.1065 140.823 85.987 140.432 85.7479C140.044 85.5088 139.744 85.1785 139.534 84.7571C139.325 84.3333 139.221 83.8456 139.221 83.294C139.221 82.7401 139.328 82.2512 139.541 81.8274C139.754 81.4013 140.054 81.0698 140.443 80.8331C140.833 80.594 141.295 80.4744 141.828 80.4744C142.27 80.4744 142.662 80.5561 143.003 80.7195C143.346 80.8804 143.62 81.1089 143.823 81.4048C144.027 81.6984 144.143 82.0417 144.171 82.4347H142.943C142.893 82.1719 142.775 81.9529 142.588 81.7777C142.403 81.6001 142.155 81.5114 141.845 81.5114C141.583 81.5114 141.352 81.5824 141.153 81.7244C140.954 81.8641 140.799 82.0653 140.688 82.3281C140.579 82.5909 140.524 82.9058 140.524 83.2727C140.524 83.6444 140.579 83.964 140.688 84.2315C140.797 84.4967 140.949 84.7015 141.146 84.8459C141.345 84.9879 141.578 85.0589 141.845 85.0589C142.035 85.0589 142.204 85.0234 142.353 84.9524C142.505 84.879 142.631 84.7737 142.733 84.6364C142.835 84.4991 142.905 84.3321 142.943 84.1357H144.171C144.141 84.5215 144.027 84.8636 143.83 85.1619C143.634 85.4579 143.366 85.6899 143.028 85.858C142.689 86.0237 142.292 86.1065 141.835 86.1065ZM147.951 80.5455V81.5398H144.815V80.5455H147.951ZM145.589 79.2386H146.875V84.3594C146.875 84.5322 146.901 84.6648 146.953 84.7571C147.007 84.8471 147.078 84.9086 147.166 84.9418C147.253 84.9749 147.35 84.9915 147.457 84.9915C147.538 84.9915 147.611 84.9856 147.677 84.9737C147.746 84.9619 147.798 84.9512 147.833 84.9418L148.05 85.9467C147.981 85.9704 147.883 85.9964 147.755 86.0249C147.63 86.0533 147.476 86.0698 147.294 86.0746C146.972 86.084 146.682 86.0355 146.424 85.929C146.166 85.8201 145.961 85.652 145.809 85.4247C145.66 85.1974 145.587 84.9134 145.589 84.5724V79.2386ZM153.259 81.9872L152.087 82.1151C152.054 81.9967 151.996 81.8854 151.913 81.7812C151.832 81.6771 151.723 81.593 151.586 81.5291C151.449 81.4652 151.281 81.4332 151.082 81.4332C150.814 81.4332 150.589 81.4912 150.407 81.6072C150.227 81.7232 150.138 81.8736 150.141 82.0582C150.138 82.2169 150.196 82.3459 150.315 82.4453C150.436 82.5447 150.634 82.6264 150.911 82.6903L151.842 82.8892C152.358 83.0005 152.741 83.1768 152.992 83.4183C153.246 83.6598 153.374 83.9759 153.376 84.3665C153.374 84.7098 153.273 85.0128 153.074 85.2756C152.878 85.536 152.604 85.7396 152.254 85.8864C151.903 86.0331 151.501 86.1065 151.046 86.1065C150.379 86.1065 149.841 85.9669 149.434 85.6875C149.027 85.4058 148.784 85.014 148.706 84.5121L149.96 84.3913C150.017 84.6375 150.137 84.8234 150.322 84.9489C150.507 85.0743 150.747 85.1371 151.043 85.1371C151.348 85.1371 151.593 85.0743 151.778 84.9489C151.965 84.8234 152.058 84.6683 152.058 84.4837C152.058 84.3274 151.998 84.1984 151.877 84.0966C151.759 83.9948 151.574 83.9167 151.323 83.8622L150.393 83.6669C149.87 83.558 149.483 83.3745 149.232 83.1165C148.981 82.8561 148.856 82.527 148.859 82.1293C148.856 81.7931 148.948 81.5019 149.132 81.2557C149.319 81.0071 149.579 80.8153 149.91 80.6804C150.244 80.5431 150.628 80.4744 151.064 80.4744C151.703 80.4744 152.206 80.6106 152.573 80.8828C152.943 81.1551 153.171 81.5232 153.259 81.9872ZM159.296 86.1065C158.751 86.1065 158.284 85.987 157.893 85.7479C157.505 85.5088 157.205 85.1785 156.994 84.7571C156.786 84.3333 156.682 83.8456 156.682 83.294C156.682 82.7401 156.789 82.2512 157.002 81.8274C157.215 81.4013 157.515 81.0698 157.904 80.8331C158.294 80.594 158.756 80.4744 159.289 80.4744C159.731 80.4744 160.123 80.5561 160.464 80.7195C160.807 80.8804 161.081 81.1089 161.284 81.4048C161.488 81.6984 161.604 82.0417 161.632 82.4347H160.404C160.354 82.1719 160.235 81.9529 160.048 81.7777C159.864 81.6001 159.616 81.5114 159.306 81.5114C159.044 81.5114 158.813 81.5824 158.614 81.7244C158.415 81.8641 158.26 82.0653 158.149 82.3281C158.04 82.5909 157.985 82.9058 157.985 83.2727C157.985 83.6444 158.04 83.964 158.149 84.2315C158.258 84.4967 158.41 84.7015 158.607 84.8459C158.806 84.9879 159.039 85.0589 159.306 85.0589C159.496 85.0589 159.665 85.0234 159.814 84.9524C159.966 84.879 160.092 84.7737 160.194 84.6364C160.296 84.4991 160.366 84.3321 160.404 84.1357H161.632C161.602 84.5215 161.488 84.8636 161.291 85.1619C161.095 85.4579 160.827 85.6899 160.489 85.858C160.15 86.0237 159.753 86.1065 159.296 86.1065ZM165.067 86.1065C164.534 86.1065 164.073 85.9893 163.682 85.755C163.292 85.5206 162.989 85.1927 162.773 84.7713C162.56 84.3499 162.453 83.8575 162.453 83.294C162.453 82.7306 162.56 82.237 162.773 81.8132C162.989 81.3894 163.292 81.0604 163.682 80.826C164.073 80.5916 164.534 80.4744 165.067 80.4744C165.6 80.4744 166.061 80.5916 166.452 80.826C166.843 81.0604 167.145 81.3894 167.358 81.8132C167.573 82.237 167.681 82.7306 167.681 83.294C167.681 83.8575 167.573 84.3499 167.358 84.7713C167.145 85.1927 166.843 85.5206 166.452 85.755C166.061 85.9893 165.6 86.1065 165.067 86.1065ZM165.074 85.0767C165.363 85.0767 165.605 84.9974 165.799 84.8388C165.993 84.6778 166.137 84.4624 166.232 84.1925C166.329 83.9226 166.377 83.6219 166.377 83.2905C166.377 82.9567 166.329 82.6548 166.232 82.3849C166.137 82.1127 165.993 81.8961 165.799 81.7351C165.605 81.5741 165.363 81.4936 165.074 81.4936C164.778 81.4936 164.532 81.5741 164.336 81.7351C164.141 81.8961 163.996 82.1127 163.899 82.3849C163.804 82.6548 163.757 82.9567 163.757 83.2905C163.757 83.6219 163.804 83.9226 163.899 84.1925C163.996 84.4624 164.141 84.6778 164.336 84.8388C164.532 84.9974 164.778 85.0767 165.074 85.0767ZM168.772 86V80.5455H170.001V81.4723H170.064C170.178 81.1598 170.366 80.916 170.629 80.7408C170.892 80.5632 171.206 80.4744 171.57 80.4744C171.939 80.4744 172.251 80.5644 172.504 80.7443C172.76 80.9219 172.94 81.1645 173.044 81.4723H173.101C173.221 81.1693 173.425 80.9278 173.711 80.7479C174 80.5656 174.342 80.4744 174.738 80.4744C175.24 80.4744 175.649 80.633 175.966 80.9503C176.284 81.2675 176.442 81.7304 176.442 82.3388V86H175.153V82.5376C175.153 82.1991 175.063 81.9517 174.883 81.7955C174.703 81.6368 174.483 81.5575 174.223 81.5575C173.913 81.5575 173.67 81.6546 173.495 81.8487C173.322 82.0405 173.236 82.2902 173.236 82.598V86H171.975V82.4844C171.975 82.2027 171.89 81.9777 171.719 81.8097C171.551 81.6416 171.331 81.5575 171.059 81.5575C170.874 81.5575 170.706 81.6049 170.555 81.6996C170.403 81.7919 170.282 81.9233 170.192 82.0938C170.102 82.2618 170.057 82.4583 170.057 82.6832V86H168.772ZM177.746 88.0455V80.5455H179.011V81.4474H179.085C179.152 81.3149 179.245 81.174 179.366 81.0249C179.487 80.8733 179.65 80.7443 179.856 80.6378C180.062 80.5289 180.325 80.4744 180.644 80.4744C181.066 80.4744 181.446 80.5821 181.784 80.7976C182.125 81.0107 182.395 81.3267 182.594 81.7457C182.795 82.1624 182.896 82.6738 182.896 83.2798C182.896 83.8788 182.797 84.3878 182.601 84.8068C182.404 85.2259 182.137 85.5455 181.798 85.7656C181.46 85.9858 181.076 86.0959 180.648 86.0959C180.335 86.0959 180.076 86.0438 179.87 85.9396C179.664 85.8355 179.498 85.71 179.373 85.5632C179.25 85.4141 179.154 85.2732 179.085 85.1406H179.032V88.0455H177.746ZM179.007 83.2727C179.007 83.6255 179.057 83.9344 179.156 84.1996C179.258 84.4647 179.404 84.6719 179.593 84.821C179.785 84.9678 180.017 85.0412 180.289 85.0412C180.573 85.0412 180.811 84.9654 181.003 84.8139C181.195 84.66 181.339 84.4505 181.436 84.1854C181.536 83.9179 181.585 83.6136 181.585 83.2727C181.585 82.9342 181.537 82.6335 181.44 82.3707C181.343 82.108 181.198 81.902 181.006 81.7528C180.815 81.6037 180.576 81.5291 180.289 81.5291C180.014 81.5291 179.781 81.6013 179.589 81.7457C179.398 81.8902 179.252 82.0926 179.153 82.353C179.056 82.6134 179.007 82.92 179.007 83.2727ZM185.282 78.7273V86H183.996V78.7273H185.282ZM189.019 86.1065C188.472 86.1065 187.999 85.9929 187.602 85.7656C187.206 85.536 186.902 85.2116 186.689 84.7926C186.476 84.3712 186.369 83.8752 186.369 83.3047C186.369 82.7436 186.476 82.2512 186.689 81.8274C186.905 81.4013 187.205 81.0698 187.591 80.8331C187.977 80.594 188.43 80.4744 188.951 80.4744C189.287 80.4744 189.605 80.5289 189.903 80.6378C190.204 80.7443 190.469 80.91 190.698 81.1349C190.93 81.3598 191.113 81.6463 191.245 81.9943C191.378 82.34 191.444 82.7519 191.444 83.2301V83.6243H186.973V82.7578H190.212C190.209 82.5116 190.156 82.2926 190.052 82.1009C189.948 81.9067 189.802 81.754 189.615 81.6428C189.431 81.5315 189.215 81.4759 188.969 81.4759C188.706 81.4759 188.475 81.5398 188.276 81.6676C188.078 81.7931 187.923 81.9588 187.811 82.1648C187.702 82.3684 187.647 82.5921 187.644 82.8359V83.5923C187.644 83.9096 187.702 84.1818 187.818 84.4091C187.934 84.634 188.097 84.8068 188.305 84.9276C188.513 85.0459 188.757 85.1051 189.036 85.1051C189.223 85.1051 189.393 85.0791 189.544 85.027C189.696 84.9725 189.827 84.8932 189.938 84.7891C190.05 84.6849 190.134 84.5559 190.191 84.402L191.391 84.5369C191.315 84.8542 191.171 85.1312 190.958 85.3679C190.747 85.6023 190.477 85.7846 190.148 85.9148C189.819 86.0426 189.442 86.1065 189.019 86.1065ZM195.255 80.5455V81.5398H192.12V80.5455H195.255ZM192.894 79.2386H194.179V84.3594C194.179 84.5322 194.205 84.6648 194.257 84.7571C194.312 84.8471 194.383 84.9086 194.471 84.9418C194.558 84.9749 194.655 84.9915 194.762 84.9915C194.842 84.9915 194.916 84.9856 194.982 84.9737C195.051 84.9619 195.103 84.9512 195.138 84.9418L195.355 85.9467C195.286 85.9704 195.188 85.9964 195.06 86.0249C194.935 86.0533 194.781 86.0698 194.598 86.0746C194.276 86.084 193.986 86.0355 193.728 85.929C193.47 85.8201 193.266 85.652 193.114 85.4247C192.965 85.1974 192.891 84.9134 192.894 84.5724V79.2386ZM198.687 86.1065C198.14 86.1065 197.667 85.9929 197.27 85.7656C196.874 85.536 196.57 85.2116 196.357 84.7926C196.144 84.3712 196.037 83.8752 196.037 83.3047C196.037 82.7436 196.144 82.2512 196.357 81.8274C196.573 81.4013 196.873 81.0698 197.259 80.8331C197.645 80.594 198.098 80.4744 198.619 80.4744C198.955 80.4744 199.273 80.5289 199.571 80.6378C199.872 80.7443 200.137 80.91 200.366 81.1349C200.598 81.3598 200.781 81.6463 200.913 81.9943C201.046 82.34 201.112 82.7519 201.112 83.2301V83.6243H196.641V82.7578H199.88C199.877 82.5116 199.824 82.2926 199.72 82.1009C199.616 81.9067 199.47 81.754 199.283 81.6428C199.099 81.5315 198.883 81.4759 198.637 81.4759C198.374 81.4759 198.143 81.5398 197.944 81.6676C197.746 81.7931 197.59 81.9588 197.479 82.1648C197.37 82.3684 197.315 82.5921 197.312 82.8359V83.5923C197.312 83.9096 197.37 84.1818 197.486 84.4091C197.602 84.634 197.765 84.8068 197.973 84.9276C198.181 85.0459 198.425 85.1051 198.704 85.1051C198.891 85.1051 199.061 85.0791 199.212 85.027C199.364 84.9725 199.495 84.8932 199.606 84.7891C199.718 84.6849 199.802 84.5559 199.858 84.402L201.059 84.5369C200.983 84.8542 200.839 85.1312 200.626 85.3679C200.415 85.6023 200.145 85.7846 199.816 85.9148C199.487 86.0426 199.11 86.1065 198.687 86.1065ZM204.224 86.0959C203.795 86.0959 203.412 85.9858 203.073 85.7656C202.735 85.5455 202.467 85.2259 202.271 84.8068C202.074 84.3878 201.976 83.8788 201.976 83.2798C201.976 82.6738 202.075 82.1624 202.274 81.7457C202.475 81.3267 202.746 81.0107 203.087 80.7976C203.428 80.5821 203.808 80.4744 204.227 80.4744C204.547 80.4744 204.81 80.5289 205.016 80.6378C205.222 80.7443 205.385 80.8733 205.506 81.0249C205.626 81.174 205.72 81.3149 205.786 81.4474H205.839V78.7273H207.129V86H205.864V85.1406H205.786C205.72 85.2732 205.624 85.4141 205.499 85.5632C205.373 85.71 205.207 85.8355 205.001 85.9396C204.795 86.0438 204.536 86.0959 204.224 86.0959ZM204.582 85.0412C204.855 85.0412 205.087 84.9678 205.278 84.821C205.47 84.6719 205.616 84.4647 205.715 84.1996C205.815 83.9344 205.864 83.6255 205.864 83.2727C205.864 82.92 205.815 82.6134 205.715 82.353C205.618 82.0926 205.474 81.8902 205.282 81.7457C205.093 81.6013 204.859 81.5291 204.582 81.5291C204.296 81.5291 204.057 81.6037 203.865 81.7528C203.673 81.902 203.529 82.108 203.432 82.3707C203.335 82.6335 203.286 82.9342 203.286 83.2727C203.286 83.6136 203.335 83.9179 203.432 84.1854C203.531 84.4505 203.677 84.66 203.869 84.8139C204.063 84.9654 204.301 85.0412 204.582 85.0412Z" fill="white"/>
<path d="M123.011 97.8182V116H119.717V101.023H119.611L115.358 103.74V100.721L119.877 97.8182H123.011ZM134.153 116.249C132.874 116.249 131.738 116.03 130.744 115.592C129.755 115.154 128.974 114.544 128.4 113.763C127.826 112.982 127.521 112.079 127.485 111.055H130.824C130.853 111.546 131.016 111.975 131.312 112.342C131.608 112.703 132.001 112.984 132.493 113.186C132.984 113.387 133.534 113.488 134.144 113.488C134.795 113.488 135.372 113.375 135.875 113.15C136.378 112.919 136.772 112.6 137.056 112.191C137.34 111.783 137.479 111.312 137.473 110.78C137.479 110.229 137.337 109.744 137.047 109.324C136.757 108.904 136.337 108.575 135.786 108.338C135.242 108.102 134.585 107.983 133.815 107.983H132.208V105.444H133.815C134.449 105.444 135.002 105.335 135.475 105.116C135.955 104.897 136.331 104.589 136.603 104.192C136.875 103.79 137.008 103.325 137.002 102.799C137.008 102.284 136.893 101.837 136.656 101.458C136.425 101.073 136.097 100.775 135.671 100.561C135.251 100.348 134.756 100.242 134.188 100.242C133.632 100.242 133.117 100.342 132.643 100.544C132.17 100.745 131.788 101.032 131.498 101.405C131.208 101.772 131.054 102.21 131.037 102.719H127.867C127.891 101.701 128.184 100.807 128.746 100.038C129.314 99.2623 130.072 98.6586 131.019 98.2266C131.966 97.7886 133.028 97.5696 134.206 97.5696C135.419 97.5696 136.473 97.7975 137.366 98.2532C138.266 98.703 138.962 99.3097 139.453 100.073C139.944 100.837 140.19 101.68 140.19 102.603C140.196 103.627 139.894 104.485 139.284 105.178C138.68 105.87 137.887 106.323 136.905 106.536V106.678C138.183 106.856 139.163 107.329 139.843 108.099C140.53 108.862 140.87 109.812 140.864 110.949C140.864 111.967 140.574 112.878 139.994 113.683C139.42 114.482 138.627 115.109 137.615 115.565C136.609 116.021 135.455 116.249 134.153 116.249ZM144.089 116V97.8182H147.383V106.172H147.605L154.698 97.8182H158.72L151.689 105.977L158.782 116H154.823L149.398 108.205L147.383 110.585V116H144.089Z" fill="white"/>
<defs>
<filter id="filter0_d_2_210549" x="0" y="205" width="210" height="92" filterUnits="userSpaceOnUse" color-interpolation-filters="sRGB">
<feFlood flood-opacity="0" result="BackgroundImageFix"/>
<feColorMatrix in="SourceAlpha" type="matrix" values="0 0 0 0 0 0 0 0 0 0 0 0 0 0 0 0 0 0 127 0" result="hardAlpha"/>
<feOffset dy="6"/>
<feGaussianBlur stdDeviation="11"/>
<feComposite in2="hardAlpha" operator="out"/>
<feColorMatrix type="matrix" values="0 0 0 0 0 0 0 0 0 0 0 0 0 0 0 0 0 0 0.12 0"/>
<feBlend mode="normal" in2="BackgroundImageFix" result="effect1_dropShadow_2_210549"/>
<feBlend mode="normal" in="SourceGraphic" in2="effect1_dropShadow_2_210549" result="shape"/>
</filter>
<filter id="filter1_d_2_210549" x="61" y="340" width="210" height="92" filterUnits="userSpaceOnUse" color-interpolation-filters="sRGB">
<feFlood flood-opacity="0" result="BackgroundImageFix"/>
<feColorMatrix in="SourceAlpha" type="matrix" values="0 0 0 0 0 0 0 0 0 0 0 0 0 0 0 0 0 0 127 0" result="hardAlpha"/>
<feOffset dy="6"/>
<feGaussianBlur stdDeviation="11"/>
<feComposite in2="hardAlpha" operator="out"/>
<feColorMatrix type="matrix" values="0 0 0 0 0 0 0 0 0 0 0 0 0 0 0 0 0 0 0.12 0"/>
<feBlend mode="normal" in2="BackgroundImageFix" result="effect1_dropShadow_2_210549"/>
<feBlend mode="normal" in="SourceGraphic" in2="effect1_dropShadow_2_210549" result="shape"/>
</filter>
<filter id="filter2_d_2_210549" x="76" y="0" width="201" height="166" filterUnits="userSpaceOnUse" color-interpolation-filters="sRGB">
<feFlood flood-opacity="0" result="BackgroundImageFix"/>
<feColorMatrix in="SourceAlpha" type="matrix" values="0 0 0 0 0 0 0 0 0 0 0 0 0 0 0 0 0 0 127 0" result="hardAlpha"/>
<feOffset dy="6"/>
<feGaussianBlur stdDeviation="11"/>
<feComposite in2="hardAlpha" operator="out"/>
<feColorMatrix type="matrix" values="0 0 0 0 0 0 0 0 0 0 0 0 0 0 0 0 0 0 0.12 0"/>
<feBlend mode="normal" in2="BackgroundImageFix" result="effect1_dropShadow_2_210549"/>
<feBlend mode="normal" in="SourceGraphic" in2="effect1_dropShadow_2_210549" result="shape"/>
</filter>
</defs>
</svg>
