<svg width="118" height="22" viewBox="0 0 118 22" fill="none" xmlns="http://www.w3.org/2000/svg">
<g clip-path="url(#clip0_2_196808)">
<path d="M113.668 11.7495H105.904V15.859H114.752V18.7323H102.641V2.75H114.362V5.57998H105.904V8.97378H113.668V11.7495Z" fill="#232529"/>
<path d="M93.7899 18.7323H86.5469V2.75H94.3104C96.2693 2.77891 97.6572 3.34636 98.4741 4.45232C98.9656 5.13181 99.2114 5.94502 99.2114 6.89196C99.2114 7.86781 98.9656 8.65211 98.4741 9.24485C98.1994 9.57736 97.7946 9.88096 97.2596 10.1556C98.0765 10.452 98.6909 10.9219 99.1029 11.5652C99.5222 12.2086 99.7318 12.9892 99.7318 13.9073C99.7318 14.8542 99.4933 15.7036 99.0162 16.4553C98.7126 16.9541 98.3331 17.3734 97.8777 17.7131C97.3645 18.1034 96.7573 18.3709 96.0561 18.5155C95.3621 18.66 94.6068 18.7323 93.7899 18.7323ZM93.714 11.6953H89.7347V15.9566H93.6598C94.361 15.9566 94.9067 15.8626 95.2971 15.6746C96.0055 15.3277 96.3597 14.6626 96.3597 13.6796C96.3597 12.8483 96.0163 12.2772 95.3296 11.9664C94.9465 11.7929 94.408 11.7026 93.714 11.6953ZM95.373 8.64849C95.8067 8.38827 96.0236 7.92203 96.0236 7.24977C96.0236 6.50523 95.7344 6.01369 95.1561 5.77515C94.6574 5.60889 94.0212 5.52576 93.2478 5.52576H89.7347V9.04968H93.6598C94.361 9.04968 94.932 8.91595 95.373 8.64849Z" fill="#232529"/>
<path d="M80.0469 2.75H83.3648V18.7323H80.0469V2.75Z" fill="#232529"/>
<path d="M71.0477 12.4652H67.5997V18.7323H64.3359V2.75H72.1754C73.2958 2.77169 74.156 2.90903 74.756 3.16203C75.3632 3.41503 75.8764 3.7873 76.2957 4.27884C76.6426 4.68364 76.9173 5.13181 77.1197 5.62335C77.3221 6.11489 77.4233 6.6751 77.4233 7.30399C77.4233 8.06298 77.2318 8.81114 76.8486 9.54845C76.4655 10.2785 75.833 10.7954 74.9511 11.099C75.6885 11.3953 76.2089 11.8182 76.5125 12.3676C76.8233 12.9097 76.9788 13.741 76.9788 14.8614V15.9349C76.9788 16.665 77.0077 17.1601 77.0655 17.4203C77.1522 17.8324 77.3546 18.136 77.6727 18.3311V18.7323H73.997C73.8958 18.3781 73.8235 18.0926 73.7801 17.8757C73.6934 17.4276 73.6464 16.9686 73.6391 16.4987L73.6175 15.0132C73.603 13.994 73.4151 13.3145 73.0536 12.9748C72.6994 12.635 72.0308 12.4652 71.0477 12.4652ZM73.0753 9.55929C73.7403 9.25569 74.0729 8.65572 74.0729 7.75938C74.0729 6.79076 73.7512 6.14019 73.1078 5.80768C72.7464 5.61973 72.2043 5.52576 71.4814 5.52576H67.5997V9.81952H71.3838C72.1356 9.81952 72.6994 9.73278 73.0753 9.55929Z" fill="#232529"/>
<path d="M62.298 2.75V5.57998H57.5163V18.7323H54.155V5.57998H49.3516V2.75H62.298Z" fill="#232529"/>
<path d="M42.5402 2.75V5.57998H37.7585V18.7323H34.3972V5.57998H29.5938V2.75H42.5402Z" fill="#232529"/>
<path d="M19 2.75H22.3396V15.859H30.2549V18.7323H19V2.75Z" fill="#232529"/>
<path d="M12.3132 15.4469H6.42551L5.31954 18.7323H1.82812L7.53149 2.75H11.3048L16.9648 18.7323H13.3433L12.3132 15.4469ZM11.3807 12.6929L9.38562 6.40403L7.32547 12.6929H11.3807Z" fill="#232529"/>
</g>
<defs>
<clipPath id="clip0_2_196808">
<rect width="117.333" height="22" fill="white"/>
</clipPath>
</defs>
</svg>
