<svg width="362" height="329" viewBox="0 0 362 329" fill="none" xmlns="http://www.w3.org/2000/svg">
<path d="M217.625 227.588L225.413 307.328L230.971 307.096L228.21 223.266L217.625 227.588Z" fill="white"/>
<path d="M218.169 227.919L225.871 306.796L230.437 306.605L227.718 224.021L218.169 227.919ZM225.408 307.844C225.146 307.844 224.925 307.643 224.9 307.379L217.112 227.641C217.089 227.413 217.218 227.201 217.427 227.116L228.013 222.794C228.167 222.731 228.344 222.748 228.485 222.837C228.625 222.929 228.713 223.084 228.717 223.252L231.478 307.079C231.487 307.36 231.269 307.597 230.988 307.609L225.431 307.841C225.422 307.841 225.415 307.844 225.408 307.844Z" fill="#232529"/>
<path d="M322.086 224.724L314.487 307.531L308.742 307.101L311.503 220.248L322.086 224.724Z" fill="white"/>
<path d="M309.268 306.626L314.02 306.983L321.541 225.053L311.989 221.012L309.268 306.626ZM314.485 308.047C314.472 308.047 314.46 308.047 314.446 308.045L308.701 307.614C308.427 307.593 308.218 307.361 308.227 307.084L310.988 220.234C310.995 220.063 311.082 219.909 311.225 219.817C311.365 219.725 311.545 219.711 311.701 219.778L322.284 224.254C322.489 224.341 322.616 224.551 322.595 224.772L314.997 307.579C314.971 307.847 314.748 308.047 314.485 308.047Z" fill="#232529"/>
<path d="M348.539 205.235L346.303 292.188L341.816 291.216L337.703 201.1L348.539 205.235Z" fill="white"/>
<path d="M342.309 290.801L345.804 291.559L348.015 205.585L338.249 201.86L342.309 290.801ZM346.302 292.703C346.265 292.703 346.228 292.699 346.194 292.692L341.706 291.72C341.48 291.669 341.314 291.474 341.303 291.241L337.188 201.125C337.181 200.952 337.262 200.789 337.4 200.687C337.54 200.586 337.722 200.561 337.883 200.623L348.72 204.759C348.922 204.835 349.056 205.033 349.049 205.249L346.813 292.203C346.811 292.355 346.739 292.5 346.617 292.595C346.527 292.666 346.415 292.703 346.302 292.703Z" fill="#232529"/>
<path d="M260.875 203.286L258.639 290.24L253.979 290.266L250.039 199.153L260.875 203.286Z" fill="white"/>
<path d="M250.589 199.916L254.473 289.756L258.144 289.735L260.357 203.642L250.589 199.916ZM253.983 290.785C253.709 290.785 253.483 290.569 253.469 290.295L249.532 199.179C249.523 199.007 249.603 198.843 249.744 198.742C249.884 198.641 250.066 198.618 250.225 198.677L261.061 202.813C261.266 202.891 261.397 203.087 261.393 203.306L259.157 290.26C259.15 290.536 258.924 290.758 258.646 290.76L253.985 290.785H253.983Z" fill="#232529"/>
<path d="M283.402 135.38V155.614C283.402 175.4 267.795 191.44 248.545 191.44C229.292 191.44 213.688 207.481 213.688 227.269C213.688 229.031 215.113 230.461 216.872 230.461H309.143C338.002 230.461 361.397 206.415 361.397 176.75V133.58C361.397 121.781 352.092 112.216 340.613 112.216H305.936C293.49 112.216 283.402 122.587 283.402 135.38Z" fill="white"/>
<path d="M305.934 112.732C293.792 112.732 283.911 122.893 283.911 135.383V155.614C283.911 175.653 268.044 191.956 248.543 191.956C229.604 191.956 214.197 207.798 214.197 227.272C214.197 228.748 215.396 229.95 216.87 229.95H309.141C337.671 229.95 360.884 206.085 360.884 176.752V133.582C360.884 122.085 351.791 112.732 340.611 112.732H305.934ZM309.141 230.977H216.87C214.832 230.977 213.172 229.314 213.172 227.272C213.172 207.232 229.039 190.929 248.54 190.929C267.48 190.929 282.887 175.087 282.887 155.614V135.383C282.887 122.327 293.225 111.707 305.934 111.707H340.611C352.355 111.707 361.908 121.521 361.908 133.582V176.752C361.908 206.651 338.237 230.977 309.141 230.977Z" fill="#232529"/>
<path d="M276.81 136.337C276.81 136.337 271.781 182.058 238.008 185.049L276.81 185.602C276.81 185.602 291.178 156.455 291.761 145.105C292.345 133.755 276.81 136.337 276.81 136.337Z" fill="white"/>
<path d="M243.669 184.613L276.498 185.078C277.994 182.006 290.714 155.586 291.255 145.074C291.387 142.507 290.654 140.492 289.079 139.085C285.586 135.965 278.925 136.575 277.276 136.785C276.993 138.915 275.427 149.263 270.545 159.781C264.291 173.256 255.072 181.739 243.669 184.613ZM276.815 186.109C276.813 186.109 276.811 186.109 276.809 186.109L238.007 185.557C237.733 185.552 237.512 185.336 237.5 185.064C237.491 184.79 237.696 184.557 237.968 184.534C255.162 183.01 264.662 170.009 269.604 159.373C274.99 147.777 276.293 136.389 276.307 136.273C276.332 136.045 276.505 135.861 276.733 135.824C277.085 135.767 285.414 134.436 289.763 138.32C291.582 139.944 292.427 142.233 292.28 145.127C291.697 156.451 277.865 184.629 277.276 185.824C277.189 185.999 277.011 186.109 276.815 186.109Z" fill="#232529"/>
<path d="M328.781 133.207C333.852 135.355 339.806 137.886 345.049 140.14C345.052 140.207 345.052 140.271 345.054 140.336L328.786 133.315L328.781 133.207Z" fill="white"/>
<path d="M345.066 140.848C344.997 140.848 344.928 140.834 344.863 140.806L328.595 133.785C328.415 133.707 328.296 133.534 328.287 133.339L328.282 133.231C328.273 133.053 328.356 132.885 328.501 132.784C328.646 132.683 328.83 132.664 328.993 132.733C335.188 135.356 340.813 137.755 345.264 139.669C345.448 139.747 345.57 139.927 345.575 140.125L345.579 140.325C345.582 140.498 345.496 140.663 345.351 140.76C345.266 140.818 345.165 140.848 345.066 140.848Z" fill="#232529"/>
<mask id="path-15-inside-1_2_190627" fill="white">
<path fill-rule="evenodd" clip-rule="evenodd" d="M322.58 106.773C317.33 105.742 312.655 105.82 291.774 106.577C290.319 106.629 288.795 107.126 287.316 107.932L287.318 107.9C276.217 110.539 272.367 141.457 272.367 141.457L282.401 147.211C282.047 155.993 279.853 165.636 273.827 174.3C271.713 177.339 268.837 180.676 264.891 183.872C267.108 185.668 270.553 188.005 275.181 189.38C280.096 190.841 283.448 190.357 286.845 189.868C288.76 189.592 290.689 189.313 292.921 189.38C301.492 189.635 307.222 194.757 312.254 199.255C316.839 203.353 320.843 206.932 325.887 205.839C328.713 205.226 332.457 203.021 335.966 195.62C337.956 189.486 339.726 182.281 340.712 174.136C341.944 163.964 341.679 154.577 340.654 146.282L347.894 147.124C347.894 147.124 346.807 128.758 345.223 121.662C341.889 106.734 322.562 106.577 322.562 106.577L322.58 106.773Z"/>
</mask>
<path fill-rule="evenodd" clip-rule="evenodd" d="M322.58 106.773C317.33 105.742 312.655 105.82 291.774 106.577C290.319 106.629 288.795 107.126 287.316 107.932L287.318 107.9C276.217 110.539 272.367 141.457 272.367 141.457L282.401 147.211C282.047 155.993 279.853 165.636 273.827 174.3C271.713 177.339 268.837 180.676 264.891 183.872C267.108 185.668 270.553 188.005 275.181 189.38C280.096 190.841 283.448 190.357 286.845 189.868C288.76 189.592 290.689 189.313 292.921 189.38C301.492 189.635 307.222 194.757 312.254 199.255C316.839 203.353 320.843 206.932 325.887 205.839C328.713 205.226 332.457 203.021 335.966 195.62C337.956 189.486 339.726 182.281 340.712 174.136C341.944 163.964 341.679 154.577 340.654 146.282L347.894 147.124C347.894 147.124 346.807 128.758 345.223 121.662C341.889 106.734 322.562 106.577 322.562 106.577L322.58 106.773Z" fill="#FFD600"/>
<path d="M291.774 106.577L291.807 107.496L291.807 107.496L291.774 106.577ZM322.58 106.773L322.403 107.675L323.604 107.911L323.496 106.692L322.58 106.773ZM287.316 107.932L286.399 107.874L286.294 109.536L287.756 108.739L287.316 107.932ZM287.318 107.9L288.236 107.958L288.313 106.719L287.106 107.006L287.318 107.9ZM272.367 141.457L271.455 141.343L271.379 141.95L271.91 142.254L272.367 141.457ZM282.401 147.211L283.319 147.248L283.342 146.691L282.858 146.413L282.401 147.211ZM273.827 174.3L273.072 173.775L273.072 173.775L273.827 174.3ZM264.891 183.872L264.312 183.157L263.43 183.872L264.312 184.586L264.891 183.872ZM275.181 189.38L275.443 188.498L275.443 188.498L275.181 189.38ZM286.845 189.868L286.977 190.778L286.845 189.868ZM292.921 189.38L292.948 188.461H292.948L292.921 189.38ZM312.254 199.255L311.641 199.941L312.254 199.255ZM325.887 205.839L326.082 206.738L326.082 206.738L325.887 205.839ZM335.966 195.62L336.797 196.014L336.822 195.96L336.841 195.904L335.966 195.62ZM340.712 174.136L339.799 174.026L339.799 174.026L340.712 174.136ZM340.654 146.282L340.76 145.369L339.598 145.233L339.741 146.395L340.654 146.282ZM347.894 147.124L347.788 148.037L348.876 148.164L348.812 147.07L347.894 147.124ZM345.223 121.662L346.12 121.461L346.12 121.461L345.223 121.662ZM322.562 106.577L322.57 105.657L321.557 105.649L321.647 106.658L322.562 106.577ZM291.807 107.496C312.741 106.737 317.283 106.67 322.403 107.675L322.757 105.871C317.376 104.815 312.569 104.903 291.741 105.658L291.807 107.496ZM287.756 108.739C289.148 107.98 290.532 107.542 291.807 107.496L291.741 105.658C290.105 105.717 288.441 106.271 286.876 107.124L287.756 108.739ZM286.401 107.843L286.399 107.874L288.234 107.989L288.236 107.958L286.401 107.843ZM272.367 141.457C273.28 141.57 273.28 141.57 273.28 141.57C273.28 141.57 273.28 141.57 273.28 141.569C273.28 141.569 273.28 141.567 273.28 141.566C273.281 141.562 273.281 141.557 273.282 141.55C273.284 141.536 273.287 141.515 273.29 141.486C273.298 141.43 273.309 141.344 273.324 141.233C273.355 141.009 273.401 140.68 273.464 140.259C273.589 139.416 273.782 138.208 274.047 136.749C274.578 133.829 275.399 129.915 276.562 125.925C277.728 121.928 279.225 117.898 281.091 114.723C282.977 111.514 285.131 109.365 287.531 108.795L287.106 107.006C283.955 107.755 281.464 110.46 279.506 113.791C277.529 117.155 275.981 121.349 274.797 125.411C273.61 129.48 272.775 133.461 272.238 136.42C271.968 137.901 271.773 139.128 271.645 139.987C271.581 140.417 271.533 140.754 271.502 140.985C271.486 141.1 271.475 141.189 271.467 141.249C271.463 141.279 271.46 141.302 271.458 141.318C271.457 141.326 271.456 141.332 271.456 141.336C271.455 141.338 271.455 141.34 271.455 141.341C271.455 141.341 271.455 141.342 271.455 141.342C271.455 141.343 271.455 141.343 272.367 141.457ZM282.858 146.413L272.825 140.659L271.91 142.254L281.943 148.009L282.858 146.413ZM274.582 174.825C280.734 165.98 282.961 156.152 283.319 147.248L281.482 147.174C281.133 155.834 278.972 165.293 273.072 173.775L274.582 174.825ZM265.469 184.586C269.491 181.33 272.424 177.927 274.582 174.825L273.072 173.775C271.002 176.751 268.184 180.022 264.312 183.157L265.469 184.586ZM275.443 188.498C270.968 187.169 267.629 184.907 265.469 183.157L264.312 184.586C266.587 186.429 270.138 188.841 274.919 190.261L275.443 188.498ZM286.714 188.958C283.343 189.444 280.158 189.9 275.443 188.498L274.919 190.261C280.034 191.782 283.552 191.271 286.977 190.778L286.714 188.958ZM292.948 188.461C290.627 188.392 288.624 188.682 286.714 188.958L286.977 190.778C288.896 190.501 290.752 190.235 292.893 190.299L292.948 188.461ZM312.867 198.569C307.862 194.096 301.898 188.727 292.948 188.461L292.893 190.299C301.086 190.543 306.583 195.419 311.641 199.941L312.867 198.569ZM325.693 204.94C323.459 205.425 321.431 204.892 319.357 203.697C317.252 202.484 315.179 200.636 312.867 198.569L311.641 199.941C313.914 201.972 316.135 203.963 318.439 205.29C320.775 206.636 323.272 207.347 326.082 206.738L325.693 204.94ZM335.135 195.226C331.71 202.449 328.162 204.405 325.693 204.94L326.082 206.738C329.263 206.048 333.204 203.592 336.797 196.014L335.135 195.226ZM339.799 174.026C338.822 182.104 337.065 189.251 335.092 195.336L336.841 195.904C338.846 189.721 340.631 182.457 341.625 174.247L339.799 174.026ZM339.741 146.395C340.759 154.625 341.021 163.937 339.799 174.026L341.625 174.247C342.867 163.992 342.6 154.529 341.566 146.169L339.741 146.395ZM340.548 147.195L347.788 148.037L348 146.211L340.76 145.369L340.548 147.195ZM347.894 147.124C348.812 147.07 348.812 147.07 348.812 147.069C348.812 147.069 348.812 147.069 348.812 147.069C348.812 147.068 348.812 147.067 348.811 147.066C348.811 147.064 348.811 147.06 348.811 147.056C348.81 147.047 348.81 147.034 348.808 147.016C348.806 146.981 348.803 146.928 348.799 146.86C348.791 146.723 348.778 146.521 348.762 146.263C348.729 145.745 348.68 144.998 348.617 144.08C348.49 142.244 348.304 139.721 348.068 136.976C347.6 131.508 346.928 125.08 346.12 121.461L344.325 121.862C345.102 125.34 345.766 131.643 346.236 137.133C346.471 139.865 346.656 142.378 346.782 144.207C346.845 145.121 346.894 145.865 346.926 146.379C346.943 146.637 346.955 146.837 346.964 146.972C346.968 147.04 346.971 147.092 346.973 147.126C346.974 147.144 346.975 147.157 346.975 147.165C346.975 147.17 346.976 147.173 346.976 147.175C346.976 147.176 346.976 147.177 346.976 147.178C346.976 147.178 346.976 147.178 346.976 147.178C346.976 147.178 346.976 147.178 347.894 147.124ZM346.12 121.461C344.356 113.565 338.353 109.616 332.956 107.657C330.252 106.676 327.664 106.177 325.756 105.923C324.8 105.796 324.01 105.73 323.457 105.695C323.18 105.678 322.962 105.668 322.811 105.663C322.736 105.661 322.677 105.659 322.637 105.659C322.617 105.658 322.601 105.658 322.59 105.658C322.584 105.658 322.58 105.658 322.576 105.658C322.575 105.658 322.573 105.658 322.572 105.658C322.572 105.658 322.571 105.658 322.571 105.658C322.57 105.657 322.57 105.657 322.562 106.577C322.555 107.496 322.555 107.496 322.555 107.496C322.555 107.496 322.554 107.496 322.555 107.496C322.555 107.496 322.555 107.496 322.556 107.496C322.557 107.496 322.56 107.496 322.563 107.496C322.571 107.497 322.583 107.497 322.599 107.497C322.632 107.498 322.682 107.499 322.749 107.501C322.884 107.506 323.084 107.514 323.342 107.53C323.859 107.563 324.605 107.625 325.513 107.746C327.332 107.988 329.784 108.462 332.329 109.385C337.428 111.237 342.755 114.831 344.325 121.862L346.12 121.461ZM321.647 106.658L321.664 106.855L323.496 106.692L323.478 106.496L321.647 106.658Z" fill="#232529" mask="url(#path-15-inside-1_2_190627)"/>
<path d="M305.929 104.044L305.276 94.7548C304.831 94.7225 304.525 94.7041 304.435 94.7041C301.845 94.6742 301.004 93.8337 300.783 91.7061C300.643 90.3752 300.594 88.3972 301.241 85.9219C301.31 85.6594 301.297 85.3784 301.188 85.1274L300.746 84.089C300.654 83.7482 300.772 83.382 301.046 83.1587L301.28 82.9653C302.126 82.2722 302.828 81.4202 303.39 80.4738C303.908 79.6034 304.787 77.9732 305.391 77.683C307.092 76.8702 313.993 73.2574 317.85 79.5712C320.858 84.4942 315.944 91.2732 314.157 93.4929C313.726 94.0317 317.074 104.557 317.074 104.557L321.401 105.602C321.401 105.602 318.062 111.541 307.919 109.084C300.696 107.336 301.842 104.647 301.842 104.647L305.929 104.044Z" fill="white"/>
<path d="M302.294 105.097C302.299 105.249 302.341 105.463 302.476 105.716C302.826 106.37 304.017 107.611 308.044 108.585C315.788 110.459 319.401 107.279 320.541 105.921L316.958 105.053C316.785 105.011 316.644 104.88 316.589 104.71C313.158 93.9219 313.568 93.4153 313.764 93.1712C315.779 90.6637 320.172 84.3452 317.418 79.8366C313.93 74.1238 307.814 77.0827 305.804 78.0544L305.619 78.1442C305.24 78.3261 304.452 79.6801 304.072 80.3317L303.835 80.7347C303.218 81.7709 302.469 82.6551 301.611 83.3597L301.376 83.5531C301.267 83.6429 301.214 83.7903 301.24 83.9261L301.666 84.9232C301.815 85.2732 301.843 85.6738 301.744 86.0515C301.247 87.9442 301.102 89.7771 301.297 91.6492C301.479 93.3831 301.977 94.1591 304.445 94.189C304.54 94.189 304.857 94.2097 305.315 94.2396C305.571 94.2581 305.774 94.4607 305.792 94.7163L306.446 104.005C306.465 104.272 306.276 104.509 306.009 104.549L302.294 105.097ZM312.601 110.199C311.196 110.199 309.603 110.017 307.802 109.582C304.376 108.753 302.269 107.59 301.535 106.13C301.074 105.209 301.343 104.519 301.376 104.443C301.447 104.279 301.597 104.164 301.774 104.136L305.389 103.602L304.8 95.2344C304.613 95.2229 304.487 95.216 304.434 95.2137C301.664 95.1814 300.538 94.2442 300.277 91.7574C300.068 89.7587 300.224 87.8061 300.752 85.7913C300.793 85.6324 300.782 85.4666 300.722 85.3261L300.28 84.2877C300.27 84.2669 300.264 84.2439 300.257 84.2209C300.112 83.6867 300.296 83.1133 300.724 82.761L300.961 82.5676C301.728 81.9367 302.398 81.1445 302.955 80.2097L303.186 79.8159C303.939 78.5242 304.563 77.5133 305.175 77.2186L305.357 77.131C311.305 74.2551 315.657 74.985 318.293 79.3024C321.353 84.3107 316.817 90.9883 314.634 93.7239C314.632 94.6104 316.041 99.5818 317.48 104.125L321.528 105.103C321.683 105.14 321.812 105.249 321.876 105.396C321.941 105.543 321.931 105.714 321.853 105.852C321.733 106.066 319.316 110.199 312.601 110.199Z" fill="#232529"/>
<path d="M315.726 71.5445C313.854 71.1415 311.706 71.4293 310.798 71.0932C309.334 70.5543 309.292 68.7997 307.268 68.307C304.816 67.7106 303.794 68.7583 302.833 70.2182C302.675 70.4622 302.534 70.7339 302.419 71.0425C300.879 75.1803 302.824 77.1998 303.69 77.856C303.69 77.856 309.205 80.709 310.151 81.5241C311.033 82.2863 312.053 84.0915 311.411 86.6866C311.328 87.0205 311.475 87.3682 311.758 87.5409C312.09 87.7389 312.518 87.6445 312.746 87.3152C313.462 86.2721 315.031 84.2596 316.145 84.7363C317.545 85.335 317.11 89.5396 314.02 90.0231C313.071 90.1728 312.3 91.1445 312.392 92.1393C312.454 92.7886 313.064 93.5761 313.974 93.7833C314.529 93.9123 315.074 93.6866 315.562 93.3758C317.58 92.0863 323.267 86.6221 323.974 81.7221C324.824 75.8182 318.213 72.081 315.726 71.5445Z" fill="#232529"/>
<path d="M304.574 95.1719C304.3 95.1719 304.072 94.9554 304.063 94.6791C304.051 94.3959 304.272 94.1564 304.556 94.1449C304.574 94.1449 306.552 94.0528 307.899 92.9061C308.116 92.7242 308.44 92.7495 308.622 92.966C308.806 93.1824 308.779 93.5048 308.565 93.689C306.939 95.0683 304.689 95.1673 304.593 95.1719C304.586 95.1719 304.581 95.1719 304.574 95.1719Z" fill="#232529"/>
<path d="M260.347 281.562C259.403 280.604 253.948 263.62 253.948 263.62L243.172 271.317L254.987 287.215L260.347 281.562Z" fill="white"/>
<path d="M243.892 271.429L255.032 286.419L259.704 281.489C258.426 279.048 254.841 268.064 253.673 264.442L243.892 271.429ZM254.984 287.727C254.974 287.727 254.963 287.727 254.954 287.727C254.802 287.717 254.663 287.641 254.574 287.519L242.757 271.622C242.676 271.511 242.641 271.373 242.662 271.237C242.683 271.102 242.759 270.979 242.872 270.899L253.648 263.201C253.782 263.104 253.952 263.079 254.109 263.13C254.263 263.183 254.385 263.305 254.433 263.461C256.503 269.902 260.036 280.416 260.713 281.203C260.885 281.404 260.897 281.721 260.717 281.912L255.357 287.565C255.26 287.669 255.124 287.727 254.984 287.727Z" fill="#232529"/>
<path d="M240.927 303.039L248.093 302.995C252.834 302.968 257.246 300.554 259.832 296.576L266.917 285.343C268.877 282.239 267.781 278.127 264.543 276.402C261.584 274.829 258.485 273.296 257.76 273.365C256.286 273.505 255.69 280.489 255.69 280.489L249.304 280.736C249.304 280.736 246.15 293.868 243.375 295.36C241.353 296.447 239.942 298.045 238.991 299.502C237.996 301.029 239.106 303.048 240.927 303.039Z" fill="#232529"/>
<path d="M241.653 300.75C241.404 300.75 241.185 300.566 241.146 300.312C241.105 300.032 241.298 299.771 241.579 299.73L251.381 298.252C253.435 297.941 255.227 296.739 256.295 294.954L264.955 280.466C265.103 280.222 265.416 280.144 265.66 280.289C265.902 280.434 265.982 280.749 265.837 280.991L257.175 295.482C255.95 297.529 253.894 298.908 251.533 299.265L241.731 300.743C241.706 300.748 241.68 300.75 241.653 300.75Z" fill="white"/>
<path d="M253.748 289.852C253.702 289.852 253.659 289.845 253.612 289.833L248.151 288.343C247.877 288.27 247.718 287.986 247.791 287.715C247.865 287.441 248.146 287.28 248.42 287.353L253.882 288.843C254.156 288.917 254.317 289.2 254.241 289.474C254.179 289.702 253.974 289.852 253.748 289.852Z" fill="white"/>
<path d="M250.901 292.66C250.861 292.66 250.82 292.656 250.779 292.646L247.117 291.748C246.841 291.682 246.673 291.405 246.742 291.129C246.809 290.855 247.087 290.684 247.361 290.754L251.023 291.649C251.299 291.718 251.467 291.995 251.4 292.269C251.343 292.504 251.133 292.66 250.901 292.66Z" fill="white"/>
<path d="M223.582 278.32L211.069 290.906L204.438 288.468L215.971 272.365L223.582 278.32Z" fill="white"/>
<path d="M205.244 288.217L210.936 290.31L222.808 278.367L216.076 273.098L205.244 288.217ZM211.067 291.418C211.01 291.418 210.95 291.406 210.89 291.386L204.258 288.947C204.106 288.892 203.991 288.77 203.945 288.616C203.897 288.464 203.925 288.298 204.019 288.167L215.553 272.064C215.633 271.951 215.758 271.875 215.896 271.857C216.034 271.836 216.175 271.873 216.285 271.961L223.895 277.915C224.01 278.005 224.082 278.141 224.091 278.286C224.1 278.433 224.047 278.576 223.944 278.68L211.431 291.266C211.334 291.365 211.201 291.418 211.067 291.418Z" fill="#232529"/>
<path d="M289.81 185.407C289.81 185.407 232.626 178.391 215.621 193.908C198.618 209.426 242.463 276.156 242.463 276.156L256.329 265.315L243.177 218.151L296.038 202.325L289.81 185.407Z" fill="white"/>
<path d="M261.611 184.365C244.678 184.365 224.748 186.266 215.964 194.284C200.209 208.662 238.735 269.433 242.585 275.406L255.74 265.123L242.679 218.287C242.603 218.018 242.757 217.739 243.024 217.658L295.363 201.989L289.432 185.88C287.378 185.645 275.501 184.365 261.611 184.365ZM242.458 276.668C242.43 276.668 242.403 276.666 242.375 276.661C242.235 276.638 242.108 276.557 242.03 276.438C240.229 273.698 198.141 209.162 215.271 193.527C232.255 178.03 287.523 184.609 289.867 184.896C290.058 184.919 290.219 185.048 290.286 185.228L296.515 202.145C296.563 202.279 296.554 202.426 296.492 202.553C296.427 202.68 296.314 202.774 296.178 202.813L243.8 218.496L256.819 265.176C256.875 265.376 256.803 265.59 256.64 265.719L242.776 276.56C242.684 276.631 242.573 276.668 242.458 276.668Z" fill="#232529"/>
<path d="M321.279 216.119C312.973 218.899 298.109 222.491 277.337 222.194C271.436 222.108 265.985 225.546 263.305 231.089C257.152 243.811 243.834 266.715 222.141 281.562L211.781 275.677L238.225 212.921C240.638 207.192 245.153 202.739 250.737 200.581L303.145 180.32C303.145 180.32 319.395 175.531 327.362 190.825C328.785 193.556 331.426 188.674 332.057 190.878C334.215 198.433 328.412 213.731 321.279 216.119Z" fill="white"/>
<path d="M212.428 275.456L222.112 280.957C243.644 266.11 256.864 243.22 262.839 230.866C265.582 225.199 271.271 221.598 277.341 221.681C297.708 221.975 312.387 218.554 321.114 215.634C327.999 213.329 333.602 198.171 331.561 191.019C331.508 190.835 331.458 190.791 331.458 190.789C331.315 190.772 330.82 191.12 330.521 191.323C329.793 191.811 328.966 192.363 328.11 192.145C327.619 192.02 327.214 191.657 326.905 191.063C319.231 176.333 303.934 180.622 303.287 180.813L250.918 201.058C245.496 203.156 241.04 207.552 238.694 213.122L212.428 275.456ZM222.138 282.074C222.05 282.074 221.963 282.053 221.884 282.007L211.525 276.122C211.299 275.995 211.205 275.717 211.306 275.477L237.75 212.723C240.202 206.898 244.869 202.297 250.55 200.103L302.958 179.842C303.163 179.78 319.747 175.101 327.815 190.588C327.983 190.913 328.167 191.102 328.363 191.152C328.777 191.258 329.399 190.839 329.95 190.471C330.606 190.031 331.225 189.614 331.826 189.835C332.169 189.962 332.411 190.264 332.547 190.738C334.741 198.419 328.89 214.112 321.439 216.606C312.636 219.551 297.837 223.002 277.327 222.705C277.256 222.705 277.185 222.703 277.116 222.703C271.442 222.703 266.339 225.987 263.763 231.313C257.718 243.809 244.312 267.008 222.428 281.984C222.34 282.044 222.239 282.074 222.138 282.074Z" fill="#232529"/>
<path d="M215.017 288.936C215.017 288.936 215.623 294.29 214.596 299.022C214.05 301.543 211.779 303.316 209.203 303.316H178.495C176.3 303.316 175.303 300.574 176.987 299.162C182.446 294.583 192.49 287.589 204.842 285.538L208.284 290.364L215.017 288.936Z" fill="#232529"/>
<path d="M211.776 299.605H179.951C179.668 299.605 179.438 299.378 179.438 299.094C179.438 298.811 179.668 298.581 179.951 298.581H211.776C212.059 298.581 212.287 298.811 212.287 299.094C212.287 299.378 212.059 299.605 211.776 299.605Z" fill="white"/>
<path d="M197.715 293.938C197.512 293.938 197.321 293.818 197.24 293.62L195.555 289.53C195.446 289.268 195.571 288.968 195.833 288.86C196.096 288.752 196.395 288.876 196.503 289.139L198.189 293.231C198.295 293.491 198.17 293.792 197.91 293.898C197.846 293.926 197.779 293.938 197.715 293.938Z" fill="white"/>
<path d="M192.169 295.02C191.955 295.02 191.755 294.881 191.683 294.667L190.463 290.976C190.375 290.707 190.521 290.417 190.79 290.329C191.059 290.239 191.349 290.384 191.439 290.654L192.657 294.345C192.745 294.614 192.6 294.904 192.33 294.992C192.277 295.01 192.224 295.02 192.169 295.02Z" fill="white"/>
<path d="M331.635 143.568C326.061 163.882 309.495 176.843 285.477 183.666L289.14 190.512C322.519 189.337 340.024 174.831 347.021 146.99L331.635 143.568Z" fill="white"/>
<path d="M286.234 183.982L289.446 189.987C321.105 188.788 339.218 175.237 346.4 147.375L332.004 144.172C326.549 163.369 311.155 176.759 286.234 183.982ZM289.145 191.023C288.956 191.023 288.783 190.92 288.693 190.752L285.03 183.906C284.956 183.77 284.949 183.607 285.009 183.464C285.071 183.321 285.193 183.213 285.341 183.171C310.458 176.036 325.867 162.664 331.145 143.43C331.218 143.165 331.485 143.004 331.753 143.064L347.139 146.488C347.272 146.518 347.39 146.601 347.463 146.718C347.535 146.838 347.558 146.979 347.523 147.114C340.281 175.925 321.738 189.877 289.163 191.023C289.158 191.023 289.151 191.023 289.145 191.023Z" fill="#232529"/>
<path d="M291.18 183.104C290.842 182.438 290.271 181.911 289.568 181.66C289.066 181.481 288.571 181.241 288.099 180.99L281.562 177.522C280.337 176.921 278.587 178.319 277.316 178.738C273.482 179.998 265.54 182.966 266.194 185.752C266.899 188.759 273.724 187.336 276.149 186.731C276.701 186.592 281.716 188.407 283.301 188.529C285.493 188.695 285.997 188.137 287.07 187.573C287.558 187.318 288.102 187.203 288.691 187.198C289.594 187.191 290.453 186.813 291.019 186.109L291.031 186.09C291.655 185.314 291.763 184.241 291.309 183.355L291.18 183.104Z" fill="white"/>
<path d="M276.221 186.21C276.627 186.21 277.382 186.418 279.314 186.991C280.84 187.445 282.57 187.958 283.336 188.018C285.022 188.145 285.575 187.829 286.337 187.394C286.491 187.304 286.652 187.212 286.827 187.12C287.368 186.837 287.992 186.689 288.686 186.685C289.459 186.68 290.161 186.353 290.615 185.787C291.124 185.151 291.212 184.295 290.85 183.588L290.721 183.337C290.431 182.77 289.959 182.347 289.392 182.144C288.932 181.978 288.444 181.755 287.854 181.444L281.319 177.976C280.705 177.675 279.684 178.186 278.786 178.639C278.324 178.87 277.891 179.088 277.474 179.224C270.437 181.536 266.304 183.993 266.691 185.635C266.78 186.019 267.006 186.316 267.381 186.547C268.731 187.366 271.959 187.249 276.021 186.233C276.079 186.22 276.143 186.21 276.221 186.21ZM284.016 189.07C283.783 189.07 283.534 189.061 283.26 189.04C282.383 188.974 280.675 188.465 279.021 187.974C277.902 187.643 276.505 187.219 276.221 187.235C273.691 187.873 269.039 188.757 266.85 187.422C266.235 187.046 265.846 186.526 265.691 185.87C264.998 182.913 271.542 180.095 277.154 178.25C277.497 178.137 277.9 177.935 278.326 177.723C279.438 177.163 280.698 176.53 281.784 177.062L288.335 180.537C288.879 180.825 289.326 181.03 289.738 181.177C290.553 181.469 291.225 182.07 291.633 182.869L291.762 183.123C292.308 184.186 292.176 185.478 291.428 186.413C290.769 187.237 289.775 187.705 288.692 187.712C288.158 187.714 287.705 187.818 287.304 188.027C287.14 188.115 286.991 188.2 286.846 188.283C286.141 188.686 285.471 189.07 284.016 189.07Z" fill="#232529"/>
<path d="M260.207 188.507L246.405 147.835C245.579 146.562 244.137 145.788 242.588 145.788H205.803C204.134 145.788 203.058 147.409 203.604 148.841C203.821 149.41 204.053 149.972 204.244 150.552L216.718 188.58H216.722C216.761 190.805 218.571 192.594 220.8 192.594H288.684C290.938 192.594 292.767 190.763 292.767 188.507H260.207Z" fill="#232529"/>
<path d="M217.188 188.364C217.218 188.428 217.237 188.499 217.237 188.573C217.271 190.51 218.871 192.085 220.803 192.085H288.687C290.481 192.085 291.971 190.751 292.222 189.022H260.211C259.992 189.022 259.796 188.882 259.725 188.675L245.946 148.065C245.204 146.96 243.954 146.304 242.591 146.304H205.806C205.185 146.304 204.632 146.587 204.289 147.084C203.967 147.554 203.891 148.144 204.086 148.659L204.27 149.138C204.429 149.544 204.595 149.965 204.736 150.393L217.188 188.364ZM288.687 193.109H220.803C218.349 193.109 216.309 191.134 216.214 188.688L203.759 150.713C203.628 150.31 203.469 149.905 203.315 149.511L203.128 149.025C202.811 148.192 202.93 147.25 203.444 146.502C203.983 145.723 204.842 145.277 205.806 145.277H242.591C244.325 145.277 245.914 146.131 246.839 147.559C246.862 147.593 246.881 147.632 246.895 147.674L260.579 187.995H292.77C293.053 187.995 293.283 188.225 293.283 188.509C293.283 191.046 291.22 193.109 288.687 193.109Z" fill="#232529"/>
<path d="M232.866 166.636C233.384 168.358 232.592 170.122 231.095 170.574C229.598 171.025 227.966 169.996 227.448 168.273C226.93 166.551 227.722 164.787 229.218 164.336C230.713 163.884 232.348 164.914 232.866 166.636Z" fill="white"/>
<path d="M186.569 201.434H181.388C181.105 201.434 180.875 201.203 180.875 200.92C180.875 200.637 181.105 200.407 181.388 200.407H186.569C186.853 200.407 187.081 200.637 187.081 200.92C187.081 201.203 186.853 201.434 186.569 201.434Z" fill="white"/>
<path d="M157.657 239.994L149.87 319.734L144.312 319.502L147.073 235.674L157.657 239.994Z" fill="white"/>
<path d="M144.839 319.013L149.404 319.205L157.106 240.328L147.559 236.429L144.839 319.013ZM149.867 320.25C149.86 320.25 149.853 320.25 149.845 320.25L144.288 320.015C144.007 320.004 143.788 319.769 143.797 319.488L146.558 235.658C146.564 235.492 146.651 235.338 146.792 235.246C146.933 235.154 147.109 235.138 147.264 235.202L157.847 239.522C158.059 239.607 158.186 239.821 158.165 240.047L150.377 319.787C150.352 320.05 150.13 320.25 149.867 320.25Z" fill="#232529"/>
<path d="M53.1953 237.128L60.7949 319.938L66.5398 319.505L63.7789 232.651L53.1953 237.128Z" fill="white"/>
<path d="M53.7372 237.451L61.2567 319.384L66.0091 319.027L63.2874 233.413L53.7372 237.451ZM60.7916 320.445C60.5291 320.445 60.3057 320.245 60.2815 319.98L52.6819 237.173C52.6612 236.949 52.7869 236.74 52.9925 236.652L63.5761 232.176C63.7323 232.109 63.9105 232.125 64.0526 232.217C64.1949 232.307 64.2835 232.464 64.2886 232.632L67.0497 319.485C67.0584 319.759 66.8496 319.992 66.5756 320.012L60.8305 320.445C60.8174 320.445 60.8042 320.445 60.7916 320.445Z" fill="#232529"/>
<path d="M26.7344 217.639L28.9698 304.594L33.4565 303.622L37.5703 213.504L26.7344 217.639Z" fill="white"/>
<path d="M27.2613 217.988L29.4716 303.959L32.9672 303.201L37.0277 214.262L27.2613 217.988ZM28.9747 305.105C28.861 305.105 28.7493 305.066 28.6581 304.995C28.5379 304.901 28.466 304.758 28.4621 304.606L26.2267 217.651C26.221 217.433 26.3532 217.237 26.5565 217.159L37.3929 213.023C37.5534 212.963 37.736 212.986 37.876 213.088C38.016 213.189 38.0957 213.355 38.0878 213.527L33.9737 303.643C33.9631 303.876 33.7976 304.072 33.5701 304.12L29.0836 305.094C29.0475 305.101 29.0111 305.105 28.9747 305.105Z" fill="#232529"/>
<path d="M114.398 215.694L116.634 302.647L121.295 302.672L125.235 211.559L114.398 215.694Z" fill="white"/>
<path d="M91.872 147.784V168.018C91.872 187.804 107.478 203.847 126.729 203.847C145.98 203.847 161.586 219.887 161.586 239.673C161.586 241.437 160.161 242.867 158.4 242.867H66.1306C37.2707 242.867 13.875 218.818 13.875 189.156V145.984C13.875 134.187 23.1802 124.622 34.6588 124.622H69.3368C81.7827 124.622 91.872 134.993 91.872 147.784Z" fill="#F4F4F4"/>
<path d="M34.6638 125.132C23.4864 125.132 14.3928 134.486 14.3928 145.98V189.153C14.3928 218.486 37.6045 242.35 66.1356 242.35H158.404C159.878 242.35 161.078 241.148 161.078 239.67C161.078 220.197 145.672 204.355 126.734 204.355C107.231 204.355 91.3644 188.052 91.3644 168.014V147.781C91.3644 135.292 81.4849 125.132 69.3417 125.132H34.6638ZM158.404 243.375H66.1356C37.0388 243.375 13.3672 219.05 13.3672 189.153V145.98C13.3672 133.919 22.9208 124.105 34.6638 124.105H69.3417C82.0504 124.105 92.39 134.727 92.39 147.781V168.014C92.39 187.488 107.797 203.33 126.734 203.33C146.237 203.33 162.105 219.633 162.105 239.67C162.105 241.712 160.445 243.375 158.404 243.375Z" fill="#232529"/>
<path d="M4.94411 110.033C3.52937 109.448 2.28434 108.428 1.50052 107.03C0.340679 104.96 -0.280344 101.647 2.32693 96.9124C8.21546 86.2189 18.0496 91.2755 21.8123 90.0367C30.2432 87.2597 28.2489 82.7028 31.6733 78.2748C34.2353 74.9613 43.0843 68.7097 56.525 80.3541C56.525 80.3541 62.5614 88.5929 69.402 85.4568C77.8062 81.6067 94.6951 90.3199 89.3583 103.272C87.8192 107.007 85.0473 109.879 81.6707 111.437C81.0585 111.718 80.3884 111.992 79.6601 112.243C77.5532 112.969 75.9261 114.845 75.3983 117.27C73.6799 125.156 67.1754 140.384 43.0355 125.062C41.215 123.906 39.0538 123.759 37.1718 124.634C34.8586 125.709 32.348 129.872 21.189 128.115C14.0213 126.985 11.744 118.642 9.85149 114.848C8.34441 111.824 6.17994 110.544 4.94411 110.033Z" fill="#232529"/>
<path d="M129.082 168.253C119.589 171.221 101.401 162.982 98.3 149.168C95.8405 138.212 91.9974 132.654 90.5104 130.821C89.7998 129.607 88.8649 128.468 87.6287 127.381C78.7861 119.609 63.4719 122.126 56.844 123.215C49.3264 124.45 43.0984 125.474 38.8623 130.243C37.7372 131.509 36.9398 132.836 36.392 134.247L36.3913 134.243C28.2994 149.479 34.8582 165.211 38.9028 172.478C39.5701 201.618 29.9352 197.038 32.5425 209.976C36.2161 228.202 65.5687 221.388 76.2463 219.06C79.9922 218.245 99.607 224.069 104.402 208.936C107.199 200.105 101.882 196.027 97.1871 181.002C121.238 195.951 139.103 170.461 139.103 170.461L140.955 161.524C140.955 161.524 136.103 166.056 129.082 168.253Z" fill="#FFD600"/>
<mask id="path-56-inside-2_2_190627" fill="white">
<path d="M36.8093 134.534C28.993 149.315 35.0397 164.491 39.3445 172.226C39.3848 172.297 39.4071 172.38 39.4087 172.463C39.7889 189.058 36.8378 194.833 34.6835 199.049C33.0314 202.282 31.9399 204.419 33.0387 209.872C33.7809 213.554 35.6775 216.414 38.6765 218.371C48.2932 224.648 66.6427 220.632 75.4609 218.702L76.1305 218.557C77.0009 218.366 78.4773 218.491 80.5216 218.661C87.9022 219.276 100.253 220.307 103.906 208.778C105.676 203.192 104.087 199.558 101.455 193.539C100.061 190.352 98.3272 186.389 96.6912 181.153C96.6274 180.948 96.6974 180.725 96.8666 180.594C97.0363 180.462 97.2694 180.451 97.4513 180.564C107.239 186.647 117.135 186.765 126.865 180.912C133.709 176.794 138.061 171.008 138.616 170.246L140.144 162.875C138.292 164.351 134.35 167.137 129.228 168.737C124.303 170.278 116.997 168.892 110.612 165.208C103.864 161.311 99.1911 155.507 97.793 149.276C95.3674 138.472 91.6088 132.994 90.1054 131.14C90.0891 131.119 90.0743 131.099 90.0612 131.076C89.3545 129.869 88.4457 128.784 87.2835 127.764C78.6235 120.152 63.4156 122.65 56.9217 123.716C49.3412 124.962 43.3543 125.948 39.239 130.58C38.1853 131.766 37.4084 133.026 36.8632 134.43C36.8491 134.467 36.8309 134.502 36.8093 134.534ZM53.3533 222.773C47.6641 222.776 42.1742 221.878 38.1158 219.23C34.8781 217.116 32.8315 214.035 32.0332 210.074C30.8636 204.272 32.0829 201.884 33.77 198.582C35.8696 194.474 38.743 188.851 38.3864 172.613C33.9805 164.655 27.8847 149.16 35.9278 134.007C36.5166 132.508 37.3493 131.163 38.4725 129.899C42.8291 124.994 49.282 123.933 56.7543 122.705C63.393 121.614 78.9365 119.06 87.9605 126.993C89.1959 128.078 90.1662 129.233 90.9265 130.525C92.4914 132.464 96.3338 138.094 98.7935 149.052C100.129 155.002 104.624 160.568 111.125 164.319C117.273 167.867 124.259 169.216 128.922 167.759C135.742 165.627 140.551 161.192 140.599 161.146C140.762 160.994 141.006 160.964 141.2 161.074C141.395 161.183 141.496 161.406 141.451 161.625L139.598 170.561C139.584 170.63 139.556 170.695 139.516 170.75C139.47 170.817 134.901 177.264 127.422 181.773C120.697 185.828 110.228 189.086 98.0831 182.134C99.5782 186.689 101.128 190.233 102.394 193.129C105.029 199.153 106.77 203.134 104.884 209.087C100.984 221.396 87.6174 220.282 80.4364 219.683C78.6298 219.531 77.07 219.402 76.3488 219.559L75.6799 219.706C70.3679 220.867 61.6492 222.773 53.3533 222.773Z"/>
</mask>
<path d="M129.075 167.675H129.08V168.824H129.075V167.675ZM36.8093 134.534L35.7933 133.997L35.8215 133.943L35.8551 133.893L36.8093 134.534ZM39.3445 172.226L38.3436 172.791L38.3402 172.785L39.3445 172.226ZM39.4087 172.463L38.2597 172.489L38.2596 172.485L39.4087 172.463ZM34.6835 199.049L35.7069 199.572L35.7069 199.572L34.6835 199.049ZM33.0387 209.872L31.9121 210.099L31.912 210.099L33.0387 209.872ZM38.6765 218.371L39.3047 217.408L39.3047 217.408L38.6765 218.371ZM75.4609 218.702L75.2152 217.58L75.2175 217.579L75.4609 218.702ZM76.1305 218.557L76.377 219.68L76.3738 219.681L76.1305 218.557ZM80.5216 218.661L80.4262 219.806L80.4261 219.806L80.5216 218.661ZM103.906 208.778L102.81 208.431V208.431L103.906 208.778ZM101.455 193.539L100.402 194L100.402 194L101.455 193.539ZM96.6912 181.153L95.5942 181.496L95.5938 181.495L96.6912 181.153ZM96.8666 180.594L96.1623 179.686L96.1635 179.685L96.8666 180.594ZM97.4513 180.564L98.0571 179.587L98.058 179.588L97.4513 180.564ZM126.865 180.912L126.272 179.927L126.272 179.927L126.865 180.912ZM138.616 170.246L139.741 170.479L139.691 170.722L139.545 170.923L138.616 170.246ZM140.144 162.875L139.428 161.976L141.915 159.994L141.269 163.108L140.144 162.875ZM129.228 168.737L128.885 167.641L128.885 167.64L129.228 168.737ZM110.612 165.208L110.038 166.203L110.038 166.203L110.612 165.208ZM97.793 149.276L98.9144 149.024L98.9144 149.024L97.793 149.276ZM90.1054 131.14L89.2128 131.864L89.2079 131.858L89.2031 131.852L90.1054 131.14ZM90.0612 131.076L91.053 130.495L91.0597 130.506L90.0612 131.076ZM87.2835 127.764L86.5253 128.628L86.5247 128.628L87.2835 127.764ZM56.9217 123.716L56.7353 122.582L56.7355 122.582L56.9217 123.716ZM39.239 130.58L40.0983 131.344L40.0982 131.344L39.239 130.58ZM36.8632 134.43L35.7892 134.021L35.7917 134.015L36.8632 134.43ZM53.3533 222.773L53.3528 221.624H53.3533V222.773ZM38.1158 219.23L37.4878 220.192L37.4875 220.192L38.1158 219.23ZM32.0332 210.074L30.9065 210.302L30.9065 210.301L32.0332 210.074ZM33.77 198.582L32.7466 198.059L32.7466 198.059L33.77 198.582ZM38.3864 172.613L39.3919 172.056L39.5292 172.304L39.5354 172.588L38.3864 172.613ZM35.9278 134.007L36.9976 134.427L36.9737 134.488L36.943 134.546L35.9278 134.007ZM38.4725 129.899L39.3318 130.662L39.3317 130.662L38.4725 129.899ZM56.7543 122.705L56.9407 123.84L56.9405 123.84L56.7543 122.705ZM87.9605 126.993L87.2023 127.857L87.2017 127.856L87.9605 126.993ZM90.9265 130.525L90.0322 131.247L89.979 131.181L89.9361 131.108L90.9265 130.525ZM98.7935 149.052L97.6721 149.304L97.6721 149.304L98.7935 149.052ZM111.125 164.319L111.7 163.323L111.7 163.323L111.125 164.319ZM128.922 167.759L129.265 168.856L129.265 168.856L128.922 167.759ZM140.599 161.146L139.802 160.317L139.809 160.31L139.817 160.303L140.599 161.146ZM141.2 161.074L140.641 162.079L140.631 162.073L141.2 161.074ZM141.451 161.625L140.325 161.391L140.325 161.391L141.451 161.625ZM139.598 170.561L138.472 170.332L138.473 170.328L139.598 170.561ZM139.516 170.75L138.565 170.104L138.575 170.09L138.585 170.075L139.516 170.75ZM127.422 181.773L126.828 180.788L126.828 180.788L127.422 181.773ZM98.0831 182.134L96.9911 182.493L96.0583 179.651L98.6541 181.137L98.0831 182.134ZM102.394 193.129L101.341 193.59L101.341 193.59L102.394 193.129ZM104.884 209.087L103.788 208.739L103.788 208.739L104.884 209.087ZM80.4364 219.683L80.3409 220.829L80.3401 220.829L80.4364 219.683ZM76.3488 219.559L76.1015 218.437L76.1049 218.436L76.3488 219.559ZM75.6799 219.706L75.9272 220.829L75.9252 220.829L75.6799 219.706ZM37.8253 135.071C30.2959 149.309 36.0887 164.013 40.3487 171.667L38.3402 172.785C33.9908 164.97 27.6901 149.32 35.7933 133.997L37.8253 135.071ZM40.3453 171.661C40.4812 171.902 40.5526 172.171 40.5578 172.441L38.2596 172.485C38.2616 172.589 38.2884 172.693 38.3436 172.791L40.3453 171.661ZM40.5578 172.437C40.7494 180.803 40.103 186.498 39.1148 190.664C38.1227 194.846 36.7951 197.443 35.7069 199.572L33.66 198.526C34.7262 196.44 35.9513 194.041 36.8783 190.133C37.8092 186.208 38.4482 180.718 38.2597 172.489L40.5578 172.437ZM35.7069 199.572C34.8702 201.21 34.2594 202.419 33.954 203.866C33.6535 205.289 33.6367 207.021 34.1654 209.645L31.912 210.099C31.3419 207.269 31.3215 205.207 31.705 203.391C32.0836 201.597 32.8447 200.122 33.6601 198.526L35.7069 199.572ZM34.1654 209.645C34.85 213.041 36.5775 215.629 39.3047 217.408L38.0483 219.333C34.7775 217.199 32.7117 214.066 31.9121 210.099L34.1654 209.645ZM39.3047 217.408C43.7816 220.33 50.4454 220.925 57.2915 220.467C64.0863 220.013 70.7994 218.546 75.2152 217.58L75.7066 219.825C71.3041 220.788 64.4335 222.294 57.4448 222.761C50.5074 223.224 43.1882 222.688 38.0483 219.333L39.3047 217.408ZM75.2175 217.579L75.8871 217.434L76.3738 219.681L75.7042 219.826L75.2175 217.579ZM75.884 217.435C76.4715 217.306 77.1826 217.296 77.9305 217.325C78.695 217.355 79.604 217.431 80.6171 217.516L80.4261 219.806C79.395 219.72 78.5436 219.649 77.8412 219.622C77.1222 219.594 76.6599 219.618 76.377 219.68L75.884 217.435ZM80.617 217.516C84.3392 217.826 89.0821 218.211 93.3355 217.158C97.5035 216.126 101.13 213.734 102.81 208.431L105.002 209.125C103.029 215.351 98.654 218.209 93.8881 219.389C89.2077 220.548 84.0847 220.111 80.4262 219.806L80.617 217.516ZM102.81 208.431C104.435 203.304 103.047 200.05 100.402 194L102.508 193.079C105.126 199.067 106.917 203.079 105.002 209.125L102.81 208.431ZM100.402 194C99.0067 190.809 97.2504 186.797 95.5942 181.496L97.7882 180.811C99.404 185.982 101.116 189.895 102.508 193.079L100.402 194ZM95.5938 181.495C95.388 180.834 95.6129 180.112 96.1623 179.686L97.571 181.502C97.7819 181.338 97.8668 181.063 97.7886 180.812L95.5938 181.495ZM96.1635 179.685C96.714 179.259 97.469 179.222 98.0571 179.587L96.8455 181.541C97.0697 181.68 97.3586 181.666 97.5698 181.503L96.1635 179.685ZM98.058 179.588C102.804 182.538 107.523 184.009 112.193 184.065C116.863 184.12 121.562 182.76 126.272 179.927L127.457 181.896C122.438 184.916 117.324 186.424 112.166 186.363C107.009 186.302 101.886 184.674 96.8446 181.54L98.058 179.588ZM126.272 179.927C132.922 175.927 137.165 170.286 137.687 169.569L139.545 170.923C138.956 171.73 134.497 177.662 127.457 181.896L126.272 179.927ZM137.491 170.012L139.019 162.642L141.269 163.108L139.741 170.479L137.491 170.012ZM140.86 163.774C138.95 165.296 134.88 168.175 129.571 169.834L128.885 167.64C133.819 166.099 137.634 163.406 139.428 161.976L140.86 163.774ZM129.571 169.834C124.228 171.506 116.579 169.977 110.038 166.203L111.187 164.212C117.415 167.806 124.379 169.05 128.885 167.641L129.571 169.834ZM110.038 166.203C103.077 162.185 98.1552 156.139 96.6716 149.527L98.9144 149.024C100.227 154.874 104.65 160.438 111.187 164.212L110.038 166.203ZM96.6716 149.527C94.2849 138.897 90.6047 133.58 89.2128 131.864L90.998 130.416C92.6129 132.407 96.4499 138.047 98.9144 149.024L96.6716 149.527ZM89.2031 131.852C89.1635 131.802 89.1127 131.732 89.0627 131.645L91.0597 130.506C91.036 130.465 91.0146 130.437 91.0078 130.428L89.2031 131.852ZM89.0695 131.656C88.4309 130.566 87.6043 129.575 86.5253 128.628L88.0417 126.901C89.2871 127.994 90.2781 129.172 91.0529 130.495L89.0695 131.656ZM86.5247 128.628C82.4881 125.079 76.8411 123.825 71.2512 123.634C65.6816 123.445 60.3586 124.317 57.1079 124.85L56.7355 122.582C59.9786 122.05 65.5065 121.139 71.3294 121.337C77.132 121.535 83.419 122.837 88.0423 126.901L86.5247 128.628ZM57.108 124.85C49.4191 126.114 43.8926 127.072 40.0983 131.344L38.3797 129.817C42.816 124.823 49.2632 123.81 56.7353 122.582L57.108 124.85ZM40.0982 131.344C39.1307 132.433 38.4279 133.576 37.9346 134.846L35.7917 134.015C36.389 132.476 37.24 131.1 38.3799 129.817L40.0982 131.344ZM37.9371 134.84C37.8903 134.963 37.8309 135.074 37.7635 135.175L35.8551 133.893C35.8309 133.929 35.8079 133.972 35.7892 134.021L37.9371 134.84ZM53.3537 223.923C47.5818 223.925 41.8235 223.021 37.4878 220.192L38.7438 218.267C42.5249 220.734 47.7465 221.626 53.3528 221.624L53.3537 223.923ZM37.4875 220.192C33.9791 217.902 31.7626 214.549 30.9065 210.302L33.1598 209.847C33.9003 213.521 35.777 216.33 38.7441 218.267L37.4875 220.192ZM30.9065 210.301C30.2997 207.291 30.2957 205.079 30.7062 203.151C31.1122 201.245 31.9123 199.692 32.7466 198.059L34.7935 199.105C33.9407 200.774 33.2875 202.066 32.9545 203.63C32.626 205.172 32.5971 207.055 33.1598 209.847L30.9065 210.301ZM32.7466 198.059C33.7852 196.027 34.9773 193.693 35.881 189.881C36.7887 186.052 37.4142 180.689 37.2373 172.638L39.5354 172.588C39.7152 180.775 39.0823 186.342 38.1176 190.411C37.1488 194.498 35.8544 197.029 34.7934 199.105L32.7466 198.059ZM37.3809 173.169C32.9282 165.127 26.5833 149.161 34.9127 133.468L36.943 134.546C29.1862 149.16 35.0328 164.183 39.3919 172.056L37.3809 173.169ZM34.8581 133.587C35.4987 131.956 36.4046 130.496 37.6133 129.135L39.3317 130.662C38.2939 131.83 37.5346 133.06 36.9976 134.427L34.8581 133.587ZM37.6132 129.136C42.2899 123.871 49.1995 122.782 56.568 121.571L56.9405 123.84C49.3645 125.084 43.3683 126.118 39.3318 130.662L37.6132 129.136ZM56.5678 121.571C59.8838 121.026 65.5332 120.095 71.5055 120.317C77.4604 120.538 83.9178 121.909 88.7193 126.13L87.2017 127.856C82.9792 124.144 77.1528 122.826 71.4203 122.614C65.7051 122.402 60.2635 123.293 56.9407 123.84L56.5678 121.571ZM88.7188 126.129C90.0373 127.287 91.0891 128.536 91.917 129.942L89.9361 131.108C89.2433 129.931 88.3545 128.868 87.2023 127.857L88.7188 126.129ZM91.8209 129.803C93.4951 131.878 97.4161 137.668 99.9149 148.801L97.6721 149.304C95.2515 138.52 91.4877 133.05 90.0322 131.247L91.8209 129.803ZM99.9149 148.8C101.165 154.367 105.408 159.693 111.7 163.323L110.551 165.314C103.84 161.442 99.0942 155.638 97.6721 149.304L99.9149 148.8ZM111.7 163.323C117.697 166.785 124.34 167.987 128.579 166.662L129.265 168.856C124.179 170.446 116.849 168.949 110.551 165.314L111.7 163.323ZM128.579 166.662C135.155 164.606 139.812 160.308 139.802 160.317L141.395 161.974C141.29 162.075 136.329 166.647 129.265 168.856L128.579 166.662ZM139.817 160.303C140.343 159.815 141.132 159.713 141.769 160.076L140.631 162.073C140.88 162.215 141.182 162.172 141.381 161.988L139.817 160.303ZM141.759 160.07C142.396 160.424 142.723 161.151 142.576 161.858L140.325 161.391C140.269 161.661 140.393 161.941 140.641 162.079L141.759 160.07ZM142.576 161.858L140.723 170.794L138.473 170.328L140.325 161.391L142.576 161.858ZM140.724 170.79C140.679 171.015 140.586 171.232 140.446 171.425L138.585 170.075C138.526 170.157 138.489 170.246 138.472 170.332L140.724 170.79ZM140.467 171.396C140.378 171.526 135.696 178.126 128.015 182.757L126.828 180.788C130.454 178.602 133.388 175.938 135.425 173.802C137.463 171.665 138.577 170.086 138.565 170.104L140.467 171.396ZM128.015 182.757C121.062 186.95 110.133 190.356 97.5122 183.132L98.6541 181.137C110.324 187.816 120.331 184.706 126.828 180.788L128.015 182.757ZM99.1751 181.776C100.652 186.274 102.182 189.774 103.447 192.669L101.341 193.59C100.074 190.691 98.5047 187.104 96.9911 182.493L99.1751 181.776ZM103.447 192.669C106.07 198.665 108.011 203.024 105.979 209.434L103.788 208.739C105.529 203.245 103.988 199.641 101.341 193.59L103.447 192.669ZM105.979 209.434C103.882 216.054 99.1888 219.082 94.1701 220.34C89.2297 221.579 83.9044 221.126 80.3409 220.829L80.5319 218.538C84.1494 218.84 89.0979 219.243 93.611 218.111C98.0458 216.999 101.985 214.43 103.788 208.739L105.979 209.434ZM80.3401 220.829C79.4305 220.752 78.613 220.684 77.934 220.654C77.2198 220.622 76.789 220.639 76.5926 220.682L76.1049 218.436C76.6297 218.322 77.3395 218.326 78.037 218.357C78.7699 218.39 79.6357 218.463 80.5327 218.538L80.3401 220.829ZM76.5961 220.681L75.9272 220.829L75.4326 218.584L76.1015 218.437L76.5961 220.681ZM75.9252 220.829C70.6282 221.986 61.792 223.923 53.3533 223.923V221.624C61.5065 221.624 70.1076 219.747 75.4345 218.583L75.9252 220.829Z" fill="#232529" mask="url(#path-56-inside-2_2_190627)"/>
<path d="M87.1106 165.868C87.1106 165.868 104.429 159.557 109.836 148.014L120.984 137.626C120.984 137.626 120.826 142.648 117.516 144.744C117.516 144.744 120.357 150.466 116.164 154.415C116.164 154.415 113.02 156.916 111.145 156.962C111.145 156.962 105.655 174.994 90.8335 180.363C90.8335 180.363 86.6711 174.036 87.1106 165.868Z" fill="white"/>
<path d="M87.605 166.23C87.3492 172.912 90.2341 178.342 91.049 179.735C105.17 174.338 110.599 156.987 110.653 156.812C110.717 156.601 110.91 156.453 111.13 156.449C112.527 156.414 115.006 154.68 115.843 154.015C119.671 150.407 117.163 145.191 117.054 144.972C116.938 144.737 117.017 144.452 117.239 144.311C119.261 143.031 120.021 140.517 120.304 138.958L110.255 148.323C105.122 159.136 90.0734 165.284 87.605 166.23ZM90.8314 180.875C90.6627 180.875 90.4999 180.792 90.4029 180.645C90.2291 180.38 86.1527 174.082 86.5962 165.841C86.607 165.636 86.7397 165.459 86.9324 165.387C87.1037 165.325 104.116 159.011 109.369 147.798C109.397 147.738 109.436 147.685 109.484 147.639L120.632 137.252C120.783 137.111 121.005 137.074 121.193 137.159C121.381 137.245 121.5 137.436 121.494 137.643C121.487 137.853 121.301 142.603 118.15 144.929C118.722 146.368 120.263 151.258 116.513 154.788C116.357 154.915 113.542 157.137 111.525 157.441C110.676 159.939 104.782 175.855 91.006 180.845C90.9489 180.866 90.8897 180.875 90.8314 180.875Z" fill="#232529"/>
<path d="M71.4965 186.09C57.0663 186.09 48.7835 178.94 48.6725 178.841C48.4607 178.655 48.4413 178.33 48.629 178.118C48.8169 177.906 49.1406 177.888 49.3527 178.074C49.4987 178.203 64.2388 190.879 88.7708 181.777C89.0352 181.68 89.3315 181.814 89.4298 182.081C89.5286 182.346 89.3932 182.64 89.1275 182.74C82.5355 185.185 76.6265 186.09 71.4965 186.09Z" fill="#232529"/>
<path d="M80.3579 166.562C67.7862 166.562 60.4664 159.404 56.4568 153.092C51.7422 145.668 50.4868 137.78 50.4748 137.701C50.4317 137.42 50.6235 137.16 50.9035 137.116C51.1872 137.073 51.4454 137.266 51.4884 137.545C51.5004 137.623 52.7305 145.325 57.3394 152.567C63.4798 162.215 72.3959 166.519 83.8379 165.356C84.1172 165.326 84.3712 165.531 84.4002 165.814C84.4285 166.095 84.2234 166.346 83.9418 166.376C82.7025 166.503 81.5076 166.562 80.3579 166.562Z" fill="#232529"/>
<path d="M90.1041 157.473C90.0792 157.473 90.0543 157.473 90.0292 157.468C89.7488 157.427 89.5549 157.166 89.5959 156.885C91.8578 141.428 84.7836 132.68 84.7118 132.593C84.5312 132.376 84.5612 132.052 84.7788 131.872C84.9966 131.69 85.3194 131.72 85.5004 131.939C85.8055 132.305 92.9427 141.096 90.6106 157.035C90.5733 157.291 90.3541 157.473 90.1041 157.473Z" fill="#232529"/>
<path d="M86.9103 114.03C86.4295 110.811 87.2 102.265 87.059 102.473C85.6802 104.497 81.1401 102.102 77.0516 101.941C72.963 101.78 74.339 107.921 74.339 107.921C74.339 107.921 73.1419 103.755 70.5897 106.362C69.1088 107.877 70.7416 109.83 72.2623 111.108C71.8446 111.584 64.4789 119.521 59.9688 124.242L69.9742 131.836L74.9833 127.157L73.9623 125.529C73.2342 124.368 73.1691 122.913 73.7906 121.691L76.2399 117.539C76.8026 118.22 77.5125 118.999 78.1676 119.455C79.4723 120.367 81.0948 120.224 82.2456 119.125C83.8241 117.619 84.9277 115.927 85.4283 114.283L86.9103 114.03Z" fill="white"/>
<path d="M60.7334 124.176L69.9375 131.163L74.3213 127.068L73.5255 125.8C72.706 124.494 72.6316 122.829 73.3312 121.455L75.7954 117.275C75.8804 117.133 76.0301 117.038 76.1966 117.024C76.3633 117.01 76.5256 117.082 76.6322 117.209C77.3433 118.067 77.9576 118.682 78.4589 119.032C79.5598 119.799 80.9059 119.691 81.8889 118.751C83.4006 117.308 84.4538 115.71 84.9351 114.13C84.9917 113.946 85.1481 113.808 85.3394 113.775L86.3394 113.605C86.0961 111.166 86.3424 106.757 86.4797 104.311C86.4944 104.047 86.5091 103.786 86.5216 103.549C85.2936 104.074 83.4658 103.655 81.4261 103.185C79.9761 102.852 78.4769 102.508 77.0287 102.451C76.2746 102.421 75.7096 102.633 75.3193 103.103C74.3259 104.293 74.6342 106.902 74.8368 107.805C74.8974 108.076 74.7323 108.346 74.4638 108.415C74.1976 108.484 73.9213 108.327 73.8437 108.06C73.7095 107.597 73.1513 106.232 72.3758 106.038C71.9735 105.937 71.4943 106.165 70.9535 106.718C70.6424 107.035 70.5003 107.379 70.5192 107.768C70.5586 108.578 71.294 109.624 72.5899 110.713C72.6956 110.8 72.7608 110.929 72.7712 111.067C72.7817 111.203 72.7362 111.339 72.645 111.443C72.259 111.883 65.3594 119.325 60.7334 124.176ZM69.9718 132.344C69.8629 132.344 69.7535 132.309 69.6617 132.24L59.656 124.646C59.5395 124.559 59.4665 124.425 59.4548 124.28C59.443 124.133 59.4944 123.99 59.5952 123.884C63.7163 119.571 69.9677 112.845 71.5287 111.146C70.5586 110.259 69.5551 109.053 69.4947 107.818C69.4616 107.139 69.7059 106.527 70.2203 106.002C71.0354 105.168 71.8446 104.846 72.6279 105.044C73.0056 105.138 73.3291 105.348 73.6029 105.608C73.6204 104.519 73.8283 103.289 74.5315 102.446C75.1309 101.726 75.9813 101.382 77.0693 101.426C78.6129 101.486 80.2296 101.859 81.6559 102.186C83.9627 102.716 85.9561 103.174 86.633 102.182C86.7631 101.99 87.0093 101.907 87.2267 101.981C87.6296 102.117 87.6296 102.117 87.5037 104.369C87.3586 106.955 87.0894 111.77 87.415 113.95C87.456 114.227 87.269 114.487 86.9938 114.533L85.8174 114.733C85.2491 116.38 84.1411 118.019 82.5972 119.493C81.2663 120.764 79.3673 120.916 77.8715 119.873C77.4156 119.553 76.8936 119.064 76.3147 118.415L74.2297 121.95C73.7086 122.974 73.7654 124.252 74.3943 125.254L75.415 126.882C75.5456 127.089 75.5104 127.361 75.3308 127.529L70.3218 132.206C70.2235 132.298 70.098 132.344 69.9718 132.344Z" fill="#232529"/>
<path d="M76.241 118.051C76.0812 118.051 75.9237 117.977 75.8235 117.837L75.0413 116.745C74.8762 116.515 74.9294 116.195 75.1595 116.029C75.3895 115.866 75.7098 115.919 75.8751 116.149L76.6573 117.24C76.8224 117.471 76.7695 117.791 76.5392 117.954C76.4487 118.021 76.3444 118.051 76.241 118.051Z" fill="#232529"/>
<path d="M162.453 278.668C162.354 279.075 167.148 301.008 167.148 301.008L156.13 299.163L152.812 280.62L162.453 278.668Z" fill="white"/>
<path d="M156.569 298.715L166.482 300.375C163.21 285.383 162.282 280.752 162.034 279.274L153.403 281.021L156.569 298.715ZM167.145 301.52C167.118 301.52 167.088 301.517 167.06 301.513L156.044 299.668C155.83 299.631 155.662 299.466 155.623 299.251L152.305 280.708C152.256 280.434 152.435 280.172 152.708 280.117L162.349 278.164C162.522 278.127 162.699 278.182 162.819 278.309C162.92 278.413 162.971 278.551 162.964 278.691C163.038 279.601 165.798 292.438 167.645 300.898C167.682 301.064 167.634 301.236 167.516 301.361C167.419 301.462 167.284 301.52 167.145 301.52Z" fill="#232529"/>
<path d="M161.294 293.815C161.969 293.249 162.932 292.694 164.159 292.643C166.006 292.563 167.689 293.719 168.453 295.418C170.362 299.664 175.4 311.493 176.823 321.159C177.328 324.576 174.749 327.353 170.733 325.115C164.15 321.447 155.015 313.024 150.235 300.585C149.686 299.155 149.882 297.541 150.783 296.309C151.519 295.303 152.518 294.085 153.677 293.046C154.785 292.052 156.452 292.038 157.601 292.982L158.637 293.834C159.413 294.472 160.525 294.463 161.294 293.815Z" fill="white"/>
<path d="M155.667 292.794C155.075 292.794 154.488 293.006 154.021 293.425C153.072 294.274 152.122 295.345 151.197 296.611C150.401 297.698 150.221 299.114 150.714 300.399C155.393 312.571 164.251 320.916 170.982 324.667C172.571 325.551 174.014 325.648 175.041 324.938C176.061 324.234 176.55 322.813 176.317 321.231C174.917 311.719 170.024 300.158 167.986 295.626C167.288 294.079 165.764 293.086 164.18 293.153C163.268 293.192 162.409 293.547 161.626 294.205C160.668 295.011 159.273 295.02 158.31 294.228L157.274 293.376C156.802 292.987 156.231 292.794 155.667 292.794ZM173.446 326.438C172.64 326.438 171.65 326.212 170.482 325.562C163.595 321.724 154.532 313.193 149.756 300.768C149.138 299.156 149.367 297.376 150.37 296.006C151.337 294.682 152.335 293.558 153.335 292.662C154.633 291.497 156.565 291.465 157.926 292.584L158.962 293.436C159.542 293.913 160.385 293.908 160.965 293.42C161.914 292.623 163.01 292.177 164.136 292.128C166.126 292.043 168.053 293.28 168.921 295.205C170.977 299.775 175.912 311.443 177.333 321.082C177.623 323.053 176.969 324.853 175.624 325.781C175.184 326.085 174.457 326.438 173.446 326.438Z" fill="#232529"/>
<path d="M174.32 322.586C173.452 322.586 164.163 322.043 152.899 299.781C152.771 299.527 152.872 299.219 153.125 299.09C153.378 298.963 153.686 299.065 153.814 299.318C165.103 321.63 174.24 321.561 174.336 321.559C174.633 321.55 174.857 321.771 174.868 322.054C174.878 322.337 174.656 322.574 174.373 322.584C174.362 322.586 174.343 322.586 174.32 322.586Z" fill="#232529"/>
<path d="M167.27 310.332C167.065 310.332 166.872 310.208 166.794 310.005C166.69 309.743 166.819 309.446 167.081 309.342L172.304 307.281C172.569 307.177 172.866 307.306 172.969 307.569C173.073 307.834 172.944 308.131 172.681 308.234L167.459 310.295C167.397 310.321 167.332 310.332 167.27 310.332Z" fill="#232529"/>
<path d="M165.434 306.328C165.229 306.328 165.036 306.204 164.957 306.001C164.854 305.736 164.985 305.439 165.247 305.338L171.375 302.955C171.637 302.851 171.934 302.982 172.038 303.245C172.142 303.51 172.01 303.807 171.746 303.91L165.621 306.294C165.561 306.317 165.496 306.328 165.434 306.328Z" fill="#232529"/>
<path d="M115.039 280.663C114.778 280.992 109.909 302.906 109.909 302.906L100.688 296.604L105.47 278.383L115.039 280.663Z" fill="white"/>
<path d="M101.28 296.381L109.577 302.055C112.908 287.076 114.014 282.482 114.409 281.036L105.844 278.996L101.28 296.381ZM109.914 303.418C109.812 303.418 109.711 303.388 109.624 303.328L100.403 297.024C100.224 296.902 100.141 296.68 100.197 296.471L104.979 278.25C105.05 277.981 105.324 277.817 105.594 277.882L115.163 280.161C115.334 280.203 115.472 280.327 115.529 280.493C115.576 280.629 115.563 280.774 115.498 280.898C115.183 281.757 112.292 294.564 110.414 303.017C110.377 303.183 110.261 303.319 110.102 303.383C110.041 303.406 109.977 303.418 109.914 303.418Z" fill="#232529"/>
<path d="M107.63 293.923C108.48 293.691 109.587 293.594 110.721 294.062C112.43 294.766 113.472 296.523 113.451 298.386C113.4 303.042 112.999 315.891 110.228 325.262C109.248 328.573 105.741 330.01 103.037 326.292C98.6057 320.194 93.8588 308.713 94.7492 295.416C94.8515 293.889 95.7083 292.507 97.0436 291.768C98.1346 291.165 99.553 290.476 101.041 290.023C102.464 289.588 103.983 290.274 104.628 291.614L105.209 292.823C105.646 293.728 106.66 294.186 107.63 293.923Z" fill="white"/>
<path d="M101.915 290.399C101.675 290.399 101.43 290.435 101.189 290.509C99.9711 290.882 98.6593 291.453 97.2897 292.213C96.1096 292.865 95.3504 294.074 95.2586 295.446C94.3875 308.456 98.9186 319.753 103.45 325.986C104.519 327.455 105.785 328.15 107.019 327.938C108.24 327.727 109.28 326.644 109.734 325.111C112.46 315.893 112.882 303.344 112.936 298.375C112.955 296.68 111.985 295.135 110.524 294.532C109.679 294.184 108.75 294.145 107.763 294.412C106.555 294.741 105.286 294.163 104.745 293.04L104.164 291.833C103.731 290.935 102.851 290.399 101.915 290.399ZM106.585 329C105.567 329 104.065 328.576 102.62 326.589C97.9835 320.211 93.3457 308.661 94.2355 295.377C94.3506 293.657 95.3067 292.137 96.793 291.315C98.2248 290.523 99.6029 289.922 100.889 289.528C102.556 289.017 104.322 289.8 105.088 291.389L105.669 292.595C105.996 293.275 106.763 293.622 107.494 293.424C108.689 293.1 109.872 293.155 110.914 293.583C112.76 294.345 113.985 296.275 113.962 298.386C113.907 303.397 113.48 316.059 110.717 325.403C110.152 327.312 108.802 328.671 107.193 328.949C107.019 328.979 106.814 329 106.585 329Z" fill="#232529"/>
<path d="M107.599 325.559C107.532 325.559 107.465 325.547 107.4 325.519C107.033 325.365 98.3882 321.439 97.5003 295.802C97.4904 295.518 97.7119 295.281 97.9949 295.27C98.2719 295.263 98.5151 295.482 98.5255 295.765C99.3906 320.753 107.714 324.539 107.798 324.573C108.059 324.684 108.181 324.985 108.072 325.245C107.989 325.441 107.799 325.559 107.599 325.559Z" fill="#232529"/>
<path d="M111.931 311.785C111.921 311.785 111.911 311.785 111.901 311.785L106.296 311.458C106.013 311.442 105.797 311.2 105.813 310.917C105.83 310.634 106.068 310.42 106.355 310.436L111.96 310.76C112.243 310.777 112.459 311.018 112.442 311.302C112.427 311.576 112.201 311.785 111.931 311.785Z" fill="#232529"/>
<path d="M112.901 307.477C112.891 307.477 112.88 307.477 112.869 307.477L106.309 307.064C106.026 307.046 105.811 306.802 105.829 306.521C105.847 306.238 106.094 306.024 106.373 306.04L112.933 306.452C113.216 306.47 113.431 306.714 113.413 306.995C113.396 307.267 113.17 307.477 112.901 307.477Z" fill="#232529"/>
<path d="M137.619 198.515L137.932 198.178L137.619 198.515C137.221 198.145 136.589 197.783 135.719 197.439C134.854 197.098 133.782 196.786 132.527 196.503C130.019 195.937 126.818 195.494 123.167 195.152C115.866 194.469 106.808 194.195 97.969 194.133C89.1317 194.071 80.5223 194.222 74.1215 194.388C70.9213 194.471 68.2737 194.558 66.4263 194.625C65.5026 194.658 64.779 194.686 64.2864 194.705C64.1082 194.712 63.9602 194.718 63.8439 194.723L53.8431 223.32L53.8733 223.322L55.7272 223.387C57.3273 223.444 59.6202 223.525 62.3909 223.622C67.9323 223.817 75.3849 224.076 83.03 224.336C98.3274 224.854 114.376 225.373 117.446 225.373C118.01 225.373 118.578 225.721 119.115 226.197C119.67 226.69 120.275 227.397 120.918 228.272C122.206 230.023 123.695 232.511 125.297 235.475C128.502 241.408 132.194 249.311 135.688 257.203C139.183 265.097 142.485 272.99 144.913 278.909C146.127 281.869 147.123 284.336 147.815 286.062C148.161 286.926 148.431 287.604 148.615 288.067C148.664 288.19 148.707 288.299 148.744 288.391L164.425 283.994C164.398 283.873 164.365 283.726 164.326 283.555C164.199 282.99 164.011 282.16 163.767 281.1C163.281 278.98 162.575 275.941 161.696 272.266C159.939 264.914 157.494 255.017 154.737 244.833C151.98 234.647 148.915 224.18 145.92 215.688C144.422 211.441 142.944 207.695 141.534 204.729C140.117 201.746 138.793 199.605 137.619 198.515Z" fill="white" stroke="#232529" stroke-width="0.919458"/>
<path d="M102.913 226.354C103.469 226.328 103.884 226.3 104.15 226.271C104.276 226.176 104.465 226.097 104.695 226.174C104.723 226.184 104.772 226.202 104.823 226.234C104.855 226.254 104.993 226.342 105.039 226.529C105.097 226.768 104.96 226.934 104.893 226.994C104.829 227.052 104.762 227.08 104.734 227.091C104.709 227.101 104.682 227.11 104.654 227.118C104.647 227.133 104.64 227.15 104.633 227.168C104.532 227.416 104.418 227.824 104.297 228.395C104.057 229.529 103.806 231.214 103.553 233.32C103.046 237.527 102.534 243.372 102.077 249.759C101.179 262.309 100.494 276.923 100.47 285.279L115.676 285.864C115.72 285.748 115.776 285.6 115.844 285.422C116.03 284.932 116.302 284.213 116.647 283.294C117.338 281.457 118.321 278.824 119.493 275.641C121.837 269.275 124.933 260.71 127.943 251.913C130.953 243.115 133.875 234.092 135.873 226.807C136.872 223.163 137.637 219.964 138.067 217.45C138.282 216.193 138.411 215.116 138.446 214.246C138.481 213.363 138.416 212.741 138.276 212.364L138.276 212.364C137.111 209.202 133.962 206.582 129.57 204.41C125.193 202.246 119.669 200.569 113.896 199.247C105.161 197.247 95.925 196.072 89.311 195.23C87.1776 194.959 85.317 194.722 83.8339 194.503C83.0482 194.388 79.2245 194.146 74.3814 193.872C69.5565 193.599 63.76 193.295 59.0629 193.055C53.9809 192.797 49.4407 196.19 48.2445 201.136C47.2806 205.123 46.3876 209.818 46.2697 213.867C46.2108 215.892 46.3467 217.732 46.7517 219.231C47.1572 220.732 47.8188 221.844 48.7742 222.487C49.5745 223.025 51.0599 223.523 53.1149 223.964C55.1512 224.4 57.6869 224.769 60.5394 225.077C66.243 225.695 73.1786 226.069 79.8473 226.278C86.5145 226.486 92.907 226.528 97.5212 226.482C99.829 226.458 101.688 226.412 102.913 226.354Z" fill="white" stroke="#232529" stroke-width="0.919458"/>
<path d="M106.366 192.577H293.348C298.131 192.577 301.85 195.725 301.309 199.317L283.576 316.965H270.771L281.872 206.549C282.068 204.604 280.03 202.944 277.449 202.944H126.828C122.964 202.944 119.917 205.426 120.21 208.339L131.2 317.656H118.395L100.36 197.661C99.9525 194.951 102.757 192.577 106.366 192.577Z" fill="white"/>
<path d="M118.833 317.139H130.629L119.696 208.386C119.567 207.108 120.016 205.828 120.96 204.785C122.295 203.309 124.488 202.427 126.824 202.427H277.445C279.052 202.427 280.565 203.037 281.488 204.059C282.154 204.791 282.469 205.694 282.377 206.597L271.334 316.449H283.13L300.798 199.238C300.99 197.976 300.6 196.741 299.679 195.668C298.288 194.052 295.919 193.087 293.345 193.087H106.363C104.456 193.087 102.705 193.799 101.68 194.989C101.008 195.77 100.726 196.665 100.863 197.58L118.833 317.139ZM131.196 318.164H118.392C118.138 318.164 117.922 317.98 117.885 317.729L99.8491 197.734C99.6685 196.532 100.043 195.318 100.903 194.321C102.12 192.905 104.162 192.062 106.363 192.062H293.345C296.214 192.062 298.873 193.159 300.455 194.998C301.563 196.286 302.044 197.847 301.812 199.389L284.079 317.038C284.04 317.289 283.826 317.473 283.572 317.473H270.767C270.622 317.473 270.484 317.413 270.387 317.305C270.288 317.197 270.242 317.054 270.256 316.909L281.357 206.493C281.436 205.71 281.058 205.112 280.729 204.748C279.996 203.937 278.767 203.454 277.445 203.454H126.824C124.773 203.454 122.865 204.209 121.72 205.473C120.963 206.311 120.616 207.283 120.716 208.282L131.706 317.6C131.721 317.745 131.674 317.888 131.577 317.996C131.479 318.104 131.341 318.164 131.196 318.164Z" fill="#232529"/>
<path d="M169.673 193.746H101.795C99.9404 193.746 98.4375 192.242 98.4375 190.389V189.742H173.03V190.389C173.03 192.242 171.528 193.746 169.673 193.746Z" fill="#232529"/>
<path d="M98.9553 190.251V190.387C98.9553 191.955 100.231 193.231 101.8 193.231H169.678C171.246 193.231 172.524 191.955 172.524 190.387V190.251H98.9553ZM169.678 194.258H101.8C99.6659 194.258 97.9297 192.522 97.9297 190.387V189.74C97.9297 189.457 98.1593 189.227 98.4425 189.227H173.035C173.318 189.227 173.548 189.457 173.548 189.74V190.387C173.548 192.522 171.812 194.258 169.678 194.258Z" fill="#232529"/>
<path d="M173.042 189.812H130.359L143.921 149.894C144.732 148.646 146.146 147.888 147.666 147.888H183.747C185.384 147.888 186.439 149.477 185.904 150.88C185.69 151.437 185.462 151.987 185.276 152.554L173.042 189.812Z" fill="#232529"/>
<path d="M131.072 189.297H172.668L184.785 152.393C184.923 151.974 185.084 151.562 185.241 151.163L185.42 150.694C185.614 150.192 185.54 149.618 185.225 149.162C184.891 148.676 184.352 148.398 183.744 148.398H147.663C146.329 148.398 145.108 149.04 144.382 150.12L131.072 189.297ZM173.039 190.324H130.357C130.191 190.324 130.036 190.244 129.94 190.11C129.843 189.974 129.818 189.802 129.871 189.645L143.432 149.726C143.446 149.687 143.465 149.648 143.488 149.614C144.399 148.211 145.96 147.373 147.663 147.373H183.744C184.693 147.373 185.54 147.813 186.07 148.58C186.576 149.314 186.691 150.242 186.381 151.06L186.194 151.536C186.044 151.921 185.89 152.319 185.761 152.713L173.525 189.972C173.458 190.181 173.26 190.324 173.039 190.324Z" fill="#232529"/>
<path d="M157.203 168.31C156.694 169.998 157.472 171.725 158.939 172.169C160.406 172.612 162.008 171.603 162.517 169.915C163.026 168.227 162.248 166.5 160.781 166.056C159.312 165.614 157.712 166.622 157.203 168.31Z" fill="white"/>
<path d="M215.975 94.8271C226.693 94.8271 235.382 86.1378 235.382 75.419C235.382 64.7016 226.693 56.0124 215.975 56.0124C205.256 56.0124 196.567 64.7016 196.567 75.419C196.567 86.1378 205.256 94.8271 215.975 94.8271Z" fill="#F4F4F4" stroke="#232529" stroke-width="0.791183"/>
<path fill-rule="evenodd" clip-rule="evenodd" d="M210.373 68.6305V70.1169L208.6 70.2613C207.99 70.3104 207.415 70.5622 206.966 70.9767C206.517 71.3911 206.22 71.9442 206.122 72.5475C206.079 72.8175 206.038 73.0876 206.003 73.3587C205.994 73.4242 206.007 73.4908 206.038 73.5487C206.07 73.6067 206.12 73.653 206.179 73.6811L206.26 73.7188C211.943 76.4089 218.748 76.4089 224.43 73.7188L224.51 73.6811C224.57 73.6529 224.619 73.6064 224.651 73.5485C224.682 73.4906 224.695 73.4241 224.686 73.3587C224.651 73.0877 224.611 72.8173 224.568 72.5475C224.47 71.9442 224.173 71.3911 223.724 70.9767C223.275 70.5622 222.699 70.3104 222.09 70.2613L220.317 70.1179V68.6315C220.317 68.1928 220.16 67.7686 219.873 67.4361C219.587 67.1035 219.191 66.8848 218.757 66.8196L217.48 66.628C216.065 66.4157 214.625 66.4157 213.21 66.628L211.932 66.8196C211.499 66.8848 211.103 67.1033 210.817 67.4357C210.53 67.768 210.373 68.1919 210.373 68.6305ZM217.247 68.1804C215.986 67.9913 214.704 67.9913 213.443 68.1804L212.166 68.3719C212.104 68.3812 212.047 68.4124 212.006 68.4598C211.966 68.5073 211.943 68.5678 211.943 68.6305V70.007C214.209 69.8772 216.481 69.8772 218.747 70.007V68.6305C218.747 68.5678 218.724 68.5073 218.683 68.4598C218.642 68.4124 218.586 68.3812 218.524 68.3719L217.247 68.1804Z" fill="#232529"/>
<mask id="path-91-inside-3_2_190627" fill="white">
<path d="M224.886 75.5481C224.884 75.5143 224.874 75.4814 224.857 75.4524C224.839 75.4234 224.815 75.3991 224.786 75.3816C224.757 75.3641 224.724 75.3539 224.69 75.3519C224.656 75.3499 224.622 75.3562 224.591 75.3701C218.76 77.9525 211.924 77.9525 206.093 75.3701C206.062 75.3562 206.028 75.3499 205.994 75.3519C205.961 75.3539 205.928 75.3641 205.899 75.3816C205.87 75.3991 205.845 75.4234 205.828 75.4524C205.81 75.4814 205.8 75.5143 205.798 75.5481C205.691 77.5521 205.799 79.5618 206.119 81.5429C206.217 82.1462 206.514 82.6992 206.963 83.1137C207.413 83.5281 207.988 83.78 208.597 83.829L210.556 83.9881C213.742 84.2446 216.942 84.2446 220.128 83.9881L222.087 83.83C222.697 83.781 223.272 83.5289 223.721 83.1143C224.17 82.6997 224.468 82.1463 224.565 81.5429C224.885 79.5593 224.994 77.5495 224.886 75.5491V75.5481Z"/>
</mask>
<path d="M224.886 75.5481H225.796V75.5202L225.795 75.4924L224.886 75.5481ZM224.591 75.3701L224.96 76.2021L224.966 76.1992L224.591 75.3701ZM206.093 75.3701L205.718 76.1992L205.725 76.2021L206.093 75.3701ZM205.798 75.5481L204.89 75.4924L204.889 75.4996L205.798 75.5481ZM206.119 81.5429L205.221 81.6882L205.221 81.6884L206.119 81.5429ZM208.597 83.829L208.67 82.9222L208.67 82.9221L208.597 83.829ZM210.556 83.9881L210.483 84.8949L210.483 84.895L210.556 83.9881ZM220.128 83.9881L220.201 84.895L220.201 84.895L220.128 83.9881ZM222.087 83.83L222.014 82.9232L222.014 82.9232L222.087 83.83ZM224.565 81.5429L225.463 81.6881L225.463 81.6879L224.565 81.5429ZM224.886 75.5491H223.977V75.5736L223.978 75.5981L224.886 75.5491ZM225.795 75.4924C225.784 75.3114 225.729 75.1359 225.635 74.9809L224.078 75.9239C224.02 75.8269 223.985 75.7171 223.978 75.6038L225.795 75.4924ZM225.635 74.9809C225.541 74.8259 225.411 74.696 225.255 74.6024L224.316 76.1608C224.219 76.1022 224.137 76.0209 224.078 75.9239L225.635 74.9809ZM225.255 74.6024C225.1 74.5088 224.924 74.4544 224.744 74.4437L224.636 76.2602C224.523 76.2535 224.413 76.2194 224.316 76.1608L225.255 74.6024ZM224.744 74.4437C224.563 74.433 224.382 74.4664 224.217 74.5411L224.966 76.1992C224.863 76.2459 224.749 76.2669 224.636 76.2602L224.744 74.4437ZM224.223 74.5382C218.626 77.0167 212.058 77.0167 206.461 74.5382L205.725 76.2021C211.791 78.8883 218.894 78.8883 224.96 76.2021L224.223 74.5382ZM206.468 74.5411C206.303 74.4664 206.122 74.433 205.941 74.4437L206.048 76.2602C205.935 76.2669 205.822 76.2459 205.718 76.1992L206.468 74.5411ZM205.941 74.4437C205.76 74.4544 205.584 74.5088 205.429 74.6024L206.368 76.1608C206.271 76.2194 206.161 76.2535 206.048 76.2602L205.941 74.4437ZM205.429 74.6024C205.274 74.696 205.144 74.8259 205.05 74.9809L206.606 75.9239C206.547 76.021 206.466 76.1022 206.368 76.1608L205.429 74.6024ZM205.05 74.9809C204.956 75.1359 204.901 75.3115 204.89 75.4924L206.706 75.6038C206.699 75.717 206.665 75.8269 206.606 75.9239L205.05 74.9809ZM204.889 75.4996C204.779 77.5684 204.89 79.6431 205.221 81.6882L207.017 81.3975C206.707 79.4805 206.603 77.5358 206.706 75.5966L204.889 75.4996ZM205.221 81.6884C205.351 82.4926 205.748 83.2299 206.346 83.7823L207.58 82.445C207.281 82.1686 207.082 81.7997 207.017 81.3973L205.221 81.6884ZM206.346 83.7823C206.945 84.3348 207.712 84.6705 208.524 84.7359L208.67 82.9221C208.264 82.8894 207.88 82.7214 207.58 82.445L206.346 83.7823ZM208.523 84.7358L210.483 84.8949L210.63 83.0813L208.67 82.9222L208.523 84.7358ZM210.483 84.895C213.717 85.1554 216.966 85.1554 220.201 84.895L220.055 83.0812C216.917 83.3338 213.766 83.3338 210.629 83.0812L210.483 84.895ZM220.201 84.895L222.161 84.7369L222.014 82.9232L220.055 83.0812L220.201 84.895ZM222.161 84.7369C222.973 84.6715 223.74 84.3356 224.338 83.7828L223.104 82.4458C222.805 82.7223 222.421 82.8904 222.014 82.9232L222.161 84.7369ZM224.338 83.7828C224.937 83.2301 225.333 82.4925 225.463 81.6881L223.667 81.3977C223.602 81.8002 223.404 82.1692 223.104 82.4458L224.338 83.7828ZM225.463 81.6879C225.794 79.6409 225.906 77.5661 225.795 75.5002L223.978 75.5981C224.082 77.5329 223.977 79.4777 223.667 81.3978L225.463 81.6879ZM225.796 75.5491V75.5481H223.977V75.5491H225.796Z" fill="#232529" mask="url(#path-91-inside-3_2_190627)"/>
<circle cx="232.847" cy="89.6512" r="3.95592" fill="#232529"/>
<path d="M153.223 59.4798C169.629 59.4798 182.925 46.2475 182.925 29.9284C182.925 13.6114 169.629 0.378994 153.223 0.378994C136.816 0.378994 123.52 13.6114 123.52 29.9284C123.52 46.2475 136.816 59.4798 153.223 59.4798Z" fill="#F4F4F4" stroke="#232529" stroke-width="0.759074"/>
<path d="M143.641 15.4141L142.15 16.9243L144.368 19.1736L145.856 17.6633L143.641 15.4141ZM163.087 15.4141L160.87 17.6633L162.359 19.1736L164.575 16.9254L163.087 15.4141ZM138.547 25.7194V27.8677H141.722V25.7194H138.547ZM165.005 25.7194V27.8677H168.18V25.7194H165.005Z" fill="#232529"/>
<path d="M149.77 38.9875H157.779V40.6132H149.77V38.9875ZM151.372 42.2388H156.177V43.8645H151.372V42.2388ZM153.774 21.1055C151.65 21.1055 149.613 21.9618 148.111 23.4862C146.61 25.0105 145.766 27.0779 145.766 29.2337C145.712 30.415 145.935 31.5925 146.416 32.6692C146.898 33.746 147.625 34.6913 148.537 35.4274C149.338 36.1833 149.77 36.6141 149.77 37.3619H151.372C151.372 35.8663 150.483 35.0291 149.618 34.2244C148.869 33.6426 148.273 32.8835 147.88 32.0134C147.488 31.1433 147.312 30.1889 147.367 29.2337C147.367 27.5091 148.042 25.8551 149.244 24.6357C150.445 23.4162 152.075 22.7311 153.774 22.7311C155.473 22.7311 157.103 23.4162 158.305 24.6357C159.506 25.8551 160.181 27.5091 160.181 29.2337C160.236 30.1896 160.058 31.1445 159.665 32.0146C159.271 32.8847 158.673 33.6435 157.923 34.2244C157.066 35.0372 156.177 35.85 156.177 37.3619H157.779C157.779 36.6141 158.203 36.1833 159.012 35.4192C159.923 34.6844 160.65 33.7405 161.131 32.6652C161.613 31.5898 161.836 30.4137 161.783 29.2337C161.783 28.1663 161.576 27.1093 161.173 26.1231C160.771 25.137 160.181 24.2409 159.437 23.4862C158.694 22.7314 157.811 22.1327 156.839 21.7242C155.867 21.3157 154.826 21.1055 153.774 21.1055Z" fill="#232529"/>
</svg>
