<svg width="226" height="353" viewBox="0 0 226 353" fill="none" xmlns="http://www.w3.org/2000/svg">
<path d="M91.5638 259.594L116.3 292.266C121.063 298.489 125.122 304.025 126.956 307.085C126.956 307.085 126.956 307.085 126.956 307.137C127.464 307.805 127.812 308.581 127.973 309.405C127.973 309.405 127.973 309.458 127.973 309.475C127.104 312.143 78.4916 351.629 76.3274 352.438C74.1632 353.246 71.7035 347.162 72.364 344.12C73.0246 341.078 84.88 317.636 84.88 317.636L60.5 284.73L91.5638 259.594Z" fill="#EB9481"/>
<path d="M111.131 286.243L115.897 292.534L115.898 292.536C120.604 298.684 124.602 304.136 126.451 307.191V307.241L126.521 307.358C126.898 307.995 127.206 308.67 127.442 309.371C127.421 309.402 127.392 309.442 127.353 309.493C127.249 309.629 127.099 309.803 126.902 310.015C126.509 310.439 125.95 310.992 125.245 311.657C123.836 312.987 121.864 314.746 119.509 316.789C114.8 320.875 108.578 326.083 102.314 331.235C96.0494 336.386 89.7453 341.479 84.8729 345.334C82.4364 347.261 80.3599 348.878 78.8261 350.037C78.0588 350.617 77.4305 351.08 76.9621 351.409C76.7277 351.574 76.5371 351.703 76.3912 351.795C76.3183 351.842 76.2598 351.877 76.2148 351.902C76.1709 351.926 76.1507 351.935 76.148 351.936C76.1477 351.936 76.1477 351.936 76.1478 351.936C75.8729 352.039 75.5116 351.963 75.044 351.513C74.5838 351.071 74.1261 350.355 73.7384 349.486C72.9569 347.734 72.5495 345.567 72.8479 344.193C72.9194 343.864 73.1583 343.206 73.5485 342.267C73.9325 341.343 74.447 340.184 75.0481 338.874C76.2499 336.254 77.7917 333.043 79.3143 329.924C80.8366 326.805 82.3385 323.781 83.4598 321.537C84.0205 320.415 84.4859 319.488 84.8112 318.841C84.9739 318.518 85.1015 318.265 85.1884 318.093L85.2875 317.896L85.3129 317.846L85.3193 317.833L85.3209 317.83L85.3213 317.829C85.3214 317.829 85.3214 317.829 84.8753 317.603L85.3214 317.829L85.4648 317.546L85.2692 317.295L80.3149 310.957L111.131 286.243Z" fill="#F4F4F4" stroke="#232529"/>
<path d="M76.1694 351.933L76.1655 351.935C75.8945 352.038 75.5346 351.964 75.0652 351.512C74.6039 351.069 74.1442 350.352 73.7549 349.481C73.3685 348.617 73.0662 347.636 72.902 346.693C72.7368 345.744 72.7175 344.869 72.8671 344.203C72.9407 343.876 73.1818 343.219 73.5731 342.282C73.9585 341.359 74.4738 340.201 75.0753 338.892C76.2781 336.273 77.8194 333.06 79.3409 329.94C80.8622 326.82 82.3624 323.793 83.4824 321.547C84.0424 320.424 84.5073 319.496 84.8321 318.848C84.9946 318.525 85.122 318.271 85.2088 318.099L85.3078 317.902L85.3331 317.852L85.3395 317.839L85.3411 317.836L85.3415 317.835C85.3416 317.835 85.3417 317.835 84.8952 317.61L85.3417 317.835L85.4911 317.539L85.2762 317.286L85.1677 317.158L115.996 292.667C119.311 297.002 122.281 300.994 124.382 304.031C125.443 305.566 126.277 306.848 126.821 307.804C127.094 308.283 127.286 308.667 127.398 308.952C127.455 309.095 127.485 309.198 127.498 309.268C127.501 309.282 127.502 309.292 127.503 309.301C127.487 309.33 127.449 309.391 127.372 309.491C127.266 309.627 127.116 309.802 126.918 310.014C126.524 310.439 125.964 310.992 125.258 311.658C123.847 312.988 121.873 314.748 119.518 316.792C114.808 320.879 108.587 326.087 102.324 331.239C96.0611 336.39 89.7595 341.483 84.8892 345.337C82.4537 347.264 80.3781 348.879 78.8451 350.038C78.0781 350.617 77.4501 351.08 76.982 351.409C76.7477 351.573 76.5572 351.702 76.4116 351.794C76.3387 351.84 76.2803 351.875 76.2355 351.9C76.193 351.923 76.173 351.932 76.1698 351.933C76.1693 351.933 76.1692 351.934 76.1694 351.933Z" fill="#FFD600" stroke="#232529"/>
<path d="M55.6229 135.265C55.7148 134.976 55.788 134.746 55.8412 134.58L91.7125 132.156C91.688 132.244 91.6613 132.341 91.6324 132.446C91.4579 133.08 91.2025 134.01 90.8783 135.197C90.23 137.57 89.3068 140.969 88.2072 145.075C86.0082 153.285 83.1037 164.321 80.2818 175.619C77.4602 186.915 74.7199 198.48 72.8504 207.746C71.9159 212.379 71.1973 216.445 70.7954 219.62C70.5946 221.207 70.4717 222.58 70.4417 223.694C70.4121 224.792 70.4705 225.691 70.6632 226.299L70.6637 226.301C71.0909 227.634 72.1008 229.598 73.5092 231.985C74.9243 234.384 76.7632 237.245 78.8735 240.385C83.0944 246.666 88.413 254.08 93.6264 261.171C98.8403 268.262 103.952 275.034 107.759 280.034C109.663 282.533 111.241 284.59 112.344 286.022C112.895 286.737 113.327 287.297 113.621 287.678C113.679 287.752 113.731 287.82 113.778 287.88L80.6898 315.607C80.6527 315.56 80.6125 315.508 80.5692 315.452C80.2822 315.082 79.8599 314.536 79.3193 313.831C78.2379 312.423 76.6831 310.382 74.7897 307.854C71.0027 302.799 65.8623 295.797 60.4478 288.013C49.6051 272.425 37.7102 253.761 33.3425 241.289C32.5946 239.149 32.3568 235.876 32.5469 231.731C32.7364 227.601 33.3472 222.661 34.2583 217.221C36.0804 206.34 39.0962 193.497 42.31 181.201C45.5233 168.907 48.9322 157.171 51.5379 148.507C52.8407 144.176 53.9426 140.612 54.7187 138.133C55.1067 136.893 55.4133 135.924 55.6229 135.265Z" fill="white" stroke="#232529"/>
<path d="M170.89 147.079L170.913 147.088L171.139 146.889C171.634 146.455 172.044 146.109 172.366 145.872C172.527 145.753 172.655 145.671 172.752 145.619C172.807 145.59 172.84 145.578 172.854 145.573C172.885 145.582 172.952 145.607 173.069 145.664C173.223 145.74 173.424 145.852 173.672 146.003C174.167 146.305 174.82 146.743 175.614 147.302C177.199 148.418 179.318 150 181.791 151.9C186.736 155.698 193.084 160.753 199.383 165.86C205.683 170.967 211.932 176.124 216.682 180.126C219.057 182.127 221.056 183.837 222.497 185.108C223.218 185.743 223.797 186.266 224.213 186.659C224.421 186.855 224.585 187.016 224.705 187.14C224.764 187.203 224.81 187.253 224.844 187.292C224.875 187.329 224.888 187.347 224.89 187.349C224.89 187.35 224.89 187.35 224.89 187.35C225.044 187.597 225.041 187.966 224.693 188.515C224.351 189.055 223.74 189.647 222.966 190.201C221.405 191.318 219.365 192.151 217.96 192.131C217.623 192.126 216.93 192.023 215.933 191.829C214.951 191.637 213.712 191.365 212.308 191.039C209.501 190.386 206.047 189.52 202.687 188.654C199.327 187.788 196.065 186.923 193.642 186.275C192.43 185.951 191.429 185.681 190.73 185.492C190.381 185.397 190.108 185.323 189.922 185.273L189.709 185.215L189.655 185.2L189.641 185.196L189.638 185.195L189.637 185.195C189.637 185.195 189.637 185.195 189.505 185.678L189.637 185.195L189.322 185.109L189.116 185.363L165.974 213.965L136.994 188.84L158.76 160.232C163.767 154.488 168.25 149.537 170.89 147.079Z" fill="#F4F4F4" stroke="#232529"/>
<path d="M224.892 187.305L224.894 187.309C225.051 187.556 225.051 187.919 224.711 188.46C224.375 188.993 223.772 189.579 223.004 190.128C221.456 191.236 219.421 192.069 218.007 192.069C217.672 192.069 216.981 191.971 215.983 191.779C215.001 191.591 213.762 191.321 212.358 190.995C209.551 190.345 206.097 189.477 202.738 188.608C199.379 187.74 196.117 186.871 193.695 186.219C192.484 185.894 191.483 185.622 190.785 185.432C190.436 185.337 190.162 185.262 189.976 185.211L189.764 185.153L189.71 185.139L189.696 185.135L189.693 185.134L189.692 185.134C189.692 185.134 189.691 185.134 189.559 185.616L189.691 185.134L189.372 185.046L189.167 185.306L189.06 185.441L158.863 160.124C162.451 156.01 165.769 152.304 168.325 149.638C169.616 148.292 170.705 147.219 171.532 146.495C171.947 146.132 172.284 145.867 172.54 145.701C172.668 145.617 172.763 145.567 172.828 145.54C172.841 145.535 172.851 145.531 172.858 145.529C172.89 145.539 172.957 145.564 173.07 145.62C173.225 145.695 173.426 145.808 173.674 145.959C174.168 146.261 174.822 146.698 175.615 147.257C177.201 148.374 179.319 149.956 181.793 151.855C186.738 155.653 193.085 160.708 199.385 165.816C205.685 170.923 211.934 176.08 216.684 180.081C219.059 182.082 221.057 183.793 222.499 185.063C223.22 185.699 223.799 186.222 224.215 186.614C224.423 186.811 224.587 186.972 224.706 187.096C224.766 187.158 224.812 187.208 224.845 187.247C224.881 187.289 224.893 187.307 224.892 187.305Z" fill="#FFD600" stroke="#232529"/>
<path d="M116.65 163.765C116.151 163.796 116.151 163.796 116.151 163.796L116.151 163.795L116.151 163.792L116.15 163.78L116.147 163.731C116.145 163.713 116.144 163.69 116.142 163.664C116.14 163.628 116.137 163.585 116.133 163.535C116.121 163.363 116.101 163.108 116.073 162.78C116.018 162.124 115.928 161.174 115.795 160.003C115.527 157.661 115.081 154.438 114.367 150.913C112.952 143.924 110.507 135.859 106.397 131.071L56.7965 134.48C57.5392 137.044 60.5795 147.483 63.5841 156.559L116.65 163.765ZM116.65 163.765C116.155 163.837 116.155 163.837 116.155 163.837L116.155 163.838L116.156 163.842L116.158 163.855L116.165 163.907C116.172 163.953 116.182 164.021 116.196 164.11C116.223 164.287 116.263 164.549 116.316 164.887C116.423 165.561 116.583 166.537 116.794 167.744C117.217 170.159 117.847 173.501 118.675 177.213C120.328 184.619 122.784 193.553 125.988 199.499L126.357 200.185L126.827 199.563L152.102 166.081M116.65 163.765L116.155 163.837L116.152 163.817L116.151 163.796L116.65 163.765ZM116.65 163.765L152.102 166.081M152.102 166.081L187.439 194.976C187.435 194.981 187.431 194.986 187.426 194.991C187.195 195.255 186.852 195.645 186.408 196.146C185.52 197.148 184.228 198.595 182.611 200.375C179.379 203.934 174.851 208.823 169.669 214.141C159.296 224.785 146.338 237.111 135.914 243.945L135.914 243.945C131.62 246.763 124.992 246.902 118.854 245.61C115.801 244.966 112.904 243.976 110.531 242.816C108.143 241.649 106.336 240.337 105.405 239.077L105.405 239.076C90.0858 218.374 71.8065 181.313 63.5842 156.559L152.102 166.081Z" fill="white" stroke="#232529"/>
<path d="M105.551 158.019C104.387 157.801 103.161 157.793 101.988 157.688C101.032 157.602 100.084 157.497 99.1369 157.358C97.3312 157.164 95.5915 156.57 94.0436 155.62C92.3487 154.481 91.4361 152.63 90.4974 150.848C89.9585 149.796 89.411 148.745 88.8547 147.702L88.029 146.189C87.6592 145.603 87.3226 144.997 87.0208 144.373C87.0208 144.286 86.8382 144.373 86.8817 144.425C87.0738 144.855 87.2393 145.296 87.3771 145.746C87.5683 146.259 87.7508 146.78 87.9508 147.293C88.2984 148.162 88.6461 149.119 89.0198 150.031C89.602 151.708 90.381 153.31 91.3405 154.803C93.244 157.41 96.399 158.323 99.5019 158.505C100.371 158.549 101.284 158.558 102.17 158.549C103.295 158.58 104.421 158.51 105.534 158.34C105.577 158.343 105.618 158.328 105.65 158.299C105.682 158.271 105.701 158.231 105.703 158.188C105.706 158.146 105.691 158.104 105.662 158.072C105.634 158.04 105.594 158.021 105.551 158.019Z" fill="#263238"/>
<path d="M126.694 199.071C126.479 199.411 126.281 199.762 126.103 200.123L125.92 200.262C125.8 200.349 125.69 200.448 125.59 200.558C125.397 200.782 125.228 201.027 125.086 201.288C124.827 201.83 124.696 202.425 124.703 203.026C124.785 202.46 124.98 201.916 125.277 201.427C125.409 201.187 125.564 200.96 125.738 200.749C125.789 200.695 125.835 200.637 125.877 200.575C125.877 200.644 125.807 200.705 125.781 200.784C125.559 201.43 125.402 202.097 125.312 202.774C125.225 203.414 125.225 204.063 125.312 204.703C125.377 205.337 125.502 205.962 125.686 206.572H125.729C125.729 205.929 125.651 205.295 125.729 204.643C125.807 203.991 125.929 203.391 126.016 202.765C126.1 202.153 126.219 201.547 126.372 200.949C126.52 200.34 126.642 199.706 126.824 199.097C126.842 199.045 126.737 199.01 126.694 199.071Z" fill="#263238"/>
<path d="M86.8961 75.0508C80.0732 79.9702 48.1923 92.9294 36.5716 87.0713C24.7337 81.0914 13.0087 48.9759 10.6793 46.2207C4.29098 38.5894 31.7652 27.7771 34.2771 33.0703C38.4751 41.9096 47.3927 65.5161 51.4865 66.0289C60.0998 67.1066 68.0005 65.9854 81.4725 65.8203C90.9203 65.6899 94.397 69.6185 86.8961 75.0508Z" fill="white"/>
<path d="M37.1605 38.9062C37.1605 38.9062 48.3379 64.1119 50.8585 64.8073C55.0565 66.0067 77.8025 65.2158 85.9726 65.3548C94.1427 65.4939 102.009 72.7253 82.6611 79.9481C63.3135 87.1708 47.0255 90.9343 36.4999 88.5701C29.9638 87.0926 12.0156 58.7579 12.0156 58.7579L37.1605 38.9062Z" fill="#FFC727"/>
<path d="M13.2564 59.6825C13.0418 59.3512 12.8679 59.0809 12.7391 58.88L36.9487 39.7667C37.0073 39.8976 37.0744 40.0471 37.1494 40.2138C37.4604 40.9054 37.9074 41.8938 38.4516 43.0821C39.5399 45.4583 41.0178 48.6348 42.575 51.8342C44.1312 55.0314 45.7708 58.2599 47.182 60.7363C47.8867 61.9729 48.5414 63.0343 49.1053 63.8137C49.3867 64.2025 49.6544 64.5337 49.9023 64.7844C50.1325 65.0172 50.4082 65.2467 50.7112 65.3311C51.8382 65.6525 54.1175 65.8271 56.9487 65.9231C59.8098 66.0202 63.3103 66.0381 66.9283 66.0228C69.8221 66.0107 72.7882 65.9774 75.5673 65.9463C79.7518 65.8993 83.5123 65.8572 85.9633 65.8989C87.9339 65.9324 89.874 66.3946 91.3748 67.1624C92.8901 67.9376 93.8667 68.9728 94.1033 70.1062C94.3332 71.208 93.9029 72.6117 92.1226 74.2386C90.3409 75.8669 87.2788 77.6434 82.4708 79.4383C72.812 83.044 63.9332 85.78 56.1664 87.3204C48.3914 88.8624 41.7745 89.1971 36.6192 88.0392C35.9318 87.8836 35.0186 87.3488 33.9165 86.4443C32.8287 85.5515 31.6114 84.3448 30.3196 82.9227C27.737 80.0797 24.8939 76.4173 22.2463 72.7892C19.6003 69.1633 17.1572 65.5821 15.375 62.9066C14.4841 61.5691 13.7588 60.4585 13.2564 59.6825Z" fill="#FFD600" stroke="#232529" stroke-width="1.0883"/>
<path d="M12.4414 49.0887C15.1358 51.0964 34.1704 39.893 34.605 36.4771C34.6467 35.3088 34.5357 34.1401 34.2747 33.0005C34.2747 33.0005 35.6132 25.4388 38.9682 19.5372C41.7756 14.583 46.5125 7.54276 43.905 5.93481C40.1068 3.57069 33.0492 11.7582 29.277 16.695C27.9385 13.5921 26.5044 11.0542 25.1137 9.87211C20.5159 6.00434 0.525167 24.3089 1.67246 30.3235C2.79368 36.1295 9.74697 47.0896 12.4414 49.0887Z" fill="white"/>
<path d="M30.9927 17.3457C29.915 20.2834 27.0641 17.3457 27.0641 17.3457C27.0641 17.3457 30.1409 22.5606 27.855 25.1681C25.5691 27.7756 22.3359 23.986 22.0925 23.7253C22.249 24.0034 24.952 28.8881 22.388 31.2696C19.824 33.6511 17.0253 29.4618 16.8515 29.1836C16.921 29.4965 17.7641 33.6164 15.4 34.9809C11.341 37.319 8.90732 26.8369 5.6132 24.9682C5.6132 24.9682 1.80627 30.1832 1.65851 30.3309C1.65851 30.3309 -0.862047 20.4051 1.91058 16.0941C2.30265 15.4593 2.90013 14.9777 3.60374 14.7295C4.30736 14.4812 5.07473 14.4812 5.77834 14.7295C5.77834 14.7295 4.61367 11.6179 6.56928 9.68834C7.57751 8.6975 10.0459 9.42759 10.0459 9.42759C10.0459 9.42759 9.17677 6.89833 11.0628 5.28169C12.5404 3.98664 14.8002 4.92534 14.8002 4.92534C14.8002 4.92534 15.1305 2.12663 17.0687 1.30093C20.98 -0.385242 33.296 11.0182 30.9927 17.3457Z" fill="white"/>
<path d="M15.7136 56.203L12.1247 48.7753C10.3299 46.6507 6.33197 41.5476 4.69817 38.1314C2.65591 33.8613 -0.561967 26.9307 0.985197 18.6379C2.22293 12.0036 7.15327 14.8412 9.46373 17.0893C11.3822 19.2969 15.5534 24.7888 16.8901 29.0961C18.5611 34.4802 15.2811 37.0176 12.3724 34.4802C9.46373 31.9429 9.09241 28.4154 5.87431 25.1973" stroke="#232529"/>
<path d="M5.77536 14.6839C5.17288 12.3005 5.23351 7.94458 10.2959 9.58822C16.6238 11.6428 21.6373 21.6693 23.0345 24.628C24.4316 27.5868 23.139 35.9168 17.2215 30.3281" stroke="#232529"/>
<path d="M10.1299 9.52114C9.6465 7.39968 9.96855 3.52729 15.1241 5.00942C21.5684 6.86208 28.0129 18.0597 28.6573 21.6847C29.3018 25.3097 27.7882 28.132 23.2771 25.6348" stroke="#232529"/>
<path d="M14.9606 5.00728C14.7192 2.91222 15.4928 -0.649364 20.5192 1.8647C26.8023 5.00728 31.1526 10.6466 31.6359 15.9633C32.0226 20.2166 29.1455 19.3932 27.427 18.2654" stroke="#232529"/>
<path d="M31.3047 14.0328C31.982 13.3374 34.0001 11.2835 36.6533 8.63042C39.9699 5.31412 43.8211 3.442 44.6234 7.23973C45.4258 11.0375 40.3443 16.5473 37.4559 22.2706C35.1452 26.8493 34.2109 31.2746 34.0326 32.915L34.4605 37.1406L36.1722 40.8314" stroke="#232529"/>
<path d="M111.2 143.995C111.017 144.134 54.9474 137.911 54.4868 137.19C53.8436 136.129 70.5489 78.0085 83.3777 66.0749C86.5849 63.0937 95.459 64.4235 99.0226 68.2739C116.719 87.3867 111.834 143.5 111.2 143.995Z" fill="#C3C3C3"/>
<path d="M82.9008 66.0938L61.3716 144.579L50.3594 136.678C50.3594 136.678 68.3249 85.8324 73.5399 77.7405C78.7549 69.6486 82.9008 66.0938 82.9008 66.0938Z" fill="#FFC727"/>
<path d="M80.5827 69.2441C81.0609 68.7059 81.4857 68.2504 81.848 67.8746L61.0537 143.681L51.0088 136.475L51.0752 136.287C51.208 135.913 51.4034 135.363 51.6541 134.661C52.1553 133.255 52.8772 131.238 53.7598 128.792C55.5251 123.9 57.933 117.294 60.5036 110.435C63.0744 103.575 65.8069 96.4669 68.2215 90.5695C70.6446 84.6513 72.7263 80.0075 73.9973 78.0353C76.5888 74.0141 78.9119 71.1246 80.5827 69.2441Z" fill="#FFD600" stroke="#232529" stroke-width="1.0883"/>
<path d="M95.5744 65.5391C95.5744 65.5391 94.7052 95.7337 94.7052 102.826C94.7052 109.918 93.0625 148.648 93.0625 148.648L118.572 143.998C118.572 143.998 113.914 106.442 112.297 97.7676C110.68 89.0933 103.849 68.0944 95.5744 65.5391Z" fill="#FFC727"/>
<path d="M117.969 143.555L93.6349 147.991L93.6768 146.993C93.7217 145.92 93.7859 144.379 93.8629 142.508C94.0169 138.766 94.2222 133.703 94.4276 128.418C94.838 117.856 95.2494 106.386 95.2494 102.826C95.2494 99.2887 95.4664 89.9756 95.6838 81.537C95.7924 77.3198 95.901 73.3242 95.9825 70.3829C96.0233 68.9122 96.0572 67.7051 96.081 66.8657L96.0966 66.3164C97.7676 67.0591 99.4237 68.616 101.014 70.7574C102.81 73.1764 104.471 76.2721 105.935 79.5789C108.862 86.1932 110.961 93.571 111.762 97.8673C112.567 102.186 114.134 113.726 115.501 124.206C116.185 129.442 116.817 134.407 117.279 138.063C117.51 139.891 117.699 141.391 117.829 142.435C117.888 142.905 117.935 143.282 117.969 143.555Z" fill="#FFD600" stroke="#232529" stroke-width="1.0883"/>
<path d="M101.626 82.5115C116.454 97.6958 136.105 113.94 147.031 111.62C156.913 109.516 171.115 97.9305 186.612 85.4406C189.689 82.9635 169.151 60.035 166.135 63.0076C160.199 68.857 148.013 83.7892 143.467 85.4406C141.52 86.1446 119.722 75.254 105.433 69.7957C88.0842 63.164 95.7155 76.4622 101.626 82.5115Z" fill="white"/>
<path d="M200.221 74.8797C196.153 79.7731 182.038 88.9514 178.492 89.4469C174.946 89.9423 162.725 69.5344 164.081 66.0838C165.437 62.6332 180.395 47.2056 186.758 45.8932C193.12 44.5807 204.436 69.8038 200.221 74.8797Z" fill="white"/>
<path d="M177.346 49.8756C176.851 53.2045 181.066 51.8921 181.066 51.8921C181.066 51.8921 175.452 55.2471 176.269 58.8454C177.06 62.322 182.092 60.5837 182.457 60.4533C182.162 60.6359 177.086 63.8605 178.285 67.4066C179.528 71.118 184.274 68.4757 184.587 68.2758C184.361 68.5365 181.44 71.9958 182.961 74.499C185.569 78.8448 193.296 70.1532 197.381 70.101C197.381 70.101 199.858 74.977 199.927 75.1682C199.927 75.1682 205.846 69.1363 205.455 63.6345C205.42 62.8304 205.107 62.0634 204.57 61.4643C204.033 60.8652 203.304 60.471 202.509 60.349C202.509 60.349 205.22 58.011 204.369 55.1341C203.925 53.6739 201.205 53.0828 201.205 53.0828C201.205 53.0828 203.291 51.1185 202.378 48.6414C201.657 46.6597 199.041 46.3729 199.041 46.3729C199.041 46.3729 200.171 43.5568 198.771 41.7751C195.964 38.3071 178.424 42.7311 177.346 49.8756Z" fill="white"/>
<path d="M198.634 46.4003C198.644 46.3962 198.652 46.3896 198.657 46.3811C198.663 46.3726 198.666 46.3626 198.666 46.3525C198.666 46.3423 198.663 46.3324 198.657 46.3239C198.652 46.3154 198.644 46.3087 198.634 46.3047C192.269 46.3319 186.064 48.2964 180.843 51.9369C180.677 52.0585 180.799 52.3714 181.008 52.2758C186.567 49.4719 192.505 47.4926 198.634 46.4003Z" fill="#263238"/>
<path d="M201.297 53.1529C201.366 53.1529 201.349 53.0312 201.297 53.0312C194.987 53.1182 187.486 55.4997 182.262 60.3844C182.088 60.5495 182.097 60.8798 182.314 60.7059C185.991 57.716 195.508 54.1003 201.297 53.1529Z" fill="#263238"/>
<path d="M184.334 68.8343C189.549 64.3407 195.633 61.9679 202.248 60.4295C202.334 60.4295 202.3 60.2904 202.248 60.2818C198.771 60.1514 194.686 61.5768 191.574 62.9501C188.66 64.1722 186.119 66.1384 184.204 68.6518C184.099 68.7474 184.221 68.9299 184.334 68.8343Z" fill="#263238"/>
<path d="M197.545 70.1932C196.713 70.5256 194.161 71.6785 190.613 73.6307C186.177 76.0709 184.125 76.4591 182.461 74.4627C180.798 72.4664 182.704 69.543 185.698 67.4922" stroke="#232529"/>
<path d="M163.12 65.9375C163.12 65.9375 145.146 84.2681 142.521 84.103C138.175 83.8248 111.761 71.3002 104.017 68.6927C96.2726 66.0853 87.9721 67.6237 100.21 82.0865C114.021 98.4007 129.483 112.933 145.467 112.95C154.081 112.95 180.903 94.2287 180.903 94.2287L163.12 65.9375Z" fill="#FFC727"/>
<path d="M142.486 84.646L142.486 84.646C141.866 84.6064 140.919 84.3588 139.768 83.9855C138.6 83.6066 137.171 83.08 135.562 82.4513C132.344 81.1936 128.386 79.5172 124.328 77.7712C122.784 77.1067 121.226 76.4327 119.69 75.7677C113.131 72.9291 106.958 70.2571 103.843 69.2084C101.944 68.5689 100.034 68.1924 98.4351 68.1958C96.8112 68.1992 95.6423 68.5916 95.0428 69.331C94.4669 70.0412 94.2677 71.2676 95.0608 73.3303C95.8505 75.3842 97.5813 78.1376 100.625 81.7349L142.486 84.646ZM142.486 84.646C142.79 84.6651 143.117 84.5546 143.409 84.4217C143.721 84.2805 144.074 84.0757 144.457 83.8253C145.225 83.3237 146.16 82.6065 147.193 81.754C149.262 80.0469 151.765 77.761 154.179 75.4774C156.594 73.1923 158.926 70.9028 160.654 69.185C161.518 68.326 162.231 67.6096 162.729 67.1079C162.838 66.9976 162.937 66.8977 163.025 66.8089M142.486 84.646L163.025 66.8089M163.025 66.8089L180.165 94.0776C179.977 94.2074 179.729 94.3777 179.427 94.5837C178.678 95.0944 177.599 95.8243 176.277 96.7004C173.632 98.4527 170.017 100.788 166.135 103.123C162.25 105.459 158.108 107.789 154.406 109.533C152.555 110.405 150.822 111.126 149.293 111.629C147.756 112.134 146.459 112.406 145.468 112.406C137.641 112.398 129.894 108.834 122.349 103.194C114.809 97.5562 107.522 89.8813 100.625 81.735L163.025 66.8089Z" fill="#FFD600" stroke="#232529" stroke-width="1.0883"/>
<path d="M97.0228 62.482L97.0228 62.4817C97.1737 60.3938 97.3902 58.0869 97.7261 55.9342L83.8529 56.9218C84.1332 59.8077 84.0798 62.7169 83.6933 65.5917L83.692 65.6015L83.6903 65.6113C83.6344 65.9303 83.5496 66.2435 83.437 66.5471V66.5474V66.5477V66.548V66.5483V66.5486V66.549V66.5493V66.5496V66.5499V66.5502V66.5506V66.5509V66.5512V66.5515V66.5518V66.5522V66.5525V66.5528V66.5531V66.5534V66.5538V66.5541V66.5544V66.5547V66.5551V66.5554V66.5557V66.556V66.5564V66.5567V66.557V66.5573V66.5577V66.558V66.5583V66.5586V66.559V66.5593V66.5596V66.5599V66.5603V66.5606V66.5609V66.5612V66.5616V66.5619V66.5622V66.5626V66.5629V66.5632V66.5635V66.5639V66.5642V66.5645V66.5649V66.5652V66.5655V66.5658V66.5662V66.5665V66.5668V66.5672V66.5675V66.5678V66.5682V66.5685V66.5688V66.5692V66.5695V66.5698V66.5702V66.5705V66.5708V66.5712V66.5715V66.5718V66.5722V66.5725V66.5728V66.5732V66.5735V66.5738V66.5742V66.5745V66.5748V66.5752V66.5755V66.5758V66.5762V66.5765V66.5768V66.5772V66.5775V66.5779V66.5782V66.5785V66.5789V66.5792V66.5795V66.5799V66.5802V66.5806V66.5809V66.5812V66.5816V66.5819V66.5823V66.5826V66.5829V66.5833V66.5836V66.584V66.5843V66.5846V66.585V66.5853V66.5857V66.586V66.5864V66.5867V66.587V66.5874V66.5877V66.5881V66.5884V66.5888V66.5891V66.5894V66.5898V66.5901V66.5905V66.5908V66.5912V66.5915V66.5919V66.5922V66.5925V66.5929V66.5932V66.5936V66.5939V66.5943V66.5946V66.595V66.5953V66.5957V66.596V66.5964V66.5967V66.5971V66.5974V66.5978V66.5981V66.5984V66.5988V66.5991V66.5995V66.5998V66.6002V66.6005V66.6009V66.6012V66.6016V66.602V66.6023V66.6027V66.603V66.6034V66.6037V66.6041V66.6044V66.6048V66.6051V66.6055V66.6058V66.6062V66.6065V66.6069V66.6072V66.6076V66.6079V66.6083V66.6087V66.609V66.6094V66.6097V66.6101V66.6104V66.6108V66.6111V66.6115V66.6998L83.4068 66.7827C83.1007 67.6224 82.5314 69.8397 82.5472 71.9499C82.5551 73.0049 82.7093 73.9886 83.08 74.7521C83.4414 75.4966 84.0053 76.0307 84.8798 76.2426L97.0228 62.482ZM97.0228 62.482C96.9255 63.8412 96.854 65.1171 96.7934 66.2001C96.7699 66.6195 96.748 67.01 96.7269 67.3652C96.6889 68.0048 96.6535 68.5254 96.6158 68.9005C96.5969 69.089 96.5783 69.2305 96.5604 69.3276C96.5557 69.3532 96.5515 69.373 96.548 69.388M97.0228 62.482L96.548 69.388M96.548 69.388C95.0898 71.2095 92.7754 73.0799 90.4891 74.421C89.3371 75.0967 88.208 75.6287 87.216 75.9518C86.2071 76.2803 85.4077 76.3702 84.8799 76.2426L96.548 69.388ZM96.54 69.4188C96.5386 69.4233 96.5378 69.4253 96.5378 69.4252C96.5377 69.425 96.5384 69.4228 96.54 69.4188Z" fill="white" stroke="#232529"/>
<path d="M88.3465 27.6224L88.3466 27.6224C91.6849 26.2994 95.6429 26.9949 98.8268 29.0221C102.008 31.0476 104.337 34.3518 104.49 38.1465C104.541 39.4141 104.198 41.2274 103.559 43.3036C102.924 45.3679 102.009 47.6499 100.949 49.8387C99.8881 52.0282 98.6878 54.1127 97.4856 55.7859C96.2715 57.4758 95.0969 58.6865 94.1029 59.2031C91.0085 60.8112 87.3898 61.1826 84.2711 60.2843C81.1638 59.3892 78.5591 57.2387 77.4257 53.7817C76.8976 52.1461 76.994 49.8147 77.5607 47.1476C78.124 44.4964 79.1371 41.5801 80.3727 38.8149C81.6083 36.0497 83.0589 33.4519 84.4887 31.4354C85.2038 30.427 85.9079 29.572 86.5713 28.9161C87.2404 28.2546 87.8413 27.8224 88.3465 27.6224Z" fill="white" stroke="#232529"/>
<path d="M83.8667 30.9139C87.691 36.2158 96.513 33.4518 96.513 33.4518C96.5486 34.7145 96.9907 35.932 97.7737 36.9233C98.5567 37.9146 99.6387 38.6266 100.859 38.9536C100.859 38.9536 98.7728 47.8886 101.041 48.6795C104.518 49.9051 109.733 38.5973 109.507 35.9029C109.281 33.2085 106.534 31.557 106.534 31.557C106.714 30.0493 106.313 28.5299 105.413 27.3069C103.675 24.6994 94.7052 24.1605 94.7052 24.1605C94.6294 22.9086 94.2634 21.6916 93.6361 20.6056C93.4871 20.3379 93.2851 20.1033 93.0426 19.916C92.8 19.7288 92.5219 19.5928 92.2252 19.5164C91.9285 19.4399 91.6193 19.4247 91.3165 19.4715C91.0136 19.5183 90.7235 19.6262 90.4637 19.7886C90.669 20.5757 90.6898 21.3997 90.5245 22.1962C90.0291 24.8558 87.9779 24.1083 88.7862 21.8398C89.0667 20.9794 89.6505 20.2503 90.4289 19.7886C89.9509 17.9373 88.4733 16.8508 87.1782 17.2941C84.8315 18.1024 80.6856 26.5159 83.8667 30.9139Z" fill="#232529"/>
<path d="M99.7855 54.7031L99.7673 54.7046L99.7493 54.7074C99.4659 54.7518 99.1763 54.7379 98.8984 54.6664C98.6205 54.595 98.3601 54.4676 98.1332 54.292L97.8272 54.6874L98.1332 54.292C97.9063 54.1164 97.7176 53.8963 97.5788 53.6452L97.1412 53.8871L97.5788 53.6452C97.4629 53.4356 97.3837 53.2081 97.3444 52.9725L99.1865 49.4513C99.2158 49.4283 99.2528 49.3994 99.297 49.3655C99.4213 49.2702 99.6019 49.1351 99.8244 48.978C100.271 48.6629 100.88 48.2642 101.538 47.9211C102.202 47.5749 102.885 47.3016 103.487 47.2113C104.088 47.1211 104.522 47.2227 104.812 47.5091C105.068 47.7607 105.173 48.2387 104.983 49.0028C104.8 49.7444 104.366 50.6184 103.778 51.4701C103.193 52.3182 102.474 53.1156 101.747 53.7093C101.006 54.3145 100.317 54.6591 99.7855 54.7031Z" fill="white" stroke="#232529"/>
<path d="M82.672 67.2564L85.5636 75.3452L85.8211 76.0654L86.3775 75.5407L97.4213 65.1262L99.8359 68.1392C99.7589 68.2558 99.661 68.404 99.5445 68.5802C99.2313 69.0537 98.7839 69.7293 98.2469 70.5376C97.1728 72.1542 95.7405 74.3009 94.3074 76.4224C92.8737 78.5447 91.4412 80.6385 90.366 82.1506C89.861 82.8609 89.4392 83.4365 89.1348 83.8252L86.0681 76.6747L85.7876 76.0207L85.2674 76.5063L80.7209 80.7496L81.5605 68.8324L82.672 67.2564Z" fill="white" stroke="#232529"/>
<path d="M181.781 44.2841C183.777 42.7594 189.416 39.9015 196.003 40.6669C199.953 41.2485 199.828 43.3693 199.413 44.6583C199.08 45.6896 198.858 46.2523 198.789 46.4048C194.991 46.7374 187.104 47.8851 185.94 49.8145" stroke="#232529"/>
<path d="M198.693 46.3913C199.921 46.2515 202.41 46.6529 202.544 49.3777C202.678 52.1024 201.409 53.0809 200.758 53.2295C197.659 53.7878 191.071 55.2338 189.508 56.5513C187.945 57.8689 182.697 60.3198 180.269 61.3805C178.687 62.6553 176.154 65.8468 178.678 68.4149C181.832 71.6251 184.539 68.1637 187.024 66.5167C189.508 64.8698 194.709 61.2134 200.758 60.5089C202.187 60.3523 202.683 60.3285 202.753 60.3362C204.529 58.6689 206.674 54.9134 201.051 53.2295" stroke="#232529"/>
<path d="M202.97 60.3594C204.072 60.6948 206.065 62.2762 205.222 65.918C204.168 70.4702 201.677 74.9746 196.262 78.6644C191.93 81.6163 182.86 88.5518 178.867 91.6506" stroke="#232529"/>
<path d="M166.133 63.0062C166.133 63.0062 173.808 37.1139 182.456 45.0754C185.063 47.4395 192.755 60.2162 190.226 61.8241C186.949 63.8927 182.725 59.1558 180.543 55.74C180.543 55.74 179.17 64.9096 172.504 65.8657C171.282 66.0208 170.04 65.8359 168.916 65.3314C167.792 64.8269 166.829 64.0224 166.133 63.0062Z" fill="white"/>
<path d="M163 67.124L166.243 63.4353C167.588 59.2611 171.115 49.6317 174.782 45.9652C179.365 41.3821 181.924 44.1197 183.531 46.322C185.138 48.5242 190.256 55.8249 190.673 59.6938C191.09 63.5626 186.556 64.2374 183.818 60.428C181.628 57.3806 180.654 55.5473 180.317 55.0117C180.948 56.6782 180.604 61.1185 174.187 65.5468" stroke="#232529"/>
</svg>
