<svg width="114" height="17" viewBox="0 0 114 17" fill="none" xmlns="http://www.w3.org/2000/svg">
<path d="M112.668 9.74954H104.904V13.859H113.752V16.7323H101.641V0.75H113.362V3.57998H104.904V6.97378H112.668V9.74954Z" fill="white"/>
<path d="M92.7899 16.7323H85.5469V0.75H93.3104C95.2693 0.778914 96.6572 1.34636 97.4741 2.45232C97.9656 3.13181 98.2114 3.94502 98.2114 4.89196C98.2114 5.86781 97.9656 6.65211 97.4741 7.24485C97.1994 7.57736 96.7946 7.88096 96.2596 8.15565C97.0765 8.45202 97.6909 8.92187 98.1029 9.56521C98.5222 10.2086 98.7318 10.9892 98.7318 11.9073C98.7318 12.8542 98.4933 13.7036 98.0162 14.4553C97.7126 14.9541 97.3331 15.3734 96.8777 15.7131C96.3645 16.1034 95.7573 16.3709 95.0561 16.5155C94.3621 16.66 93.6068 16.7323 92.7899 16.7323ZM92.714 9.69533H88.7347V13.9566H92.6598C93.361 13.9566 93.9067 13.8626 94.2971 13.6746C95.0055 13.3277 95.3597 12.6626 95.3597 11.6796C95.3597 10.8483 95.0163 10.2772 94.3296 9.9664C93.9465 9.79291 93.408 9.70256 92.714 9.69533ZM94.373 6.64849C94.8067 6.38827 95.0236 5.92203 95.0236 5.24977C95.0236 4.50523 94.7344 4.01369 94.1561 3.77515C93.6574 3.60889 93.0212 3.52576 92.2478 3.52576H88.7347V7.04968H92.6598C93.361 7.04968 93.932 6.91595 94.373 6.64849Z" fill="white"/>
<path d="M79.0469 0.75H82.3648V16.7323H79.0469V0.75Z" fill="white"/>
<path d="M70.0477 10.4652H66.5997V16.7323H63.3359V0.75H71.1754C72.2958 0.771686 73.156 0.909028 73.756 1.16203C74.3632 1.41503 74.8764 1.7873 75.2957 2.27884C75.6426 2.68364 75.9173 3.13181 76.1197 3.62335C76.3221 4.11489 76.4233 4.6751 76.4233 5.30399C76.4233 6.06298 76.2318 6.81114 75.8486 7.54845C75.4655 8.27853 74.833 8.79537 73.9511 9.09897C74.6885 9.39534 75.2089 9.81821 75.5125 10.3676C75.8233 10.9097 75.9788 11.741 75.9788 12.8614V13.9349C75.9788 14.665 76.0077 15.1601 76.0655 15.4203C76.1522 15.8324 76.3546 16.136 76.6727 16.3311V16.7323H72.997C72.8958 16.3781 72.8235 16.0926 72.7801 15.8757C72.6934 15.4276 72.6464 14.9686 72.6391 14.4987L72.6175 13.0132C72.603 11.994 72.4151 11.3145 72.0536 10.9748C71.6994 10.635 71.0308 10.4652 70.0477 10.4652ZM72.0753 7.55929C72.7403 7.25569 73.0729 6.65572 73.0729 5.75938C73.0729 4.79076 72.7512 4.14019 72.1078 3.80768C71.7464 3.61973 71.2043 3.52576 70.4814 3.52576H66.5997V7.81952H70.3838C71.1356 7.81952 71.6994 7.73278 72.0753 7.55929Z" fill="white"/>
<path d="M61.298 0.75V3.57998H56.5163V16.7323H53.155V3.57998H48.3516V0.75H61.298Z" fill="white"/>
<path d="M41.5402 0.75V3.57998H36.7585V16.7323H33.3972V3.57998H28.5938V0.75H41.5402Z" fill="white"/>
<path d="M18 0.75H21.3396V13.859H29.2549V16.7323H18V0.75Z" fill="white"/>
<path d="M11.3132 13.4469H5.42551L4.31954 16.7323H0.828125L6.53149 0.75H10.3048L15.9648 16.7323H12.3433L11.3132 13.4469ZM10.3807 10.6929L8.38562 4.40403L6.32547 10.6929H10.3807Z" fill="white"/>
</svg>
