<svg width="42" height="42" viewBox="0 0 42 42" fill="none" xmlns="http://www.w3.org/2000/svg">
<path d="M22.5928 34.2638C22.5928 34.2638 28.3861 23.4419 30.2565 19.5506L28.282 17.7677L26.2891 15.969L25.514 15.2691L22.9682 12.9709L21.5474 11.6875C17.6272 13.7285 6.76425 19.9714 6.76425 19.9714C8.234 27.3227 6.29621 32.9069 5.07405 35.4973C4.12841 37.5032 5.07374 37.6439 6.59016 36.8673C9.20158 35.5297 14.8723 33.3154 22.5928 34.2638Z" fill="#161D3B" stroke="#161D3B" stroke-width="2" stroke-miterlimit="10" stroke-linecap="round" stroke-linejoin="round"/>
<path d="M40.9135 11.2278L29.586 1L20.4062 10.4055L31.7346 20.6324L40.9135 11.2278Z" fill="#161D3B" stroke="#161D3B" stroke-width="2" stroke-miterlimit="10" stroke-linecap="round" stroke-linejoin="round"/>
<path d="M16.5722 27.9652C18.4328 27.9652 19.9412 26.5144 19.9412 24.7248C19.9412 22.9352 18.4328 21.4844 16.5722 21.4844C14.7115 21.4844 13.2031 22.9352 13.2031 24.7248C13.2031 26.5144 14.7115 27.9652 16.5722 27.9652Z" fill="#FFD600"/>
<path d="M3.62434 40.9987C5.02627 40.9987 6.16275 39.8622 6.16275 38.4603C6.16275 37.0584 5.02627 35.9219 3.62434 35.9219C2.22242 35.9219 1.08594 37.0584 1.08594 38.4603C1.08594 39.8622 2.22242 40.9987 3.62434 40.9987Z" fill="#FFD600" stroke="#161D3B" stroke-miterlimit="10" stroke-linecap="round" stroke-linejoin="round"/>
</svg>
