<svg width="104" height="34" viewBox="0 0 104 34" fill="none" xmlns="http://www.w3.org/2000/svg">
<path d="M40.1776 29.2868C36.4275 26.8711 31.3382 26.4472 23.1306 28.7244C14.3806 30.7805 11.4632 32.0986 7.63193 29.4526C6.16002 28.1528 5.6323 26.06 6.02636 23.0453C6.94032 18.131 9.41021 13.4017 13.7975 8.15581C16.2462 5.4269 18.5178 3.085 21.5172 2.14459C23.816 1.55464 23.6011 3.36127 23.3229 3.61965C23.0294 3.61965 22.5363 3.66588 22.1552 3.91456C21.846 4.15442 20.997 4.92892 20.9514 5.97074C20.8857 7.56561 22.5361 7.23366 23.248 6.358C24.0153 5.37122 25.1493 3.48158 24.2573 1.72042C23.8834 1.09357 23.2374 0.660333 22.4353 0.512814C19.6888 0.355848 17.1309 1.66512 14.7701 3.11259C9.60736 6.69901 5.47748 11.6685 3.14061 17.1082C1.79342 20.3903 0.574978 25.0917 2.40126 28.9182C3.81421 31.5733 6.74732 32.9836 10.2468 32.6887C12.7012 32.4308 15.6691 31.6376 17.6652 31.1586C19.6614 30.6788 29.8791 27.1665 33.2364 33.2795C33.2364 33.2795 34.3528 31.1124 37.1428 31.0661C39.4366 30.8545 42.7457 31.7302 45.1554 33.5C44.3526 32.2926 42.0764 30.5132 40.1776 29.2868Z" fill="#E61A27"/>
<path d="M24.1708 8.77616C22.2597 7.52231 18.4187 9.91939 15.3422 14.0311C12.5289 17.7194 11.3141 22.006 12.6363 23.9882C14.6028 26.3206 18.2537 22.928 19.8062 21.112L20.0065 20.8998C21.0623 19.7657 21.8779 18.4011 22.6675 17.0917C22.6675 17.0917 23.3931 15.8932 23.4278 15.8378C23.8763 15.7551 24.4165 15.626 25.0252 15.4508C25.0165 15.4782 22.6962 19.3782 22.933 21.314C23.0066 21.9045 22.9505 24.0619 25.0567 24.7163C27.8639 25.1869 30.1055 23.0107 32.0831 21.0746C32.0831 21.0746 32.4201 20.7522 32.6107 20.5682C32.5625 20.7612 32.4996 21.0188 32.4996 21.0188C31.6777 23.877 32.7856 24.4767 33.4786 24.6979C35.5729 25.3069 38.0749 22.2642 38.0831 22.2642C38.0181 23.2226 37.8285 24.0154 38.8389 24.6517C39.7924 24.9931 40.7575 24.4726 41.4912 23.9839C44.1335 22.1217 46.2623 19.2069 47.9816 16.6875H46.8849C46.8719 16.6875 44.1786 20.5912 42.4297 21.4397C42.4269 21.4397 42.1086 21.6031 41.9253 21.4738C41.6982 21.2802 41.7877 20.8775 41.9279 20.5922C41.9368 20.5737 48.6808 8.87694 48.6808 8.87694H45.4966C45.4966 8.87694 45.1488 9.43967 45.1204 9.47659C45.099 9.45819 45.048 9.36144 45.0127 9.31508C43.0399 6.58618 38.5724 10.7837 35.209 15.6514C33.9141 17.5232 32.2654 19.6307 30.5559 21.1518C30.5559 21.1518 28.0233 23.4733 26.9413 21.8054C26.5457 21.1046 26.6674 20.08 26.8905 19.4072C28.1504 15.8206 30.3213 12.5658 32.7919 10.6019C33.4891 10.0583 34.2473 9.90112 34.6233 10.1317C34.9818 10.3441 35.0397 10.8691 34.8129 11.2288C34.2376 11.2104 33.7765 11.3853 33.4018 11.7725C32.6636 12.547 32.4071 13.2939 32.6418 13.9947C33.782 15.6173 36.056 12.4088 35.9461 10.4543C35.9068 9.75348 35.533 9.08984 34.9749 8.76683C34.1433 8.26923 32.8748 8.3981 32.0538 8.7948C30.9546 9.20951 29.215 10.6569 28.1995 11.7818C26.9211 13.1926 24.7285 14.7598 24.0429 14.5843C24.267 13.9849 26.119 10.1958 24.1708 8.77616ZM39.5224 14.3816C40.1418 13.5243 41.9447 11.2285 42.3842 10.8414C43.8624 9.54096 44.4533 10.1131 44.5044 10.5185C43.1248 12.9893 41.4966 15.8199 39.9657 18.3646C39.9689 18.3555 39.4866 19.0929 39.4866 19.0929C38.8105 20.1251 38.1297 21.0104 37.0193 21.6279C36.8609 21.6744 36.5999 21.6929 36.4262 21.5633C36.217 21.4249 36.1345 21.1944 36.1581 20.9547C36.2247 20.162 37.0317 17.7377 39.5224 14.3816ZM22.2 15.8659C22.2 15.8659 22.1722 15.9491 22.1586 15.9763C22.155 15.9763 20.7702 18.2348 20.7702 18.2348C19.9345 19.3506 18.891 20.7524 17.5866 21.4251C17.2 21.5541 16.6655 21.6373 16.3931 21.2965C15.8158 20.6048 16.1133 19.6459 16.3551 18.8717L16.4408 18.595C17.1339 16.7144 18.2335 15.0546 19.3041 13.5149C19.3174 13.5058 19.3474 13.4966 19.3582 13.4966C19.3609 13.5058 19.3652 13.5058 19.3669 13.5243C20.0386 14.8148 21.2982 15.4139 22.2401 15.6909C22.2458 15.6909 22.2519 15.7001 22.2519 15.7186C22.252 15.7461 22.2367 15.7832 22.2 15.8659ZM23.5119 13.2017C23.5058 13.2201 22.8952 14.6215 22.8952 14.6215C22.8069 14.6952 22.6673 14.6584 22.5073 14.6215L22.2332 14.5751C21.3724 14.3079 20.7231 13.7362 20.5229 13.0541C20.2469 11.7264 21.3811 10.6846 21.8807 10.3068C22.3601 9.97457 23.1055 9.79946 23.5384 10.1407C23.8053 10.4543 23.9065 10.8598 23.9065 11.3026C23.9066 11.9016 23.7217 12.5746 23.5119 13.2017ZM63.7665 17.4792C63.4593 16.8156 62.7305 16.3914 61.9538 16.4374C59.4314 16.6681 56.9641 18.7424 55.6686 21.7201C54.9888 23.2507 54.6178 24.5136 54.3745 26.5235C55.159 25.6202 56.7589 24.136 58.5745 23.3245C58.5745 23.3245 58.8215 21.3977 60.0813 19.6828C60.558 18.9727 61.5119 17.8296 62.583 18.1337C63.519 18.4472 63.19 21.0381 61.9461 23.5453C61.0257 25.3894 59.6173 27.2339 58.1922 28.5058C56.9324 29.5753 55.0683 30.866 53.4374 29.8704C52.4102 29.2622 51.8862 27.9895 51.9969 26.3485C52.4877 21.6928 54.6071 17.7283 57.64 13.2108C60.7672 9.01589 64.2144 4.71039 68.8583 2.41434C69.8055 1.935 70.6827 1.82439 71.4409 2.11943C71.4409 2.11943 67.0816 4.51651 65.0037 8.95126C64.4751 10.0762 63.7399 11.597 64.4802 12.9432C64.8671 13.6438 65.5539 13.6992 66.1071 13.6623C68.6542 13.0721 70.2998 10.6935 71.6444 8.5179C72.4239 6.86761 73.1168 5.22652 73.1168 3.40099C73.1168 3.17978 73.1053 2.88486 73.0867 2.6634C74.3035 2.01827 76.799 3.16126 76.799 3.16126C78.749 3.80689 82.901 6.98779 84.3016 7.59601C84.9848 6.80324 86.1075 5.60482 86.7398 5.00543L85.8246 4.44294C84.3595 3.54864 82.8108 2.70031 81.2866 1.86143C77.8249 -0.0283416 75.0071 0.635303 73.5731 1.15168C73.0095 1.35438 72.4945 1.52961 72.4945 1.52961C71.4302 0.367981 69.6847 0.478336 68.3986 0.792017C63.7735 2.11956 59.4794 5.35552 54.8755 10.9704C51.4908 15.3683 49.3913 19.1668 48.2722 22.919C47.4097 25.4451 47.1475 29.1605 49.2528 31.3641C51.0428 33.2352 53.4164 32.8299 55.0923 32.1571C58.7239 30.3685 61.9878 26.5145 63.6141 22.0798C64.0067 20.7616 64.4422 18.8992 63.7665 17.4792ZM72.1171 3.58555C71.6363 9.09891 67.3507 12.3352 66.2903 12.593C65.6477 12.7219 64.5512 12.4363 65.5301 10.1225C66.9715 7.00593 69.4328 4.36018 72.0732 3.00479C72.1376 3.23533 72.1358 3.38247 72.1171 3.58555ZM97.5388 4.28598C95.2336 5.59538 92.8438 6.44332 89.9512 6.14841C89.1496 7.05217 88.3689 7.98326 87.6494 8.94194C91.7095 9.97457 96.0138 7.6789 98.4144 5.49409C100.954 3.29051 102.256 0.515625 102.256 0.515625C102.256 0.515625 100.353 2.69124 97.5388 4.28598ZM53.9729 8.87719H50.949L49.2433 11.6487H52.2666L53.9729 8.87719Z" fill="#E61A27"/>
<path d="M89.9431 29.5438C89.6179 29.765 89.1611 29.5949 89.3318 29.088C89.7574 27.7972 91.4487 25.1668 91.4487 25.1668L96.1597 16.8113H92.9329C92.7794 17.0633 92.4515 17.6418 92.4515 17.6418C92.3022 17.3931 91.8558 16.8402 91.672 16.7206C90.8836 16.2224 89.727 16.4579 88.9291 16.9096C85.4598 18.9382 82.9286 22.9461 80.9322 26.0717C80.9322 26.0717 78.8308 29.5461 77.6644 29.8045C76.7537 29.8783 76.8477 28.6516 76.8871 28.3658C77.2392 26.3002 78.0569 24.3366 78.8807 22.5572C80.5564 21.3956 82.4686 19.8744 84.2065 18.2057C87.9779 14.6006 91.1575 10.5163 91.6222 9.60357C91.6222 9.60357 91.1192 9.70511 90.5252 9.72337C87.6237 13.7707 81.6862 19.6531 79.8861 20.5288C80.6835 18.6106 85.8357 9.45593 90.22 5.07673L90.9099 4.41271C91.9768 3.37089 93.0821 2.30147 93.9436 2.12624C94.0345 2.11704 94.1517 2.12624 94.2528 2.33863C94.2913 3.1498 93.9893 3.74919 93.6429 4.43136L93.1573 5.4272C93.1573 5.4272 93.8451 5.29807 94.2968 5.15018C94.8207 4.16416 95.4012 3.05746 95.1872 1.73936C95.1159 1.3152 94.8088 0.992576 94.4075 0.918754C93.0997 0.669824 91.6744 1.63758 90.5273 2.42153L90.4811 2.44899C84.5852 7.06804 79.6067 13.7246 75.2539 22.8152C74.9385 23.0546 73.7197 23.3407 73.5126 23.2022C73.9424 22.3174 74.4836 21.1278 74.7543 19.837C74.8012 19.468 74.8448 19.0904 74.8448 18.7216C74.8448 17.9281 74.6543 17.1816 73.9435 16.6656C73.1101 16.2506 72.08 16.4443 71.3853 16.7575C68.2741 18.0483 65.9487 21.2385 64.2706 23.8657C63.3681 25.5349 62.4682 27.3227 62.219 29.3698C62.0436 30.9737 62.4008 32.0065 63.3129 32.5228C64.2507 33.0019 65.4311 32.504 65.8948 32.2645C69.0468 30.6049 71.2493 27.2768 72.9852 24.2342C73.0543 24.2252 74.0021 24.1977 74.7192 24.013C74.7286 24.013 74.7327 24.013 74.7485 24.0226C74.7075 24.1604 74.337 25.2671 74.337 25.2671C73.2367 28.4936 72.7279 30.6881 73.7672 31.9879C75.2523 33.8227 77.7111 31.9237 79.7112 29.4155C79.2819 32.4209 80.8395 32.8915 82.027 32.6612C83.3909 32.2926 84.9108 30.8355 85.6161 30.089C85.3896 30.9646 85.4511 32.5323 86.692 32.6888C87.5423 32.846 88.1789 32.3834 88.9152 31.9868C91.5568 30.5484 94.719 25.7554 95.5399 24.3696H94.4635C93.2963 26.1337 91.8112 28.4461 89.9431 29.5438ZM66.232 29.2228C66.0645 28.9737 66.0089 28.7016 66.0034 28.4073C65.9712 26.5994 67.9163 23.3621 69.2891 21.5984H69.292C69.8672 22.8582 71.17 23.668 71.9565 24.0092C70.9798 26.1852 67.6297 30.8453 66.232 29.2228ZM72.5079 23.0364C72.4149 23.1014 70.7721 22.5479 70.4545 21.0267C70.1852 19.7171 71.087 18.6938 71.9595 18.178C72.3341 17.8827 72.8982 17.7817 73.312 17.9286C73.6961 18.1872 73.8002 18.6486 73.8002 19.1455C73.8002 19.4504 73.7597 19.7636 73.7241 20.0493L73.7163 20.114C73.4411 21.1362 73.035 22.1185 72.5079 23.0364ZM85.6847 28.642C85.6833 28.642 85.3729 28.9185 85.3729 28.9185C84.9297 29.3149 84.4737 29.7389 83.9231 29.5267C83.7711 29.4716 83.6641 29.2689 83.6384 29.1117C83.6134 27.9776 84.124 26.9268 84.6193 25.9035L84.7463 25.6361C86.1708 23.2575 87.8267 20.4548 90.2585 18.5097C90.6683 18.2141 91.113 17.9656 91.5824 18.1594C91.6904 18.2607 91.8161 18.4359 91.8161 18.6109C91.8161 18.6664 91.7667 18.8138 91.7384 18.8598C91.0591 19.9575 90.4123 21.1096 89.7833 22.216C88.554 24.401 87.2788 26.6594 85.6847 28.642Z" fill="#E61A27"/>
</svg>
