<svg width="129" height="36" viewBox="0 0 129 36" fill="none" xmlns="http://www.w3.org/2000/svg">
<path d="M18.4171 6.96001C21.866 6.96001 24.1924 8.42001 25.5189 9.64001L30.7024 4.68001C27.5189 1.78 23.3761 0 18.4171 0C11.2336 0 5.02974 4.04 2.00943 9.92001L7.94802 14.44C9.43777 10.1 13.5601 6.96001 18.4171 6.96001Z" fill="#EA4335"/>
<path d="M36.0506 18.4C36.0506 16.92 35.9281 15.84 35.6628 14.72H18.4185V21.4H28.5406C28.3365 23.06 27.2345 25.56 24.7856 27.24L30.5814 31.64C34.0507 28.5 36.0506 23.88 36.0506 18.4Z" fill="#4285F4"/>
<path d="M7.96891 21.5599C7.58117 20.4399 7.35668 19.2399 7.35668 17.9999C7.35668 16.7599 7.58069 15.56 7.94802 14.44L2.00943 9.92001C0.764567 12.36 0.0507812 15.0999 0.0507812 17.9999C0.0507812 20.8999 0.765045 23.6399 2.00991 26.0799L7.96891 21.5599Z" fill="#FBBC05"/>
<path d="M18.4182 36C23.3772 36 27.5406 34.4 30.5814 31.64L24.7856 27.24C23.2347 28.3 21.1528 29.04 18.4182 29.04C13.5612 29.04 9.43825 25.8999 7.96891 21.5599L2.03095 26.08C5.05127 31.96 11.2348 36 18.4182 36Z" fill="#34A853"/>
<path d="M79.6095 22.576C79.6095 26.6506 76.4617 29.6531 72.5985 29.6531C68.7354 29.6531 65.5875 26.6506 65.5875 22.576C65.5875 18.4726 68.7354 15.4988 72.5985 15.4988C76.4617 15.4988 79.6095 18.4726 79.6095 22.576ZM76.5404 22.576C76.5404 20.0297 74.716 18.2876 72.5985 18.2876C70.481 18.2876 68.6566 20.0297 68.6566 22.576C68.6566 25.0967 70.481 26.8644 72.5985 26.8644C74.716 26.8644 76.5404 25.0935 76.5404 22.576Z" fill="white"/>
<path d="M94.7343 22.576C94.7343 26.6506 91.5865 29.6531 87.7233 29.6531C83.8602 29.6531 80.7123 26.6506 80.7123 22.576C80.7123 18.4758 83.8602 15.4988 87.7233 15.4988C91.5865 15.4988 94.7343 18.4726 94.7343 22.576ZM91.6653 22.576C91.6653 20.0297 89.8408 18.2876 87.7233 18.2876C85.6059 18.2876 83.7814 20.0297 83.7814 22.576C83.7814 25.0967 85.6059 26.8644 87.7233 26.8644C89.8408 26.8644 91.6653 25.0935 91.6653 22.576Z" fill="white"/>
<path d="M109.229 15.9264V28.632C109.229 33.8585 106.185 35.9931 102.587 35.9931C99.1993 35.9931 97.1606 33.699 96.3917 31.8228L99.0638 30.6965C99.5396 31.8483 100.705 33.2076 102.583 33.2076C104.887 33.2076 106.314 31.7686 106.314 29.0596V28.0417H106.207C105.52 28.9001 104.197 29.6499 102.527 29.6499C99.0323 29.6499 95.8309 26.5676 95.8309 22.6015C95.8309 18.6066 99.0323 15.4988 102.527 15.4988C104.194 15.4988 105.517 16.2487 106.207 17.0815H106.314V15.9296H109.229V15.9264ZM106.532 22.6015C106.532 20.1095 104.89 18.2876 102.801 18.2876C100.683 18.2876 98.9094 20.1095 98.9094 22.6015C98.9094 25.068 100.683 26.8644 102.801 26.8644C104.89 26.8644 106.532 25.068 106.532 22.6015Z" fill="white"/>
<path d="M114.034 8.47914V29.2191H111.041V8.47914H114.034Z" fill="white"/>
<path d="M125.699 24.9052L128.081 26.5134C127.313 27.6652 125.46 29.6499 122.258 29.6499C118.288 29.6499 115.323 26.5421 115.323 22.5728C115.323 18.3641 118.313 15.4956 121.915 15.4956C125.542 15.4956 127.316 18.4184 127.896 19.9978L128.214 20.8019L118.871 24.7202C119.586 26.1401 120.699 26.8644 122.258 26.8644C123.821 26.8644 124.905 26.0858 125.699 24.9052ZM118.367 22.359L124.612 19.733C124.269 18.8491 123.235 18.2333 122.019 18.2333C120.459 18.2333 118.288 19.6277 118.367 22.359Z" fill="white"/>
<path d="M54.2565 20.7349V17.7324H64.2483C64.346 18.2557 64.3964 18.8747 64.3964 19.5447C64.3964 21.7974 63.7883 24.583 61.8284 26.5676C59.922 28.5778 57.4863 29.6499 54.2596 29.6499C48.279 29.6499 43.25 24.717 43.25 18.6609C43.25 12.6048 48.279 7.67188 54.2596 7.67188C57.5682 7.67188 59.9251 8.98647 61.696 10.6999L59.6037 12.8186C58.3339 11.6125 56.6134 10.6744 54.2565 10.6744C49.8892 10.6744 46.4735 14.2385 46.4735 18.6609C46.4735 23.0833 49.8892 26.6474 54.2565 26.6474C57.0892 26.6474 58.7026 25.4955 59.7361 24.4489C60.5743 23.6002 61.1257 22.3877 61.3431 20.7317L54.2565 20.7349Z" fill="white"/>
</svg>
