<svg width="166" height="36" viewBox="0 0 166 36" fill="none" xmlns="http://www.w3.org/2000/svg">
<path d="M8.99414 0H26.1013V17.107H8.99414V0Z" fill="#F25022"/>
<path d="M27.887 0H44.9941V17.107H27.887V0Z" fill="#7FBA00"/>
<path d="M8.99414 18.893H26.1013V36H8.99414V18.893Z" fill="#00A4EF"/>
<path d="M27.887 18.893H44.9941V36H27.887V18.893Z" fill="#FFB900"/>
<path d="M66.401 20.7821L65.5637 23.1546H65.4939C65.3544 22.6196 65.0985 21.8055 64.6798 20.8287L60.1909 9.54806H55.7949V27.5272H58.7023V16.4327L58.679 13.9673C58.6558 13.4788 58.6093 13.1067 58.586 12.8276H58.6558C58.7953 13.5253 58.9581 14.037 59.0744 14.3627L64.4705 27.4807H66.5173L71.8669 14.2464C71.9832 13.944 72.0995 13.3393 72.2157 12.8276H72.2855L72.146 16.0606V27.4575H75.2394V9.50154H71.0063L66.401 20.7821ZM78.17 14.572H81.1937V27.4575H78.17V14.572ZM79.7051 9.1294C79.1934 9.1294 78.7748 9.31547 78.4259 9.6411C78.077 9.96672 77.8909 10.3854 77.8909 10.8971C77.8877 11.1287 77.9337 11.3584 78.0259 11.5709C78.1181 11.7835 78.2545 11.974 78.4259 12.1298C78.7748 12.4554 79.1934 12.6182 79.7051 12.6182C80.2168 12.6182 80.6588 12.4322 80.9844 12.1298C81.1558 11.974 81.2921 11.7835 81.3843 11.5709C81.4766 11.3584 81.5226 11.1287 81.5193 10.8971C81.5193 10.4086 81.3333 9.98998 80.9844 9.6411C80.682 9.31547 80.2401 9.1294 79.7051 9.1294ZM91.9161 14.4557C91.3579 14.3394 90.7764 14.2696 90.2182 14.2696C88.8459 14.2696 87.5899 14.572 86.5433 15.1767C85.4966 15.7815 84.6593 16.6188 84.1243 17.6654C83.5661 18.7354 83.287 19.9681 83.287 21.3869C83.287 22.6196 83.5661 23.7128 84.1011 24.7129C84.636 25.6898 85.3803 26.4806 86.3805 27.0155C87.3341 27.5505 88.4505 27.8296 89.7065 27.8296C91.1485 27.8296 92.3813 27.5272 93.3582 26.969L93.3814 26.9458V24.1547L93.2651 24.2477C92.8232 24.5734 92.3115 24.8525 91.7998 25.0153C91.2648 25.2013 90.7764 25.2944 90.3577 25.2944C89.1483 25.2944 88.1947 24.9455 87.5202 24.1779C86.8224 23.4337 86.4735 22.4103 86.4735 21.131C86.4735 19.8053 86.8224 18.7586 87.5434 17.9911C88.2644 17.2235 89.2181 16.8281 90.381 16.8281C91.3579 16.8281 92.358 17.1537 93.2651 17.805L93.3814 17.898V14.9441L93.3582 14.9209C92.9627 14.7581 92.5208 14.572 91.9161 14.4557ZM101.894 14.3627C101.15 14.3627 100.452 14.5953 99.8474 15.0837C99.3357 15.5024 98.9868 16.1071 98.6845 16.8281H98.6612V14.572H95.6375V27.4575H98.6612V20.8752C98.6612 19.7587 98.8938 18.8284 99.4055 18.1539C99.9172 17.4561 100.568 17.1072 101.359 17.1072C101.638 17.1072 101.917 17.177 102.266 17.2235C102.592 17.3166 102.825 17.4096 102.987 17.5259L103.104 17.6189V14.5953L103.034 14.572C102.825 14.4324 102.406 14.3627 101.894 14.3627ZM110.128 14.2929C108.011 14.2929 106.313 14.9209 105.127 16.1536C103.918 17.3863 103.336 19.0842 103.336 21.2241C103.336 23.2243 103.941 24.8525 105.104 26.0387C106.267 27.2016 107.848 27.8063 109.825 27.8063C111.896 27.8063 113.547 27.1784 114.733 25.9224C115.943 24.6664 116.524 22.9917 116.524 20.9217C116.524 18.8749 115.966 17.2468 114.826 16.0606C113.733 14.8744 112.128 14.2929 110.128 14.2929ZM112.547 24.2012C111.989 24.9222 111.105 25.2711 110.012 25.2711C108.918 25.2711 108.035 24.9222 107.407 24.1547C106.779 23.4337 106.476 22.387 106.476 21.0612C106.476 19.689 106.802 18.6423 107.407 17.898C108.035 17.1537 108.895 16.7816 109.988 16.7816C111.058 16.7816 111.896 17.1305 112.5 17.8515C113.105 18.5725 113.431 19.6192 113.431 20.9915C113.384 22.387 113.128 23.4802 112.547 24.2012ZM123.269 19.9216C122.316 19.5262 121.711 19.2238 121.432 18.9679C121.199 18.7354 121.083 18.4097 121.083 17.9911C121.083 17.6422 121.222 17.2933 121.571 17.0607C121.92 16.8281 122.316 16.7118 122.897 16.7118C123.409 16.7118 123.944 16.8049 124.455 16.9444C124.967 17.084 125.432 17.2933 125.804 17.5724L125.921 17.6654V14.8278L125.851 14.8046C125.502 14.665 125.037 14.5255 124.479 14.4092C123.92 14.3161 123.409 14.2696 122.99 14.2696C121.548 14.2696 120.362 14.6185 119.431 15.3861C118.501 16.1071 118.059 17.084 118.059 18.2237C118.059 18.8284 118.152 19.3633 118.362 19.8053C118.571 20.2472 118.873 20.6658 119.292 21.0147C119.711 21.3404 120.315 21.7125 121.153 22.0614C121.85 22.3637 122.385 22.5963 122.711 22.7824C123.037 22.9685 123.246 23.1778 123.409 23.3406C123.525 23.5267 123.595 23.7593 123.595 24.0617C123.595 24.9222 122.944 25.3409 121.618 25.3409C121.106 25.3409 120.571 25.2479 119.943 25.0385C119.315 24.8292 118.734 24.5268 118.245 24.1779L118.129 24.0849V27.0388L118.199 27.0621C118.641 27.2714 119.176 27.4109 119.827 27.5738C120.478 27.6901 121.06 27.7831 121.571 27.7831C123.13 27.7831 124.409 27.4342 125.316 26.6667C126.246 25.9224 126.735 24.9688 126.735 23.736C126.735 22.8754 126.502 22.1079 125.99 21.5264C125.316 20.9682 124.479 20.3867 123.269 19.9216ZM134.713 14.2929C132.596 14.2929 130.898 14.9209 129.712 16.1536C128.526 17.3863 127.921 19.0842 127.921 21.2241C127.921 23.2243 128.526 24.8525 129.689 26.0387C130.852 27.2016 132.433 27.8063 134.41 27.8063C136.48 27.8063 138.132 27.1784 139.318 25.9224C140.527 24.6664 141.109 22.9917 141.109 20.9217C141.109 18.8749 140.551 17.2468 139.411 16.0606C138.318 14.8744 136.713 14.2929 134.713 14.2929ZM137.108 24.2012C136.55 24.9222 135.666 25.2711 134.573 25.2711C133.457 25.2711 132.596 24.9222 131.968 24.1547C131.34 23.4337 131.038 22.387 131.038 21.0612C131.038 19.689 131.363 18.6423 131.968 17.898C132.596 17.1537 133.457 16.7816 134.55 16.7816C135.596 16.7816 136.457 17.1305 137.062 17.8515C137.666 18.5725 137.992 19.6192 137.992 20.9915C137.992 22.387 137.69 23.4802 137.108 24.2012ZM157.274 17.0607V14.572H154.227V10.7575L154.134 10.7808L151.25 11.6414L151.18 11.6646V14.572H146.621V12.9439C146.621 12.1996 146.807 11.6181 147.133 11.246C147.459 10.8738 147.947 10.6877 148.552 10.6877C148.97 10.6877 149.412 10.7808 149.901 10.9901L150.017 11.0599V8.43163L149.947 8.40837C149.529 8.26882 148.97 8.17578 148.249 8.17578C147.342 8.17578 146.551 8.38511 145.83 8.734C145.109 9.1294 144.574 9.66435 144.179 10.3854C143.784 11.0832 143.574 11.874 143.574 12.7811V14.572H141.458V17.0374H143.574V27.4575H146.621V17.0607H151.18V23.6895C151.18 26.4108 152.459 27.7831 155.018 27.7831C155.436 27.7831 155.878 27.7133 156.297 27.6435C156.739 27.5505 157.064 27.4342 157.251 27.3412L157.274 27.3179V24.8292L157.158 24.9222C156.971 25.0385 156.809 25.1316 156.53 25.2013C156.297 25.2711 156.088 25.2944 155.925 25.2944C155.32 25.2944 154.901 25.1548 154.599 24.8059C154.32 24.4803 154.18 23.9454 154.18 23.1546V17.0607H157.274Z" fill="white"/>
</svg>
