<svg width="77" height="40" viewBox="0 0 77 40" fill="none" xmlns="http://www.w3.org/2000/svg">
<path fill-rule="evenodd" clip-rule="evenodd" d="M12.9188 24.4937C12.31 24.4937 11.8333 24.9196 11.8333 25.5411C11.8333 26.163 12.3124 26.5865 12.9188 26.5865C13.5247 26.5865 14.0043 26.1601 14.0043 25.5411C14.0043 24.9196 13.5272 24.4937 12.9188 24.4937ZM12.9188 26.287C12.4847 26.287 12.1627 25.9699 12.1627 25.5411C12.1627 25.1127 12.4822 24.7932 12.9188 24.7932C13.35 24.7932 13.6745 25.1176 13.6745 25.5411C13.6745 25.9621 13.3472 26.287 12.9188 26.287ZM23.481 20.8301H18.1968L18.7974 11.6456L15.3659 20.8301H10.459L18.2447 0.0703125H23.4658L22.8632 9.38091L26.3598 0.0703125H31.2671L23.481 20.8301ZM24.1184 20.8301L31.9037 0.0703125H36.8107L29.0254 20.8301H24.1184Z" fill="white"/>
<path fill-rule="evenodd" clip-rule="evenodd" d="M9.89358 13.6635C3.03665 21.716 -3.4316 32.4304 2.28177 37.3643C7.81796 42.1456 14.7379 39.3147 19.4562 37.4273C24.1745 35.5399 76.3259 12.8927 76.3259 12.8927C76.8292 12.6411 76.7351 12.3264 76.1058 12.4836C75.8521 12.547 19.3306 27.8647 19.3306 27.8647C12.1582 29.8781 3.98014 25.49 9.89358 13.6635Z" fill="white"/>
<path fill-rule="evenodd" clip-rule="evenodd" d="M13.1058 25.6078C13.258 25.6005 13.3771 25.5219 13.3771 25.3112C13.3771 25.0395 13.1995 24.9712 12.9029 24.9712H12.4766V26.0976H12.7609V25.6181H12.8088L13.0678 26.0976H13.3947L13.1058 25.6078ZM12.9234 25.4254H12.7613V25.1639H12.898C12.9819 25.1639 13.078 25.1737 13.078 25.283C13.078 25.4 13.0224 25.4254 12.9234 25.4254ZM62.2471 0C61.6383 0 61.1616 0.426333 61.1616 1.04742C61.1616 1.66892 61.6412 2.09239 62.2471 2.09239C62.8531 2.09239 63.3326 1.66605 63.3326 1.04742C63.333 0.426333 62.8563 0 62.2471 0ZM62.2471 1.79371C61.813 1.79371 61.491 1.47662 61.491 1.04783C61.491 0.619452 61.8106 0.299906 62.2471 0.299906C62.6784 0.299906 63.0032 0.624362 63.0032 1.04783C63.0032 1.46885 62.6759 1.79371 62.2471 1.79371Z" fill="white"/>
<path fill-rule="evenodd" clip-rule="evenodd" d="M62.4311 1.12796C62.5833 1.1206 62.7028 1.04204 62.7028 0.83133C62.7028 0.559655 62.5248 0.491327 62.2286 0.491327H61.8023V1.61731H62.0862V1.13819H62.1345L62.3931 1.61731H62.7204L62.4311 1.12796ZM62.2482 0.945483H62.0862V0.684036H62.2233C62.3067 0.684036 62.4033 0.694265 62.4033 0.803508C62.4033 0.920116 62.3473 0.945483 62.2482 0.945483ZM59.0127 3.53049L60.3314 0.0703125H45.359L40.218 6.29838L42.5915 0.0703125H37.6215L29.8984 20.8301H34.8054L38.1027 12.1488L38.3286 20.8301L53.3848 20.7974L54.8181 16.8041H49.0937L50.9745 11.7716H55.6924L57.1441 7.90266H52.4262L54.0436 3.53049H59.0127ZM43.1966 19.446L42.882 8.62603L50.3011 0.48028L43.1966 19.446Z" fill="white"/>
</svg>
