<svg width="53" height="52" viewBox="0 0 53 52" fill="none" xmlns="http://www.w3.org/2000/svg">
<path d="M52.3672 26C52.3672 40.3595 40.786 52 26.5001 52C12.214 52 0.632812 40.3597 0.632812 26C0.632812 11.6407 12.214 0 26.5001 0C40.7862 0 52.3672 11.6407 52.3672 26Z" fill="white"/>
<path d="M26.2813 9.24451C27.1919 9.76938 28.1578 10.4449 28.8931 11.1607L28.6042 11.4509C27.1533 11.2967 25.6251 11.4892 24.2496 11.5104C24.0962 11.3556 23.7872 11.1229 24.075 10.9285L26.2813 9.24451ZM51.9371 27.2683C51.9564 27.9233 52.018 28.4857 51.7625 29.156C49.1117 29.9099 47.3705 27.1033 44.7985 27.5266L45.0893 28.9814C47.4688 29.0596 48.955 31.3414 51.4133 31.2433C51.0641 31.9409 51.5691 33.7786 50.0218 33.044C48.4157 32.6581 47.2545 31.2433 45.4945 31.2433C45.2822 31.6332 45.4166 32.173 45.3794 32.6342C47.2361 32.9255 48.5714 34.4948 50.4275 34.7845C50.2529 35.4224 50.0799 36.1367 49.5571 36.5257C48.047 36.1582 46.8675 34.8021 45.2599 34.8409L44.9736 36.1767C46.5015 36.216 47.4886 37.5676 48.8616 37.9734C48.8994 38.5369 48.3957 39.0403 48.1056 39.5433C46.8867 39.1772 45.9571 38.1301 44.5644 38.2073C44.5451 37.6826 44.8566 37.0868 44.739 36.5257C43.1749 36.9909 42.126 35.5376 40.9667 34.6657C40.9333 31.8127 37.9298 29.941 37.7712 27.2683C37.7408 26.7355 37.822 26.1666 38.0648 25.5553C39.0519 23.2729 38.7418 20.3095 37.6594 18.1815C37.3305 17.6215 36.7477 17.1795 36.2046 16.8502C36.9992 18.5342 37.9675 20.524 37.4842 22.5939C37.4282 24.1923 36.4851 25.7275 36.4743 27.2683C36.4707 27.8177 36.5879 28.3671 36.9039 28.9219C38.1623 31.1883 40.4263 33.3337 39.575 36.1762C39.3409 37.0492 38.6439 37.7243 38.47 38.6129C39.9422 39.8322 41.3342 41.2061 43.2875 41.2835C43.9835 40.8389 43.5969 38.8676 45.0288 39.7769L47.1194 40.8226C46.967 41.3822 46.4985 41.8838 46.0742 42.2692C45.2809 41.8831 44.5072 41.4203 43.5182 41.4581C43.2265 41.7675 42.9755 42.1148 42.9978 42.5588C43.6938 42.6734 44.3322 42.9671 44.9136 43.3741C44.6437 43.9555 44.1176 44.3198 43.634 44.765L42.0122 44.1852C41.7415 44.5727 41.179 44.9798 41.3764 45.405C41.7423 45.5617 42.1482 45.7735 42.4176 46.045C41.7018 46.8188 40.7945 47.3165 39.9215 47.8417C39.1695 45.3838 36.6917 43.6605 36.9044 40.8181L36.7893 40.7031C36.2069 41.3579 36.4015 42.405 36.439 43.2548C37.1361 45.0351 38.7987 46.4102 39.0508 48.3626C38.7597 48.865 38.1034 48.9652 37.5999 49.1779C37.6583 45.6579 32.319 42.9882 35.743 39.4276C36.8849 37.6842 38.7982 36.0203 38.1202 33.62C37.4242 31.3024 34.9625 29.8664 34.9842 27.2683L34.9881 27.0657C35.5488 24.3563 37.2521 21.4734 35.8587 18.5911C35.4703 17.4318 34.6027 16.1144 33.4225 15.6299C35.182 17.6438 35.8795 20.9297 34.8729 23.6396C34.3656 24.7175 33.6672 26.0017 33.5971 27.2689H33.5929C33.5555 27.9306 33.6907 28.5887 34.1176 29.2127C35.4536 31.3803 37.774 33.7614 36.4392 36.5862C34.9303 38.8489 32.2992 41.1504 33.7686 44.1306C34.8326 45.9104 36.4785 47.6864 36.0345 49.8744L34.2933 50.4542C35.4542 46.3732 29.7655 43.9753 32.1469 39.8929C33.6171 37.7068 36.2467 35.6556 34.7582 32.7542C33.8682 30.9565 32.0295 29.8925 32.0875 27.6459L32.1509 27.2687C32.75 24.0824 35.1721 21.0664 33.4785 17.6615C33.0335 16.6562 32.1441 15.6311 31.1569 15.0502L31.0973 15.1099C33.0717 17.0252 33.6724 20.1765 32.6079 22.7097C32.1112 24.196 31.0211 25.6765 30.7995 27.2692C30.6942 28.0202 30.783 28.7984 31.2169 29.6182C32.4743 31.6094 34.6794 33.7215 33.3034 36.2958C31.8543 38.4221 29.4352 40.4909 30.4015 43.256C31.4658 45.6751 33.6882 47.9796 32.4882 50.9793L30.6915 51.385C32.1227 48.4617 29.9768 45.561 28.7197 43.0257C27.1905 39.3883 32.0053 37.6466 32.0825 34.321C32.0642 32.1746 29.7823 30.9558 29.3001 28.9826C28.3124 28.1494 27.2888 29.3139 26.1081 29.0977C25.2364 29.2729 23.8976 27.8979 23.3773 29.3883C22.7576 31.5734 19.9347 33.1798 21.1754 35.7715C22.3559 38.0746 25.1969 39.7588 24.2479 42.7393C23.3982 45.5233 20.5912 48.1741 22.3321 51.385C21.6169 51.1534 20.2815 51.5969 20.3008 50.4544C19.1985 46.5659 23.899 44.3005 22.4472 40.4141C21.7715 38.0336 18.6931 36.7184 19.3709 33.8553C19.8719 31.4984 22.5166 29.8508 22.1456 27.269C22.1155 27.0529 22.0623 26.8316 21.9863 26.601C20.9992 23.8151 18.9853 21.0285 20.1856 17.777C20.5152 16.8483 21.1735 16.0553 21.7519 15.2252C19.8364 16.2502 18.8702 18.4177 18.9098 20.6228C18.8263 23.0207 20.5976 25.0748 20.8496 27.269C20.9488 28.1546 20.8037 29.0614 20.1856 30.0233C18.9291 31.7283 17.2858 33.5261 18.0392 35.7711C18.7555 38.0356 21.5799 39.4075 21.4058 42.0396C21.3867 45.1532 17.7688 47.0918 18.7942 50.5739L16.9935 49.9897C16.2785 46.8955 19.5669 45.3123 19.6046 42.4494C20.07 39.157 15.8709 37.9355 16.1229 34.7261C16.1048 32.2876 18.2512 30.7433 19.1992 28.6922C19.3618 28.193 19.4159 27.7214 19.3942 27.2692C19.278 25.0014 17.2345 23.2283 17.5736 20.6786C17.6877 18.8021 18.3262 17.1572 19.5455 15.7459C17.8632 16.4217 17.1682 18.3582 16.7035 19.9836C15.8971 22.5899 17.8222 24.9342 18.0152 27.2694C18.1008 28.3005 17.8488 29.3257 16.8785 30.3739C15.4848 32.0163 14.0714 34.0887 15.0776 36.2962C16.1432 38.7318 19.4909 40.6276 18.0389 43.6655C17.2467 45.5812 15.3498 47.0313 15.4277 49.2941C14.9251 49.0812 14.4037 48.869 13.9766 48.4831C13.9766 45.601 18.0764 43.8009 16.123 40.7635C15.95 41.3628 15.9128 42.1772 15.7773 42.8542C15.0994 44.6156 13.6489 46.0255 13.1062 47.8464C12.1985 47.4962 11.2495 46.7602 10.4945 45.9864L11.5402 45.3464C11.4241 44.9588 11.115 44.6302 10.8448 44.3014C10.1656 44.2059 9.71972 44.6515 9.1599 44.8261C8.67624 44.3996 8.20946 44.0125 7.8239 43.4902C8.17103 42.5015 10.8834 43.3191 9.50929 41.6935C8.58164 41.1135 7.6505 41.9421 6.83816 42.3289L5.73694 40.9379C6.68494 40.3581 7.63051 39.5436 8.80964 39.7772C9.10024 40.3005 9.12042 41.0701 9.68024 41.3433C11.6733 41.3045 13.0855 39.797 14.6133 38.6165C13.5484 37.032 12.6816 34.8445 13.6275 32.9283C14.3855 31.0082 16.3602 29.3909 16.4498 27.2682C16.47 26.785 16.3947 26.2767 16.1834 25.7295C15.1392 23.04 14.7707 19.405 16.7637 17.0245C15.6801 17.3156 15.0411 18.6662 14.6729 19.6918C13.4749 22.3181 14.9902 24.7511 15.0425 27.268C15.0496 27.7207 15.0129 28.1744 14.9032 28.6315C13.8775 30.7014 12.2155 32.5175 11.9456 34.8995C10.7651 35.6525 9.7959 36.9694 8.11381 36.525C8.05468 36.9695 8.19016 37.6471 8.34442 38.1506C7.0105 38.0946 6.10094 39.0777 4.97781 39.5421C4.37955 39.3501 4.2239 38.5767 3.99224 38.0355C5.30685 37.5915 6.2552 36.2735 7.76459 36.2944C7.93955 35.8083 7.6665 35.3629 7.58946 34.8991C5.7119 34.0657 2.73572 39.0188 2.48546 34.7245C4.36164 34.6083 5.56059 32.8668 7.41868 32.6932L7.47416 31.3022C5.36546 31.0892 4.00894 33.257 1.90111 33.0433L1.43624 31.1871C3.87451 31.3395 5.3272 29.1544 7.64929 29.0369C7.95781 28.6311 7.99503 28.0313 8.0545 27.4708C5.5199 27.1405 3.78059 29.9494 1.09051 29.0963C1.09051 29.0963 0.99781 27.9273 0.947549 27.2682H0.951201C0.93294 27.0104 0.915549 26.8308 0.915549 26.8308C3.31433 27.7615 5.42198 26.0386 7.47416 25.1492C7.99607 24.993 8.80998 25.2638 9.04407 24.684C9.02372 24.2389 9.83537 23.7186 9.15972 23.408C6.15955 23.0009 4.16651 26.6195 1.09016 24.9741L0.859375 24.5089C1.49937 15.7654 6.43051 7.31216 14.6133 3.15233C17.9274 1.25842 22.0446 0.293029 26.1968 0.258768C31.2077 0.217203 36.271 1.53164 40.0376 4.1979C43.6954 6.44155 47.1942 10.1391 49.0929 13.8927C50.9089 17.1814 51.7448 20.8716 51.9943 24.8003C48.8208 27.1982 46.6917 22.5412 43.4601 23.5835C43.6342 24.0875 43.7305 24.6089 44.0999 25.0344C46.9641 25.0142 48.9364 28.0132 51.9345 26.8313L51.9371 27.2683ZM15.4829 16.5C13.4705 15.184 10.9192 16.4231 9.04372 17.1398C8.86963 15.3784 8.15433 13.7737 6.66285 12.613C6.51816 12.541 6.31816 12.3895 6.13798 12.3784C6.03016 12.3716 5.92755 12.4151 5.8479 12.553C6.5239 16.7118 3.82042 19.6137 1.90459 22.7685C2.54251 23.2899 3.56737 23.212 4.34111 23.0588C6.37207 22.2466 8.30668 20.833 10.7249 21.3175C11.4401 20.0988 12.6416 18.9182 13.6269 17.9509C14.2288 17.4301 15.0557 17.0993 15.4829 16.5ZM21.6362 19.1118C21.5976 19.3622 21.6555 19.8087 22.0416 19.6362C22.6423 18.8043 23.7058 19.4624 24.3632 19.521V19.2869C24.0025 18.7205 23.2604 18.436 22.5069 18.4643C22.3329 18.4704 22.1562 18.4958 21.9862 18.5353C21.734 18.5913 21.5585 18.8221 21.6362 19.1118ZM31.0964 16.6195C30.5562 15.4196 29.318 14.9341 28.1943 14.644C27.6435 14.5762 27.0719 14.5302 26.5049 14.5249C26.3987 14.5238 26.2926 14.5224 26.1869 14.5249C24.6009 14.5569 23.0856 14.964 22.1599 16.2694C22.027 16.6379 21.4429 17.1555 21.9853 17.4857C23.2042 17.4078 24.5952 17.2549 25.4077 18.301C25.4077 19.2306 26.0079 20.4673 25.0023 20.9123C24.1691 20.1409 23.1823 21.2407 22.2757 20.6215C21.8495 20.3697 21.5797 20.6636 21.4051 21.0311C21.1531 23.4295 22.4089 26.0765 24.6528 27.4109C25.5622 27.7389 26.7846 28.0509 27.7336 27.5855C30.0164 26.5226 30.962 24.0864 31.387 21.8419C31.33 21.4148 31.3503 20.5824 30.751 20.5622C30.0743 20.9902 29.0874 20.7374 28.3702 20.5622C27.9462 20.6991 27.9267 21.3195 27.4441 21.437L27.15 21.2024C26.8982 20.14 26.7429 18.6304 27.7305 17.8953C28.8342 17.4502 30.1303 17.2558 31.2717 17.605C31.4848 17.2377 31.1559 16.9485 31.0964 16.6195ZM29.9317 18.5271C29.855 18.529 29.7804 18.5329 29.7049 18.5353C29.2995 18.8057 28.1182 18.6113 28.5446 19.521C29.2802 18.9391 30.3056 19.3469 31.0408 19.6362C31.3126 19.5012 31.2536 19.2302 31.2715 18.9967C31.0355 18.5575 30.4715 18.5163 29.9317 18.5271ZM38.355 10.3473C36.923 10.2713 35.7239 11.0842 34.4081 11.452C34.2935 10.3323 35.1441 9.1499 35.3382 8.0259C33.2107 8.16277 31.5256 9.44329 29.7656 10.4662C29.3583 9.48207 28.9498 8.49285 28.5453 7.50503L30.8669 5.29894L30.9263 5.00833L27.7905 4.83372C27.2503 3.88729 27.0375 2.74729 26.399 1.87668C25.8766 2.86329 25.5256 3.90746 25.0037 4.8932L21.8715 5.06833V5.29894L24.2488 7.44538C23.9582 8.54868 23.6881 9.74746 22.9729 10.5814C21.5801 9.74712 20.207 8.83912 18.6799 8.25981C18.3124 8.1412 17.7886 7.94833 17.4597 8.20033C17.9427 9.26468 18.619 10.4095 18.5053 11.5713C17.8665 11.4537 17.3644 11.0442 16.7642 10.872C16.0465 10.6762 15.1949 10.2936 14.4985 10.5262C15.6595 12.1504 16.6072 13.8502 16.935 15.8049C20.7867 13.9459 25.2785 12.9235 29.9411 13.7179C32.1267 14.0657 34.1364 14.956 36.0907 15.6894C36.167 13.6398 37.4632 11.9929 38.355 10.3473ZM44.9693 21.4923C46.9411 22.0142 48.9192 24.1626 51.0072 22.7687C49.1888 19.7511 46.4822 16.9645 47.2348 13.0184C47.3136 12.749 47.1395 12.4763 46.8891 12.4381C45.7095 12.9202 44.7959 14.0824 44.3291 15.2249C44.1371 15.9005 44.0234 16.6188 43.7529 17.2556C42.3397 16.5202 40.8317 15.8076 39.11 15.9798C38.4891 16.0572 37.599 16.0979 37.4844 16.7353C39.4383 17.7795 41.0451 19.5221 42.2425 21.3777C43.0762 21.2417 44.0987 21.3579 44.9693 21.4923ZM24.3074 24.2195L24.363 24.5692C25.119 25.0729 25.3515 25.9264 26.3982 25.8489C27.3263 25.904 28.0227 25.0344 28.4851 24.3384C27.2291 24.165 25.7008 24.4334 24.3074 24.2195ZM25.3526 22.6534C25.3903 22.8083 25.2568 23.0405 25.4677 23.1188C26.0869 22.9843 27.2084 23.4482 27.5542 22.713C27.3128 22.4426 26.9187 22.3198 26.5051 22.3198C26.0917 22.3198 25.6627 22.4403 25.3526 22.6534Z" fill="#007042"/>
<path opacity="0.99" d="M24.3125 21.9844H28.5546V23.7272H24.3125V21.9844Z" fill="white"/>
<path d="M25.0947 22.9175C25.6428 23.0473 25.7785 23.2417 26.2117 23.296C26.6722 23.2878 26.6058 23.1942 27.4091 22.917C27.4618 22.8984 27.5343 22.7821 27.4444 22.6929C26.9456 22.1977 26.6009 22.5515 26.2882 22.5609C25.8734 22.5654 25.4844 22.2057 25.0792 22.6732C25.0101 22.7682 24.9741 22.8614 25.0947 22.9175Z" fill="#007042"/>
<path d="M45.1366 51.5033V49.021H44.25V48.5156H46.6243V49.021H45.7397V51.5033H45.1366Z" fill="#007042"/>
<path d="M47.0078 51.5034V48.5156H47.9106L48.4527 50.5537L48.9887 48.5156H49.8936V51.5034H49.333V49.1516L48.74 51.5034H48.1591L47.5682 49.1516V51.5034H47.0078Z" fill="#007042"/>
</svg>
