<svg width="1350" height="676" viewBox="0 0 1350 676" fill="none" xmlns="http://www.w3.org/2000/svg">
<rect width="1440" height="676" fill="#1F222D" fill-opacity="0.46"/>
<g opacity="0.2" clip-path="url(#clip0_2_204394)">
<path d="M424.03 376.991C422.926 377.341 421.74 377.422 420.592 377.628C420.999 376.381 421.165 374.969 421.854 373.914C436.545 351.385 460.776 340.712 481.073 325.352C511.415 302.388 529.533 258.392 516.599 232.408C506.914 212.948 490.556 204.882 466.671 204.924C454.628 204.781 440.601 209.865 426.357 214.005C420.31 215.763 412.202 219.458 408.814 212.271C405.51 205.264 413.128 201.073 418.511 198.151C460.539 175.331 524.929 181.383 538.161 237.061C546.028 270.162 531.31 297.86 511.599 322.456C488.843 350.853 457.687 366.274 424.03 376.991ZM362.862 408.771C357.171 414.493 347.515 422.587 341.246 414.236C332.241 402.238 344.187 392.475 351.466 384.481C382.445 350.445 421.817 327.39 458.449 300.709C472.928 290.164 486.396 277.454 490.671 258.879C494.593 241.844 480.871 236.326 469.401 229.929C465.982 228.023 460.166 227.445 460.77 222.738C460.988 221.03 468.181 219.276 472.215 219.212C494.183 218.868 508.235 232.378 508.235 259.546C506.285 285.7 486.042 306.75 462.27 323.361C426.231 348.542 393.834 377.64 362.862 408.771ZM488.911 784.953C482.454 782.51 475.438 782.08 468.734 781.273C441.64 778.006 414.916 770.486 387.346 772.516C371.101 773.71 354.96 776.355 338.721 777.713C331.518 778.315 327.534 773.262 324.848 766.766C322.093 760.106 319.951 751.1 310.648 752.695C298.892 754.713 295.582 764.717 294.389 775.499C294.217 777.058 293.931 778.606 293.698 780.158C292.381 779.241 290.893 778.507 289.776 777.384C272.311 759.864 273.84 735.647 297.874 725.241C334.275 709.481 354.38 679.865 374.42 648.523C382.515 635.862 393.717 625.234 409.886 633.106C426.582 641.234 423.463 658.06 420.386 671.864C412.146 708.822 422.361 745.552 445.586 755.614C466.532 764.687 489.327 765.986 511.081 771.66C521.471 774.369 531.349 778.245 539.801 784.953H580.71C568.728 778.329 556.821 771.546 544.564 765.507C524.661 755.703 502.796 752.903 481.471 748.011C449.07 740.579 434.317 707.117 440.782 670.286C449.271 621.92 483.054 595.786 517.415 568.939C547.514 545.425 574.35 519.461 573.812 476.591C573.474 449.57 561.893 427.154 543.575 408.362C515.988 380.06 519.503 348.936 533.55 315.794C547.526 282.811 557.856 249.169 545.076 212.685C539.999 198.186 528.46 191.045 517.44 182.783C498.247 168.392 497.712 154.546 518.723 143.19C544.492 129.262 556.265 108.485 561.492 80.0981C568.013 44.6726 597.114 33.4211 631.088 50.0815C654.973 61.7943 674.309 81.2543 699.297 90.9378C714.678 96.8972 729.913 96.8239 745 90.9397V67.8329C700.072 89.7321 668.672 61.4122 636.846 34.9891C617.528 18.9503 596.531 11.805 571.238 17.4813C562.71 19.3938 547.349 22.1518 547.262 7.86713C547.174 -6.32245 560.422 -5.32263 570.78 -6.98773H515.982C517.419 17.2001 528.118 39.2339 531.955 62.8813C537.279 95.7092 520.801 117.767 497.427 136.387C489.467 142.729 481.351 149.011 472.678 154.238C463.443 159.805 451.341 166.047 444.89 153.141C438.235 139.826 451.436 133.97 460.586 128.933C478.239 119.216 500.286 115.775 506.071 90.8704C511.899 65.7916 502.885 42.764 498.194 19.0612C496.489 10.4468 495.383 1.70782 494.076 -6.98773H473.091C476.017 2.0741 479 11.118 481.803 20.2194C489.224 44.3083 499.206 68.9673 479.57 91.6485C466.427 106.83 447.151 115.63 435.496 132.509C419.527 155.633 402.917 177.637 375.926 188.614C369.671 191.156 360.77 193.722 361.272 202.14C361.815 211.265 370.753 215.041 377.868 219.018C399.756 231.248 424.618 227.53 447.887 232.372C459.805 234.853 472.19 238.045 476.549 251.494C479.875 261.751 473.544 270.158 465.978 275.387C451.058 285.698 435.543 295.274 419.599 303.853C381.06 324.588 346.874 349.92 327.68 391.471C322.538 402.602 318.42 414.865 325.33 426.83C329.119 433.391 336.149 435.872 343.601 434.858C357.303 432.997 368.352 425.03 379.628 417.702C403.033 402.493 425.846 384.229 454.408 382.487C484.913 380.628 507.553 402.319 531.889 417.091C552.506 429.607 565.038 449.043 561.131 474.607C553.932 521.704 525.172 554.017 487.668 579.159C475.801 587.114 462.097 594.444 447.792 586.726C434.605 579.609 436.464 565.399 439.02 553.499C444.486 528.04 435.263 512.898 413.694 499.025C386.003 481.212 385.469 466.25 408.008 446.129C424.354 431.538 443.359 416.319 465.955 420.367C500.601 426.576 518.618 454.096 519.078 492.329C519.138 497.249 518.07 503.83 524.387 506.008C526.386 506.699 530.282 504.778 531.939 502.834C538.548 495.085 541.155 485.554 541.823 475.463C543.689 447.313 524.408 434.654 504.113 423.682C488.216 415.087 473.802 400.353 453.969 403.691C427.757 408.104 409.826 429.605 386.518 440.445C366.207 449.893 363.292 462.944 377.414 480.705C383.779 488.712 391.66 495.871 399.964 501.799C432.208 524.822 435.992 540.926 414.782 570.379C403.793 585.635 389.541 599.312 382.06 616.155C364.914 654.766 341.196 683.214 300.479 698.249C257.014 714.3 244.576 755.059 270.242 784.953H488.911Z" fill="#262A36"/>
<path d="M450.325 -6.98465H434.54C444.421 5.22708 452.098 18.4703 454.093 34.8101C456.579 55.157 452.255 73.93 437.749 87.783C411.993 112.377 395.706 145.678 366.877 167.151C345.298 183.224 322.075 179.048 300.228 168.713C274.265 156.43 249.659 158.693 224.727 170.416C223.173 171.147 221.366 171.319 219.678 171.752C220.131 169.973 220.343 168.082 221.073 166.429C229.75 146.751 263.8 139.035 289.816 150.414C315.879 161.812 341.962 176.662 369.416 153.573C388.143 137.824 399.068 115.794 413.617 96.6745C424.676 82.1404 440.027 69.891 440.837 49.7322C441.916 22.9467 427.821 5.53595 406.894 -6.98465H301.832C311.759 -3.4902 321.646 0.132935 331.729 3.05917C350.828 8.60077 369.81 -0.0412903 388.885 1.70297C407.52 3.40961 421.298 13.5226 430.251 29.9633C435.748 40.0626 435.575 50.538 428.903 60.5105C426.284 64.4247 422.871 66.8381 418.421 66.1571C413.101 65.3434 410.923 60.8154 409.758 55.9945C401.873 23.3309 392.667 16.4489 360.873 25.4334C340.109 31.2997 324.717 20.2522 307.984 13.3088C271.619 -1.78555 235.69 21.8519 235.525 61.6568C235.484 71.2591 234.873 80.8852 233.991 90.4478C233.377 97.112 232.103 104.768 223.13 103.479C214.927 102.299 211.903 94.5699 212.155 87.5909C213.548 48.9996 220.811 4.15796 265.245 -6.98465H232.237C209.298 22.5904 199.482 56.5271 203.082 94.073C204.426 108.106 212.007 121.237 228.266 118.803C245.869 116.166 243.544 99.0246 245.409 86.1397C248.781 62.8052 245.519 36.4335 271.413 23.3527C288.513 14.7146 304.836 20.6481 318.717 31.4918C330.688 40.8426 342.203 44.3272 357.716 42.6661C392.001 38.9935 404.289 56.3607 395.977 93.1266C388.388 126.699 361.652 155.577 338.062 155.06C320.451 154.674 307.524 142.047 292.153 135.78C262.186 123.561 238.045 136.788 215.319 155.183C180.797 183.127 143.828 205.63 98.6065 209.649C94.408 210.021 89.4185 209.387 88.4608 204.652C87.3897 199.354 92.584 197.877 96.4153 196.497C117.502 188.898 139.596 184.142 159.295 172.655C188.793 155.452 192.089 129.225 187.116 97.8485C181.25 60.8412 189.48 25.6433 207.72 -6.98465H190.366C176.388 28.5794 178.451 66.2778 176.705 103.507C175.691 125.182 171.097 146.001 155.639 162.172C123.672 195.614 75.619 194.208 40.1101 159.806C35.2803 155.128 28.9284 145.68 21.841 151.726C14.6731 157.844 21.8279 165.625 26.1902 171.768C29.1686 175.966 32.1121 180.244 35.5569 184.028C53.8475 204.107 70.2208 227.638 102.069 224.494C121.399 222.585 136.49 210.385 153.163 202.135C189.253 184.279 225.665 207.315 225.665 248.317C225.665 299.025 174.702 334.781 123.326 323.829C87.7771 316.248 56.2878 297.659 21.0004 290.126C1.13647 285.885 -22.7796 299.724 -27.7284 319.962C-31.8737 336.912 -20.2984 351.26 0.990784 357.118C31.1888 365.426 59.3395 377.099 79.2268 404.082C100.136 432.453 107.605 433.424 137.16 412.455C161.71 395.036 186.945 387.113 216.549 398.123C243.622 408.19 254.865 400.794 255.123 371.472C255.455 333.837 272.47 309.665 306.174 296.333C335.166 284.865 350.346 256.971 343.068 226.784C339.187 210.682 326.518 204.376 311.729 207.813C298.532 210.878 303.371 222.918 305.224 231.734C310.249 255.669 308.491 277.053 286.932 292.585C273.289 302.413 260.387 313.011 253.915 329.588C248.985 342.22 243.732 354.796 234.377 364.77C213.734 386.782 185.836 383.08 159.924 385.741C104.702 391.409 59.0565 364.766 13.2746 339.208C4.35713 334.231 -6.29941 327.104 0.841211 315.098C7.61217 303.712 19.4148 307.531 28.6908 313.207C59.6109 332.124 89.6438 352.044 126.231 359.33C157.487 365.554 189.138 357.694 203.645 337.514C231.559 298.687 238.802 254.752 237.291 207.976C236.366 179.284 252.549 166.332 279.253 175.459C322.021 190.076 361.022 189.064 393.347 152.609C410.084 133.737 423.165 111.446 443.627 96.0706C461.508 82.6334 469.839 65.4779 466.358 42.4661C463.712 24.9702 456.597 9.17096 450.325 -6.98465Z" fill="#262A36"/>
<path d="M666.834 740.64C629.144 706.49 609.233 671.787 640.346 625.231C657.157 600.078 694.761 591.5 731.754 604.222C736.086 605.711 740.556 606.78 745 607.929V565.663C726.844 569.066 708.617 572.141 690.575 576.089C643.136 586.471 606.799 622.025 602.99 669.177C599.859 707.929 625.072 733.077 655.21 753.081C663.615 758.663 675.764 764.268 670.779 777.855C669.221 782.098 666.35 784.136 662.951 784.953H688.712C693.019 764.901 679.662 752.266 666.834 740.64Z" fill="#262A36"/>
<path d="M504.79 721.416C541.989 734.508 572.769 759.801 608.037 776.446C614.319 779.412 620.689 782.181 627.058 784.953H653.334C651.981 784.747 650.648 784.492 649.372 784.236C617.641 777.871 592.505 760.282 570.343 736.7C534.801 698.879 542.517 615.89 584.496 585.992C607.816 569.383 630.487 551.766 652.732 533.684C659.288 528.354 665.384 517.641 657.686 511.054C649.704 504.228 646.363 516.254 641.612 521.211C632.954 530.245 625.067 540.507 615.081 547.674C576.52 575.338 541.777 605.519 532.235 656.174C530.551 665.119 526.726 674.416 515.561 671.381C506.915 669.031 506.418 660.05 507.979 652.315C516.522 609.986 544.131 581.494 575.539 555.655C593.453 540.919 615.23 529.61 623.793 505.794C630.854 486.154 620.813 467.04 619.92 447.557C619.181 431.441 622.221 413.624 611.909 399.997C604.224 389.838 590.788 384.112 583.465 373.787C563.801 346.065 570.52 314.809 577.907 285.207C586.041 252.612 593.294 220.824 585.633 186.869C578.476 155.158 578.906 123.37 593.212 93.1729C595.701 87.9204 599.582 83.0361 606.068 84.4359C612.773 85.8831 613.643 91.9493 613.614 97.9127C613.498 122.413 606.289 146.288 608.76 171.171C611.079 194.537 626.388 211.732 643.84 207.503C674.166 200.156 707.633 216.258 718.437 245.82C729.16 275.155 723.173 307.205 729.69 337.429C732.761 351.674 734.826 366.331 744.999 377.395V330.878C739.36 315.247 738.002 298.638 737.672 282.314C736.638 230.911 713.808 197.747 665.085 182.142C633.898 172.153 623.3 150.783 625.242 107.725C625.932 92.4127 630.877 74.3505 610.629 70.0879C591.915 66.1479 586.911 83.8578 581.377 97.4218C573.558 116.587 561.689 132.425 547.869 147.526C533.851 162.84 548.632 173.977 556.4 185.153C582.158 222.202 578.311 262.369 561.431 299.325C541.932 342.013 550.341 373.72 580.617 406.54C611.274 439.774 615.112 491.858 591.924 523.664C573.82 548.499 545.588 562.703 524.477 584.616C499.335 610.714 469.741 634.585 465.138 674.052C461.849 702.253 482.911 713.716 504.79 721.416Z" fill="#262A36"/>
<path d="M320.48 349.384C307.764 372.843 303.261 398.407 299.421 424.567C294.87 455.575 272.282 470.034 242.312 457.486C202.593 440.855 169.553 445.448 140.026 477.28C136.686 480.881 129.732 486.14 126.842 480.923C121.848 471.907 129.597 464.265 135.125 457.755C163.304 424.569 196.484 419.102 235.929 436.335C251.078 442.953 272.212 452.174 281.47 426.713C286.2 413.707 285.719 398.728 287.593 384.639C288.391 367.784 287.354 350.108 300.684 337.099C306.33 331.587 313.941 326.245 321.216 331.036C328.356 335.738 323.613 343.6 320.48 349.384ZM446.812 256.786C446.417 254.747 442.698 252.422 440.167 251.916C418.916 247.659 396.8 248.411 376.309 239.486C369.017 236.308 365.338 241.753 364.753 248.421C361.915 280.809 347.836 303.946 316.292 315.047C297.869 321.529 279.559 330.967 275.227 352.662C272.199 367.836 273.353 383.924 273.073 399.613C272.714 419.647 262.471 429.184 243.53 425.459C226.774 422.163 210.365 415.469 193.547 414.37C157.389 412.002 135.369 436.986 115.178 462.574C105.613 474.694 107.261 488.34 119.377 498.922C127.379 505.913 135.944 503.367 143.547 497.833C152.623 491.228 160.296 481.685 170.227 477.391C221.845 455.062 271.966 465.751 318.015 492.41C359.025 516.149 367.962 548.462 349.285 580.337C331.997 609.843 302.282 618.347 273.174 628.305C234.262 641.618 200.132 660.199 189.604 705.963C183.924 730.65 171.727 751.42 144.695 755.715C120.26 759.597 104.785 743.079 89.4791 726.797C76.5389 713.031 64.5357 697.519 46.2294 690.675C14.2773 678.73 -9.44451 695.028 -32 714.548V742.974C-25.312 733.02 -19.1543 722.621 -9.08495 715.538C20.7613 694.543 46.2579 699.521 68.7857 729.325C84.0609 749.536 100.469 768.859 120.072 784.953H193.401C182.537 738.359 202.994 702.387 234.157 671.015C254.056 650.979 281.649 643.609 305.757 630.485C337.729 613.08 364.695 590.728 371.833 551.79C377.068 523.236 357.201 509.338 338.343 494.931C324.693 484.503 307.259 477.243 304.252 456.967C303.774 453.744 305.493 450.18 306.196 446.775C307.772 447.545 309.759 447.937 310.843 449.16C313.32 451.956 315.231 455.264 317.589 458.178C332.475 476.575 351.523 490.169 369.5 505.008C394.081 525.294 393.325 549.82 373.692 585.069C347.999 631.198 305.248 654.148 262.593 677.952C231.234 695.452 202.046 744.818 219.285 784.953H243.621C221.688 738.409 246.086 689.405 291.152 673.802C310.985 666.936 332.814 663.499 346.396 644.227C362.212 621.788 370.744 594.723 389.747 574.224C398.745 564.518 408.36 554.146 406.802 539.246C404.743 519.558 387.82 511.593 375.254 500.46C352.008 479.868 323.731 462.817 313.98 431.213C300.837 388.616 323.088 356.089 349.396 326.354C374.26 298.25 409.368 286.169 440.145 267.317C443.904 265.014 447.76 261.688 446.812 256.786Z" fill="#262A36"/>
<path d="M244.627 596.513C212.774 613.576 188.023 640.876 157.221 659.364C146.229 665.961 134.1 669.209 119.722 669.287C99 668.477 79.0395 660.393 60.7684 647.886C56.8628 645.214 51.4483 641.197 54.6112 635.089C58.7903 627.021 66.5421 627.918 73.1498 630.682C122.326 651.254 160.955 627.518 199.215 600.52C212.108 591.421 225.478 582.256 242.618 583.702C246.249 584.009 249.547 585.699 249.524 588.689C249.503 591.37 247.051 595.216 244.627 596.513ZM332.138 549.805C326.923 544.685 320.14 558.462 314.708 564.386C303.02 577.133 289.485 584.505 272.615 577.382C256.795 570.704 241.434 566.77 224.672 573.369C190.169 586.951 160.615 611.356 122.75 618.189C90.3734 624.031 53.2154 605.88 43.1408 573.99C35.2434 548.993 41.6756 522.316 35.5295 496.98C25.7019 456.474 7.23124 422.833 -32 405.404V424.215C-2.34721 439.044 11.1273 466.544 18.5832 497.113C28.668 538.46 34.4781 580.9 21.3138 622.499C13.2374 648.021 -8.0024 661.274 -32 669.619V685.838C23.1092 643.915 66.5467 657.689 107.368 705.645C128.922 730.967 151.384 731.06 163.483 699.986C181.583 653.497 209.631 619.719 258.094 605.569C281.297 598.796 307.385 598.358 324.963 577.732C331.851 569.649 340.419 557.934 332.138 549.805Z" fill="#262A36"/>
<path d="M297.146 503.465C259.979 487.3 220.699 493.138 182.077 496.197C174.214 496.819 165.952 504.237 167.496 513.909C168.518 520.312 177.013 519.324 181.999 518.092C209.981 511.179 238.137 506.878 266.841 511.509C275.35 512.881 288.448 511.86 288.419 524.21C288.388 537.067 275.971 536.091 267.065 535.287C240.728 532.913 214.771 529.983 188.706 539.188C134.05 558.489 101.911 544.234 88.3318 486.921C72.2913 419.222 31.6587 383.967 -32 371.413V382.213C-31.5661 382.282 -31.1376 382.369 -30.7239 382.504C22.933 399.929 65.7709 464.533 68.4937 530.9C69.3645 552.122 73.282 573.334 93.3338 585.029C116.275 598.409 137.771 588.3 157.132 575.759C192.999 552.53 227.815 530.51 273.477 549.52C285.853 554.674 301.816 548.709 308.502 533.973C314.258 521.284 308.64 508.464 297.146 503.465Z" fill="#262A36"/>
<path d="M198.821 222.565C189.041 208.041 168.536 206.255 150.683 219.166C136.122 229.695 123.96 244.27 104.336 245.571C73.5526 247.61 53.8817 228.249 34.4029 208.235C7.92141 181.026 0.185814 179.406 -32 196.178V222.674C-1.47366 207.235 21.2139 227.04 45.5418 241.51C88.7365 267.201 116.578 264.142 158.736 230.962C164.623 226.327 172.628 219.847 178.679 226.877C186.003 235.389 179.748 245.066 173.262 251.57C144.162 280.747 108.802 281.495 71.5279 274.239C46.513 269.369 26.53 252.198 2.13938 246.115C-10.3794 242.993 -21.3396 247.337 -32 253.035V277.375C-20.0939 267.49 -6.81106 259.44 8.80331 264.322C33.7489 272.123 57.4836 284.119 82.5774 291.228C117.364 301.084 152.872 308.645 186.111 284.566C204.783 271.04 211.226 240.988 198.821 222.565Z" fill="#262A36"/>
<path d="M712.165 488.107C691.19 493.882 675.024 484.408 662.621 467.807C651.586 453.036 649.715 435.381 649.558 417.454C649.482 397.17 655.36 374.97 636.741 359.664C626.147 350.955 610.893 349.078 606.141 332.235C596.487 298.017 614.49 256.66 644.076 248.345C667.242 241.833 688.686 260.919 696.193 293.804C704.02 328.089 700.385 365.009 718.371 396.897C727.038 412.263 738.95 426.171 739.532 444.996C740.168 465.554 733.32 482.284 712.165 488.107ZM745.001 408.095C740.03 402.575 734.773 397.241 730.883 391.019C710.397 358.254 709.793 320.443 706.155 283.57C702.845 250.012 675.304 226.703 643.42 231.528C616.312 235.628 596.291 263.071 595.135 295.976C594.399 316.98 589.987 338.313 603.049 357.209C610.083 367.387 624.976 367.67 631.141 379.017C640.092 395.487 634.527 413.524 635.665 430.826C637.161 453.523 643.258 473.771 662.732 487.115C691.438 506.787 710.628 504.169 745.001 475.681V408.095Z" fill="#262A36"/>
<path d="M126.597 -6.98639H93.8708C87.5974 5.04913 80.6244 16.7916 75.5869 29.3439C67.0191 50.6946 73.5162 67.7926 92.3351 80.5033C99.5262 85.3599 108.351 89.6046 108.528 100.197C108.572 102.83 105.602 107.196 103.205 107.904C92.1226 111.187 83.1024 105.533 75.7306 98.1615C45.9475 68.3846 41.094 31.5197 61.4572 -5.54311C61.7117 -6.00442 61.924 -6.49142 62.1202 -6.98639H47.3721C32.58 25.3486 39.7459 77.682 63.5038 103.67C75.2287 116.495 89.0923 126.822 107.314 119.015C122.933 112.325 123.781 96.7421 123.135 82.2674C121.798 52.3597 119.821 22.5134 126.597 -6.98639Z" fill="#262A36"/>
<path d="M744.997 117.108C720.207 130.187 699.665 119.018 678.679 104.268C669.986 98.1586 658.37 79.8826 647.692 97.9844C639.384 112.063 643.867 130.003 655.378 143.477C670.423 161.088 693.09 165.723 711.888 176.978C724.636 184.615 735.194 194.558 744.997 205.484V117.108Z" fill="#262A36"/>
<path d="M167.606 -6.99112H152.346C151.532 -4.58757 150.694 -2.19199 150.086 0.263031C141.69 34.166 148.534 69.1203 143.252 103.271C139.644 126.603 122.193 148.716 101.365 152.435C82.4803 155.806 66.4151 147.762 56.1523 131.858C28.9476 89.699 15.8921 43.6891 22.9473 -6.99112H6.84785C6.29871 -4.13617 5.61495 -1.27133 5.81774 1.5262C9.48324 52.1154 24.428 100.269 50.3928 142.244C71.4197 176.238 109.601 186.462 140.298 148.398C160.449 123.412 162.939 93.7814 163.185 63.1769C163.374 39.7334 160.238 15.9514 167.606 -6.99112Z" fill="#262A36"/>
<path d="M609.462 740.467C570.75 692.119 573.581 639.655 616.352 595.243C651.898 558.335 698.977 549.91 745 538.558V504.485C698.178 519.898 661.681 553.175 621.484 579.972C553.532 625.275 552.289 710.767 618.526 756.684C620.706 758.195 623.176 759.268 625.509 760.547C623.99 758.545 622.516 756.504 620.941 754.55C617.137 749.836 613.248 745.195 609.462 740.467Z" fill="#262A36"/>
<path d="M670.199 710.875C693.563 729.81 714.484 751.052 711.086 784.953H732.287C727.345 749.504 707.586 723.635 680.228 702.077C666.238 691.051 657.035 676.119 662.324 657.132C667.619 638.119 681.885 630.443 700.663 631.394C717.739 632.259 730.746 643.039 744.993 650.784V631.742C737.17 628.836 729.196 626.244 721.743 622.56C696.094 609.877 667.306 616.541 654.218 638.735C640.298 662.339 648.052 692.926 670.199 710.875Z" fill="#262A36"/>
<path d="M-1.97483 505.674C-5.76212 485.145 -13.5775 466.002 -32 454.097V481.93C-16.4595 502.839 -14.5933 527.649 -14.2191 552.749C-13.9607 570.091 -18.9679 585.363 -32 596.9V639.188C-20.4345 634.733 -12.6994 625.685 -7.39634 614.802C9.86469 579.372 4.7804 542.296 -1.97483 505.674Z" fill="#262A36"/>
<path d="M10.0368 85.5099C2.78739 54.6559 -14.8207 26.2469 -12.0713 -6.99081H-23.6616C-26.7566 16.0131 -16.6543 36.2551 -9.75842 57.1049C1.85693 92.2235 -5.67859 122.725 -32 145.644V169.562C-3.53272 163.3 17.9907 119.363 10.0368 85.5099Z" fill="#262A36"/>
<path d="M745.002 9.07279C735.328 15.7746 726.738 24.2721 714.874 27.3488C689.611 33.9001 671.397 20.8094 654.011 5.06359C649.45 0.929657 644.718 -3.00829 640.025 -6.98977H599.664C618.199 -4.05365 633.576 6.34457 648.376 17.998C677.638 41.0336 707.08 62.7307 745.002 39.4021V9.07279Z" fill="#262A36"/>
<path d="M675.359 -6.98224C682.861 0.972809 690.884 8.38536 702.348 9.2466C714.92 10.193 722.455 1.87562 729.425 -6.98224H675.359Z" fill="#262A36"/>
<path d="M496.781 497.381C494.971 512.228 496.127 532.278 475.851 540.306C462.823 545.464 465.752 532.878 464.752 526.051C462.077 507.809 451.523 495.205 437.512 484.789C432.362 480.96 423.948 478.052 425.401 470.445C427.395 460.003 437.151 455.513 445.993 452.242C477.343 440.646 496.781 457.002 496.781 497.381Z" fill="#262A36"/>
<path d="M286.779 248.727C287.387 264.895 282.745 277.693 265.703 282.248C255.169 285.065 253.188 277.374 253.353 269.965C253.831 248.294 254.961 226.626 256.383 204.996C256.733 199.68 258.32 193.086 265.08 192.747C274.771 192.262 277.071 201.062 279.66 207.938C284.571 220.972 286.933 234.662 286.779 248.727Z" fill="#262A36"/>
<path d="M331.876 134.578C314.11 123.299 291.787 112.626 273.92 96.7372C258.013 82.5912 262.865 48.4446 278.848 41.7072C294.237 35.2232 304.073 47.7498 314.643 55.6731C326.853 64.828 339.448 68.4431 354.823 65.8119C376.354 62.1254 381.933 69.9261 375.175 94.3693C369.611 114.493 358.04 129.601 331.876 134.578Z" fill="#262A36"/>
<path d="M362.974 753.922C346.879 752.995 344.896 744.482 351.154 732.237C359.717 715.481 368.631 698.904 377.844 682.515C380.626 677.567 384.445 671.398 390.985 672.94C398.677 674.756 401.395 682.78 400.972 689.383C399.855 706.805 401.174 725.174 389.8 740.215C383.011 749.196 373.295 752.892 362.974 753.922Z" fill="#262A36"/>
<path d="M670.117 411.949C670.632 387.302 674.527 361.94 655.405 341.548C646.914 332.494 631.827 331.611 626.759 318.803C620.31 302.513 631.813 280.564 650.477 277.482C671.075 274.078 672.816 293.635 676.693 307.011C686.64 341.324 683.262 378.912 700.729 411.476C706.99 423.149 715.993 433.542 718.089 447.137C719.29 454.94 716.978 462.57 708.736 465.172C694.03 469.815 685.055 460.929 677.812 449.592C670.485 438.129 669.434 425.189 670.117 411.949Z" fill="#262A36"/>
<path d="M1065.97 376.991C1067.07 377.341 1068.26 377.422 1069.41 377.628C1069 376.381 1068.84 374.969 1068.15 373.914C1053.45 351.385 1029.22 340.712 1008.93 325.352C978.585 302.388 960.467 258.392 973.401 232.408C983.086 212.948 999.444 204.882 1023.33 204.924C1035.37 204.781 1049.4 209.865 1063.64 214.005C1069.69 215.763 1077.8 219.458 1081.19 212.271C1084.49 205.264 1076.87 201.073 1071.49 198.151C1029.46 175.331 965.071 181.383 951.839 237.061C943.972 270.162 958.69 297.86 978.401 322.456C1001.16 350.853 1032.31 366.274 1065.97 376.991ZM1127.14 408.771C1132.83 414.493 1142.49 422.587 1148.75 414.236C1157.76 402.238 1145.81 392.475 1138.53 384.481C1107.56 350.445 1068.18 327.39 1031.55 300.709C1017.07 290.164 1003.6 277.454 999.329 258.879C995.407 241.844 1009.13 236.326 1020.6 229.929C1024.02 228.023 1029.83 227.445 1029.23 222.738C1029.01 221.03 1021.82 219.276 1017.78 219.212C995.817 218.868 981.765 232.378 981.765 259.546C983.715 285.7 1003.96 306.75 1027.73 323.361C1063.77 348.542 1096.17 377.64 1127.14 408.771ZM1001.09 784.953C1007.55 782.51 1014.56 782.08 1021.27 781.273C1048.36 778.006 1075.08 770.486 1102.65 772.516C1118.9 773.71 1135.04 776.355 1151.28 777.713C1158.48 778.315 1162.47 773.262 1165.15 766.766C1167.91 760.106 1170.05 751.1 1179.35 752.695C1191.11 754.713 1194.42 764.717 1195.61 775.499C1195.78 777.058 1196.07 778.606 1196.3 780.158C1197.62 779.241 1199.11 778.507 1200.22 777.384C1217.69 759.864 1216.16 735.647 1192.13 725.241C1155.73 709.481 1135.62 679.865 1115.58 648.523C1107.49 635.862 1096.28 625.234 1080.11 633.106C1063.42 641.234 1066.54 658.06 1069.61 671.864C1077.85 708.822 1067.64 745.552 1044.41 755.614C1023.47 764.687 1000.67 765.986 978.919 771.66C968.529 774.369 958.651 778.245 950.199 784.953H909.29C921.272 778.329 933.179 771.546 945.436 765.507C965.339 755.703 987.204 752.903 1008.53 748.011C1040.93 740.579 1055.68 707.117 1049.22 670.286C1040.73 621.92 1006.95 595.786 972.585 568.939C942.486 545.425 915.65 519.461 916.188 476.591C916.526 449.57 928.107 427.154 946.425 408.362C974.012 380.06 970.497 348.936 956.45 315.794C942.474 282.811 932.144 249.169 944.924 212.685C950.001 198.186 961.54 191.045 972.56 182.783C991.753 168.392 992.288 154.546 971.277 143.19C945.508 129.262 933.735 108.485 928.508 80.0981C921.987 44.6726 892.886 33.4211 858.912 50.0815C835.027 61.7943 815.691 81.2543 790.703 90.9378C775.322 96.8972 760.087 96.8239 745 90.9397V67.8329C789.928 89.7321 821.328 61.4122 853.154 34.9891C872.472 18.9503 893.469 11.805 918.762 17.4813C927.29 19.3938 942.651 22.1518 942.738 7.86713C942.826 -6.32245 929.578 -5.32263 919.22 -6.98773H974.018C972.581 17.2001 961.882 39.2339 958.045 62.8813C952.721 95.7092 969.199 117.767 992.573 136.387C1000.53 142.729 1008.65 149.011 1017.32 154.238C1026.56 159.805 1038.66 166.047 1045.11 153.141C1051.76 139.826 1038.56 133.97 1029.41 128.933C1011.76 119.216 989.714 115.775 983.929 90.8704C978.101 65.7916 987.115 42.764 991.806 19.0612C993.511 10.4468 994.617 1.70782 995.924 -6.98773H1016.91C1013.98 2.0741 1011 11.118 1008.2 20.2194C1000.78 44.3083 990.794 68.9673 1010.43 91.6485C1023.57 106.83 1042.85 115.63 1054.5 132.509C1070.47 155.633 1087.08 177.637 1114.07 188.614C1120.33 191.156 1129.23 193.722 1128.73 202.14C1128.18 211.265 1119.25 215.041 1112.13 219.018C1090.24 231.248 1065.38 227.53 1042.11 232.372C1030.2 234.853 1017.81 238.045 1013.45 251.494C1010.13 261.751 1016.46 270.158 1024.02 275.387C1038.94 285.698 1054.46 295.274 1070.4 303.853C1108.94 324.588 1143.13 349.92 1162.32 391.471C1167.46 402.602 1171.58 414.865 1164.67 426.83C1160.88 433.391 1153.85 435.872 1146.4 434.858C1132.7 432.997 1121.65 425.03 1110.37 417.702C1086.97 402.493 1064.15 384.229 1035.59 382.487C1005.09 380.628 982.447 402.319 958.111 417.091C937.494 429.607 924.962 449.043 928.869 474.607C936.068 521.704 964.828 554.017 1002.33 579.159C1014.2 587.114 1027.9 594.444 1042.21 586.726C1055.4 579.609 1053.54 565.399 1050.98 553.499C1045.51 528.04 1054.74 512.898 1076.31 499.025C1104 481.212 1104.53 466.25 1081.99 446.129C1065.65 431.538 1046.64 416.319 1024.05 420.367C989.399 426.576 971.382 454.096 970.922 492.329C970.862 497.249 971.93 503.83 965.613 506.008C963.614 506.699 959.718 504.778 958.061 502.834C951.452 495.085 948.845 485.554 948.177 475.463C946.311 447.313 965.592 434.654 985.887 423.682C1001.78 415.087 1016.2 400.353 1036.03 403.691C1062.24 408.104 1080.17 429.605 1103.48 440.445C1123.79 449.893 1126.71 462.944 1112.59 480.705C1106.22 488.712 1098.34 495.871 1090.04 501.799C1057.79 524.822 1054.01 540.926 1075.22 570.379C1086.21 585.635 1100.46 599.312 1107.94 616.155C1125.09 654.766 1148.8 683.214 1189.52 698.249C1232.99 714.3 1245.42 755.059 1219.76 784.953H1001.09Z" fill="#262A36"/>
<path d="M1039.68 -6.98465H1055.46C1045.58 5.22708 1037.9 18.4703 1035.91 34.8101C1033.42 55.157 1037.74 73.93 1052.25 87.783C1078.01 112.377 1094.29 145.678 1123.12 167.151C1144.7 183.224 1167.92 179.048 1189.77 168.713C1215.74 156.43 1240.34 158.693 1265.27 170.416C1266.83 171.147 1268.63 171.319 1270.32 171.752C1269.87 169.973 1269.66 168.082 1268.93 166.429C1260.25 146.751 1226.2 139.035 1200.18 150.414C1174.12 161.812 1148.04 176.662 1120.58 153.573C1101.86 137.824 1090.93 115.794 1076.38 96.6745C1065.32 82.1404 1049.97 69.891 1049.16 49.7322C1048.08 22.9467 1062.18 5.53595 1083.11 -6.98465H1188.17C1178.24 -3.4902 1168.35 0.132935 1158.27 3.05917C1139.17 8.60077 1120.19 -0.0412903 1101.11 1.70297C1082.48 3.40961 1068.7 13.5226 1059.75 29.9633C1054.25 40.0626 1054.42 50.538 1061.1 60.5105C1063.72 64.4247 1067.13 66.8381 1071.58 66.1571C1076.9 65.3434 1079.08 60.8154 1080.24 55.9945C1088.13 23.3309 1097.33 16.4489 1129.13 25.4334C1149.89 31.2997 1165.28 20.2522 1182.02 13.3088C1218.38 -1.78555 1254.31 21.8519 1254.47 61.6568C1254.52 71.2591 1255.13 80.8852 1256.01 90.4478C1256.62 97.112 1257.9 104.768 1266.87 103.479C1275.07 102.299 1278.1 94.5699 1277.84 87.5909C1276.45 48.9996 1269.19 4.15796 1224.75 -6.98465H1257.76C1280.7 22.5904 1290.52 56.5271 1286.92 94.073C1285.57 108.106 1277.99 121.237 1261.73 118.803C1244.13 116.166 1246.46 99.0246 1244.59 86.1397C1241.22 62.8052 1244.48 36.4335 1218.59 23.3527C1201.49 14.7146 1185.16 20.6481 1171.28 31.4918C1159.31 40.8426 1147.8 44.3272 1132.28 42.6661C1098 38.9935 1085.71 56.3607 1094.02 93.1266C1101.61 126.699 1128.35 155.577 1151.94 155.06C1169.55 154.674 1182.48 142.047 1197.85 135.78C1227.81 123.561 1251.96 136.788 1274.68 155.183C1309.2 183.127 1346.17 205.63 1391.39 209.649C1395.59 210.021 1400.58 209.387 1401.54 204.652C1402.61 199.354 1397.42 197.877 1393.58 196.497C1372.5 188.898 1350.4 184.142 1330.71 172.655C1301.21 155.452 1297.91 129.225 1302.88 97.8485C1308.75 60.8412 1300.52 25.6433 1282.28 -6.98465H1299.63C1313.61 28.5794 1311.55 66.2778 1313.3 103.507C1314.31 125.182 1318.9 146.001 1334.36 162.172C1366.33 195.614 1414.38 194.208 1449.89 159.806C1454.72 155.128 1461.07 145.68 1468.16 151.726C1475.33 157.844 1468.17 165.625 1463.81 171.768C1460.83 175.966 1457.89 180.244 1454.44 184.028C1436.15 204.107 1419.78 227.638 1387.93 224.494C1368.6 222.585 1353.51 210.385 1336.84 202.135C1300.75 184.279 1264.33 207.315 1264.33 248.317C1264.33 299.025 1315.3 334.781 1366.67 323.829C1402.22 316.248 1433.71 297.659 1469 290.126C1488.86 285.885 1512.78 299.724 1517.73 319.962C1521.87 336.912 1510.3 351.26 1489.01 357.118C1458.81 365.426 1430.66 377.099 1410.77 404.082C1389.86 432.453 1382.39 433.424 1352.84 412.455C1328.29 395.036 1303.05 387.113 1273.45 398.123C1246.38 408.19 1235.14 400.794 1234.88 371.472C1234.54 333.837 1217.53 309.665 1183.83 296.333C1154.83 284.865 1139.65 256.971 1146.93 226.784C1150.81 210.682 1163.48 204.376 1178.27 207.813C1191.47 210.878 1186.63 222.918 1184.78 231.734C1179.75 255.669 1181.51 277.053 1203.07 292.585C1216.71 302.413 1229.61 313.011 1236.09 329.588C1241.02 342.22 1246.27 354.796 1255.62 364.77C1276.27 386.782 1304.16 383.08 1330.08 385.741C1385.3 391.409 1430.94 364.766 1476.73 339.208C1485.64 334.231 1496.3 327.104 1489.16 315.098C1482.39 303.712 1470.59 307.531 1461.31 313.207C1430.39 332.124 1400.36 352.044 1363.77 359.33C1332.51 365.554 1300.86 357.694 1286.35 337.514C1258.44 298.687 1251.2 254.752 1252.71 207.976C1253.63 179.284 1237.45 166.332 1210.75 175.459C1167.98 190.076 1128.98 189.064 1096.65 152.609C1079.92 133.737 1066.84 111.446 1046.37 96.0706C1028.49 82.6334 1020.16 65.4779 1023.64 42.4661C1026.29 24.9702 1033.4 9.17096 1039.68 -6.98465Z" fill="#262A36"/>
<path d="M823.166 740.64C860.856 706.49 880.767 671.787 849.654 625.231C832.843 600.078 795.239 591.5 758.246 604.222C753.914 605.711 749.444 606.78 745 607.929V565.663C763.156 569.066 781.383 572.141 799.425 576.089C846.864 586.471 883.201 622.025 887.01 669.177C890.141 707.929 864.928 733.077 834.79 753.081C826.385 758.663 814.236 764.268 819.221 777.855C820.779 782.098 823.65 784.136 827.049 784.953H801.288C796.981 764.901 810.338 752.266 823.166 740.64Z" fill="#262A36"/>
<path d="M985.21 721.416C948.011 734.508 917.231 759.801 881.963 776.446C875.681 779.412 869.311 782.181 862.942 784.953H836.666C838.019 784.747 839.352 784.492 840.628 784.236C872.359 777.871 897.495 760.282 919.657 736.7C955.199 698.879 947.483 615.89 905.504 585.992C882.184 569.383 859.513 551.766 837.268 533.684C830.712 528.354 824.616 517.641 832.314 511.054C840.296 504.228 843.637 516.254 848.388 521.211C857.046 530.245 864.933 540.507 874.919 547.674C913.48 575.338 948.223 605.519 957.765 656.174C959.449 665.119 963.274 674.416 974.439 671.381C983.085 669.031 983.582 660.05 982.021 652.315C973.478 609.986 945.869 581.494 914.461 555.655C896.547 540.919 874.77 529.61 866.207 505.794C859.146 486.154 869.187 467.04 870.08 447.557C870.819 431.441 867.779 413.624 878.091 399.997C885.776 389.838 899.212 384.112 906.535 373.787C926.199 346.065 919.48 314.809 912.093 285.207C903.959 252.612 896.706 220.824 904.367 186.869C911.524 155.158 911.094 123.37 896.788 93.1729C894.299 87.9204 890.418 83.0361 883.932 84.4359C877.227 85.8831 876.357 91.9493 876.386 97.9127C876.502 122.413 883.711 146.288 881.24 171.171C878.921 194.537 863.612 211.732 846.16 207.503C815.834 200.156 782.367 216.258 771.563 245.82C760.84 275.155 766.827 307.205 760.31 337.429C757.239 351.674 755.174 366.331 745.001 377.395V330.878C750.64 315.247 751.998 298.638 752.328 282.314C753.362 230.911 776.192 197.747 824.915 182.142C856.102 172.153 866.7 150.783 864.758 107.725C864.068 92.4127 859.123 74.3505 879.371 70.0879C898.085 66.1479 903.089 83.8578 908.623 97.4218C916.442 116.587 928.311 132.425 942.131 147.526C956.149 162.84 941.368 173.977 933.6 185.153C907.842 222.202 911.689 262.369 928.569 299.325C948.068 342.013 939.659 373.72 909.383 406.54C878.726 439.774 874.888 491.858 898.076 523.664C916.18 548.499 944.412 562.703 965.523 584.616C990.665 610.714 1020.26 634.585 1024.86 674.052C1028.15 702.253 1007.09 713.716 985.21 721.416Z" fill="#262A36"/>
<path d="M1169.52 349.384C1182.24 372.843 1186.74 398.407 1190.58 424.567C1195.13 455.575 1217.72 470.034 1247.69 457.486C1287.41 440.855 1320.45 445.448 1349.97 477.28C1353.31 480.881 1360.27 486.14 1363.16 480.923C1368.15 471.907 1360.4 464.265 1354.88 457.755C1326.7 424.569 1293.52 419.102 1254.07 436.335C1238.92 442.953 1217.79 452.174 1208.53 426.713C1203.8 413.707 1204.28 398.728 1202.41 384.639C1201.61 367.784 1202.65 350.108 1189.32 337.099C1183.67 331.587 1176.06 326.245 1168.78 331.036C1161.64 335.738 1166.39 343.6 1169.52 349.384ZM1043.19 256.786C1043.58 254.747 1047.3 252.422 1049.83 251.916C1071.08 247.659 1093.2 248.411 1113.69 239.486C1120.98 236.308 1124.66 241.753 1125.25 248.421C1128.08 280.809 1142.16 303.946 1173.71 315.047C1192.13 321.529 1210.44 330.967 1214.77 352.662C1217.8 367.836 1216.65 383.924 1216.93 399.613C1217.29 419.647 1227.53 429.184 1246.47 425.459C1263.23 422.163 1279.63 415.469 1296.45 414.37C1332.61 412.002 1354.63 436.986 1374.82 462.574C1384.39 474.694 1382.74 488.34 1370.62 498.922C1362.62 505.913 1354.06 503.367 1346.45 497.833C1337.38 491.228 1329.7 481.685 1319.77 477.391C1268.15 455.062 1218.03 465.751 1171.99 492.41C1130.98 516.149 1122.04 548.462 1140.72 580.337C1158 609.843 1187.72 618.347 1216.83 628.305C1255.74 641.618 1289.87 660.199 1300.4 705.963C1306.08 730.65 1318.27 751.42 1345.3 755.715C1369.74 759.597 1385.21 743.079 1400.52 726.797C1413.46 713.031 1425.46 697.519 1443.77 690.675C1475.72 678.73 1499.44 695.028 1522 714.548V742.974C1515.31 733.02 1509.15 722.621 1499.08 715.538C1469.24 694.543 1443.74 699.521 1421.21 729.325C1405.94 749.536 1389.53 768.859 1369.93 784.953H1296.6C1307.46 738.359 1287.01 702.387 1255.84 671.015C1235.94 650.979 1208.35 643.609 1184.24 630.485C1152.27 613.08 1125.31 590.728 1118.17 551.79C1112.93 523.236 1132.8 509.338 1151.66 494.931C1165.31 484.503 1182.74 477.243 1185.75 456.967C1186.23 453.744 1184.51 450.18 1183.8 446.775C1182.23 447.545 1180.24 447.937 1179.16 449.16C1176.68 451.956 1174.77 455.264 1172.41 458.178C1157.53 476.575 1138.48 490.169 1120.5 505.008C1095.92 525.294 1096.67 549.82 1116.31 585.069C1142 631.198 1184.75 654.148 1227.41 677.952C1258.77 695.452 1287.95 744.818 1270.71 784.953H1246.38C1268.31 738.409 1243.91 689.405 1198.85 673.802C1179.02 666.936 1157.19 663.499 1143.6 644.227C1127.79 621.788 1119.26 594.723 1100.25 574.224C1091.26 564.518 1081.64 554.146 1083.2 539.246C1085.26 519.558 1102.18 511.593 1114.75 500.46C1137.99 479.868 1166.27 462.817 1176.02 431.213C1189.16 388.616 1166.91 356.089 1140.6 326.354C1115.74 298.25 1080.63 286.169 1049.85 267.317C1046.1 265.014 1042.24 261.688 1043.19 256.786Z" fill="#262A36"/>
<path d="M1245.37 596.513C1277.23 613.576 1301.98 640.876 1332.78 659.364C1343.77 665.961 1355.9 669.209 1370.28 669.287C1391 668.477 1410.96 660.393 1429.23 647.886C1433.14 645.214 1438.55 641.197 1435.39 635.089C1431.21 627.021 1423.46 627.918 1416.85 630.682C1367.67 651.254 1329.05 627.518 1290.78 600.52C1277.89 591.421 1264.52 582.256 1247.38 583.702C1243.75 584.009 1240.45 585.699 1240.48 588.689C1240.5 591.37 1242.95 595.216 1245.37 596.513ZM1157.86 549.805C1163.08 544.685 1169.86 558.462 1175.29 564.386C1186.98 577.133 1200.51 584.505 1217.39 577.382C1233.21 570.704 1248.57 566.77 1265.33 573.369C1299.83 586.951 1329.39 611.356 1367.25 618.189C1399.63 624.031 1436.78 605.88 1446.86 573.99C1454.76 548.993 1448.32 522.316 1454.47 496.98C1464.3 456.474 1482.77 422.833 1522 405.404V424.215C1492.35 439.044 1478.87 466.544 1471.42 497.113C1461.33 538.46 1455.52 580.9 1468.69 622.499C1476.76 648.021 1498 661.274 1522 669.619V685.838C1466.89 643.915 1423.45 657.689 1382.63 705.645C1361.08 730.967 1338.62 731.06 1326.52 699.986C1308.42 653.497 1280.37 619.719 1231.91 605.569C1208.7 598.796 1182.61 598.358 1165.04 577.732C1158.15 569.649 1149.58 557.934 1157.86 549.805Z" fill="#262A36"/>
<path d="M1192.85 503.465C1230.02 487.3 1269.3 493.138 1307.92 496.197C1315.79 496.819 1324.05 504.237 1322.5 513.909C1321.48 520.312 1312.99 519.324 1308 518.092C1280.02 511.179 1251.86 506.878 1223.16 511.509C1214.65 512.881 1201.55 511.86 1201.58 524.21C1201.61 537.067 1214.03 536.091 1222.94 535.287C1249.27 532.913 1275.23 529.983 1301.29 539.188C1355.95 558.489 1388.09 544.234 1401.67 486.921C1417.71 419.222 1458.34 383.967 1522 371.413V382.213C1521.57 382.282 1521.14 382.369 1520.72 382.504C1467.07 399.929 1424.23 464.533 1421.51 530.9C1420.64 552.122 1416.72 573.334 1396.67 585.029C1373.73 598.409 1352.23 588.3 1332.87 575.759C1297 552.53 1262.19 530.51 1216.52 549.52C1204.15 554.674 1188.18 548.709 1181.5 533.973C1175.74 521.284 1181.36 508.464 1192.85 503.465Z" fill="#262A36"/>
<path d="M1291.18 222.565C1300.96 208.041 1321.46 206.255 1339.32 219.166C1353.88 229.695 1366.04 244.27 1385.66 245.571C1416.45 247.61 1436.12 228.249 1455.6 208.235C1482.08 181.026 1489.81 179.406 1522 196.178V222.674C1491.47 207.235 1468.79 227.04 1444.46 241.51C1401.26 267.201 1373.42 264.142 1331.26 230.962C1325.38 226.327 1317.37 219.847 1311.32 226.877C1304 235.389 1310.25 245.066 1316.74 251.57C1345.84 280.747 1381.2 281.495 1418.47 274.239C1443.49 269.369 1463.47 252.198 1487.86 246.115C1500.38 242.993 1511.34 247.337 1522 253.035V277.375C1510.09 267.49 1496.81 259.44 1481.2 264.322C1456.25 272.123 1432.52 284.119 1407.42 291.228C1372.64 301.084 1337.13 308.645 1303.89 284.566C1285.22 271.04 1278.77 240.988 1291.18 222.565Z" fill="#262A36"/>
<path d="M777.835 488.107C798.81 493.882 814.976 484.408 827.379 467.807C838.414 453.036 840.285 435.381 840.442 417.454C840.518 397.17 834.64 374.97 853.259 359.664C863.853 350.955 879.107 349.078 883.859 332.235C893.513 298.017 875.51 256.66 845.924 248.345C822.758 241.833 801.314 260.919 793.807 293.804C785.98 328.089 789.615 365.009 771.629 396.897C762.962 412.263 751.05 426.171 750.468 444.996C749.832 465.554 756.68 482.284 777.835 488.107ZM744.999 408.095C749.97 402.575 755.227 397.241 759.117 391.019C779.603 358.254 780.207 320.443 783.845 283.57C787.155 250.012 814.696 226.703 846.58 231.528C873.688 235.628 893.709 263.071 894.865 295.976C895.601 316.98 900.013 338.313 886.951 357.209C879.917 367.387 865.024 367.67 858.859 379.017C849.908 395.487 855.473 413.524 854.335 430.826C852.839 453.523 846.742 473.771 827.268 487.115C798.562 506.787 779.372 504.169 744.999 475.681V408.095Z" fill="#262A36"/>
<path d="M745.003 117.108C769.793 130.187 790.335 119.018 811.321 104.268C820.014 98.1586 831.63 79.8826 842.308 97.9844C850.616 112.063 846.133 130.003 834.622 143.477C819.577 161.088 796.91 165.723 778.112 176.978C765.364 184.615 754.806 194.558 745.003 205.484V117.108Z" fill="#262A36"/>
<path d="M1322.39 -6.99112H1337.65C1338.47 -4.58757 1339.31 -2.19199 1339.91 0.263031C1348.31 34.166 1341.47 69.1203 1346.75 103.271C1350.36 126.603 1367.81 148.716 1388.63 152.435C1407.52 155.806 1423.58 147.762 1433.85 131.858C1461.05 89.699 1474.11 43.6891 1467.05 -6.99112H1483.15C1483.7 -4.13617 1484.39 -1.27133 1484.18 1.5262C1480.52 52.1154 1465.57 100.269 1439.61 142.244C1418.58 176.238 1380.4 186.462 1349.7 148.398C1329.55 123.412 1327.06 93.7814 1326.81 63.1769C1326.63 39.7334 1329.76 15.9514 1322.39 -6.99112Z" fill="#262A36"/>
<path d="M880.538 740.467C919.25 692.119 916.419 639.655 873.648 595.243C838.102 558.335 791.023 549.91 745 538.558V504.485C791.822 519.898 828.319 553.175 868.516 579.972C936.468 625.275 937.711 710.767 871.474 756.684C869.294 758.195 866.824 759.268 864.491 760.547C866.01 758.545 867.484 756.504 869.059 754.55C872.863 749.836 876.752 745.195 880.538 740.467Z" fill="#262A36"/>
<path d="M819.801 710.875C796.437 729.81 775.516 751.052 778.914 784.953H757.713C762.655 749.504 782.414 723.635 809.772 702.077C823.762 691.051 832.965 676.119 827.676 657.132C822.381 638.119 808.115 630.443 789.337 631.394C772.261 632.259 759.254 643.039 745.007 650.784V631.742C752.83 628.836 760.804 626.244 768.257 622.56C793.906 609.877 822.694 616.541 835.782 638.735C849.702 662.339 841.948 692.926 819.801 710.875Z" fill="#262A36"/>
<path d="M744.998 9.07279C754.672 15.7746 763.262 24.2721 775.126 27.3488C800.389 33.9001 818.603 20.8094 835.989 5.06359C840.55 0.929657 845.282 -3.00829 849.975 -6.98977H890.336C871.801 -4.05365 856.424 6.34457 841.624 17.998C812.362 41.0336 782.92 62.7307 744.998 39.4021V9.07279Z" fill="#262A36"/>
<path d="M814.641 -6.98224C807.139 0.972809 799.116 8.38536 787.652 9.2466C775.08 10.193 767.545 1.87562 760.575 -6.98224H814.641Z" fill="#262A36"/>
<path d="M993.219 497.381C995.029 512.228 993.873 532.278 1014.15 540.306C1027.18 545.464 1024.25 532.878 1025.25 526.051C1027.92 507.809 1038.48 495.205 1052.49 484.789C1057.64 480.96 1066.05 478.052 1064.6 470.445C1062.6 460.003 1052.85 455.513 1044.01 452.242C1012.66 440.646 993.219 457.002 993.219 497.381Z" fill="#262A36"/>
<path d="M1203.22 248.727C1202.61 264.895 1207.26 277.693 1224.3 282.248C1234.83 285.065 1236.81 277.374 1236.65 269.965C1236.17 248.294 1235.04 226.626 1233.62 204.996C1233.27 199.68 1231.68 193.086 1224.92 192.747C1215.23 192.262 1212.93 201.062 1210.34 207.938C1205.43 220.972 1203.07 234.662 1203.22 248.727Z" fill="#262A36"/>
<path d="M1158.12 134.578C1175.89 123.299 1198.21 112.626 1216.08 96.7372C1231.99 82.5912 1227.13 48.4446 1211.15 41.7072C1195.76 35.2232 1185.93 47.7498 1175.36 55.6731C1163.15 64.828 1150.55 68.4431 1135.18 65.8119C1113.65 62.1254 1108.07 69.9261 1114.83 94.3693C1120.39 114.493 1131.96 129.601 1158.12 134.578Z" fill="#262A36"/>
<path d="M1127.03 753.922C1143.12 752.995 1145.1 744.482 1138.85 732.237C1130.28 715.481 1121.37 698.904 1112.16 682.515C1109.37 677.567 1105.56 671.398 1099.01 672.94C1091.32 674.756 1088.61 682.78 1089.03 689.383C1090.15 706.805 1088.83 725.174 1100.2 740.215C1106.99 749.196 1116.71 752.892 1127.03 753.922Z" fill="#262A36"/>
<path d="M819.883 411.949C819.368 387.302 815.473 361.94 834.595 341.548C843.086 332.494 858.173 331.611 863.241 318.803C869.69 302.513 858.187 280.564 839.523 277.482C818.925 274.078 817.184 293.635 813.307 307.011C803.36 341.324 806.738 378.912 789.271 411.476C783.01 423.149 774.007 433.542 771.911 447.137C770.71 454.94 773.022 462.57 781.264 465.172C795.97 469.815 804.945 460.929 812.188 449.592C819.515 438.129 820.566 425.189 819.883 411.949Z" fill="#262A36"/>
</g>
<defs>
<clipPath id="clip0_2_204394">
<rect width="1440" height="676" fill="white"/>
</clipPath>
</defs>
</svg>
